<?xml version="1.0" standalone="no"?>
<!DOCTYPE svg PUBLIC "-//W3C//DTD SVG 20010904//EN"
 "http://www.w3.org/TR/2001/REC-SVG-20010904/DTD/svg10.dtd">
<svg version="1.0" xmlns="http://www.w3.org/2000/svg"
 width="700.000000pt" height="700.000000pt" viewBox="0 0 700.000000 700.000000"
 preserveAspectRatio="xMidYMid meet">
<metadata>
Created by potrace 1.14, written by Peter Selinger 2001-2017
</metadata>
<g transform="translate(0.000000,700.000000) scale(0.100000,-0.100000)"
fill="#000000" stroke="none">
<path d="M1260 6976 c-122 -29 -202 -58 -318 -112 -79 -37 -192 -99 -227 -126
-35 -26 -176 -139 -203 -164 -34 -29 -180 -198 -217 -251 -116 -164 -221 -406
-259 -598 -8 -44 -19 -93 -23 -110 -4 -16 -8 -943 -10 -2060 -2 -1920 -1
-2036 16 -2145 26 -162 62 -288 122 -418 16 -35 29 -65 29 -67 0 -13 108 -183
159 -253 56 -75 184 -211 257 -273 189 -160 465 -293 712 -344 43 -8 88 -18
102 -22 36 -11 4084 -13 4150 -3 30 4 73 11 95 14 222 34 468 138 677 286 119
84 285 250 371 370 122 172 232 422 271 616 8 43 19 93 23 109 4 17 8 946 9
2065 2 1683 0 2051 -12 2125 -55 361 -218 682 -475 935 -216 213 -492 363
-799 435 -57 13 -332 15 -2210 14 l-2145 -1 -95 -22z"/>
</g>
</svg>
