<svg width="210" height="55" viewBox="0 0 210 55" fill="none" xmlns="http://www.w3.org/2000/svg">
<path d="M79.7859 28.04L79.7559 7.95271C79.7579 7.29241 79.6289 6.63801 79.3769 6.02721C79.1239 5.41631 78.7539 4.86111 78.2859 4.39351C77.8189 3.92601 77.2629 3.55541 76.6529 3.30311C76.0419 3.05081 75.3869 2.92181 74.7269 2.92351C73.4059 2.92551 72.1399 3.45032 71.2079 4.38322C70.2749 5.31612 69.7499 6.58142 69.7479 7.90272L69.7699 22.8974L12.4784 22.8137L12.4565 7.81891C12.4507 6.49761 11.9222 5.23081 10.9865 4.29521C10.0509 3.35951 8.78412 2.83101 7.46282 2.82521C6.80252 2.82151 6.14852 2.94861 5.53842 3.19911C4.92822 3.44961 4.37412 3.81862 3.90792 4.28482C3.44172 4.75102 3.07272 5.30511 2.82222 5.91521C2.57172 6.52541 2.44462 7.17941 2.44832 7.83971L2.47732 27.7148L2.50642 47.59C2.50072 48.252 2.62642 48.908 2.87622 49.522C3.12602 50.135 3.49492 50.693 3.96162 51.164C4.66102 51.871 5.55462 52.355 6.52862 52.554C7.50252 52.752 8.51272 52.656 9.43022 52.278C10.3478 51.9 11.1312 51.257 11.6805 50.431C12.2299 49.605 12.5203 48.633 12.5147 47.64L12.4931 32.8573L69.7839 32.9411L69.8059 47.936C69.8099 48.593 69.9419 49.243 70.1969 49.85C70.4509 50.457 70.8229 51.008 71.2899 51.471C71.7569 51.935 72.3099 52.302 72.9189 52.553C73.5269 52.803 74.1779 52.931 74.8349 52.93C75.4929 52.928 76.1429 52.797 76.7489 52.545C77.3539 52.292 77.9039 51.922 78.3669 51.457C78.8289 50.991 79.1949 50.439 79.4429 49.831C79.6919 49.223 79.8179 48.572 79.8149 47.915L79.7859 28.04Z" fill="#FF620A"/>
<path d="M64.4349 8.905C66.8916 9.785 68.12 10.9583 68.12 12.425C68.12 12.9017 67.8999 13.8 67.4599 15.12L56.9 45.645C56.8267 45.902 56.6982 46.213 56.5149 46.58C56.3316 46.947 55.8366 47.442 55.0299 48.065C54.2599 48.652 53.3249 48.945 52.2249 48.945C51.1616 48.945 50.2266 48.652 49.4199 48.065C48.6499 47.442 48.1366 46.837 47.8799 46.25L41.445 27.275C37.3749 39.3017 35.3033 45.425 35.23 45.645C35.1567 45.865 34.9917 46.177 34.735 46.58C34.4783 46.983 34.185 47.35 33.855 47.68C33.0117 48.523 32.0033 48.945 30.83 48.945C29.6567 48.945 28.685 48.67 27.915 48.12C27.1817 47.57 26.6867 47.02 26.43 46.47L26.0449 45.645L15.43 15.12C15.0267 13.91 14.825 13.0117 14.825 12.425C14.825 10.9583 16.0532 9.8033 18.5099 8.96C19.5732 8.5933 20.5266 8.41 21.3699 8.41C22.2499 8.41 22.9099 8.7033 23.3499 9.29C23.8266 9.8767 24.2483 10.775 24.615 11.985L30.665 30.355L36.66 12.26C37.1733 10.72 38.1082 9.6567 39.4649 9.07C40.0516 8.8133 40.8033 8.685 41.72 8.685C42.6733 8.685 43.5533 8.9967 44.36 9.62C45.1667 10.2067 45.68 10.7933 45.9 11.38L52.2249 30.465L58.275 11.985C58.5683 11.1417 58.8066 10.5183 58.9899 10.115C59.1732 9.7117 59.5033 9.3267 59.98 8.96C60.4933 8.5567 61.1166 8.355 61.8499 8.355C62.5832 8.355 63.4449 8.5383 64.4349 8.905ZM84.2319 34.535C84.2319 30.135 85.7719 26.505 88.8519 23.645C91.9319 20.785 95.452 19.355 99.412 19.355C103.372 19.355 106.874 20.785 109.917 23.645C112.961 26.4683 114.482 30.08 114.482 34.48C114.482 37.5233 113.694 40.2367 112.117 42.62C110.541 44.967 108.616 46.708 106.342 47.845C104.106 48.945 101.777 49.495 99.3569 49.495C96.9369 49.495 94.591 48.908 92.317 47.735C90.044 46.525 88.1189 44.765 86.5419 42.455C85.0019 40.1083 84.2319 37.4683 84.2319 34.535ZM95.7269 38.495C96.9009 39.375 98.092 39.815 99.302 39.815C100.512 39.815 101.722 39.3567 102.932 38.44C104.142 37.5233 104.747 36.1667 104.747 34.37C104.747 32.5733 104.179 31.235 103.042 30.355C101.906 29.475 100.677 29.035 99.3569 29.035C98.0369 29.035 96.809 29.4933 95.672 30.41C94.536 31.3267 93.9669 32.6833 93.9669 34.48C93.9669 36.24 94.5539 37.5783 95.7269 38.495ZM137.726 20.345C138.423 20.565 138.991 20.95 139.431 21.5C139.908 22.0133 140.146 22.8567 140.146 24.03C140.146 25.2033 139.798 26.4867 139.101 27.88C138.404 29.2733 137.396 29.97 136.076 29.97C135.416 29.97 134.774 29.8233 134.151 29.53C133.564 29.2367 132.776 29.09 131.786 29.09C130.796 29.09 129.861 29.4383 128.981 30.135C128.138 30.8317 127.716 31.675 127.716 32.665V44.215C127.716 45.058 127.679 45.7 127.606 46.14C127.569 46.543 127.404 47.02 127.111 47.57C126.561 48.523 125.131 49 122.821 49C121.061 49 119.796 48.688 119.026 48.065C118.439 47.552 118.109 46.763 118.036 45.7C118.036 45.333 118.036 44.802 118.036 44.105V24.8C118.036 23.9567 118.054 23.3333 118.091 22.93C118.164 22.49 118.329 22.0133 118.586 21.5C119.099 20.51 120.529 20.015 122.876 20.015C125.076 20.015 126.451 20.4367 127.001 21.28C127.404 21.8667 127.606 22.4717 127.606 23.095C127.789 22.8383 128.046 22.5267 128.376 22.16C128.743 21.7933 129.494 21.2983 130.631 20.675C131.768 20.0517 132.758 19.74 133.601 19.74C134.481 19.74 135.214 19.795 135.801 19.905C136.388 19.9783 137.029 20.125 137.726 20.345ZM160.223 34.48L167.538 40.53C168.454 41.3 169.023 41.8867 169.243 42.29C169.499 42.6933 169.628 43.078 169.628 43.445C169.628 44.325 169.059 45.517 167.923 47.02C166.676 48.56 165.576 49.33 164.623 49.33C163.816 49.33 162.698 48.798 161.268 47.735L160.718 47.35C159.874 46.653 158.573 45.443 156.813 43.72C155.053 41.96 153.714 40.7133 152.798 39.98V44.215C152.798 45.058 152.761 45.7 152.688 46.14C152.651 46.543 152.486 47.02 152.193 47.57C151.716 48.523 150.304 49 147.958 49C145.648 49 144.236 48.505 143.723 47.515C143.466 46.965 143.301 46.488 143.228 46.085C143.191 45.645 143.173 45.003 143.173 44.16V11.215C143.173 10.3717 143.191 9.7483 143.228 9.345C143.301 8.905 143.466 8.41 143.723 7.86C144.236 6.87 145.666 6.375 148.013 6.375C149.773 6.375 151.019 6.6867 151.753 7.31C152.376 7.8233 152.706 8.63 152.743 9.73C152.779 10.06 152.798 10.5733 152.798 11.27V28.705C153.458 28.155 154.448 27.22 155.768 25.9C157.124 24.58 158.133 23.645 158.793 23.095L159.453 22.655C160.736 21.665 161.836 21.17 162.753 21.17C163.669 21.17 164.714 21.9217 165.888 23.425C167.098 24.8917 167.703 26.0467 167.703 26.89C167.703 27.7333 167.024 28.7233 165.668 29.86L160.223 34.48ZM172.66 24.855C172.66 24.0117 172.678 23.3883 172.715 22.985C172.788 22.545 172.953 22.05 173.21 21.5C173.723 20.5467 175.153 20.07 177.5 20.07C179.26 20.07 180.507 20.3817 181.24 21.005C181.863 21.5183 182.193 22.3067 182.23 23.37C182.267 23.7367 182.285 24.2683 182.285 24.965V44.215C182.285 45.058 182.248 45.7 182.175 46.14C182.138 46.543 181.973 47.02 181.68 47.57C181.203 48.523 179.792 49 177.445 49C175.135 49 173.723 48.505 173.21 47.515C172.953 46.965 172.788 46.488 172.715 46.085C172.678 45.682 172.66 45.04 172.66 44.16V24.855ZM181.68 14.68C181.423 15.1933 180.947 15.56 180.25 15.78C179.553 16 178.618 16.11 177.445 16.11C176.308 16.11 175.392 16 174.695 15.78C173.998 15.56 173.503 15.175 173.21 14.625C172.953 14.075 172.788 13.5983 172.715 13.195C172.678 12.755 172.66 12.1133 172.66 11.27C172.66 10.4267 172.678 9.8033 172.715 9.4C172.788 8.96 172.953 8.4833 173.21 7.97C173.723 6.98 175.153 6.485 177.5 6.485C179.81 6.485 181.203 6.98 181.68 7.97C181.973 8.52 182.138 9.015 182.175 9.455C182.248 9.8583 182.285 10.4817 182.285 11.325C182.285 12.1683 182.248 12.81 182.175 13.25C182.138 13.6533 181.973 14.13 181.68 14.68ZM203.509 29.75L199.934 29.53V37.12C199.934 38.11 200.08 38.825 200.374 39.265C200.704 39.705 201.29 39.925 202.134 39.925C203.014 39.925 203.674 39.9617 204.114 40.035C204.59 40.0717 205.085 40.2367 205.599 40.53C206.442 41.0067 206.864 42.235 206.864 44.215C206.864 46.525 206.35 47.937 205.324 48.45C204.774 48.707 204.279 48.872 203.839 48.945C203.435 48.982 202.83 49 202.024 49C198.21 49 195.314 48.138 193.334 46.415C191.354 44.692 190.364 41.7767 190.364 37.67V29.53C189.667 29.64 188.915 29.695 188.109 29.695C187.302 29.695 186.624 29.3833 186.074 28.76C185.56 28.1367 185.304 27.0733 185.304 25.57C185.304 24.0667 185.395 22.985 185.579 22.325C185.762 21.6283 186.019 21.1333 186.349 20.84C186.935 20.3633 187.669 20.125 188.549 20.125L190.364 20.345V14.68C190.364 13.8367 190.382 13.2133 190.419 12.81C190.492 12.4067 190.675 11.9667 190.969 11.49C191.445 10.5733 192.857 10.115 195.204 10.115C197.697 10.115 199.182 10.7933 199.659 12.15C199.842 12.7367 199.934 13.6717 199.934 14.955V20.345C201.547 20.1983 202.757 20.125 203.564 20.125C204.407 20.125 205.03 20.1617 205.434 20.235C205.874 20.2717 206.369 20.4367 206.919 20.73C207.872 21.2067 208.349 22.6183 208.349 24.965C208.349 27.275 207.854 28.6867 206.864 29.2C206.314 29.4567 205.819 29.6217 205.379 29.695C204.975 29.7317 204.352 29.75 203.509 29.75Z" fill="#1D1D1D"/>
</svg>
