<svg width="26" height="26" viewBox="0 0 26 26" fill="none" xmlns="http://www.w3.org/2000/svg">
<g clip-path="url(#clip0)">
<path d="M23.6313 11.5479H23.6327H14.453V2.38547C14.453 1.6314 13.8425 1.00092 13.0884 1.00092H11.9138C11.16 1.00092 10.5467 1.6314 10.5467 2.38547V11.5479H1.36728C0.613618 11.5479 0 12.1576 0 12.9119V14.0932C0 14.8468 0.613415 15.454 1.36728 15.454H10.547V24.6495C10.547 25.4031 11.16 26.0007 11.914 26.0007H13.0886C13.8427 26.0007 14.4533 25.4029 14.4533 24.6495V15.454H23.6313C24.3854 15.454 25 14.8466 25 14.0932V12.9119C25 12.1576 24.3854 11.5479 23.6313 11.5479Z" fill="#E45612"/>
</g>
<defs>
<clipPath id="clip0">
<rect width="25" height="25" fill="white" transform="translate(0 1)"/>
</clipPath>
</defs>
</svg>
