<svg width="11" height="12" viewBox="0 0 11 12" fill="none" xmlns="http://www.w3.org/2000/svg">
<path d="M10.0654 10.849C9.82914 11.074 9.50867 11.2004 9.17451 11.2004C8.84035 11.2004 8.51988 11.074 8.28358 10.849L5.50003 7.81899L2.71648 10.848C2.59983 10.9609 2.46086 11.0507 2.30758 11.1122C2.15431 11.1737 1.98976 11.2057 1.82343 11.2064C1.6571 11.207 1.49229 11.1763 1.33849 11.116C1.18469 11.0557 1.04496 10.9669 0.927346 10.8549C0.809734 10.7429 0.716572 10.6098 0.653234 10.4634C0.589895 10.3169 0.557634 10.1599 0.558311 10.0015C0.558989 9.84311 0.592591 9.68639 0.657179 9.54042C0.721768 9.39444 0.816065 9.26208 0.934632 9.15099L3.83053 6.00099L0.933582 2.84899C0.815016 2.73789 0.720718 2.60554 0.65613 2.45956C0.591541 2.31358 0.557939 2.15687 0.557261 1.99847C0.556584 1.84006 0.588845 1.68309 0.652184 1.53662C0.715522 1.39014 0.808684 1.25706 0.926296 1.14505C1.04391 1.03304 1.18364 0.944313 1.33744 0.883991C1.49124 0.823669 1.65605 0.792944 1.82238 0.793589C1.98871 0.794234 2.15326 0.826236 2.30653 0.887749C2.45981 0.949262 2.59878 1.03907 2.71543 1.15199L5.50003 4.18299L8.28358 1.15199C8.40023 1.03907 8.5392 0.949262 8.69248 0.887749C8.84576 0.826236 9.0103 0.794234 9.17663 0.793589C9.34296 0.792944 9.50778 0.823669 9.66157 0.883991C9.81537 0.944313 9.9551 1.03304 10.0727 1.14505C10.1903 1.25706 10.2835 1.39014 10.3468 1.53662C10.4102 1.68309 10.4424 1.84006 10.4418 1.99847C10.4411 2.15687 10.4075 2.31358 10.3429 2.45956C10.2783 2.60554 10.184 2.73789 10.0654 2.84899L7.16953 6.00099L10.0654 9.15099C10.1826 9.26244 10.2755 9.39478 10.3389 9.54046C10.4023 9.68614 10.435 9.84229 10.435 9.99999C10.435 10.1577 10.4023 10.3138 10.3389 10.4595C10.2755 10.6052 10.1826 10.7375 10.0654 10.849Z" fill="#1D1D1D"/>
</svg>
