<svg width="35" height="41" viewBox="0 0 35 41" fill="none" xmlns="http://www.w3.org/2000/svg">
<path d="M34.9881 10.2905C34.9918 9.65312 34.8354 9.02525 34.5337 8.46605C34.2319 7.90684 33.7948 7.43468 33.2633 7.09404C32.7319 6.7534 32.1237 6.55548 31.496 6.51892C30.8683 6.48235 30.2417 6.60836 29.6753 6.88505C29.6379 6.24316 29.4425 5.62098 29.1071 5.07523C28.7717 4.52949 28.3069 4.07753 27.755 3.76058C27.2031 3.44363 26.5818 3.27176 25.9476 3.26065C25.3134 3.24954 24.6866 3.39954 24.1242 3.69697C24.0608 2.7739 23.6816 1.90222 23.0519 1.23232C22.4223 0.562429 21.5818 0.136335 20.6754 0.0275569C19.7689 -0.0812213 18.8535 0.134139 18.087 0.636482C17.3205 1.13882 16.7509 1.89664 16.4767 2.77918C15.8793 2.41597 15.1958 2.22397 14.4992 2.22368C13.9867 2.22526 13.4795 2.32937 13.0067 2.53004C12.534 2.73071 12.1049 3.02399 11.7441 3.39308C11.3834 3.76217 11.098 4.19981 10.9044 4.68092C10.7108 5.16202 10.6128 5.67713 10.6159 6.19672L10.6159 21.485C9.09115 19.5529 7.60213 17.6448 7.3758 17.3188C7.0313 16.7642 6.55294 16.3079 5.98597 15.9931C5.41899 15.6782 4.78216 15.5152 4.1357 15.5195C3.58738 15.5026 3.04147 15.6 2.53169 15.8054C2.0219 16.0108 1.55905 16.3199 1.1717 16.7137C0.784361 17.1075 0.480745 17.5776 0.279599 18.095C0.0784519 18.6124 -0.0159571 19.1661 0.00219954 19.7219C0.109409 21.8956 4.25483 29.576 7.04226 33.7543C11.2592 40.0822 15.2854 41 15.4641 41H27.9957C28.2328 40.9974 28.4627 40.9169 28.6508 40.7706C30.7899 38.7721 32.3369 36.2086 33.1179 33.3679C34.3091 29.6364 34.9404 24.2746 35 16.9927L34.9881 10.2905ZM31.0809 32.6917C30.4121 34.9901 29.2114 37.0933 27.5788 38.8263H15.7738C15.214 38.6572 12.1168 37.4979 8.78143 32.4864C5.44604 27.4748 2.20594 20.7967 2.14638 19.6133C2.13678 19.3605 2.17952 19.1084 2.27185 18.8734C2.36417 18.6384 2.50403 18.4256 2.68243 18.2487C2.85814 18.0653 3.0697 17.9212 3.30355 17.8255C3.5374 17.7299 3.78838 17.6848 4.04041 17.6932C4.35509 17.6746 4.66869 17.7449 4.94629 17.8963C5.2239 18.0477 5.45463 18.2741 5.61281 18.5506C5.95826 19.0698 8.42407 22.1734 9.86543 24.021L12.7601 22.0405L12.7601 6.19672C12.7401 5.95047 12.7706 5.7027 12.8498 5.46903C12.9291 5.23537 13.0552 5.0209 13.2203 4.83915C13.3854 4.65741 13.5859 4.51235 13.8091 4.41312C14.0323 4.3139 14.2734 4.26267 14.5171 4.26267C14.7608 4.26267 15.0019 4.3139 15.2251 4.41312C15.4483 4.51235 15.6488 4.65741 15.8139 4.83915C15.979 5.0209 16.1052 5.23537 16.1844 5.46903C16.2636 5.7027 16.2942 5.95047 16.2742 6.19672L16.2742 19.6495H18.4183L18.4183 3.95056C18.469 3.50619 18.6791 3.09621 19.0086 2.79861C19.338 2.50102 19.7639 2.33659 20.2052 2.33659C20.6464 2.33659 21.0723 2.50102 21.4017 2.79861C21.7312 3.09621 21.9413 3.50619 21.992 3.95056L21.992 19.8065H24.1362L24.1362 7.18696C24.1165 6.94885 24.1457 6.7092 24.2221 6.48315C24.2985 6.2571 24.4203 6.04958 24.5798 5.87371C24.7394 5.69784 24.9332 5.55744 25.149 5.46141C25.3648 5.36538 25.5979 5.31579 25.8336 5.31579C26.0693 5.31579 26.3024 5.36538 26.5183 5.46141C26.7341 5.55744 26.9279 5.69784 27.0874 5.87371C27.247 6.04958 27.3688 6.2571 27.4452 6.48315C27.5215 6.7092 27.5508 6.94885 27.5311 7.18696L27.5311 21.002H29.6753L29.6753 10.2543C29.7096 9.85391 29.8908 9.48114 30.183 9.20955C30.4752 8.93796 30.8572 8.7873 31.2536 8.7873C31.6501 8.7873 32.0321 8.93796 32.3243 9.20955C32.6165 9.48114 32.7977 9.85391 32.832 10.2543V16.9565C32.7963 24.0935 32.2245 29.1775 31.0809 32.6917Z" fill="#F55F0B"/>
</svg>
