<svg width="20" height="20" viewBox="0 0 20 20" fill="none" xmlns="http://www.w3.org/2000/svg">
<g clip-path="url(#clip0)">
<path d="M9.99999 3.43501L9.10374 2.51376C6.99999 0.351265 3.14249 1.09752 1.74999 3.81627C1.09624 5.09502 0.948741 6.94127 2.14249 9.29751C3.29249 11.5663 5.68499 14.2838 9.99999 17.2438C14.315 14.2838 16.7062 11.5663 17.8575 9.29751C19.0512 6.94002 18.905 5.09502 18.25 3.81627C16.8575 1.09752 13 0.350015 10.8962 2.51252L9.99999 3.43501ZM9.99999 18.75C-9.16626 6.08502 4.09874 -3.79999 9.77999 1.42876C9.85499 1.49751 9.92874 1.56876 9.99999 1.64251C10.0705 1.56883 10.1439 1.49794 10.22 1.43001C15.9 -3.80248 29.1662 6.08376 9.99999 18.75Z" fill="#BB0000"/>
</g>
<defs>
<clipPath id="clip0">
<rect width="20" height="20" fill="white"/>
</clipPath>
</defs>
</svg>
