<svg width="62" height="60" viewBox="0 0 62 60" fill="none" xmlns="http://www.w3.org/2000/svg">
<path d="M29.0411 52.5305L11.0152 41.7556C10.6636 41.5455 10.3735 41.2466 10.1739 40.8891C9.97436 40.5316 9.87242 40.1281 9.87834 39.719L10.1818 18.7456C10.1882 18.3366 10.302 17.9366 10.5117 17.5857C10.7215 17.2347 11.0199 16.9451 11.3771 16.7458L29.7065 6.54735C30.064 6.34843 30.4677 6.24712 30.8771 6.2536C31.2865 6.26008 31.6871 6.37412 32.0387 6.58426L50.0646 17.3592C50.4162 17.5693 50.7063 17.8682 50.9059 18.2257C51.1054 18.5832 51.2074 18.9868 51.2014 19.3958L50.898 40.3692C50.8916 40.7782 50.7778 41.1782 50.568 41.5291C50.3583 41.8801 50.0598 42.1697 49.7027 42.369L31.3733 52.5675C31.0158 52.7664 30.612 52.8677 30.2027 52.8612C29.7933 52.8547 29.3927 52.7407 29.0411 52.5305Z" fill="#1D1D1D"/>
</svg>
