<svg width="88" height="88" viewBox="0 0 88 88" fill="none" xmlns="http://www.w3.org/2000/svg">
<g clip-path="url(#clip0)">
<path d="M0 31.7518C0 14.0787 14.3269 -0.248199 32 -0.248199H56C73.673 -0.248199 88 14.0787 88 31.7518V55.7518C88 73.425 73.673 87.752 56 87.752H32C14.3269 87.752 0 73.425 0 55.7518V31.7518Z" fill="#E45612"/>
<path d="M0 20.2852C0 8.9449 9.1931 -0.248199 20.5333 -0.248199H67.467C78.807 -0.248199 88 8.9449 88 20.2852V67.218C88 78.559 78.807 87.752 67.467 87.752H20.5333C9.1931 87.752 0 78.559 0 67.218V20.2852Z" fill="#E45612"/>
<path d="M82.538 44.04L82.508 23.9527C82.51 23.2924 82.381 22.638 82.129 22.0272C81.876 21.4163 81.506 20.8611 81.038 20.3935C80.571 19.926 80.015 19.5554 79.404 19.3031C78.794 19.0508 78.139 18.9218 77.479 18.9235C76.158 18.9255 74.892 19.4503 73.96 20.3832C73.027 21.3161 72.502 22.5814 72.5 23.9027L72.522 38.8974L15.2305 38.8137L15.2086 23.8189C15.2027 22.4976 14.6742 21.2308 13.7386 20.2952C12.8029 19.3595 11.5361 18.831 10.2148 18.8252C9.55457 18.8215 8.90047 18.9486 8.29037 19.1991C7.68027 19.4496 7.12607 19.8186 6.65997 20.2848C6.19377 20.751 5.82477 21.3051 5.57427 21.9152C5.32377 22.5254 5.19667 23.1794 5.20027 23.8397L5.22937 43.7148L5.25837 63.59C5.25277 64.252 5.37847 64.908 5.62827 65.522C5.87807 66.135 6.24697 66.693 6.71357 67.164C7.41297 67.871 8.30667 68.355 9.28057 68.554C10.2546 68.752 11.2647 68.656 12.1823 68.278C13.0998 67.9 13.8832 67.257 14.4326 66.431C14.9819 65.605 15.2723 64.633 15.2668 63.64L15.2452 48.8573L72.536 48.9411L72.558 63.936C72.562 64.593 72.694 65.243 72.949 65.85C73.203 66.457 73.575 67.008 74.042 67.471C74.509 67.935 75.062 68.302 75.671 68.553C76.279 68.803 76.93 68.931 77.587 68.93C78.245 68.928 78.895 68.797 79.501 68.545C80.106 68.292 80.656 67.922 81.119 67.457C81.581 66.991 81.947 66.439 82.195 65.831C82.444 65.223 82.57 64.572 82.567 63.915L82.538 44.04Z" fill="#1D1D1D"/>
<path d="M66.4619 24.6568C68.9189 25.5368 70.1469 26.7102 70.1469 28.1768C70.1469 28.6535 69.9269 29.5518 69.4869 30.8718L58.9269 61.397C58.8539 61.653 58.7249 61.965 58.5419 62.332C58.3589 62.698 57.8634 63.193 57.0568 63.817C56.2868 64.403 55.3518 64.697 54.2518 64.697C53.1884 64.697 52.2534 64.403 51.4468 63.817C50.6768 63.193 50.1634 62.588 49.9068 62.002L43.4718 43.0268C39.4018 55.0535 37.3301 61.177 37.2568 61.397C37.1834 61.617 37.0184 61.928 36.7618 62.332C36.5051 62.735 36.2118 63.102 35.8818 63.432C35.0384 64.275 34.0301 64.697 32.8568 64.697C31.6834 64.697 30.7118 64.422 29.9418 63.872C29.2084 63.322 28.7134 62.772 28.4568 62.222L28.0718 61.397L17.4568 30.8718C17.0534 29.6618 16.8518 28.7635 16.8518 28.1768C16.8518 26.7102 18.0801 25.5552 20.5368 24.7118C21.6001 24.3452 22.5534 24.1618 23.3968 24.1618C24.2768 24.1618 24.9368 24.4552 25.3768 25.0418C25.8534 25.6285 26.2751 26.5268 26.6418 27.7368L32.6918 46.1068L38.6868 28.0118C39.2001 26.4718 40.1351 25.4085 41.4918 24.8218C42.0784 24.5652 42.8301 24.4368 43.7468 24.4368C44.7001 24.4368 45.5801 24.7485 46.3868 25.3718C47.1934 25.9585 47.7068 26.5452 47.9268 27.1318L54.2518 46.2168L60.3019 27.7368C60.5949 26.8935 60.8339 26.2702 61.0169 25.8668C61.1999 25.4635 61.5299 25.0785 62.0069 24.7118C62.5199 24.3085 63.1439 24.1068 63.8769 24.1068C64.6099 24.1068 65.4719 24.2902 66.4619 24.6568Z" fill="white"/>
</g>
<defs>
<clipPath id="clip0">
<rect width="88" height="88" fill="white"/>
</clipPath>
</defs>
</svg>
