<svg width="85" height="54" viewBox="0 0 85 54" fill="none" xmlns="http://www.w3.org/2000/svg">
<path d="M81.7859 27.04L81.7559 6.95268C81.7579 6.29238 81.6289 5.63798 81.3769 5.02718C81.1239 4.41628 80.7539 3.86108 80.2859 3.39348C79.8189 2.92598 79.2629 2.55538 78.6529 2.30308C78.0419 2.05078 77.3869 1.92178 76.7269 1.92348C75.4059 1.92548 74.1399 2.45028 73.2079 3.38318C72.2749 4.31608 71.7499 5.58139 71.7479 6.90269L71.7699 21.8974L14.4784 21.8137L14.4565 6.81888C14.4507 5.49758 13.9222 4.23078 12.9865 3.29518C12.0509 2.35948 10.7841 1.83098 9.46282 1.82518C8.80252 1.82148 8.14852 1.94858 7.53842 2.19908C6.92822 2.44958 6.37412 2.81858 5.90792 3.28478C5.44172 3.75098 5.07272 4.30508 4.82222 4.91518C4.57172 5.52538 4.44462 6.17938 4.44832 6.83968L4.47732 26.7148L4.50642 46.59C4.50072 47.252 4.62642 47.908 4.87622 48.522C5.12602 49.135 5.49492 49.693 5.96162 50.164C6.66102 50.871 7.55462 51.355 8.52862 51.554C9.50252 51.752 10.5127 51.656 11.4302 51.278C12.3478 50.9 13.1312 50.257 13.6805 49.431C14.2299 48.605 14.5203 47.633 14.5147 46.64L14.4931 31.8573L71.7839 31.9411L71.8059 46.936C71.8099 47.593 71.9419 48.243 72.1969 48.85C72.4509 49.457 72.8229 50.008 73.2899 50.471C73.7569 50.935 74.3099 51.302 74.9189 51.553C75.5269 51.803 76.1779 51.931 76.8349 51.93C77.4929 51.928 78.1429 51.797 78.7489 51.545C79.3539 51.292 79.9039 50.922 80.3669 50.457C80.8289 49.991 81.1949 49.439 81.4429 48.831C81.6919 48.223 81.8179 47.572 81.8149 46.915L81.7859 27.04Z" fill="#FF620A"/>
<path d="M65.6088 7.65678C68.0654 8.53678 69.2938 9.71019 69.2938 11.1768C69.2938 11.6535 69.0738 12.5518 68.6338 13.8718L58.0738 44.397C58.0004 44.653 57.8721 44.965 57.6888 45.332C57.5054 45.698 57.0104 46.193 56.2038 46.817C55.4338 47.403 54.4988 47.697 53.3988 47.697C52.3354 47.697 51.4004 47.403 50.5938 46.817C49.8238 46.193 49.3104 45.588 49.0538 45.002L42.6188 26.0268C38.5488 38.0535 36.4771 44.177 36.4038 44.397C36.3304 44.617 36.1654 44.928 35.9088 45.332C35.6521 45.735 35.3588 46.102 35.0288 46.432C34.1854 47.275 33.1771 47.697 32.0038 47.697C30.8304 47.697 29.8588 47.422 29.0888 46.872C28.3554 46.322 27.8604 45.772 27.6038 45.222L27.2188 44.397L16.6038 13.8718C16.2004 12.6618 15.9988 11.7635 15.9988 11.1768C15.9988 9.71019 17.2271 8.55518 19.6838 7.71178C20.7471 7.34518 21.7004 7.16178 22.5438 7.16178C23.4238 7.16178 24.0838 7.45519 24.5238 8.04179C25.0004 8.62849 25.4221 9.52679 25.7888 10.7368L31.8388 29.1068L37.8338 11.0118C38.3471 9.47179 39.2821 8.40848 40.6388 7.82178C41.2254 7.56518 41.9771 7.43678 42.8938 7.43678C43.8471 7.43678 44.7271 7.74849 45.5338 8.37179C46.3404 8.95849 46.8538 9.54518 47.0738 10.1318L53.3988 29.2168L59.4488 10.7368C59.7421 9.89349 59.9804 9.27018 60.1638 8.86678C60.3471 8.46348 60.6771 8.07848 61.1538 7.71178C61.6671 7.30848 62.2904 7.10678 63.0238 7.10678C63.7571 7.10678 64.6188 7.29018 65.6088 7.65678Z" fill="white"/>
</svg>
