<svg width="26" height="26" viewBox="0 0 26 26" fill="none" xmlns="http://www.w3.org/2000/svg">
<path d="M14.5737 0C8.4354 0 3.45874 4.97579 3.45874 11.1141C3.45874 13.2951 4.08677 15.3296 5.1722 17.0462C5.16423 17.0497 5.15641 17.0528 5.14841 17.0564L0.312195 21.8918L4.42041 26L9.43081 20.9888C9.42931 20.9817 9.4273 20.9747 9.42574 20.9675C10.9648 21.7733 12.7161 22.2291 14.5737 22.2291C20.7121 22.2291 25.6878 17.2525 25.6878 11.1141C25.6878 4.97579 20.712 0 14.5737 0ZM14.5737 4.93734C17.9849 4.93734 20.7496 7.70285 20.7496 11.1141C20.7496 14.5253 17.9849 17.2908 14.5737 17.2908C11.1625 17.2908 8.39694 14.5253 8.39694 11.1141C8.39694 7.70285 11.1624 4.93734 14.5737 4.93734Z" fill="#E45612"/>
</svg>
