<svg width="38" height="38" viewBox="0 0 38 38" fill="none" xmlns="http://www.w3.org/2000/svg">
<path d="M33.652 18.9848C33.652 18.6485 33.4867 18.3529 33.2352 18.1674L33.2405 18.1583L29.6974 16.1128L31.7368 12.5803L31.73 12.5761C31.7944 12.4305 31.8236 12.2718 31.8152 12.1128C31.8069 11.9538 31.7611 11.7991 31.6817 11.6611C31.6018 11.5232 31.4904 11.4061 31.3567 11.3193C31.223 11.2326 31.0707 11.1786 30.9122 11.1617V11.1519H26.8204V7.07179H26.812C26.795 6.9135 26.7409 6.76145 26.6542 6.62796C26.5674 6.49446 26.4505 6.38328 26.3127 6.30343C26.1745 6.22381 26.0194 6.17801 25.8601 6.16975C25.7008 6.1615 25.5419 6.19103 25.3962 6.25593L25.3912 6.24719L21.7884 8.32731L19.7934 4.87159L19.7862 4.87577C19.6923 4.74723 19.5694 4.64261 19.4276 4.57039C19.2857 4.49816 19.1288 4.46037 18.9696 4.46005C18.6333 4.46005 18.3373 4.62535 18.1522 4.87691L18.1431 4.87159L16.115 8.38431L12.6228 6.36803L12.6187 6.37525C12.4731 6.31083 12.3144 6.28163 12.1554 6.29002C11.9964 6.2984 11.8416 6.34414 11.7036 6.42351C11.5657 6.50341 11.4485 6.61474 11.3617 6.74845C11.2748 6.88216 11.2208 7.03448 11.2039 7.19301H11.1937V11.2491H7.1611V11.2571C7.00281 11.2741 6.85076 11.3282 6.71727 11.415C6.58377 11.5017 6.4726 11.6187 6.39274 11.7564C6.31333 11.8946 6.26761 12.0495 6.25929 12.2086C6.25097 12.3677 6.28029 12.5266 6.34486 12.6722L6.33612 12.6776L8.3296 16.1306L4.75988 18.1917L4.76406 18.199C4.63552 18.2929 4.5309 18.4157 4.45868 18.5576C4.38645 18.6995 4.34866 18.8564 4.34834 19.0156C4.34834 19.3519 4.51364 19.6479 4.7652 19.833L4.75988 19.8421L8.303 21.8876L6.26354 25.4201L6.27038 25.4239C6.20596 25.5695 6.17676 25.7282 6.18515 25.8872C6.19353 26.0462 6.23927 26.2009 6.31864 26.3389C6.39861 26.4768 6.50996 26.5939 6.64367 26.6806C6.77737 26.7674 6.92965 26.8214 7.08814 26.8383V26.8485H11.1796V30.9282H11.188C11.2229 31.2383 11.3966 31.5286 11.6873 31.6966C11.8255 31.7761 11.9806 31.8218 12.1399 31.8301C12.2991 31.8383 12.4581 31.8089 12.6038 31.7441L12.6088 31.7528L16.2116 29.6727L18.2066 33.1284L18.2138 33.1242C18.3077 33.2528 18.4306 33.3574 18.5724 33.4296C18.7143 33.5018 18.8712 33.5396 19.0304 33.5399C19.3667 33.5399 19.6627 33.3746 19.8478 33.1235L19.8565 33.1284L21.8846 29.6157L25.3772 31.632L25.3813 31.6247C25.5269 31.6892 25.6856 31.7184 25.8446 31.71C26.0036 31.7016 26.1584 31.6558 26.2964 31.5765C26.4343 31.4966 26.5515 31.3852 26.6383 31.2515C26.7252 31.1178 26.7792 30.9655 26.7961 30.807H26.8063V26.7512H30.8393V26.7433C30.9976 26.7262 31.1496 26.6721 31.2831 26.5854C31.4166 26.4986 31.5278 26.3817 31.6076 26.2439C31.687 26.1057 31.7327 25.9507 31.741 25.7916C31.7494 25.6324 31.7201 25.4735 31.6555 25.3278L31.6643 25.3228L29.6708 21.8698L33.2405 19.8086L33.2363 19.8014C33.3649 19.7075 33.4696 19.5847 33.5418 19.4428C33.614 19.3009 33.6518 19.144 33.652 18.9848ZM16.6117 23.3149L12.8702 21.6619L14.5213 24.5214L13.588 25.0602L11.0565 20.6762L12.016 20.1218L15.6374 21.7033L14.0471 18.9491L14.9807 18.4102L17.5115 22.7943L16.6117 23.3149ZM18.3795 22.2942L15.8483 17.9098L18.951 16.1188L19.4252 16.9404L17.2558 18.1925L17.787 19.1129L19.9101 17.8874L20.3843 18.7082L18.2613 19.9344L18.8381 20.9334L21.0075 19.6813L21.4818 20.5029L18.3795 22.2942ZM25.5637 18.1465L23.0565 15.58L24.032 19.0304L23.0398 19.6034L19.2531 15.9444L20.2981 15.341L22.8965 18.0648L21.9021 14.4149L22.6317 13.9939L25.289 16.6839L24.2288 13.0716L25.2738 12.4682L26.5563 17.5739L25.5637 18.1465Z" fill="#E45612"/>
</svg>
