<svg width="40" height="39" viewBox="0 0 40 39" fill="none" xmlns="http://www.w3.org/2000/svg">
<path d="M38.7072 13.733L26.7159 11.9537L21.3555 0.85833C21.2091 0.554545 20.9683 0.308624 20.6707 0.159143C19.9245 -0.216971 19.0177 0.0964574 18.6446 0.85833L13.2843 11.9537L1.29303 13.733C0.962436 13.7812 0.660175 13.9404 0.428758 14.1815C0.148986 14.475 -0.00518049 14.87 0.000132928 15.2796C0.00544635 15.6892 0.169805 16.0799 0.457094 16.3658L9.1329 25.002L7.0832 37.1968C7.03514 37.4804 7.06588 37.7722 7.17195 38.0389C7.27802 38.3057 7.45518 38.5367 7.68332 38.7059C7.91147 38.8751 8.18148 38.9756 8.46273 38.9961C8.74399 39.0166 9.02524 38.9562 9.27459 38.8218L20.0001 33.0643L30.7256 38.8218C31.0184 38.9809 31.3585 39.0339 31.6843 38.9761C32.5061 38.8314 33.0587 38.0358 32.917 37.1968L30.8673 25.002L39.5431 16.3658C39.7792 16.1295 39.9351 15.8209 39.9823 15.4834C40.1098 14.6395 39.5337 13.8584 38.7072 13.733V13.733Z" fill="#F55F0B"/>
</svg>
