<svg width="27" height="27" viewBox="0 0 27 27" fill="none" xmlns="http://www.w3.org/2000/svg">
<path d="M17.5063 6.10783C15.3547 4.91061 15.3077 1.81978 17.4219 0.5577C19.5361 -0.704383 22.2402 0.800272 22.2776 3.25958C22.315 5.71889 19.6579 7.305 17.5063 6.10783ZM14.3176 1.99485L0.0276896 2.21212L0.0412025 3.10088L14.3311 2.88361L14.3176 1.99485ZM6.52875 5.61685L0.0809462 5.71488L0.0928699 6.49912L6.54073 6.40108L6.5288 5.61685L6.52875 5.61685ZM7.1899 14.7056L0.219255 14.8116L0.231972 15.6481L7.20267 15.5421L7.18995 14.7057L7.1899 14.7056ZM5.0426 17.9281L0.267742 18.0007L0.28046 18.8372L5.05537 18.7646L5.04265 17.9281L5.0426 17.9281ZM4.32358 26.4667C5.00423 25.4788 10.5194 17.2347 11.3176 17.0267C12.1333 17.239 13.7995 17.7022 13.6714 17.9434C13.5085 18.2502 11.8938 20.4415 11.7873 21.0195C11.6808 21.5975 12.5693 23.169 13.9056 22.1641C15.2419 21.1591 18.136 17.4358 17.8059 16.5763C17.4758 15.7167 15.5771 14.495 13.4624 13.674C13.4026 13.5308 14.9636 11.9509 15.7773 10.4975C15.9295 10.2256 18.8547 13.8802 19.7741 13.6933C21.1681 13.4099 25.5103 9.62904 25.7586 8.90481C26.007 8.18053 25.7008 7.34945 24.7297 6.70477C23.7587 6.06009 21.3922 10.1816 19.8913 10.0315C18.8878 9.93116 18.1944 7.55072 15.7971 6.11671C13.694 4.85867 10.4495 4.43864 9.65885 4.54956C8.76686 4.67472 6.64184 6.71703 3.75027 9.87342C2.81066 10.8991 4.89284 12.7009 5.74322 12.0622C8.31673 10.1294 9.89928 7.75184 10.4958 7.76407C11.0924 7.77626 12.5219 8.53749 12.5219 8.53749C12.5219 8.53749 3.06885 22.2998 2.06849 24.3662C0.972905 26.6296 3.64292 27.4547 4.32358 26.4667Z" fill="#E45612"/>
</svg>
