<?xml version="1.0" encoding="UTF-8"?>
<!-- Generator: Adobe Illustrator 23.0.1, SVG Export Plug-In . SVG Version: 6.00 Build 0)  -->
<svg version="1.2" fill="#fff" baseProfile="tiny" id="Layer_1" xmlns="http://www.w3.org/2000/svg" xmlns:xlink="http://www.w3.org/1999/xlink" x="0px" y="0px" viewBox="0 0 900 600" xml:space="preserve">
<g>
	<path d="M844.77,181.22c-4.02-13.25-14.49-11.86-20.75-22.59c1.94-5.93,5.01-11.45,6.03-17.68c1.33-1.12,2.92-2.23,2.25-4.19   c-0.66-1.93,1.12-3.58,0.31-5.42c1.64-1.12,0.51-2.66,0.41-4.19c1.23-0.82,2.66-1.53,2.56-3.37c-6.93-12.86,1.88-5.8-1.84-16.97   c1.23-2.96,1.58-6.03,1.64-9.1c0.13-7.51,1.79-13.15,0.1-21.16c-0.23-1.07-1.02-21.56-1.02-21.67   c-1.17-28.94-1.75-25.94-6.95-30.77c-5.55-5.15-4.81-4.49-5.52-3.78c3.7,4.84,10.8,6.71,9.1,13.7c-0.42,1.27,1.12,2.09,1.12,17.07   c0,26.01,3.65,36.35,0.41,51.82c-1.33-2.86-2.86-5.52-4.8-7.77c-2.25-0.92-4.5-1.74-6.64-2.56c-0.31-4.6,0.2-9,1.12-13.19   c5.41-24.48,2.77-40.97,2.96-45.48c-11.89-10.77-5.26-9.17-10.43-12.27c2.25,4.4,2.56,10.12,7.97,12.16   c0.82,2.66,0.53,5.11,0.92,7.46c3.09,18.64-5,37.91-3.99,50.6c-19.62-5.61-10.1,10.96-12.88-35.57   c-1.69-28.4,5.51-33.44-1.12-37.21c0.89,3.1,1.77,6.33,0.92,8.38c-2.09,5.03-1.69,9.04-2.25,23.2c-0.4,10.25,2.9,15.8,1.12,27.39   c-1.47,9.63,0.89,12.24-1.84,25.35c-0.02,0.1-7.53,33.15-6.85,35.88c3.86,1.59-0.2,5.03,0,8.69c1.53-1.02,1.23-2.86,2.56-4.19   c1.05,4.22,0.8,8.9,4.09,16.56c1.14,2.65,2.03,5.62,1.12,8.69c-1.35,4.59-3.48,8.69-7.46,11.55c-0.92-0.51,0.1-1.94-1.33-2.25   c-0.52,2.44,2.1,5.18-10.73,9.1c-2.94,0.9-4.21-0.97-6.64-2.86c-0.92-2.35-1.64-4.91-1.53-7.56c0.34-8.94-1.21-6.02-1.23-8.99   c-0.07-10.55,0.1-21.46,7.77-38.33c3.31-7.28,6.7-25.48,5.32-42.21c-1.68-20.34,14.14-39.95,8.07-65.72   c-2.03-8.64-3.92-12.71-3.37-18.4c1.94,2.58,0.48,7.17,3.48,8.48c-1.33-3.78-1.43-7.97-3.68-11.86c-0.82,1.02-1.64,1.53-2.86,1.74   c1.87,4.36,2.92,13.18,4.19,17.17c3.48,10.95,2.17,16.37,0.72,23.3c-9.76,46.35-9.67,31.86-8.28,58.26   c-3.68,3.58-5.1,3.89-9.71,3.27c-7.53-1-4.93-1.15-12.16,10.12c-2.29,3.57,3.35,15.51-9.34,18.29c-3.94,0.86-7.73-1.2-12.08-2.99   c0.32,1.75,2.43,1.63,3.13,3.01c-1.33,0.88-1.19,0.55,3.68,3.07c7.72,3.99,15.26,2.99,17.58-5.83c1.32-5.01,0.68-9.85,3.68-13.19   c-0.2-0.61-0.61-0.92-0.2-1.64c0.82-0.72,1.74-1.64,2.76-2.45c-2.35,0.51-4.29,1.64-5.72,3.68c0.82,0.41,1.33-0.92,1.94,0.1   c-0.8,1.42-2.54,3.1-2.7,4.72c-0.06,0.01-1.13,0.28-1.19,0.3c-0.51-1.02,0.18-1.94-0.1-3.07c-0.56-2.24-0.07-4.47,1.64-6.03   c5.18-4.74,2.07-4.29,15.33-4.29c-3.37-2.15-7.15-1.12-10.94-1.33c1.12-1.74,2.35-1.13,3.58-0.92c9.8,1.7,10.81-4.17,11.35-2.56   c-3.33,16.28-2.44,14.36-4.6,17.27c-2.17,2.92-4.59,5.81-5.94,9.29c2.85-1.58,5.19-7.33,6.55-6.94c-0.2,2.56-1.32,4.6-2.96,6.44   c-4.02,4.5-9.18,10.34-11.96,11.04c0-2.41,3.99-4.63,4.08-8.17c-1.09,0.13-0.88,2.22-2.85,1.73c2.15-4.7,2.04-10.22,7.05-14.11   c-1.23,0.31-1.53,0.31-2.25,0.51c2.25-4.09,5.21-7.05,8.89-10.32c-2.56-0.1-4,0.6-5.11,1.74c-11.87,12.09-6.59,11.39-11.14,25.04   c-5.2,2.45-8.32,0.92-11.24,2.86c3.78,0.2,6.95-0.1,10.32-0.51c-3.07,5.11-8.48,5.72-12.98,8.07c8.28-0.61,16.25-2.04,23.1-7.15   c0.51,1.02,0.21,1.84,0,2.56c-8.27,28.23,4.75,57.89,6.75,76.45c1.96,18.2-4.28,29.28-10.73,33.22   c-8.88,5.43-13.1,14.35-15.95,24.43c-1.96,6.94-0.92,13.9,0.1,20.85c0.61,4.19,0.72,8.48,1.33,12.67c0.2,0.82-0.51,1.43-0.41,2.25   c0.41,0.61,1.12,0.92,1.23,1.94c0.8,7.87,2.54,15.64,3.07,23.51c0.3,4.5,0.81,9,1.84,13.29c7.78,32.4-7.55,35.97-5.21,62.15   c3.36,37.68,13.17,46.17,9.81,67.36c-5.93,1.12-9.91,5.32-14.21,8.69c0.33,4.66,0.02,5.04,5.21,14.11c0.3,0.52,0.82,1.12,1.43,1.43   c7.08,4.14,4.05,16.13,7.87,21.46c1.54,2.14,2.75,4.5,3.99,6.85c5.07,9.63,13.63,6.61,18.4,7.77c0.56,0.14,4.7-1.53,6.64-5.01   c0.41-0.41-1.02-1.43-0.2-2.45c2.25-0.61,4.58,1.09,6.75-0.2c1.93-1.15,4.09-2.04,5.01-4.91c-2.66-6.23-1.84-13.39-3.68-20.14   c-0.52-2.62,1.99-5.05-0.31-10.83c-2.72-6.88,3.08-8.88,1.12-15.23c-2.76-0.1-4.91-1.64-6.95-3.68c-0.31,0.92-0.51,1.43-0.72,2.15   c-4.4,0-5.32,4.5-8.28,6.44c-0.41-0.1-0.82-0.51-0.82-0.92c0.26-2.32-3.26-27.44-3.27-27.7c-1.01-16.89,1.92-32.22,1.53-45.69   c-0.23-7.97-0.83-15.86,0.61-23.71c0.19-1.01-1.74-1.57-1.74,0.72c0,3.07-0.79,6.13-1.02,9.2c-0.42,5.62,0.88,22.8-0.41,30.56   c-1.21,7.32-0.53,13.51-1.12,19.93c-1.39,15.08,4.17,29.89,2.96,38.33c-3.76,1.03-2.58,0.58-5.52,3.88   c-4.6,5.17-0.07,1.79-8.18,0.61c-2.76-0.4-3.27-1.12-3.27-4.19c0-0.1,0.2-0.31,0.41-0.51c0.72,0.61,1.12,1.64,2.25,1.84   c-0.31-2.35-1.84-3.99-2.35-5.72c1.28-6.84,0.17-9.15,1.23-14.21c0.57-2.72-0.9-2.65-1.33-6.75c-0.43-4.1-1.22-8.18-2.56-12.06   c-3.56-10.33-4.15-21.06-6.03-31.69c-3.96-22.29,7.02-29.99,5.83-46.1c-0.49-6.54,0.01-13.08-0.92-19.52   c-0.71-4.91-1.31-9.81-1.84-14.72c-2.5-23.21-5.33-22.66-3.68-25.04c13.08-1.23,26.58,0.92,40.17-1.64   c0.51,10.8-5.43,46.61-7.46,52.33c-1.38,3.89-2.3,7.87-2.53,12.04c-0.01,0-0.05,0.08-0.12,0.22l0.1,0.1   c0.02-0.22,0.03-0.31,0.02-0.32c5.22-9.11,2.98-10.79,5.91-12.86c1.67-1.39-1.75-0.63,5.42-34.65c2.06-9.76,0.74-13.72,2.35-15.33   c5.72,1.84,11.04-1.94,16.97-2.35c-2.4,12.59-3.09,17.55-6.75,27.7c-2.76,7.67-3.27,15.84-5.93,23.61   c-0.53,1.06,1.28,1.7-2.45,8.79c-0.81,1.54-1.45,2.86-1.33,4.6c0.09,1.23-2.66,6.95-3.78,7.77c-4.91,4.02-4.31,92.82-2.04,93.73   c2.82-5.65-1.37-19.87,0.92-44.87c0.31-3.37,1.33-6.85-0.2-10.22c-0.07-0.1,0.84-29.56,2.66-36.29c2.24-8.3,8.05-17.64,7.97-21.06   c-0.09-3.98,1.51-7.9,4.6-18.19c13.16-43.88,6.72-42.4,7.46-67.46c0.56-5-1.14-1.41,0.1-7.15c2.88-13.35,3.83-19.49,8.48-30.77   c2.18-5.29,8.92-26.36,7.97-27.8c-1.09-1.66-0.43-3.48,0.1-4.91c1.57-4.21,1.74-8.59,2.15-12.88c0-1.92,1.68-1.42,2.04-2.35   C845.44,189.18,846.01,185.31,844.77,181.22z M766.37,124.8c0.29-1.42,1.08-2.59,1.44-3.89c0.3-0.29,0.85-0.56,1.22-0.71   c-1.44,6.09-1.15,22.79-19.32,12.88C757.89,132.53,764.73,132.9,766.37,124.8z M773.73,138.5c2.04-2.15,4.19-4.19,6.23-6.34   C778.94,135.33,777.41,137.99,773.73,138.5z M806.75,527.62c-3.58,2.86-5.52,3.37-9.81,2.66c-1.25-2.58-3.06-16.41-2.56-19.11   c1.64-0.2,3.48,0.72,5.01,0.1s3.27,0.31,4.91-1.12C804.59,513.75,805.6,524.17,806.75,527.62z M802.27,498   c1.22-0.11,1.32-0.36,1.32,0.59c-3.37,1.74-7.05,0.72-10.43,1.53C793.16,498.86,791.04,498.99,802.27,498z M794.28,496.14   c2.86-1.53,6.13-1.84,8.28-0.82C799.8,496.24,797.14,496.24,794.28,496.14z M803.58,503.6c-2.42,0.5-4.98,0.47-7.45,1.1   c-1.94,0.5-1.54,0.84-2.13-0.22c-0.5-0.89-0.64-1.66-0.64-2.51C803.32,503.96,804.87,498.41,803.58,503.6z M803.47,508.1   c-2.66,1.12-5.83-0.2-8.78,1.74c0-0.85,0-1.46,0-2.15c0-2.18,5.13,0.02,8.07-0.92C803.51,507.27,803.57,508.1,803.47,508.1z    M793.47,486.1c3.43-3.96,2.71-3.63,4.63-3.69c0.68-0.02,5.11-0.05,6.09,0.94c0.39,2.7-1.96,8.69-1.53,8.69   c-2.42-0.51-4.71,0.22-7.15,0c-0.38-1.63,0.04-4.18-2.9-4.21C791.71,487.82,791.61,488.25,793.47,486.1z M778.64,495.42   c3.07-0.61,4.19-3.78,6.64-5.72c2.35-0.31,4.84,0.41,7.26,0.41c0.86,3.12-3.5,1.61-2.81,3.9c0.31,1.3,3.23,1.28,1.55,2.61   c-1.86,1.47,0.26,1.3-0.07,2.89c-2.25-0.31-4.5-0.11-6.64,0.31c-2.04,0.4-4.57-0.9-6.31,1.39c-0.17,0.17,0.42,1.68,3.04,1.68   c7.23,0,7.93-1.74,9.65,0.02c0.94,0.96-8.07,0.37-11.8,2.02c4.1,2.67,8.55,0.61,13.19,0.61c-2.1,2.47-9.18,1.58-11.35,2.66   c2.96,2.25,2.96,2.25,11.45,1.02c0.59,0.29,0.13,1.21-0.2,2.04c-3.46,0.87-6.64,0.03-10.43,2.56c3.28,1.25,9.08,0.4,10.12,0.92   c0.1,0.41,0.1,0.72,0.2,1.02c-2.7,1.3-6.65-0.55-8.89,2.15c3.06,1.53,3.48,1.53,9.58,0.32c0.81,0,0.72,10.56,2.25,15.54   c1.34,4.36-13.42,7.68-19.08-0.83c-2.07-3.12-4.14-4.16-6.06-9.79c-1.3-3.82-0.29-4.21-0.88-6.73c-0.35-1.5-0.67-1.66-1.27-3.28   c-0.89-2.44-0.75-3.39-1.24-5.12c-1.58-5.61-4.67-3.87-6.5-8.61c-1.18-3.04-8.63-12.52,1.43-11.96c1.33-0.82,1.23-2.15,1.84-3.07   c0.72-0.72,1.64-0.82,2.25-1.02c0.68,0.24,0.82,0.65,1.01,1.29c0.59,1.92,0.44-1.33,0.51-1.9c0.19-0.96,0.78-1.53,2.15-1.53   C765.66,494.31,769.37,491.21,778.64,495.42z M823.1,156.38c-2.93-2.59-5.08-5.71-5.83-9.51c0.51-2.66,2.56-4.29,3.88-6.23   c2.31-0.81,4.22,0.82,6.83,0.13C829.16,140.47,823.83,153.68,823.1,156.38z M823.2,95.06c-0.72,0.42-1.14-0.22-1.64-0.72   C822.49,94.04,822.9,94.34,823.2,95.06z M810.89,92.26c0.57,0.02,1.13,0.11,1.69,0.35C804.07,92.6,810.78,92.25,810.89,92.26z    M807.36,97.1c2.56,0.92,5.52,0.31,8.28,2.86c-3.7,0.08-6.87,0.45-9.81-1.53C805.98,97.43,806.39,96.83,807.36,97.1z    M805.83,100.27c9.73,2.21,4.26,2.02,5.62,3.58c1.63,0.59,4.05-0.1,5.73-0.3c0.33,0,0.42,1.24-0.42,1.23   c-6.28-0.07-8.2,2.07-11.55-0.11C804.91,103.23,805.63,101.99,805.83,100.27z M816.66,106.1c-0.72,1.43-2.04,1.02-3.78,1.33   C814.92,106.1,814.92,106.1,816.66,106.1z M809.71,107.12c-2.04,1.64-2.04,1.64-5.01,0.82   C806.34,105.48,807.87,107.63,809.71,107.12z M804.5,110.49c0.2-0.41-0.2-0.92,0.82-1.33c2.74,2.74,10.49,0.02,6.29,1.58   c-2.76,1.03-5.27,1.31-6.91,1.28C804.17,112.02,804.23,111.15,804.5,110.49z M803.17,118.57c1.12,0.2,1.33,0.61,0.61,1.53   C802.9,119.7,803.17,119.28,803.17,118.57z M802.72,149.75c-1.75-10.94-3.85-6.34-1.03-12.04c0-0.1,0.53-0.02,0.95,0.51   c0.27,0.33,0.56,0.7,0.99,0.7c0.57-2.56-5.54-2.01-1.69-9.72c1.18,1.18,2.06,1.95,4.4,0.16c-0.26,6.16,6.57,6.47,9.4,7.41   c-2.35-2.35-5.47-2.3-7.77-4.7c-0.58-0.61,0.34-2.52-1.46-2.83l0.03-0.03c-0.2,0.2-0.17-0.36-0.32-0.81   c-0.81-0.61-1.12,0.62-1.84,0.51c-0.32,0-1.31-0.54-1.84-1.84c-0.51-1.53,0.41-1.94,0.82-2.56c0.31-0.91-0.87-1.72,0.07-2.51   c0.51-0.51,0.92,1.88,1.46,2.41c1.02-0.1,1.23-0.82,1.53-1.43c-0.31-0.92-1.02-1.12-1.74-1.74c1.9-2.31-0.71-3.82-1.29-5.71   c-0.1-0.38,0.87,0.84,2.82,2.16c1.54,1.04,2.01,0.7,3.58-0.43c-0.51-0.2-1.02-0.41-1.43-0.61c2.25-1.53,4.5-3.07,6.75-4.5   c1.02-3.17,3.58-5.62,3.07-9.4c-1.33-0.31-2.96,0.2-4.5-0.82c2.37-0.24,5.25-1.62,8.07-0.2c1.01-0.31,0.99-0.77,1.12-1.43   c-2.35-1.02-4.91-1.64-6.85-3.48c-3.27,0.51-6.54,0.61-9.4-1.53c3.17,0.31,6.44-0.61,9.4,1.53c2.85,0.52,5.18,1.61,7.05,3.58   c1.21,0.22,2.19,1.31,3.07,1.64c1.17-0.74,2.61-0.61,3.99-0.72c2.86,2.96,1.84,7.46,3.78,10.43c-0.54,3-5.51,1.4,0.82,12.47   c-0.81,2.13-2.98,0.02-4,1.64c1.43,0.82,1.02,2.56,1.53,3.78c-1.32,2.03-3.25,0.31-4.92,1.11c1.12,1.74,3.58-0.1,4.5,1.84   c0.2,0.92-0.82,1.23-1.12,2.15c0,1.12,1.23,2.35-0.1,3.88c-2.98,2.25-6.5-0.01-9.92,0.51c-2.86,3.17-5.83,6.23-5.83,11.04   c1.02,0.61,1.55,1.63,2.04,2.66c6.5,13.42,14.71,15.03,11.45,17.89c-2.96-0.98-7.73-3.68-9.91-4.91c-3.27-1.84-5.52-4.91-8.99-6.34   c-4.16-4.99-2.91-3.35-2.25-5.01C804.46,154.04,803.14,152.41,802.72,149.75z M815.54,309.29c-3.46,1.36-7.05,1.94-10.83,1.43   c-0.74-1.67-1.06-3.29-0.9-4.93c0.34-3.5,2.04-2.15-1.66-5.5c-1.02,3.07-0.2,6.13-1.02,9.2c-16.5,1.02-8.8,0.51-40.78,0.51   c1.22-9.36-10.97-34.29,12.47-55.5c10.82,8.88,35.2,15.87,47.53,18.3C819.93,320.04,828,304.42,815.54,309.29z M835.98,218.84   c-0.92,3.07-2.09,6.02-3.07,9.1c-1.16,3.65-4.1,3.01-2.25,7.77c-1.33,1.94-3.17,3.78-2.35,6.44c-1.23,1.64-0.73,4.05-2.96,5.11   c-0.62,0.3-0.72,1.43-1.02,2.04c0.2,0.92,0.61,0.72,1.33,0.92c-1.64,6.54-2.25,13.29-3.58,20.14c-1.4-0.47-23.51-3.1-47.33-17.38   c20.45-17.22,8.76-42.49,10.83-44.56c5.29,1.93,11.3,1.24,17.01,3.35c0.45,0.22-0.12-0.82,6.4-1.1c4.15-0.18,20.71-1.55,28.72-3.75   C837.88,206.85,837.27,214.5,835.98,218.84z M842.93,189.81c-2.55,4.3-3.37,9.1-3.48,14c-11.53,5.2-46.5,6.64-55.19,2.15   c-2.56-5.93-4.19-12.27-5.11-18.81c3.72,3.71,13.55-0.45,15.33-1.12c0.51,0.2,0.1,1.02,0.72,1.43c0.8-4.8,11.92-10.67,12.07-20.31   c0.07-4.6-1.73-6.21-3.28-11.79c4.86,6.48,14.49,14.06,26.88,18.7c0.82-1.53,0.82-3.37,2.15-4.5c1.74,1.43,3.49,2.85,5.21,4.4   C842.27,177.6,845.31,185.8,842.93,189.81z"/>
	<path d="M743.68,128.99l-0.1,0.1C743.83,129.19,743.68,129.18,743.68,128.99z"/>
	<path d="M772.81,131.65l-0.1-0.1C772.71,131.71,772.65,131.65,772.81,131.65z"/>
	<path d="M776.9,129.5c0.15-0.34,0.12-0.2-0.1-0.1L776.9,129.5z"/>
	<path d="M675.1,390.14c-6.8-7.3-12.82-4.46-16.66-6.54c-1.02-4.8-1.74-5.93-4.6-6.23c3.27,2.86,3.88,4.29,2.66,6.54   c-0.92-0.1-0.51-1.64-1.74-1.64c0.1,0.61,0.2,1.33,0.31,1.84c-0.92,1.64-2.66,1.43-3.78,2.25c-1.79-2.05,0.63-4.17-0.41-5.21   c-1.84,1.74-1.02,3.99-1.02,6.03c-0.82,0.1-1.33,0.72-2.35,0.2c0.2-4.6,2.49-8.14,5.72-11.14c2.11-1.95,6.78-0.5,8.69,1.74   c1.56,1.82,2.66,3.99,4.09,6.54c0.41-2.66,0.38-2.94-0.61-4.29c-12.28-16.73-23.89,4.29-20.24,6.85c0.82-1.33,0-3.27,1.74-4.4   c-0.2,2.15-1.53,4.09,0,5.83c-2.76,3.37-5.62,6.13-7.05,10.02c-0.51,1.12-1.23,2.14-2.04,3.17c-7.08,8.93-5.57,9.94-8.48,12.37   c0.75-3.36,0.31-2.55,0.31-3.88c-0.72,4.29-3.78,5.62-7.36,6.34c-10.69-6.41-12.46-3.01-26.88-3.78   c-10.74-0.58-13.94-0.86-17.48,0.2c-10.02,3.03-10.31,2.94-11.35,3.78c-3.73,2.67-10.25,3.5-18.4,9.2   c-5.11,3.57-8.21,2.76-22.49,11.04c-15.38,8.91-27.48-4.76-42.11-1.12c-1.32,0.33-2.56,1.12-3.88,1.23   c-5.97,0.5-13.35,8.1-16.05,12.67c-3.19,5.41-7.95,9.46-10.83,15.03c-0.35,0.68-6.77,5-9.61,6.03c-13.42,4.88-12.19,6.62-18.6,9.61   c-6.31,2.94-6.87-1.64-21.36,0.82c-16.96,2.88-9.87,1.16-17.99,2.56c-4.63,0.8-1.21,1.51-11.65,5.52   c-12.95,4.97-21.82,10.39-35.26,10.22c-2.41-2.73-5.42-1.09-11.86-0.72c-3.27,0.19-6.64,0.41-10.12,1.94   c-6.47,18.84,10.55,23.2,9.1,38.64c-0.3,3.17,0.5,6.24,1.64,9.1c1.22,3.07,3.58,4.96,7.15,4.8c5.65-0.25,8.54,3.7,19.52-1.53   c1.12-1.02,0.41-2.45,1.64-2.96c2.56,0.61,10.94-0.31,13.08-1.33c3.58-1.99,3.9-10.18-3.37-11.55c-3.37-0.64-4.7-2.76-5.32-5.83   c-0.1-0.82-0.41-1.64-0.31-2.35c0.63-4.5,0.41-8.89,0.72-13.29c1.43-1.33,3.78-1.02,4.29-2.86c4.8-0.72,9.3,0.18,13.7-0.61   c2.35-0.42,4.7-0.6,7.15-0.41c10.47,0.82,12.5-0.83,14.11-0.51c2.76,0.72,5.63-0.02,8.38,1.02c1.33,0.5,2.97,0.44,4.4,0.1   c8.44-2.01,12.63-3,12.16-4.4c-0.42-0.3-7.34,1.85-10.94,2.66c-8.86,1.99-6.82-2.43-16.15-0.92c-8.06,1.31-16.25-0.2-24.33,0.82   c-23.53,0-35.08,9.68-44.05,1.23c1.64-2.76,1.94-5.83,3.07-8.38c5.3-2.36,15.59,0.13,28.21-5.72c5.52-2.56,11.34-4.51,16.76-7.15   c7.76-3.79,15.74-5.48,24.33-4.4c14.63,1.84,21.44-2.43,30.46-6.23c1.24-0.62-0.78-0.55,4.8-3.07c16.52-7.45,12.54-7.74,14.31-7.15   c0.71,13.77,1.36,12.93,5.83,22.69c1.68,3.66,5.21,5.72,8.59,8.79c-13.59,2.35-26.37,5.52-39.66,6.85   c1.46,2.92,4.93-0.06,17.07,0.51c2.04,0.1,4.19-0.09,6.13-0.82c5.12-1.92,10.63-2.45,15.95-3.99c26.36-7.64,10.15,2.6,49.68-14   c4.69-1.97,9.2-4.18,14.11-5.32c7.46-1.72,14.73-4.53,22.38-5.42c10.86-1.26,10.22-4.39,13.08-2.04   c-4.62,11.22-3.87,23.4-5.52,28.82c-3.58,11.75-5.45,25.92-7.97,31.17c-9.64,20.13-3.47,27.89-9.1,44.77   c-0.92,2.76-0.72,5.32-0.1,7.56c3.68,3.48,7.87,4.49,12.27,5.01c11.83,1.38,14.4,5.39,19.11,5.32c6.7-0.1,10.13,2.92,11.65,1.02   c-3.04-1.79-7.69-1.46-9.2-2.96c-2.76-2.76-6.47-3.92-9.81-5.52c-0.41-0.2-1.02-1.12-1.84,0.1c2.45,2.45,6.34,2.76,8.99,5.32   c-3.44,0.77-6.78-3.5-21.67-5.42c-2.97-0.38-5.52-1.53-7.77-3.17c-0.72-2.96-0.95-4.71,0-7.26c4.15-11.14-0.12-17.23,6.95-37   c3.58-10.01,11.37-46.36,12.78-55.5c3.19-20.7,11.4-29.84,7.26-37c-0.82,2.66,0.72,5.52-1.64,7.36c-7.31-3.08-6.59-21.54,5.62-27.6   c3.68-1.83,7.36-3.68,10.94-5.72c15.44-8.81,32.69,12.74,9.2,43.44c-8.99,11.74-7.21,13.68-11.04,23.1   c-5.16,12.7-10.44,23.1-10.83,26.37c-1,8.4-2.63,16.78-6.85,24.33c-0.91,1.64-1.32,3.38-2.25,5.01   c-5.07,8.92-7.39,18.75-9.81,28.52c-0.23,0.91-0.82,1.94,0.51,2.66c1.46-1.17,1.43-2.5,2.45-7.46   c4.35-21.11,15.25-30.5,16.87-47.43c0.11-1.12,1.21-2.04,0.72-3.27c-0.74-1.83,0.18-3.39,1.02-4.91   c6.49-11.72,7.89-22.61,12.57-31.58c3.99,1.12,8.07,1.64,12.37-0.1c-0.61,7.26-0.98,13.91-1.64,20.65   c-1.02,10.6-6.71,26.62-6.54,55.19c0.27,1.86-1.77,11.29-2.35,13.19c-1.37,4.49,1.23,8.69,6.13,9.4c1.53-0.2-0.1-1.33,1.23-1.64   c0.92,5.32,5.42,3.58,8.59,4.5c1.12-0.61,1.64-1.84,2.35-1.94c7.77,1.02,14.82,4.5,22.79,3.27c-1.84-4.09-6.03-4.5-8.48-7.26   c4.4,1.84,8.38,4.09,12.16,6.44c-0.2,1.23-1.43,0.72-1.74,1.64c2.25-0.1,2.25-0.1,3.07-2.15c-3.17-2.86-7.07-4.17-10.53-6.34   c-2.64-1.66-3.77-0.49-9.4-3.17c-8-3.81-10.6-2.61-13.9-5.72c1.35-12.01,5.54-20.15,6.54-27.39c1.76-12.75,5.1-8.09,10.02-35.16   c0.43-1.73-0.93-0.84,0.72-9.2c3.11-15.79,1.51-15.51,4.09-22.69c5.97-16.66,8.44-20.16,5.21-29.85c2.25-1.43,4.4-0.51,6.54-0.72   c1.82,3.34,1.99,4.7,3.68,4.7c-3-4.92-5.76-14.58-5.87-16.16c-0.28-4.07,2.77-9.1,0.63-5.7c-3.58,5.69-1.78,6.91,0.84,15.11   c-4.09,2.04-8.79,2.15-12.98,3.99c-1.12,8.07-5.52,13.8-12.78,17.48c-0.87-0.43,0.7-1.45-0.24-1.68c-0.68-0.17-1.44,1.72-2.42,1.88   c-0.36-0.36-0.43-0.79-0.2-1.23c3.49-6.62,7.07-22.02,5.04-30.75c-0.72-3.08-1.7-5.55-6.37-14.43c3.11-4.35,10.26-2.79,15.43-1.33   c-2.14,1.32-4.17,0.82-6.2,0.32c-0.1,0-0.33,1.17,1.2,1.42c0.72,0.2,0.92,1.02,1.43,1.12c6.63,0.1,12.46-1.84,17.16-6.43   c-1.03-0.69-1.28-0.4,1.65-2.36c0.04-0.12,1.4-4.78,2.07-3.42c0.32,0.57-0.19,1.41,0.27,1.9c0.06,0.61-0.12,1.29,0.62,2.03   c0.57-2.86,2.59-5.84,2.76-8.99c-1.26,1.18-1.37,2.83-2.2,4.01c2.31-7.55,5.98-13.23,4.65-10.34c-1.55,3.37-1.23,7.05-1.33,10.63   c4.27-16.63-0.01-8.86,4.25-14.33c0.33-0.33-2.06,8.09-1.59,18.85c-2.59,0.3-7.22,2.07-7.67,5.11c-0.39,2.7-1.33,5.41-1.94,7.56   c2.45,1.53,2.56,1.53,4.7-1.02c-1.3-0.22-2.14,1.74-3.68,0.51c1.16-2.58,1.52-5.9,3.17-8.48c1.3-0.4,0.56,1.24,1.48,1.12   c0.67,0-0.94,1.63-1.02,1.74c-0.65,0.84,0.5-0.09-0.46,3.58c2.66,0.51,2.25-1.94,3.37-2.76c2.16-1.39,1.13-4.39,1.61-3.89   c1.32,1.34,0.47,3.71,2.47,4.61c0.92-0.92-0.95-1.63,0.19-1.73c0.6-0.05,0.88,1.21,1.65,0.6c0.3-0.34,0.24-0.53,0.06-0.7   c-0.78-0.72-0.9-0.27-0.64-1.4c0.65-2.88-0.71-0.35,1.09-13.28c0.49-3.55,1.08-4.84-0.26-6.05c0.72-0.29,1.2-7.46,6.69-9.96   c-2.42,5.37-2.79,11.22-3.58,16.35c3.39-5.23,5.88-16.76,6.13-10.25c0.07,1.86-0.65,3.68,0.09,5.45c0.4-4.01,0.38-7.54,1.53-12.16   c0.81,1.7,1.02,14.18,1.02,0.61c0.92-0.92,1.64-0.51,2.66-0.31c4.1,8.51,5.41,17.44,3.07,26.78c-0.16,0-0.46,0-0.73,0   c-0.15,0,0.07,1.52,0.21,1.94c0.42,2.51,2.22,1.74,2.45-0.61c1.58-16.15,0.02-14.08-0.82-18.19c-0.63-3.06-1.33-6.03-2.56-8.89   c2.8,0.4,2.61-0.15,5.83,7.56c0.22-2.45-1.15-4.49-1.74-6.54c3.89,0,8.38,16.55,8.38,20.44c0.39-0.88,0.39-1.75-0.05-2.63   c0.58,0.83,0.44,0.38,0.44-0.03c0-7.16-4.59-15.69-3.41-14.27c3.92,4.71,7.19,9.77,8.33,15.9c0.52,2.77,1.82,5.47,0.51,8.38   c-0.82-0.82-0.2-1.84-0.92-2.45c-0.61,0.92-0.31,2.25-1.84,2.96c-0.1-4.4,0.82-8.59-1.02-12.57c-0.41,3.78,0.51,7.67-1.23,11.35   c-1.06-1.06,0.01-2.47-1.1-3.59c0.34,3.32-0.32,6.15-0.32,10.65c0,0.2,0.31,0.31,0.51,0.51c-0.1,1.1-1.29,1.23-1.72,2.01   c-0.1,0.1,0.12,0.73,1.21,0.95c1.13-0.34,1.1-1.13,2.86-2.45c0.06,0.19,0.46,1.02,0.51,1.12c0.08-0.04,1.07-0.54,1.12-0.56   c0.2,1.42-3.37,6.17-5.72,10.27c-1.34,2.34-3.37,3.48-6.13,4.09c-1.73-3.94-7.8-8.28-9.46-6.28c3.37,1.33,6.23,2.24,7.63,5.76   c-4.09,2.04-4.8,6.54-7.46,10.02c-2.25,0.72-3.37-1.23-4.91-2.25c-0.09-1.41,1.23-1.43,1.64-2.15c-0.68-0.68-1.43,0.03-1.96,0.79   c-1.79,2.54,0.61,1.89,0.33,3.51c-1.12,1.84-2.86,0.72-4.29,0.72c-1.74,0-1.94-2.25-3.88-2.56c0.2,2.41,1.99,2.96,3.99,3.88   c-1.53,1.53-2.96,0.31-4.29,0.31c-2.04,3.27-5.78-0.37-7.36-0.1c0.51,1.74,2.25,1.74,3.27,2.56c2.56,0,4.91-1.23,7.05-0.61   c1.43-0.41,1.64-1.74,2.66-2.04c0.82,0.1,1.84-0.1,2.56,0.51c0.51,1.84,0.51,3.78,2.45,5.72c-0.61-2.96-1.02-5.21-1.53-7.56   c0.31-0.31,0.61-0.41,1.12-0.2c1.33,9.3,1.53,9.91,4.8,12.06c-1.97-3.69-0.41-8.17-1.43-9.2c-0.82,0.61,0,1.74-0.92,2.35   c-1.02-2.35-1.23-3.78-0.61-4.4c0.72-0.1,1.53,0.1,2.15,0.51c3.48,9.3,4.5,11.04,7.15,12.37c0-1.91-0.39-0.6-0.9-1.85   c-0.12-0.29-0.16-0.61-0.12-1.01c0.97,0.27,1.12,0.88,1.12,1.74c0.92,0.1,1.33,1.53,2.76,1.02c-3.99-6.95-4.7-14.41-3.78-22.28   c1.43,0,2.56,0,3.27,0c6.32-3.33,10.04-10.45,13.29-17.38c3.39-7.24,1.44-8.17,0.83-13.61C683.5,402.61,682.5,398.09,675.1,390.14z    M361.1,510.96c-1.02,0.91-1.81,1.17-3.07,0.72C359.07,510.85,359.87,510.56,361.1,510.96z M357.01,514.43   c0.41-0.1,0.82-0.1,1.33-0.2c-0.4,1.51-0.41,1.52-2.04,0.82C356.6,514.84,356.81,514.54,357.01,514.43z M353.59,514.87   c0.6,0.8-3.63-0.34-3.63,2.52c2.66,1.53,5.2,0.61,7.86-0.31c0.1,0,0.54,0.97,0.01,1.64c-2.16,1.13-3.81-0.67-6.23,1.74   c1.45,1.66,1.48,1.64,5.72,1.64c0.46,0.91,0,0.57,0,1.53c-1.13,0.85-3.24-0.66-3.99,1.33c0.43,2.06,2.33,0.99,3.69,1.31   c0.34,0.11-0.12,4.35,2.51,8.28c1.8,2.68,5.1,1.68,8.11,4.11c1.04,1.42,0.63,3.62,1.43,5.11c-0.2,1.23-0.82,1.92-1.84,2.04   c-13.48,1.68-12.23,0.69-13.28-0.9c-2.72-4.13-5.41-2.19-6.79-6.96c-2.3-7.95,0.53-16.09,2.68-24.43   C351.92,512.83,352.04,512.8,353.59,514.87z M329.72,501.56c-0.51,2.86-2.04,5.72-2.96,8.69c4.5,5.32,13.19,6.34,20.54,2.56   c0.79,1.58,0.83,1.65-0.32,4.49c-3.68,0.51-7.46,1.02-11.55,1.64c2.25,1.94,3.37,1.94,10.63,0.41c1.29,3.59-6.65,1.68-9.39,4.4   c2.76,2.35,5.42,0.2,8.07,0.1c0.89,0.58-0.18,1.24,0.19,1.74c-2.45,1.33-5.42,0.31-7.87,2.35c4.46,3.03,7.95-2.2,7.45,2.66   c-0.65,3.23,0.85,6.54,1.64,9.4c1.02,3.75,5.84,3.82,6.14,7.05c-1.74,0.51-3.88-0.1-5.72,1.74c2.25,0,4.19,0,6.13,0   c0.56,2.58-14.99,6.4-23.79-2.85c-3.63-3.81-1.4-5.07-1.34-6.48c0.04-0.77-0.34-1.53-0.4-2.31c-0.87-11-6.51-15.82-9.81-20.44   c0.29-2.89-0.79-5.41-0.79-9.28c0-3.64,0.68-5.24,0.68-5.55c2.14-1.42,12.05-3.06,17.26-2.95   C332.89,500.02,331.05,500.02,329.72,501.56z M402.29,482.65c4.7-1.33,9.51-1.94,14.72-0.72C412,484.18,407.1,482.44,402.29,482.65   z M513.51,486.24c-17.8,5.97-16.34,6.35-33.04,9.68c1.84-1.52,4.29-2.03,6.53-3.96c1.59-1.59-16.51,5.69-16.64,5.69   c-2.92-1.46-5.85,0.59-11.04-7.56c-3.63-5.69-6.2-11.65-6.64-18.5c-0.12-1.84-1.23-3.58-0.31-5.72c2.7-2.31,4.5-4.12,4.65-4.05   c0.99,0.63,0.97,1.98,1.84,2.85c1.45,1.45-0.84-3.74-1.18-4.73c4.46-8.45,15.64-19.01,17.27-19.62   c15.19-6.75,19.18-2.88,24.43-1.94c-7.45,12.41-10.38,24.1-3.37,38.64c1.33,2.76,3.44,4.84,5.42,7.05   c1.19,1.34,3.28,1.97,5.01,1.94c1.9-0.03,3.54,0.37,5.4,0.37C513.17,486.38,513.84,486.13,513.51,486.24z M543.75,476.21   c-22.22,5.71-28.94,7.94-36.59,7.36c-8.73-0.66-21.23-21.33-6.13-43.75c1.6-0.29,3.23-0.08,4.8,0.31   c13.92,3.44,28.95-6.49,43.75-13.39c-3.26,7.84-5.46,10.36-3.58,21.26c1.62,9.39,7,21.83,10.53,26.06   C553.76,475.39,550.25,474.54,543.75,476.21z M622.56,446.97c0.7,1.45-0.11,2.23-0.51,3.78   C621.94,449.25,621.74,448.22,622.56,446.97z M624.6,448.2c0.39-1.24,0.5-2.12,2.25-1.84c1.53,8.54-0.32,12.05-4.7,26.17   c-2.69,8.66-1.34,3.84-5.42,23.71c-2.05,9.98,0.26,9.67-1.23,11.75c-0.51,0.72-0.51,1.53-0.41,2.35   c1.28,6.89-7.54,22.97-10.53,37.51c-3.32,16.2-7.61,22.43-1.12,25.55c0.61,0.2,1.33,0.61,1.94,0.61c4.4,0,7.66,3.07,11.75,3.88   c-0.95,0.63-1.95-0.1-2.76,0.92c2.03,1.91,4.26-0.32,12.78,6.23c-2.76-0.41-5.42-0.61-8.07-1.33c-8.47-2.28-12.1-1.33-15.23-5.93   c-0.23-0.46-0.78-0.71-1.23-1.02c-0.08,0.89-0.02,1.98-0.61,2.57c-0.81,0.94,2.51,1.31,3.26,2.34c-1.55,1.73-1.63,1.73-6.54,0.51   c-0.61-1.12-0.82-2.96-2.35-3.78c-0.61-0.2-0.92,0.51-1.43,0.61c-1.23,0.1-0.72-1.64-1.84-1.64c-0.01,0-0.01,0.01-0.01,0.01   c-0.77,0.51,0.48,1.17-0.29,1.93c-1.74-1.12-2.69-2.56-2.35-4.7c0.56-3.48,0.79-7.06,2.15-10.43c1.78-4.43-0.41-14.7,3.27-32.09   c0.69-2.42-0.74-1.55-0.41-3.58c5.88-36.35,1.49-6.23,6.03-37c0.3-2.03-1.41-9.33,1.02-8.79c5.83-1.92,9.35-6.13,11.55-11.86   C618.66,458.93,620.82,460.22,624.6,448.2z M608.15,444.52c-2.92,18.65-4.7,13.55-5.62,21.87c0.68,1.26,1.68,1.36,2.86,0.51   c15.49-11.07,10.7-8.85,15.33-15.03c-0.3,2.51-1.15,4.2-2.35,6.34c-6.46,11.51-5.3,14.62-11.96,19.83   c-3.67,2.87-7.97,4.53-12.67,4.8c-2.22,0.13-4.57-1.38-5.83-1.84c1.23-2.96,2.15-6.13,4.5-8.59c9.43-9.9,13.74-22.4,14.21-36.29   c0.23-6.79-11.32-20.66-25.35-11.96c-5.51,3.41-12.22,3.12-16.46,12.37c-3.1,6.76-4.34,10.7-3.27,15.43   c0.91,4.01,2.36,7.11,6.34,8.28c-3.88,11.61-3.02,14.56-5.25,12.67c-0.85-0.72-3.17,0.25-4.24,0.77   c-0.65,0.31-8.85-11.92-11.05-30.71c-0.6-5.17,0.98-7.36,4.8-18.19c4.77-2.93,11.68-4.28,15.03-7.26   c1.85-1.85,12.99-4.07,17.58-3.99c18.56,0.36,18.78-0.44,18.6,0.76c-0.37,2.4-3.34,0.68-0.51,5.89   C608.93,431.42,609.3,437.18,608.15,444.52z M646.78,410.08c0.08,1.13-0.41,2.15-1.74,2.96c-0.45-7.43,1.75-14.8,2.8-16.14   C649.31,395.02,646.34,403.53,646.78,410.08z M660.99,446.36c0.06-0.11,3.36-6.09,3.36-5.73c-0.08,1.01,0.01-0.71,0.01,5.83   c-0.76,0-0.4-0.71-0.82-1.12c-1.15,0,1.09,9.98,1.33,11.04C662.63,453.41,661.6,449.94,660.99,446.36z M681.02,423.85   c-0.1-0.97,1.31-5.46,2.04-6.61C683.57,419.85,683.08,421.28,681.02,423.85z"/>
	<path d="M228.72,416.43c0,0-0.01,0-0.01,0C228.71,416.43,228.72,416.43,228.72,416.43z"/>
	<path d="M240.29,370.93c-5.17-2.82-10.85-1.88-12.88-3.17c-0.82-4.6-1.23-5.21-3.68-5.93c2.76,3.17,2.96,3.99,1.74,6.54   c-0.47-1.03-1.87-4-2.25-2.86c0.08,0.69,2,2.91,0.31,3.48c-0.92,0.41-1.94,0.92-2.96,1.33c-0.82-3.17-0.82-3.17,2.04-7.67   c-3.37,2.25-4.19,4.91-3.27,8.18c-0.92,0.31-1.43,1.02-2.45,0.51c-0.2-6.85,9.68-21.26,18.3-3.17c1.33-0.92,0.91-1.83,0.41-2.56   c-3.39-4.96-7.06-9.39-12.78-7.46c-5.95,2-10.65,10.42-8.18,13.39c0.51-2.04,0.31-4.19,2.35-6.03c-0.92,2.76-2.35,5.01-0.82,7.15   c-8.04,8.77-7.19,11.7-11.35,16.15c-2.47,2.64-3.48,6.34-6.13,9.3c0.2-1.43,0.51-2.56,0-3.78c-0.82,1.94-1.53,3.68-2.25,5.52   c-16.19,8.52-24.85,3.44-35.67,4.91c-10.01,1.35-20.07,2.39-29.44,7.36c-6.67,3.53-13.41,6.72-19.52,11.24   c-13.22,9.77-25.86,20.24-36.69,32.61c-0.31,0.31-0.72,0.61,0.1,1.33c10.52-8.18,31.71-28.92,38.43-32.5   c0.2,1.53,0.01,2.76-0.31,3.99c-2.84,10.85,4.77,31.9,10.43,35.67c1.84,1.23,3.07,3.37,4.5,5.01c-2.29,1.09-3.04,0.59-14.21,2.25   c-2.35,0.35-4.6,1.23-7.05,1.33c-2.44,0.1-11.34,2.01-13.49,4.29c3.58-0.82,7.15-1.64,10.73-2.45   c-10.67,9.27-25.15,15.27-26.98,41.19c-2.25-0.82-4.7-1.43-6.95-2.45c-14.08-6.37-16.55-26.14-7.97-38.84   c6.41-9.49,3.12-7.96,7.56-12.06c0,3.49-0.38,6.85,2.96,9.61c4.87,4.01,8.01,4.94,14,6.44c-1.23,1.43-3.17,1.53-4.8,3.37   c2.96-1.43,5.83-1.74,7.46-4.09c-0.31-1.33-1.23-1.65-2.15-1.74c-3.47-0.35-6.33-1.96-9.3-3.48c-10.04-5.11-4.05-13.51-4.91-14.62   c-4.85,0.81-8.73,9.3-11.65,13.29c-10.61,14.48-9.55,34.48,6.34,43.34c3.48,1.94,7.56,2.45,11.04,4.6   c0.31,0.31,0.92,0.31,1.33,0.31c20.46,1.17,21.02-3.55,22.69-2.35c-11.95,11.42-13.9,9.45-15.4,12.5c-0.08,0.17,0.7,0.57,1.71-0.03   c14.74-7.53,7.94-6.65,20.14-14.11c13.53-8.27,4.17-4.1,15.23-10.32c4.1-2.31,8.36-3.72,13.59-6.34   c-3.66,19.98,0.17,20.92-5.72,22.08c-7.71,1.51-22.21,8.58-22.45,9.48c-0.09,0.35-0.16,0.16,1.05,0.37   c1.1,0.19-0.62,1.89,1.07,3.58c2.17,2.16,8.41-1.78,12.39-1.4c0.56,0.05,0.19-0.68,1.08,4.95c-2.86-1.43-5.32-0.92-7.97,0.1   c2.15,3.19,6.03,1.96,8.47,2.96c-2.5,1-6.01-0.2-7.97,2.25c2.87,1.12,5.54,0.13,8.18,0.72c-1.13,1.74-4.7,1.11-4.7,3.27   c2.36,1.85,4.56-0.74,7.05-0.51c-1.01,1.62-3.29,1.57-3.88,2.76c2.03,1.15,3.56,1.12,5.83-2.04c-0.1,6.23-0.61,12.16,0.31,18.19   c-2.76,0.31-5.01-1.12-7.46-1.33c-1.82-2.34-1.15-1.3-2.8-2.62c-2.36-1.88-3.8-4.59-5.79-6.89c-1.66-1.92-2.17-4.39-2.45-6.75   c-0.89-7.33-2.49-12.91-2.45-17.62c0-0.04,0.03-0.1-0.16-0.02c-0.29,0.07-1.07,0.27-1.47,0.27c-8.12,0-6.92,4.65-13.31,5.48   c-14.07,1.81-7.74-2.4-8.87-7.11c-3.44,4.21-3.89,8.63,1.23,9.1c2.95,0.27,5.81-0.24,8.69-0.82c0.83,0.1,0.63,0.78,0.82,0.92   c2.45-1.94,5.52-2.96,7.36-5.42c4.87-2.07,4.03,1.82,5.01,6.13c-4.7,0.86-6.32,0.59-9.71,3.99c3.72-0.63,6-0.53,9.61-1.43   c0.61,0.51,0.51,0.92,0.31,1.53c-2.85,0.41-5.76,0.96-8.45,3.75c-0.1,0.11,4.54-0.36,4.67-0.38c1.72-0.27,3.07-0.61,4.19-0.82   c-0.42,2.77-4.12,0.97-6.13,3.99c3.46,2.13,7.36-2.18,7.36,2.25c-1.33,0.92-3.58,0.41-4.6,2.35c2.08,0.86,4.15-0.24,5.63-0.41   c2.66,4.8,7.36,7.87,10.73,12.16c-0.41,1.84-0.72,3.48-1.12,5.32c-6.69,1.68-3.33-0.39-11.45,0.1c-6.11,0.37-12.32-1.06-17.17-4.91   c-1.45-1.65-1.1-6.2-7.56-9.61c-4.89-2.58-8.07-6.64-10.73-11.14c0.31-1.43,0.61-2.76,0.92-4.29c2.15-0.72,3.48-2.45,5.11-3.78   c0.31-2.66,1.74-5.01,1.64-7.67c1.54-1.45,3.4-1.85,5.52-1.64c-0.31-0.51-0.31-1.12-1.02-1.33c-3.99,0-6.2,1.95-7.05,5.72   c-1.87,8.31-8.41,6.9-6.44,12.98c2.36,7.27,4.63,9.02,9.1,11.45c10.2,5.55,5.73,6.61,7.77,8.69c9.65,9.83,17.94,7.03,28.01,7.87   c1.53,0.13,3.17-0.2,4.7-1.02c0.51-2.04,1.02-3.99,1.53-6.23c4.27,2.35,8.22-0.9,6.23,7.05c-0.82,3.27-0.61,6.34,0.72,9.3   c3.58,2.04,7.16,3.1,11.24,3.07c13.53-0.12,16.41,3.82,21.36,2.96c5.73-1,10.65,1.67,11.55-0.31c-4.19-1.73-6.2,0.2-11.04-2.76   c-3.17-1.94-6.85-2.86-10.63-3.27c2.56,2.45,6.64,2.15,9.91,4.91c-8.14-0.71-10.6-3.97-20.65-3.17c-3.37,0.27-7.36-0.36-10.43-2.45   c-2.2-6.61,0.57-9.51,0.31-14.31c-1.76-32.42,2.96-27.27,3.68-45.79c0.1-1.02,1.02-1.53,1.23-2.66c-1.32-0.79-0.69-1.17,0.72-15.54   c3.41-34.9-0.31-11.75,4.09-42.01c1.3-8.95,4.13-14.58,0.51-18.19c-1.16,1.74,1.57,4.33-0.31,6.44c-6.23,0.72-8.66-1.85-10.83-6.95   c-6.09-14.26,7.99-30.15,25.86-30.77c11.24-0.39,20.2,5.73,18.6,18.5c-4.32,34.65-10.59,23.72-14.21,44.46   c-0.9,5.17,0.38,3.22-7.67,28.52c-3.04,9.56,1.32,15.6-6.44,35.37c-3.79,9.64-7.54,30.72-5.83,32.61c1.43-0.82,0.92-2.45,1.84-3.48   c7.55-2.4,6.6-6.42,1.12-12.16c4.88-24.74,8.48-18.99,9.71-42.32c7.26-3.58,14.21-6.95,21.57-9.51c0.1,0.31,0.2,0.51,0.2,0.72   c-2.85,24.42,1.99,40.04,0.1,58.36c-0.3,2.96,1.35,5.26,4.19,6.34c3.73,1.41,2.78,1.31,4.29-0.2c1.53,2.66,1.53,2.96,8.89,2.56   c0.92-0.51,1.23-1.84,2.04-2.15c7.67,0,15.03,2.66,23.3,0.31c-4.29-3.88-8.79-5.42-14-6.13c6.64-0.51,11.75,2.96,17.07,5.01   c0.31,1.23-1.33,0.82-0.82,1.94c1.74,0,2.45-0.72,2.25-2.45c-3.27-2.35-7.2-3.08-10.63-4.8c-1.55-0.78-3.27-1.12-5.01-1.12   c-4.25,0-6.82-2.32-12.98-3.07c-2.35-0.28-5.01-0.61-6.95-2.35c0.61-4.29,0.49-8.39,1.23-12.47c3.52-19.45,1.02-17.13,4.7-28.72   c5.34-16.82,1.59-18.22,1.23-24.94c-0.33-6.1,2.89-6.45,2.15-10.43c-4-21.27,9.81-35.04,2.15-49.78c0.92-0.61,1.33-1.74,2.86-1.12   c0.85,3.39,0.92,2.76,1.74,1.94c2.35,2.96,5.01,5.52,9.1,4.4c1.43-0.31,2.96-0.1,5.01-0.61c0.41-0.1,0.41-1.33,1.43-1.84   c3.17,0.45,2.64-0.02,3.99,5.11c0.2-2.56,0.2-4.5-0.2-6.54c1.84,0.31,0.51,2.35,1.94,2.66c0.2-0.51,0.51-1.12,1.33-1.64   c0.92,0.1,2.04-0.41,2.96,0.72c-1.34,8.68-0.65,1.71-1.74,0.51c-1.12,3.68-0.41,13.9,1.23,16.66c0-1.74,0.23-3.28-0.1-4.7   c-1.46-6.31,2.76-9.11,0.92-15.84c1.33-1.33,1.74-3.27,3.17-4.91c0.58,7.27-4.08,15.9-2.96,17.58c3.58-6.13,5.11-12.57,4.91-19.32   c1.64-0.31,2.97,0.42,4.09-0.41c3.17-2.36,6.06-3.19,12.67-17.17c3.28-6.92,1.07-8.51,0.61-13.7   C252.17,381.33,243.44,372.65,240.29,370.93z M115.59,532.53c-0.77-0.58-2.78-2.27-2.86-2.35c7.46-2.76,14.92-4.8,21.98-8.18   c-1.18,1.78-3.31,2.47-4.91,3.68C122.01,531.59,131.13,529.7,115.59,532.53z M130.31,546.94c-1.23-1.53-1.94-2.35-2.96-3.48   c0.61-14.38-5.42-10.4,7.57-18.81C134.86,524.76,130.79,539.55,130.31,546.94z M144.21,567.18c0.32-2.48,1.29-8.74,1.33-8.89   C149.7,563.28,148.78,564.21,144.21,567.18z M138.38,493.99c0.61,7.26-4.87,0.94-24.12,15.54c-8.84,6.7-20.39,8.04-31.48,8.48   c-3.13-1.29-4.41-3.69-3.78-7.36c2.11-12.2,11.75-24.03,21.16-31.07c5.91-4.43,5.56-5.59,8.99-6.03   c4.34-0.56,27.18-2.85,29.74-1.09C139.31,472.75,137.16,479.5,138.38,493.99z M178.55,425.82c-1.53-18.1-30.46-19.36-41.19-7.67   c-4.06,4.42-8.37,8.89-9.2,15.33c-1.54,11.93,9.05,19.28,14.51,19.11c-1.02,5.93-2.04,11.65-2.96,17.07   c-3.18,1.19-4.22-1.97-7.36-1.84c-2.35,0.1-4.19-2.05-6.03-3.58c-7.29-6.04-7.78-11.06-10.73-21.67c-1.82-6.55-1.74-13.08,0-20.03   c3.83-4.1,16.02-6.99,20.14-10.22c3.66-2.88,18.82-5.32,25.27-5.49c3.87-0.1,7.76,0.07,11.63,0.07c0.61,2.66,1.64,5.01,3.27,7.05   c7.63,12.02,3.52,19.77,1.84,33.22c-1.18,9.46-3.29,9.12-0.33,15.28c0.01,0.02,0.02,0.05,0.02,0.05   c7.34-5.87,15.1-22.41,10.02-10.73c-4.4,10.11-2.15,14.89-11.14,22.69c-3.53-1.76-7.16-2.68-11.04-3.37   C167.33,458.69,180.68,450.99,178.55,425.82z M170.99,504.01c-12.65,5.12-13.22,6.89-15.64,7.26c-0.73-0.73-0.4-2.44,0.1-3.58   c4.63-10.58,4.85-19.28,9.1-35.06c4.97,2.03,10.52,2.29,14.72,5.83c1.56,6.62,2.71,8.32,0.31,15.74   C176.08,502.93,178.92,500.8,170.99,504.01z M189.79,531.81c-0.78,13.78-6.24,28.45,2.45,28.93c4.09,0.23,7.77,1.53,11.86,2.56   c0,0.72-1.02,0.82-0.82,2.04c5.83,0.28,8.97,1.8,12.98,4.09c-3.58-0.31-6.63,0.05-9.71-0.51c-1.83-0.34-3.68-0.38-5.52-0.41   c-7.87-0.12-7.88-3.45-9.81-4.09c-1.05,0.88,0.87,1.15-0.01,1.83c-2.09,1.6,1.94,1.54,3.28,2.77c-1.77,2.56-4.28,1.12-6.44,1.33   c-0.72-0.79-2.22-4.28-3.46-3.78c-0.33,0.13-0.55,0.67-0.93,0.82c-1.13,0.21-0.86-1.43-1.94-1.43c-0.48,0.48,0.15,1.28-0.41,1.84   c-1.64-0.82-2.74-2.15-2.66-4.09c0.15-3.58,0.03-7.15,0.82-10.63c1.11-4.93-2.1-12.3-0.61-33.12c0-1.12-1.3-1.94-1.12-3.58   c0.79-7.2,0.52-13.3,0.82-13.3c3.53-0.34,6.38-2.55,10.02-2.65c2.73-2.73,5.34-5,5.62-8.79   C198.37,506.27,190.53,518.81,189.79,531.81z M191.94,494.5c-0.75,3.32-10.04,5.83-11.95,6.54c-0.1,0,0.29-3.68,1.52-6.95   c1.11-2.94,0.84-10.99,0.92-11.65c0.21-1.63-0.53-3.54-2.15-4.8c-5.45-4.26-0.98,0.57,4.5-11.35c2.56,1.33,5.62,1.02,7.56,3.48   c-0.2,4.19,3.08,7.04,3.88,10.94C195.31,485.61,192.98,489.91,191.94,494.5z M196.44,470.79c0,8.74-2.25-0.79-4.29-3.27   c-1.53-1.86-5.51-2.56-6.54-2.56c1.85-12.06,4.3-13.77,6.22-18.19c4.72-10.82,2.29-13.7,7.49-15.43   C203.28,445.83,196.44,455.05,196.44,470.79z M242.71,418.91c-1.26,1.78-3.62,2.92-5.18,2.92c-1.38-1.09-1.55-3-3.27-3.6   c-0.71,0,0.81-0.92-5.52-3.21c-0.24-0.06,0.08,1.38-0.01,1.4c1.85,0.02,3.33,1.67,5.15,2.08c0.17,1.14,1.22,1.85,1.5,3.04   c-4.37,2.12-5.09,7.75-7.77,10.43c-2.15-1.02-4.54-1.36-4.78-4.02c-1.4,1.19-0.51,2.1,0.39,3.1c-1.26,2.09-0.35,1.64-5.42,0.92   c-1.32-0.3-1.37-2.24-3.07-2.45c0.2,2.45,2.04,3.17,4.29,3.99c-1.76,1.08-2.97,0.62-4.5,0.32c-2.51,2.09-6.39,1.4-8.48-1.94   c-1.54-2.46-4.59-12.26-5.11-14.11c-0.51-1.81,0.09-4.02,0.61-6.03c-3.56,5.19-2.37,4.94,1.02,15.54c-7.47,3.08-5.15,3.17-9.91,4.5   c-3.16,13.26-10.23,22.84-11.15,23.37c-0.45,0.26-0.6-0.37-1.01-0.37c-1.26,1.26-1.79,3.37-2.86,4.7   c-1.95-3.32-0.47-3.66,3.58-23.41c4.08-19.88-8.76-24.33-6.64-29.03c3.83-0.96-2.9,0.92,14.82-1.84c2.16-0.34,4.56-2.55,6.44-4.09   c0.78,1.4-0.72,1.86-0.82,2.66c0.21,0.32,0.6,0.29,0.82,0.1c1.36-1.19,1.33-1.33,1.94-3.88c3.07-2.86,5.72-6.03,7.46-10.12   c0.99,0.99-0.99,3.43,0.92,3.27c0-3.63,3.82-13.32,8.38-16.97c-1.22,4.57-2.07,11.29-1.84,18.4c-0.7,0.8-7.98,0.82-8.07,7.36   c-0.02,1.43-0.92,2.65-0.82,3.98c-0.5,0.5-0.7,1.11-0.5,1.82c2.61,1.2,2.65,1.15,4.71-1.6c0.52-0.7-1.84,1.08-2.58,1.16   c-1.23,0.13-1.27-0.86-1.62-1.37c1.38-0.25,1.33-1.8,1.51-2.96c0.69-1.73,1.22-5.83,2.82-4.38c1.27,1.14,1.78-0.15-0.67,2.65   c1.2,2.41-1.64,3.89,0.27,3.5c2.53-0.53,2.24-3.63,4.13-4.11c0.1-1.02,0.2-1.74,0.31-2.56c1.56,1.01,0.43,3.32,2.16,4.09   c1,0.44,0.45-0.72,0.59-1.01c0.61-0.41,0.92,0.61,1.64,0.2c0.41-0.51-0.31-0.82-0.41-0.92c-0.62-6.86,1.12-13.18,1.12-19.62   c-3.27,8.42-0.57,11.68-3.78,15.84c-1.06-10.13,3.23-18.09,6.34-23.82c0.79-1.45,1.74-2.45,3.68-2.76   c-0.66,2.64-3.67,8.11-3.37,16.66c5.67-13.23,5.05-13.74,5.49-11.89c0.57,2.42-0.48,4.7,0.34,6.98c0.28-5.45,0.49-7.15,1.23-12.06   c1.03-0.32,3.65-0.52,3.98,0.21c4.56,10.21,5.02,18.23,2.96,26.46c-1.63-0.82-0.72-3.17-2.25-4.4c0.24,1.81,1.74,8.34,2.81,8.13   c0.95-0.19,1.28-0.85,1.38-1.58c0.7-5.13,2.72-14.22-3.37-28.01c3.1-0.18,3.38,2.38,3.87,1.88c0.73-0.58,0.63-0.92,1.5-0.22   c2.98,2.4,7.16,17.69,7.6,19.09c0.29,0.91,0.02,2.09,0.02,2.77c-0.52-0.55-1.13-1.37-1.35-1.65c1.23,5.11,0.51,9.81,0.41,14.41   c0.1,0.92-1.33,1.02-1.12,2.25c2.57,1.1,2.64-2.25,4.5-2.56c0.09,0.17,0.1,0.38,0.2,0.61c0.95,0.95,1.81-4.54,3.17-6.54   C252.95,404.23,244.9,415.81,242.71,418.91z M251.06,399.08c-0.15,0.27-0.12,0.74-0.6-1.56c-0.29-1.01-0.55,2.09-1.79,2.3   c-1.11,0.19,1.16-7.02-1.12-11.83c-0.94-1.97,0.96,5.27-1.53,11.76c-0.87-5-0.05-5.86,0.1-7.06c0.81-6.43-4.56-17.73-4.16-17.41   C246.6,379.05,253.89,393.87,251.06,399.08z"/>
	<path d="M228.66,416.41h-0.03c0.09,0-0.02,0.1,0.1,0.1l-0.04-0.08l-0.01-0.01c0.01,0,0.02,0,0.03,0c-0.02-0.01-0.04-0.04-0.08-0.12   C228.64,416.35,228.65,416.38,228.66,416.41z"/>
	<path d="M179.57,583.53c-1.53-1.64-3.87-1.44-5.32-3.17c-2.99-3.59-8.34-3.06-9.4-4.29c-2.78-3.2-15.66-2.56-21.06-2.66   c-0.31-0.01-0.41,0.2,0,0.92c0.41,0.83,11.87,0.81,12.16,0.82c5.21,0.18,9.61,3.17,14.62,4.4c0.51,0.2,1.23,0.2,1.23,1.12   c-2.76-0.82-5.42-1.43-8.38-1.43c2.15,1.74,5.02,1.9,7.36,2.76c2.67,0.98,4.7,3.48,7.56,3.68c0.31,0.51-0.31,0.92,0.2,1.33   c0.82,0.2,1.53,0.1,1.94-0.72C180.7,585.06,178.55,584.86,179.57,583.53z"/>
	<path d="M588.63,593.96c-5.53-3.11-2.18-4.08-16.15-10.43c-5.62-2.56-11.96-2.66-18.09-3.27c0,2.74,12.65,1.69,18.4,5.21   c6.6,4.04,7.01,2.69,7.77,4.4c-2.56-0.2-4.7-1.94-7.67-1.84c2.56,2.25,5.52,2.56,7.97,3.99c2.45,1.43,4.19,3.88,6.85,4.6   c0.2,0.61-0.61,0.82-0.1,1.33c0.82,0.2,1.53,0.2,2.25-0.92C588.22,596.51,589.86,594.65,588.63,593.96z"/>
	<path d="M813.29,17.78c-0.1,0.51-0.82,1.02-0.1,1.94c1.12-0.41,2.25-1.12,3.78-0.2c1.32,2.31,1.76,3.96,3.17,3.68   c0.1-1.53-0.72-3.16-1.74-3.88c-5.52-3.92-1.17-11.33-6.85-14.31c2.56,4.09,2.04,8.38,3.78,11.96   C814.62,17.68,813.9,17.48,813.29,17.78z"/>
	<path d="M159.54,581.38c1.5,3.18,4.3,0.81,9.3,3.78c2.05,1.22,4.5,1.33,6.85,1.74c-2.25-2.35-5.61-2.37-8.28-4.09   C165.17,581.37,162.09,582.2,159.54,581.38z"/>
	<path d="M576.87,593.96c2.15,2.15,5.32,2.25,7.97,3.27c-5.01-2.56-9.4-6.75-15.74-7.15C571.04,593.14,574.83,591.91,576.87,593.96z   "/>
	<path d="M789.47,377.37c-0.26,1.8-1.7,8.89-0.2,8.89c0.82-0.2,1.02-1.02,1.43-1.94c-1.46-1.22-0.96-2.69,0.51-8.59   C789.78,375.22,789.47,376.35,789.47,377.37z"/>
	<path d="M142.78,514.33c1.43-1.43,1.53-2.96,1.74-4.4c0.31-1.33,1.64-2.76-0.31-4.7C143.29,508.4,141.45,510.96,142.78,514.33z"/>
	<path d="M563.79,513c-2.66,2.56-3.68,5.83-2.45,7.87C563.79,516.89,564.3,515.05,563.79,513z"/>
	<path d="M781.81,359.48c2.96-1.23,5.42-2.76,7.46-5.42C786.51,354.06,782.83,356.93,781.81,359.48z"/>
	<path d="M335.14,505.03c0.7-0.93,2.35-0.82,2.76-2.35c-2.25-0.72-3.17,1.33-5.01,1.84c0.41,1.53-1.53,2.35-1.43,4.09   C334.01,508.51,334.09,506.44,335.14,505.03z"/>
	<path d="M818.4,17.27c0.19-3.28-2.11-4.28-0.31-5.83c-0.31-2.15-1.23-3.99-2.76-5.52C816.05,9.61,815.84,13.49,818.4,17.27z"/>
	<path d="M802.56,378.59c0.51-2.96,0.51-2.96-0.1-5.52c0.31-1.12,1.43-1.74,1.64-2.86c-0.41-2.05-2.98-0.39-2.45,1.94   C802.09,374.19,800.61,376.55,802.56,378.59z"/>
	<path d="M167.1,431.34c-1.34-0.8-1.94-2.56-4.09-3.37c0.51,2.66,1.94,4.3,3.88,4.7c1.53,0.31,2.25,1.12,3.37,2.56   C170.37,432.36,168.52,432.18,167.1,431.34z"/>
	<path d="M597.82,446.26c0.51-2.96-1.35-3.34-2.56-4.29c-1.25-0.99-1.64-2.96-3.58-3.78C591.26,443.56,595.5,441.6,597.82,446.26z"/>
	<path d="M225.98,434.91c-0.51,1.02-0.1,2.15,0,3.27c0.11,1.23-0.72,2.04-1.02,3.17c0.67,1.42,2.54,14.49,1.43-1.02   C226.25,438.49,226.69,436.65,225.98,434.91z"/>
	<path d="M818.09,11.45c0.82,2.25,1.43,4.6,2.96,6.85C821.36,14.72,820.34,12.57,818.09,11.45z"/>
	<path d="M798.57,166.2c-1.43-2.04-2.15-4.6-4.19-6.34C794.89,162.62,796.01,164.87,798.57,166.2z"/>
	<path d="M573.29,453.31c0.1,2.35,0.41,4.7,2.45,6.44C573.8,452.6,574.05,452.93,573.29,453.31z"/>
	<path d="M805.72,19.01c-0.92-2.56-2.86-4.29-5.11-5.72C802.04,15.43,803.17,17.78,805.72,19.01z"/>
	<path d="M150.13,451.57c-0.92-2.25-1.74-4.4-2.66-6.54C147.37,448.81,147.99,450.04,150.13,451.57z"/>
	<path d="M777.92,374.4c-1.74,1.74-1.74,2.56-0.2,7.15C777.41,378.7,778.94,376.65,777.92,374.4z"/>
	<path d="M813.29,17.68c-1.33-2.96-1.33-6.23-1.64-9.4C810.56,11.44,810.64,17.24,813.29,17.68z"/>
	<path d="M826.98,27.9c0.82,1.43,1.12,2.96,2.56,4.6C829.74,28.93,829.64,28.72,826.98,27.9z"/>
	<path d="M777,392.7c-1.64-1.94-3.17-3.58-5.32-4.5C773.94,391.27,774.55,391.78,777,392.7z"/>
	<path d="M792.85,93.52c1.43,1.12,2.45-0.1,3.78-0.41C794.17,91.89,794.17,91.89,792.85,93.52z"/>
	<path d="M393.91,499.41c1.23-0.2,2.45-0.31,3.68-0.51C396.26,498.49,394.93,498.18,393.91,499.41z"/>
	<path d="M803.17,26.58c0.61-1.64,0.61-3.17,0-4.6C803.17,23.51,803.17,24.94,803.17,26.58z"/>
	<path d="M823.3,25.76c-1.02-0.82-2.15-1.74-3.17-2.56C820.24,25.14,821.57,25.66,823.3,25.76z"/>
	<path d="M771.38,351.3c-0.41,1.64-0.41,3.17,0,5.52C772.4,353.76,772.4,353.76,771.38,351.3z"/>
	<path d="M799.69,11.35c-0.41-1.43-0.72-2.86-2.35-4.29C797.85,9.1,798.26,10.43,799.69,11.35z"/>
	<path d="M782.73,368.88c0.2,1.84,0.82,2.66,2.45,2.56C784.87,370.32,784.46,369.19,782.73,368.88z"/>
	<path d="M417.32,485.41c1.74-0.61,2.86-1.02,3.88-1.33C419.97,483.87,418.95,484.18,417.32,485.41z"/>
	<path d="M142.98,469.26c0.2,1.74,0.2,2.86,1.43,3.68C143.8,472.02,144.61,470.48,142.98,469.26z"/>
	<path d="M815.43,5.93c-0.41-1.12-0.72-2.25-2.96-2.56C813.9,4.4,814.21,5.62,815.43,5.93z"/>
	<path d="M741.43,126.54c0.61,0.82,1.02,1.94,2.35,1.94C743.17,127.56,742.45,126.85,741.43,126.54z"/>
	<path d="M815.23,335.67c0.1-1.64,0.41-2.76-0.2-3.88C815.03,332.91,814.51,334.03,815.23,335.67z"/>
	<path d="M787.73,374.51c-0.72-1.64-1.94-2.04-2.66-2.96C784.98,373.18,785.79,373.99,787.73,374.51z"/>
	<path d="M784.57,381.15c-0.72-1.33-1.33-2.04-2.66-1.74C782.32,380.74,783.14,381.15,784.57,381.15z"/>
	<path d="M420.38,504.83c-1.02-0.82-1.94-0.51-3.07-0.1C418.44,505.13,419.36,505.44,420.38,504.83z"/>
	<path d="M803.99,35.77c0.31-1.23,0.61-2.25,0-3.48C803.58,33.53,803.48,34.55,803.99,35.77z"/>
	<path d="M830.05,33.83c-0.1,1.23-0.41,2.15,0.2,3.17C830.46,35.98,830.66,35.06,830.05,33.83z"/>
	<path d="M800.72,167.73c0.41,1.23,0.92,1.84,2.25,2.15C802.35,168.75,802.04,168.04,800.72,167.73z"/>
	<path d="M567.77,480.81c-0.41-1.53,0.2-2.66-1.02-3.99C566.75,478.25,566.24,479.38,567.77,480.81z"/>
	<path d="M770.97,459.85c0.41-1.12,0.31-2.15-0.1-3.17C770.67,457.81,770.46,458.73,770.97,459.85z"/>
	<path d="M780.07,361.22c-1.12,0.2-1.53,0.72-1.53,2.04C779.66,362.85,779.97,362.24,780.07,361.22z"/>
	<path d="M782.32,397.61c0.2-1.12-0.41-1.43-1.12-1.74C780.89,397.09,781.5,397.3,782.32,397.61z"/>
	<path d="M779.46,386.67c0-1.33-0.41-1.94-1.84-1.94C777.92,385.75,778.54,386.26,779.46,386.67z"/>
	<path d="M171.39,420.3c-0.82,0-1.43,0.2-1.64,1.02C170.68,421.52,171.09,421.22,171.39,420.3z"/>
	<path d="M795.09,151.48c-0.72,0.61-1.12,1.12-0.61,1.94C794.89,152.81,795.81,152.6,795.09,151.48z"/>
	<path d="M650.97,380.64c0.61-0.51,1.23-1.02,1.64-2.25C650.26,379.46,650.4,380.64,650.97,380.64z"/>
	<path d="M142.37,442.27c0-1.23-0.51-1.64-1.43-1.64C141.14,441.46,141.45,441.97,142.37,442.27z"/>
	<path d="M772.3,343.43c0-0.52-1.39-0.53-0.61,1.02C772.4,344.25,772.51,343.84,772.3,343.43z"/>
	<path d="M553.46,578.93c-0.31,0.2-0.72,0.51-0.72,1.02c0.61,0.1,1.12,0.1,1.74,0.2C554.18,579.75,554.28,579.03,553.46,578.93z"/>
	<path d="M792.13,157.3c0.82-0.31,1.12-0.92,0.41-1.84C791.72,155.87,791.72,156.49,792.13,157.3z"/>
	<path d="M814.41,320.13c0.2,0.51,0.41,0.82,0.51,1.23C815.03,320.84,815.33,320.44,814.41,320.13z"/>
	<path d="M792.74,343.13c-0.61,0.1-0.72,0.61-0.51,1.43C792.85,344.05,793.25,343.74,792.74,343.13z"/>
	<path d="M791.01,350.79c-0.51,0.31-0.82,0.72-0.51,1.33C791.31,351.92,791.31,351.41,791.01,350.79z"/>
	<path d="M571.35,486.12c0.1-0.51-0.2-0.82-0.72-0.82C569.84,486.1,571.07,486.95,571.35,486.12z"/>
	<path d="M404.13,487.14c0.31,0.61,0.72,0.72,1.02-0.1C404.75,486.74,404.44,486.63,404.13,487.14z"/>
	<path d="M148.6,478.76c0.41-0.51,0.31-0.92,0-1.43C147.37,477.74,147.78,478.25,148.6,478.76z"/>
	<path d="M777.92,122.65c0,0.31,1.02,0.1,0.41-0.61C778.13,122.35,777.82,122.76,777.92,122.65z"/>
	<path d="M775.47,127.15c0.72-0.2,1.02-0.82,1.12-1.94C775.88,125.93,775.47,126.33,775.47,127.15z"/>
	<path d="M344.54,502.17c0.51,0,0.92,0.2,1.12-0.82C345.05,501.25,344.64,501.15,344.54,502.17z"/>
	<path d="M569.41,449.53c0-0.92-0.31-1.33-1.23-1.43C568.29,449.02,568.59,449.53,569.41,449.53z"/>
	<path d="M775.27,127.22c-0.75,0.42-1.12,1.09-1.23,1.97C774.9,128.81,775.3,128.14,775.27,127.22z"/>
	<path d="M775.27,127.05c0.04,0.24-0.08,0.19,0.1,0.1L775.27,127.05z"/>
	<path d="M339.53,503.91c0.72-0.61,1.53-0.41,1.53-1.43C340.35,502.27,339.64,502.07,339.53,503.91z"/>
	<path d="M774.04,129.2c-0.86,0.38-1.17,1.12-1.21,2.04C773.48,130.74,773.95,130.07,774.04,129.2z"/>
	<path d="M772.71,131.34l0.1,0.1C772.81,131.15,772.9,131.23,772.71,131.34z"/>
	<path d="M776.7,129.2c0.04,0.22-0.1,0.2,0.1,0.1L776.7,129.2z"/>
	<path d="M776.69,129.37c-0.75,0.41-1.22,1-1.22,1.97C776.24,130.86,776.72,130.28,776.69,129.37z"/>
	<path d="M774.24,133.28c0.61-0.82,1.12-1.23,1.12-2.04C774.65,131.55,774.24,132.06,774.24,133.28z"/>
	<path d="M561.64,524.45c0.41-0.61,0.72-1.23-0.1-1.74C561.13,523.33,561.03,523.94,561.64,524.45z"/>
	<path d="M676.73,411.61c-0.12,0.12-0.14,0.09,0.01,0.18C676.74,411.73,676.74,411.67,676.73,411.61z"/>
	<path d="M677.55,406.7c-0.18-0.14-0.06-0.14-0.1,0.1L677.55,406.7z"/>
	<path d="M659.46,432.05l0.1,0.1C659.59,432.09,659.67,432.14,659.46,432.05z"/>
	<path d="M665.18,412.94l-0.1,0.1C665.24,413.04,665.18,413.06,665.18,412.94z"/>
	<path d="M222.91,427.86l-0.1-0.1C222.81,428.01,222.85,427.9,222.91,427.86z"/>
	<path d="M206.66,395.26c1.23-2.46,2.66-5.3,2.47-7.73c-0.12-1.62-1.21,3-2.47,4.01c-0.47,0.37-0.45,0.89-0.31,1.47   C206.35,394.03,206.02,394.72,206.66,395.26z"/>
	<path d="M804.29,301.63c2.66-1.02,3.37-2.96,4.91-5.01C806.03,298.66,805.72,299.07,804.29,301.63z"/>
	<path d="M803.17,298.88c0.23-2.55-0.41-5-1.53-7.26C801.64,294.69,802.15,296.83,803.17,298.88z"/>
	<path d="M810.73,294.68c1.02-0.1,1.43-0.41,1.33-1.23C811.24,293.25,810.83,293.66,810.73,294.68z"/>
	<path d="M785.28,268.61c-0.31-0.31-0.61-0.61-0.92-0.82C784.46,268.31,784.57,269.13,785.28,268.61z"/>
	<path d="M814.72,232.23c3.37-1.74,5.11-3.17,6.75-5.83C819.22,227.32,815.95,230.08,814.72,232.23z"/>
	<path d="M820.34,253.08c0.41,0.82,0.2,1.84,1.33,2.35c0.85-0.7,2.04-1.22,2.01-2.35C823.63,251.04,821.7,251.54,820.34,253.08z"/>
	<path d="M794.99,213.52c0.31,1.23,1.02,2.04,2.04,2.66C796.53,214.44,796.53,214.44,794.99,213.52z"/>
	<path d="M827.09,218.73c1.68-1.78,1.61-1.74,1.53-3.58C828.31,216.38,827.09,217.3,827.09,218.73z"/>
	<path d="M811.55,237.44c0.41-0.51,0.82-0.92,0.72-1.84C811.55,236.11,811.14,236.62,811.55,237.44z"/>
	<path d="M825.76,220.68c0.76-0.67,1.38-1.1,1.33-1.94C826.06,218.84,826.06,219.55,825.76,220.68z"/>
	<path d="M813.29,195.84c3.99,2.96,9.61,2.04,14.11-1.84C822.83,195.24,818.53,197.17,813.29,195.84z"/>
	<path d="M830.66,191.14c1.74-1.02,2.86-2.35,2.66-4.7C832.5,187.97,831.58,189.5,830.66,191.14z"/>
	<path d="M823.34,117.39c-0.47,0.59,0.37-0.61,1.63,0.18c0.07,0.05,0.64,0.48,0.87,0.65c0.72,0.55,1.72,0.73,1.65,0.44   c-0.4-1.57,0.9-2.39,1.54-3.68C826.65,114.99,824.85,115.5,823.34,117.39z"/>
	<path d="M829.13,114.78c-0.01,0.02-0.09,0.17-0.1,0.19C829.29,114.98,829.27,115.03,829.13,114.78z"/>
	<path d="M829.11,114.72c0.05,0.1,1.13-0.35,1.13-0.96c-4.47-3.02-5.95-2.02-8.18,0.2c1.33-0.41,2.35-0.72,3.48-1.02   C826.73,113.53,828.26,113.48,829.11,114.72z"/>
	<path d="M829.13,114.78l0.1,0.1C829.22,114.86,829.17,114.78,829.13,114.78z"/>
	<path d="M803.58,138.91c0.1,1.64,1.02,3.17,0.31,4.91C805.01,142.08,805.32,140.44,803.58,138.91z"/>
	<path d="M808.28,136.04c0.61,1.12,0.72,2.56,2.04,3.78C809.81,137.07,809.81,137.07,808.28,136.04z"/>
	<path d="M813.39,155.06c-0.83-0.83-1.53-0.45-2.45,0.31C812.1,155.36,812.68,155.76,813.39,155.06z"/>
	<path d="M791.21,522.61c-0.92-2.15-1.64-2.15-6.44-0.51C787.22,523.63,789.17,523.74,791.21,522.61z"/>
	<path d="M801.74,515.97c0.89-0.25,1.33-0.68,1.12-1.64c-2.04-1.33-3.99-0.31-6.64,0.41C800.34,516.96,800.83,515.97,801.74,515.97z   "/>
	<path d="M673.26,415.6c0.5,0.5-0.16,1.55,1.02,1.74c0-7.46-1.23-14.62-2.35-21.77c0.03,2.14,0.27,18.37-1.53,21.98   C672.61,418.38,672.36,415.6,673.26,415.6z"/>
	<path d="M656.39,432.77c0.26,2.34,2.74,4.49,2.81,4.34c1.11-1.05,2.54,0.45,3.72-0.36c-0.24-3.11-3.91-4.12-3.91-5.28   c-1.03,0.68,0.74,2.04-0.42,2.04C657.77,433.52,657.37,432.4,656.39,432.77z"/>
	<path d="M659.05,431.44l-0.1-0.1C659.02,431.52,658.99,431.47,659.05,431.44z"/>
	<path d="M655.78,414.27c1.8-0.6,0.79-0.34,0.85-5.74C656.83,389.72,654.07,406.59,655.78,414.27z"/>
	<path d="M658.95,404.76c0.42,3.44,1.15,6.81,2.76,9.81C660.89,411.3,660.58,407.83,658.95,404.76z"/>
	<path d="M650.36,416.21c0.51-1.43-0.51-2.66-0.72-3.88c0.1,1.37-1.02,2.5-0.41,3.88C649.65,416.21,649.95,416.21,650.36,416.21z"/>
	<path d="M658.64,416.11c0.51-2.15-0.72-3.68-0.72-5.32C657.92,412.53,657.21,414.26,658.64,416.11z"/>
	<path d="M663.89,408.95c-0.2-0.37-0.45-0.75-0.76-1.12C664.36,415.14,665.33,411.61,663.89,408.95z"/>
	<path d="M653.84,410.28c-0.16,1.06-0.34,2.39,0.1,3.27C654.25,412.63,654.14,411.71,653.84,410.28z"/>
	<path d="M658.54,402.92c0.01,0.8,0.18,1.22,0.5,1.75c-0.08-0.64,0.02-1.54-0.26-2.24C658.49,401.71,658.52,401.63,658.54,402.92z"/>
	<path d="M615.4,446.26c0.82,0.31,1.43,0.61,1.94-0.1C616.84,445.44,616.32,445.54,615.4,446.26z"/>
	<path d="M651.59,413.55c0.1,0.61,0.1,1.02,0.2,1.53C652.26,414.51,652.12,414.08,651.59,413.55z"/>
	<path d="M676.02,408.75c-0.42,0.85-0.3,1.65,0.2,2.15C676.32,410.18,676.43,409.46,676.02,408.75z"/>
	<path d="M491.76,490.66c1.49-0.51,2.74-1.23,4.06-1.78C490.62,489.1,486.29,492.53,491.76,490.66z"/>
	<path d="M593.53,569.83c1.23-2.04,1.23-3.37,0.51-5.32C593.43,566.36,593.33,567.69,593.53,569.83z"/>
	<path d="M608.97,500.84c1.43-0.2,2.35-0.82,2.76-2.76C610.09,498.69,609.48,499.72,608.97,500.84z"/>
	<path d="M343.52,532.94c-2.03-0.8-2.75-0.63-4.5,1.43C341.78,535.18,341.88,535.18,343.52,532.94z"/>
	<path d="M341.27,538.66c1.33,0.41,2.35,0.51,3.27-1.23C342.91,537.13,341.88,537.13,341.27,538.66z"/>
	<path d="M356.09,529.06c-0.82-0.72-1.73-0.82-2.66-0.2C354.59,530.01,354.65,529.92,356.09,529.06z"/>
	<path d="M239.49,402.11c2.33,0.54,2.81-3.85,3.05-1.4c0.43,4.43,2.12,0.81-1.53-20.48C241,399.1,239.27,402.11,239.49,402.11z"/>
	<path d="M228.94,418.97c-1.43-0.2-2.08-1.84-3.68-1.84c0.51,1.84,1.43,3.07,2.76,4.29c1.12-0.41,2.45,0,3.78,0   c0-3.04-2.59-3.32-3.11-4.91C226.26,416.61,228.94,417.73,228.94,418.97z"/>
	<path d="M225.06,384.52c-1.23,6.44-1.02,11.35,0.51,14.11C225.15,394.01,226.29,389.71,225.06,384.52z"/>
	<path d="M212.79,379.72c-2.32,3.44-2.04,7.22-1.74,11.24C211.67,387.28,212.18,383.5,212.79,379.72z"/>
	<path d="M230.58,398.63c-0.51-2.35-0.61-4.8-1.94-6.95C228.63,394.13,229.35,396.38,230.58,398.63z"/>
	<path d="M218,399.96c-0.2,1.99,3.35,1.31,0.72-2.96C218.41,398.01,218.11,398.93,218,399.96z"/>
	<path d="M228.47,371.46c-0.19-0.82-0.14-1.39-0.14,3.56C228.88,373.84,228.76,372.7,228.47,371.46z"/>
	<path d="M238.75,377.67c0.2-1.12-0.2-2.15-0.92-3.27C237.53,375.83,238.36,376.78,238.75,377.67z"/>
	<path d="M228.53,400.77c-0.61-1.33-0.41-2.35-1.23-2.96C227.41,398.63,226.28,399.75,228.53,400.77z"/>
	<path d="M223.01,394.44c-0.1,1.33-0.72,2.66,0.31,3.88C223.21,397.69,223.01,395.78,223.01,394.44z"/>
	<path d="M227,394.54c-0.41,1.53-0.41,2.45,0.31,3.27C226.96,394.52,227.05,394.92,227,394.54z"/>
	<path d="M187.85,433.18c0.71,0.25,1.25,0.44,1.53-0.41C188.69,432.25,188.22,432.31,187.85,433.18z"/>
	<path d="M221.05,398.6c0.01-0.29-0.12-0.58-0.18-0.89C220.25,398.32,220.99,399.85,221.05,398.6z"/>
	<path d="M228.22,389.53c0.09,0.7-0.26,1.47,0.51,2.04C228.63,390.86,228.74,390.14,228.22,389.53z"/>
	<path d="M227.61,386.06c0,0.51,0,1.02,0,1.53C228,387.09,227.93,386.6,227.61,386.06z"/>
	<path d="M223.26,428.07c0.91,0.12,1.52-0.38,1.8-1.23C223.48,426.84,223.15,428.07,223.26,428.07z"/>
	<path d="M247.54,409.36c0.76-0.38,1.23-0.98,1.23-1.84C248.18,407.12,247.29,408.09,247.54,409.36z"/>
	<path d="M223.22,398.42c0.2,0.61,0,1.23,0.41,1.94C223.74,399.7,223.7,398.9,223.22,398.42z"/>
	<path d="M94.53,497.98c-1.94-0.41-3.58-0.72-5.21-1.02C87.84,497.33,91.47,498.59,94.53,497.98z"/>
	<path d="M88.3,542.03c-0.2,0.21-6.2,5.93-3.67,5.26c0.73-0.19,1.38-1.45,2.03-0.66c1.23,1.12-0.72,2.86,1.23,3.88   c0.2-0.72,0.51-1.33,0.72-2.15c1.33-0.51,3.17-0.61,2.96-2.96C90.95,544.18,89.83,543.16,88.3,542.03z M88.3,543.97   c1.23,0.51,1.84,1.12,1.94,2.35C87.66,546.57,87.45,545.96,88.3,543.97z"/>
	<path d="M92.9,547.96c-6.39,1.06-2.34,9.66,2.94,6.13c-0.51,0.52-1.09,2.92,1.39,5.22c0.56,0.52,1.19,1.01,1.8,1.51   c4.37-3.79,4.89-6.24-0.31-8.07c-2.79,0.8-2.23,0.91-2.2-0.76C96.57,549.4,95.91,549.02,92.9,547.96z M94.13,553.19   c-2.36,1.48-5.06-2.53-0.93-3.9C96.01,550.17,95.17,552.54,94.13,553.19z M98.93,553.99c2.25,1.64,2.25,1.64,1.33,3.58   c-0.72,0.41-0.72-0.61-1.43-0.61c-0.41,0.1-0.41,1.12-1.33,0.72C96.22,556,97.17,555.09,98.93,553.99z"/>
	<path d="M90.95,530.28c-0.12,0.98,0.77,1.69,1.85,2.56c-0.71-2.33,1.1-3.05,2.14-4.8C93,528.54,92.08,529.56,90.95,530.28z"/>
	<path d="M112.83,557.16c-0.66-1.31-1.17-1.02-2.15-0.2C111.4,557.87,112.01,557.77,112.83,557.16z"/>
	<path d="M106.29,520.67c-0.82-0.51-1.12-0.2-1.23,0.72C105.88,521.59,106.18,521.28,106.29,520.67z"/>
	<path d="M96.98,527.62c0.82,0,1.23-0.1,1.33-0.92C97.6,526.9,97.6,526.9,96.98,527.62z"/>
	<path d="M166.59,490.11c-1.54-0.49-1.33-2.66-3.17-3.07c-0.37,3.93,3.78,3.87,5.11,6.64C169.45,491.23,167.91,490.53,166.59,490.11   z"/>
	<path d="M166.39,497.77c0.82-0.31,1.23-0.51,0.72-1.23C166.69,496.75,166.39,496.96,166.39,497.77z"/>
	<path d="M191.73,476.92c-0.59,0.15-0.85,0.41-0.51,0.92c0.78-0.1,1.35-0.1,1.43-0.92C192.35,476.62,192.04,476.82,191.73,476.92z"/>
</g>
</svg>