<?xml version="1.0" encoding="UTF-8"?>
<!-- Generator: Adobe Illustrator 23.0.1, SVG Export Plug-In . SVG Version: 6.00 Build 0)  -->
<svg version="1.2" fill="#fff" baseProfile="tiny" id="Layer_1" xmlns="http://www.w3.org/2000/svg" xmlns:xlink="http://www.w3.org/1999/xlink" x="0px" y="0px" viewBox="0 0 900 600" xml:space="preserve">
<g>
	<path d="M815.26,559.91c-2.35-3.67-6.43-2.86-9.89-3.57c-0.2-1.33,1.02-2.04,0.71-3.16c-0.2-1.02-1.12-1.53-1.53-2.55   c-1.02-2.55-1.34-5.49-3.26-7.75c-4.83-5.68-10.5-8.95-18.36-8.06c-7.44,0.84-14.89-0.61-21.93-2.24   c-5.61-6.43-12.24-11.42-15.6-11.63c-0.82,2.45,0.31,5.3-1.73,7.75c-5-11.82-25.98-29.79-35.7-47.63   c-3.67-6.73-8.68-12.54-12.34-19.28c-12.36-22.76-2.3-3.92-30.7-50.58c-8.8-14.46-16.72-22.46-22.44-35.9   c-5.37-12.64-11.39-15.68-13.97-24.37c-0.68-2.28-1.52-3.98-7.75-12.95c-9.62-13.85-18.48-9.66-22.64-10.81   c-5.73-1.58-10.93,0.18-15.2,3.57c-8.4,6.68-17.34,12.64-25.29,19.99c-34.6,32-50.22,55.85-58.34,65.58   c-16.76,20.08-16.67,30.19-25.9,39.77c-25.3,26.25-12.71,15.19-27.54,29.37c-7.79,7.45-20.01,7.59-19.38,12.85   c1.94-0.1,2.96-1.84,4.69-1.63c0.92,0.41-0.1,1.84,1.12,2.14c1.53-0.61,0.92-2.35,1.73-3.37c1.02-0.82,2.24,0.61,3.37-0.41   c0.92-0.71,1.94-1.43,3.26-1.22c0.85-3.1,7.44-4.03,19.38-18.97c8.98-11.23,16.4-15.15,27.74-34.57   c10.97-18.79,7.77-12.52,10.76-14.72c0.69-0.51,10.01-18.47,27.28-37.4c7.83-8.59,16.28-16.44,33.96-35.08   c6.05-6.38,24.49-19.97,29.37-21.93c9.01-3.6,6.28-2.76,17.24-1.12c2.85,0.43,5.31,1.63,7.34,3.88c3.78,4.17,7.34,8.57,10.3,13.77   c-6.02,0.71-0.57-9.9-31.72,1.33c-24.15,8.71-88.49,84.95-90.05,87.61c-5.64,9.59-6.33,8.17-9.38,11.22   c-6.53,8.97-15.09,16.11-22.13,24.68c-1.53,1.86-14.54,16.78-18.56,18.56c-2.84,1.26-5.51,2.86-7.65,3.98   c-2.35,0.31-2.04-1.94-3.47-1.84c0,0.26,0,2.02,0,2.24c-5,1.53-6.63,4.39-5.3,9.18c1.43-2.24,0.71-5.3,3.47-7.14   c1.71,1.35,7.28-1.99,12.03-3.57c11.86-3.93,20.98-19.87,26.31-23.86c1.05,8.11,40.93,56.27,62.42,64.86   c0.1,0.1,0.2,0.51,0.41,0.92c-0.51,0.92-1.12,2.04-1.53,2.86c1.53,3.16-0.08,5.82-1.22,8.26c-8.55,18.29-14.24,33.23-31.92,34.47   c-28.26,1.99-57.44-1.36-73.63-6.22c-4.34-5.7-5.05-26.5-6.83-43.75c-1.5-14.52,1.56-8.27-0.2-33.96   c-9.68-1.38-12.8-2.7-18.77-1.12c-3.27,0.87-7.47-2.94-20.3-4.9c-5.2-0.79-10.4-0.21-15.6-1.22c-3.16-0.62-6.32-1.35-9.59-1.63   c-1.32-0.11-2.86,0.52-4.18-0.41c-1.74-1.22-3.77-1.73-5.51-2.24c-4.53-4.12,2.12-5.47-10.3-21.11   c-10.16-12.79-23.18-10.59-28.45-11.42c-6.2-0.98-10.69,1.75-19.89,5.51c-10.4-2.55-19.89,0.41-29.27-0.31   c-0.1-1.02,0-1.84-0.31-2.45c-6.65-16.86-2.14-21.88-2.14-24.27c0-6.09,4.51-4.1,7.85-14.79c2.94-9.38-1.9-9.61-7.44-11.83   c-0.41-3.06-2.75-4.08-5.92-3.98c0.1-5.2-5.41-3.67-7.24-6.32c0-5.71-0.1-5.92-4.49-8.16c-4.79,0.51-9.48,0.61-13.87-1.43   c-0.41-1.22,0.71-2.45-0.31-3.37c-1.33,0-0.92,2.04-2.55,1.73c-2.48-10.26-13.09-10.63-29.47-12.75   c-11.64-1.51-18.13,6.23-23.05,10.4c-9.93,8.43-22.95,25.47-20.7,37.43c0.71,3.77,1.53,7.65,0.51,11.63   c0.41,0.82,1.63,1.22,1.73,2.65c-5.2,5.2-5.79,17.71-6.02,24.07c-0.64,18.01,6.41,37.72,8.38,38.32c0.3-1.68-8.02-19.75-6.14-39.13   c3.37,16.32,5.92,23.97,9.28,26.92c0-4.52-4.21-10.41-2.65-16.83c11.86,47.44,16.57,43.54,11.63,66.29   c-1.02-13.67-1.94-27.33-8.16-39.98c3.16,12.95,4.9,26.01,2.65,39.26c-0.57-5.93,0.25-23.99-2.45-27.64   c-2.71,44.25,1.58,35.67-6.12-2.04c-1.64-8.05-1.63-8.06-3.47-9.59c0,3.37,1.33,6.22,1.73,9.28c5.91,44.62,7.71,47.18,3.47,57.52   c-3.85,9.37-5.4,10.98-2.55,11.93c2.93-0.88,3.94-5.66,5.2-6.43c3.27-1.97,3.53-4.66,8.16-17.13c6.27-16.9,2.77-16.62,5.41-17.34   c-0.81,12.58-0.58,12.07-2.96,18.87c-0.96,2.74-3.26,5.1-3.06,8.36c1.02,0.1,1.42-0.21,1.73-0.82   c9.97-19.06,20.1-32.19,12.95-53.64c-4.42-13.25-7.09-14.79-5-17.24c-8.01-15.54-9.5-28.16-12.75-33.25   c-0.59-0.93-0.71-2.45,0.41-3.88c2.07,2.15,9.49,9.68,12.46,9.09c0.75,6.67,5.48,11.26,9.16,16.31c3.95,5.43,9.59,8.87,15.71,11.32   c1.63,5.51,4.99,9.69,8.97,13.16c24.53,21.32,33.36,38.86,45.69,47.73c1.84,1.32,3.48,2.85,4.9,4.59   c10.95,13.49,27.73,15.5,36.31,18.56c21.02,7.51,30.09,4.19,37.22,5.92c11.54,2.8,19.52-2.15,25.29-1.73   c17.21,1.24,22.31-2.33,25.5,2.35c10.61-0.1,21.11-1.73,32.13,0c-0.1,1.84,1.73,1.83,3.37,2.14c23.23,4.38,13.99,4.78,48.65,7.85   c12.85,1.14,25.7,0.71,38.55-0.71c13.89-1.54,23.47-19.85,29.47-32.64c4.96-10.55,2.8-14.34,6.83-21.72   c3.08-5.63,50.51-83.18,51.2-84.65c2.87-6.11,8.36-9.89,11.93-15.71c2.75,6.02,4.57,11.74,7.75,16.83   c5.84,9.35,16.19,23.99,25.7,29.68c13.73,8.22,24.58,19.79,36.2,30.19c-1.22,7.04-2.8,13.54-6.02,19.68   c-5.6,10.71,0.78,15.28-4.49,21.32c-4.48,5.13-5.08,6.08-4.49,7.85c26.94,16.77,29.86,7.92,36.61,10.81   c1.02,8.26-4.39,13.97-6.83,20.19c1.93,9.64,17.94,12.43,27.43,12.54c20.33,0.25,39.19-5.39,68.84-1.22   c8.46,1.19,16.18,1.07,39.47-9.69c3.77-1.74,6.53-4.59,8.87-8.06C836.55,559.4,833.01,559.91,815.26,559.91z M180.91,381.23   c-2.26,1.57-4.56,3.09-7.14,4.79C174.77,383.41,177.23,381.43,180.91,381.23z M194.08,380.95c-0.04,1.06,0,0.47-1.03,1.92   c-4.61-1.81-7.42,2.41-12.23,3.08C185.31,382.99,189.28,380.85,194.08,380.95z M180.81,389.29c-0.51,0.2-0.71,0.92-1.43,0.71   C179.69,389.49,179.89,388.78,180.81,389.29z M171.43,386.64c0.31,1.25,1.04,0.28-3.77,4.79   C168.47,389.09,170.3,388.37,171.43,386.64z M168.67,393.78c-2.86,3.98-5.71,7.95-8.46,11.83   C161.84,400.81,164.7,396.84,168.67,393.78z M166.53,401.22c0.14,2.14-1.36,2.82-1.14,1.74   C165.49,402.45,166.15,402.06,166.53,401.22z M152.47,445.84c-0.22,0.28,0.02-0.41-0.32,5.36c-0.08-1.66-0.73-3.39,0.19-5.2   c0.21-3.51,1.44-6.86,2.86-10.1c1.12,0.61,0.82,1.53,1.22,2.55C154.67,440.37,154.25,443.59,152.47,445.84z M157.15,412.95   c0.92-1.22,1.84-2.55,2.86-4.08c1.33,1.53,0.2,3.16,0.92,4.59c9.02-7.47,0.46-9.28,28.56-27.53c1.79,1.51-0.14,1.66-4.79,4.49   c-2.66,1.62-4.89,3.88-7.44,5.71c-1.89,1.35-2.52,3.59-3.98,5.21c-1.66,1.85-2.11,0.55-0.31,2.35c-4.79,5.41-10.4,10.1-15.2,16.62   C156.84,417.44,157.05,415.3,157.15,412.95z M179.68,396.08c-0.15,1.59-2.11,1.93-2.11,3.38c-0.39-0.1-0.79-0.29-1.45-0.48   C177.8,396.96,179.68,395.85,179.68,396.08z M166.23,473.02c0.1,0.4,0.23,0.61,0.82,0.61c-0.34-5.84-2.49-9.01-1.63-16.73   c1.1,4.66,12.07,38.67,13.77,51.2c2.15,15.84-4.28,27.36-4.28,26.72c0-11.13,1.36-41.2-5.92-50.89c1.12,6.02,2.86,11.83,3.26,18.26   c-1.5-1.5-1.55-3.33-2.04-4.9c-7.33-23.54-10.4-27.43-10.4-53.13C163.79,446.15,161.02,445.94,166.23,473.02z M165.91,442.31   c-5.24-2.88,4.87-3.84,7.35-7.43c-0.47-3.43-3.68,1.79-10.21,3.26c-1.18-1.27,0.07-1.8,0.29-2.57c0,0,3.4-0.75,4.44-2.81   c0-0.1,1.71-0.11,1.82-0.11c0.19,1.09,0.97,0.72,1.67,0.71c0.2,0,0.05-0.26,0.67-1.53c-1.28,0-1.13-0.34-1.69,0.21   c0.66-0.66,1.09-1.29,0.58-1.94c-0.21,0.12-3.07,1.47-3.07,2.44c-0.11,0.33-2.37-0.16-4.36,2.67c-0.08,0.16,0.15,0.01-2.75,0.8   c-1.61-3.62-1.77-7.56-2.43-11.86c-0.02-0.1,10.88-15.18,17.01-20.16c-1.49-1.91,2.19-2.73,2.43-4.38c0.1,0.03,1.01,0.08,1.45,0.19   c-4.6,4.94-3.99,4.35-3.36,4.14c2.84-0.78,6.09-5.74,5.85-3.93c-0.27,2.09-4.52,5.4-6.18,6.81c0.82,0.61,1.33,0.92,2.04,1.33   c-9.96,9.63-18.14,16.24-17.34,19.99c0.26,0.88,0.74,1.64,1.63,1.43c7.17-9.6,20.13-22.46,20.56-21.4   c0.42,1.03-0.57,1.68-0.57,2.43c0.41,0.92,2.04,1.02,1.33,2.65c2.99-4.27,5.81-8.32,6.12-13.67c-0.87,0-1.55,0.09-1.84,0.92   c-0.82,2.44-2.95,3.27-5,5.61c-1.09-2.93,2.86-2.62,3.37-7.85c0.32-3.28,2.41-5.89,5.3-7.34c0.6-0.89-0.3-3.06,0-4.69   c1.13-1.53,3.06-2.15,4.9-3.26c-0.7-2.1,1.93-4.69,1.84-7.24c0.62-0.52,2.27-0.8,2.86-1.73c3.67,0,14.15,4.5,20.81,5   c2.55,1.63,1.43,3.88,2.04,5.71c3.48,4.84,12.32,5.55,18.26,5.2c1.43-0.08,2.65-0.1,3.77,1.02c0.09,1.31,0.09,2.46-0.86,3.41   c-0.79,0.79-3.5,1.8-1.39,5.47c1.65,0.09,1.24-1.66,2.23-2.45c1.84,0.82,3.47,3.06,5.81,1.43c3.16,5.1-2.55,7.34-2.96,11.12   c2.91-0.77,3.02-0.71,5.3-5.3c1.31-1.05,2.44-1.28,3.47-1.12c1.84,1.02,0.41,3.47,2.14,4.39c5,1.67,9.25,0.86,6.02,9.28   c-1.02,2.65-2.45,5-4.39,7.14c-2.96,3.26-4.79,7.44-7.95,11.01c1.63,0.41,2.14-1.22,3.37-1.12c-2.18,7.57,0.07,14.79,2.24,23.46   c-4.49,1.53-8.77,1.94-12.65,4.18c-3.57-4.69-6.83-9.48-12.75-12.75c6.04-3.02,7.94-5.1,14.99-12.15c-2.98,0-10.48,7.66-16.02,9.48   c-3.57-1.73-6.73-4.28-9.89-6.73c-1.11-0.99-3.71-8.84-3.98-9.89c-2.91-11.38-15.5-6.53-15.5-17.75c-0.41-1.12-1.02-0.71-1.94-0.71   c-0.71-1.84-2.75-3.26-1.84-5.61c-3.74-2.91-5.89-6.62-10.2-8.77c-0.76,1.18,0.32,1.98,0.51,2.55c1.43,0.1,2.14,1.02,2.96,2.45   c-3.57,3.06-3.88,7.85-5.71,12.14c-6.19,2.4-6.15,6.44-8.06,8.36c-5.33,5.38-5.81,7.65-2.55,14.38   C173.35,440.07,169.48,441.09,165.91,442.31z M197.64,415.3c-1.02-0.56-1.02-1.07,0-1.63C198.21,414.33,198.18,414.75,197.64,415.3   z M191.72,411.83c0.52-2.88-0.41-6.12,2.14-8.67C195.19,406.63,193.76,409.28,191.72,411.83z M174.49,440.38   c4.89,6.7,3.69,6.71-1.6,8.56c-0.81,0-4.6-3.58-4.7-3.58C166.08,443.34,165.65,444.44,174.49,440.38z M178.09,457.48   c-0.08-1.66-1.64-2.25-2.26-2.78c-0.71-0.61-0.39-0.99-0.86-1.1c-1.39-0.18-2.08-1.24-2.83-2.41c1.38,0.3,2.47,1,3.1,2.25   c0.12,0.18,1.21,0.56,2.07,1.09C178.49,455.25,178.49,455.83,178.09,457.48z M175.61,451.09c1.02-0.92,2.04-1.63,3.37-2.04   C178.66,452.42,178.56,452.42,175.61,451.09z M254.44,538.29c-3.83-1.35-14.19-13.12-15.21-16.25c-1.09-3.36,2.04-3.59,0.91-4.17   c-9.68-4.94-16.59-15.45-21.79-17.42c-0.31-0.2-0.82-0.51-1.02-0.82c-3.11-4.76-7.84-8.16-10.61-13.16   c-5.21-9.42-9.66-3.44-22.54-20.4c-1.92-2.53-3.17-5.77-2.55-8.97c0.94-4.89-0.01-8.22,3.26-11.32c2.84-2.7,5.31-9.15,4.38-13.31   c-0.59-2.64-2.19-5.03-3.56-7.7c-1.73,2.24,0.1,4.39-1.02,6.43c-1.63-1.52-0.81-4.39-3.06-5.42c-1.04,1.94-1.36,2.6,2.24,8.36   c-0.31,2.75-1.63,5.2-2.75,8.57c-0.99-2.97,0.8-4.71-0.1-6.73c-1.02-0.92-1.33,0.71-2.24,0.71c-0.51-1.12-1.12-2.24-1.43-2.75   c0-6.04,2.08-8.31,5.2-13.56c5.16-4.3,12.54-2.09,20.6,0c1.44,0.37,2.76,0.91,3.77,2.24c1.37,1.8,5.62,4.54,6.22,6.32   c1.9,5.66,5.51,10.61,7.34,16.62c5.4-1.31,8.01,4.03,9.38,5c6.44,4.53,10.25,11.48,14.99,17.64c1.83,2.38,1.78,3.58,2.25,5.19   c1.25,4.24,4.28,7.33,6.92,10.82c1.15,1.51,2.96,1.53,5.2,2.04c-0.99-3.63-4.91-6.53-6.12-10.2c-1.21-3.68-3.16-7.04-4.9-10.81   c0.71-0.2,1.12-0.41,1.33,0.1c6.34,4.8,13.41-0.25,30.29,12.03c5.24,3.81,8.04,9.56,8.46,15.71c1.37,20-0.28,22.89-12.75,39.26   C272.12,536.89,259.74,540.15,254.44,538.29z M281.37,559.4c-3.54-2-2.82-1.98-4.89-4.18c-4.72-0.73-9.15-5-9.28-6.02   c-0.42-3.3-5.15-4.51-3.97-4.51c6.76-1.54,5.68-1.17,6.19-2.62c1.64-4.62,2.05,2.31,18.37-18.78c10.27-13.26,3.58-31.5,1.73-42.73   c-1.87-11.38-21.46-14.4-32.94-16.62c9.53-0.88,38.85-2.64,48.65-5.61c6.28-1.9,20.05,2.71,26.01,5.51   c6.94,3.26,11.44,12.96,14.07,19.99c0.47,1.27,0.32,2.59,0.31,3.88c0,0.32,5.61,4.05,12.2,4.49c0.35,0-2.21,2.42-12.71,35.9   c-0.59,1.1,0.67,0.83,1.1,1.7c0.1,0.1-6.8,21.45-18.34,40.93C311.96,569.4,296.26,566.03,281.37,559.4z M414.99,569.36   c-1.41,0.06-10.04,1.36-16.65,1.36c-11.57,0.64-9.63-1.17-13.22-1.41c-0.03,0-6.52,0.51-9.52,0.51   c-7.28,0.01-11.07-0.59-16.05-0.63c-40.34-0.31-25.27,11.6-13.22-28.63c0-1.4,5.37-12.91,6.74-19.41   c4.43-21.04,6.15-21.04,8.67-29.47c9.8,5.52,19.49,1.09,37.91,8.56c0.17,0,2.34,1.09,4.81,1.07c2.63-0.02,3.08-0.96,6.06-1.31   c5.01-0.58,2.83,1.23,11.91,0.87c1.65,11.52,1.51,17.9,0.58,25.24c-1.71,13.54-0.77,33.22,5.52,48.39   C426.35,577.04,427.8,568.85,414.99,569.36z M783.23,538.7c7.29-0.63,8.62,1.48,14.38,3.88c5.36,10-0.67,9.99-4.68,12.44   c-9.48-6.83-19.17-12.95-30.49-17.64C766.29,535.25,768.55,539.96,783.23,538.7z M618.33,443.14c-4.82-7.74-6.8-16.52-7.45-25.6   c-0.34-4.79,0.41-8.77,4.08-12.14c-0.38-1.11-1.59-4.39-1.73-4.69c-2.04,1.22-0.1,2.24-0.41,3.26   c-7.85,3.47-9.18,11.63-13.16,18.05c3.52-1.76,4.32-5.53,7.85-7.14c0,8.18-0.17,9.8,0.61,12.34c-1.33,1.63-2.45,3.15-3.88,4.49   c-5.94,5.58-9.58,12.85-14.07,19.48c-5.19,7.65-10.84,15.08-15.2,23.25c-17.67,33.18-20.72,30.21-34.37,57.21   c-10.24-2.12-58.48-56.24-61.6-61.49c7.27-10.8,19.66-22.3,24.37-28.66c12.03-16.21,54.63-65.02,79.55-82.3   c9.66-6.7,9.09-10.08,30.8-12.03c4.98-0.45,6.43,4.84,11.62,5.71c0.48,0.08,0.97,0.87,1.22,1.33   c6.99,12.69,11.59,16.14,13.36,22.17c1.35,4.6,2.2,3.68,1.16,3.95c-0.87,0.22-1.53,0.4-2.39,0.4c1.28,1.85,5.34,2.49,5.61,7.44   c0.19,3.56,2.77,2.67,18.77,29.37c10.15,16.94,19.35,26.58,24.38,39.16c1.74,4.36,33.21,51.61,54.37,72.69   c2.61,2.6,1.39,1.93,5.4,16.14c-1.73,2.75-3.06,5.96-6.93,6.22c-4.84,0.33-5.61,1.79-11.12-0.41c3.47-2.14,7.45-1.33,10.4-3.88   c-2.22-4.27-5.72-1.23-8.97-2.04c-1.73-1.02-3.26-3.57-6.12-4.49c0.41,2.45,2.55,3.98,3.16,6.53c-4.64,0.64-3.43-7.95-16.52-7.95   c-8.89-8.89-9.6-14.47-26.07-31.02C645.78,469.01,642.3,481.64,618.33,443.14z M685.23,563.48c-7.39-3.56-14.71-5.54-17.64-8.46   c4.66-5.9,7.28-8.5,6.43-13.67c-2.09-12.68,6.4-17.37,5.51-27.64c0-2.35,3.6-1.8,3.84-1.44c7.13,9.14,15.96,16.87,22.47,26.53   c0.92,8.46-0.2,16.62-4.69,24.37C700.78,563.19,686.14,563.84,685.23,563.48z M800.57,594.69c-6.64,1.73-10.21-0.84-29.47-1.53   c-14.33-0.51-39.67,2.02-52.83,2.55c-10.43,0.42-21.16-5.62-20.86-8.18c0.16-1.39,0.66-2.6,2-4.06c5.14-5.61,1.04-7.48,8.77-28.86   c1.2-3.31,1.11-6.66,1.94-10.1c3.27-1.23,5.29-3.48,8.97,0.2c8.54,8.54,8.71,11.09,13.97,10.91c9.85-0.34,18.36-5.78,19-9.58   c0.33-1.94-4.11-12.09-4.31-12.55c-1.18-2.68-1.35-5.22,0.31-7.65c12.58,7.49,9.99,13,18.87,17.44c6.24,3.12,0.06,5.86,0.7,12.95   c4.69-1.02,4.59-5.1,6.02-8.36c1.73,0.51,2.96,1.63,4.39,2.45c0,3.03-3.83,5.28-1.63,8.67c4.08,0.2,4.18-3.67,6.02-5.92   c6.55,4.17,6.35,4.11,6.48,5.2c0.11,0.95-0.21,1.86,0.46,2.45c1.84,0.61,2.55-1.33,4.28-1.63c0.82,0.1,2.04,0.2,2.75,0.31   c1.33,0.61,0.51,1.94,1.53,2.35c1.22,0.1,0.82-1.43,2.24-1.94c2.04-0.41,4.08,0.2,5.1,2.86c1.73,0.41,2.75-1.12,4.49-0.41   c10.08,4.12,19.25-3.66,24.17,8.26c0.2,1.66,1.29,10.26,1.19,10.45C832.16,585.82,808.06,592.74,800.57,594.69z"/>
	<path d="M158.17,495.66l0.1-0.1C158.14,495.52,158.21,495.5,158.17,495.66z"/>
	<path d="M149.81,277.11c1.02-0.31,1.22-1.22,1.12-2.14c-0.22-2.04-1.63-3.47-3.06-4.79c-13.44-12.46-34.87-12.61-46.81-13.56   c-4.46-0.36-19.43,6.48-31.11-2.04c0.61-0.41,1.43-0.2,1.53-0.92c-3.24-3.51-7.11-6.39-4.79-11.01c1.22-2.45,4.28-4.18,7.44-4.18   c-0.51,0.51-0.92,0.91-1.43,1.22c-10.3,6.38,0.39,18.73,14.89,15.71c-6.6-0.79-13.49-2.11-15.3-8.06c-0.74-2.44-0.61-2.96,1.63-5   c-1.12,4.08-0.92,5.81,4.28,8.87c3.43-2.21,14.75,1.5,17.13,2.04c23.05,5.2,28.12,2.18,30.87,3.56c3.59,4.63,7.17,1.94,21.55,9.71   c16.35,8.83,16.88,13.59,18.87,10.61c-4.1-5.23-14.31-11.01-22.84-16.42c9.1,0.57,13.13,4.22,12.65,4.39   c0.61,1.33,1.53,2.35,2.75,3.06c-0.1-1.56-0.76-2.66-2.08-3.38c1.49-0.53-0.72-0.79-0.06-2.23c4.44,0.92,20.94,4.6,22.54,8.87   c1.12-0.2,1.84-0.41,1.84-1.63c-2.96-4.52-12.41-6.32-16.11-8.87c9.69-0.31,17.75,5.2,26.82,4.39c4.97,2.88,9.18,2.24,34.57,0.41   c6.96-0.5,39.75,0.97,62.52-7.44c13.19-4.87,8.8-2.06,27.23-4.9c8.05-1.24,15.51-4.74,23.56-5.51c6.02-0.57,11.73-2.38,17.85-1.84   c35.99,3.18,34.12-0.65,52.32,2.86c18.82,3.62,40.35,10.29,76.59,11.12c8.77,0.2,17.24-1.41,25.9-1.84   c5.65-0.28,25.16-21.74,29.68-46.1c2.21-11.89,16.69-28.39,32.13-57.21c6.28-11.73,19.34-30.72,21.01-33.96   c1.94-3.77,3.98-7.34,7.14-10.2c2.14-1.94,3.37-4.79,5.92-6.73c10.07,26.12,25.89,42.45,38.04,49.26   c7.64,4.29,25.49,21.98,31.31,27.03c-2.62,18.85-10.38,22.53-8.36,32.74c1.78,9.01-8.32,11.99-6.83,16.22   c27.08,16.67,29.61,8.3,36.71,10.91c1.02,8.06-4.18,13.97-6.83,20.09c0.61,3.77,2.77,5.89,5.41,7.45   c13.34,7.87,27.66,5.39,51.81,3.26c47.37-4.16,36.95,9.87,77.41-8.36c4.08-1.84,7.14-4.69,9.79-8.26c0-5-0.83-9.89-2.24-14.58   c-2.43-8.11-11.96-6.73-20.3-6.73c-2.45-3.67-6.63-2.75-10.2-3.67c0.41-1.02,0.82-1.84,1.22-2.75c-3.8-6.97-2.53-7.36-4.18-9.48   c-11.86-15.23-16.09-5.49-40.79-11.32c-6.63-6.94-11.73-10.91-15.81-12.03c-0.61,2.55,0.2,5.61-1.84,8.26   c-2.5-6.51-16.92-23.14-21.42-27.74c-10.86-11.11-54.95-87.76-65.68-102.5c-16.32-22.42-12.36-24.37-23.25-38.55   c-5.3-6.9-3.14-8.39-7.85-14.99c-4.25-5.95-9.16-16.71-20.19-17.34c-11.96-0.68-11.29-1.61-16.83,0.31   c-3.61,1.25-20.34,12.74-36.51,28.05c-29.52,27.95-42.23,47.93-52.62,60.38c-16.6,19.88-16.11,29.65-25.5,39.37   c-5.61,5.81-11.51,11.23-16.52,17.64c-7.02,8.99-15.1,16.71-26.21,20.19c-2.59,0.81-5.94,2.86-3.77,4.49   c1.43-0.2,2.45-1.94,4.18-1.53c0.51,0.71,0.1,1.63,0.82,2.04c1.43-0.61,1.12-2.35,2.14-3.77c2.42,1.84,3.84-1.26,6.06-1.43   c0.65-0.05,0.18-0.13,0.68-0.8c0.69-0.91,4.46-2.72,11.19-9.32c7.98-7.84,7.37-9.19,17.87-19.76   c11.2-11.28,15.37-20.44,25.31-36.58c0.75-1,1.31-0.56,2.1-0.6c0.84,0,11.26-21.11,30.92-41.24   c39.83-40.79,31.83-33.96,46.41-44.67c18.54-13.62,11.32-7.02,21.21-11.83c13.57,2.12,15.14,0.42,27.64,19.38   c-4.11,0.71-3.43-4.91-12.75-3.77c-23.93,2.93-38.71,16.76-56.06,34.13c-6.8,6.82-48,49.92-53.06,58.26   c-4.59,7.56-37.49,41.55-46.1,51.91c-1.48,1.78-9.25,5.47-12.44,7.24c-1.84,0-1.43-2.04-2.75-2.24c-0.03,0.22-0.12,1.93-0.2,2.55   c-4.69,1.22-6.22,3.67-5.41,9.08c1.73-2.14,0.82-5.3,3.47-7.04c2.33,0.93,3.72-0.68,12.14-3.67c9.99-3.55,19.64-16.67,26.52-24.58   c0.19,6.65,11.93,18.32,22.44,31.41c11.26,14.04,24.68,25.5,40.18,34.37c0,1.43-1.62,2.34-1.33,3.37   c1.28,4.47-1.23,8.05-2.96,11.73c-7.36,15.66-13.42,29.88-30.09,30.9c-23.17,1.42-53.38,0.27-74.14-6.32   c-5.2-10.98-4.87-35.29-6.73-46.61c-1.13-6.88,2.21-13.89-0.1-30.8c-0.82-0.92-1.43-0.62-2.04-0.61   c-16.01,0.16-8.77-1.08-27.43-3.67c-23.18-3.22-9.2-6.2-37.94-11.42c-15.34-2.79-12.64,0.22-27.64-1.84   c-0.82-0.2-1.73-0.41-2.45,0.41c-0.61,0.82-0.09,1.73,0,2.55c3.05,27.46,0.55,20.58,1.84,37.53c3.76,49.58-3.39,46.53,0.41,53.03   c-3.18,0.77-15.39,3.83-19.38,3.37c-12.1-1.41-20.28,5.65-31,5.3c5.71-3.67,6.84-4.59,8.26-8.06c6.05-14.81-0.36-19.53-1.73-23.86   c-7.28-22.99-30.35-34.15-44.57-30.29c-2.52,0.68-13.46-1.5-29.78,10.71c-16.33,12.22-16.27,18.92-19.28,15.91   c4.89-8.56,18.19-21.28,26.72-33.45c8.63-12.31,13.19-15.3,16.62-19.89c7.22-9.62,14.47-19.75,25.39-22.03   c31.7-6.61,35.36,6.1,40.9,12.75c8.16,0.71,16.11,0.51,23.66-3.37c-7.55-1.02-15.09,1.33-23.05-0.1   c-1.53-5.92-6.23-9.27-11.22-12.44c-12.28-7.79-23.41-1.7-26.21-1.43c-17.54,1.72-18.14,13.67-32.13,22.03   c-13.87,8.29-15.23,15.12-24.07,15.3c-2.68,0.05-2.34,3.59-19.17,3.88c-0.92,0.02-2.15,0.21-2.65-0.2   c-3.59-2.94-8.27-0.24-15.2-2.65c0-2.35-0.51-4.69,0.1-6.73c1.02-3.37,0.64-6.43-0.1-9.69c-1.76-7.67-4.59-9.18-12.65-6.63   c-1.84-2.75-4.28-2.45-6.73-0.51c-1.22-0.71-1.84-2.13-3.77-2.35c-1.73-0.19-3.77,1.63-6.02,0.61c-2.96-4.79-3.37-5.1-8.16-4.59   c-3.47,2.96-7.55,5.2-12.03,5.92c-1.43-0.41-1.12-2.24-2.55-2.45c-0.82,0.61,0,1.73-0.92,2.65c-4.59-4.49-10-4.7-15.6-2.45   c-15.54,6.25-25.03,7.83-29.27,23.66c-1.56,5.81-3.59,11.32-4.39,17.34c-0.95,7.22-1.09,23.71,4.08,28.56   c2.74,2.57,4.39,5.92,6.63,8.77c-1.62,3.57-7.56,3.56-11.83,6.32c-3.54,2.29-6.14,6.74-4.9,9.79c1.3,3.17,2.65,6.63,5.1,9.08   c4.59,4.59,10.3,7.09,16.93,7.14c16.85,0.13,15.85-5.26,31-2.65C128.49,262.53,140.93,266.09,149.81,277.11z M678.71,234.48   c-8.13-2.86-11.95-5.41-12.54-5.71c1.62-2.14,3.06-4.17,4.58-6.12c5.34-6.85-1.72-9.15,4.39-22.74c4.5-10.02,2.45-10.59,3.58-13.97   c1.22-0.92,2.35-0.61,3.47-0.31c7.14,9.18,16.01,16.93,22.44,26.41c1.33,8.59-0.34,16.71-4.39,24.48   C678.14,237.46,686.44,237.2,678.71,234.48z M766.41,210.92c10.35,2.33,14.41,0.91,18.31,1c5.02,0.12,6.36,1.82,11.68,4.1   c5.01,10.09-0.89,10-4.69,12.42c-0.6-0.3-11.83-9.15-30.39-17.75C763.66,209.69,764.99,210.6,766.41,210.92z M746.52,199.49   c12.26,7.09,7.86,10.63,21.52,19.17c0.61,3.86-2.45,7.18-1.73,11.22c4.69-0.92,4.49-5.2,6.02-8.26c9.35,2.75-0.4,5.63,2.55,10.91   c4.18,0.41,4.28-3.47,6.12-5.81c7.75,4.93,6.65,3.85,6.53,6.73c-0.01,0.29,0.03,0.56,0.21,0.83c1.94,0.92,2.65-1.02,4.28-1.63   c3.94,0.79,3.49-0.39,4.39,2.65c1.53,0.41,1.22-1.55,2.24-1.73c2.54-0.46,4.49,0.31,5.41,2.65c1.63,0.51,2.85-1,4.49-0.31   c3.75,1.58,7.85,1.25,11.93,1.22c7.45-0.05,7.44-0.1,12.14,5.92c0.41,3.84,0.81,7.79,1.21,11.64c0,1.51-13.21,7.9-34.16,13.55   c-3.99,1.08-8.26,0.54-12.44,0c-28.05-3.6-48.03,0.5-69.25,1.12c-10.79,0.32-20.86-5.38-21.72-7.75c0-1.49,0.36-2.86,2.04-4.69   c5.1-5.57,1.73-8.63,7.44-25.09c3.43-9.89,2.23-13.36,3.67-14.07c10.74-6.24,12.49,12.96,23.76,11.63   c7.42-0.88,19.15-4.98,17.13-12.14C747.76,208.18,743.19,204.96,746.52,199.49z M477.68,143.5c10.15-13.43,24.26-27.87,24.89-28.76   c6.83-10.81,16.23-19.46,24.58-29.07c15.55-17.89,36.44-40.68,56.09-54.05c6.82-4.09,4.04-8.02,29.37-11.01   c0.9-0.3,3.39,0.38,4.08,1.22c2.48,3.03,7.35,3.06,9.18,6.53c4.55,8.63,10.72,14.06,14.28,25.19c-0.71,0.2-1.53,0.51-2.45,0.71   c1.53,1.73,3.77,2.14,5.1,4.49c0.1,3.06,1.76,5.89,3.77,8.46c10.27,13.14,12.32,20.22,28.35,43.04   c12.42,17.68,10.23,19.17,13.67,24.07c23.8,33.89,16.08,24.84,49.06,65.68c1.63,2.01,4.86,3.1,5.3,6.32   c0.59,4.29,2.24,8.36,3.16,12.75c-1.53,2.35-2.55,5-5.71,5.92c-3.57,1.04-8.52,1.5-11.83-0.2c2.86-2.45,7.44-0.92,9.99-4.08   c-2.33-4.18-5.86-0.83-9.39-2.14c-0.1-0.07-6.59-5.72-6.19-4.52c3.75,7.23,3.94,6.86,3.64,6.86c-5.26,0.32-2.78-7.78-16.62-8.06   c-8.82-8.14-9.44-15.78-32.43-37.22c-35.24-32.86-38-23.86-60.27-59.15c-4.62-7.32-6.72-15.6-7.24-24.27   c-0.3-5-0.61-9.79,3.77-13.16c-0.16-0.62-1.39-5.18-1.91-4.83c-1.6,1.3,0.16,2.3-0.23,3.41c-4.97,2.23-12.04,12.32-12.73,18.35   c0,1.21,4.15-5.83,7.53-7.68c0.63-0.42-0.51,7.25,0.51,12.48c-9.82,11.46-5.51,4.8-17.44,23.15c-5.18,7.97-11.06,15.53-15.71,23.97   c-2.42,4.4-4.37,9.09-7.04,13.46c-7.83,12.86-24.2,34.86-27.03,43.96C526.62,200.92,480.55,148.37,477.68,143.5z M376.01,164.61   c10.13,6.03,18.9,5.2,29.98,8.57c4.48,1.36,9.18,2.65,14.38,0.92c0.92,9.79-0.71,19.17-0.92,28.56c-1.53,1.43-3.67,0.61-5.41,1.73   c1.53,2.14,3.98,0.92,6.12,2.04c1.43,13.97,0.71,28.35,7.04,41.51c-1.12,1.12-2.04,0.22-2.96,0c-22.5-5.38-49.68-3.73-58.44-4.9   c-14.82-1.97-30.87,3.58-33.76,2.75c-1.53-2.86-0.71-5.71-0.2-8.46c1.53-1.84,4.18-1.33,5.81-3.26c-1.94-0.61-3.57,0.71-5.41,0   c0.2-2.45,0.31-5,0.51-7.34c1.63-2.14,4.59-2.65,5.81-5.41c-2.24-0.1-3.37,2.45-5.71,1.94c0-8.01,0.39-20.62-0.82-28.15   c-3.55-22.17,0.91-14.66-2.65-37.84C355.7,157.27,374.29,163.59,376.01,164.61z M104.22,252.53c3.37,0,6.32,0,9.28,0   C109.42,254.26,109.01,254.26,104.22,252.53z M115.86,248.38c-0.23-0.23-2.79,1.7-10.03,1.81c-5.58,0.08-11.17-0.98-16.72-0.92   c-1.63-5-1.43-6.02,1.94-8.67c1.6-0.32,2.62,1.05,3.96,1.04c0.62,0,0.85-0.31,0.85-0.19c1.18,1.33,0.5,3.03,1.92,3.95   c0.76-0.38,0.4-2.85,1.11-2.85c1.69,0.28,11.23,1.83,12.62,1.83c2.61,0,1.75-2.15,2.22-1.69c0.66,0.64,1.59,1.25,1.78,2.1   c2.01,5.74,8.48,5.64,13.24,8.15c0.1,0-0.36-0.03-0.46-0.04C123.8,252.5,119,253.25,115.86,248.38z M83.11,197.56   c0-1.43,0.61-2.75,1.53-3.98c1.22,1.22-1.28,3.88-0.2,5.92c0.18-0.53,1.68-4.85,2.75-7.95c1.26,3.77-0.74,5.31-0.41,7.95   c0.79,1.18,1,0.17,1.43,1.02c-5.28,21.13-8.04,27.71-1.84,26.41c0-9.32,3.8-24.33,6.32-29.37c1.23,3.7-1.02,2,2.96,3.77   c0-0.05,0.01-0.09,0.01-0.14c1.29-12.28-2.94-13.27-1.93-13.78c1.17-0.59,2.17,0.17,3.75,0.56c-1.53,4.59,0.61,8.87,1.33,13.46   c-4.37,5.72-1.74,8.77-2.65,11.74c-2.79,9.09,2.16,10.11,5.3,13.26c-0.31,4.01-2.68,6.85-5.61,9.48c-0.7,0.63-1.73,0.31-2.55-0.82   c2.04-2.86,3.98-5.92,4.9-9.48c-3.67,1.84-3.77,6.73-7.45,8.77c-1.33-2.35,0.92-3.67,1.22-5.3c0.5-1.83,2.08-2.37,3.37-2.96   c0.69-1.38-0.33-2.53-1.3-3.24c-0.1-0.1,0.18-0.56-5.77,11.06c-0.36,0.71-5.96-5.81-8.43-9.25   C80.66,215.51,81.78,206.53,83.11,197.56z M82.29,194.19c0.1-2.35,0.71-3.26,1.33-4.28C84.13,191.43,83.13,192.31,82.29,194.19z    M91.06,192.46c1.22,1.94,1.02,3.06-0.41,3.88C90.14,195.11,90.25,194.09,91.06,192.46z M113.52,242.34c-0.48,0,0.51-0.5-4.61-0.83   c-1.53-0.1-2.96-0.1-4.69-1.43C111.85,240.87,113.52,240.57,113.52,242.34z M108.6,238.45c0.5-0.99,1.14-2.04,1.72-2.95   C112.77,235.51,111.81,240.16,108.6,238.45z M105.24,238.45c-2.55-0.41-5.1-0.31-7.85-1.43c1.84-2.55,3.37-4.79,5-7.24   c1.84,1.63,4.59,1.43,5.71,4.18C107.69,235.6,106.26,236.82,105.24,238.45z M126.4,256.71c1.56-3.36,8.53,0.04,14.06,0.08   c0.15,0-0.01-0.19,0.96,1.44C136.11,259.32,129.53,256.62,126.4,256.71z M138.48,255.08c2.61-0.14,8.59-0.18,11.42-1.12   c2.04,3.57,6.53,3.47,10.2,6.53C159.76,260.4,139.88,257.84,138.48,255.08z M193.25,226.52c1.84,0.49,3.37-0.51,5.1-0.92   c-0.2-1.62-4.03-2.6-2.94-3.81c13.37-14.88,17.12-15.24,23.44-18.83c4.13-2.34,8.26-4.79,14.28-2.24   c-2.55-2.81-2.56-2.35-2.03-2.64c5.11-3.35,10.51-2.93,16.1-1.74c11.2,2.37,19.28,9.45,27.12,17.63c0.39,0.41-5.36,5.2-5.9,5.62   c3.67,0.1,6.22-1.12,9.28-2.45c4.04,7.72,11.12,19.39,3.54,30.52c-3.2,4.7-10.05,9.58-16.8,10.37   c-15.18,1.79-34.64,3.16-57.01,3.16c4.52-3.1,10.23-2.09,14.69-5.61c-2.17-0.87-3.65,0.14-5.2,0.82   c-6.64,2.89-10.73,2.36-14.48,4.28c-8.34,4.28-22.98-1.49-29.68-3.06c-26.56-16.43-18.51,0.27-48.55-9.99   c-6.24-2.13-7.14-6.38-10.2-12.65c-1.89-3.88,0.32-5.31-0.2-10.1c-0.8-7.23-4.29-10.96-10.3-13.36c-0.71,2.66,2.55,3.47,2.55,5.92   c-1.91-0.35-4.47-4.35-5.55-3.01c-1.73,1.84,3.71,4.48,6.16,5.76c1.33,3.08,1.53,4.85,1.53,6.83c-2.11-0.5-1.03-3.03-3.26-3.77   c-1.34,2.72-0.07,2.37-3.67,0.2c-3.37-4.49-2.55-9.18-2.75-14.18c1.06-3.12,3.7-6,8.67-7.75c9.74-3.42,11.23-3.92,11.93-3.67   c4.41,1.56,9.4,1.1,13.26,4.79c3.38,3.24,8.16,4.79,11.73,8.26c3.98-3.98,7.49-0.85,16.62,0.41c2.86,0.39,5.21,2.02,7.85,3.06   C189.74,222.69,178.09,222.52,193.25,226.52z M98.91,188.07c3.6,1.98,3.79,5.7,3.16,9.79C101.07,194.03,98.59,191.6,98.91,188.07z    M88.31,162.47c0.61-0.92,1.33-2.04,2.04-3.16c6.63-2.86,13.97-3.37,19.99-6.53c3.23,0.65,2.94,2.47,4.49,3.77   c7.05,4.29,18.86-6.3,21.93-5.81c0.71,1.22,2.13,2.13,0.92,4.39c-1.34,2.5,1.83,4.46,2.04,4.3c1.14-0.82,0.33-1.9,0.71-2.98   c2.04-0.51,4.49,0.1,5.92-2.04c4.98,2.99,1.78,7.14,2.86,11.01c2.35-1.96,2.34-1.95,2.04-7.55c0.44-0.88,1.97-2.54,2.6-2.42   c2.14,0.18,1.46,2.67,4.03,2.56c1.95-0.09,2.32-1.37,4.66-1.39c2.4-0.02,4.29,1.45,4.72,4c0.62,3.67,1.2,7.13,0.31,11.01   c-0.94,4.07-0.31,8.57-0.92,12.85c1.67-0.42,1.66-3.02,2.62-2.83c11.65,1.63,14.15,2.57,20.19,2.6   c13.11,0.06,15.02-2.69,18.17-3.84c13.95-5.12,13.72-11.05,25.09-16.32c-1.14,1.37,5.88-7.75-45.53,54.8   c-0.56,0.56-6.87-4.79-11.18-6.76c2.24-0.31,3.57-0.51,5.61-0.71c-1.51-0.72-2.8-1.29-4.04-1.33c-4.18-0.12,0.79,3.5-11.17-2.14   c-2.76-1.3-5.92-0.41-9.18-1.84c3.48-5.07,4.24-10.99,5.92-17.13c-4.75,4.98-4.17,11.41-8.87,16.32c-4.08,0.4-8.02-0.39-12.44-0.71   c-9.86-7.56-10.57-9.59-15.71-9.59c-18.12,0-9.99,0.56-15.09-4.18c-0.95-0.38-1.1,0.37-1.43,0.92c-1.43-1.84-4.59-1.02-4.59-3.98   c-4.56-0.48-8.99-2.87-13.36-2.14c0.19,1.87,1.74,4.26,0.2,6.94c-2.14-4.69-4.18-8.67-1.12-13.46c-2.49-6.7-5.56-0.75-0.41-8.97   c-0.31-1.43-0.92-2.55-2.04-3.88c-0.1-0.61,1.12-0.92,1.12-1.53C89.63,163.49,88.21,163.59,88.31,162.47z M88.1,169.2   c0.44,1.96-0.35,2.64-2.14,2.24C86.37,170.22,86.88,169.41,88.1,169.2z M83.93,173.08c-0.2,2.55-2.14,3.67-3.06,5.3   C81.31,176.22,82.05,174.56,83.93,173.08z M87.41,174.97c1.33,2.67-2,2.19-6.24,16.16c-0.27,0.9-0.85,1.6-2.04,1.84   C82.55,181.27,87.41,175.17,87.41,174.97z M79.03,169.61c0.1,0.71-0.31,0.92-0.82,1.02C78.11,169.92,78.62,169.82,79.03,169.61z    M76.27,175.53c0.56,1.69,0.45,1.96-3.37,9.59C73.11,181.65,73.72,178.48,76.27,175.53z M76.38,192.76c0,0.1-0.1,0.48-0.1-1.22   C76.41,191.54,76.38,191.35,76.38,192.76z M75.36,203.68c0-8.61-0.09-7.75,0.2-7.75C75.56,204.52,75.65,203.68,75.36,203.68z    M71.07,189.4c0.41,0.71,0.61,1.43-0.1,2.04C70.36,190.72,70.66,190.01,71.07,189.4z M71.8,210.37   c-0.02,2.55-1.63-10.18,0.59-17.42C74.37,186.5,71.93,196.01,71.8,210.37z M73.2,188.86c0.04-0.55,0.16-1.14,0.42-1.81   C74.54,189.43,73.02,191.59,73.2,188.86z M77.29,221.23c-3.82-2.79-4.75-6.09-3.67-10.39c1.33,1.33,0.39,7.31,1.63,1.12   c1.12,1.22,0.2,2.65,1.12,3.88c1.63-6.63,0.92-13.36,1.53-19.58c0.71-1.66,3.06-2.76,3.06-1.33c-0.41,3.57,1.05,7.15-0.31,10.81   C79.27,209.48,78.75,214.69,77.29,221.23z M80.96,232.84c1.33,0.62,2.22,1.87,2.65,3.16c-1.73,0.31-3.47-0.71-5.3-0.41   C79.23,234.68,80.15,233.76,80.96,232.84z M77.19,243.35c2.64-1.95,5.71-2.04,8.87-2.04c0.31-1.94-1.53-1.84-1.53-3.16   c1.53-0.81,2.52,0.3,3.88,1.12c-2.14,2.65-3.06,5.61-1.63,8.97c-3.58,1.19-7.01,0.51-10.2,0.41   C75.05,245.69,75.14,244.86,77.19,243.35z"/>
	<path d="M145.62,499.03c2.97-2.74-1.01-3.04-2.65-19.07c-2.33-22.78-4.44-30.12-0.31-39.88c0.69-1.64,0.82-3.37,0.41-5.1   c1.84-1.43,3.57-2.45,6.12-3.57c-1.43,3.67-2.75,6.63-2.55,9.89c1.63-4.39,3.77-8.57,5.81-13.26c-5.61-0.1-8.97,2.86-12.75,6.12   c0.61,2.65-0.69,4.81-1.94,7.04c-6.44,11.52-3.64,28.8,1.02,41.2c1.82,4.83,0.34,7.5,4.9,20.5c11.3,32.26,7.39,54.89,9.59,53.95   C157.15,543.29,156.03,524.01,145.62,499.03z"/>
	<path d="M438.43,199.19c-0.2-3.67-2.86-13.67-3.88-15.09C432.51,187.05,434.45,194.5,438.43,199.19z"/>
	<path d="M298.19,161.86c-2.47,0,0.45,5.07,3.16,16.11C302.58,171.86,300.95,164.82,298.19,161.86z"/>
	<path d="M436.79,510.96c-1.73-0.41-2.35,0.41-2.14,1.63c0.51,4.69,2.24,8.97,4.9,12.95C439.55,520.44,437,515.85,436.79,510.96z"/>
	<path d="M451.17,543.8c-1.22-5.61-2.24-11.32-6.73-15.71C446.28,533.5,449.44,538.39,451.17,543.8z"/>
	<path d="M448.93,214.79c-0.41-5.2-2.24-9.59-6.12-13.05C444.85,206.02,446.89,210.41,448.93,214.79z"/>
	<path d="M443.12,513.71c-0.51-4.49-1.84-8.87-2.65-13.26C439.14,505.35,440.97,509.53,443.12,513.71z"/>
	<path d="M442.1,186.85c-0.92-4.28-1.84-8.57-2.86-12.85C437.92,178.79,439.45,183.07,442.1,186.85z"/>
	<path d="M448.32,182.26c-2.04-4.9-2.04-4.9-4.59-5.2C444.95,178.79,446.07,180.32,448.32,182.26z"/>
	<path d="M444.75,502.39c1.12,3.06,2.55,4.49,4.39,5.61C448.62,505.86,447.71,504.02,444.75,502.39z"/>
	<path d="M300.13,186.85c1.02-0.92,2.24-1.94,1.22-4.08C300.03,183.99,300.13,185.42,300.13,186.85z"/>
	<path d="M431.08,189.4c-0.82,1.84-0.71,3.47,1.12,4.69C431.8,192.56,431.49,191.03,431.08,189.4z"/>
	<path d="M432.2,514.94c-0.71,2.86-0.61,4.49,1.43,6.63C433.12,519.12,432.82,517.49,432.2,514.94z"/>
	<path d="M159.8,498.41c-1.02-1.43-0.71-2.55-1.94-2.86C157.76,496.48,157.76,497.39,159.8,498.41z"/>
	<path d="M607.01,356.14c3.73,2.65,6.8,1.62,11.01,0.71C614.11,354.73,610.72,353.71,607.01,356.14z"/>
	<path d="M619.96,409.88c1.3,2.06,2.95,3.5,5,4.79C622.86,410.49,622.76,410.21,619.96,409.88z"/>
	<path d="M723.07,539.72c0-2.86-1.73-4.08-3.77-5.1C720,536.55,719.91,539.01,723.07,539.72z"/>
	<path d="M595.38,431c1.28-2.13,2.74-3.04,2.34-5.72C595.38,426.72,594.97,428.25,595.38,431z"/>
	<path d="M632.71,427.94c0.51,2.14,1.43,2.86,2.86,3.57C635.36,429.78,634.75,428.76,632.71,427.94z"/>
	<path d="M639.64,439.06c1.12,1.94,1.73,2.86,3.57,3.26C642.6,440.79,641.89,439.87,639.64,439.06z"/>
	<path d="M716.98,531.96c0.59,0.09,1.2-0.73,0.17-1.51c-0.8-1.01-1.13-0.71-1.63-0.2C715.88,530.96,716.09,531.82,716.98,531.96z"/>
	<path d="M645.86,448.44c0.09,1.06,0.74,1.84,1.72,2.24c0.72-0.51,0.32-1.02-0.09-1.43C647.09,448.75,646.88,447.73,645.86,448.44z"/>
	<path d="M630.06,377.66c0.55,0.88,1.07,1.19,2.14,0.82C631.89,377.05,631.18,376.95,630.06,377.66z"/>
	<path d="M708.7,520.68c1.76-0.19-1.19-3.58-1.44-1.82C707.26,519.79,708.2,520.73,708.7,520.68z"/>
	<path d="M623.12,377.36c0.92,0.51,1.53,0.61,2.04-0.1C624.55,376.24,623.94,375.93,623.12,377.36z"/>
	<path d="M713.58,526.66c-0.41-1.02-0.61-2.04-1.84-1.02C712.05,526.36,712.26,527.07,713.58,526.66z"/>
	<path d="M321.86,494.95c5.81,2.75,10.2,2.04,12.24-2.14C329.81,492.6,326.14,494.84,321.86,494.95z"/>
	<path d="M343.79,489.04c-2.3,0.43-2.15,0-5.41,3.06C341.04,491.39,342.98,491.39,343.79,489.04z"/>
	<path d="M313.7,495.25c1.02,1.33,2.14,1.53,3.88,0.82C316.35,494.44,315.23,494.44,313.7,495.25z"/>
	<path d="M308.49,493.53c0.57,0.38,1.3,1.76,2.55,0.51C310.29,493.59,309.72,492.19,308.49,493.53z"/>
	<path d="M267.09,486.18c1.73,4.9,5.41,6.93,10.4,8.46C275.04,489.44,270.76,485.87,267.09,486.18z"/>
	<path d="M195.8,456.29c-0.35,1.29,0.16,2.28,1.53,2.65c1.33-1.63,1.73-3.47,2.86-5.61C197.23,453.13,196.3,454.46,195.8,456.29z"/>
	<path d="M200.39,451.91c4.59,2.35,4.59,2.35,7.34,0.51C205.08,450.58,202.94,450.38,200.39,451.91z"/>
	<path d="M285.75,500.45c-0.1-3.67-3.53-4.66-4.59-7.14c-0.31-0.72-1.28-0.25-1.94,0.61C281.87,495.46,282.49,498.82,285.75,500.45z   "/>
	<path d="M226.09,457.82c0.71,1.63,1.84,2.86,3.88,4.39C229.46,459.78,228.47,458.32,226.09,457.82z"/>
	<path d="M239.25,471.49c0.37-0.89-0.01-1.51-0.51-2.14C236.58,466.63,236.61,469.12,239.25,471.49z"/>
	<path d="M223.64,456.29c0.75,0.75,1.54,1.63,2.55,1.43C225.78,456.91,225.27,456.19,223.64,456.29z"/>
	<path d="M400.19,502.28c-6.19-0.03-3.7-1.34-27.44-5.19c-1.48-0.34-2.68-0.33-3.16,1.12c1.04,2.29,8.33,1.52,25.19,5.2   C397.32,503.97,400.86,502.28,400.19,502.28z"/>
	<path d="M415.38,520.14c2.14-0.82,5,0.2,6.53-2.65C418.87,516.27,417.39,517.88,415.38,520.14z"/>
	<path d="M406.2,524.93c1.53,0.2,2.65-0.2,4.08-1.53C408.51,522.92,407.45,523.17,406.2,524.93z"/>
	<path d="M411.4,503.92c1.09,0.86,1.89,0.69,3.15,0.1C413.44,502.19,412.52,503.11,411.4,503.92z"/>
	<path d="M400.89,527.28c-0.4,0.31-1.12,0.51-0.61,1.43c1.51,0,2.07-0.41,2.45-1.33C401.91,526.77,401.41,526.88,400.89,527.28z"/>
	<path d="M222.95,399.89c0.71-0.27,1.08,1.1,2.63,0.01c0.41-0.41,1.84-1.02,2.04-2.75c-2.86-0.82-4.49-2.75-4.08-6.73   c-3.95,3.36-3.88,7.25-3.88,13.16C222.32,403.14,222.03,400.8,222.95,399.89z"/>
	<path d="M221.4,389.7c6-6-13.31,0.38-8.06,12.65C213.24,396.12,216.81,392.55,221.4,389.7z"/>
	<path d="M601.7,335.03c3.16,2.55,6.02,2.24,9.59,1.43C608.08,334.6,605.37,334.03,601.7,335.03z"/>
	<path d="M165.92,430.19c2.33-1.04,3.26-2.03,4.17-3.48C168.57,427.23,167.35,428.15,165.92,430.19z"/>
	<path d="M166.4,477.77c0.06-0.65-0.46-0.92-0.99-1.18C166.18,477.61,166.31,478.64,166.4,477.77z"/>
	<path d="M617.1,30.3c-4.17-2.48-9.38-2.46-10.12-2.11c-0.49,0.23-0.88,0.78-1,1.81C609.31,32.28,613.09,31.14,617.1,30.3z"/>
	<path d="M722.25,212.96c-1.02-2.45-2.04-4.18-4.28-4.79C718.96,209.77,718.39,212.76,722.25,212.96z"/>
	<path d="M596.5,99.04c-2.55,0.82-2.35,2.86-2.45,4.69C595.12,102.47,597.06,101.42,596.5,99.04z"/>
	<path d="M623.73,87.71c-1.12-2.55-2.45-4.08-4.69-4.79C620.81,86.1,620.61,85.77,623.73,87.71z"/>
	<path d="M647.6,124.84c-0.82-1.84-1.53-2.75-3.37-3.67C644.84,123.21,645.56,124.13,647.6,124.84z"/>
	<path d="M634.14,104.75c0-1.66-1.48-4.33-2.45-2.35C632.1,103.32,632.71,104.24,634.14,104.75z"/>
	<path d="M641.38,115.56c-0.1-1.53-1.02-2.14-2.35-2.35C639.44,114.34,639.95,115.25,641.38,115.56z"/>
	<path d="M707.67,194.29c0.49-1.55-0.23-2.11-1.53-2.75C706,193,706.26,193.78,707.67,194.29z"/>
	<path d="M712.87,200.21c-0.92-0.92-1.12-1.84-2.65-1.63C710.42,200,711.03,200.51,712.87,200.21z"/>
	<path d="M716.23,205.41c0.2-1.43-0.61-1.94-2.24-2.65C714.43,204.26,714.83,205.3,716.23,205.41z"/>
	<path d="M652.09,131.78c-0.65-1.29-1.17-1.93-2.65-2.45C649.87,130.98,650.55,131.47,652.09,131.78z"/>
	<path d="M630.77,51.61c-0.11-0.17-0.77-1.51-1.46-0.89C628.63,51.35,629.56,52.62,630.77,51.61z"/>
	<path d="M628.12,39.58c0.6-0.3,0.22-0.59,0-1.02c-0.25-0.25-0.41-0.88-0.82-0.31C627.1,39.07,627.51,39.38,628.12,39.58z"/>
	<path d="M622.71,51.1c0.51,0,1.22,0.31,1.22-0.61c-0.24,0-0.26-0.63-1.2-0.46c-0.63,0.11-0.74,0.11-0.68,0.59   C622.09,50.99,622.41,51.1,622.71,51.1z"/>
	<path d="M218.44,226.83c4.59,1.94,9.08,1.02,13.26,1.84C228.03,226.32,222.11,225.5,218.44,226.83z"/>
	<path d="M131.14,234.37c0.82-2.14-0.2-3.98-0.41-6.73C127.58,231.09,127.46,232.38,131.14,234.37z"/>
	<path d="M130.43,226.11c4.69,0.31,5.1,0.1,6.43-3.06C134,222.75,132.16,223.97,130.43,226.11z"/>
	<path d="M206.31,235.6c-1.84-4.28-2.65-4.79-6.43-4.28C201.61,233.35,203.76,234.17,206.31,235.6z"/>
	<path d="M246.18,230.7c-3.06,0.41-5.3-1.73-9.08-0.92C243.53,232.54,243.63,232.54,246.18,230.7z"/>
	<path d="M207.43,226.93c-2.47-1.5-4.19-2.33-7.14-1.53C202.57,227.28,204.42,227.77,207.43,226.93z"/>
	<path d="M242.1,205.72c-0.46-0.8-0.91-1.09-1.94-0.61C240.73,206.8,242.64,206.47,242.1,205.72z"/>
	<path d="M139.4,218.36c-0.75,0-1.11,0.43-0.61,1.12c0.82,0.2,1.33-0.41,1.94-0.92C140.22,218.46,139.81,218.26,139.4,218.36z"/>
	<path d="M382.03,173.39c-4.28-4.9-10.2-8.67-15.09-9.08c3.16,1.94,5.38,3.3,7.75,4.59C377.01,170.16,378.76,172.57,382.03,173.39z"/>
	<path d="M394.78,176.14c-2.24-1.73-4.79-1.73-7.45-1.63C389.47,176.14,392.12,176.24,394.78,176.14z"/>
	<path d="M404.77,178.38c-1.43-1.73-3.16-1.53-5-0.92C401.4,177.97,402.83,178.99,404.77,178.38z"/>
	<path d="M413.23,205.31c-2.24-0.61-3.26,0-4.39,0.82C410.18,206.63,411.4,206.84,413.23,205.31z"/>
	<path d="M351.84,227.54c-1.02,0.2-2.14,0.41-2.35,1.94C350.51,229.17,352.04,229.48,351.84,227.54z"/>
	<path d="M345.41,231.52c-1.02,0.41-2.45-0.51-2.55,1.84C343.88,233.15,344.9,233.25,345.41,231.52z"/>
	<path d="M410.28,178.28c-1.12-0.82-2.14-0.82-3.47,0C408.14,178.89,409.16,179.2,410.28,178.28z"/>
	<path d="M346.23,210c-0.92,0.61-1.84,0.92-1.43,2.04C345.62,211.73,346.33,211.43,346.23,210z"/>
	<path d="M401.51,207.04c0.82,0.41,1.53,0.51,1.94-0.51C402.42,205.92,401.91,206.33,401.51,207.04z"/>
	<path d="M122.78,170.33c2.55-0.51,2.55-2.35,2.55-5.1c-3.67,2.14-5.2-1.22-7.65-2.35c-1.12,5.2,1.94,8.46,3.98,12.24   C123.7,173.59,122.07,171.75,122.78,170.33z"/>
	<path d="M115.33,176.75c0-2.4-3.96-4.51-0.31-11.93c0.28-0.56,1.42-3.51,1.08-4.17c-0.13-0.26-0.37-0.47-0.78-0.62   C105.89,168.6,115.33,179.46,115.33,176.75z"/>
	<path d="M161.23,205c2.85-1.27,8.83-3.58,9.99-5.41C165.91,200.92,164.11,200.67,161.23,205z"/>
	<path d="M187.13,191.54c2.45-0.31,4.69-1.12,6.63-2.75C191.31,189.19,188.76,189.3,187.13,191.54z"/>
	<path d="M176.42,196.13c-0.92-0.51-1.63-0.51-2.24,0.82C175.33,197.65,175.73,197.1,176.42,196.13z"/>
	<path d="M600.38,8.88c3.11,1.79,5.83,2.03,9.08,1.02C606.33,8.27,603.95,7.18,600.38,8.88z"/>
	<path d="M91.88,219.79c-1.84,2.86-1.84,2.86-1.73,5.51C91.06,223.66,91.57,221.83,91.88,219.79z"/>
</g>
</svg>