<?xml version="1.0" encoding="UTF-8"?>
<!-- Generator: Adobe Illustrator 23.0.1, SVG Export Plug-In . SVG Version: 6.00 Build 0)  -->
<svg version="1.2" fill="#fff" baseProfile="tiny" id="Layer_1" xmlns="http://www.w3.org/2000/svg" xmlns:xlink="http://www.w3.org/1999/xlink" x="0px" y="0px" viewBox="0 0 900 600" xml:space="preserve">
<g>
	<path d="M128.18,206.83c3.4,15.81,6.49,4.61,2.12,18.61c-0.72,2.32-1.26,4.57,0,6.98c0.59,1.12,0.42,2.63,0.51,3.94   c0.94,15.1,9.3,21.71,11.23,26.39c0.41,1.01-0.3,1.92-0.1,3.14c3.03,3.44,6.27,7.18,9.61,11.12c6.57,0.61,12.92-0.24,18.81-4.05   c8.92-5.76-2.08-6.4,15.57-4.85c6.09,0.53,12.42-4.41,12.64-5.56c0.58-3.01,5.78-5.92,2.33-10.32c-1.01-1.52-2.53-2.53-4.25-3.14   c-0.61,0.2-1.21,0.3-1.82,0.51c-1.54-1.29-2.9-4.07-1.82-6.47c1.95-4.35-0.24-5.97,2.73-9.51c6.21-7.39,15.37-11.9,14.56-17.7   c-0.1-0.71,0.1-1.42,0.2-1.92c-0.51-1.42-1.72-1.62-2.53-2.33c-1.74-1.51-4.31-1.65-0.71-2.63c10.01-2.72,12.84-3.92,20.43-4.45   c6.08-0.43,7.75-3.26,32.26-5.76c17.77-1.82,20.98-2.98,24.78-2.73c11.34,0.75,10.63-2.99,23.77-4.96   c11.41-1.71,1.45,0.6,15.37-1.11c1.72-0.21,3.34-1.11,5.06-1.92c9.68,0.32,11.49-0.7,25.28-0.61   c30.12,0.2,100.49-3.72,128.84-20.33c5.65-3.31,3.06-3.23,8.7-5.06c7.71-2.5,9.35-1.02,25.38-2.43c3.56-0.31,15.64-1.86,19.21-3.14   c11.87-4.23,39.97-4.97,53.19-9.71c7.44-2.67,3.65-2.47,10.32,2.63c1.82,1.21,3.94,0.81,6.27,1.92c1.31,2.53,2.14,5.35,2.93,8.09   c4.51,15.67,0.82,22.6,3.44,28.42c2.81,6.24,1.79,11.42,6.78,24.68c6.63,17.63,19.45,59.97,19.72,61.18   c0.76,3.37,3.12,4.05,5.06,13.75c1.06,5.28,3.22,8.71,8.39,9.3c9.01,1.04,11.59-0.81,13.65-0.81c4.65,0.3,9.3-0.25,14.06,0.4   c4.85,0.66,9.81,0.51,14.76,0.2c1.62-0.1,3.03-0.81,4.15-1.82c2.92-0.47,6.59,0.67,7.58-2.33c2.02-0.51,4.45,1.01,6.07-1.52   c-0.22-1.12-0.53-2.12,0.2-2.12c1.02-0.26,3.6,0.43,4.55-2.63c1.01-0.51,2.31-0.21,2.83-1.42c0.49-1.12,0.71-2.33,0-3.64   c-4.15-0.81-7.38-3.74-11.33-5.16c-2.12-4.05-5.88-5.38-10.11-6.07c-7.83-1.27-5.97-1.01-9.2-6.07c-2.1-3.29-3.38-10.02-3.64-14.26   c-0.8-12.84-7.21-41.89-7.69-56.84c-0.25-7.84-1.51-15.45-5.16-22.75c-4.72-9.45,0.98-8.31-4.05-54   c-0.71-6.45,4.81-14.23,6.67-25.69c1-6.17,0.23-6.39,1.01-7.48c1.92-1.01,2.93,1.01,4.65,1.11c-0.3,3.14,0.07,6.06-0.2,9.1   c-0.44,4.86,2.09,7.75,5.36,10.52c2.53-0.2,5.06-0.4,7.58-0.61c1.52,0.51,2.73,1.52,4.55,1.52c-0.1,1.92-0.9,3.44-1.21,5.06   c-0.29,1.52-0.2,3.14-1.11,4.55c-1.11,0-0.4-1.21-1.31-1.62c0.1,1.52,0.02,2.93,0.3,4.25c3.49,16.22,3.04,15.95,4.55,16.48   c0.55-2.64-2.41-8.31-1.62-13.05c4.46,14.26-0.29-9.65,2.83-13.96c0.72-1-0.4-2.22,0.81-3.14c0.91,0.1,1.42,1.52,2.33,1.42   c2.22,0.1,3.74-2.12,5.97-0.81c-1.31,4.05-3.24,7.89-4.45,12.03c-1.37-1.22,0.36-6.99-0.71-8.6c-1.36,0.45-1.68,18.57-1.82,24.57   c-0.05,0.6-0.21,4.25,1.11,4.25c0.71,0,0.75-0.96,0.71-3.24c-0.08-4.41,0.35-3.43,3.74-18.71c1.68-5.05-0.28,9.13,1.82,17.39   c3,1,1.5-17.46,3.54-21.54c6.44-4.88,8.2-6.91,14.77-10.42c3.95-2.11,4.13,2.17,13.25-1.42c17.78-7,10.34-5.19,17.7-8.7   c4.01-1.91,4.18-5.14,5.66-6.88c4.08-5.4,4.09-10.69,5.66-18.81c0.71-3.65-0.73-3.78-2.33-10.82c-2.16-9.52-6.63-20.22-14.46-25.99   c-2.59-1.48-3.71-5.23-9.81-6.37c-0.2,0-0.4-0.3-0.71-0.51c1.52-4.65,0.22-9.21-0.61-13.75c-0.8-4.4-10.53-7-16.48-5.97   c-1.32,0.23-6.09,1.46-7.18,2.33c-4.85,3.85-11.73,8.36-15.17,18.41c-2.91,8.48-5.9,7.58-10.11,15.17   c-0.72,1.31-1.31,2.63-2.83,3.74c-3.44,0.4-6.99,1.25-10.62,2.02c-6.8,1.45-22.29-0.68-33.68-7.18c-1.93-1.29-5.2-1.5-7.18-2.43   c-8.3-3.89-34.22,3.58-43.38,6.88c-2.26,3.76-14.81,6.86-17.7,9.51c-2.66,6.64-17.33,20.11-24.78,29.33   c-15.29,18.94-25.34,17.74-36.61,19.52c-4.73-2.71-4.25-1.33-7.18-3.24c-8.91-5.8-37.09-14.78-55.62-13.75   c-5.47,0.3-3.19-1.29-7.79-0.51c-7.9,1.34-18.8,4.78-23.56,11.23c-1.26,1.71-6.98,6.5-8.49,7.79c-4.69,3.99-6.17,6.86-9.91,12.84   c-33.44,16.1-48.63,12.55-64.02,22.05c-1.35,2.25,1.69,0.77-14.16,8.6c-4.93,2.44-4.15,3.34-6.17,4.35   c-25.4,9.67-25.83,2.58-62.7,6.67c-7.07,0.79-11.54,3.93-25.38,11.12c-12.76,7.97-20.33,10.42-35.5,18   c-0.91-0.81-0.2-2.43-1.72-3.24c-2.12,0.35-9.97-0.6-10.42-0.71c-8.38-1.55-5.52-3.29-20.02-7.18c-0.51-0.1-1.11,0.1-1.92,0.1   c-2.12,3.03-4.85,5.87-5.97,9.61c-3.73-0.49-8.57-1.13-12.24-0.51c-6.2,1.06-11.09-2.05-13.35-1.11   c-6.64,6.64-5.76,12.66-5.76,17.9C125.52,201.5,127.09,201.78,128.18,206.83z M198.06,253.86c1.04,1.52,1.16,3.26,0.1,5.06   c-5.44,4.08-10.65,7.17-17.19,5.46c-3.65-0.95-7.14-0.74-9-2.83c-0.08-0.37-1.86-8.99-1.79-9.35c1.82-9.03,5.66-16.17,12-22.3   c3.69,4.92,2.6,3.16,7.48,5.26c0.57,0.28,0.57,0.87,0.58,1.27c0.12,4.18-4.85-0.81-7.66,2.27c-1.04,2.67,3.53,3.86,6.17,4.45   c0,0.28,0.1,0.86,0.1,0.91c-1.46,0.81-3.72-0.18-3.91,1.66c-0.24,1.47,4.75,2.58,5.13,2.69   C193.21,252.34,193.61,252.65,198.06,253.86z M184,227.77c3.12-4.52,2.12-3.96,3.71-2.62c2.17,1.84,2.95,1.97,7.1,3.12   C193.42,231.38,191.89,228.45,184,227.77z M208.37,214.42c-2.43,4.96-2.43,4.96-7.79,8.8c-4.15,0.3-7.99-0.3-11.93-0.81   c1.42-4.35,1.42-4.35-0.3-7.79c0.37-1.47,0.39-0.59,13.15-3.94c1.08,0,0.84,0.64,1.82,1.62   C204.98,213.12,208.37,211.9,208.37,214.42z M410.49,182.1c-1.83,0.05-1.1-0.69,1.36-0.24C411.33,182.01,410.9,182.09,410.49,182.1   z M414.68,181.45c-0.3,0.1-0.8,0.3-0.91-0.19c0.58,0,26.57-8.43,27.48-8.09c0.36,0.1,0.17,0.04,2.66,3.02   C429.63,180,426.01,179.64,414.68,181.45z M481.53,162.13c-1.01,0.91-2.33,1.11-3.44,1.62c-1.31,1.72-1.32,1.72-2.73,2.33   c-7.58,3.26-27.24,10.08-29.13,8.9c-0.61-0.91-1.11-1.92-1.31-3.14c0.2-0.2,0.4-0.4,0.61-0.51c7.54-3.29,10.81-6.34,14.46-7.28   c16.38-4.2,16.35-4.34,18.61-4.15c4,0.35,3.01-0.58,4.94-0.08C486.53,160.61,482.71,161.21,481.53,162.13z M667.71,106.2   c-3.21,8.24,1.64,19.04-0.51,55.42c-0.29,4.96,8.04,13.06,8.19,31.86c0.03,3.39,2.04,15.09,2.33,20.43   c0.6,11.36,4.2,24.16,5.06,34.99c0.46,5.76,3.49,15.59,3.77,15.74c0.74,0.38,1.31,0.67,1.89,0.86c0.77,1.16,0.48,3.98,4.65,5.06   c10.54,2.72,5.13,1.24,7.38,1.82c5.69,1.46,4.4,3.79,8.9,5.97c1.78,0.86,2.48,3.33,5.76,3.14c1.68-0.19,2.64,2,1.01,2.33   c-15.43-7.72-15.6-10.66-17.19-8.39c1.63,2.33,4.9,3.07,6.98,4.85c2.23,1.92,4.45,3.84,7.69,5.16c-2.28,0.33-4.6-0.42-6.88,0.2   c-1.62-2.33-4.25-2.53-6.47-3.24c-1.92-1.52-2.53-4.05-4.75-4.85c-1.62,1.01,0.51,2.22-0.4,3.24c-2.94-0.19-4.29-0.47-5.02-1.17   c-0.64-0.63,0.03-5.05-2.97-0.85c-3.34-0.3-5.76-2.83-8.49-3.84c-1.34-0.35-3.23,0.03-4.25-0.61c0.77-2.67,0.43-2.26-0.29-3.35   c-2.38-3.58-0.19-2.18-3.95-16.88c-0.62-2.42-1.61-4.75-1.92-7.28c-3.2-25.76-17.93-54.27-19.11-59.26   c-1.68-7.05-1.99-19.17-1.72-19.72c0.75-3.02-0.48-2.96-1.21-10.32c-0.05-0.46-1.1-12.58-0.71-13.75c0.52-0.26,0.84-1.3,2.02-0.71   c0.71,0.21-0.07,1.8,1.11,2.21c0.2-1.72,0.3-3.44,0.3-5.46c3.89-5.45,6.98-10.26,7.48-18.81c0.38-6.39,3.55-8.1,4.35-16.69   c0.24-2.63,6.57-11.7,9.61-22.05C677.84,79.1,670.7,98.5,667.71,106.2z M673.07,274.49c-0.2,0.1-0.4,0.4-0.61,0.4   c-5.93,0.35-11.72,0.81-12.13,0.03c-6.36-12.31-2.9-8.28-7.49-26.83c-2.3-9.3-3.03-22.09-3.14-29.02   c-0.26-16.59-2.6-19.53-1.53-27.19c0.05-0.18,0.62,1.46,0.92,2.21c6.1,21.06,17.14,40.84,22.15,78.38   C671.85,273.58,673.27,273.17,673.07,274.49z M640.91,140.39c1.6-12.8,0.2-10.85,0.2-38.83c0-2.31,0.24-3.68,3.92-19.99   c0.58-2.57-0.45,11.77-3.42,24.85c1.52,3.54-0.3,7.89,2.83,11.43c1.41-0.95,3.18-1.6,3.94-2.83c0.53-0.85,7.93-9.65,10.82-18.61   c0.8-2.49,4.65-12.63,4.65-14.46c4.65,0.62,4.75,0.11,3.34,2.93c-12.15,24.29-11.73,23.27-10.72,27.31   c-1.82,4.55-4.55,8.7-5.56,13.05c0.2,1.21,1.05,1.73,0.4,3.34C648.39,135.91,642.35,141.47,640.91,140.39z M644.86,169.42   c-0.38-1.27-4.77-13.02-4.65-21.89c0.02-1.46,2.22-2.91,2.22,0.07C642.43,163.55,645.98,163.27,644.86,169.42z M645.23,44.94   c1.98,2.49,5.33,12.03,4.47,20.02c-0.22,2.08-1.92,13.52-2.62,13.4c-1.94-0.43-1.84,4.23-1.84-7.53c1.88-4.38,1.22-3.64,2.02-9.81   C648.81,49.14,644.93,47.73,645.23,44.94z M711.19,106.82c0,0-0.19,0-0.2,0.1c-0.1-0.1-0.2-0.1-0.3-0.2   C710.69,106.4,711.38,106.45,711.19,106.82z M711.9,110.36c-0.35-0.91-0.44-1.57,0.2-2.33   C712.59,108.78,712.66,109.47,711.9,110.36z M763.17,81.03c0.05-0.1,4.25-8.25,4.65-9C767.73,75.94,766.21,78.72,763.17,81.03z    M645.85,37.93c1.75-0.54,4.15,1.89,14.78,5.18c0.81,0.3,1.52,0.81,2.33,0.81c2.94,0,12.8,5.12,25.79,0.81   c4.98-1.65,4.64,3.43,6.98,1.01c3.03-3.12,5.89-5.87,5.13-5.87c-1.07-0.11-1.8,0.8-4.42,2.83c-3-1.12-2.89-0.72-2.57-1.09   c2.03-2.34,3.87-4.84,4.39-7.91c2.2-2.19,12.39-9.53,12.63-6.87c-0.23,0.16-0.41,0.37-0.62,0.6c-0.21,0.24-0.45,0.47,0.62-0.6   c0,0.03,0.01,0.06,0.01,0.09c0.27-0.54,0.2-0.7,0.17-0.73c0.01,0,0.01,0.01,0.03,0.02c6.15-3.07,6.75-2.58,13.45-4.25   c1.01,0.1,1.72,0.91,2.83,0.3c1.4-1.4,2.24-2.77,5.36-1.21c-1.82,2.42-7.46,1.58-12.64,9.41c-0.99,1.49-5.81,10.49-4.05,10.82   c1.38-0.92-0.15-1.89,5.55-9.51c2.82-2.82-1.15,3.36,0,10.01c0.81-3.93,3.83-12.49,7.38-14.36c0.11,0.99-4.96,10.98-3.44,12.54   c2.91-6.26,4.84-13.2,8.71-18.71c0.28-5.36,5.93-12.35,1.42-16.37c0.43,5.03-2.25,15.29-5.66,13.16c-1.32-5.28-1.47-7.92-6.88-6.37   c-0.32,2.03-1.71,2.41-3.84,5.95c-0.41,0.68-2.18,3.75-2.22,3.87c-1.01,0.4-1.92,0.71-2.93,0.2c-0.1-1.82,1.21-2.83,2.02-4.15   c7.13-11.61,14.91-13.45,13.2-13.45c-7.44,0.02-15.48,14.2-15.58,14.3c-1.15,1.14,0.64-2.06,0.37-3.77   c-1.22,0.2-1.19,1.38-3.95,6.25c-0.71,1.25-1.66,0.53-1.59,0.31c1.87-5.61,0.79-3.15,0.79-5.8c3.05-4.72,10.67-12.5,16.58-12.82   c5.33-0.29,10.69-0.14,14.97,3.64c0.72,3.7,1.71,7.27,1.11,10.92c-1.14,0.38-3.02,0.04-2.81-1.22c0.15-1.41,0.91-2.85,0.29-4.54   c-0.89,1.6-1.29,3.53-2.1,5.02c-2.67,4.89,3.9,0.47,11.51,12.59c3.42,5.44,15.48,26.95,10.21,15.57   c-7.44-16.07-10.65-18.07-10.79-18.91c-0.39-2.38,5.33,3.75,7.25,6.17c4.92,6.2,4.79,8.31,7.43,14.71   c2.72,6.6,5.36,10.23,5.63,18.92c0.24,7.53,0.14,2.16-3.26,8.95c-3.66,4.88,4-9.99-1.54-16.78c-0.52-0.52,2.2,2.74-0.69,13.45   c-1.02,3.78-3.49,11.4-6.98,13.15c0.46,0.92,0.98,1.72,1.01,1.82c-1.52,0.51-1.21,2.02-1.62,3.24c-13.63,7.27-14.53,5.32-19.62,8.6   c-5.89-0.98-6.2-3.09-18.41,6.88c-1.11,0.91-2.64,3.87-3.74,2.22c-1.82-2.73-2.22-5.97-3.44-8.9c-2.02,0.3-0.81,2.33-1.72,3.24   c-2.49,0.53-4.84,3.07-6.21-1.74c-0.42-1.46-0.66-3.17-1.88-4.23c-2.92,0.42,0.29,3.99,0.29,5.04c0,2.01-2.89,2.14-4.84,0.93   c-3.62-2.25-4.57,1.63-9.91-0.51c-2.63-5.66-1.62-11.93-2.33-18c-0.71-1.11-1.52-2.12-2.63-3.03c-1.36-0.34-0.81-0.08-4.65-2.33   c-4.92,2.57-5.54-0.08-16.08,2.83c-0.37,0.13-0.61,0.4-0.61,0.81c0.09,0.9,0.77,0.37,1.72,1.31c-6.85,17.08-5.83,15.43-10.82,24.16   c-1.35,2.36-5.3,10.81-6.27,5.97c-1.18-8.29,1.03-11.33,1.46-19.2c0.31-5.63,1.08-11.09,3.31-16.3c1.67-3.9,1.65-8.64,2.83-10.42   c0.66-19.79-0.14-11.69-2.63-22.55C648.25,38.91,645.24,38.11,645.85,37.93z M712.81,19.74c0.25-0.34,0.37-0.61,0.53-0.81   C713.37,19.2,713.37,19.5,712.81,19.74z M719.38,20.85c1.43-3.06,2.04-5.53,4.05-6.87c1.05,1.58,3.21-0.18,2.55,3.56   c-0.07,0.39-0.19,0.79-0.42,1.19C725.45,18.77,718.57,22.28,719.38,20.85z M640.6,38.05c1.32,1.32,2.58,2.93,3.03,4.75   c0.49,0.24,0.74,0.57,0.63,1.33c-0.03,0.22-0.03,0.18,0.13,0.18c0.2,0,0.46,0.18,0.74,0.51c-0.62,0.01-1.7-0.93-1.52-2.02   c-2.16,0,0.02-2.67-11.23-7.48C637.32,33.92,637.62,35.06,640.6,38.05z M605.11,39.06c6.13,0,9.94-1.06,20.93-2.83   c8.67,4.16,11.87,4.7,15.37,13.65c2.43,6.21,5.43,26.01,2.12,13.96c-4.1-14.96-6.13-9.47-5.97-8.6c0.85,4.62,2.78,9.41,4.25,21.54   c0.75,6.15-1.17,15.81-1.82,16.79c-3.6,5.35-3.29,16.09-3.14,22.25c0.42,16.5-3.73,29.66,2.22,47.53   c-0.42,1.26-0.97,2.01-0.61,2.73c7.09,21.26,2.99,11.68,7.08,39.24c2.76,18.55,1.59,43.94,5.76,52.28   c3.49,6.97,0.96,13.95,8.7,19.92c0.61,0.2,1.21-0.1,1.72,0.4c-0.01,0-0.02,0.01-0.03,0.01c-0.91,0.37-2.2-0.3-3,0.7   c3.11,0.78,4,0.61,6.17,0.1c0-0.4,0-0.71,0-1.01c4.29,0,5.03-0.42,3.54,1.01c1.95,0.16,7.06,0.82,6.27-1.01   c-0.67-0.9-5.51-0.23,2.63-1.31c1.71,1.11,3.71,1.82,5.06,3.44c2.01,2.42,12.84,2.89,13.96,3.24c1.78,0.55,10.33,3.1,12.67,5.9   c1.26,1.51-3.27,0.31-4.28,0.17c-2.32-0.31-3.59,0.63-5.57-0.94c-3.32-2.63-6.23-2.8-8.99-4.83c-9.66,0-15.92-0.96-12.74,1.42   c1.02,0.51,1.08,0.51,12.03,1.21c12.26,6.49,6.37,3.14,12.94,5.87c-2.85,0-6.41,0.6-7.99-0.2c-2.74-1.4-5.79-1.77-8.39-3.34   c-2.13-1.28-1.66-0.24-11.73-0.91c-2.2-0.31-2.14,0.98-1.59,1.32c2.35,1.45,8.58,0.86,11.7,1.1c1.07,0.67,9.31,3.94,7.98,3.94   c-16.06,0-10.16-0.1-11.82-0.1c-17.02-1.62-16.66,0.2-22.15,0.81c-3,0.52-7.71-0.18-10.28-3.03c-2.71-3.01-1.84-6.56-6.2-15.78   c-0.81-1.72-1.64-7.41-2.73-10.82c-12-37.67-10.94-34.41-11.02-34.79c-4.26-20.06-12.22-29.57-13.45-46.62   c-1.26-17.55,0.67-15.52-8.8-42.78c-2.49-7.18-2.52-14.27-3.84-27.51c-0.54-5.42,0.73-7.8,0.1-11.12   c-0.84-4.46,0.14-7.26-0.39-7.93c-0.42-0.52-1.1-0.55-1.63,0.24c-1.04,1.56-0.47,5.47-1.21,7.08c-2.56,0.49-4.58-0.31-6.07-2.33   c-6.56-8.92-12.14-11.75-10.42-24.88c1.26-9.63,3.74-22.64,10.62-29.52C599.84,40.45,600.97,39.06,605.11,39.06z M546.46,90.63   c8.52-7.37,20.99-21.59,26.7-28.62c4.03-4.96,7.78-11.03,11.99-12.62c0.12-0.12-0.03-0.85,0.85-0.73c0-0.26-0.06-0.26,0.19,0   c-0.1,0.4-0.3,0.81-0.81,0.71c0.83,2.23-2.1-0.38-4.55,19.21c-6.76,10.05-1.16,24.09,9,32.77c2.68,2.29,5.59,2.96,9.2,3.94   c-1.61,7.33-1.03,19.56,1.92,27.1c0.81,2.07,4.25,13.04,3.64,14.26c-2,1.6-10.89-9.12-12.74-12.03c-0.14-0.4-0.39-0.54-0.91-0.2   c0.71,2.53,1.52,5.16,2.33,7.79c-10.79,4.31-8.35,3.71-10.24,2.47c-3.59-2.35-22.82-5.05-35.46-36.35c0.2-0.61,0.4-1.31,0.61-2.02   C546.66,101.25,545.45,96.1,546.46,90.63z M515.52,100.24c3.61,1.58,15.42,1.63,24.47-4.55c0.62-0.42,1.25-1.11,2.32-1.11   c0.2,2.12,0.8,4.15,0.71,6.37c-0.41,9.37,11.18,31.62,32.57,45c-0.69,1.39-25.26,3.11-32.77,4.75   c-10.77,2.36-37.66,5.46-39.74,5.46c-6.39-9.59-4.9-33.08-2.53-45.31C502.06,103.05,511.25,98.72,515.52,100.24z M198.67,186.1   c2.06-1.51,7.9-5.37,11.45-5.37c4.2-3.95,10.01-4.39,17.88-10.41c1.09-0.83,19.57-11.28,27.67-12.7   c12.44-2.19,35.32,0.73,47.17-2.68c7.18-2.07,15.34-2.76,23.66-8.19c5.73-3.74,19.93-10.58,25.28-13.05   c6.54-3.01,9.73-2.65,29.63-7.79c14.69-3.79,14.44-5.84,17.07-6.49c2.82-0.7,4.42-3.27,4.9-2.78c0.44,0.24,0.32,1.17,0.27,1.29   c-1.65,10.7-0.4,12.02-0.51,17.9c-0.28,15.21,16.24,37.14,16.7,36.83c0.72-0.49-0.14,0.21-8-16.91c-3.25-7.07-2.37-4.29-1.72-6.88   c-1.47-3.43-2.14-3.59-3.03-8.6c-1.27-7.13-1.06-21.82,1.21-27.41c4.2-3.32,5.77-4.92,5.94-4.83c6.72,1.93,2.33,0.91,1.55-1.64   c1.62-1.72,3.03-3.54,4.05-5.56c0.81-1.62,5.82-5.34,10.42-9.51c3.69-3.34,11.77-5.93,14.16-5.97c7.32-0.1,14.98-0.89,22.35,0   c14.56,1.76,38.76,9.9,40.76,11.23c-0.91,0.4-1.62,0.7-2.33,1.11c-3.52,2.06-7.35,9.22-8.19,11.63c-2.82,8.03-2.8,14.29-1.21,22.45   c1.33,6.87-1.1,14.3,3.44,22.96c0.21,0.4,0.2,0.91,0.3,1.42c-1.51,0.61-17.87,0.8-17.97,0.8c-2.7-0.02-17.58-2.43-20.86,1.32   c-2.79,3.2-11.14,3.15-12.54,5.66c1.18,1.77,4.05,0.46-39.14,14.06c-19.58,6.16-66.13,7.45-68.48,6.66   c-2.19-2.19,0.81-1.35-15.27-3.14c-0.4-0.91-0.71-1.52-1.01-2.22c-1.46-0.67-2.95-0.73-4.55-0.4c-0.1,0.91,0.51,1.2,1.01,1.42   c5.35,2.26,2.25,2.28,8.09,3.74c0.14,0.02,3.51,0.71,3.84,1.11c-3.98,0-5.83,0.23-7.38,1.52c-1.3,1.07-10.49,1.34-11.43,1.31   c-8.47-0.24-12.97,1.31-13.45,1.31c-1.91-0.47-1.95-0.62-3.24-0.2c-5.61,1.83-49.92,6.41-58.15,8.51   c-19.03,4.85,6.86-2.08-31.31,8.04c-7.48,1.98-15.15,3.81-21.37,8.25c-1.35,0.2-2.65,0.43-3.74-0.2c-2.58-1.49-4.37-1.12-7.54-3.02   c-1.21-0.64-8.05,1.42-9.44-13.86c0.68-0.68,1.28-1.3,2.22-1.11c0.27,0.23,0.62,0.51,0.69,0.9c0.26,1.47-2.08,0.35-1.7,2.13   c5.68,1.51,4.93,1.16,10.01-0.81C177.4,195.8,188.21,193.78,198.67,186.1z M165.39,174.57c1.04,0,2.61,0.49,4.05,1.42   c11.58,7.47,19.87,5.01,21.19,6.09c0.88,0.72-0.47,1.83,0.86,3.92c-0.3,0.71-0.51,1.31-0.71,1.82   c-19.77,9.11-14.42,6.75-15.57,4.45c-3.76-5.17-14.7-6.7-15.17-10.01C161.85,179.83,163.68,177.2,165.39,174.57z M129.49,194.91   c0-2.27,1.34-8.22,3.45-11.34c4.45,0.91,8.8,2.33,13.15,0.91c14.28,3.97,8.34,3.5,15.98,5.16c1.01,0.61,1.83,1.39,2.83,1.82   c2.2,0.94,4.1,1.03,4.54,1.65c0.79,0.79-1.26,1.4-2.71,1.4c-2.27,0-4.41-0.46-4.36,1.6c0.44,17.53,7.56,16.9,13.45,19.01   c5.33,1.91,5.49,0.71,10.21,0.71c0.06,0.09,1.27,1.89,1.19,1.96c-1.43,3.81-5.25,5.53-7.36,8.35c-0.4,0.81,0,1.62-0.71,2.43   c-0.61,0.61-1.21,1.52-2.33,2.02c-4.03-1.52-7.75-4.47-12.24-4.15c-3.33,3.33,5.4,4.82,6.05,6.1c0.11,0.22,0.1,0.35,0.12,0.37   c0.3,0.1,0.81-0.2,1.01,0.3c-0.94,0.38-6.2-2.42-7.67,0.88c0,3.17,5.71,3.72,6.36,4.56c0.4,0.51,0.24,1.79-1.12,2.34   c-2.66-0.59-5.53-1.41-7.08,0.9c0.51,1.42,1.42,2.33,2.63,2.93c1.77,1.01,2.89,0.83,2.82,1.87c-0.09,1.46-4.35-0.3-4.84,3.19   c3.66,4.58,4.35-1.66,5.26,8.14c0.7,7.54,4.04,6.73,4.25,8.83c-0.21,1.7-4.58,3.94-6.57,4.85c-2.97,1.36-6.15,3.5-12.14,0.51   c-12.31-12.87-14.53-17.65-19.1-34.78c-0.92-3.44-0.3-6.99-1.01-10.43c-0.21-1.44,1.18-4.84,1.62-6.27   c1.79-5.79-0.48-3.85-1.82-7.79c-2.79-8.21-2.02-7.48-2.96-10.5C130.04,201.31,128.57,198.26,129.49,194.91z"/>
	<path d="M714.13,14.48c0,0.02,0.01,0.11,0.01,0.12C714.27,14.61,714.25,14.61,714.13,14.48z"/>
	<path d="M769.75,429.22c-3.2-3.51-3.62-6.34-8.09-7.89c-0.4-0.1-0.91-0.3-1.21-0.91c2.22-4.15,1.67-8.9,1.62-13.55   c-0.07-6.22-15.87-11.99-24.17-6.78c-2.58,1.62-10.65,4.26-16.38,14.26c-1.87,3.27-3.07,5.44-5.76,7.38   c-9.12,6.6-7.69,10.38-13.15,9.71c-6.44-0.8-0.77,0.86-10.32,0c-15.71-1.41-19.18-6.24-32.56-14.16   c-15.03-8.89-46.47-3.32-48.74-1.31c-1.2,1.06-1.49,0.66-17.6,5.06c-3.62,5.53-34.52,29.05-42.78,34.28   c-8.36,5.3-20.02,4.15-26.09,4.15c-32.65-26.12-60.88-26.89-62.8-28.01c-4.46-2.61-17.38,0.11-22.65,2.02   c-5.49,1.99-4.84,3.43-9.61,6.37c-7.88,4.86-11.44,6.63-15.78,11.93c-3.53,4.32-1.56,2.78-13.35,6.17   c-20,5.76-51.38,2.26-57.34,9.71c-16.16,5.39-18.02,5.4-20.12,7.79c-28.54,7.13-54.87-9.4-76.66-1.52   c-9.03,3.27-18.25,5.89-27.2,9.61c-1.75,0.73-24.64,6.78-24.68,6.78c-1.01-0.81-0.1-2.12-1.11-3.14   c-18.25-4.29-7.78-1.72-29.43-13.45c-2.43,0.61-3.44,2.53-4.96,3.84c-1.52,1.31-2.83,2.83-3.74,4.96   c-15.09-4.31-12.45-1.07-22.05-5.26c-0.91-0.4-1.72-1.01-2.83-0.71c-8.6,4.69-8.84,16.3-9.41,19.21c0.81,2.73,1.23,5.56,1.42,8.49   c0.94,14.84,5.85,3.84-1.31,17.9c-2.35,4.6-0.61,4.95-1.01,7.99c-2.77,21.29,8.15,25.46,5.87,33.07   c8.65,13.83,7.16,13.1,10.32,13.45c8.09,1.35,17.7,0.58,22.35-6.27c1.08-0.22,7.01,2.13,11.83,2.93   c9.91,1.65,14.56-6.66,15.98-8.19c2.47-2.65-0.27-7.17-3.34-8.9c-3.12,0-1.89,0.54-3.14-2.02c-1.87-3.86,1.68-4.78,2.22-9.51   c0.78-6.8,19.52-12.47,19.52-18.61c0.1-0.91,0.91-1.72,0.71-2.63c-5.42-6.19-4.54-4.71-2.12-5.06c17.16-2.45,16.68-0.12,30.24-1.52   c13.05-1.34,20.45,0.74,43.69,1.01c4.95,0.06,9.86,2.98,18.51,0.3c5.16-1.6,14.43-0.74,18.2,0.1c8.71,1.95,11.13-0.93,13.65-0.3   c5.76,1.11,11.63,1.5,17.5,2.22c37.42,4.66,41.35,8.14,69.17,3.03c5.45-1,7.17,0.44,16.18-0.61c6.28-0.73,20.52-3.34,30.24-7.99   c7.19-3.44,8.15,0.71,13.96,0.1c1.11-0.12,2.23-0.32,3.24,0.1c1.84,0.77,3.83,0.13,5.66,0.71c3.06,0.96,8.81,0.8,12.24,2.73   c1.76,0.99,23.21,3.14,31.55,3.14c12.51,0,15.3-2.4,24.07-1.31c9.47,1.17,23.89,0.72,35.8,0.61c1.37-0.01,7.45-1.29,8.6-1.52   c2.12,2.83,4.05,5.87,7.38,7.18c5.25,8.92,18.37,28.16,29.23,39.85c23.96,25.79,22.69,32.46,28.11,32.16   c2.18,0,6.58,2.65,13.45,1.11c13.51-3.02,10.49-0.06,14.36-2.83c8.76,0,2.34,0.66,12.74-0.61c9.51-1.15,15.33-0.29,16.48-3.74   c0.4-1.52-1.11-2.22-0.3-3.24c0.87,0,7.46,5.35,10.62,0.51c1.59-0.25,6.84-0.31,5.66-4.45c-16.05-6.51-9.98-1.27-29.33-13.65   c-0.91-3.34-2.22-6.67-4.55-9.51c0.51-5.66-0.51-11.22-1.62-16.59c-3.07-14.86-1.61-26.45-6.07-33.88c-0.9-1.8-0.59-4-3.74-10.82   c-2.09-3.84-2.07-6.02-1.92-8.19c1.62-23.66-1.29-17.45,0.61-21.24c1.7-1.13,2.79,1.57,4.65,1.82c-0.91,2.93-1,5.97-1.82,8.8   c-1.63,5.65,1.92,8.99,3.03,11.23c2.63,0.51,5.16,0.71,7.79,0.81c1.52,0.61,2.63,1.92,4.65,2.22c-2.74,4.18-3.42,9.2-4.65,9.2   c-0.65-0.65-1.42-10.41-0.3,17.39c0.42,2.91,2.19,2.21,1.31-2.83c-0.47-2.72-0.3-5.26,0.4-7.89c0.64,0.64,0.21,0.99,0.61,4.55   c1.29-1.47,1.08-14.79,4.45-18.61c0.71-0.81,0.2-1.92,1.01-2.83c1.31-0.1,1.52,1.72,2.73,1.82c1.82,0.3,3.54-1.31,5.26-0.1   c0.42,0.71,0.71,0.23-6.07,11.33c-0.4-3.34,1.21-5.76,1.11-8.49c-1.01,0-1.11,0.61-1.21,1.11c-8.54,32.94-3.74,27.15-3.74,26.29   c0.46-6.35,2.07-7.04,7.18-19.92c2.77-7-1.46,8.84-0.91,17.29c2.69,1.15,4.35-17.48,6.98-20.63c17.78-10,17.69-8.49,22.05-6.78   c1.73,0.68,3.44,0.81,5.26,0.3c1.82-0.51,3.74-0.61,5.66-1.01c9.23-1.92,8-2.64,14.06-4.55c4.06-1.28,5.94-3.32,10.82-9.71   c2-2.33,0.85-0.27,6.57-16.28C779,452.52,778.42,438.73,769.75,429.22z M658.91,428.81c1.99,2.99,2.06,9.83,2.12,14.77   c0.06,4.47-3.78,14.16-5.46,18.3c-0.4,0.1-0.81,0.3-1.31,0.4c-0.4,0-0.61,0.91-1.11,0.2c2.64-14.96,0.91-2.89,5.46-18.41   c2.16-7.36,0.73-10.59,0.31-15.09c0-0.48-0.63,0.19-0.63-1.52C658.79,427.75,658.73,428.36,658.91,428.81z M652.94,417.49   c1.06,1.49,5.01,5.85,5.15,9.5c-0.64-0.6-0.96-1.39-1.41-2.12c-3.29-5.48-7.43-6.55-7.96-7.64   C648.65,417.08,651.09,416.56,652.94,417.49z M164.48,477.15c3.45,0.61,3.99,2.71,6.07,4.05c12.68,8.14,15.88,6.03,18,7.89   c-0.3,1.21-1.11,2.43,0,3.64c-0.51,0.71-0.91,1.21-1.31,1.82c-0.15,0.06-10.89,3.25-16.48,4.05c0.2-0.91,0.4-1.52,0.51-2.12   c-3.85-6.02-13.55-9.75-13.35-12.34C159.51,481.62,162.2,480.2,164.48,477.15z M144.56,573.93c-1.67,0.63-2.86-0.4-5.56-1.21   c-1.39-0.5-2.46-1.42-3.34-2.62c-8.67-11.81-6.87-13.07-8.29-15.88c-2.54-5.01-2.76-11.27-3.14-13.25c-1.64-8.62,0-14.74,0-17.5   c0-1.83,2.14-5.01,2.83-6.17c2.54-4.23-0.27-3.92-0.81-7.69c-1.36-9.58-0.99-9.82-1.52-11.73c-1.24-4.5,3.28-14.94,5.97-17.09   c3.95,1.87,8.41,3.44,12.74,3.14c1.66,0.83,3.37,1.6,7.37,3.52c1.82,0.87,1.38,1.31,4.33,2.76c1.76,0.87,3.29,1.33,3.39,1.44   c2.63,4.06,10.28,4.57,5.23,5.84c-1.55-0.58-6.07-1.56-6.07,0.61c-0.71,6.07-0.53,15.82,4.75,18.2c3.3,1.49,3.77,2.23,8.41,4.33   c2.84,1.28,5.52,0.1,7.37,1.33c-0.51,0.71,0.61,1.21,0.2,2.02c-2.15,3.45-6.92,4.59-8.8,6.98c-0.1,0.51-0.1,1.01-0.2,1.52   c-4.14,2.62-1.28,3.16-9.41-2.12c-1.25-1.07-4.91-2.61-5.87-1.42c-1.54,2.46,4.23,4.62,4.96,5.96c-0.06,0.01-0.34,0.21-2.13-0.31   c-1.94-0.56-3.88-0.59-4.05,1.42c0.97,4.51,9.12,4,4.35,7.18c-3.34-1.31-3.95-1.54-5.66-1.31c-3.95,0.51-0.14,3.71,2.93,6.27   c0,1.82-1.98,0.27-3.64,1.01c-4.66,2.1,2.12,4.56,2.12,4.66c0.3,3.03,0.1,6.16-0.2,9.09C153.32,568.91,162.86,569,144.56,573.93z    M162.16,536.62c-0.37,0.15-0.53,0.02-0.66-0.13C161.69,536.53,161.87,536.55,162.16,536.62z M161.26,536.28   c-0.82-0.24-0.7-0.9-0.11-0.18C161.21,536.14,161.24,536.21,161.26,536.28z M160.44,535.54c-0.46,0-1.01,0.26-1.27-0.53   c-0.01-0.04-0.01-0.06-0.02-0.08c0.01,0.03,0.04,0.06,0.05,0.08c0.03,0.09,0.02,0.1,0.12,0.1   C159.8,535.11,160.19,535.33,160.44,535.54z M183.4,560.79c0.65,1.78,0.49,3.44-0.71,4.96c-2.1,0.93-9.99,4.94-13.65,3.74   c-2.95-0.97-12.64-3.47-12.64-5.46c0-3.62,0-6.58,0-10.21c1.22-2.25,5.48-13.62,15.57-19.32c0.76,5.03,6.04,5.84,6.88,6.67   c-0.4,1.11-0.1,2.33-1.31,2.93c-2.41-0.8-7.18-3-7.18,0.2c0.77,3.97,6.38,3.49,5.67,5.18c-0.41,0.99-2.24-0.26-3.65,0.38   c-2.28,1.74,1.89,3.04,4.25,4.35C177.73,557.55,180.26,559.68,183.4,560.79z M182.68,536.31c-8.5-3.64-8.83-3.48-8.98-3.63   c1.52-0.91,1.92-2.43,3.54-3.14c2.5,3.33,0.97,2.55,7.07,5.36C184.19,535.83,182.68,536.41,182.68,536.31z M200.38,523.28   c-3.1,5.36-8.84,7.88-9.5,7.88c-3.95-0.64-8.01-1.57-11.74-3.02c0.91-1.42,2.12-2.63,2.02-4.45c0.4-1.11-1.31-1.82-0.81-3.14   c0.3-0.51,0.71-0.71,1.21-0.71c15.07-1.1,12.16-1.45,14.46,1.31C200.06,522.26,198.67,521.14,200.38,523.28z M463.42,511.64   c0.1-0.1,0.1-0.1,0.1-0.2c0.1,0.1,0.2,0.1,0.3,0.1C463.73,511.54,463.53,511.64,463.42,511.64z M497.1,513.06   c0.49,1.29-0.34,2.14-1.31,1.82c-8.09-1.72-16.27-1.85-24.17-4.35c-2.68-0.85-11.02-2.25-13.05-0.3   c-2.94,2.83-10.28,0.89-13.65,3.54c0.45,1.82,4.09,1.24-42.17,7.48c-22.47,3.03-66.02-4.34-67.45-5.06   c-0.29-2.04-1.87-2.01-3.54-2.53c-11.98-3.76-10.79-2.55-11.33-5.16c-2.55-1.27-2.36-1.65-4.55-0.91c0.4,1.16,1.82,1.48,2.6,2.16   c0.47,0.41,0.49,0.74,1.42,1.56c3.15,2.79,6.07,2.17,5.9,3.77c-2.12,0-4.15-0.3-6.07,0.71c-0.59,0.35-7.54-0.06-9.71-0.51   c-10.39-2.14-13.39-0.06-16.59-2.02c-55.4,0-48.58-2.31-75.14,0.3c-11.63,1.15-29.96,1.64-37.82,5.16   c-2.2,0.98-4.91,0.72-5.64,0.23c-1.83-1.86-4.92-2.29-7.01-4.27c-0.35-0.5-1.62-0.22-3.29-1.19c-3.69-2.17-4.22-10.03-3.69-14.28   c0.81-0.34,1.2-0.95,2.22-0.61c0.4,0.4,0.51,0.81,0.4,1.31c-0.3,1.01-1.62,0.2-2.02,1.42c1.42,1.08,2.72,0.96,4.64,2.11   c6.83-0.98,6.17-0.9,6.17-1.92c5.25-1,17.71-4.5,24.57-8.09c2.73-1.42,5.76-1.92,8.6-2.83c0.51-0.2,1.11,0.1,1.92,0.2   c3.97-2.65,11.05-3.43,15.78-5.66c33.73-15.93,44.05-7.41,67.96-4.85c1.65,0.18,11.73,1.01,12.94,0.4   c2.54-1.27,11.6,0.82,24.07-4.15c8.89-3.54,18.97-6.52,28.22-9c6.56-1.76,9.53-0.42,30.54-2.53c14.38-1.44,11.01-2.36,18.61-3.74   c7.94-4.85,0.54,0.85,0.4,15.07c-0.02,1.87-2.11,5.26-0.3,14.66c2.83,14.71,9.91,25.92,9.91,26.6c0,0.1,0.2,0,0.61,0.1   c0.13-0.93-6.94-21.44-6.78-23.77c0.1-0.71,0.71-1.01,0.61-1.72c-3.03-10.61-0.72-22.94,3.03-33.27c1-2.76,0.59-2.12,7.69-6.17   c1.15,0.35,2.29,1.5,3.42,1.5c0.21,0.21,0.35,0.35,0.45,0.45c-0.46-0.52-1.69-2.05-1.54-3.05c3.94-2.55,3.27-3.74,6.47-5.97   c6.61-4.59,16.11-10.93,25.08-9.91c10.25,1.17,21.46,2.52,30.95,6.67c2.66,1.16,26.89,12.43,28.92,14.46   c-0.3,0.81-0.91,0.81-1.52,1.01c-4.08,1.07-17.28,12.14-15.35,33.05C497.94,495.76,493.38,503.21,497.1,513.06z M562.53,517.4   c-1.85,0.02-60.78-2.03-60.88-2.02c-4.34,0-4.67-23.09,3.84-45.51c2.35-6.18,7.71-8.3,14.26-8.9c9.51,4.45,19.21,4.15,29.53-0.2   c0,9.3-4.56,13.11,9.41,39.04C570.33,521.42,583.74,517.12,562.53,517.4z M601.97,481.6c-1.88,17.21-0.17,15.12-0.61,19.52   c-1.88,18.8-1.17,18.68-2.43,19.52c-2.86-2.08-7.46-11.97-8.35-12.74c-0.53-0.46,0.16,1.23,0.16,3.94c0,5.08,4.38,3.49-9.1,6.27   c-0.99-3.75-4.83-0.39-18.51-16.59c-4.08-4.83-4.05-5.39-5.36-9.3c-2.39-5.28-5.66-15-5.66-17.39c2.04-2.72-1.7-7.61,1.62-17.19   c19.56-12.06,43.98-37.24,45.91-34.79c-7.83,10.09-6.79,16.66-9.3,19.62c-7.73,9.1-3.59,23.98,5.06,33.58   c3.29,3.65,4.13,1.92,4.85,2.53C602.31,480.96,601.97,480.65,601.97,481.6z M701.81,591.64c-0.38-0.38-1.97,0.64-3.17,0.29   c-1.82-0.52-3.84-0.71-5.56-1.42c-2.73-1.12-5.46-1.32-8.19-1.01c-8.4,0.95-8.86,0.03-9.41,1.11c-0.09,0.83,0.48,1.19,1.31,1.31   c7.25,1.1,11.94-2.52,16.69,2.22c-1.92,0.2-3.64,0.52-5.46,0.51c-13.56-0.11-17.98,4.09-26.8,2.43c-10.63-2-5.81-7.3-28.62-32.26   c-19.93-21.81-22.13-29.71-25.18-32.06c-3.15-2.43-5.74-8-5.06-11.43c0.71-3.53,0.68-5.6,1.31-18c0.51-4.64,1.38-5.66,2.33-18.61   c1.68-23.1,7.92-21.83-1.01-36.61c-0.89-1.47-2.31-1.84-3.94-1.21c1.53,1.74,1.13,5.45,3.05,6.22c0.61,0.25,1.24,0.35,1.49,0.96   c1.41,11.27-2.47,21.24-2.83,21.24c-2.53-1.26-4.76-2.31-5.87-4.15c-7.28-12.13-9.3-15.91,0.2-37.22   c4.86-10.9,8.74-12.01,9.91-13.96c14.91-6.1,2.68-2.93,34.49-2.93c0.44,0.26,3.77,2.95,6.78,4.85c8.48,5.36,7.18,27.07,6.42,28.49   c-0.63,1.17-1.15-15.3-3.89-13.93c-2.17,0.72-0.72,3.14-0.4,14.56c0.19,7.08,0.36,7.96-3.94,14.16c-1.33,1.91-2.73,3.64-2.83,5.97   c-3.64,1.82-4.3,2.65-5.66,6.27c-0.88,2.34-1.33,4.85-1.42,7.38c-0.4,11.48-6.95,20.36-4.65,38.73c0.66,2.63,0.81,4.59,2.83,5.56   c1.22,0.59,2.2,1.62,2.53,2.93c0.75,2.95,2.51,5.47,3.54,8.29c12.07,32.99,14.1,42.28,28.42,42.17c7.82-0.06,8.04-2.59,14.56,0   c5.76,2.29,5.82,1.59,6.12,1.94c0.85,0.85-2.05-0.25-2.77,0.99c0,2.54,9.86,3.47,22.15,7.08   C706.55,593.22,703.76,593.58,701.81,591.64z M652.38,466.09c-0.09,0.1,0.13-1.29,0.16-1.48   C652.94,465.24,652.78,465.66,652.38,466.09z M652.23,466.42c0,2.02-0.7,1.79-0.7,2.12c0,0.64,0.01,1.12-0.66,1.12   c0.11-0.48,0.03-1.04,0.65-1.22C651.73,467.77,651.53,467.03,652.23,466.42z M646.36,500.21c5.04-0.84,3.98-3.3,7.58-5.46   c4.5-2.25,14.9-21.38,16.99-26.29c1.33,0.4,2.64,0.71,3.85,1.01c0,3.5-18.03,21.1-16.28,27.81c-1.11,1.62-2.22,3.03-3.24,4.55   c-5.45,8.18-0.33,4.19-5.36,10.11c-1.44,1.7-3.14,2.93-5.16,3.14c-3.72,3.4-6.49,5.6-10.62,6.78c-0.61-2.12-0.6-2.12-0.4-3.84   c0.61-5.28,1.3-11.65,2.12-13.96c4.35-12.16,4.36-32.48,12.34-33.47c1.64,0.82,1.69,0.68,1.59,0.78   C646.62,479.02,642.08,493.55,646.36,500.21z M659.31,508.61c3.37,3.71,0.88,2.41,5.87,16.28c1.82,5.06,3.64,10.11,4.85,15.47   c0.71,1.11,1.32,1.92,1.72,2.73c10.79,21.93,8.18,20.08,9.51,26.7c0.21,1.44,0.11,1.43-1.92,8.9c-9.67,1.47-17.53,4.11-21.84-5.76   c-2.39-5.48-5.02-10.73-6.98-16.28c-7.15-20.26-13.57-30.57-13.45-31.65c9.65-5.2,16.07-7.67,17.29-12.94   c0.8-3.44,2.56-6.49,3.64-9.81c0.09-0.26,0.1-0.83,0.69-0.84C659.95,501.37,658.35,505.93,659.31,508.61z M692.28,585.16   c1.24-0.36,4.58,0.64,1.23,0.44C692.57,585.61,692.35,585.56,692.28,585.16z M696.43,585.78c2.93,0.39,5.87,0.39,8.9,2.72   C702.24,587.97,699.2,587.21,696.43,585.78z M725.25,586.58c-1.02,0.36-3.86,0.27-4.85-1.21c-0.2-0.3-0.3-0.61-0.71-1.21   C722.83,584.94,722.94,584.27,725.25,586.58z M687.93,517.3c1.28,4.39,0.76,3.07,1.72,15.37c0.82,10.45,3.07,12.2,3.74,20.63   c0.99,12.39,0.2,8.57,1.86,10.95c1.78,2.56,2.62,7.14,3.73,8.25c5.03,3.59,6.45,1.85,4.82,4.56c2.12,1.3,3.99,1.76,6.47,2.33   c3.42,0.57,6.05,2.77,6.27,3.39c0.68,1.94,1.77,3.76,3.03,5.41c-1.73,2.42-4.83-3.34-9.2-5.06c-5.09-2-1.2-1.88-6.78-3.14   c-0.5-0.11-0.91,0.1-1.01,0.91c2.98,1.49,8.17,6.48,8.07,6.5c-1.7,0.41-4.16-2.57-10.5-3.57c-2.02-0.32-3.55-1.38-5.36-2.02   c-0.81-0.29-1.21-1.42-2.43-1.42c-2.87-0.24-0.24,4.59-10-1.04c-1.03-0.59,0.91-5.46,1.41-8.57   c-3.76-24.04-12.55-30.59-15.07-40.76c-2.86-11.52-6.37-17.92-6.78-25.69c-2.44-12.18-0.6-3.3,2.53-15.37   c4.65-6.27,9.61-12.14,12.84-19.21c2.39,0,2.54-0.48,2.93,6.67c0.66,12.14-3.35,17.16,1.92,25.38   C684.56,505.56,685.06,507.44,687.93,517.3z M713.92,500.52c0.27,0.27-0.06,0.63-0.51,0.18   C713.21,500.49,713.43,500.02,713.92,500.52z M713.62,504.86c-0.1-0.98,0-1.84,0.61-2.63   C714.83,503.35,714.83,503.35,713.62,504.86z M769.75,483.83c1.72-2.43,3.44-4.65,5.16-6.88   C774.5,480.19,772.58,482.31,769.75,483.83z M771.37,478.97c0.74-3.69,6.03-10.55,2.83-18.91c-0.55,13.72-7.34,23.07-11.73,25.28   c-0.11,0.11-0.25,0.54-0.3,0.71c1.22,2.43-0.07,1.5-0.81,2.73c-0.49,0.59-0.03,1.53-0.81,1.92c-10.82,4.21-14.57,2.83-20.63,5.26   c-3.41-1.71-5.67-2.84-9.71-1.11c-2.18,0.93-9.5,4.41-11.16,6.07c-3.64,3.64-2.91-3.63-3.79-5.57c-0.51-1.11,0.1-2.33-0.3-3.34   c-2.01,0-1.44,2.39-2.54,2.94c-1.52,0.3-3.14,1.01-4.75,0.2c-1.94-2.84-0.31-8.38-3.34-6.87c0,0.01-0.01,0.02-0.01,0.02   c-1.28,2.23,2.97,5.27-0.9,5.95c-4.29,0.33-2.09-3.36-9.81-1.82c-2.65-1.2-5.41,0.25-3.74-11.93c1.21-8.85,1.32-7.47-0.91-10.82   c-1.03-0.62-0.72-0.65-3.94-1.01c-4.85-0.54-0.99-1.87-12.54-2.63c-0.88-0.06-4.6,0.34-4.95,0.85c-0.67,0.98,1.08,0.99,1.51,1.68   c-6.81,11.49-9.4,16.08-14.87,22.45c-0.82,0.95-2.84,3.9-3.71,4.8c-1.54,1.6-2.91,1.04-2.66-1.26c0.08-0.78,0.75-7.77,1.31-8.9   c3.79-8.85,2.44-13.73,7.99-23.06c3.51-5.91,3.44-9.48,5.36-11.23c-0.2-4.7,3.87-11.27,1.11-20.73c-0.74-2.55,0.32-3.48-1.72-6.88   c-0.21-0.41-0.9-0.9-0.2-1.52c6.4,4.32,14.77,8.8,14.87,8.8c2.97,0.07,5.17,2.85,10.82,4.05c13.66,2.89,15.43-0.51,18.51,1.72   c0.82,0.59,0.3,1.52,1.11,1.72c0.61,0.2,1.2,0.19,1.72-0.2c11.02-8.43,6.93-4.96,7.89-5.76c-0.34-2.65,1.15-3.71,8.9-8.91   c0.63-0.42,0.53-0.86,0.6-0.92c0-0.67-5.24,1.87-9.43,6.02c-2.14,2.12-0.63,2.86-1.68,3.91c-0.1,0.03-0.22,0.12-5.06,2.83   c-0.61-0.51-1.6-0.31-2.11-1.5c0-0.29,4.04-2.59,5.41-6.98c0.12-0.46,10.42-6.84,25.22-7.09c7.28-0.12,2.46,2.37,7.38-0.71   c1.95-0.18,4.43,0.01,2.95,1.29c-2.35,2.04-10.95-1.48-20.15,16.4c-0.07,0.07,0.25,0.4,0.4,0.71c1.4-1.4,2.49-4.01,5.06-6.57   c7.61-7.61,0.53,1.05,0.75,5.46c0.11,2.25,2.31-4.68,8.06-10.32c0.31-0.3,0.71-0.61,1.21,0.1c-0.06,0.11-5.63,8.88-5.46,10.33   c0.35,2.95,5.34-9.6,11.83-16.09c1.07-5.36,7.6-10.54,4.05-15.27c-0.4,4.55-2.63,8.19-4.96,11.43c-6.67,2.22,1.15-9.23-8.7-7.58   c0,1.11-0.91,1.72-1.72,2.43c-4.68,3.51-4.91,8.29-8.7,5.76c1.05-2.37,6.53-7.53,7.69-8.49c4.71-3.92,8.5-5.1,10.11-6.07   c-0.61-0.51-1.11-0.41-1.52-0.3c-10.56,2.83-14.02,10.42-15.57,10.42c0.09,0.61-0.14,1.07-0.6,1.43c0.02-0.54,0.14-1.06,0.6-1.43   c-0.18-0.91,0.82-1.74,0.82-2.72c0-0.55-1.23,0.45-1.46,0.69c-2.91,3.12-3.58,6.48-5.23,5.07c3.69-6.04,0.6-4.56,3.15-7   c3.66-3.51,11.55-9.14,17.28-8.58c5.47,0.53,10.27,1.54,14.36,6.17c0.18,6.54,0.65,14.61-3.74,9.71c1.42-2.33,1.82-4.75,1.52-7.79   c-1.13,8.07-4.9,7.16-3.54,10.42c10.66,3.74,15.39,29.63,17.58,30.68c-0.01,0.01,0,0.04,0,0.14l0.1-0.1   c-0.04-0.01-0.07-0.03-0.08-0.04c0.01-0.55,0.07-1.1-0.1-1.66c-7.16-23.46-8.72-19.79-7.48-21.84c4,4,8.64,11.45,9.71,18.1   c2.06,12.86,5.88,17.13,2.51,29.61C774.62,474.67,773.34,477.49,771.37,478.97z M736.37,417.59c0.91-2.33,2.43-4.45,4.25-6.07   c0.1-0.1,0.4,0,0.71-0.1c1.01,1.01,0.55,1.16,1.91,0.81c0.36,1.49,0.1,2.84-0.6,4.15C739.41,416.84,741.22,417.59,736.37,417.59z"/>
	<path d="M424.49,454.74C424.68,454.96,424.73,454.99,424.49,454.74L424.49,454.74z"/>
	<path d="M726.16,422.64c-0.13-0.13-0.09-0.14-0.12,0.04C726.2,422.63,726.15,422.64,726.16,422.64z"/>
	<path d="M694.71,109.75c0-1.21,0-2.53,0-3.74C694.61,107.25,694.54,109.75,694.71,109.75z"/>
	<path d="M697.44,499.81c0.3-0.71,0.4-1.11,0-1.52C697.44,498.69,697.44,499.2,697.44,499.81z"/>
	<path d="M418.02,109.25c0.07-0.08,0.06-0.07,0.1-0.11C417.79,109.03,417.95,109.11,418.02,109.25z"/>
	<path d="M760.24,47.86c-0.12-0.16-0.1-0.21-0.1,0C760.14,47.98,760.1,47.99,760.24,47.86z"/>
	<path d="M734.76,437.11c0.03,0.03,0.07,0.07,0.1,0.1C734.81,436.94,734.88,437.03,734.76,437.11z"/>
	<path d="M276.23,165.98c-1.13-2.25-13.35,3.34-13.45,3.34c3.16-0.2,8.19-1.62,11.04-2.22   C275.09,166.82,275.87,166.83,276.23,165.98z"/>
	<path d="M322.45,152.83c9.15-1.22,13.84-5.94,0.51-1.17C322.08,151.91,321.94,152.83,322.45,152.83z"/>
	<path d="M254.39,171.64c-2.43-0.61-4.65,0-7.58,1.01C249.51,173,252.27,173.35,254.39,171.64z"/>
	<path d="M297.07,184.18c-2.02-0.1-2.93,1.82-4.25,2.63c1.5-0.58,3.3-0.59,4.52-1.8C297.39,184.96,297.18,184.53,297.07,184.18z"/>
	<path d="M459.58,143.32c0.39,2.36,0.51,4.71,1.91,6.8C462.21,151.19,459.89,143.32,459.58,143.32z"/>
	<path d="M316.58,177.81c-1.61-0.81-1.64-0.79-3.14,0.61C314.66,178.82,315.67,178.92,316.58,177.81z"/>
	<path d="M232.04,175.99c-1.52-0.51-2.53-0.1-3.44,0.61C229.87,176.9,229.9,176.9,232.04,175.99z"/>
	<path d="M340.45,145.75c-0.91-0.51-1.52-0.1-2.22,0.71C339.24,146.76,339.74,146.26,340.45,145.75z"/>
	<path d="M311.63,185.09c-0.98,0.3-1.02,0.31,0,1.42C312.03,185.9,312.03,185.49,311.63,185.09z"/>
	<path d="M237.5,174.67c-0.68-0.38-1.07-0.42-1.72,0.1C236.3,175.3,236.87,175.03,237.5,174.67z"/>
	<path d="M241.95,173.36c-0.71-0.51-1.01,0.1-1.42,0.51C241.16,174.31,241.56,174.01,241.95,173.36z"/>
	<path d="M192.7,194.29c-0.3-0.71-0.81-0.51-1.52-0.2C191.87,194.68,192.16,194.61,192.7,194.29z"/>
	<path d="M333.07,149.49c-1.15-1-1.94,0.5-1.62,0.18C331.67,149.63,333.03,149.49,333.07,149.49z"/>
	<path d="M421.25,103.88c-0.4-0.4-0.81-0.51-1.21,0C420.44,104.19,420.85,104.39,421.25,103.88z"/>
	<path d="M461.79,151.07c0.15-0.3-0.24-0.54-0.28-0.67C461.7,150.79,461.6,151.44,461.79,151.07z"/>
	<path d="M467.27,151.8c0.19,0.05-0.06-0.82-0.62-1.21C466.63,151.11,466.57,151.67,467.27,151.8z"/>
	<path d="M347.13,142.41c-0.2,0.2-0.51,0.2-1.01,0.3C346.82,143.2,347.01,143,347.13,142.41z"/>
	<path d="M347.49,142.37c0.11-0.04,0.24-0.06,0.34-0.06C347.54,141.93,347.24,142.63,347.49,142.37z"/>
	<path d="M185.93,195.89c0.16,0.03,0.45-0.13,0.7-0.18C185.6,194.88,185.44,195.8,185.93,195.89z"/>
	<path d="M467.47,152.43c0.47-0.39-0.03-0.39-0.2-0.51C467.37,152.02,467.37,152.22,467.47,152.43z"/>
	<path d="M466.65,150.4c-0.04,0.04-0.03,0.03-0.09,0.11C466.67,150.56,466.65,150.67,466.65,150.4c0.01,0,0.01,0,0.02,0   C466.66,150.4,466.65,150.4,466.65,150.4C466.65,150.39,466.65,150.39,466.65,150.4C466.65,150.39,466.65,150.39,466.65,150.4   c-0.08-0.08-0.12-0.09-0.24-0.16C466.27,150.17,466.49,150.38,466.65,150.4z"/>
	<path d="M418.12,109.24c0.15,0.15,0.13,0.15,0-0.1V109.24z"/>
	<path d="M634.64,186.41c-0.3,0.2-0.51,0.4-1.01,0.71c1.8,2.7,1.63,6.1,2.99,8.72c0.08,0.25,1.29,0.48,1.66-0.63   C639.12,193.52,636.52,187,634.64,186.41z"/>
	<path d="M606.22,123.4c0.6,4.91,2.17,9.85,5.66,13.35c-3-7.67-3.29-8.71-4.65-14.16C606.64,122.59,606.11,122.82,606.22,123.4z"/>
	<path d="M631.28,183.74c0.43,0.39,0.9,0.78,1.44,1.15C632.3,173.27,625.22,178.17,631.28,183.74z"/>
	<path d="M599.55,92.96c1.75,0,1.99-1.35,1.82-1.52c-0.4-0.61-0.71-1.31-1.21-1.82c-1.42-1.21-2.02-3.14-3.94-3.84   C597.42,88.31,597.32,91.34,599.55,92.96z"/>
	<path d="M610.37,82.44c0,0.58,0.36,0.96,0.66,1.26c-0.39-1.44-3.23-6.87-4.39-13.1c-0.23-1.22-0.83-1.31-0.91-1.42   C604.38,70.54,608.38,82.54,610.37,82.44z"/>
	<path d="M637.57,50.38c0.34-0.34-2.51-2.11-4.35-5.36c-0.49,1.97,0.64,2.85,1.11,3.84C635.63,51.57,637.33,51.6,637.57,50.38z"/>
	<path d="M621.59,191.87c0.37-0.24,0.86-0.65,0.61-1.01c-0.98-1.44-0.4-3.74-2.02-4.85C617.93,186.27,620.61,190.74,621.59,191.87z"/>
	<path d="M615.63,90.94c0.1-1.11,0.1-1.11-1.52-2.43C613.99,89.79,614.11,89.8,615.63,90.94z"/>
	<path d="M616.23,142.42c-0.4-1.63-1.21-2.23-2.12-3.04C613.98,141.05,614.12,141.07,616.23,142.42z"/>
	<path d="M620.45,93.98c0.28-0.05-0.29-1.31-1.69-1.02C619.04,93.82,619.62,94.14,620.45,93.98z"/>
	<path d="M621.9,153.13c0.4-0.61,0.2-1.01-0.4-1.31C621.12,152.41,621.34,152.92,621.9,153.13z"/>
	<path d="M611.07,83.76c-0.04-0.04-0.09-0.12,0,0.1V83.76z"/>
	<path d="M619.77,146.96c0.15,0.1,0.15,0.06,0.05-0.01C619.79,146.94,619.77,146.93,619.77,146.96z"/>
	<path d="M619.72,146.82c0.06,0.01,0.11,0.02,0.15,0.04C619.87,145.79,618.91,146.82,619.72,146.82z"/>
	<path d="M620.68,94.28c-0.13-0.38-0.07-0.33-0.2-0.2L620.68,94.28z"/>
	<path d="M611.18,83.86c-0.13,0.13-0.15,0.07,0.1,0.2L611.18,83.86z"/>
	<path d="M701.7,52.41c0-1.36,2.78,0.18,5.97-3.54c0.48-0.56,1.11-1.04,1.69-1.6c-0.31,4.51-5.53,4.44-0.27,7.07   c1.11,0.1,1.72-0.81,2.43-1.42c5.01,3.51,4-0.95,6.67-1.62c0.17-1.04,1.18-2.51,0.85-3.49c0.44,0.16,1.06,0.37,1.06,1.19   c-0.49,1.24-0.62,2.16-2.01,2.4c-0.14,2.75-2.81,4.97-0.84,6.92c0.44,0.44,0.99,0.7,1.65,0.76c0.2-0.3,0.4-0.51,0.4-0.71   c-1.02-7.68,1.36-4.25,2.93-10.01c-0.2-0.3-0.31-0.9-0.61-1.11c-4.9-3.4-7.43-5.71-10.42-4.15c-1.18,0.39-2.09-0.13-0.37-1.58   c6.33-5.36,2.52-4.22-2.37,0.67c-1.01,0.71-2.53,0.2-3.34,1.21c-0.41,0.41,0.26,0.8,0.87,0.8c0.56,0,0.74-0.12,1.44-0.06   c2.48,0.39-1.42,2.63-2.81,4.72c-2.02,0.61-3.94,1.31-5.56,2.63C698.71,56.43,708.82,56.29,701.7,52.41z M718.62,47.5   c0.13,0.13-0.66,0.09-0.97-0.27C717.29,46.88,718.35,47.29,718.62,47.5z M716.96,49.88c-1.99,0.16-1.43-1.39-1.69-1.13   c-0.95,1.05-0.61,0.67,0.07,3.05c-1.87,2.94-1.93-0.75-3.64-0.91c-0.61-0.3-1.31,0.91-1.92,0c1.39-4.17,4.69-4.41,5.43-2.39   C715.31,48.71,716.46,48.06,716.96,49.88z M715.34,45.53c-1.89,0.48-3.76,0.86-5.57,1.32C711.92,44.65,712.61,44.45,715.34,45.53z"/>
	<path d="M734.76,56.86c-0.37-0.05-0.2,0.04-0.1,0.1L734.76,56.86z"/>
	<path d="M736.37,64.24c0.2,0.1,0.51-0.1,0.91-0.2c-0.27-0.67-1.24-0.61-2.19-1.46c-2.71-2.4-0.91-1.61-0.65-3.07   c0-0.12-1.55-1.36-1.93-1.74c0.58-0.48,1.21-0.89,1.97-0.89c-2.04-1.16-2.88-3.24-3.5-5.48c-2.36-8.55,0.85-14.36,0.51-17.5   c-3.01,0.75-2.89,17.59-2.93,20.12C728.52,56.3,731.92,62.55,736.37,64.24z M730.51,54.53c0.71,0.71,1.31,1.62,1.31,2.63   C730.1,56.05,730,56.05,730.51,54.53z"/>
	<path d="M725.96,85.17c-0.63-0.54-0.98-2.12-1.92-2.12c-0.91,2.33,2.22,2.83,2.22,4.75c-0.15,0.25-0.32,0.35-0.53,0.37   c-1.82,0.23-0.77-1.51-2.31-1.89c-0.51,1.82-1.82,3.44-1.62,5.46c0.8,0.59,1.12-0.21,2.12-0.4c0.17,0.17,1.51,0.79,3.08,0.78   c1.07-0.01,0.97-0.16,0.97-0.06c1.67,0.84,1.65,3.08,4.04,2.53C729.02,89.78,730.75,89.27,725.96,85.17z"/>
	<path d="M701.68,43.52c7.1-7.09,7.45-7.86,10.01-9.81c0.98-4.42,8.19-8.54,5.03-8.33c-1.04,0.07-5.28,4.96-5.94,5.91   C705.52,38.83,699.47,42.42,701.68,43.52z"/>
	<path d="M686.52,75.36c2.64,0.89,0.59-4.52,4.66-10.07c3.06-4.18,6.1-4.11,8.6-5.7c-0.17,0-1.93-0.61-4.25,0.3   C687.48,63.06,685.93,72.43,686.52,75.36z"/>
	<path d="M740.01,63.72c0.49,0,1.13-0.15,1.74-0.5c1.58-0.88-1.29-2-1.63-3.45c-0.67-2.81,0.14-4.88-0.51-9.41   c-1.17,2.92-1.72,6.42-1.72,9.1c-0.8-0.49-3.14-2.92-3.12-2.21C734.81,59.46,739.37,63.72,740.01,63.72z"/>
	<path d="M753.57,76.27c1,0.92,1.46-0.45,2.21-0.52c1-0.14-1.76,1.6-0.02,6.13c0.08,0.17,1.32-0.15,1.74-1.87   c0.87-3.59,0.27-9.5,0.01-9.33c-1.22,0.81-1.43,2.1-2.13,2.96C754.7,74.47,753.77,75.16,753.57,76.27z"/>
	<path d="M746.08,28.34c-1.92,1.15,1.57,2.15,6.17,13.65C756.24,51.95,752.17,32.9,746.08,28.34z"/>
	<path d="M753.77,53.93c-1.82,5.75-2.63,11.32-3.74,16.78c0,0.2,0.3,0.4,0.4,0.61C752.72,70.99,753.99,56.39,753.77,53.93z"/>
	<path d="M736.68,95.19c1.52,0.28,1.41-0.44,1.49-1.71c0.2-3.52-0.23-4.22-2.9-10.02C732.69,83.45,736.24,88.21,736.68,95.19z"/>
	<path d="M748.11,56.55c-0.59-1.47-0.49-1.94-1.11-1.31c-1.14,2.06-0.81,4.37-0.81,6.07c0.07,0.1,2.12,3.24,2.22,3.24   c-0.31-3.31,0.36-6.09,0.78-8.62C749.26,55.47,749.35,55.93,748.11,56.55z"/>
	<path d="M728.57,59.98c3.41,0-3.23-3.46-5.14-9.19C722.74,54.93,724.97,57.67,728.57,59.98z"/>
	<path d="M721.02,53.44c-0.25,0.07-0.42,0.09-0.42,0.18c-0.91,3.24,0.3,5.66,2.63,7.69c0.53,0.53,1.19,0.33,1.72-0.2   c-0.81-1.31-1.61-2.53-2.43-3.84C721.93,56.33,721.69,53.44,721.02,53.44z"/>
	<path d="M745.78,64.04c0-0.14,0.28-0.57,0.2-0.61c-1.1-2.06-1.56-2.87-3.34-3.94C743.66,62.12,743.66,62.12,745.78,64.04z"/>
	<path d="M755.69,68.93c0.01-3.23-0.38-0.11-2.33,3.8C754.73,73.91,755.68,70.66,755.69,68.93z"/>
	<path d="M736.78,48.56c-1.36,2.08-1.32,3.62-0.71,5.87C736.27,52.71,736.48,50.99,736.78,48.56z"/>
	<path d="M687.73,62.42c-1.31,0.2-2.43,1.11-3.54,2.02C686.7,64.44,689.68,63.2,687.73,62.42z"/>
	<path d="M741.03,24.39c0,1.82,0,1.82,1.42,4.75C742.54,26.62,742.54,26.62,741.03,24.39z"/>
	<path d="M679.34,68.39c0.81-0.2,1.62-0.51,2.33-0.71C682.26,65.34,676.84,68.39,679.34,68.39z"/>
	<path d="M713.82,14.59c0.78-0.52,1.11-1.13,1.37-2.03C714.3,12.97,713.91,13.63,713.82,14.59z"/>
	<path d="M715.24,12.36c-0.01,0.06-0.04,0.12-0.05,0.19C715.39,12.45,715.34,12.46,715.24,12.36z"/>
	<path d="M742.44,64.34c-0.16,0.55-0.32,1.19,0.25,1.12C743.67,65.34,743.31,65.21,742.44,64.34z"/>
	<path d="M715.34,12.46c0.39-0.19,0.57-0.58,0.91-1.11C715.39,11.35,715.45,11.92,715.34,12.46z"/>
	<path d="M749.32,55.85c0-0.29,0.38-0.53,0.1-0.91C749.42,55.11,749.32,55.82,749.32,55.85z"/>
	<path d="M760.04,47.76c-0.13,0.13-0.15,0.08,0.1,0.2L760.04,47.76z"/>
	<path d="M701.59,39.02c0.1-0.1,0.51-0.34,0.51-0.57c-0.48-4.06,7.99-9.17,7.99-10.92c-2.1,0-7.68,5.94-9.2,8.49   c-0.3,1.38,0.51,1.98,0.51,3.05c-0.61,0.15-0.8,0.81-0.59,0.76C701.54,39.84,701.37,39.16,701.59,39.02z"/>
	<path d="M684.09,64.34c-0.1,0.1-0.1,0.2-0.2,0.2C683.99,64.54,684.09,64.44,684.09,64.34z"/>
	<path d="M742.75,59.39c-0.13-0.27-0.1-0.27-0.1,0C742.64,59.51,742.59,59.54,742.75,59.39z"/>
	<path d="M661.87,167.17c-1.5,1.5-0.94,4.1-0.94,11.35c0.71,0.42,1.06,0.3,1.28-0.02C663.38,176.81,665.28,164.52,661.87,167.17z"/>
	<path d="M649,149.9c1.59-2.38-0.79-3.06-0.15-0.6C648.9,149.49,648.96,149.68,649,149.9z"/>
	<path d="M649.61,155.05c0.61-0.91,0-1.31-0.4-1.82C648.19,154.01,649.51,154.37,649.61,155.05z"/>
	<path d="M512.66,103.12c5.99,1.94,12.76,0.19,7.9-1.97C511.43,103.34,512.35,103.02,512.66,103.12z"/>
	<path d="M273.68,486.11c-1.33,0.01-10.29,1.27-11.61,1.46c4.98,0.86,11.89,0.19,12.11,0.08   C276.09,487.22,275.06,486.1,273.68,486.11z"/>
	<path d="M322.75,481.1c0.08,0.12,0.29,0.71,0.4,0.71c2.47-0.04,7.49-0.38,9.51-1.82C329.33,479.99,325.99,479.68,322.75,481.1z"/>
	<path d="M245.69,488.89c3.44,1.21,4.05,1.31,7.69,0.2C250.44,487.87,248.22,488.28,245.69,488.89z"/>
	<path d="M459.59,494.55c0,7.54,0.07,3.7,0.71,8.49c1.05-1.05-0.16-3.18-0.46-7.83C459.79,494.29,459.59,494.89,459.59,494.55z"/>
	<path d="M292.31,508.4c-1.52-0.1-2.63,0.81-4.05,1.82C290.2,510.65,294.07,509.72,292.31,508.4z"/>
	<path d="M309.81,505.67c1.06,0.58,2,0.64,3.64-0.4C311.14,504.67,311.11,504.67,309.81,505.67z"/>
	<path d="M226.27,489.9c1.14,0.65,2.37,0.35,3.64,0.01C228.3,489.19,227.29,489.19,226.27,489.9z"/>
	<path d="M466.16,505.77c0.11-0.94-0.26-1.46-0.71-2.12C464.9,504.51,465.35,505.15,466.16,505.77z"/>
	<path d="M339.64,478.17c0.91,0.61,1.52,0,2.12-0.61C340.85,477.15,340.15,477.26,339.64,478.17z"/>
	<path d="M427.42,449.34c0.2,0.81,0.2,0.81,1.11,0.71C428.23,449.75,427.93,449.34,427.42,449.34z"/>
	<path d="M180.56,501.53c0.63,0.36,1.24,0.36,1.82-0.1C181.58,500.95,181.04,501.12,180.56,501.53z"/>
	<path d="M348.5,475.76c-0.31,0.62,0.95,0.55,0.95-0.42C348.36,475.7,348.59,475.59,348.5,475.76z"/>
	<path d="M233.57,489.09c0.54,0.64,1.12,0.56,1.81,0.09C234.82,488.62,234.26,488.74,233.57,489.09z"/>
	<path d="M238.51,489.09c0.61,0.3,1.11,0.4,1.42-0.3C239.32,488.28,238.92,488.68,238.51,489.09z"/>
	<path d="M186.53,500.72c0.49,0.99,0.9,0.93,1.42,0C187.51,500.45,186.98,500.39,186.53,500.72z"/>
	<path d="M306.27,511.64c-0.51,0.51-0.4,1.01,0.1,1.52C307.18,512.35,307.18,512.35,306.27,511.64z"/>
	<path d="M332.76,480.09c0.19-0.11,0.8-0.1,1.01-0.1C333.27,479.48,333.07,479.99,332.76,480.09z"/>
	<path d="M424.74,454.85c-0.13,0.13,0.54,0.51,0.66,0.56C424.73,454.74,424.84,454.75,424.74,454.85z"/>
	<path d="M425.3,455.51c0.13,0.13,0.1,0.16,0.1-0.1C425.34,455.47,425.33,455.48,425.3,455.51z"/>
	<path d="M728.39,433.36l-0.1-0.1C728.28,433.46,728.17,433.41,728.39,433.36z"/>
	<path d="M744.97,461.78c-0.09-0.11-1.58-1.97-1.48-2.07c0.06-0.07,1.1-1.45,1.03-1.52c-0.78-1.25-0.99-1.2-1-1.58   c-0.01-0.58,0.42-0.73,0.42-1.73c-4.15-9.89,2.08-19.18,1.93-23.04c-3.93,5.98-3.64,7.48-6.17,20.43   c-0.72,2.17,4.16,11.61,6.57,11.12c0.08,0,0.39-0.16,0.39-0.29C746.6,462.12,745.37,462.37,744.97,461.78z M741.53,452.48   c0.61,0.71,0.81,1.62,1.01,3.24C740.92,453.79,740.93,453.76,741.53,452.48z"/>
	<path d="M730.41,482.21c0.12,0.12,1.58,1.28,1.64,1.97c0.08,0.97-1.46,0.83-1.93-0.34C730.11,483.74,730.41,482.26,730.41,482.21   c-1.86,0.62-0.56-0.65-3.24,3.94c-0.92,1.84-0.04,1.72,1.62,1.52c2.65,1.69,4.07,1.26,4.34,1.52c1.1,1.07,1.14,3.05,3.25,3.14   c-1.38-5.51-1.38-7.17-5.56-12.74C729.9,480.39,730.51,481.4,730.41,482.21z"/>
	<path d="M726.46,428.71c1.29-3.28,4.64-4.54,7.18-7.08c-0.91-0.61-1.52-0.3-2.12,0.1c-2.67,2.04-16.74,13.53-16.85,14.13   C713.85,438.73,720.73,431.79,726.46,428.71z"/>
	<path d="M708.97,451.87c-8.27-0.52-13.96,7.16-13.96,14.06c3.06,1.31,0.3-10.87,14.56-13.25   C709.98,452.68,709.74,451.87,708.97,451.87z"/>
	<path d="M751,452.37c0.16-1.09,0.19-1.74,0.15-2.53c-1.92,2.73-2.43,5.56-3.24,8.29c-1.21-0.3-1.31-1.92-2.83-2.22   c0.61,3.03,2.53,4.96,3.84,7.28c1.11-0.2,2.02-0.2,2.83-1.01C749.09,457.53,749.95,459.33,751,452.37z"/>
	<path d="M760.49,477.71c-0.1,0.05-0.06,0.04,0.56,0.66c0.81,0,1.31-0.61,1.82-0.91c1.4,0.7-2.34,2.16-1.2,5.64   c0.74,2.28,4.05-1.46,4.05-10.58C763.8,474.5,762.29,476.3,760.49,477.71z"/>
	<path d="M764.9,442.47c0.32,1.16,0.61,3.34,1.42,4.35c0.58-4.17-2.33-14.86-5.36-17.5C760.34,431.42,761.59,430.41,764.9,442.47z"/>
	<path d="M759.79,467.1c-1.84,4.65-1.94,4.48-1.47,5.11c1.84,1.38,6.12-13,6.07-15.89C764.52,456.19,764.87,454.23,759.79,467.1z"/>
	<path d="M740.94,481.53c-1.06,0.34,0.09,4.19,0.09,12c0.33,0.06,0.76,0.2,0.91,0.2C744.74,489.31,741.25,481.43,740.94,481.53z"/>
	<path d="M758.41,457.92c-0.6,0.2,0-1.38-0.48-1.87c-0.8-0.83-1.95,4.42-2.14,5.73c2.55,5.09,1.22,4.52,2.53-0.61   C759.31,457.28,759.89,457.62,758.41,457.92z"/>
	<path d="M739.61,456.73c0-0.25-3.21-3.87-4.45-7.98C732.55,448.67,738.28,460.71,739.61,456.73z"/>
	<path d="M733.64,458.23c2.18,0.73,0.17-1.99-0.51-4.35c-0.4-1.42-0.51-2.82-0.81-4.54C729.93,452.34,731.84,457.33,733.64,458.23z"/>
	<path d="M763.88,469.77c-0.91,1.52-1.92,2.93-2.93,4.45C763.38,473.72,763.78,471.79,763.88,469.77z"/>
	<path d="M757.61,430.84c1-6.51-2.02-9.78-0.56-2.74C757.13,428.47,757.38,429.59,757.61,430.84z"/>
	<path d="M747.75,451.13c1.45-6.27-1.38-0.55-1.26,3.27C747.15,453.19,747.52,452.13,747.75,451.13z"/>
	<path d="M699.16,453.69c-2.22-0.91-3.44,0.2-4.75,0.81C696.12,454.73,697.49,455.26,699.16,453.69z"/>
	<path d="M754.98,464.11c-0.13-2.55-0.61-2.59-2.22-4.85C753.22,462.36,753.39,462.19,754.98,464.11z"/>
	<path d="M687.73,457.64c1.72-0.1,2.93,0.4,4.15-1.01C690.28,456.09,689.14,456.61,687.73,457.64z"/>
	<path d="M750.94,463.91c0.07,0.64,0.24,1.13,0.81,1.42C752.15,464.72,751.85,464.31,750.94,463.91z"/>
	<path d="M734.3,438.28c0.63-0.41,0.26-1.07,0.35-1.58C734.02,437.55,734.16,438.35,734.3,438.28z"/>
	<path d="M726.06,422.24c0.2-0.1,0.51-0.1,0.91-0.3C726.46,421.73,726.26,422.04,726.06,422.24z"/>
	<path d="M759.96,456.48c-0.28,0.15-0.41,0.37-0.48,0.64C759.3,458.39,759.42,457.67,759.96,456.48z"/>
	<path d="M759.97,456.49c0.06-0.03,0.11-0.05,0.17-0.07c-0.13-0.13-0.08-0.14-0.18,0.07H759.97z"/>
	<path d="M771.57,449.74c0.38,0.38,0.06,1.26,0.27,0.74C771.99,450.11,771.88,449.97,771.57,449.74z"/>
	<path d="M760.14,456.42c0-0.15,0.05-0.29,0.09-0.37C760.2,456.02,760.14,456.19,760.14,456.42z"/>
	<path d="M760.23,456.05c0.01,0.01,0.01,0.03,0.01,0.07C760.29,455.97,760.26,455.97,760.23,456.05z"/>
	<path d="M734.06,407.77c-0.06,0.23,0.44,0,0.29-0.29C734.18,407.65,734.11,407.48,734.06,407.77z"/>
	<path d="M728.18,433.16l0.2-0.1C728.15,433.06,728.18,433.03,728.18,433.16z"/>
	<path d="M752.86,459.15l-0.2-0.2C752.78,459.33,752.73,459.29,752.86,459.15z"/>
	<path d="M731.93,409.81c0,0.26,0.42,0.12,0.6-0.52C731.94,409.49,732.11,409.98,731.93,409.81z"/>
	<path d="M732.81,408.89c-0.34,0.48,0.21,0.13,0.34-0.18C733.37,408.21,732.88,408.79,732.81,408.89z"/>
	<path d="M732.53,409.19c0.05,0.05,0.07,0.07,0.11,0.11C732.64,409.17,732.79,409.11,732.53,409.19z"/>
	<path d="M733.35,408.55c0,0.11,0.44-0.15,0.56-0.62C733.99,407.68,733.36,408.07,733.35,408.55z"/>
	<path d="M733.93,407.83c0,0,0.07-0.03,0.11-0.06C733.94,407.67,733.93,407.61,733.93,407.83z"/>
	<path d="M611.68,479.28c-1.59,1.27,2.24,9.05,3.14,10.62c-1.28,2.95,1.99,5.19,2.16,5.02c0.71-0.56,0.2-0.79-1.56-4.31   C614.14,481.86,614.29,477.54,611.68,479.28z"/>
	<path d="M605.31,441.87c0.85-3.15,0.71-7.4,2.12-10.21c-2.41,2.5-3.42,5.3-3.35,8.49C604.11,441.37,604.15,442.26,605.31,441.87z"/>
	<path d="M649.81,433.77c0.4-0.51,0.51-0.61,0.71-0.81c0.14-0.43-3.92-6.15-3.92-5.63C647.09,430,647.52,432.27,649.81,433.77z"/>
	<path d="M632.92,467.04c0.72-1.45,1.19-0.82-0.65-3C630.17,461.53,625.96,460.51,632.92,467.04z"/>
	<path d="M609.46,527.21c-0.47,0.59,0.22,4.02,3.84-3.24C611.68,524.38,610.67,525.29,609.46,527.21z"/>
	<path d="M618,497.74c-0.44-0.21-0.38-0.27-0.25,0.24c0.22,0.89,0.41,1.04,1.21,2.02C619.17,498.69,618.75,498.1,618,497.74z"/>
	<path d="M614.31,522.16c0.41-0.88,0.67-1.63,0.2-2.43C613.81,520.72,613.8,520.77,614.31,522.16z"/>
	<path d="M624.32,457.33c0.3,0.4,0.51,0.61,0.81,0.91C625.64,457.13,625.33,456.93,624.32,457.33z"/>
	<path d="M618.34,501.23c-0.4,0-0.24,0.44,0.1,0.38C618.58,501.59,618.75,501.27,618.34,501.23z"/>
	<path d="M607.53,431.75c0.08-0.16,0.14-0.26,0.19-0.32c-0.03,0.01-0.05,0.01-0.09,0.01C607.53,431.54,607.53,431.65,607.53,431.75z   "/>
	<path d="M607.73,431.43C607.87,431.39,607.86,431.26,607.73,431.43L607.73,431.43z"/>
	<path d="M629.28,461.98c-0.1-0.1-0.1-0.1-0.2-0.2C629.08,461.88,629.18,461.98,629.28,461.98z"/>
	<path d="M518.94,464.21c2.53,1.72,4.55,2.12,8.8,1.92C529.75,463.12,522.8,464.21,518.94,464.21z"/>
	<path d="M731.11,446.1c0.11-0.74,0.1-1.46,0.1-2.01c1.5,0.11,1.27,1.88,0,1.98c-0.29,0,0.16,0.56-0.48,1.21   c-0.43,0.43-0.67,0.64-0.8,0.72c-0.19,0.42-0.65,1.3-1.66,3.04c-0.52,0.88-0.81,1.32-0.81,2.33c0.59,1.78,2.43,2.12,2.43,1.42   c0-7.64,2.95-4.61,4.45-9.61c0.09-0.73-0.39-1.31-0.91-1.82c-3.78-3.71-6.1-6.52-9.2-5.06c-0.71,0.33-1.79-0.49-0.61-1.31   c3.38-2.33,4.52-2.53,4.62-3.6c-1.43,0.32-3.98,1.49-6.04,3.2c-1.14,0.67-3.89,0.02-3.68,1.18c0.14,0.81,1.93,0.4,2.67,1.14   c-0.44,1.32,0.82-0.31-4.05,3.74c-2.02,0.4-4.15,0.61-5.87,1.72c-0.96,3.38,3.37,5.29,4.85,3.94c-0.12-1.71-2.19-1.49-2.54-2.52   c-0.22-1.56,2.84,0.76,7.09-3.04c1.68-1.68,0.8,1.77-2.34,3.34c-0.17,0.69,0.65,1.12,1.72,2.73c1.42,0.51,2.02-0.4,2.83-0.91   c1.11,0.4,1.52,1.82,2.93,1.82c1.68,0,2.04-2.1,3.93-2.1C729.93,447.62,729.52,446.5,731.11,446.1z M727.56,441.2   c0,0.1,0.33,0.01-5.39,0.59C725.53,439.27,727.56,440.5,727.56,441.2z M725.63,448.13c-0.77,0-0.87-1.91-2-2.43   c-0.53-0.35-1.07,0.16-1.61,0.18c-2.22,0.1,3.51-6.21,5.42-1.95c-1.05,1.09-0.77,0.73-0.37,3.09   C726.78,447.71,726.3,448.09,725.63,448.13z M728.69,445.8c-1.4-0.57-1.32-1.82-1.21-1.82   C728.39,443.98,729.18,444.63,728.69,445.8z"/>
	<path d="M729.94,448C730.32,447.12,729.5,448.28,729.94,448L729.94,448z"/>
</g>
</svg>