<?xml version="1.0" encoding="UTF-8"?>
<!-- Generator: Adobe Illustrator 23.0.1, SVG Export Plug-In . SVG Version: 6.00 Build 0)  -->
<svg version="1.2" baseProfile="tiny" id="Layer_1" xmlns="http://www.w3.org/2000/svg" xmlns:xlink="http://www.w3.org/1999/xlink" x="0px" y="0px" viewBox="0 0 900 600" xml:space="preserve">
<g>
	<path d="M736.96,422.64c-2.72-2.47-3.83-4.22-9.24-13.24c0.18-5-4.08-8.05-6.16-17.86c-2.17-1.52-3.97-5.87-6.05-10.98   c-2.04-6.13,4.89-18.5-3.69-24.22c-3.59,0.51-6.67-1.95-10.47-1.85c-6.07-30.33-6.1-20.71-8.21-33.66   c-6.09-37.41-3.43-33.52-5.85-92.87c0.11-0.1,7.11-6.86,10.57-12.52c1.05-2.1,3.98-2.15,8.11-16.11   c6.77-22.91,8.82-21.87,7.49-23.4c-2.58,3.36-4.04,5.23-4.62,7.49c-5.24,20.69-4.96,17.78-7.08,19.6   c-2.26,7.49-7.09,13.54-12.31,19.39c-0.63,0.71-1.13,1.44-2.46,1.33c-0.25-0.93-0.41-12.21-0.41-12.31c0-6.52,0.26-6.28-2.57-18.16   c2.57-3.08,4.13-6.75,6.67-9.65c16.78-19.13,4.52-23.64,4.52-33.76c0-4.3-2.38-8.3,0.02-9.36c2.46,8-1.18,10.02,2.54,11.62   c0.51,0.22,1.23-0.51,1.74-0.41c1.33,0.41,1.23,2.26,2.98,1.95c-1.11-4.99,0.76-6.04-0.41-10.57c-0.51-1.99,0.63-3.19,2.98-2.36   c2.22,0.79,7.83,0.91,9.75-0.92c0.36-0.34,0.78-0.26,1.21-0.22c-0.51-0.6-1.26-0.69-1.93-0.61c-11.43,1.46-10.8-1-12.93,1.13   c-1.85,2.98,0.72,6.36-1.03,9.34c-1.23-0.21-2.05-0.92-2.77-2.05c0.1-1.95,0.51-4,0-6.05c-0.68-2.73,2.39-3.74,2.45-4.84   c-4.63-1.18-4.88,9.34-4.2-0.7c8.4-2.8,12.44,0.41,16.11-0.21c0.13,0.13,0.08,0.04-0.1,0.1c0.28,0-0.23,0.72-1.13,0.72   c-8.34-0.46-7.89-0.51-9.65-0.51c-0.53,0-0.75,0.79-1.03,0.51c0,1.09,14.46,1.99,15.39,1.33c-0.69-1.58-1.67-2.38-3.38-2.08   c-1.02-1.55-9.32-3.55-14.79-1.51c-3.95,1.47-3.92-1.1-6.26-0.51c-1.84,0.61-4.05,3.25-3.69,5.54c0.77,2.3,3.85,3.11,6.05,13.96   c0.91,4.5,2.95,6.48,3.8,8.93c2.3,6.67-0.68,9.55-4.1,15.7c-1.34,2.41-3.62,6.39-5.54,7.08c-11.01-27.24,0.04-52.84-16.42-73.78   c-2.98-0.1-5.55-1.72-8.21-2.98c-5.38-2.53-25.32-5.19-31.91-10.47c-0.82-0.41-1.44,0.41-2.05,0c-0.1-0.21-0.41-0.41-0.41-0.62   c-1.37-9.57-1.8-11.06-1.23-13.14c0.4-1.44,0.1-2.77-0.51-3.9c-0.82-0.21-1.22,0.11-1.44,0.62c-3.18,7.6,0.2,12.65,0.72,15.08   c0.68,3.19,0.72,3.28,3.39,5.44c6.85,13.7,4.79,9.64,4.41,11.9c0.1,0.72,0.92,1.33,0.51,2.26c1.29,0.32,1.25-0.54,3.28,2.98   c5.16,8.92,9.32,20.06,8.41,30.27c0,3.85-2.81,3.24-3.76,5.08c-0.2,0.38-0.31,0.02,1.91,0.67c4.1-3.59,5.35-8.21,4.62-13.14   c-1.3-8.73-3.9-17.04-9.34-24.12c-2.75-3.58-2.65-6.39-6.67-14.06c-1.22-2.33,1.3-0.95,3.62-0.05   c0.24,0.09,11.29,17.89,12.28,19.86c14.22,28.2,18,32.5,16.73,44.84c-1.7,16.54-14.96,14.44-15.29,16.42   c0.81,1.38,3.23-1.07,5.13,1.33c0,3.01-2.8-0.13-15.5,6.88c-6.9,3.81-7.71,5.58-9.75,6.26c-2.53-2.02,0.6-0.83-14.16-1.13   c-6.87-0.14-13.75-0.83-20.63-0.51c-2.16,0.1-4.41-0.22-6.57-0.72c-13.01-3.03-14.53-1.18-18.78-2.77   c-0.83-2.48-3.29-7.4-4.1-12.21c-0.51-2.98-1.74-5.75-3.08-8.41c-0.31-0.72-1.03-1.23-0.72-2.26c10.04-4.3,19.9-17.14,21.14-27.19   c2.21-18.01,3.24-28.69-5.44-43.92c4.53-2.63,8.26-6.81,8.62-7.06c0,4.89,4.72,16.36,3.49,20.2c-0.2,0.62,0.1,1.54,0.21,2.26   c2.6,17.63,2.24,22.47,11.49,35.71c4.06,5.81,10.34,5.2,11.8,5.75c18.39,5.25,28.1-1.32,28.22-2.28c0.02-0.14,0.04-0.23,0.04-0.28   c0.02,0,0.03-0.01,0.06-0.01l-0.1-0.1c0.01,0.03,0.01,0.05,0.01,0.07c-0.24-0.03-2.08,1.38-12.63,1.38   c-1.23-3.08-1.95-6.57-4.41-9.13c-0.72,2.66,1.64,5.24,1.64,9.13c-4,1.41-14.2-2.62-18.57-1.74c-3.15-1.84-8.78-14.31-10.06-17.75   c-2.39-6.45-2.15-12.33-5.13-21.45c0.31-0.82,0.62-1.54,0.82-2.26c-1.44-7.39-4.1-16.42-5.75-19.7c-0.93,0-0.86,0.04-0.62-0.1   c4.53-7.55,8.62-9.46,8.62-33.04c0.7-0.7,1.5-0.52,2.21-0.51c0.18-0.39,0.38-0.85,0.56-1.23c-0.82-0.62-1.54,0.1-2.57-0.21   c-3.08-1.64-5.37-4.44-6.88-8c-0.79-1.87-0.24-2.81-0.38-3.09c1.41-0.12,1.42-1.74,2.43-2.25c0.82,0,0.83,0.52,0.62,1.03   c-0.3,0.72-1.13,1.03-1.13,1.95c0.92,0.62,0.92,0.62,2.98-0.62c0.51,1.23-0.92,2.05-0.72,2.57c0.31,1.44,0.92,1.95,1.64,2.36   c0.21,1.03-0.31,2.46,1.44,2.57c2-1-0.31-3.44-0.62-3.9c-0.82-1.64,0-3.08-0.82-4.41c1.95-1.03,3.69,0.72,5.54,0.21   c0.1-1.23-1.55-1.03-1.44-2.15c0.09-0.92-1.13-0.92-1.44-1.64c2.46-0.31,2.46-0.31,3.8-1.44c-1.5-0.87-1.93,0.49-7.59-0.82   c3.18-0.41,6.77,0.41,9.03-2.77c-0.31-0.51-0.72-0.41-1.03-0.21c-3.88,2.66-7,1.23-13.43,2.75c0.32,2.3-3.13,4.46-0.93,8.85   c0.62,1.23,1.23,2.57,1.74,3.59c-0.51,8.31,1.33,16.32,1.23,25.14c-3.49-10.63-3.31-27.53-4.42-24.55   c-0.83,2.22,1.12,13.05,1.14,13.16c0.62,3.62,0.27,3.39-1.13,3.39c0,5.58-0.37,10.22,2.15,15.5c-2.12,3.71-3.4,6.41-6.36,8.83   c-8.82,7.18-12.56,8.38-26.27,14.88c-5.14,2.44-4.85,4.6-8.11,7.7c-7.07,6.72-9.76,14.58-10.57,15.8   c-2.67,4.52-2.67,4.52-3.59,9.95c-2.72,3.26-0.49-3.47-8.11,33.97c-1.08,5.32-0.91,13.62-7.18,23.6c-4.31,6.85-4.2,9.92-5.03,10.98   c-3.58,4.63-4.19,14.94-5.03,15.8c-2.17,2.22-12.29,45.12-12.72,47.92c-1.22,7.82-5.94,12.73-5.03,17.75   c-6.85,17.7-8.59,17.85-8.11,19.29c0.72,0.51,1.13,0.21,1.44-0.21c1.98-2.7,6.97-14.99,9.24-17.44c0.6-10.77,1.78-6.19,3.39-16.42   c0.19-1.22,1.93-11.23,2.77-13.75c4.12-9.8,4.65-19.12,8.11-27.09c4.62-10.64,3.32-20.31,10.26-29.66   c1.67-2.24,5.24-8.39,5.95-12.62c2.39-14.3,7.7-21.98,10.16-43.1c0.52-4.45,3.36-14.02,3.59-14.37   c9.42-17.32,10.25-15.31,14.98-21.75c2.23-3.03,3.44-2.96,23.91-13.03c2.15,2.77,3.22,6.04,4.21,9.34   c0.21,0.72-0.72,0.92-0.72,1.54c0.93,0.62,0.83,0.02,1.44,1.23c2,7.2,1.91,16.52,1.54,24.01c-0.39,7.77-4.72,18.8-8.41,19.09   c-3.59,6.88-9.44,10.77-16.73,13.03c0-1.95,1.44-6.16,2.77-8.31c2.83,0.3,5.44,2.26,5.44,1.96c-0.44-0.44,0.28-2.42-2.87-4.21   c-0.76-1.9-0.96-7.32-4.82-4.62c-1.11,4.73,2.56,3.96-5.64,16.52c-14.73,22.55-4.85,29.48-27.4,70.7   c-2.12,3.88-1.83,0.61-3.69,4.72c-17.26,38.03-15.55,35.53-17.34,36.43c-0.31,1.64-1.13,3.18-0.82,4.93   c1.23,0.31,0.62-1.33,1.64-1.13c-0.31,2.77-0.31,5.64-1.64,8.11c1.57,10.45-1.96-1.1,1.44,15.19c-1.54,6.36-2.87,12.93-2.26,19.91   c-1.44,0.51-2.77,1.64-4.41,0.21c-1.89-4.34-0.67-5.8,0.1-15.08c-1.82-0.42-2.57,2.36-4,3.39c-0.72,0.51-1.74,0.62-1.85,1.74   c0.51,1.23,2.15,1.44,2.57,2.77c0.62,2.46,0.21,5.13,1.33,7.49c-1.36,1.52-3.16,0.25-4.21-1.33c-2.37-3.58-5.44-6.57-8.83-9.24   c-2.98-2.65-0.56-2.4-2.87-3.59c-0.31-1.64,1.54-2.57,0.92-4.21c-1.03,0.21-1.33,1.13-1.85,1.74c-1.13,1.69-1.65,3.07-0.21,4.52   c12.84,12.84,10.75,12.4,15.91,14.88c2.36-1.54,5.44-0.92,8.11-2.15c2.69-4.04,0.42-6.83,2.46-15.6   c1.55-6.65-0.36-11.83-0.21-12.62c0.52-2.67,0-5.13-0.51-7.7c1.33-2.98,2.03-5.96,2.57-9.03c3.03-17.47,20.67-44.21,29.35-62.7   c4.42-9.4,7.48-30.92,19.09-52.03c1.44-0.51,2.67-0.21,4,0.1c0.41,2.36,1.74,4.41,2.15,6.67c1.34,7.22,6.86,16.71,7.49,28.94   c0.78,15.07,1.6,20.3-13.24,36.84c-5.49,6.12-11.06,14.07-10.88,21.86c0.42,18.2,9.79,33.36,13.24,36.12   c15.58,15.15,13.22,13.5,24.63,17.65c3.39-0.92,6.88,0.82,10.47-0.41c1.99,3.31,6.58,5.81,10.26,7.7c1.96,1.01,3.28,3.08,5.85,3.08   c-1.82,19.12,2.58,47.54,3.49,49.26c2.75,5.22,2.62,9.45,8.41,28.63c2,6.64,0.05,6.87,0,10.16c-0.2,13.76-1.03,10.88-0.41,14.37   c1.06,6-0.41,0.35-5.85,8.41c-4.2,6.23-7.78,12.46-8.72,18.57c-0.75,4.83-3.04,8.39-4.62,25.96c0,0.31,0,0.72-0.1,1.13   c-2.85,8.89-1.13,29.84-8.41,47.41c-2.26-0.31-3.59,1.44-5.44,1.74c-1.48,3.95-0.58,5.49-2.16,7.59c-0.62,3.18-1.07,6.35-0.51,9.65   c1.13,6.7-0.61,6.13-2.67,8.11c-1.74,1.67-3.48,5.37-2.16,7.39c0.94,1.43,1.33,3.08,2.87,4.1c0.62,0.41,1.03,1.23,1.44,1.85   c2.92,3.89,5.44,4.27,7.29,5.64c6.15,4.57,10.03-0.46,19.39,6.98c3.12,6.6,10.45,9,16.73,11.8c10.73,4.79,23.43-2.62,26.06-6.77   c0.91-1.44,2.46-2.36,3.18-3.8c-0.42-1.9-1.82-0.74-3.18,0.62c-5.4,5.4-8.45,3.64-10.67,7.59c-4.26,0.95-8.16,2.68-10.77,0.41   c-1.28-0.96-11.07-0.98-19.6-11.08c-9.03-10.7-18.04-1.84-26.48-13.34c-1.21-1.65-2.36-3.39-3.69-4.62   c-0.31-1.44,0.01-2.45,0.82-3.08c1.97-1.52,2.5-3.88,3.59-5.95c1.71-3.27-1.61-9.1,0.51-13.34c1.77-3.54-1.08-8.13,3.9-9.24   c1.62,2.43-2.99,0.12-1.13,9.54c1.34,6.81,7.47,8.54,8.62,8.21c2.77-0.62,5.75-0.51,8.11-2.36c0.82-2.26-0.62-4.52,0.31-6.77   c2.15-1.85,4.93-2.66,7.49-3.8c0.92-0.41,2.05,0,3.18,0.51c0.72,1.95,1.25,4.1,2.15,6.05c0.94,2.04,0.82,4.41,2.36,6.36   c-3.73,0.25-10.28,2.31-11.08,4.72c-0.56,3.91,6.34-1.38,11.9-3.08c1.13,0.41,1.54,1.13,1.74,2.15c-1.63,1.03-12.45,4.11-7.18,6.36   c3.08-1.03,6.26-2.57,9.03-4.31c4.95,1.86-3.31,2-6.88,6.46c-1.08,4.84,7.8-1.68,10.88-3.08c2.6,0.26,3.05,1.72,2.36,1.95   c-9.91,1.98-6.89,6.93-4.1,5.13c4.57-2.95,4.98-3.95,6.77-4.31c3.36,1.55,6.39,2.93,8.62,5.95c6.68,9.05,5.72,4.32,8.21,10.67   c2.37,6.04,2.6,3.37,2.16,1.74c-2.37-8.62-5.03-8.81-8.52-13.65c-3.97-5.51-10.44-5.41-13.96-10.77c-1.23-0.62-2.26-1.44-3.08-2.57   c-2.15-0.62-2.88-2.56-3.8-4.21c-4.54-8.13-2.98-11.08-5.13-13.03c-1.13-1.02-2.46-0.31-3.49-1.03   c-1.49-4.46,18.72-37.46,26.37-54.8c9.08-20.56,1.29,0.62,11.7-35.81c1.16-2.9,4.19-7,6.46-17.03c0.61-2.7,2.38-5.3,1.85-13.75   c-0.12-1.85,0.03-3.58,0.72-5.34c1.74-4.4,3.25-12.35,5.03-13.14c12.97,11.2,6.76,17.48,20.11,27.71c1.36,1.05,6.84,4.58,8.41,5.03   c3.08,0.62,5.87,1.99,8.83,2.98c5.06,1.68,21.06,2.34,26.27,1.44c0.9,0.3,2.43,2.52,4.62-1.13   C738.74,430.85,740.31,425.69,736.96,422.64z M691.8,144.14c-0.97-1.29-0.74-2.17,0.31-2.98   C692.83,142.49,692.93,143.42,691.8,144.14z M692.73,138.49c-1.03,0.41-1.74,1.54-3.08,1.54c-0.72-1.74-0.83-2.26-0.41-2.87   C691.5,133.83,693.68,135.62,692.73,138.49z M590.21,40.48c1.03-0.33,1.35-0.05,1.79,1.38C589.55,40.69,588.23,41.27,590.21,40.48z    M588.92,41.3c0.1,0.79,0.22,1.55-0.66,2.09C588.26,42.68,588.39,42.12,588.92,41.3z M588.16,43.82c0,0.69,0,1.38,0,2.06   C587.48,44.86,587.48,44.74,588.16,43.82z M591.34,56.3c1.13,0.41,0.82,1.13,0.31,1.85C590.82,57.42,590.83,57.43,591.34,56.3z    M590.21,65.53c0.72,3.28,0.72,3.28,0,6.16C590.03,69.66,589.8,67.51,590.21,65.53z M588.78,53.53c1.33,1.64,1.44,3.08,0.82,8.93   C589.19,59.58,588.26,56.71,588.78,53.53z M589.07,81.42c-2.06-2.52-1.12-2.49-1.42-3.39C589.18,79.02,589.07,81.81,589.07,81.42z    M587.34,76.2c0.22,0.46,0.32,1.07,0.22,1.68C586.87,77.49,586.69,76.86,587.34,76.2z M494.16,320.33   c-0.29-0.29-0.71-0.41,0.1-0.82C494.52,319.77,494.53,319.59,494.16,320.33z M664.2,177.9c10.14-16.71-0.49-29.84-0.62-31.5   c1.18-2.36,2.53-4.54,2.73-7.23c-0.97,0.69-4.16,5.13-4.65,4.38c-5.61-5.35-12.97-28.39-20.45-37.27   c-0.51-0.51-1.03-1.13-0.82-2.15c1.38-0.32,2.86,0.48,4,0.92c10.08,3.93,11.41,2.21,16.32,4.93c6.19,3.42,8.56,2.32,11.29,6.46   c6.3,9.56,5.53,16.32,6.57,20.11c0.62,2.26-0.72,4.62,0.1,6.88c-0.62,5.23,0.08,10.36,0.21,15.6c0.23,9.55,2.56,16.34,6.67,26.17   c1.08,2.58-0.19,2.68-3.9,8.52c-2.14-2.68-6.08-10.18-14.98-8.72c-1.39,0.23-2.63,0.27-4-0.31   C662.24,179.15,661.56,182.25,664.2,177.9z M659.58,183.34c0.51,0.72,0.92,1.33,0.41,2.15c-0.91,0.57-1.65,0.91-2.77,0.62   C657.12,184.31,658.01,183.86,659.58,183.34z M570.2,196.88c0.4-0.21,0.62-0.41,0.82-0.41c15.62,0.19,15.7,3.39,26.79,2.6   c9.39-0.68-0.55,0.58,28.11,0.58c0.41,0,0.72,0.1,2.05,0.21c-3.18,2.67-5.96,4.49-9.03,5.95c-18.04,8.61-29.62,26.77-43.61,30.68   c-0.2-0.1-2.89-0.84-4.62-1.44c-1.53-0.53-3.28,0-5.03-0.82C572.91,218.48,572.84,214.02,570.2,196.88z M557.36,294.13   c0.08-0.94-0.38,0.51-1.52-1.82c-3.39-5.95-6-12.3-7.59-18.98c-1.14-4.77,0.86-13.71,2.98-17.65c1.63-3.81,0.2-4.28,4-8.62   c7.4-8.45,5.2-6.54,8.11-9.44c2.46,0.41,1.78,0,1.74,1.75c2.32,0.38,4.65-2.08,6.98-1.04c-4.49,2.96-8.29,7.1-8.29,6.97   c0.1-1.29,1.38-1.81,1.93-2.86c0.5-0.97-0.24-1.29-0.93-0.91c-2.38,1.27-10.94,15.04-5.6,9.72c0.13-0.09,0.29-0.16,0.47-0.16   c2.23,0-3.95,0.49-5.63,22.56c-0.6,7.84,0.96,14.38,4.05,21.64C557.35,295.18,557.3,294.8,557.36,294.13z M563.29,245.78   c-0.37,0.47-0.25,0.19-0.03,0C563.36,245.68,563.34,245.75,563.29,245.78z M560.42,249.64c-0.19,2.24-1.16,1.1-0.21,0.16   C560.28,249.74,560.35,249.69,560.42,249.64z M558.11,295.44c0.21,0.5,0.5,1,0.7,1.5C558.23,296.55,558.18,296.22,558.11,295.44z    M607.56,327.72c-1.18-0.3-0.95-1.24-0.92-2.04c-0.89,0.06-1.81,0.88-3.39,0.2c-2.43-3.29-7.39-6.29-7.39-7.39   c0.23-0.89,3.65-1.87,1.44-2.98c-11.43,3.81-23.43-0.16-25.65-3.49c-1.2-1.8-11.14-7.05-10.16-16.62   c-3.7-7.39-4.63-26.59-3.9-32.32c0.7-5.48,1.35-6.16,8-17.24c12.83-10.19,10.45-3.9,27.3-18.06c5.14-4.32,2.22-0.49,12.42-9.85   c4.1-3.76,15.41-11.3,15.8-11.49c6.35-1.76,9.1-7.19,22.17-13.65c12.63-6.24,2.85-1.75,13.85-4.1c6.2-1.33,11.94-3.35,17.44,1.23   c15.06,12.54,4.11,8.9,11.29,70.4c0.26,2.27-1.15,1.8-0.72,7.29c0.96,12.21-0.79,24.6,3.9,44.13c0.22,0.92,0.5,1.85,0.41,2.67   c-0.81,7.59,8.68,30.24,8.81,39.71c0.02,1.3-2.91,1.24-4.38,2.75c-0.79,0.81-2.06,8.54-2.38,10.49c-4.52,1.54-8.52,3.59-12.83,4.62   c-3.37-1.52-2.81-3.66-3.18-6.77c-0.21-1.73,0.11-3.3,1.33-4.62c0.82,1.13,0,3.08,1.64,4c0.72-2.87,0.39-11.71-0.31-12.62   c-0.51,0-0.92-0.1-1.44-0.1c-0.93-1.33,0.84-1.23,1.13-2.36c-0.65-1.29-0.5-5.43-1.92-8.24c-0.61-1.21,0,6.18,0.07,6.92   c-3.49-5.03-5.13-10.47-6.16-15.8c-1.03-0.72-1.64,0.51-2.46-0.1c-1.02-1.63-3.27-15.77-12.42-34.27   c-4.56-9.21-5.34-16.9-8.62-24.94c-6.33-15.5-3.78-45.69,2.06-55.92c1.29-1.94-1.13-2.74-4.43,6.76   c-10.48,30.14-0.76,32.51-5.13,41.87c-0.99,2.49-9.55,15.28-17.34,22.99c-0.42,0.42-1.12,0.73-0.92,1.54   c1.15,1.15-0.23-0.1,1.33-0.1c0-1.01,0.77-0.56,0.84-0.84c0.09-0.79,1.35-0.86-0.02,0.12c-0.22,0.78-1.11,0.82-1.25,1.39   c-0.07,0.47-0.39,0.65-0.8,0.56c0.16,1.91-13.45,15.14-13.83,16.69c-1.2,0.3-1.96,1.24-2.77,2.15c1.21-0.15,2.03-0.9,2.74-1.8   c0,1.21,5.15-3.42,5.25-3.51c19.38-17.68,16.29-20.34,22.47-27.71c7.63-9.08,4.65-18.86,12.11,7.49   c5.79,20.45,11.19,20.07,4.31,20.73c-3.72,0.36-7.95,2.43-9.34,2.57c-1.03,0.1-1.95-0.21-2.98,0.41   c-7.34,3.67-6.05,0.88-21.96,13.03c-6.37,4.87-4.95,4.38-5.32,2.75C609.76,323.78,609.12,327.36,607.56,327.72z M670.87,346.91   c2.76,3.45,2.92,7.12,3.49,11.49c-1.03,1.13-1.64,2.36-3.28,2.98C670.7,356.12,671.38,351.53,670.87,346.91z M664.2,403.35   c-3.76,13.36-3.58,4.13-3.69,16.11c-0.07,7.17-1,13.58-4.82,20.22c-3.55,6.17-1.93,8.54-4.41,10.67c-0.41,0.41-0.6,1.13-0.72,1.74   c-1.27,6.6-3.69,13.03-5.44,19.5c-3.94,14.51-6.38,15.74-17.55,37.25c-9.4,18.12-6.93,15.63-8.31,16.73   c-1.63,1.29-2.16,2.56-5.44,13.14c-11.11,4.61-8.2,4.93-8.52,10.36c-1.22,1.42-5.61,2.55-7.21,2.28c-2.27-0.38-5.56-2.78-6.02-7   c1.78-3.57,6.77-17.49,7.59-28.53c0.66-8.85,2.46-12.93,2.46-21.24c0-3.02,0.88-7.35,4-26.17c1.59-9.6,5.26-14.84,10.06-24.12   c4-3.08,6.26-6.88,7.59-11.08c-0.41-1.23-1.02-2.15-0.82-3.28c0.64-3.69-0.41-7.49,0.92-11.19c0.1-0.41,0.01-1.03,0-1.54   c-0.24-17.41-0.27-7.6-2.26-17.14c-6.8-32.55-9.14-22.03-11.19-61.88c-0.12-2.26-0.21-4.62,0.31-7.08c2.36-2.67,4.82-5.24,7.8-7.39   c11.59-8.34,12.47-10.05,18.98-12.11c18.89-5.97,4.95-2.54,18.68-4.82c1.72,3.43,12.54,35.46,12.52,35.71   c-0.24,2.97,0.31,5.95,0.21,8.93c-0.3,8.22,2.08,10.67-0.51,13.85c1.27,12.23-2.34,13.28-5.85,24.01   c-1.72,5.28,3.41,6.38,4.52,8.31C665.64,399.24,664.81,401.19,664.2,403.35z M734.07,433.19c-10.42,1.27-30.61,0.03-38.79-5.54   c-3.6-2.45-7.29-4.93-10.36-8.93c-2.16-8.04-6.99-12.15-8.54-15.84c-1.12-2.67-7.79-7.35-9-9.25c-0.58-0.9-1.73-3.81-2.15-4.86   c1.64-2.57,1.54-5.95,2.98-8.83c0.72,0,1.23,0.21,1.74-0.21c1.94-7.62-1.4-15.69,3.28-16.11c0.7,1.62,0.63,3.36-0.31,5.03   c1.55,3.09,3.23,5.17,6.57,5.54c4.52-1.64,9.34-3.39,14.26-5.23c0.89-5.35,1.23-8.02,2.36-10.77c16.74-1.71,19.9-3.79,16.52,19.39   c-0.51,0.1-0.82,0.31-1.23,0.31c-4.31,0-8.41,1.64-12.52,2.67c-2.43,0.44-3.38,2.74-1.23,3.28c17.64-4.13,13.85-4.13,15.6-3.69   c0.16,0.96,1.32,1.66,0.41,2.87c-4.51-0.71-15.79,2.35-13.23,5.41c0.83,0.99,2.58,0.2,3.79-0.17c3.72-1.15,7.49-1.54,11.39-2.15   c0.59,0.94,2.17,3.35,1.74,4.21c-8.99,0.32-16.04,0.51-14.45,3.22c1.18,2.01,11.38,0.52,15.37-1.38c0.75,1.4,0.79,1.2,1.03,2.98   c-4.25,0.81-15.57,1.9-12.83,5.34c2.26,0.62,2.56,0.71,4.52,0.21c11.3-2.9,8.92-4.73,13.64,5.09c1.52,3.15-0.2,2.81,2.36,6.4   c2.36,3.32,3.54,6.91,8,10.35c0.32,0.24,1.19,1.22,1.24,1.44C736.63,428.09,736.11,430.14,734.07,433.19z"/>
	<path d="M480.1,316.84c0.01-0.05,0.02-0.09,0.03-0.14c-0.11,0.03-0.14,0.03-0.11,0.06l-0.02-0.02   C480,316.78,480.06,316.81,480.1,316.84z"/>
	<path d="M557.27,252.4l0.1,0.1C557.43,252.38,557.4,252.45,557.27,252.4z"/>
	<path d="M611.45,324.23l-0.1-0.1C611.39,324.25,611.33,324.19,611.45,324.23z"/>
	<path d="M606.73,325.67l-0.1-0.1C606.63,325.73,606.61,325.67,606.73,325.67z"/>
	<path d="M587.44,39.06l-0.1,0.1C587.44,39.13,587.48,39.17,587.44,39.06z"/>
	<path d="M597.4,58.55l0.1-0.1C597.41,58.45,597.45,58.48,597.4,58.55z"/>
	<path d="M373.9,369.79c-2.68-4.51-5.75-8.93-9.44-12.93c-0.82-3.49-2.15-6.98-2.15-10.77c0-1.92-1.79-4.68-2.67-5.95   c-2.37-3.4-3.93,0.54-5.64-1.44c-0.29-0.58-1.95-22.8-1.95-36.33c-0.1-1.85-0.1-3.69,1.13-5.34c-1.96-16.37,3.08-29.02,1.13-66.39   c-0.48-9.14-7.35-22.5-7.9-29.04c-2.26-26.8-10.44-22.46-18.47-26.78c-1.84-0.74-8.7-0.91-12.11,0.72   c-3.22,1.54-4.92,0.4-8.52,5.23c-31.6,42.45-18.58,43.55-26.58,16.01c-0.31-1.55-3.14-7.19-1.85-12.42   c0.95-3.85,0.03-5.9,1.74-7.59c7.39-7.3,3.89-22.11,1.33-27.09c0.62-3.69,3.08-5.37,3.08-19.81c0-5.66,0.6-14.33-7.18-17.96   c-3.72-3.72-11.64-7.68-17.03-7.59c-1.55,0.02-4.93-1.16-7.9-2.15c-2.14,0.92-1.91,0.81-2.98,0.1c-1.64-1.33-2.87-3.18-4.82-3.69   c-1.85-5.75-2.26-9.85-1.33-13.96c-0.29-2.65-1.62-3.01-2.05-2.15c-4.03,7.96,0.5,13.38,0.72,16.83c0.24,1.95,1,2.3,9.24,11.8   c0.1,0.21,0.41,0.1,0.72,0.21c1.25-1.8-4.01-7.91,5.34,0.92c-1.95,1.44-3.8,2.46-5.75,2.77c-1.72,2.81-1.16,9.43-0.72,11.49   c1.25,5.82-1.3,11.77-1.13,15.29c0.15,1.34-1.29,3.7-2.15,1.54c-0.76-1.45-4.51-6.32-5.49-6.36c4.97,9.96,6.19,10.78,3.44,11.08   c-3.86,0.43-12.5-0.01-14.88-2.87c-2.01-2.41-4.22-4.71-5.85-7.49c-19.36-33.09-16.6-31.46-22.99-44.23   c2.94-5.47,3.2-2.42,5.13-7.18c3.38-8.33,4.89-20.71,3.28-26.06c3.58-0.82,3.39-0.37,3.39-1.74c-0.92-0.51-1.44,0.62-2.57,0.31   c-3.9-2.15-6.46-5.64-7.7-9.85c-0.21-1.33,1.03-1.33,1.33-2.05s0.72-1.33,1.13-1.95c2.51,1.26-0.96,1.91-0.31,3.59   c1.03,1.03,1.6-0.73,2.77-0.62c0.83,1.83-2.28,1.88,1.13,4.72c0.31,0.92,0.1,2.05,1.13,2.67c0.82-0.31,1.03-1.03,1.13-1.85   c0-1.44-1.74-1.95-1.85-3.39c0-1.13,0-2.36,0-3.59c1.64-1.13,3.39,0.72,5.34,0.41c-0.1-1.23-2.26-1.23-1.44-2.77   c-5.02-1.67,1.01,0.15,2.77-3.08c-2.57,0.41-4.62,0.51-7.29,0c10.19-1.61,7.99-3.86,7.29-3.39c-5.48,2.97-9.71,0.87-13.27,3.04   c-3.01,5.72-2.69,6.09,0.54,12.56c-0.61,3.3,1.41,24.54,1.44,24.83c-2.7-0.3-3-23.95-4.82-24.73c-0.55,3.29-0.07,4.61,1.23,13.03   c0.66,4.29-0.82,3.61-0.82,5.34c0,4.1-0.6,8.31,1.13,12.21c5.2,11.71-25.81,18.6-32.84,29.14c-3,4.5-4.49,4.64-5.85,8.93   c-2.38,7.51-2.73,17.61-2.46,20.83c1.46,17.82,3.82,20.95,8.83,29.76c2.88,5.07,0.37,2.67,3.69,9.54   c17.08,35.35,14.4,24.44,18.37,42.79c1.24,5.75-6.78,32.71-5.23,41.97c1.65,6.93,1.51,16.64,3.18,26.37   c1.07,6.22,3.79,7.93,3.28,10.47c-3.51,31.8,11.3,60.63,11.6,67.11c0.33,7.17,3.97,16.28,9.03,40.64   c-1.8,3.08-0.29,23.82-3.59,34.07c-5.46,16.98-0.74,30.77,0.82,44.02c0.85,7.2,5.18,20.27,5.95,21.75   c3.91,7.5,2.25,11.51,4.72,22.88c-0.26,1.84-2.58,0.52-2.98,4.72c-0.56,5.94-3.83,9.07-3.08,15.39c0.35,2.93,0.61,3.57,6.05,10.47   c2.93,4.23,3.53,3.17,2.36,6.46c-1.95,5.51,0.34,11.75,5.03,15.08c8.6,6.12,5.98,4.9,18.27,8.41c7.08-1.13,13.14-4.31,18.16-9.95   c0-1.74,0.21-3.59,0.92-5.13c-2.37-8.82-2.42-5.29-4.1-10.06c-1.99-5.61-6.05-7.18-7.18-14.47c-0.43-2.77-2.15-5.03-3.18-7.8   c-7.75-3.99-0.97-12.68-5.13-17.14c-1.73-1.11-4.31,0.61-4.31-1.44c-2.22-26.65,6.28-53.8,5.44-57.16   c-0.44-1.78-0.06-17.68-1.44-24.83c-0.21-1.64-1.13-2.98-0.82-5.23c-1.54,1.54-1.83,2.77-1.74,4.1c0.41,6.77-0.01,13.55,1.23,20.22   c1.02,5.44,0.6,10.77-1.33,16.01c-2.77,7.51-4.87,26.16-4.82,34.17c0.04,5.6,0.8,12.46,0.21,13.65c-2.67,1.13-6.05,0.62-8.31,3.08   c-1.03,2.05-0.1,4.21-0.72,6.26c-0.72,1.03-1.74-0.21-2.57,0.21c-1.33,0.21-2.05,1.54-3.39,2.26c-1.19-1.7-1.14-5.38,0.41-6.77   c0-0.1,0-0.21,0-0.31c0.1,0.1,0.31,0.21,0,0c0-1.15,0-2.37,0-3.69c-0.61,0.82-1.1,1.64-1.33,0.72c-0.21-1.44-0.72-2.87-0.72-4.31   c0-16.85-7.66-28.44-8.31-35.4c-0.27-2.88-0.92-5.75-1.44-8.62c-1.02-5.65-0.94-11.39-1.23-17.03c-1.01-19.6,4.09-19.41,4.62-44.54   c0.12-5.99-0.74-6.51-0.72-10.26c0.1-19.27-8.98-36.09-12.93-60.44c-6.73-41.5-9.6-40.79,0.1-42.79   c26.1-5.38,31.36-5.02,53.05-1.13c2.91,0.73,3.28,1.03,3.28,5.23c0,21.55-1.14,17.44-0.41,25.04c1.05,10.86-2.78,44.49-4.31,50.08   c-6.38,23.36,0.66,11.64-9.44,52.03c0.62,0.51,1.03,0.31,1.23,0c11.38-20.23,4.78-27.12,9.65-43.41c3.1-10.36,6.61-32.69,6.36-54.7   c-0.05-4.36-1.47-9.62-1.33-11.8c1.66-26.06,1.05-21.41,4.62-21.04c11.7,1.23,19.69-3.67,29.35-9.85c3.94-2.52,5.89-4.9,10.77-9.44   c4.1-3.81,8.17-12.75,9.54-16.21c1.64,1.64,2.7,3.18,2.87,5.23c0.52,6.25,2.24,12.21,3.8,18.27c5.13,19.99,4.25,24.05,6.67,38.58   c-2.57,3.18-4.62,6.36-5.03,10.36c-0.37,3.7-1.74,5.41-7.59,12.72c-3.21,4.5,0.92,7.04,1.64,10.67   c5.75,4.31,10.99,9.32,17.03,13.14c7.18,4.53,4.73,11.24,9.95,17.14c4.55,5.13,4.55,5.84,6.67,7.29c11.3,7.68,12.26,8.4,16.32,8.62   c17.45,0.97,20.29-5.33,21.04-5.95c2.87-7.18-0.8-10.07-2.36-17.86C385.06,385.29,379.04,378.46,373.9,369.79z M205.09,42.03   c2.85-1.51,1.71,0.92,2.67,0.92c0.26,0.26-0.07,0.7-0.31,0C204.96,42.01,204.99,42.13,205.09,42.03z M204.88,42.31   c0.01,0.53-0.01,0.99-0.5,1.33C204.41,43.12,204.61,42.7,204.88,42.31z M204.17,43.89c0.08,0.79-0.02,1.57-0.41,2.45   C203.27,45.28,203.17,44.48,204.17,43.89z M207.76,57.73c0.92,1.13,0.41,1.95,0,2.98C207.35,59.68,206.94,58.86,207.76,57.73z    M204.88,56.81c0-0.51-0.1-1.03,0.82-1.33c0,2.93,0.31,8.81,0.92,11.7c0.53,2.5,0.83,3.86,0.21,6.36   c-1.59-6.61-0.72-7.76-1.13-8.93C204.81,62.03,205.09,59.37,204.88,56.81z M204.27,81.33c0.7,0,1.26,1.61,0.31,1.74   c0-0.22-0.62-0.58-0.31-1.85c-1.04-0.47-0.7-1.36-0.79-2.14C204.65,79.38,204.27,80.45,204.27,81.33z M203.24,77.95   c0,0.81,0.14,0.82,0.04,0.72C203.07,78.42,203.08,78.21,203.24,77.95z M223.05,546.5c1.95-0.31,2.68-2.65,4.52-3.49   c2.17-0.99,5.9-1.17,5.81-1.94c-0.29-2.37-1.05-4.63-0.06-6.99c2.14-0.36,4.79-1.8,7.39-0.62c1.44-0.62,2.46-1.03,3.59-1.23   c1.34,2.86,0.72,5.11,0.72,9.44c-1.83,0.51-9.83,2.75-11.19,4.1c-0.71,0.71-0.55,1.88,1.33,2.26c3.28-0.92,6.77-1.95,10.16-2.98   c5.17,4.5-7.62,2.83-10.92,6.23c-1.62,1.67-0.17,2.92,1.99,2.49c9.85-1.94,10.22-4.07,12.11-3.9c1.26,0.89,1.68,1.64,2.05,2.77   c-0.88,0.88-12.23,1.15-14.59,3.62c-1.01,1.06-0.21,2.23,0.64,2.23c5.13-0.72,10.26-1.74,14.67-4.41c0.92,0.51,1.24,1.23,1.33,2.05   c0.76,6.72,5.29,9.41,7.18,14.37c1.73,4.53,4.24,6.38,3.1,13.11c-0.2,0.78-4.91,5.86-15.21,7.92c-6.67-1.64-15.5-5.85-19.29-9.34   c-0.72-1.64-1.74-3.28-2.05-5.34c0.25-1.25,2.18-6.31,0.62-11.19c-0.33-1.64-1.65-1.64-2.87-2.26c-1.37-1.25-3.92-3.37-4.31-4.72   c-2.54-7.16-1.41-7.12,1.03-19.91c0.4-2.12,0.41-1.62,0.53-1.41C222,538.75,219.87,545.7,223.05,546.5z M281.75,214.22   c0.31,7.32,0.82,6.04,0.82,7.08c-0.92,2.15-1.95,4.21-3.39,6.16c-4.55-3.54-3.68-10.63-6.15-12.3c-1.79-1.21-1.83-2.95-4.31-11.39   c-0.73-2.47,1.45-16.62,2.98-20.73c7.85-3.69,5.33-4.14,4.98,3.94C276.32,195.11,280.96,195.48,281.75,214.22z M182.51,192.98   c-16.47-37.93-15.83-21.91-19.39-47.51c-0.62-4.44,1-19.66,3.08-24.32c2.22-4.99-0.16-3.23,2.09-5.35   c3.85-3.61,8.1-6.42,15.25-8.92c2.26,0.72,4.52,1.03,7.49,0.72c-2.02-0.52-2.77-0.72-3.49-1.03c-1.02-0.43-2.46-0.1-3.08-1.44   c1.94-2.09,4.87-3.25,7.59-4.1c5.88,10.97,6.91,12.55,8.11,18.37c1.93,9.39,12.38,26.48,0.1,33.76c-1.74-4.52-3.39-8.83-5.03-13.14   c-4.35-1.42,0.98,7.45,2.87,14.37c6.41,23.42,7.3,33.65,9,30.67c1.56-2.33-5.99-29.22-6.02-29.34c0.78-1.22,3.02-1.79,5.02-4.36   c7.88-9-3.32-30.87-4.09-34.01c-2.66-10.74-7.3-14.36-7.49-17.44c2.22-0.89,3.8-2.46,5.75-3.8c2.41,2.19,10.48,29.31,27.81,49.56   c4.05,4.73,8.05,4.38,14.37,5.64c-9.81,9.81-15.65,20.94-24.42,27.2c-3.18-0.72-5.54-1.95-7.9-3.49c-0.1-0.1-0.37,0.19-0.72,0.41   c8.08,9.51,8.22,1.12-1.53,12.77c-0.65,0.78-3.06,1.43-5.65,2.73c-2.64,1.32-3.4,3.06-4.28,5.87c-0.09,0.35,3.6-3.45,8.28-5.36   c1.6-0.53,2.28-1.67,13.65-12.72c3.38-3.94,1.44,0.52,7.49-6.36c5.44-6.18,15.54-20.73,21.14-23.29c1.1-2.02,3.58-5.43,3.6-6.65   c0.12-6.45,0.73-1.72,1.31-9.55c0.46-6.21-1.72-10.69,0.1-17.14c3.2,0.6,7.82-4.76,12.75-1.53c1.11,0.73-3.92,1.94-5.25,3.27   c1.59,1.59,6.18-3.26,13.03-1.85c0.38,0,0.52,0.2,0.21,0.51c-2.26,0.45-1.55-0.07-2.05,1.44c-2.2,1.99-4.7,1.92-6.77,4.62   c1.9,1.42,5.42-1.97,8.62-3.08c1.1,0.55,1.58,0.55,2.36,1.64c-1.46,2.04-4.33,3.57-5.23,5.75c0.63,1.27,1.8-0.67,6.05-4.21   c1.44-0.72,2.46-0.1,3.28-1.13c-5.24-5.24-1.46-1.37-5.54-7.08c-3.59-0.31-6.57-0.92-8.52-3.28c-2.36-0.51-4.31,0.82-5.75,0.72   c-11.04-9.66-9.83-6.18,3.08-4.31c3.3,0.24,17.82,7.83,18.37,14.47c-1.16,1.16-1.16,3.05-1.64,4.3c0.1-0.1,1.39-1.2,2.26-1.85   c1.54,4.88,0,4.33,0,7.08c-0.84,7.25-0.26,10.8-2.9,14.76c-0.44,0.58-2.4-2.64-4.69-3.37c0.98-7.84,0.44-10.32,3.32-13.36   c1.06-1.11,3.18-2.05,1.84-3.43c-0.07-0.07,0.03-0.13-0.53,0.55c-0.81,0.99-1.38,0.28-2.79,1.65c-1.56,1.51-3.23,6.22-3.48,8.63   c-0.95,9.17-1.99,10.17,0.92,9.44c3.59,3.18,5.46,7.2,6.26,11.8c1.24,7.18,2.8,10.43-0.72,14.88c-6.99,8.85-10.09,7.13-11.7,9.34   c-1.82,3.64,4.17,10.23-7.59,9.95c-14.79-0.35-3.55,0.52-17.03,0c1.31-4.5,6.28-10.42,6.88-10.82c1.45-0.62,3.56-0.37,4.21-2.12   c-0.51-1.23-1.95-0.31-2.46-1.54c4.41-5.75,6.67-12.72,10.57-18.88c2.86-0.82,9.46-5.42,9.13-8.93c-8.08,8.39-9,5.98-10.21,6.88   c-1.29,0.96-0.92,1.23-10.01,16.93c-9.94,17.18-6.63,9.96-18.47,31.61c-3.27,5.99-21.5,20.25-24.22,22.06   C197.23,218.38,192.86,216.82,182.51,192.98z M194.42,233.11c1.1-7.39-0.11-9.44-1.95-17.55c2.15,3.18,5.42,5.15,8.31,7.29   c13.15,9.69,5.7,8.64,26.68-7.39c5.09-3.89,7.82-7.63,15.08-22.17c12.72,1.66,22.83,0.6,24.53,1.03c0,6.16-1.44,8.61-1.33,12.83   c2.19,4.39,0.65,2.64,2.56,6.99c2.69,6.14,6.36,6.93,6.58,12c-6.86,1.96-32.66,14.13-44.54,14.47   c-19.97,0.57-35.22,7.65-38.54,6.22C191.22,246.57,192.32,247.17,194.42,233.11z M269.94,304.53c-2.46,1.23-4.93,0.51-7.39,0.72   c-1.65-19.72,1.45-28.75-1.85-25.45c-0.1,7.49-1.95,14.88-1.85,22.47c0.05,3.6-1.63,2.37-8.3-0.01   c-7.18-2.56-31.97-3.26-52.23,3.39c-2.75,0.69-0.84-3.34-2.04-9.91c-0.02-0.13-4.19-12.29-6.43-30.51   c-0.54-4.41-0.04-14.46,1.58-15.6c2.67-0.41,5.44-0.2,8.21-0.82c6.36-1.43,12.62-3.24,19.09-3.8c5.43-0.46,10.67-2.15,16.11-2.15   c5.93,0,37.18-13.55,39.71-13.55c1.87,0,2.57,1.29,2.38,1.94c-1.4,3.19-2.61,4.77-4.09,6.25c0.08,0.05,0.38,0.24,0.38,0.34   c-1.37,5.26-3.66,5.47-3.22,5.68c1.77,0.75-1.8,5.86-4.77,7.46c-4.93,16.91-1.19,4.38-2.56,16.73c-1.17,10.6,1.41,14.91,2.15,21.55   c1.17,10.32,11.51,12.61,11.28,14.45C271.36,304.5,270.72,304.14,269.94,304.53z M323.72,293.65c-4.65-17.53-2.77-13.68-5.64-21.45   c-5.23-14.15-7.37-12.09-7.9-18.06c-2.21-24.84-1.12-21.8,2.15-38.58c0.08-0.58,0.48-1.63-0.51-2.05   c-1.92,0.38-2.19,5.78-3.59,9.65c-3.79,10.43-1.87,19.44-1.64,26.37c0.22,6.66,2.03,9.12,4.1,14.88c0.63,1.74,1.54,3.28,2.87,4.52   c-11.32,22.65-15.83,25.17-31.4,33.25c-1.19,0.62-2.51,0.54-3.8,0.13c-0.32-0.1-4.92-3.34-8-6.6c-2.36-2.49-3.75-4.24-4.1-12.83   c-1.17-28.1,1.87-28.7,10.67-47.1c0.51-0.92,0.82-1.95,1.95-2.46c0.92-0.41,1.13-1.43,1.54-2.26   c20.35-41.11,21.82-38.41,27.5-47.31c3.2-5.01,7.8-7.08,13.44-7.08c2.12,0,4.32-0.46,6.31,0.46c2.78,1.29,1.53-0.44,8.06,2.1   c3.26,2.17,7.04,7.8,8.11,15.91c0.46,3.52-1.44,3.16,0,7.8c7.25,23.27,8.12,22.65,8.21,30.58c0.31,26.89,1.44,11.17-0.1,31.4   c-6.2,81.12,4.49,72.68-5.54,75.22c-7.05,1.79-3.66,7.03-5.13,9.34c-1.32,0.88-2.3,0.61-8.48,1.42c-0.11,0.02-4.25-5.77-3.53-10.34   c0.72-0.31,1.54,0,2.05-1.03c-0.21-1.95,0.33-4.11-0.21-6.36C329.22,325.27,329.88,316.86,323.72,293.65z M328.84,338.77   c-0.22,0.81-0.09-0.38-0.09-0.48C328.92,338.58,328.84,338.67,328.84,338.77z M386,406.65c-3.25,4.85-6.76,3.84-12.83,4.41   c-9.29,0.88-7.97-1.03-10.88-1.03c-4.78-0.65-10.43-4.42-12.52-8.33c-2.52-4.73-4.84-5.51-6.36-10.47   c-4.19-13.71-4.71-8.17-19.09-20.32c-4.58-3.87-4.71-8.56-5.6-9.58c-0.39-0.39-1.27-0.16-1.27-0.57c1.03-3.18,2.56-5.44,4.41-7.59   c5.01-5.83,3.03-11.35,5.34-12.01c0.75,3.76,0.2,9.31,4.93,12.93c0.1,0,11.04-2.35,12.72-3.69c-1.64-1.85-1.44-4-0.62-6.05   c1.54-1.23,3.18-1.22,4.72-1.44c8.1-1.16,6.25-2.52,8.52-1.95c0.55,1.11-0.44-1.27,3.39,14.67c-16.95,1.7-17.63,6.24-14.37,7.18   c14.46-2.77,14.45-4.17,15.23-3.47c1.14,1.03,2.13,2.05,2.32,3.78c-3.91,0-13.86-0.47-14.78,3.49c0.27,1.1,1.12,1.46,2.15,1.23   c15.86-3.5,13.02-5.1,17.57,0.82c-9.11,0.22-8.01-0.47-15.41,1.85c-2.51,0.79-1.7,3.88,0.92,3.39c3.18-0.6,4.92-0.76,13.24-3.9   c0.52-0.16,0.87-0.4,1.3-1.26c1.15,1.15,2.95,2.6,3.62,5.08c-6.68-0.7-6.03-0.87-10.36,0.31c-1.75,0.48-3.39,0.92-4.52,2.26   c-0.31,0.92-0.31,1.64,0.62,2.36c1.72,0.58,3.05-0.3,4.82-0.62c7.54-1.32,7.87-3.04,10.06-3.18c0.24,0.12,0.76,0.34,0.82,0.51   c6.04,8.05,8.69,9.65,9.54,14.37C385.92,402.44,388.67,402.67,386,406.65z"/>
	<path d="M203.65,40.6l-0.1,0.1C203.63,40.66,203.61,40.68,203.65,40.6z"/>
	<path d="M213.91,59.58l0.1-0.1C213.91,59.51,213.91,59.46,213.91,59.58z"/>
	<path d="M242.34,136.65c-0.43,0.14-0.06,0.31,0.15,0.31C242.39,136.79,242.34,137.05,242.34,136.65z"/>
	<path d="M603.45,26.23l-0.1-0.1C603.4,26.2,603.36,26.23,603.45,26.23z"/>
	<path d="M581.17,53.44c0.44,1,0.24,2.03,0.22,3.06c-0.22,10.81,1.95,20.23,2.46,20.02c0.17,0.18,0.37,0.2,0.53-0.01   c-0.18,0-0.34,0-0.52,0c0.16-0.13,0.13-1.33-0.23-3.9c-1.43-10.15-2.1-24.4,0.62-36.43c1.42,0.78,1.41,3.18,2.79,3.18   c0.23-0.99-0.51-1.88-0.02-2.97c0.94-0.39,13.6,1.36,16.83-2.67c-0.18-0.54-0.69-0.45-1.08-0.56c3.1-3.1,3.69-2.82,1.08-2.82   c-0.51-1.13,0.91-0.93,1.13-1.64c0.59-1.9,1.39-1.77-1.03-1.44c-0.18-0.28-0.37-0.65-0.56-1.03c-1.62,0.1-3.25,0.19-4.98-0.31   c1.37-1.37,3.84-0.86,4.17-1.94c-11.2,1.05-10.98,0.39-11.63,1.58c-0.2-0.42,0.16-0.44-0.24-0.54c-2.44-0.67-5.05-3.49-2.77-6.39   c4.46,3.68,8.43,0.44,12.31,3.18c-6.94,0.58-6.16,0.32-6.16,0.92c7.22,0.56,8.58-1.32,12.21-0.41c-0.31-1.54-1.23-1.74-2.15-1.85   c-11.73-1.42-13.44,0.82-15.7-3.39c0.62-2.05,2.26-3.28,3.49-4.82c1.13,0.51,1.64,1.44,2.26,2.46c3.29,1.88,5.95,2.01,7.79,3.15   c-5.99-0.34-2.45-0.57-7.57-0.67c1.8,0.78,6.38,2.18,7.76,0.8c0.19,0.13,0.63,0.5,0.34,0.21c1.85,0.1,3.69,1.03,5.75,0.31   c-0.19-0.67-0.3-1.25-0.39-1.83c-2.81,0.61-2.36,0.89-3.1-0.23c0.01-0.01,2.64-1.73,3.39-2.26c1.57,0,2.12,0.53,2.01,0.64   c0,0.23,0.66-0.2,0.24-1.04c-2.7-0.54-6.88-2.75-9.65-2.05c1.89,3.78-0.97,1.21-2.23,3.17c-0.15,0.3-3.88,0.11-4.72-2.97   c3,0,0.35-0.62,1-1.74c0.1,0,0.45-0.83,1.74-0.21c1.32,0.64,2.36,1.95,4.1,1.85c-0.24-0.96-1.24-1.37-2.98-2.67   c0.14-1.74,1.65-1.44,4.72-1.13c-0.28-0.56,0.23,0.31,0.41,0.31c5.12,0.88,11.67,4.67,13.85,3.28c1.74,1.03,3.39,1.85,5.13,2.87   c1.44-0.41,2.87-0.51,4.1,0.72c0.92-0.21,1.85-0.31,2.26-1.23c-0.49,0-0.81-0.22-0.82-0.69c0-0.11-0.71-0.02-0.92-0.12   c-1.1-0.78-3.24-2.47-5.13-3.8c-0.23-0.06-0.19,0.02,0.82-0.31c-0.1-0.6-0.55-0.52-0.95-0.61c-0.91-1.46-3.11-1.38-4.27-2.98   c2.29,0.29,9.75,1.49,9.75,3.8c1.34,0.41,1.39,0.65,0.78,1.45c-0.16-0.47-0.87-0.71-0.79-1.34c-0.51,0-1.03,0-1.44-0.1   c-0.42,1.88,2.17,2.04,2.17,4c1.44,0,0.58,1.27,1.75,1.07c0.09,0.11,0.76,0.59,0.15-0.02c0.24-0.05,0.06,0.18,0.35-0.95   c1.48,0,0.68,0.36,1.64,0.62c0-1-0.67,0.18,0-2.26c1.95,1.03,2.46,2.98,3.59,4.41c0.73,0,0.56-0.57,0.74-0.91   c3.51,1.32,5.84,12.74,7.27,17.74c-2.46,0.62-5.03-0.31-7.18,1.03c0.17,2.07,2.4,1.17,3.9,0.92c4.31-0.7,4.38,1.64,2.18,4.59   c-0.35,0.37-3.2-1.16-5.87,1.16c-0.41,1.03,1.33,1.03,1.03,2.26c-0.21,0.51,1.13,0.92,1.23,1.54c1.95,0.31,2.46-1.44,3.59-2.15   c2.26,5.03,2.18,14.17,0.41,18.88c-1.62,4.32-3.49,8.62-4.82,13.14c-1.98,6.73-5.75,4.47-9.54,5.95c2.46,0.92,4.62,0.31,6.88,0.1   c1.64-1.23,2.54-2.88,3.28-4.72c6.12-15.15,7.78-18.23,6.46-28.32c-0.42-3.21-1.09-5.87-0.62-6.98c2.65-6.21-2.17-20.8-5.75-26.68   c-4.33-7.12-24.51-11.6-31.81-9.54c-9.33-7.77-20.29-3.28-21.24,4.62c-0.46,3.79-1.23,7.7-0.92,11.6   C585.26,35.88,578.62,47.69,581.17,53.44z M598.72,15.14c1.82-0.1,3.79-0.01,5.35,1.35C600.81,17.04,598.32,15.14,598.72,15.14z    M621.1,8.74c0,0.87,0.23,0.57-1.13,0.35C620.46,8.93,620.82,8.84,621.1,8.74z M627.36,11.66c-0.21,0-0.41,0-0.62,0   C627.52,10.88,627.36,10.88,627.36,11.66z M627.48,12.27c0-0.35,0.08-0.39,0.08-0.29C627.57,12.11,627.52,12.17,627.48,12.27z    M635.46,15.09c-0.19-0.06-0.19-0.09-0.19-0.26C635.32,14.9,635.4,15,635.46,15.09z M594.63,35.36c-9.87,0-6.62,0.38-8-0.31   c-0.5-0.81-0.41-1.64,0.41-2.36c7.02,2.51,3.25,1.77,9.15,2.04C595.86,35.26,595.2,35.36,594.63,35.36z M596.44,34.66   c0.73-0.9,1.68-0.82,2.93-0.66C598.61,35.16,597.49,34.8,596.44,34.66z M599.68,33.89c0.82-0.86,1.7-0.47,2.75-0.63   C601.6,33.91,600.59,33.77,599.68,33.89z M602.12,27.36c-0.31,0.92-0.92,0.72-1.54,0.41C601.02,27.21,601.45,27.08,602.12,27.36z    M600.11,30.18c-4.18,1.58-7.27,0.75-7.65,1.47c-0.87,1.67,5.72,0.12,7.3,0.12c-2.15,1.44-4.31,1.33-6.57,1.85   c-1.05-0.31-6.82-1.68-7.02-3.63c-0.17-1.73,0.58-1.5,1.54-1.5c0.45,0.91,1.2,1.23,2.2,1.23   C589.31,27.94,587.32,28.05,600.11,30.18z M591.77,26.74c-0.08-0.47-0.48-0.7-0.76-1.12c3.37,0.1,4.16,0.47,7.31,2.04   c-1.44,0.41-2.87,0.41-4.21,0.41c-0.92,0-1.64-0.51-2.36-1.13c-0.3,1.22-1.63,0.92-2.34,1.63c-0.26-0.63,0.04-0.5-1.61-0.5   c-0.22-0.66-0.9-0.94-1.28-1.5c-0.36-0.53-0.49-1.78,0.12-2.5C588.43,24.67,589.94,26.46,591.77,26.74z M593.5,11.86   c-0.21-0.41,0.16-0.25,0.27,0C593.67,11.86,593.59,11.86,593.5,11.86z M616.18,7.7c0.31,0.37-1.25,0.23-2.04-0.38   C614.94,7.16,615.69,7.12,616.18,7.7z M613.91,7.22c-0.7-0.17-1.39-0.3-2-0.67C613.5,6.56,613.78,6.57,613.91,7.22z M602.51,3.14   c0.06-0.18,0.6-0.07,0.84,0.41C602.68,3.88,602.37,3.88,602.51,3.14z M602.22,2.83c0.1,0.1,0.21,0.21,0.21,0.21   C602.28,3.04,602.1,3.03,602.22,2.83z M611.35,6.22c0.05,0,0.07,0.05,0.1,0.11c0.07,0.2-0.38,0-1.33,0.21   c-9.08,1.99-7.55,1.54-8.3,0C601.92,6.46,606.83,4.38,611.35,6.22z M595.49,2.24c0.21-0.67,0.1-1.33,1.96-1.34   c2.06-0.02,5.05,3.68,2.78,3.63c-0.99-0.02-1.54-1.5-3.21-1.5C596.51,1.87,595.32,2.57,595.49,2.24z M588.16,4.88   c2.04-2.76,4.23-2.93,7.22-2.58c0.1,0-0.12,0.89,1.51,0.93c0.09,0.83,1.3,1.01,1.11,1.95c-2.34,0.38-1.64,0.02-1.64,1.64   c-2.66,2.66-3.29-0.08-3.29,1.94c-0.92,1.44-2.77,1.13-3.9,2.46c-1.33,2.05-2.77,4.41-4.21,6.77   C585.07,14.84,585.67,8.27,588.16,4.88z"/>
	<path d="M605.81,27.05l-0.1-0.1C605.67,27.11,605.61,27.05,605.81,27.05z"/>
	<path d="M587.03,39.47l0.1-0.1C587.04,39.4,587.08,39.27,587.03,39.47z"/>
	<path d="M583.95,76.72c-0.16-0.24-0.1-0.32-0.1,0.1L583.95,76.72z"/>
	<path d="M610.33,15.04c-0.02-0.05-0.05-0.1-0.1-0.1L610.33,15.04z"/>
	<path d="M629.52,14.33c-0.09,0-0.1,0.01-0.1,0.1L629.52,14.33z"/>
	<path d="M607.97,16.69l-0.1-0.1C607.89,16.7,607.85,16.73,607.97,16.69z"/>
	<path d="M602.73,23.97l-0.1-0.1C602.61,23.96,602.52,24.03,602.73,23.97z"/>
	<path d="M199.34,76.41l0.1-0.1C199.37,76.29,199.34,76.15,199.34,76.41z"/>
	<path d="M196.98,58.86c-0.03,3.02,0.57,16.46,2.37,17.38c0.02-1.27-2.68-35.24,1.22-39.14c1.23,2.21,1.56,3.49,2.87,3.49   c-0.72-2.46-1.33-4.82-0.72-7.49c0.4-0.28,0.95-0.37,0.87-0.51c-0.33-0.65-2.88-3.1-0.13-3.82c0.25,1.55,1.54,1.57,2.75,1.97   c-1.18-1.91-2.37-2.02-2.63-2.01c0.04-0.01,0.09-0.01,0.17-0.03c-0.31-0.62-0.72-1.33-1.13-1.95c0-3.99,2.16-0.06,4.75,0.18   c0.36,0.03,0.52,0.19-0.31-1.28c2.74,0.36,5.37,1.48,7.37,1.92c-0.69,2.42-6.17-0.15-6.77,1.95c2.7,0.09,6.23,0.3,8.93,1.33   c-2.6,0.87-5.82,1.03-8.11,1.54c2.6,1.09,4.73,0.07,6.67,0.72c-7.12,3.12-9.73-0.65-11.48-0.32c0.12,2.12,6.21,3.02,10.05,2.06   c1.05-0.26,2.19-0.39,3.24-0.49c-3.07,2.89-10.46,0.84-11.97,2.13c-0.65,2.27,10.33,0.32,12.11,0c1.22-0.22,2.53-0.62,3.16-2.01   c-0.37-0.18-0.75-0.37-1.21-0.55c2.96-2.63,3.24-1.87,1.95-3.59c0.16,0.94-0.79,0.66-0.86,0.43c-0.21-0.36,0.39-0.59,0.76-0.46   c0.15,0.05,1.6-3.15,1.64-3.25c-0.62,0.21-1.23,0.41-1.64,0.82c-0.62,0-0.41-0.82-0.92-1.03c-2.46,0.31-2.46,0.31-5.54-0.82   c2.05-0.51,3.9-0.31,5.34-1.54c-0.27-1.09-1.98,0.65-10.67,0.51c-0.9-0.01-1.47,0.01-2.05,0.6c-0.3-0.45-1.82,0.17-3.8-3.79   c0.99-4.97,2.41-1.1,4.46-1.23c-0.01,0,0.02,0.01,0.04,0.1l0.1-0.1c-0.1,0.02-0.13,0-0.14,0c0,0,0.01,0,0.01,0   c-0.37-1.34-1.93-1.68-2.63-3.08c0.41-1.95,2.15-3.18,3.39-4.72c1.64,0.1,1.73,1.66,2.67,2.36c2.12,1.58,5.03,1.44,7.18,3.08   l-0.1-0.1c1.23,0.31,2.57,0.31,3.59,1.13c4.46-0.41,3.71-0.13,2.83-1.85c-0.43,0,0.29,0.08,2.5-1.03c-1.82-0.2-2.56,0.15-2.89,1.03   c-2.22,0.06-7.2-0.16-8.31-2.1c1.82,0.38,3.63,0.83,5.46,1.28c1.74,0,2.67-1.95,4.31-2.26c-4.3-2.69-7.78-2.2-7.61-1.7   c-0.06,0.04-0.27,0.18-0.29,0.19c0,0.45,0.14,1.05,0.21,1.2c-0.78,0.78-2.09,0.01-2.59,1.06c-2.14,0.11-3.68-0.17-4.35-2.39   c0.53,0,0.92,0,1.41,0c0.08-0.83-1.13-1.07-0.92-1.95c1.42-1.91,3.98,1.58,6.52,1.83c-0.76-1.94-2.58-1.82-3.54-3.26   c0-3.81,14.41,3.74,19.19,2.87c1.64,0.92,3.39,1.85,5.34,2.87c1.64-0.1,3.49-0.21,4.82,1.23c1.13-0.62,2.15-0.62,3.18-0.72   c-0.28-2.31-0.36-2.14,1.36-1.17c0.15-0.69-0.61-1.45,0.07-2.11c1.54,0.41,1.74,2.36,3.18,2.87c-0.17,0-0.34,0-0.51,0   c0,1.29,0.87,1.84,0.83,0.1c0.17,0,0.34,0,0.51,0c-0.42-0.42,1.6,0.16,3.59,4.82c1.93,4.51,3.53,11.24,4.21,13.85   c-2.46,0.31-4.93-0.1-7.29,0.72c-0.09,0.29-0.37,0.76-0.57,1.15c5.27,0.95,4.99-1.4,8.27,0.39c-0.29,2.17-1.58,5.47-2.79,3.8   c-1.94,0-3.68,0.41-5.11,1.74c0.82,1.23,1.74,2.36,2.46,3.49c2.36,0.62,2.77-1.44,4-2.46c4.15,17.63-0.58,18.58-4.62,33.04   c-2,7.16-6.05,4.86-9.03,5.85c-0.25,1.97,4.99,0.39,6.46,0.31c3.81-3.57,4.18-9.03,8.11-17.14c2.58-5.32,2.4-11.29,1.33-17.14   c-1.82-10,1.42-5.63,0-14.88c-0.89-5.82-4.27-18.5-9.03-21.55c-8.49-5.44-17.87-8.36-30.07-7.18c-10.28-8.22-20.18-2.4-21.24,3.69   c-0.75,4.3-1.56,8.62-1.23,13.03c0.78,10.43-1.71,15.85-3.59,28.22C195.61,54.2,197.06,51.17,196.98,58.86z M218.94,28.28   c-0.6,0.37-0.93,0.91-1.73,0.31C217.71,28.18,218.12,27.87,218.94,28.28z M216.92,32.2c0.11-0.04,0.08-0.06,0.08,0.08   C216.62,32.28,216.61,32.32,216.92,32.2z M220.89,13.81c-0.27,0.27-0.54,0.33-0.72,0C220.38,13.81,220.69,13.81,220.89,13.81z    M210.43,12.48c0.4-0.4,0.24-0.38,0.45,0.07C210.75,12.53,210.53,12.48,210.43,12.48z M239.16,10.3c-0.54-0.04-2.12-0.11-1.46-0.53   c0.43-0.27,0.96-0.12,1.46-0.14C239.16,9.85,239.16,10.08,239.16,10.3z M245.11,14.94c0-0.08-0.09-0.34-0.13-0.46   C245.34,14.54,245.44,14.61,245.11,14.94z M244.6,10.63c0.07,0.29-0.51,1.15-0.51-0.21C244.29,10.53,244.6,10.53,244.6,10.63z    M244.13,12.53c-0.05,0.11-0.04,0.11-0.04-0.57C244.08,12.12,244.49,12.17,244.13,12.53z M244.05,10.27c0,0.7-1.7-0.78-2.64,0.15   c0.72,0.92,1.74,0.82,2.67,0.82c0,0.44,0,0.33,0,0.62c-0.58,0.27-0.51,0.51-0.06,0.87c-0.12,0.23,0.65,0.85,0.78,1.24   c0.27,0.8-2.12-0.54-2.77-1c-1.64-1.15-2.66-2.68-2.78-2.68c1.48-1.48-5.64-2.77-5.62-4.49C240.94,7.86,243.65,7.8,244.05,10.27z    M233.21,8.27c-0.55,0.47-0.76,0.11-1.05-0.21C232.06,7.96,232.9,7.86,233.21,8.27z M231.91,7.95c-1.11-0.03-2-0.47-2.15-0.63   C230.58,7.25,231.44,6.9,231.91,7.95z M219.66,4.37c-0.23,0-0.47,0.09-0.62,0C218.03,3.73,219.66,2.75,219.66,4.37z M229.19,7.15   c-0.17-0.05-1.12-0.26-1.53-0.1c-1.54,0.72-3.39,0.21-4.93,0.92c-1.32,0.48-4.16,0.47-4.41-1.33   C224.37,5.47,226.08,5.16,229.19,7.15z M215.66,1.91c3.07,2.63,1.5,3.26,1.23,3.59c-2.62-2.62-4.1-2.25-4.82-3.69   C213.32,1.46,214.44,1.44,215.66,1.91z M201.12,16.62c0.07-1.95,1-3.74,1-5.58c0-1.13,0.7-2.26,1.13-3.39   c1.18-3.1,3.39-4.93,6.88-5.13c1.09,0.41,3.79,1.63,4.31,2.67c-0.61,0.81-1.52,0.12-2.23,0.61c-0.37,0.37,2.42,2.17-2.43,3.08   c-0.66,1.84-2.75,1.57-4.17,2.78C201.33,18.56,200.99,20.33,201.12,16.62z"/>
	<path d="M203.63,32.65c0.01,0.01,0.01,0.03,0.02,0.04C203.77,32.58,203.77,32.56,203.63,32.65z"/>
	<path d="M248.39,14.53l0.1-0.1C248.37,14.36,248.46,14.38,248.39,14.53z"/>
	<path d="M252.29,35.77l0.1,0.1C252.44,35.75,252.5,35.81,252.29,35.77z"/>
	<path d="M257.88,39.92C257.84,39.87,257.83,39.86,257.88,39.92L257.88,39.92z"/>
	<path d="M257.94,39.98c-0.03-0.03-0.05-0.05-0.06-0.06c0.01,0.02,0.03,0.04,0.04,0.06C257.93,39.98,257.94,39.98,257.94,39.98z"/>
	<path d="M203.65,32.69l-0.1,0.1C203.71,32.76,203.65,32.85,203.65,32.69z"/>
	<path d="M220.38,34.54l-0.1-0.1C220.23,34.49,220.27,34.49,220.38,34.54z"/>
	<path d="M716.12,139.72l0.1-0.1C715.94,139.62,715.96,139.56,716.12,139.72z"/>
	<path d="M717.97,140.85c0.41,0.62,0.51,1.33,0,2.36c-3.9,0.92-7.8-1.23-11.9-0.41c-1.33,0.62-2.36,1.85-2.05,3.28   c0.63,2.97,0,5.95,0.82,9.03c0.62,0.72,1.23,1.44,1.85,2.15c2.06,0.59,5.38,0.83,4.93-1.23c-1.44-0.72-3.49,0.62-4.82-1.33   c-0.21-2.87-0.41-6.16-0.62-9.34c4.03-2.54,5.91,0.73,13.14-0.72c1.06-3.17,0.3-5.94-3.08-4.93   C716.43,140.54,717.66,140.24,717.97,140.85z"/>
	<path d="M718.07,146.6c-0.72,3.69-1.93,7.19-2.98,10.77c-0.84,2.86-0.19,4.49-1.54,8.41c-0.84,2.46-0.72,5.03-0.1,8.11   c4.08-12.84,1.96-11.84,5.54-22.37C720.99,146.74,718.07,145.41,718.07,146.6z"/>
	<path d="M701.55,170.2c2.57,1.13,3.9,3.59,5.85,5.03c3.1-0.85-1.66-5.04-4.41-6.67c-0.94-2.68-0.25-9.84-0.82-11.39   c-1.03,0.41-1.03,1.44-1.03,2.05C701.44,163.72,700.1,165.11,701.55,170.2z"/>
	<path d="M242.65,42.34c-0.34-2.02,0.07-4.86-2.77-3.8c0.41,0.31,0.72,0.62,1.03,0.92c-0.21,0.1-0.31,0.31-0.51,0.31   c-5.73,0-5.61,0.74-3.8-1.44c-1.49,0.2-2.69,0.31-3.51,1.44c2.15,0,2.57,0.1,2.18,0.1c-1.22,1.35-2.23-0.33-2.77,1.85   c1.03,0.82,1.85-0.62,2.87-0.1c1.05,3.5,2.66,3.89,5.34,1.95C241.34,40.35,241.63,43.35,242.65,42.34z"/>
	<path d="M625.1,37.62c-1.77,0-1.59-0.31-1.33,1.23c-2.26-0.72-4.41,0.21-6.57,0.31c0.25-0.25-1.07,0.44-1.54,0.72   c0.1,0.1,0.1,0.41,0.21,0.82c0.92,0.62,1.74-0.41,2.67-0.21c1.27,3.5,2.03,4.16,5.34,1.85c0-0.62-0.1-1.03-0.1-1.54   C624.88,40.01,626.18,44.09,625.1,37.62z"/>
	<path d="M625.63,41.23C625.65,41.42,625.71,41.25,625.63,41.23L625.63,41.23z"/>
	<path d="M623.56,37.52l-0.1,0.1C623.58,37.62,623.61,37.65,623.56,37.52z"/>
	<path d="M628.18,64.3c9.9-1.36,9.78,0.96,10.57-0.62c-0.1-0.21-0.1-0.51-0.31-0.62c-1.33-0.82-6.15-1.82-7.39-1.33   c-4.19,1.64-5.66,0.18-7.9,0.92c0.1,0.31,0.21,0.62,0.31,1.03C624.9,64.2,626.44,64.54,628.18,64.3z"/>
	<path d="M241.11,65.74c4.34,1.45,8.18-1.34,14.16,0.21c0.21,0,0.41-0.31,0.82-0.72c-1.13-0.92-2.15-1.44-3.39-1.44   c-3.1,0-2.18-1.19-5.44-0.1c-4.97,2.05-6.31-1.03-7.08,1.03C240.08,65.33,240.7,65.63,241.11,65.74z"/>
	<path d="M254.86,53.53c-0.31,1.64-2.36,1.74-2.67,3.39c0.82,0.41,1.54,0.41,2.36,0c3.27-3.68-2.41-8.63-4.1-16.42   c0.24-1.92,1.44-2.03,1.44-4.93C245.88,40.07,253.94,50.09,254.86,53.53z"/>
	<path d="M231.36,33.82c-0.41,0.51-1.13,1.33-1.74,2.05c0,0.89,0.82,0.14,3.18-1.44c8.09-1.44,9.44,2.2,14.37,0.82   c-3.08-2.05-5.96-1.81-8.52-2.46C236.38,32.22,233.93,32.69,231.36,33.82z"/>
	<path d="M628.59,33c-6.3-1.72-8.21-2.23-13.24-0.72c-1.13,0.41-1.74,1.33-2.05,2.67c3.08-2.15,6.25-2.44,9.65-1.44   C630.54,35.75,629.77,33.24,628.59,33z"/>
	<path d="M222.84,23.15c0.16-2.44-1.21-2.27-12.72-2.87c-0.31,0-0.72,0.31-1.03,0.51c2.26,0.72,4.82,0.41,7.9,1.03   c-2.46,1.03-4.62,1.13-6.77,1.74C218.06,23.56,218.98,22.12,222.84,23.15z"/>
	<path d="M619.77,120.53c4.1-1.13,8.11-2.46,12.11-4.82C628.64,115.47,621.16,117.48,619.77,120.53z"/>
	<path d="M226.74,427.57c-0.62,3.49-0.21,6.77,1.33,10.47c0.92-2.46-0.51-4.1-0.72-5.95C230.57,424.36,227.28,425.4,226.74,427.57z"/>
	<path d="M254.55,68.71c-3.08,0.62-5.95-0.31-9.44,0.41C249.11,71.48,251.68,71.38,254.55,68.71z"/>
	<path d="M630.54,573.59c2.87,0.92,4.72,0.1,6.98-2.77C635.5,570.41,630.04,571.34,630.54,573.59z"/>
	<path d="M525.56,216.38c-0.21-3.08-0.72-4.72-2.26-7.59C521.15,208.25,523.03,214.28,525.56,216.38z"/>
	<path d="M636.39,576.98c2.46-0.62,3.9-2.57,5.23-4.82c-4.82,1.74-5.03,1.85-6.26,4C635.47,576.57,635.78,576.77,636.39,576.98z"/>
	<path d="M710.58,149.06c-1.54,1.23-1.03,3.28-2.15,4.93c1.33,0.62,1.95,1.44,3.18,0.92c0.31-1.74,0.1-3.59-0.31-5.44   C711.3,149.27,710.89,149.27,710.58,149.06z"/>
	<path d="M628.69,67.48c0.73,1.76,5.75,2.37,8.21-0.41C627.05,67.07,629.73,66.96,628.69,67.48z"/>
	<path d="M234.75,79.8c-2.06-0.28-3.8-1.54-6.26-1.54c2.57,2.57,5.75,2.15,9.44,3.28C236.59,80.1,235.57,79.91,234.75,79.8z"/>
	<path d="M236.08,101.45c1.64-1.74,2.15-3.9,2.26-6.57C236.08,97.65,236.08,97.65,236.08,101.45z"/>
	<path d="M621.2,93.24c-1.85,1.54-1.85,1.54-2.46,6.16C620.59,97.86,620.9,97.03,621.2,93.24z"/>
	<path d="M214.02,59.58l-0.21,0.1C213.93,59.91,213.89,59.87,214.02,59.58z"/>
	<path d="M216.28,67.17c0.1-2.42-0.6-4.35-2.37-7.33C212.98,62.1,214.77,65.56,216.28,67.17z"/>
	<path d="M596.99,58.45l-0.1,0.1C597.05,58.59,596.99,58.58,596.99,58.45z"/>
	<path d="M599.86,63.79c-1.67-6.15-1.83-4.97-2.86-5.21C597.05,63.29,600.73,66.98,599.86,63.79z"/>
	<path d="M620.49,78.87c-0.23-0.68,1.1-0.3-7.18-2.46c-0.51-0.1-1.03,0.1-1.54,0.1c0.82,0.72,1.74,1.33,2.67,1.44   C616.48,78.05,618.33,79.28,620.49,78.87z"/>
	<path d="M633.52,40.29c-0.92,0.51-0.61,1.13-0.41,1.64c3.38,8.72,3.03,4.88,2.77,4.62C635.06,44.49,634.03,42.54,633.52,40.29z"/>
	<path d="M617,123.72c1.08-0.54,0.84-0.85-2.05-5.03c-0.51,0-1.03-0.1-1.54-0.1C614.64,120.23,615.35,122.28,617,123.72z"/>
	<path d="M555.84,112.84c1.64,1.74,3.9,1.23,6.05,1.74C561.42,113.17,557.15,111.69,555.84,112.84z"/>
	<path d="M593.8,17.2c1.02,0.1,0.58,0.02,0.1-0.21C593.8,17.18,593.7,16.93,593.8,17.2z"/>
	<path d="M628.59,55.89c1.85,0.41,3.49,0.1,4.93-0.92c-0.31-1.56-1.23-1.17-5.34,0.41C628.39,55.58,628.49,55.89,628.59,55.89z"/>
	<path d="M242.34,430.34c-1.33,0.31-2.46,1.03-3.39,2.36C241.91,432.57,244.17,431.25,242.34,430.34z"/>
	<path d="M635.06,55.78c3.04,1.35,4.34-4.28,2.46-5.03C638.29,54.61,635.36,53.53,635.06,55.78z"/>
	<path d="M244.8,56.6c0.1,0,2.37,2.13,5.75-0.31c0.55,0-0.62-1.5-2.77-0.31C246.86,56.6,245.83,56.6,244.8,56.6z"/>
	<path d="M242.96,442.14c-1.54,2.36-1.44,4.72-1.23,7.08C242.85,446.65,243.16,445.22,242.96,442.14z"/>
	<path d="M218.02,466.77c0.51-1.13,0.51-2.15,0.21-3.39C216.79,464.82,216.89,464.82,218.02,466.77z"/>
	<path d="M219.25,448.6c-1.13,1.95-1.13,2.15-0.41,6.16C219.66,451.68,219.76,450.86,219.25,448.6z"/>
	<path d="M213.2,18.94c1.54,0.21,3.08,0.31,4.41,0.82c0.66-0.66,0.21-1.06,0.12-1.44c-1.74,0-3.5,0-5.24,0   C212.73,18.56,212.93,18.94,213.2,18.94z"/>
	<path d="M212.38,18.22l-0.1,0.1C212.49,18.33,212.55,18.35,212.38,18.22z"/>
	<path d="M217.81,18.33l-0.1-0.1C217.71,18.34,217.74,18.33,217.81,18.33z"/>
	<path d="M238.75,463.89c0.62-2.26,1.54-3.9,0.92-6.16C238.95,459.68,238.54,461.43,238.75,463.89z"/>
	<path d="M218.84,82.05c0.21-2.15,0.21-2.15-0.82-5.03C217.4,78.87,218.22,80.41,218.84,82.05z"/>
	<path d="M634.85,34.64c-1.85,2.26-1.85,2.26-2.05,4.1C633.93,37.62,633.93,37.62,634.85,34.64z"/>
	<path d="M482.26,312.74c-1.59,0.8-1.73,2.37-2.12,3.96c0.29-0.09,0.65-0.18,1.1-0.37C481.75,315.3,482.36,314.17,482.26,312.74z"/>
	<path d="M601.4,74.77c-0.41,2.05,0.41,3.39,0.82,4.62C602.42,77.95,602.53,76.51,601.4,74.77z"/>
	<path d="M234.13,433.11c-0.92-0.92-2.05-0.82-3.9-1.23C232.8,433.83,232.8,433.83,234.13,433.11z"/>
	<path d="M617.41,38.95c0,0-0.03,0.01-0.04,0.01C617.27,39.1,617.28,39.08,617.41,38.95z"/>
	<path d="M619.56,37.52c-1.64-0.31-3.08,0.21-4.1,1.23c-0.12,0.62,0.25,0.89,0.36,0.89c0.33-0.67,0.92-0.47,1.55-0.68   C618.09,37.87,618.85,38.4,619.56,37.52z"/>
	<path d="M602.22,117.46c0.72,0.24,3.69,0.76,4.52,0.21c-0.62-1.03-1.54-0.52-2.36-0.62c-0.92-0.11-1.74-0.1-2.67-0.1   C601.91,117.05,602.12,117.35,602.22,117.46z"/>
	<path d="M499.7,326.69c-0.82-0.62-1.64-0.62-2.87,0.21C498.06,327.62,498.88,327.62,499.7,326.69z"/>
	<path d="M601.81,116.84c-1.23-0.51-2.57-0.51-4.1-0.41C599.24,117.05,600.58,116.84,601.81,116.84z"/>
	<path d="M608.38,103.19c-0.76,0.91-0.02,1.74,0.72,2.67C609.61,104.53,608.89,103.91,608.38,103.19z"/>
	<path d="M617.61,105.04c-0.62,0.92-0.72,1.74,0,2.87C618.02,106.89,618.33,106.07,617.61,105.04z"/>
	<path d="M234.03,109.66c1.03-1.23,1.03-1.23,0.1-1.85C233.72,108.43,233.72,108.94,234.03,109.66z"/>
	<path d="M224.36,75.91c0.46,0.53,0.95,1.05,1.77,2.04C225.47,76.44,225.4,76.32,224.36,75.91z"/>
	<path d="M225.51,108.12c0.62-1.13,0.1-1.54-0.51-2.05C224.13,106.69,224.81,107.18,225.51,108.12z"/>
	<path d="M496.52,312.43c-0.82-0.51-1.33-0.21-1.54,0.51C495.91,313.97,496.11,312.74,496.52,312.43z"/>
	<path d="M221.3,91.49c0.31-0.41,0.31-0.92,0.1-1.44C221.1,90.57,221.2,90.98,221.3,91.49z"/>
	<path d="M254.35,38.65c0,0.15-0.21,0.1,1.44,0.1C255.78,38.35,256.48,38.65,254.35,38.65z"/>
	<path d="M212.27,18.22c-0.72-0.82-1.64-0.51-3.08-0.72C210.63,18.43,211.45,18.43,212.27,18.22z"/>
	<path d="M611.76,118.07c0.51,0.72,1.13,0.41,1.74,0.41C612.99,118.07,612.48,117.87,611.76,118.07z"/>
	<path d="M223.36,518.59c0,0.41-0.1,0.72,0.31,0.92C224.29,518.68,223.36,517.92,223.36,518.59z"/>
	<path d="M223.97,12.48c0.31,0,0.62,0,0.92,0C224.59,12.07,224.38,12.27,223.97,12.48z"/>
	<path d="M483.29,311.92c0.51-0.1,0.72-0.51,1.03-1.23C483.29,310.79,483.29,311.3,483.29,311.92z"/>
	<path d="M621.72,37.21c0.82,0.1,1.33,0.1,1.85,0.21C623.15,36.8,622.64,36.8,621.72,37.21z"/>
	<path d="M199.45,76.41c0.1,0.62,0.1,1.23,0.21,2.05C200.47,77.43,200.27,76.92,199.45,76.41z"/>
	<path d="M505.35,272c-0.31,0.51-0.41,0.92-0.1,1.33C505.66,272.92,505.66,272.51,505.35,272z"/>
	<path d="M610.94,12.17c-0.82-0.1-1.13-0.1-1.33-0.1C609.92,12.17,610.12,12.17,610.94,12.17z"/>
	<path d="M608.04,74.25c0.27,0.38,0.49,0.79,1.06,1.64C609.09,74.32,608.59,74.25,608.04,74.25z"/>
	<path d="M608.04,74.25c-0.02-0.03-0.05-0.07-0.07-0.1C607.83,74.29,607.82,74.25,608.04,74.25z"/>
	<path d="M528.33,220.69c-0.09,0.57,0.17,1.06,0.72,1.46C529.06,221.56,529.11,220.99,528.33,220.69z"/>
	<path d="M241.62,449.12c-0.31,0.21-0.62,0.41-0.21,1.13C241.52,449.73,241.52,449.42,241.62,449.12z"/>
	<path d="M208.84,20.79c0.05,0,0.1,0,0.15,0C208.87,20.67,208.9,20.66,208.84,20.79z"/>
	<path d="M208.84,20.79c-0.54,0-1.03,0-1.59,0C207.93,21.18,208.44,21.66,208.84,20.79z"/>
	<path d="M638.75,37.31c0.02,0,0.04,0.01,0.06,0.02C638.15,36.87,638.22,37.31,638.75,37.31z"/>
	<path d="M639.06,37.41c-0.08,0-0.16-0.05-0.25-0.08C638.88,37.37,638.96,37.41,639.06,37.41z"/>
	<path d="M640.53,38.11c0.02,0.04,0.05,0.07,0.07,0.12C640.74,38.1,640.74,38.15,640.53,38.11z"/>
	<path d="M638.96,37.52c0.55,0.28,1.03,0.54,1.57,0.6C640.19,37.55,639.53,37.71,638.96,37.52z"/>
	<path d="M636.29,37.82c-0.71,0-0.52,0.21-0.1,0.21C636.19,38.03,636.29,37.93,636.29,37.82z"/>
	<path d="M607.97,16.48c0.49-0.1,1.17-0.02,1.41-0.83C608.71,15.6,608.26,15.68,607.97,16.48z"/>
	<path d="M592.78,16.89c0.35,0.08,0.69,0.11,0.96,0.17C593.56,16.63,593.33,16.43,592.78,16.89z"/>
	<path d="M610.84,76.1c0.41,0.1,0.72,0.21,1.03,0.31C611.66,76.1,611.45,75.9,610.84,76.1z"/>
	<path d="M636.7,49.11l0.1-0.1C636.67,49.01,636.75,48.92,636.7,49.11z"/>
	<path d="M635.98,47.57c-0.1,0.69,0,1.28,0.74,1.42C636.81,48.4,636.84,47.77,635.98,47.57z"/>
	<path d="M637.44,50.62c0.09-0.67,0.13-1.31-0.74-1.51C636.8,49.71,636.72,50.38,637.44,50.62z"/>
	<path d="M637.42,50.75l0.1-0.1C637.39,50.61,637.46,50.59,637.42,50.75z"/>
	<path d="M231.87,40.08c0.09,0.66,0.53,0.54,0.92,0.51C232.8,39.48,232.99,39.8,231.87,40.08z"/>
	<path d="M633,58.96c0,0.24,0.41,0.71,0.41,0.1C633.31,58.76,633.11,58.66,633,58.96z"/>
	<path d="M226.84,14.53c-0.51,0-0.82-0.1-1.23-0.1C225.92,14.74,226.23,15.25,226.84,14.53z"/>
	<path d="M248.8,15.15c-0.04-0.01-0.07-0.03-0.11-0.04C248.69,15.31,248.69,15.26,248.8,15.15z"/>
	<path d="M248.69,15.11c-0.04-0.49-0.26-0.68-0.81-0.68C248.07,14.7,248.27,14.98,248.69,15.11z"/>
	<path d="M220.28,34.34c0-0.21,0.1-0.31,0.1-0.31C220.28,34.03,220.28,34.13,220.28,34.34z"/>
	<path d="M637.52,570.92c0.1-0.1,0.21-0.21,0.31-0.21C637.72,570.51,637.62,570.51,637.52,570.92z"/>
	<path d="M489.75,320.13v0.1C490.02,320.09,490.02,320.13,489.75,320.13z"/>
	<path d="M602.53,23.15c0,0.1-0.1,0.21-0.1,0.31C602.81,23.46,602.94,23.15,602.53,23.15z"/>
	<path d="M257.63,39.88c0.1-0.1,0.21-0.31,0.21-0.31S257.63,39.67,257.63,39.88z"/>
	<path d="M483.18,311.81c-0.31,0.31-0.62,0.62-0.82,0.92C483.31,311.79,483.4,312.03,483.18,311.81z"/>
	<path d="M605.61,26.64c-0.04-0.16,0.08-0.1-0.1-0.1L605.61,26.64z"/>
	<path d="M605.61,26.53c0.44-0.03,0.71-0.24,0.62-0.81C605.84,25.81,605.56,26.01,605.61,26.53z"/>
	<path d="M627.57,55.17c0.21,0,0.41,0.1,0.62,0.21C627.75,54.94,628.15,54.59,627.57,55.17z"/>
	<path d="M603.25,25.82l0.21-0.21C603.06,25.74,603.11,25.68,603.25,25.82z"/>
	<path d="M606.43,25.51c0,0,0,0.1-0.1,0.21C606.43,25.61,606.53,25.61,606.43,25.51z"/>
	<path d="M619.66,37.41c-0.14,0.14-0.13,0.1,0,0.1V37.41z"/>
	<path d="M640.6,38.95c0.1,0.1,0.1,0.16,0.1,0.06C640.7,38.95,640.73,38.95,640.6,38.95z"/>
	<path d="M640.7,38.95c0.21,0,0.4,0,0.61,0C640.69,38.47,640.7,38.04,640.7,38.95z"/>
	<path d="M640.8,38.13l-0.21,0.1C640.86,38.49,640.69,38.44,640.8,38.13z"/>
	<path d="M641.31,38.95c0.04,0.03,0.06,0.07,0.11,0.1C641.55,38.92,641.58,38.95,641.31,38.95z"/>
	<path d="M249.01,15.35c0,0-0.1-0.1-0.31-0.1C248.8,15.35,249.01,15.35,249.01,15.35z"/>
	<path d="M223.05,26.84c-0.51-0.62-0.41,0-0.51,0.31C222.74,27.15,223.15,26.95,223.05,26.84z"/>
	<path d="M566.61,117.66c-0.1-0.1-0.1-0.1-0.21-0.21C566.41,117.56,566.51,117.66,566.61,117.66z"/>
	<path d="M566.51,117.76c0.1,0.1,0.21,0.21,0.31,0.21C566.82,117.97,566.71,117.76,566.51,117.76z"/>
	<path d="M609.51,15.66c0.37-0.09,0.56-0.36,0.68-0.78C609.76,14.99,609.51,15.2,609.51,15.66z"/>
	<path d="M624.08,145.57c0.1,0.1,0.21,0.21,0.31,0.21C624.28,145.68,624.18,145.68,624.08,145.57z"/>
	<path d="M629.93,15.04c0-0.1,0-0.21-0.21-0.21C629.82,14.94,629.82,15.04,629.93,15.04z"/>
	<path d="M631.98,14.94h0.21C632.05,14.81,632.11,14.81,631.98,14.94z"/>
	<path d="M629.72,14.84l0.1-0.1C629.45,14.65,629.52,14.59,629.72,14.84z"/>
	<path d="M631.3,14.22c0.12,0.34,0.41,0.52,0.78,0.62C631.99,14.47,631.79,14.19,631.3,14.22z"/>
	<path d="M631.26,14.12l-0.1,0.1C631.36,14.19,631.3,14.29,631.26,14.12z"/>
	<path d="M529.26,222.33c-0.08-0.08-0.11-0.11-0.21-0.18C529.05,222.26,529.02,222.21,529.26,222.33z"/>
	<path d="M528.13,220.59c0.59,0,0.18,0.08-0.1-0.21C528.03,220.48,528.03,220.59,528.13,220.59z"/>
	<path d="M244.6,56.19c-0.15,0-0.11,0.31,0.31,0.31C244.8,56.3,244.7,56.09,244.6,56.19z"/>
	<path d="M606.32,72.41h-0.1C606.22,72.54,606.19,72.54,606.32,72.41z"/>
	<path d="M607.04,73.23c-1.55-1.55-0.24-0.11-0.1,0.1L607.04,73.23z"/>
	<path d="M607.04,73.33c0.27,0.17,0.52,0.41,0.79,0.62C607.75,73.59,607.47,73.41,607.04,73.33z"/>
	<path d="M607.97,74.05c-0.22-0.17-0.1-0.12-0.1,0.1L607.97,74.05z"/>
	<path d="M223.15,74.66c0.13,0.26,0.07,0.24,0.21,0.1L223.15,74.66z"/>
	<path d="M223.97,75.49c0.2,0.44-0.04,0.23,0.39,0.42C224.14,75.64,224.22,75.73,223.97,75.49z"/>
	<path d="M223.25,74.87c0.24,0.16,0.48,0.39,0.72,0.62C223.82,75.19,223.57,75.02,223.25,74.87z"/>
	<path d="M606.73,308.63l0.1,0.1C606.81,308.59,606.88,308.58,606.73,308.63z"/>
	<path d="M641.83,153.78l0.1,0.1C641.95,153.82,642.04,153.82,641.83,153.78z"/>
	<path d="M666.46,138.83c0-0.27-0.08-0.05-0.14,0.33C666.76,138.84,666.7,138.92,666.46,138.83z"/>
	<path d="M564.9,239.48l-0.01,0.01c0.22-0.04,0.18,0.01,0.18-0.11C564.96,239.38,564.97,239.33,564.9,239.48z"/>
	<path d="M584.57,76.51l-0.1-0.1C584.41,76.54,584.27,76.51,584.57,76.51z"/>
	<path d="M197.8,197.19c0.12-0.35,0.16-0.32-0.1-0.1L197.8,197.19z"/>
	<path d="M269.53,243.37v0.31v0.1C270.1,243.42,269.95,243.49,269.53,243.37z"/>
	<path d="M596.26,5.48c0.04,0,0.01-0.04,0.01-0.08C596.12,5.54,596.14,5.52,596.26,5.48z"/>
	<path d="M593.17,7.89c0.01-0.04,0.01-0.09,0.02-0.13C593.07,7.87,593.06,7.86,593.17,7.89z"/>
	<path d="M595.44,11.87c0.01-0.01-0.1,0-0.11,0C595.32,12.01,595.33,11.98,595.44,11.87z"/>
	<path d="M609.4,15.56c-0.01,0.03-0.02,0.06-0.03,0.09C609.52,15.65,609.56,15.71,609.4,15.56z"/>
	<path d="M206.99,25.46l-0.05-0.05C206.97,25.48,207.13,25.62,206.99,25.46z"/>
	<path d="M207.76,27.05l0.1-0.1C207.69,26.95,207.68,26.89,207.76,27.05z"/>
	<path d="M212.48,12.79l0.1-0.1C212.46,12.68,212.48,12.66,212.48,12.79z"/>
	<path d="M217.81,12.79l-0.1,0.1C217.76,12.84,217.81,12.85,217.81,12.79z"/>
	<path d="M233,39.88c0.06-0.12,0.19-0.1-0.1-0.1L233,39.88z"/>
	<path d="M232.9,40.6c-0.03,0-0.07,0-0.1,0C232.8,40.73,232.77,40.72,232.9,40.6z"/>
	<path d="M615.76,39.77l0.1-0.1C615.79,39.64,615.8,39.59,615.76,39.77z"/>
	<path d="M629,302.58c0,0,0-0.01,0-0.02c0.96,0.13,9.74-9.64,12.28-12.26c1.02-1.05-4.44,1.95-12.18,11.57   c-0.21,0.45-0.23,0.66-0.11,0.69C628.88,302.59,628.85,302.58,629,302.58z"/>
	<path d="M635.03,290.57c0.55-0.37,0.76-1.08,5.89-7.49c-0.36-1.61-0.39-3.48-0.6-3.27c-0.88,1.1-0.34,2.28-0.74,3.38   C636.64,286.31,632.86,292.04,635.03,290.57z"/>
	<path d="M669.23,207.96c-0.92-2.15-2.36-3.9-3.69-5.75c-0.73,0.27-0.89,0.66-0.87,1.04C664.83,206.49,671.65,212.8,669.23,207.96z"/>
	<path d="M654.96,233.72c0.41-2.15,0.62-4.31,0.31-6.67c-2.25,3.54-0.92,4.93-0.92,7.08C654.55,234.03,654.96,233.93,654.96,233.72z   "/>
	<path d="M666.25,195.24c-2.04,1.23-1.23,2.68-1.23,3.9C666.25,198.22,666.46,196.98,666.25,195.24z"/>
	<path d="M655.07,249.42c0.51-1.23,0.21-2.46,0.1-4.52C654.55,246.96,654.86,248.19,655.07,249.42z"/>
	<path d="M628.9,302.58c-0.92,0-1.73,1.49-2.09,2.34C626.66,305.21,628.74,304.64,628.9,302.58z"/>
	<path d="M603.84,310.54c0.05-0.08,0.12-0.17,0.24-0.29c-0.07,0.01-0.13,0.02-0.22,0.03C603.86,310.39,603.85,310.47,603.84,310.54z   "/>
	<path d="M603.84,310.54C603.72,310.73,603.79,310.76,603.84,310.54L603.84,310.54z"/>
	<path d="M633.39,291.91c-0.33,0.35-0.4,0.86-0.4,1.33C633.18,292.31,633.49,291.8,633.39,291.91z"/>
	<path d="M633.62,291.7c-0.03-0.03-0.07-0.07-0.1-0.1C633.33,292.06,633.42,291.83,633.62,291.7z"/>
	<path d="M612.49,322.07c-0.17-0.14-0.14-0.15-0.1,0C612.39,322.24,612.39,322.15,612.49,322.07z"/>
	<path d="M612.39,322.17c-0.42,0.42-0.62,0.79-0.52,1.45C611.87,323.87,612.49,323.14,612.39,322.17z"/>
	<path d="M616.18,318.48c0.1-0.1,0.1-0.21,0.1-0.31C615.84,317.96,615.9,318.48,616.18,318.48z"/>
	<path d="M620.79,312.53c-0.38,0-0.1,0.28-0.1,0.41C621.07,312.94,620.79,312.66,620.79,312.53z"/>
	<path d="M651.99,209.4c-0.31,0.21-0.41,0.51,0,0.82C652.3,209.91,652.4,209.61,651.99,209.4z"/>
	<path d="M607.35,324.95c0,0-0.1,0.1-0.21,0.31C607.25,325.15,607.35,324.95,607.35,324.95z"/>
	<path d="M612.79,321.87c-0.33,0.17-0.37,0.04-0.21,0.21C612.69,321.97,612.79,321.87,612.79,321.87z"/>
	<path d="M669.56,209.94c-0.04-0.01-0.07-0.03-0.12-0.03C669.71,210.05,669.9,210.03,669.56,209.94z"/>
	<path d="M631.98,302.47c-0.1,0.1-0.1,0.31-0.1,0.31C631.93,302.68,631.98,302.58,631.98,302.47z"/>
	<path d="M632.7,302.03c-0.71,0.61-0.53,0.49-0.62,0.54C632.43,302.46,632.59,302.28,632.7,302.03z"/>
	<path d="M632.9,301.86c0.19-0.28,0.2-0.18-0.1-0.1C632.72,302.14,632.6,302.08,632.9,301.86z"/>
	<path d="M633.52,300.94c-0.16,0.33-0.33,0.52-0.48,0.74C633.35,301.54,633.52,301.26,633.52,300.94z"/>
	<path d="M633.62,301.04c0.1,0,0.1-0.1,0.21-0.1C633.72,300.94,633.62,300.94,633.62,301.04z"/>
	<path d="M632.99,293.24h-0.09c-0.25,0.12-0.33,0.15,0.1,0H632.99z"/>
	<path d="M633.72,291.7c0-0.04,0.01-0.07,0.01-0.1C633.58,291.6,633.6,291.57,633.72,291.7z"/>
	<path d="M634.44,290.88c-0.48,0.12-0.67,0.38-0.71,0.7C633.73,291.68,634.29,291.66,634.44,290.88z"/>
	<path d="M641.52,290.26v-0.21C641.39,290.19,641.39,290.13,641.52,290.26z"/>
	<path d="M648.73,423.01c-0.49,0-1.85,2.56-3.1,3.52c-0.98,0.75-1.1,2.02-0.72,3.18c1.63,4.93,1.31,3.52,2.46,3.9   c0.78-1.07,1.22-6.98,1.23-7.08C648.68,425.67,650.85,422.87,648.73,423.01z"/>
	<path d="M596.16,539.62c-1.33,1.14-1.44,1.23-2.09,3.27c-0.4,1.24,1.57,4.19,2.61,5.14c1.04,0.35,2.05-0.41-0.1-2.57   C593.6,542.5,597.03,541.79,596.16,539.62z"/>
	<path d="M625.82,458.45c-1.77,3.11,3-2.76,1.34-9.37C626.81,448.38,625.27,455.7,625.82,458.45z"/>
	<path d="M620.59,473.85c1.3-1.18,1.72-2.33,1.23-4.1C620.56,470.9,620.36,472.16,620.59,473.85z"/>
	<path d="M598.71,533.48c-1.11,1.16-0.79,3.07-0.07,2.23C599.09,535.17,599.54,532.61,598.71,533.48z"/>
	<path d="M599.76,529.77c1.03-0.41,1.23-0.82,0.72-1.54C599.96,528.54,599.76,528.95,599.76,529.77z"/>
	<path d="M613.73,488.04c-0.27,0.13-0.02,0.15-0.02,0.38c0.38,0,0.1-0.28,0.1-0.41C613.78,488.01,613.75,488.03,613.73,488.04z"/>
	<path d="M596.68,539.42c-0.38-0.38-0.35-0.14-0.38,0.12C596.3,539.97,596.22,539.42,596.68,539.42z"/>
	<path d="M617.93,184.46c-18.82,2.74-24.04-5.03-27.19-5.03c6.14,9.65,28.62,10.22,36.33,3.8c0.1-0.09,1.74-1.35,1.52-1.81   C627.78,178.75,626.75,183.18,617.93,184.46z"/>
	<path d="M584.88,173.59c0,0.56,0.78-0.14,0.11-0.02C584.95,173.58,584.92,173.58,584.88,173.59z"/>
	<path d="M589.7,178.31c0,0,0.1,0.21,0.31,0.21C589.91,178.41,589.7,178.31,589.7,178.31z"/>
	<path d="M590.73,179.33c0-0.42-0.36-0.59-0.77-0.68C590.09,179,590.37,179.24,590.73,179.33z"/>
	<path d="M589.91,178.52c-0.16,0.16-0.12,0.07,0.05,0.13C589.96,178.66,589.91,178.55,589.91,178.52z"/>
	<path d="M714.6,402.42c-4.33,0.08-4.62,1.87-2.78,2.98C718.99,406.99,729.52,402.15,714.6,402.42z"/>
	<path d="M714.79,410.74c1.18,4.43,4.37,1.86,7.39-1.54C719.46,408.6,717,408.95,714.79,410.74z"/>
	<path d="M666.45,138.7c0.4-0.4,0.57-0.49,0.42-1.65C666.19,137.54,666.45,138.19,666.45,138.7z"/>
	<path d="M557.06,252.8c0-0.11,0-0.19,0.01-0.23c-0.01,0.04-0.02,0.09-0.04,0.14c-0.05,0.14-0.13,0.26-0.16,0.41   C556.79,253.26,557.06,254.04,557.06,252.8z"/>
	<path d="M557.06,252.56C557.07,252.49,557.07,252.47,557.06,252.56L557.06,252.56z"/>
	<path d="M563.53,240.18c0.15-0.1,0.35-0.16,0.55-0.23C565.63,239.48,564.55,239.16,563.53,240.18z"/>
	<path d="M563.43,240.08l-0.1,0.21C563.59,240.16,563.56,240.22,563.43,240.08z"/>
	<path d="M332.13,346.3c2.46,2.15,2.46,2.15,4.21,1.64c-0.82-1.03-1.64-2.05-2.36-3.08c-0.11-3.53,0.99-6.11,0.62-9.92   C334.59,334.84,331.64,341.13,332.13,346.3z"/>
	<path d="M325.97,216.48c-0.21-0.51-0.21-0.51-1.64-1.33c-0.08,0.27-0.4,0.52-0.31,0.72c1.35,3.04,3.66,9.84,5.34,12.52   C328.96,224.29,327.86,220.17,325.97,216.48z"/>
	<path d="M326.38,182.31c-2.29,1.31-1.78,0.34,0.1,5.23C328.66,187.54,327.23,184.36,326.38,182.31z"/>
	<path d="M330.39,235.88c-0.62,1.93,0.22,3.23,0.62,4.62C331.51,237.83,331.51,237.83,330.39,235.88z"/>
	<path d="M334.39,331.41c0-3.28-1.61-8.57-1.03,0.82C334.18,332.44,334.39,331.93,334.39,331.41z"/>
	<path d="M332.03,309.25c-0.51,1.64,0.1,2.67,0.62,3.8C333.05,311.4,333.05,311.4,332.03,309.25z"/>
	<path d="M311.2,208.89c-0.32,0.64-0.27,1.24,0.56,1.91c0.17,0.17,1.02-0.7,0.57-2.92C311.5,207.66,311.4,208.37,311.2,208.89z"/>
	<path d="M329.46,231.16c0.61-0.96,0.35-1.57-0.09-2.45C329.04,228.13,329.46,228.66,329.46,231.16z"/>
	<path d="M332.54,321.33c-0.05,1.12,0.99,0.42,0.31-0.69C332.65,320.88,332.55,321.11,332.54,321.33z"/>
	<path d="M258.83,156.64c0.06-0.19,0.1,0.07-0.79-0.6c-5.13,5.92-4.42,5.13-4.3,5.1C257.09,160.27,257.43,159.9,258.83,156.64z"/>
	<path d="M203.35,206.22c-0.11,0.04-5.54,1.91-5.64,1.95C197.48,210.55,202.37,208.4,203.35,206.22z"/>
	<path d="M270.66,132.85c-0.51-0.92-1.23-1.13-2.15-1.03C269.47,133.52,269.47,133.42,270.66,132.85z"/>
	<path d="M258.86,123.82c1.41-2.59-2.79-2.79-0.1-0.1C258.79,123.75,258.82,123.78,258.86,123.82z"/>
	<path d="M195.44,201.19c1.33-0.31,1.64-0.92,1.64-1.95C195.55,199.34,195.75,200.27,195.44,201.19z"/>
	<path d="M264.51,129.87c0.32-1.11-0.41-1.02-1.13-1.13C263.3,129.72,263.62,129.99,264.51,129.87z"/>
	<path d="M251.78,164.86c0.19-0.33-0.11-1.33-0.35-0.52C251.22,165.09,251.65,165.4,251.78,164.86z"/>
	<path d="M278.74,123.68c-0.1-0.1-0.07-0.11-0.07,0.13C278.93,123.82,278.91,123.85,278.74,123.68z"/>
	<path d="M197.8,196.57c-0.1,0.1-0.1,0.21-0.21,0.31C197.7,196.88,197.8,196.78,197.8,196.57z"/>
	<path d="M203.45,206.32c0.1-0.1,0.21-0.21,0.21-0.31C203.65,206.01,203.45,206.12,203.45,206.32z"/>
	<path d="M265.84,248.5c2.35-1.31,1.31-1.65,3.69-4.82c-6.32,2.77-10.02,8.75-9.91,8.97C260.93,254.07,261.67,250.47,265.84,248.5z"/>
	<path d="M207.68,253.62c-1.08,1.33,2.17-0.11,3.06-0.29C250.74,245.48,209.76,251.07,207.68,253.62z"/>
	<path d="M228.79,249.33c-0.05-0.05-0.06-0.07-0.1-0.11C228.52,249.39,228.56,249.33,228.79,249.33z"/>
	<path d="M254.04,266.46c0.82,0.4,1.62,0.58,3.28,0.31c-1.95-1.74-3.69-1.64-5.64-2.26C252.09,266.05,253.22,266.05,254.04,266.46z"/>
	<path d="M235.36,254.35c0.72,0.21,1.44,0.41,2.36,0.1c-1.9-0.85-2.91-0.82-4.1-0.82C234.03,254.35,234.85,254.14,235.36,254.35z"/>
	<path d="M253.61,245.01c0.27,0.2,0.02-2.09-2.13-3.69C252.17,243.81,252.17,243.9,253.61,245.01z"/>
	<path d="M235.16,247.88c-0.72,0-1.32,0.51-1.21,0.51c3.91,0,4.6-0.12,5.11-0.71C239.29,247.38,238.38,247.88,235.16,247.88z"/>
	<path d="M233.93,248.4c-0.22,0-0.27-0.06-0.16,0.04C233.86,248.54,233.81,248.52,233.93,248.4z"/>
	<path d="M228.9,249.32c1.48-0.2,3.13,0.15,4.63-0.71C231.82,248.61,230.31,248.33,228.9,249.32z"/>
	<path d="M233.72,248.5c-0.17,0.1-0.39,0.15,0.09,0.09L233.72,248.5z"/>
	<path d="M261.22,276.41c0.62-0.82,0.31-1.54,0-2.36C261.02,274.87,260.81,275.59,261.22,276.41z"/>
	<path d="M263.38,243.88c9.07-5.25,4.78-5.86-0.41-0.41c0.21,0.21,0.56,0.59,0.3,0.33c-0.95-0.69-1.93,1.08-2.45,2.13   C262.25,245.32,262.97,244.8,263.38,243.88z"/>
	<path d="M270.96,238.12c0,0.12-0.14,0.11,0.11,0.11C271.04,238.2,270.99,238.15,270.96,238.12z"/>
	<path d="M270.92,238.26c-0.9,0.11-1.69,0.42-2.12,1.33C268.6,239.99,270.56,239.82,270.92,238.26z"/>
	<path d="M242.34,246.75c-0.01,0.04-0.03,0.07-0.04,0.11C242.5,246.87,242.45,246.87,242.34,246.75z"/>
	<path d="M239.36,247.57c-0.2,0.21-0.29,0,1.85,0c0.63,0,0.99-0.34,1.08-0.71C242.29,246.76,240.14,246.76,239.36,247.57z"/>
	<path d="M245.48,246.05c-0.91,0.08-2.13-0.1-3.04,0.81C243.91,246.61,245.13,247.06,245.48,246.05z"/>
	<path d="M245.52,245.93c-0.01,0.04-0.03,0.07-0.04,0.11C245.68,246.05,245.63,246.04,245.52,245.93z"/>
	<path d="M205.6,254.96c-0.23,0.23,0.23,0.59,0.51,0.31C208.53,253.5,206.84,253.73,205.6,254.96z"/>
	<path d="M245.62,246.04c1.08-0.1,2.09,0.28,2.96-0.77C248.58,245.16,246.37,245.29,245.62,246.04z"/>
	<path d="M248.7,245.11c-0.09,0.15-0.24,0.15,0.1,0.1L248.7,245.11z"/>
	<path d="M249.12,245.1c-0.81,0.47-0.52,0.01,1.43,0.01C250.08,244.74,249.63,244.81,249.12,245.1z"/>
	<path d="M256.5,251.68c-0.56,0-0.14,0.44-0.14,1.44C256.46,254.38,256.5,251.86,256.5,251.68z"/>
	<path d="M243.26,254.55c0-0.07,0-0.13,0-0.21C242.88,254.48,242.86,254.42,243.26,254.55z"/>
	<path d="M195.58,255.63C195.53,255.67,195.53,255.68,195.58,255.63L195.58,255.63z"/>
	<path d="M195.73,255.48c-0.07,0.08-0.11,0.12-0.15,0.15c0.11-0.08,0.41-0.26,0.89-0.26C196.2,255.21,195.95,255.23,195.73,255.48z"/>
	<path d="M271.12,238.03c-0.01,0.01-0.03,0.01-0.05,0c0.02,0.02,0.08,0.08,0.09,0.09C271.17,238.02,271.28,238.03,271.12,238.03z"/>
	<path d="M271.49,238.06c0.75-0.08,1.16-0.72,1.32-0.55c0.01-0.01,0.02-0.02,0.03-0.03C272.28,237.1,270.57,238.16,271.49,238.06z"/>
	<path d="M253.83,246.23c0.31-0.39,0.09-0.59-0.07-0.81C253.4,244.92,253.83,245.43,253.83,246.23z"/>
	<path d="M195.44,255.58c-0.1,0.1-0.13,0.24-0.21,0.31C195.3,255.82,195.44,255.67,195.44,255.58z"/>
	<path d="M362.81,380.46c-1.23,0.52-1.44,0.92-1.33,2.87c2.14,2.14,10.75-1.47,13.34-3.8C371.28,377.86,366.35,378.97,362.81,380.46   z"/>
	<path d="M374.82,385.08c-2.05,1.33-5.13,0.82-6.98,3.18c0.68,1.38,1.78,1.58,3.18,1.03C373.48,388.33,377.63,385.89,374.82,385.08z   "/>
	<path d="M258.04,222.64c1.5-3.51-4.28-1.61-7.7,0.1C253.32,224.38,255.68,223.05,258.04,222.64z"/>
	<path d="M239.95,563.84c0.77,0.07,12.19-1.4,12.45-3.69c-5.58-1.72-12.58-0.67-13.61,1.3C238.16,562.66,238.9,563.75,239.95,563.84   z"/>
	<path d="M246.8,564.68c-3.13,0.39-3.34,0.27-4.98,2.34c0.26,0.52-0.14,0.48,0.72,1.33c3.27,0,5.62,0.03,10.16-2.77   C250.73,564.35,248.76,564.44,246.8,564.68z"/>
	<path d="M248.6,573.18c3.49-0.72,3.9-0.92,6.77-3.49C249.34,569.69,244.8,571.79,248.6,573.18z"/>
	<path d="M247.37,588.88c3.64,0.63,6.87-1.48,10.37-2.45C253.32,585.49,250.14,586.62,247.37,588.88z"/>
	<path d="M592.71,7.79c0.96,0,0.1-0.62-0.3-0.57C591.78,7.29,592.19,7.79,592.71,7.79z"/>
	<path d="M594.85,5.48c0.45-0.08,0.9-0.09,1.36-0.09C596.32,5.39,595.92,4.34,594.85,5.48z"/>
	<path d="M590.83,29.92c-0.41-0.1-0.62-0.1-0.92-0.21C590.11,29.82,590.32,30.23,590.83,29.92z"/>
	<path d="M625.08,9.24v0.01C625.22,9.42,625.27,9.24,625.08,9.24z"/>
	<path d="M596.59,12.69c0-0.01-0.01-0.01-0.02-0.01C596.47,12.68,596.62,12.74,596.59,12.69z"/>
	<path d="M595.45,11.76c0,0.43,0.84,1.05,0.72,0.53C596.09,11.98,595.83,11.84,595.45,11.76z"/>
	<path d="M596.24,12.61c0.61,0.2-0.07-0.29-0.07-0.02C596.16,12.72,596.14,12.72,596.24,12.61z"/>
	<path d="M209.81,8.77c-0.01,0.01-0.03,0.01-0.04,0C209.61,8.77,209.75,9,209.81,8.77z"/>
	<path d="M209.7,8.77c0-0.76-0.86-1.03-1.52-1.22C208.18,8.62,209,8.68,209.7,8.77z"/>
	<path d="M207.48,27.14c0-0.01-0.03-0.18-0.03-0.19C207.35,27.04,207.29,27.08,207.48,27.14z"/>
	<path d="M207.65,27.5c0.42-0.28,0.03-0.27-0.16-0.37C207.58,27.61,207.52,27.59,207.65,27.5z"/>
	<path d="M213.09,12.99c-0.16-0.04-1-0.2-1.03-0.21C212.38,12.99,212.48,13.4,213.09,12.99z"/>
</g>
</svg>