<?xml version="1.0" encoding="UTF-8"?>
<!-- Generator: Adobe Illustrator 23.0.1, SVG Export Plug-In . SVG Version: 6.00 Build 0)  -->
<svg version="1.2" baseProfile="tiny" id="Layer_1" xmlns="http://www.w3.org/2000/svg" xmlns:xlink="http://www.w3.org/1999/xlink" x="0px" y="0px" viewBox="0 0 900 600" xml:space="preserve">
<g>
	<path d="M675.34,119.36l-0.1,0.1C675.37,119.46,675.3,119.48,675.34,119.36z"/>
	<path d="M708.78,191.8l0.1-0.1C708.81,191.7,708.82,191.64,708.78,191.8z"/>
	<path d="M695.51,545.3l0.1-0.1C695.36,545.1,695.46,545.16,695.51,545.3z"/>
	<path d="M818.84,15.4c-0.3-1.72,0.51-2.84,1.11-4.26c11.57-1.62,34.61-0.47,35.87-3.34c-0.67-2.12-0.18-1.38-26.04-0.2   c-2.73,0.12-5.57,0.2-8.21,0.41c-0.61-1.11,0.81-1.32,0.81-1.32c-0.61-2.03-1.22-3.14-2.13-4.36c-2.13-0.91-4.46-1.93-7.09-0.81   c-1.01-0.2-1.42-1.52-2.94-1.52c-1.72,0.2-3.24,1.52-5.67,2.33c2.13,2.03,3.65,0.61,5.37,0.1c1.72,1.22,3.75,1.62,5.78,0.51   c1.52,1.22,1.82,2.94,2.84,4.36c-1.22,4.86-3.15,9.52-3.75,14.59c-0.63,5.33-5.29,9.61-4.86,12.56c0.46,1.84-0.96-0.83-4.66,11.14   c-6.25,20.24-6.15,15.23-8.61,38.6c-0.72,6.79-1.54,13.57-3.85,20.06c-9.32,26.17-9.57,21.99-10.44,28.06   c-0.66,4.65-3.04,8.51-5.07,12.56c-3.02,7.04-1.81,6.32-7.7,17.73c-10,19.37-9.5,28.7-16.92,37.18   c-4.58,5.25-8.3,11.18-12.16,16.92c-5.07,7.54-13.96,45.55-13.48,55.32c-5.07-0.41-9.8-0.95-13.58-4.15   c-7.13-6.05-12.51-13.55-17.33-21.48c-2.73-4.5-3.73-20.49-3.14-27.76c0.1-1.22-0.06,0.57,4.05-16.31c2.94-0.1,5.98-1.72,9.02,0.41   c0.91-1.42-1.11-1.82-1.01-2.84c1.11-2.13,3.04-3.95,2.84-7.09c-2.94,1.42-3.04,4.56-5.07,6.48c-2.53,0.41-5.37-0.1-7.9,0.81   c-0.81-1.01-1.62-1.92-2.33-2.74c0.2-5.27,1.01-10.54,0.61-15.91c-4.46,4.15-1.82,9.63-3.14,14.69c-1.01,0.41-2.33-0.81-3.44,0.3   c0.84,0.56,5.03,2.67,5.29,3.69c0.02-0.01,0.04-0.03,0.07-0.04l-0.03-0.03c4.43,2.62,1.96,3.9,1.96,6.11   c-4.46,3.75-4.04,9.32-4.86,14.29c-4.24,25.69,24.48,60.16,38.6,52.89c-1.52,7.7-1.22,14.69-3.04,21.38   c-17.92,8.41-44.72,3.39-62.92,5.67c-6.47,0.81-29.37-3.22-32.83-7.6c-1.62-9.83-3.85-19.66-6.08-30.19   c10.67-13.16,10-35.86,15.7-59.98c0,23.26-1,26.01,5.88,39.92c0.2,0.41,0.51,0.91,1.11,0.71c1.23-2.47-3.98-0.11-4.46-28.37   c-0.14-8.21,0.5-16.51,0.2-24.72c-0.21-5.88,0.5-11.55,2.03-17.22c6.14-22.88-3.62-27.5,6.79-44.68c3.18-5.24,5.05-8.4,11.04-9.42   c-5.07,5.98-7.4,12.77-7.7,20.16c2.55-8.22,3.6-13.45,8.71-18.24c3.66-3.43,4.15-3.55,9.32-0.81c-5.27-0.2-8.31,2.74-11.25,6.08   c3.14-0.9,3.83-4.32,12.56-5.17c-4.36,3.04-6.59,6.38-7.09,10.74c1.86-2.59,4.35-8.74,6.99-8.41c1.46,2.09,0.7,7.71,1.52,6.89   c0.51-0.1,0.71-0.81,2.03-0.51c3.24,1.93,7.09,4.26,10.84,7.8c-1.05-2.75-0.73-2.05-8.51-8.92c2.08-3.97-1.84-7.52-1.54-9.01   c0.02,0.01,0.05,0,0.1,0l-0.1-0.1c-0.02,0.06-0.02,0.08-0.01,0.09c-0.06,0-0.15,0-0.27,0c-0.43,0-1.16,0-1.35,0   c-0.28,1.42-1.8,1.37-1.63-0.62c2.57,1.38,0.13,0.44,2.15-3.32c-1.85,0.77-1.49,2.34-2.15,3.22c0.07-0.43-2.98-3.01-2.87-3.07   c3.57-1.72,7.1-1.37,16.16-1.37c-1.52,1.52-4.05,1.52-4.46,4.46c2.33-1.32,4.15-2.94,6.69-2.94c-0.51,1.72-2.43,1.32-3.34,3.34   c3.34-2.43,6.69-2.23,10.13-2.43c3.44,1.72,6.28,4.26,9.02,7.19c-4.26-2.03-8.21-4.66-13.27-5.07c0.71,1.11,1.81,1.24,2.74,1.62   c4.12,1.72,7.9,3.95,11.55,6.48c4.31,3,4.58,5.83,6.89,12.77c-0.81,3.14-1.22,6.38-1.62,9.63c-1.62-5.07-3.24-10.13-7.09-13.98   c-0.2,0-0.3,0.1-0.41,0.3c0.1-0.2,0.2-0.3,0.3-0.41c-0.33-0.66-0.8-1.71-2.84-3.24c0.51,1.91,8.02,8.64,9.02,21.99   c0,0.3,0.2,0.71,0.81,0.81c1.42-2.13,2.33-4.56,2.94-7.09c-0.3-0.3,0.81-0.2,0.41,0.1c0.39,0.78,0.54,0.71,0.81,0.71   c-0.51-4.76-0.19-9.53-1.32-14.29c-1.39-5.88-5.79-14.73-11.14-16.21c-1.76-0.49-5.2-5.88-15.5-5.88c-5.37,0-11.91,0.01-15.4,1.32   c-1.02,0.38-1.36,1.09-1.33,2.15c-8.73-2.43-18.31,1.89-21.98,10.21c-3.55,8.06-6.59,7.08-6.59,17.33c0,38.3-1.85,26.03-2.63,37.79   c-2.94-4.76-6.59-8.11-10.84-10.54c-2.45-8.22-8.4-9.62-10.84-16.21c-12.87-34.81-14.17-27.43-16.21-41.84   c-4.17-29.51-17.86-31.92-16.82-66.97c0.32-10.67,9.98-4.69,11.35-16.72c62.31-2.94,124.72-5.88,187.03-8.81   c2.03,4.36,0.81,9.02,2.74,12.77c-1.49,8.22-9.25,32.57-19.35,51.67c-1.92,3.64-9.29,12.11-12.06,24.32   c-0.3,1.32-0.21,2.72-1.42,3.75c-0.82,0.7-0.53,1.92-0.61,2.94c-1.64,20.67-12.45,27.4-19.86,44.88   c-6.83,16.13-15.37,4.75-24.11,28.06c-0.7,1.87-1.64,3.08,0.44,3.43c2.55-9.85,18.26-20.72,19.52-21.87   c2.12-1.93,3.75-3.95,4.86-6.59c4.28-10.08,19.44-29.06,19.86-38.91c0.13-3.02,1.69-5.21,3.85-15.4   c3.85-18.17,21.35-28.27,30.19-72.34c2.55-12.73,1.73-8.08-0.61-9.12c0.1-2.13-0.61-4.36-1.62-6.48   c5.73-8.15,1.25-13.85,5.27-16.62c1.32,0.2,2.74,0.3,3.75,0.41c1.72-0.2,1.92-2.03,3.34-2.23c1.82-0.41,3.34,1.93,5.37,0.51   c-1.92-3.65-5.07-3.65-8.92-0.3c-5.4,0-7.05-0.65-7.29,6.48c-41.52,2.14-135.58,6.4-200.3,9.52c2.01-4.76-0.91-7.76-5.78-8.21   c-1.11,0.2-1.42,1.22-2.33,1.82c-2.63-1.42-4.96,1.72-7.6,0.51c-1.62,0.81-2.74,2.03-3.95,3.55c2.23,1.11,2.94-1.01,4.15-1.52   c1.11-0.61,1.62,0.71,2.23,0.71c1.52-0.1,1.93-1.62,3.14-1.62c1.22-0.3,1.32,1.64,2.53,1.32c1.42-0.38,1.42-1.93,2.43-2.74   c4.64,1.33,4.86,2.72,3.24,6.48c4.65,12,3.81,10.75,6.89,11.65c1.32,0.1,1.32-1.52,2.53-1.52c0.3,0.3,0.51,0.61,0.41,1.01   c-6.21,12.87-13.14,0.42-11.35,25.43c0.6,8.32,0.31,15.27,5.78,25.23c11.56,21.06,9.43,34.19,16.21,47.92   c8.04,16.28,6.42,21.04,15.7,33.43c5.33,7.12,11.96,12.96,17.12,20.16c0.51,0.71,1.22,1.22,2.03,1.82   c-2.59,18.16-1.61,3.34-5.07,25.84c-1.95,12.68-1.24,3.29-3.85,22.7c-1.39,10.35-4.36,20.26-9.42,29.58   c-3.24-3.75-5.96-7.5-7.19-12.36c-3.6-14.19-4.88-13.21-6.99-32.22c-0.91-8.2-2.31-5.43-3.75-8.81   c-10.77-25.45-6.73-17.38-16.92-51.77c-6.47-21.84-5-26.12-7.7-32.02c-3.41-7.47-5.17-15.5-8.81-22.8   c-2.9-5.8-4.69-24.97-5.07-35.87c-0.74-21.38-6.9-38.28-4.36-46.91c1.32-2.63,3.75-2.43,5.67-3.55c-3.55-1.52-4.46-1.11-8.41,3.85   c-1.56,0.6,1.75-0.57-52.68,2.74c-1.42,0.09-3.14-0.41-4.05,1.42c0.73,2.34-1.46,0.32,53.6-1.01c1.57-0.04,3.77-0.42,2.43,4.26   c-2.46,0.82-1.29-0.31-52.38,2.84c-1.42,0.09-3.14-0.41-3.82,1.51c0.76,1.75-2.94,1.86,57.04-1.22c1.01,1.01,1.22,2.13,1.32,3.24   c0.83,9.42,2.25,18.84,2.74,28.27c1.82,35.55,1.84,35.6,15.2,65.05c1.01,2.23,0.87,4.97,1.01,7.5   c1.02,18.63,9.35,31.91,12.56,49.54c1.4,7.65,6.19,21.8,11.65,27.25c2.88,2.88,2.49,5.38,3.65,21.68c0.6,8.46,3.31,15.63,7.8,26.04   c4.89,11.35,7.28,5.24,8.51,12.77c3.85,23.6,3.18,30.46,9.02,44.48c7.14,17.15-5.72,46.6-15.91,58.36   c-5.92,6.83-15.25,33.94-17.02,40.83c-3.48,13.58-2.91,15.83-2.13,22.49c2.83,23.97,0.41,17.47,3.04,37.39   c0.51,3.85,1.11,7.8,0.1,11.75c1.72,0.71,1.93,2.13,1.72,4.15c-3.61,0.83-7.63,0.72-8.26,4.4c-1.62-0.34-1.25,0.75-4.51,7.96   c-1.55,3.43-1.21,4.2-0.41,11.85c-0.61,1.22-1.51,2.63-1.42,4.36c1.06,20.29,2.82,22.02,6.48,32.52c-1.32,0.81-2.53-0.2-3.65-0.41   c-4.26-1.01-9.89,1.54-11.65,5.47c-0.59,1.32-1.44,2.42-2.23,3.44c-6.94,8.99-3.26,16.76-2.43,20.87   c1.26,6.23-1.05,4.69,2.43,10.03c1.69,2.59,3.65,4.96,4.05,8.31c7.61-5.3-7.38-2.48-3.55-29.99c0.51-0.61,1.01-0.3,1.62-0.1   c1.52-5.07,5.17-8.81,7.09-13.48c3.04-1.01,5.67-1.32,8.51-0.51c2.56,3.73,4.31,5.85,4.46,6.99c0.91,7.08,5.85,12.22,8.81,18.24   c0.88,1.79,1.32,1.8,8.41,8c0.91,1.72-0.91,2.94,0.1,4.36c1.22,0.1,0.91-1.42,2.13-1.72c5.38,7.57,18.45,2.51,22.8-2.13   c4.56,0.3,8.83,0.69,13.07,0c5.1-0.83,2.45,3.45,26.24-0.71c13.59-2.38,7.84-5.14,18.64-7.9c0.3-1.01-0.2-1.62-1.01-1.42   c-10.05,1.83-5.75,4.97-19.35,6.79c-24.16,3.23-23.88-0.9-35.16,0.81c0.91-2.53,2.33-4.46,2.13-6.59c0-1.32-1.11-1.62-1.52-2.74   c2.74-10.03-1.11-18.74-6.18-27.46c8.31-2.33,16.41-5.88,24.52-9.52c6-2.08,12.23,1.21,22.19,0.81c2.74-0.11,5.46,0.22,8,1.93   c1.17,0.79,2.72,1,4.09,1.47c-0.77-2.18-2.92-2.48-4.7-2.99c-3.86-1.09-7.69-2.59-11.65-3.14c-0.81-0.11-1.82-0.1-2.33-1.11   c3.14-1.92,6.59,0.3,10.54-0.61c-4.66-1.22-8.61-2.63-12.46,0.41c-2.03-0.1-4.15-0.51-6.28-0.2c-0.59-1.24-3.54-26.14-3.85-43.47   c-0.04-2.04,0.35,0.42-3.95-21.68c-0.38-1.93,0.2-3.75,0.41-5.37c1.11-0.91,1.92-0.18,2.74,0.1c6.15,2.14,1.63,0.4,25.03,4.26   c7.31,1.2,14.14-1.36,19.15-1.82c4.46-0.41,8.72-1.62,12.66-3.75c2.43-1.31,2.43-1.22,4.96-0.41c-1.82,8.92-2.96,17.93-3.75,26.95   c-0.73,8.41-3.11,16.42-3.75,24.72c-0.77,9.93-4.01,19.34-5.17,29.18c-0.64,5.47-2.74,10.81-5.88,15.5   c-2.52,3.77-3.27,10.41-8.11,17.43c-0.21,0.3-0.51,0.61-0.1,1.01c0,0,0.2,0.2,0.2,0.1c8.51-7.32,6.66-5.71,13.98-24.21   c0.3-1.01-0.81-1.62-0.41-2.43c1.92-5.37,3.63-10.74,5.67-16.01c4.51-11.64,18.63-103.55,8.41-136.58   c-1.13-3.64-3.52-6.69-4.26-10.54c-0.1-0.51-0.2-1.01-0.41-1.52c2.53-7.8,1.4-28.67,0.61-36.58c-2.49-24.82,5.78-44.54,8.11-75.38   c1.06-14.08-0.54-10.4,0.1-13.07c6.46-26.92,7.79-42.62,21.28-58.97c12.27-14.88,10.91-20.7,23.2-47.52   c2.83-6.18,4.66-12.87,7.7-18.95c1.22-2.43,1.39-5.38,2.03-8c1.61-6.69,6.33-9.18,9.83-26.14c1.23-5.95,2.53-3.46,3.24-8.81   c0.58-4.32,3.45-28.69,3.85-32.12c2.72-1.63,1.02-2.53,6.69-21.48c0.3-1.01,0.49-2.04,1.11-2.84c2.87-3.7,3.98-8.19,5.88-12.26   c3.04-6.52-0.81-8.29,4.46-8.41c39.62-0.9,37.07-1.56,37.99-2.63C858.92,11.8,852.14,15.4,818.84,15.4z M674.71,126.5   c2.49-1.66,1.5,1.38-0.18,1.86C674.02,127.67,674.1,127.07,674.71,126.5z M588.31,26.25c-1.01-1.62-1.72-2.84-1.11-4.56   c209.18-9.73,196.3-9.68,197.37-8.61c0.2,1.22,0,2.43-1.01,4.05C539.38,28.53,597.96,26.25,588.31,26.25z M641.82,574.38   c0.74,5.06-0.61,9.42-3.75,12.66c-5.24,1.41-9.26,4.96-14.79,4.96c-2.74-2.03-6.69-2.74-8.71-6.18c0.6-0.99,1.84,0.8,2.23-0.71   c-1.32-1.62-3.65-1.62-5.37-3.24c-4.31-8.62-8.21-8.91-11.65-20.26c-2.55-8.41,3.58-9.18,1.01-17.33   c-0.15-0.48-0.21-1.82-1.62-1.11c1.1,3.46,0.65,8.92-0.2,6.03c-0.46-1.56,0.35-3.37-1.32-4.71c-1.75,5.51,0.6,13.75-1.33,9.63   c-5.38-11.54-8.78-22.3-7.79-34.95c2.86,6.43,4.46,6.96,4.26,8.31c-0.53,3.57,2.43,4.1,6.89,12.36c-0.41-3.34-1.51-5.48-3.04-7.5   c-3.79-5-5.82-15.55-6.79-21.48c-1.51-9.25,3.87-9.26,3.17-14.87c0-0.2-0.14-0.07,0.8-0.1c2.87-0.11,0.74-1.9,15.19-0.32   c6.02,6.62,7.43,2.59,13.37,18.74c0.9,2.44,0.94,4.97,0.2,7.4c-1.14,3.72-0.41,5.49-1.21,6.09c-0.84,0.63-1.1,1.14-1.74,2.12   c0,6.38-0.06,6.95,3.65,11.65c1.74,2.21,3.44,4.67,5.78,6.28c2.52,1.74,5.37,3.04,5.78,6.48c0.1,0.41,0.61,0.81,0.91,1.22   C640.41,560.71,640.75,567.09,641.82,574.38z M625.49,541.25c-1.39,0-1.85-0.84-2.74-1.72   C623.42,536.04,620.03,525.39,625.49,541.25z M622.05,530.81c-0.63-1.06-0.3-1.89-0.21-3.11   C622.51,528.67,623.02,529.65,622.05,530.81z M654.78,501.82c0.34,11.52-1.01,13.39-1.01,35.53c0,2.52-3.16,3.76-4.4,4   c-2.61,0.5-3.91-15.35-18.69-22.32c-1.72-0.81-3.75-0.71-5.47-1.72c1.73,4.32,4.46,0.18,14.99,13.98c2.63,3.45,3.44,8,7.09,11.14   c-1.39,0.46-3.82,3.24-6.38,3.95c-2.44,0.67-4.76,1.62-7.09,2.94c-1.72-2.63-4.49-4.15-5.07-7.5c-0.75-4.37-2.41-8.81-2.63-13.37   c-0.1-2.13-1.69-4.43-2.84-5.57c4.4-16.56-6.06-28.4-19.45-31.61c-1.67-8.17-2.2-22.38-3.44-27.36c1.32,1.32,0.71,2.84,2.13,3.04   c0.71-0.89-0.31-1.86-0.21-2.89c0.14-1.48,0.04-0.09,5.57,1.07c27.15,5.7,31.6,6.71,41.95,4.66c6.96-1.38,5.85-4.33,6.3,0.36   C658.26,492.6,654.34,487.09,654.78,501.82z M662.06,523.52c0.61,4.56,2.33,9.12,1.32,13.88c-0.93,0.16-4.08,0.58-5.16,0.81   c0-0.41-0.58,0.35-0.52-2.74c0.69-34.65,0.71-15.41,0.71-32.93c-0.42-6.28,0.91-5.48,1.32-3.44   C660.98,512.53,660.18,509.49,662.06,523.52z M657.54,452.22c0-4.38,3.17,2.07,3.08,2.25c-0.39,0.78-0.79,1.39-1.08,2.08   C658.93,455.04,657.64,453.8,657.54,452.22z M725.29,416.71c0.05,11.15-0.27,22.29,0.1,33.43c0.11,3.34,0,6.79-0.81,10.03   c-10.09,3.88-5.29,3.19-15.96,5.02c-1.01,0.17-12.27,7.85-39.36-0.56c-0.92-0.28-1.92-1.1-2.84-0.61   c-2.11,1.14-3.55-0.41-5.57-0.81c0.79-2.37,1.11-4.76,2.43-6.89c1.76,1.18,3.52,3.36,4.96,2.68c-0.17,0.08-0.35,0.15-0.51,0.25   c0.29,2.26,2.95,2.11,2.63,2.43c0.51,1.01,1.32,1.52,2.74,2.13c-0.61-1.62-1.52-2.03-2.53-2.33c-0.41-1.01-1.93-1.42-1.82-2.74   c1.08,0,33.09,12.55-1.52-3.04c-4.03-1.82-8.42-6.46-10.33-14.59c-1.05-4.46-3.55-20.44-2.74-25.22c0.18-1.07,0.61-2.02-0.1-3.13   c-1.22,3.24-0.95,6.58-1.42,9.83c-1.22,8.5-0.33,16.62,3.75,24.32c0.72,1.36-3.2,5.13-5.67,5.98c-4.64,1.59-8.31,5.47-13.48,6.08   c-0.3,0-0.51,0.51,0,1.22c13.65-2.2,10.53-1.09,18.64-6.69c0.71,3.55,0,6.79,0,9.93c-4.57,2.49-9.42,3.76-14.69,3.34   c-24.64-1.95-21.4-0.84-24.06-2.3c-2.72-1.49-7.02,1.74-15.55-5.1c-0.05-0.1-1.94-17.54-1.82-28.16   c0.15-14.52,6.77-27.01,8.81-35.57c1.21-5.07,4.05-9.52,5.78-14.39c5.39,1.92-8-3.75,42.08-4.2c17.29-0.16,17.22,1.97,38.17,7.12   c1.21,0,19.62,7.29,25.64,10.64C720.24,396.55,725.27,411.09,725.29,416.71z M722.36,307.44c-7.19,52.47-2.39,43.19-2.54,65.83   c-0.01,1.58,0.54,3.06,0.51,4.73c-0.06,3.11-2.53,8.14-1.32,13c-28.18-12.93-36.2-12.65-44.68-15.4   c-3.54-1.15-7.09-2.04-10.74-2.03c-15.91,0.05-31.81-0.3-47.52,4.36c2.66-2.66,7.59-9.59,10.64-16.62   c2.47-4.94,9.2-12.63,8.89-31.52c-0.21-12.52-2.75-17.45-4.83-26.84c-2.54-11.44-1.22-1.41,17.64-1.41c4.46,0,8.82,0.83,13.27,0.61   c1.82-0.09,3.65,0.51,5.37,0.81c0.28,2.67,0.28,3.11,0.82,5.36c0.38,1.58,0.46,3.29,0.59,4.57c1.52-3.77,0.41-7.06,0.81-9.64   c3.52-1.41,41.62,0.88,53.19-4.46C723.92,298.3,723.58,298.54,722.36,307.44z"/>
	<path d="M180.19,197.5c0.05-0.1-0.02,0.01-0.15,0.01C180.14,197.61,180.08,197.6,180.19,197.5z"/>
	<path d="M396.01,12.98c-39.63,2.37-38.06,3.98-34.55-3.04c36.52-1.59,34.82-1.21,35.36-3.04c-1.45-2.9-3.46,0-32.83,0   c-1.32-1.22-1.52-3.24-2.84-4.46c-3.95-1.32-3.95-1.32-6.89-0.71c-1.01-0.1-1.42-1.52-2.94-1.62c-1.62,0.2-3.24,1.52-5.67,2.23   c2.13,1.93,3.65,0.71,5.37,0c1.72,1.01,3.65,1.93,5.57,0.51c3.82,2.15,2.58,8.76,0.41,12.26c-1.27,2.05,0.79,4.4-3.34,12.66   c-1.11,2.23-2.3,4.26-2.84,6.89c-0.48,2.34-2.13,4.76-4.66,5.98c-0.61,3.14-0.41,6.08,1.32,8.61c-0.91,1.01-1.42,2.63-1.52,3.75   c0.27,0,0.11-0.1,1.42-0.1c1.86,10.42,3.31,17.67,6.59,26.95c1.57,4.44,4.05,19.27,3.55,29.28c-0.62,12.34,3.07,14.91,0.41,19.45   c-2.25,3.84-3.34,2.4-7.19,4.56c-17.89,10.03-43.15,12.01-51.77,13.48c-20.38,3.47-24.59,2.55-27.46,10.33   c-1.19,3.23-1.78,12.82-8.11,21.88c-0.1,0.1,0,0.41,0.1,0.71c4.55-1.07,3.13-13.34,4.96,18.24c-2.03,2.63-5.17,0.41-6.89,2.13   c-6.47-1.49-12.9-1.99-19.55-7.29c-8.56-6.83-14.06-15.82-18.54-25.53c-1.48-3.21-1.57-19.71-1.11-20.67   c3.04-6.33,2.94-13.58,6.59-19.96c5.78,1.32,9.91-1.85,14.29-5.37c15.99-12.88,27.9-8.06,39.01-6.59   c4.62,0.61,9.47-2.41,18.03-3.55c13.73-1.82,19.3,1.73,21.07-0.2c-4.35-4.02-22.36-2.93-30.7-1.22c-2.02,0.42-3.95,0.91-4.76,3.04   c-5.78-1.22-11.44-2.25-17.02-3.44c-8.5-1.82-20.98,3.51-26.04,8c-9.74,8.66-4.91,9.51-18.24,5.88c-0.3-4.86-0.61-9.73-0.3-14.79   c2.84-1.93,5.37-4.26,7.29-7.29c-1.22-3.95-0.14-7.91,0.1-11.96c0.17-2.84,0.18-5.78,0.81-8.61c1.42-6.33-5.12-10.34-3.14-16.72   c-6.03-9.48-7.22-12.3-8.41-15.7c-1.26-3.63-4.14-6.29-6.08-9.63c-0.71-1.22-2.24-1.71-3.44-2.33   c-16.45-8.52-32.23-1.68-44.98,11.45c-8.98,9.25-3.62,19.04-5.78,24.52c-1.48,3.76-1.62,7.29,0.1,11.04   c-3.57,5.71-6.48,10.01-6.48,16.31c0,5.27-1.62,10.23-2.23,15.4c-3.04,1.42-6.48-0.81-9.32,1.32c-4.26-3.44-9.42-0.91-13.88-2.63   c-1.23-17.53-5.03-22.01-3.75-25.43c0.47-1.26-1.37-7.83-0.51-19.66c0.3-4.05-0.09-8,0.3-12.06c0.42-4.25,1.19-8.51,1.32-12.77   c0.15-5.08,5.55-2.44,10.13-9.93c0.81-1.32,0.91-2.63,0-3.85c-1.22,0-0.81,1.02-1.11,1.62c-7.58,14.9-14.33-5.64-13.27,48.83   c0.31,16.19,5.97,24.03,4.15,33.43c-6.66,1.43-2.91-2.47-5.37-4.76c-1.11,1.62,0.1,3.95-2.13,4.86c1.22,0.51,2.13,0.7,2.84,1.22   c3.73,2.73,15.46-0.26,18.24,1.82c0.41,0.91-0.91,0.71-0.71,1.72c4.26-1.72,8.61-0.3,13.27-0.1c1.79,21.51,5.88,43.26,7.19,47.42   c0.87,2.75-2.31,14.29-2.43,20.16c-1.47-0.86-0.17-0.12-5.98-11.55c-6.9-13.59,0.52-10.02-10.94-22.49   c-0.61,2.43,1.52,3.24,1.72,5.17c-6.79-2.94-13.87-4.27-19.76-8.81c-7.54-5.81-11.04-3.74-16.51-12.16   c-4.2-6.46-8.28-25.65-6.79-37.99c1.36-11.19,2.78-4.67,5.17-28.37c1.39-13.76,1.81-6.6,1.42-13.58   c-1.14-20.42-0.78-10.22-2.74-17.12c-1.44-5.09-1.34-10.23-1.93-15.4c-0.32-2.84,1.42-5.07,4.26-5.88c0.71-0.2,1.62,0,1.93-0.91   c-3.14-1.32-4.05-0.91-7.6,2.94C40.88,23.01,43,21.64,41.91,23.82c0.19,2.45-1.3,2.9,52.58-0.71c4.65-0.31,3.55,0.11,3.55,3.65   c-0.87,1.4,2.08,0.62-51.98,3.24c-1.32-0.91-3.14-1.32-4.36,0.51c1.11,2.35,0.54,1.59,23.1,0.51c35.72-1.71,33.34-1.6,34.14-1.11   c0.71,0.81,1.01,2.03,1.11,3.14c1.05,10.85,3.14,21.58,1.32,32.52c-0.32,2.86-0.41,10.48-2.94,18.64   c-3.23,10.44-4.04,21.07-2.23,31.91c0.61,3.65,0.91,7.4,2.13,10.84c1.11,0.3,1.01-0.81,1.32-0.81c2.74,6.89,4.77,14.18,12.06,17.93   c9.19,4.73,16.9,12.38,30.6,13.07c4.6,5.95,1.1,5.94,5.27,14.89c5.6,12.04,7.03,13.72,7.29,16.62c0.26,2.87,5.51,6.65,14.18,28.47   c2.65,6.66,5.22,7.55,3.65,9.12c7.26,8.01,8.94,48.59,3.44,55.83c-8.63,11.36-9.93,10.72-15.3,22.9   c-20.47,46.42-12.31,48.71-11.96,65.86c0.63,30.01,3.08,30.34,1.32,36.27c1.82,0.71,1.92,2.13,1.82,3.75   c-0.96,1.44-7.17-0.86-10.74,7.4c-2.86,5.71-4.56,10.23-2.53,17.02c-1.11,1.42-1.71,2.94-1.62,4.66   c1.46,27.63,7.28,30.43,6.28,32.42c-1.2,1.2-4.13-3.33-11.45,1.11c-1.01,0.61-2.13,1.11-2.63,2.13c-1.32,3.04-3.73,5.38-5.17,8.31   c-4.72,9.6,0.49,17.35,0,22.59c-0.41,4.4,5.55,8.46,8.11,14.39c0.94,2.19,5.21,3.03,6.08,11.55c-2.97,1.1-2.77,2.66-8.21,14.89   c-5.71,12.86-1.89,17.31-0.61,23.1c0.51,0.2,0.91-0.1,1.52-0.51c2.98,3.97,0.06,6.61,5.78,13.68c1.32,0.2,1.42-0.51,1.82-1.01   c1.11-0.1,1.01,1.72,2.33,1.42c0-0.3,0.2-0.61,0.1-0.71c-2.94-3.85-4.45-8.52-7.09-12.46c-4.66-6.96-2.75-17.28,0.3-22.8   c3.75-6.79,3.67-14.23,6.28-17.02c-2.53-4.05-3.04-9.22-7.9-12.16c-0.51-5.39-6.32-6.32-6.59-16.51   c-0.42-16.3,1.03-11.73,2.33-12.66c1.52-4.66,4.96-8.41,6.99-12.87c2.84-1.32,5.57-1.42,8.51-0.81c1.82,3.34,5.02,5.98,4.96,10.33   c-0.01,1.16,2.37,4.44,5.67,10.74c1.85,3.53,4.15,6.69,7.4,8.92c1.39,7.99,1.42,6.07-0.41,8.51c7.21,12.45,6.96,32.62,8.41,47.01   c0.61,6.04-1.62,9.01-4.66,15.81c-0.59,1.32-1.01,2.84-3.34,3.04c1.82,0.91,2.84,0.3,4.15,0c3.14-4.26,4.7-9.41,6.08-14.49   c1.35-4.96,4.86-9.12,4.96-14.49c-2.08-4.15,0.23-1.5,1.72-13.68c0.85-6.89,0.61-13.88,2.03-20.67c0-0.36-1.62-1.05-2.13,1.42   c-0.56,2.73-1.38,5.47-1.42,8.21c-0.28,22.18-5.23,20.74-4.26,23.91c0.41,0.81,1.32,0.51,2.03,1.11c-1.52,2.23-0.81,5.17-3.04,7.9   c0.2-6.48-1.06-12.26-1.11-18.03c-0.01-1.42-0.81-2.94-0.91-4.36c-0.52-7.6-2.13-14.99-4.76-22.19c0.91-1.11,1.62-2.13,2.43-3.14   c2.74,4.15,6.58,4.83,10.74,3.95c4.45-0.94,8.92-2.13,11.96-5.78c4.76,0.3,9.33,0.46,13.88,0c5.38-0.54,1.01,2.9,26.24-0.71   c10.99-1.57,9.56-6.35,15.91-7.29c4.57-0.68,6.02-4.48,6.79-4.76c2.97-1.1,3.62-1.55,10.23-19.35c0.52-1.41,0.81-2.63-0.2-3.85   c1.81-3.81,9.25-24.27,9.83-30.7c1.15-12.92,2.62-13.73,3.34-27.05c0.74-13.64,2.88-15.71,4.05-29.28   c6.27-72.77-8.78-70.06-6.79-80.04c0.61-3.07-2.56-0.37-0.71-14.49c1.11-8.51-2.93-13.38-3.85-34.65   c-0.26-6.01-1.87-19.66,0.1-32.12c3.74-23.67,2.25-24.7,0.71-48.43c-0.09-1.42-0.2-2.74-1.32-3.75c3.75-5.17,4.15-11.25,5.88-16.62   c1.32-1.42,3.44-1.72,3.04-4.05c28.46-6.53,46.23-1.79,79.23-20.26c3.05-1.71,4.54-5.17,4.15-8.81c-0.74-6.89-0.5-13.58-0.1-20.47   c0.21-3.65-1.04-7.5-1.32-11.25c-0.44-5.87-1.72-11.45-3.75-17.02c-0.77-2.11-0.65-1.54-5.78-26.65c-2.19-10.71,7.68-14.4,8-27.76   c0.04-1.56,0.81-2.44,1.01-2.84c1.18-0.42-1.66,0.38,36.78-2.03c1.32-0.08,2.94,0.41,3.44-1.62   C398.54,12.78,397.33,12.9,396.01,12.98z M163.69,62.73c0.8-10.03,1.32-12.36,5.07-14.09c0,9.89,1.21,10.68,3.44,17.64   c-3.63,0.6,1.92,2.69,3.14,7.9c-0.71,0.41-1.62,0.71-2.84,1.32C168.66,71.64,163.18,69.21,163.69,62.73z M163.88,68.96   c0-0.6,0.5,2.06,4.57,5.32c-1.43,0.15-2.25-0.58-3.11-0.73c-1.17-0.2-1.14,0.54-0.58,1.46c1.39,2.28,2.76,1.71,2.88,3.42   c-2.03,0.1-3.65,2.03-5.88,1.42C161.77,75.45,163.23,72.82,163.88,68.96z M165.32,511.66c-0.99-0.81-1.29-1.77-0.81-3.14   C166.23,509.13,166.03,510.24,165.32,511.66z M189.43,506.7c-5.57,1.93-9.73,5.27-15.2,5.37c-2.59-1.89-6.76-2.8-8.92-6.38   c0.5-0.25,3.66,0.58,1.87-1.04c-1.32-1.2-3.38-1.3-4.73-2.64c-4.22-8.4-8.44-9.17-11.73-20.32c-2.33-7.91,2-7.44,1.32-15.81   c-0.13-1.53-0.51-2.59-2.23-3.55c1.42,4.58,0.72,8.55,0.42,8.05c-1.14-1.9,0.23-4.15-1.83-5.93c-0.91,4.05-0.3,7.6-0.41,11.25   c-2.36-5.52-11.18-24.67-8.5-35.56c1.22,3.04,4.46,5.07,4.26,8.92c0,1.26,1.25,2.47,6.07,8.71c0.51-5.06-6.09-2.95-9.62-29.89   c-0.51-3.86,1.95-4.5,3.95-11.65c6.16-3.02,13.41-0.81,15.91-0.81c0.82,0.72,1.12,1.81,2.23,2.43c5.44,3.05,8.16,8.15,10.33,13.98   c2.45,6.58,1.11,12.56-2.13,18.74c0.76,12.11,5.1,9.82,8.5,16.62C190.3,472.84,197.61,499.68,189.43,506.7z M179.39,440.03   c13.01,6.33,15.04,20.06,19.05,21.78c-3.34,4.66-8.92,4.86-13.17,7.7c-1.25-1.48-4.77-4.4-4.77-6.32   c-0.81-3.93-2.52-7.67-2.62-11.8c-0.07-2.74-1.07-6.16-3.24-8.52c4.7-16.24-6.23-28.45-19.37-31.59c-1.24,0-2.51-23.92-2.51-24.02   c0-0.1-0.14-0.01,0.86-0.01c0.59,0,0.46,0.62,0.76-4.36c1.93,1.25,1.67,1.15,24.01,5.47c0.3,0,19.9,4.97,28.77-1.51   c0.12,0,0.88,2.63,1.02,5.27c0.39,6.98-0.97,1.17-2.52,44.77c-0.08,2.27-0.67,21.8-0.83,22.19c-0.54,0-2.44,2.34-4.86,2.23   c-11.58-25.48-19.49-21.81-23.4-24.11C177.06,438.71,178.16,439.44,179.39,440.03z M173.23,451.89c2.35,2.67,2.22,6.15,3.95,9.51   c-1.08-0.27-2.14-1.01-2.94-2.03C174.64,456.79,173.2,454.42,173.23,451.89z M172.91,448.24c0.13,0.15,0.23,0.3,0.3,0.46   c0.47,0.97-0.06,2.58-0.05,3.05C172.67,450.58,172.23,449.5,172.91,448.24z M273.01,408.62c-12.45,90.61-14.19,61.82-18.14,79.64   c-0.94,4.25-3.44,7.5-5.67,11.14c-11.71,0.56-7.63,8.87-39.01,8.41c-5.78-0.09-11.45-1.82-17.52-0.5c1.35-1.79,2.72-4.83,2.53-7.29   c-4.02-4.82,4.88-8.95-7.8-29.58c23.52-6.84,22.8-11.61,32.83-9.83c15.08,2.68,16.43-0.59,21.88,3.14c1.02,0.7,2.33,1.32,4.36,0.61   c-8.98-4.49-19.65-5.88-18.97-6.33c2.98-1.96,8.13,0.14,9.95-0.66c-3.83-1.1-7.92-3.33-11.85,0.41c-2.33-0.71-4.46-0.51-6.89-0.81   c-0.2-3.24-0.21-6.18-0.71-9.02c-2.83-16.23-3.63-54.9-3.83-55.49c-0.18-0.92-2.56-0.64-2.56-1.64c-0.17-1.6,0.52-3.2,0.81-5.19   c3.65,1.22,7.19,2.25,10.84,2.53c12.72,0.98,16.35,3.5,21.07,2.84c9.42-1.33,19.14-1.64,27.96-6.08c1.38-0.69,2.84-1.53,4.43-0.29   C277.08,384.89,276.62,382.37,273.01,408.62z M213.54,443.37c0.6,4.56,2.23,9.02,1.32,13.88c-1.72,0.41-3.44,0.71-5.78,0.61   c0-16.16,0.58-12.27,0.71-20.97c0.38-25.09-1.37-24.24-0.51-31.71C211.29,406.9,210.23,418.39,213.54,443.37z M209.99,369.82   c1,1.4,1.9,2.6,2.41,4c0,0.11-0.44,1.65-1.7,2.18C210.86,373.93,208.09,372.42,209.99,369.82z M277.26,342.36   c-1.15,29.71,1.59,20.11-0.71,37.39c-5.27,1.92-10.03,4.91-15.6,4.96c-1.38,0.01-5.46,3.25-15.03,3.14   c-17.63-0.21-26.45-4.43-27.01-4.46c-0.76-0.03-1.22,0.88-3.07,0.36c-0.95-0.26-1.87-0.8-2.92-1.07c2.32-9.29,1.61-7.56,5.83-3.85   c0.71,0.63,1.47,1.15,2.38,1.42c0.75,1.38,2.12,2.02,3.44,2.74c-1.11-1.92-1.11-1.92-3.34-2.94l-0.01,0.03   c-0.08-0.82-1.33-0.88-1.21-1.99c0-0.18,12.82,4.76,15.3,5.5c-6.01-7.39-23.82-4.07-27.05-24.92c-1.36-8.81-3.34-17.63-2.43-26.65   c-1.5,5.59-1.62,11.25-1.92,16.82c-0.58,10.67,4.73,16.38,4.26,18.44c-1.62,2.33-3.75,4.47-6.79,5.47   c-4.35,1.43-7.7,4.96-12.36,5.67c-0.14,0-0.41,1.02-0.51,1.11c15.22-2.17,12.21-1.99,19.17-6.67c1.06-0.71,0.05,7.77,0.18,9.71   c-5.14,3.36-10.52,3.96-16.62,3.55c-16.95-1.16-19.7-0.89-23.91-2.74c-3.67,0.61-8.65-0.46-13.77-4.46   c-5.9-40.8,2.27-46.22,5.78-60.49c1.28-5.21,6.74-17.83,6.79-17.93c1.93,0.99,5.19-2.06,9.82-2.43   c46.21-3.74,44.66-1.54,71.53,5.98c2.54,0.71,18.43,6.84,24.62,10.44C276.6,332.09,277.59,333.78,277.26,342.36z M268.34,280.15   c3.88,16.33-2.14,19.99,2.23,24.11c-1.52,1.72-0.41,3.75-0.51,5.57c-33.79-14.14-28.04-10.19-45.06-15.24   c-14.52-4.3-46.47-0.2-54.02,1.26c4.43-6.82,6.9-10.37,9.22-14.59c3.71-6.75,3.35-37.29-2.85-51.98c8.61,0,11.12,9.34,65.05-2.43   c2.74-0.6,5.36-1.42,7.29-3.65c1.44-1.66,12.23-3.86,16.72-8c1.01,0.72-0.86,16.63-1.32,20.36   C264.08,243.94,265.01,266.13,268.34,280.15z M267.43,211.05c-2.87,4.48-9.05,5.48-13.98,7.5c-9.62,3.93-17.91,7.02-27.93,8.39   c-28.19,3.86-18.8,3.28-45.03,0.09c-1.28-0.16-2.53-0.34-3.73-0.68c-10.74-29.2-13.7-27.37-19.07-38.68   c2.64-3.52,2.35-10.99,3.27-9.71c1.25,2.04,2.14,3.9,3.41,5.45c1.51,1.83,0.81,4.46,2.23,6.08c1.11-0.16,0.49-1.11,1.32-1.52   c1.7,1.7,9.71,10.15,12.09,9.55c-10.64-10.96-14.52-13.86-14.52-19.88c0-6.16,0.86,11.8-8.11-40.93   c-1.49-8.78-0.64-21.41-0.81-28.77c-0.31-13.17,4.33-27.8,17.33-30.8c-0.14,0.29-2.49,3.01-3.85,5.07   c-5.99,9.05-5.75,14.21-3.85,9.02c2.13-4.36,6.18-9.83,9.22-11.96c-3.87,10.66-3.94,19.4-5.57,30.29   c2.43-11.07,3.85-22.18,8.31-32.62c1.03-0.1,1.67,1.12,2.84,1.22c-0.19-0.37-0.77-1.7-1.01-2.53c1.52-6.57,0.7-2.71-0.51-4.15   c0.92-13.96,5.9-23.26,2.65-17.41c-0.48,0.86-0.83,1.75-1.84,1.97c0.49-0.98,0.52-2.81,2.84-7.46c0.01,0,0.01-0.01,0.01-0.01   c1.11-2.23,3.55-3.14,4.46-5.57c-5.57,1.94-9.68,12.97-7.48,13.99c-1.23,8.63-1.93,10.41-1.54,16.71c0,0.62,0.04,1.11-0.91,1.11   c-1.01-3.64,1.05,2.81-3.55-19.05c-0.81,5.58,1.62,9.95,1.62,14.59c-2.94-7.6-6.69-14.89-6.48-23.2   c3.71-4.24,12.94-9.94,16.31-10.33c-3.81,4.11-6.73,9.95-5.47,8.59c3.36-3.62,6.58-10.23,14.31-11.27   c1.41-0.19,2.73-0.07,3.83,0.45c-4.15,2.43-6.99,5.88-8.71,10.23c2.71-2.96,6.14-7.17,10.74-10.54c0.35,0,2.15,0.43,3.44,1.32   c-7.49,3.37-11.24,10.08-15.5,16.62c2.16-1.08,3.06-3.75,5.17-4.96c0.14,0.14,0.17,0.07,1.01,0.91c3.41-3.4,8.7-7.07,15.14-9.71   c0.7-0.29,0.22-0.71,4.42,1.2c8.98,14.15,7.74,12.4,7.9,12.56c-3.34,1.33-6.67,3.07-10.23,4.96c-0.9,3.63-5.18,2.53-6.69,5.06   c12.91-2.33,17.34-7.64,17.34-7.06c0.44,1.52,1.51,2.46-0.68,3.59c-2.83,1.46-6.47,1.33-9.77,3.37c4.36-0.41,8.11-1.01,11.45-2.74   c1.11,0.91,0.71,2.53,2.03,3.14c0.49-0.62-0.12-1.71,0.61-2.33c0.31,0.16,0.91,0.99,0.91,1.72c-0.42,7.75,5.2,12.6,3.55,17.12   c-1.94,5.29,0.28,8.72-1.62,16.31c-1.21-0.99-0.56-2.38-0.96-2.79c0.8-0.79,0.89-1.55,0.56-2.38c-1.92-4.79-2.09-3.87-0.61-8.31   c-1.1-1.78-2.27-3.83-2.33-3.95c-2.74,1.92-2.43,5.47-4.76,7.29c1.14,3.41,3.62,4.19,3.14,7.6c-0.32,2.3,4.54,1.86,5.78,6.59   c-8.28,7.16-2.9,1.88-5.99,1.35c-1.84-0.32-0.76,12.18-1.51,15.67c-0.46,0.76-1.33-0.57-1.81,0.19c0.61,1.22,2.23,1.32,2.84,2.63   c0,3.68-1.78,0.8-3.04,2.53c-0.2,0.91,0.91,1.11,1.01,1.93c-1.62,2.23-3.57,4.24-4.96,6.59c-8.65,14.5-6.46,27.52-18.64,29.89   c-1.93,0.38-4.16,1.29-4.66,1.42c-2.33-1.22-3.77-1.08-6.59-2.84c0.3,1.82,1.82,2.94,1.01,4.26c3.78,3.98,9.61,0.81,14.89-0.91   c15.79-5.14,9.98-26.96,21.07-37.08c0.69-0.7,1.3-0.92,2.03,0c-3.24,5.53-3.36,9.7-4.86,15.1c-5.46,19.58,3.26,32.71,10.03,44.68   c0.41,1.52-1.01,2.94-0.41,4.36c1.26-0.54,0.76-2.16,1.92-2.94c1.27,1.69,4.63,3.78,6.28,6.89c2.16,4.07,20.6,13.15,30.28,7.8   c0,0.16,0.01,0.22,0.01,0.23C268.36,201.85,268.1,204.18,267.43,211.05z M218.3,56.24c-0.26,0.17-1.31,1.48-1.52,0.3   C218.53,55.67,217.74,55.68,218.3,56.24z M227.75,92.54c-6.04-6.04-3.29-14.99-1.62-10.79c0.24,0.6,0.29,0.24-1.26,4.27   C228.16,92.11,228.21,91.74,227.75,92.54z"/>
	<path d="M111.82,15.01c1.01-0.41,1.52,0.81,2.33,0.81c1.22-0.1,1.62-1.72,2.84-1.72c1.22-0.3,1.32,1.52,2.94,1.32   c1.01-0.3,1.11-1.82,2.13-2.74c1.42,0.41,2.74,1.11,3.85,2.03c0.71,1.62-0.1,3.04-0.61,4.36c0.91,3.55,2.53,6.69,4.05,9.93   c1.22,2.03,2.33,2.13,4.36,0.51c-1.05-2.8-25.89-0.16,127.25-7.7c5.29-0.26,56.79-2.74,63.63-2.74c0.61,4.56,1.22,9.02,1.93,14.39   c-2.18,7.21-0.57,11.9-0.41,24.62c0.45,35.46,1.23,6.74-3.55,52.08c0.81,0.61,0.71,2.43,2.33,3.44c1.46-7.03,1.32-20.38,4.36-32.32   c2.36-9.26-0.55-14.51-0.3-27.36c0.16-8.53-0.51-18.84-0.51-18.95c1.41-6-2.53-12.07-2.53-14.89c5.45-5.45,1.42-12.82,5.27-15.6   c1.42,0.1,2.84,0.3,4.05,0.41c1.42-0.41,1.72-1.93,2.84-2.13c1.92-0.61,3.44,2.03,5.47,0.61c-1.52-3.75-4.96-3.85-8.92-0.2   c-1.42-0.41-2.94,0.2-4.15-0.2c-2.43,1.11-2.84,3.04-3.04,5.57c-66.46,3.14-132.83,6.28-199.09,9.42   c-1.01-5.17-1.93-6.08-7.09-6.99c-1.01,0.2-1.22,1.22-2.23,1.72c-1.92-0.51-3.85-0.41-5.37,1.11c-0.91-0.41-1.62-0.61-2.53-0.41   c-1.22,0.81-2.43,1.82-3.44,3.34C109.89,17.74,110.6,15.61,111.82,15.01z M326.51,12.07c0,1.22-0.2,2.43-1.11,3.85   c-65.25,3.04-130.7,6.18-195.95,9.22c-0.91-1.52-1.22-2.84-1.52-4.26C130.09,20.88,324.93,10.49,326.51,12.07z"/>
	<path d="M672.2,191.09l0.1,0.1C672.3,190.95,672.37,191.01,672.2,191.09z"/>
	<path d="M691.81,200.1C691.52,199.75,691.68,199.99,691.81,200.1L691.81,200.1z"/>
	<path d="M683.55,176.71c-0.51-0.91,0.3-1.32,0.3-1.82c-4.84-9.36-9.21-17.8-7.8-24.82c1.72,4.15,3.04,8.51,6.18,12.06   c-1.22-4.66-4.46-8.71-4.56-13.78c-0.41,0-0.71-0.1-1.32-0.1c-0.2-4.86,0.61-9.73-0.61-14.89c-1.32,0.91-1.01,1.93-0.91,2.84   c0.27,4.89,0.16,16.91-2.03,21.28c0.41-7.29,1.32-14.39-0.51-21.28c-1.42,0.2-1.23,1.01-1.22,1.72   c0.64,33.64-18.61,76.27-16.41,81.76c1.42-7.4,3.04-14.69,6.69-21.18c0-1.39,0.77-2.57,1.43-3.71c0,6.95-8.29,7-4.97,48.49   c-4.42-1.96-6.12-26.12-3.85-41.03c-3.65,6.09-2.28,22.84-1.52,29.89c-7.8-14.63,2.56-38.92,1.11-47.11   c-1.11,7.4-3.64,14.49-4.86,21.78c-2.33,13.89-3.2,41.12-3.14-0.34c-2.88,4.16-1.76,34.95,5.37,43.51   c-2.13-6.08-3.04-12.26-2.94-18.64c1.82-0.2,2.23,1.01,2.74,2.23c6.37,15.44,6.44,16.64,9.42,18.34c0-4.66,0-9.12,0-13.48   c1.72-0.61,2.13,1.32,3.14,1.42c8.58-0.86,13.58-1.51,18.54-9.42c0.7-1.12,1.32-2.53,1.62-3.85c2.6-11.21,8.44-21.38,8.44-26.4   c-0.02,0-0.05-0.02-0.08-0.05c0.02,0.02,0.03,0.03,0.05,0.06c-1.63,0.73-2.15,2.3-2.74,3.8c-8.03,20.51-8.11,28.67-24.42,34.35   c-0.81-1.62-2.74-1.42-4.46-1.93c-1.63-28.53,4.21-37.97,2.43-28.17c-0.2,1.11-0.61,2.23,0.61,3.65   c4.82-18.23,3.42-13.29,8.41-30.6c0.81,1.72,1.52,3.14,2.03,4.26c0,2.16-1.33,3.66-1.41,5.5c1.88-1.04,1.33-3.3,2.42-4.79   c1.11,0.61,1.72,2.03,3.85,2.43c-2.63-3.24-5.17-5.98-6.08-9.93c0.61,0.51,1.11,0.91,1.72,1.42c1.01-1.22-0.91-2.33-0.1-3.44   c1.32,1.32,1.01,3.75,3.65,4.86c-1.52-3.34-2.53-6.38-2.84-9.63c1.93,2.33,2.84,5.27,5.57,7.19c-5.64-10.9-6.29-11.78-5.47-14.49   c-2.53,1.01-1.11,3.14-2.03,4.26c-0.71-0.1-1.22-0.41-1.62-1.11c1.11-3.34,2.23-6.69,3.65-10.84c1.58,7.43,7.78,28.36,14.29,25.43   C686.49,181.06,684.75,178.84,683.55,176.71z M649,229.9c-1.58-1.37-1.24-2.47-0.91-4.26C649.01,226.73,649.38,227.79,649,229.9z    M663.8,193.51c-0.1,0.1-0.19,0.51-0.9,0.94c0.07-1.32,0.69-2.33,1.5-3.47C664.4,191.09,664.16,192.71,663.8,193.51z    M666.33,185.02c4.56-17.89,4.18-16.74,4.21-14C670.6,175.26,668.45,182.62,666.33,185.02z"/>
	<path d="M645.66,206.29l-0.1-0.1C645.56,206.6,645.54,206.44,645.66,206.29z"/>
	<path d="M707.36,184.2c2.87-4.44,3.2-9.51,4.46-14.39c1.28-4.95-0.2-10.13,1.52-15.1c-1.82,1.42-3.95,2.23-4.96,4.15   c-3.37-0.72,1.12-4.27-5.98-15.91c-0.31-0.5-0.51-1.11-1.62-1.32c8.42,19.29,3.69,15.22-0.41,23.4c0.2,1.01,0.91,1.72,1.72,2.63   c0.61-3.44,1.62-6.38,5.47-7.7c-0.81,3.85-3.95,6.48-3.95,10.23c-1.01,0.3-1.01-1.32-2.23-1.11c-0.2,2.94,0.91,5.27,3.24,7.09   c0.91,0.2,0.71-0.81,1.11-1.32c0.51,0.1,1.11,0.1,1.82,0.2c0.51-2.53-0.3-5.37,2.33-7.6c-2.66,19.72-7.01,11.41-8.71,30.19   C705.23,194.03,704.66,188.38,707.36,184.2z M705.94,169.92c0.08-2.04,0.93-3.77,2.31-5.18   C709.57,163.4,708.79,163.91,705.94,169.92z"/>
	<path d="M700.37,168.2c-5.12-7.85-4.09-7.33-5.27-5.37c-1.42-2.03-2.84-3.95-4.26-5.88c1.11,4.15,3.14,7.8,6.69,11.55   c-3.34-0.81-4.76-2.94-6.59-4.36c5.02,12.99,9.86,13.33,3.14,4.86C696.52,170.12,698.24,169.01,700.37,168.2z"/>
	<path d="M144.14,540.13c-1.32,0.51-1.64,1.62-1.72,2.53c-0.26,2.83-1.8,5.27-2.33,8c-1.42,7.36-3.19,15.91,0.1,17.33   c1.01-0.41,0.81-1.01,0.71-1.72c-0.41-2.94,0.1-5.88-0.2-8.71c-0.6-5.57,3.44-9.93,3.55-15.2   C144.25,541.75,144.75,541.04,144.14,540.13z"/>
	<path d="M585.78,566.68c1.11-0.51,1.93,1.11,3.34,0.41c-1.01-1.01-2.13-1.52-3.65-1.72c-6.99,7.19-5.37,21.28,2.74,25.13   C581.93,583.7,581.12,571.13,585.78,566.68z"/>
	<path d="M140.39,487.04c-5.03-8.17-13.59,13.38-2.43,21.99c-3.66-7.6-5.99-15.38-1.01-22.29   C138.06,486.03,138.97,487.55,140.39,487.04z"/>
	<path d="M664.91,153c-0.2,14.79-4.66,28.77-7.09,43.16C661.46,181.98,665.52,167.89,664.91,153z"/>
	<path d="M681.83,123.01c10.23,2.33,19.25,6.18,27.66,13.37C705.23,129.29,688.92,121.49,681.83,123.01z"/>
	<path d="M594.19,570.43c1.72,4.46,4.56,8.51,3.55,13.48c1.92-1.52,2.32-1.82,2.03-3.55C599.11,576.55,596.66,569.37,594.19,570.43z   "/>
	<path d="M147.08,490.39c-0.41-0.3-0.71-0.81-1.52-0.2c1.82,4.36,4.46,8.51,3.75,13.78c1.72-1.01,2.34-2.43,2.03-4.05   C150.65,496.46,149.71,493.02,147.08,490.39z"/>
	<path d="M634.61,188.26c-1.62,0.2-1.72,2.03-3.14,2.84c-2.74-0.61-5.47,0-7.9,1.82c-0.91,0.61-1.42,1.42-0.61,3.04   C631.36,190.46,634.14,194.16,634.61,188.26z"/>
	<path d="M696.82,528.89c-1.93,3.85-3.14,7.19-3.75,10.64c0.91,1.22,2.13,1.22,3.85,1.93c-2.18-2.45-1.45-0.89-0.2-6.79   C697.06,533.05,697.23,531.52,696.82,528.89z"/>
	<path d="M283.04,142.16c-3.55,1.92-6.89,4.05-11.45,4.76C276.76,148.14,281.32,146.31,283.04,142.16z"/>
	<path d="M239.98,176.1c-7.35-6.92-8.17-7.82-10.54-10.94C229.95,169.62,231.98,171.74,239.98,176.1z"/>
	<path d="M581.83,110.85c-2.33,5.47-2.13,8.71,0.61,10.64C582.74,119.97,582.44,112.67,581.83,110.85z"/>
	<path d="M161.06,552.29c0.41,4.66,0.1,9.02-2.63,13.07c2.43-1.42,3.34-2.74,3.85-6.18C162.78,556.75,163.29,554.21,161.06,552.29z"/>
	<path d="M671.19,209.64c-0.66-6.26,1.91-8.78,3.14-11.85C666.04,205.08,672.22,215.82,671.19,209.64z"/>
	<path d="M591.25,579.44c-0.61-1.22-1.93-0.2-2.74-0.91c-1.01-0.3-0.61-1.72-1.52-2.53c-0.81,1.32-0.81,2.43-0.91,3.44   C588.51,582.38,589.22,582.38,591.25,579.44z"/>
	<path d="M768.35,121.89c0.41-2.84-1.22-5.37-0.81-8.11C764.7,117.34,764.91,119.77,768.35,121.89z"/>
	<path d="M138.77,500.92c1.73,0.89,3.04,0.2,3.95-1.32c-0.51-1.52-1.82-0.51-2.74-1.11c-0.91-0.61-0.71-1.82-1.52-2.63   C137.35,499,137.36,500.2,138.77,500.92z"/>
	<path d="M157.61,566.68c-0.2,3.14-3.44,4.26-4.66,7.29C156.43,573.07,161.37,568.56,157.61,566.68z"/>
	<path d="M684.06,152.49c-1.32-4.86-4.15-9.02-5.98-13.58C678.08,142.06,680.51,147.63,684.06,152.49z"/>
	<path d="M705.74,143.68c0.81,3.75,1.62,7.5,2.43,11.45C709.49,152.8,708.58,147.93,705.74,143.68z"/>
	<path d="M680.71,126.76c9.48,4.85,12.43,10.18,15.91,15.4C695.15,136.62,687.14,127.11,680.71,126.76z"/>
	<path d="M735.42,206.7c-2.03,2.43-2.53,5.67-4.86,8.11C733.6,213.89,735.32,211.05,735.42,206.7z"/>
	<path d="M672.1,190.99c-3.44,3.65-5.37,8-5.57,13.07C667.6,198.18,670.6,195.48,672.1,190.99z"/>
	<path d="M783.25,121.29c-2.23-0.2-2.23-0.2-3.95,3.24c-0.1,1.01,1.72,1.72,0,2.94c0.71,0,0.91,0.1,1.11,0   c1.32-0.81,1.32-1.72,0.71-2.84C781.62,123.11,783.25,122.71,783.25,121.29z"/>
	<path d="M629.24,221.29c-1.42-2.53-2.94-5.07-4.56-8C624.18,216.52,625.19,218.35,629.24,221.29z"/>
	<path d="M140.79,521.29c2.94,2.43,6.38,0.71,9.52,1.62C147.38,521.19,144.14,521.19,140.79,521.29z"/>
	<path d="M720.43,218.15c3.04,1.01,5.37,0.51,9.63-2.33C726.41,216.73,723.47,217.44,720.43,218.15z"/>
	<path d="M661.56,166.58c-1.82,3.44-1.82,7.09-2.03,10.84C660.65,173.97,660.65,170.22,661.56,166.58z"/>
	<path d="M676.96,574.68c3.44,0.3,5.78-0.1,8.61-2.13C682.13,572.25,679.9,573.36,676.96,574.68z"/>
	<path d="M133.4,140.94c0-2.84-1.93-4.86-2.94-7.29C129.95,136.69,131.98,138.71,133.4,140.94z"/>
	<path d="M742.11,157.46c-1.93,2.84-1.93,5.27-1.01,7.8C742.11,162.93,741.81,160.5,742.11,157.46z"/>
	<path d="M144.44,576.5c0.41-2.74-0.41-4.36-2.33-6.18C141.3,573.26,142.92,574.48,144.44,576.5z"/>
	<path d="M147.28,561.31c-4.06,2.03,1.92,8.79,1.92,7.9C150.94,569.21,146.12,565.8,147.28,561.31z"/>
	<path d="M713.79,196.11c0.07,0.16,0.02,0.08,0.08,0.2C713.95,196.11,713.99,196.19,713.79,196.11z"/>
	<path d="M708.55,191.81c-0.48,1.94,3.67,3.77,5.25,4.29C713.15,193.4,711.2,192.13,708.55,191.81z"/>
	<path d="M708.58,191.7l-0.1,0.1C708.6,191.8,708.53,191.86,708.58,191.7z"/>
	<path d="M695.1,180.05c-9.08-7.35-6.72-6.35-4.26-0.71C692.36,179.24,693.38,180.86,695.1,180.05z"/>
	<path d="M262.58,147.63c2.33,2.03,3.34,2.03,6.59-0.1C266.63,146.82,264.91,148.14,262.58,147.63z"/>
	<path d="M677.88,118.75c0.3-1.72,1.72-2.53,3.14-3.44c-1.42-0.81-2.33,0.61-3.24-0.1c-2.33,3.99-2.35,2.57-1.09,4.25   C677.09,119.25,677.88,119.06,677.88,118.75z"/>
	<path d="M714.96,202.75c1.31-2.41,0.02-4.43-1.08-6.43C712.69,198.67,713.97,200.66,714.96,202.75z"/>
	<path d="M795,19.97c-1.22-2.43-0.91-4.96-0.41-7.4C792.57,16.12,792.57,17.13,795,19.97z"/>
	<path d="M336.54,20.07c-1.01-2.43-1.01-4.96-0.41-7.5C334.11,16.42,334.21,17.34,336.54,20.07z"/>
	<path d="M594.19,593.53c2.74,0.2,2.74,0.2,3.75-5.47C595.91,589.68,596.52,592.41,594.19,593.53z"/>
	<path d="M726,234.86c-2.63,2.03-3.34,3.55-3.44,7.4C723.77,239.73,724.79,237.4,726,234.86z"/>
	<path d="M121.24,43.48c-2.13,1.62-2.13,1.62-0.81,4.96C120.73,46.82,121.95,45.3,121.24,43.48z"/>
	<path d="M331.47,42.66c1.72-2.94,1.82-5.37,2.03-7.8C331.88,36.89,332.08,39.42,331.47,42.66z"/>
	<path d="M345.66,56.34c0,2.33,0,4.26,0,6.69C347.18,60.7,347.68,58.77,345.66,56.34z"/>
	<path d="M791.86,34.76c-1.32,2.33-1.42,2.84-1.72,7.4C791.45,39.32,791.86,37.5,791.86,34.76z"/>
	<path d="M145.66,513.59c2.84-0.3,3.04-0.71,3.65-5.78C147.38,509.33,147.78,512.07,145.66,513.59z"/>
	<path d="M119.82,22.3c-1.11,0.41-1.22,0.71-1.32,1.11c-0.1,1.72-0.2,3.55,0,5.37C119.82,26.86,119.42,24.63,119.82,22.3z"/>
	<path d="M577.57,22.5c-1.22,1.93-0.1,4.05-1.11,5.98C578.18,26.86,578.18,26.66,577.57,22.5z"/>
	<path d="M333.9,120.88c2.03,0.3,3.34-0.81,5.07-2.94C332.35,120.65,333.9,119.34,333.9,120.88z"/>
	<path d="M675.34,575.19c-2.03-0.2-3.55-1.32-5.98,0.1C671.7,575.49,673.11,577.11,675.34,575.19z"/>
	<path d="M246.97,123.62c2.43,0.61,2.43,0.61,5.57-0.81C250.42,122.5,248.7,122.5,246.97,123.62z"/>
	<path d="M698.24,526.25c1.01-1.42,0.1-3.24,1.32-4.46C696.82,523.11,696.62,523.72,698.24,526.25z"/>
	<path d="M591.45,588.97c-0.61-1.22-0.71-2.63-1.32-4.05C589.02,586.74,589.73,588.05,591.45,588.97z"/>
	<path d="M353.96,119.26c-2.43,0.2-2.33,2.23-3.44,3.14C352.24,122.2,353.46,121.49,353.96,119.26z"/>
	<path d="M284.16,115.01c1.32,1.62,2.84,1.22,4.76,1.72C287.3,114.7,285.98,114.9,284.16,115.01z"/>
	<path d="M335.22,10.55c1.42-1.62,1.01-2.84,0.3-4.76C333.8,7.61,335.02,8.82,335.22,10.55z"/>
	<path d="M621.75,198.09c-1.72,0.81-1.62,2.13-2.23,3.34C621.54,200.62,621.54,200.62,621.75,198.09z"/>
	<path d="M688.31,193.12c0.81-2.13-0.2-3.65-1.93-5.88C686.79,189.88,688.31,191.3,688.31,193.12z"/>
	<path d="M793.88,6.39c-1.01,1.42-1.01,1.42,0.1,3.75C794.59,8.22,794.59,8.22,793.88,6.39z"/>
	<path d="M257,159.58c1.52-1.32,1.82-2.63,1.42-4.76C256.7,156.44,256.9,157.86,257,159.58z"/>
	<path d="M142.62,508.82c-0.3-1.52-0.51-2.84-0.71-4.15C140.59,506.29,140.59,506.29,142.62,508.82z"/>
	<path d="M250.62,186.03c-0.1-1.82-0.1-1.82-1.93-3.75C249.1,184.2,249.61,185.22,250.62,186.03z"/>
	<path d="M699.46,521.69c1.42-0.91,2.33-2.23,2.84-3.75C700.37,518.96,700.37,518.96,699.46,521.69z"/>
	<path d="M115.57,116.12c-1.82-1.52-2.53,0-3.85,0.51C113.34,117.44,114.35,117.03,115.57,116.12z"/>
	<path d="M607.87,210.24c0.41,1.52,1.42,2.23,3.55,2.94C610.3,211.26,609.08,210.85,607.87,210.24z"/>
	<path d="M259.64,183.29c-1.62,0.71-1.62,1.82-1.11,3.34C259.74,185.62,260.45,184.81,259.64,183.29z"/>
	<path d="M703.81,226.76c-1.92,0.2-2.94,1.01-3.95,1.92C701.38,228.89,702.5,228.38,703.81,226.76z"/>
	<path d="M118.5,16.52c-0.61,1.62-0.61,1.62,0.61,3.34C119.62,18.55,119.62,17.54,118.5,16.52z"/>
	<path d="M677.07,194.54c-1.22,0.81-2.43,1.62-2.74,3.24C675.75,197.17,676.36,195.75,677.07,194.54z"/>
	<path d="M577.57,20.07c0.1-2.23,0.1-2.23-0.91-3.55C575.75,17.84,576.25,18.75,577.57,20.07z"/>
	<path d="M119.21,65.56c-0.81,1.01-0.61,1.72,0,2.84C120.13,67.18,120.23,66.47,119.21,65.56z"/>
	<path d="M768.96,109.84c0.91-0.91,1.01-1.82,0.71-3.14C768.35,107.71,768.66,108.72,768.96,109.84z"/>
	<path d="M118.91,59.18c-0.41,0.71-0.3,1.32,0.2,2.03C119.82,60.29,119.82,60.29,118.91,59.18z"/>
	<path d="M144.95,577.21c0.2,1.62,0.91,2.13,2.33,1.52C147.08,577.52,146.57,576.91,144.95,577.21z"/>
	<path d="M675.14,119.56c-0.01,0-0.01-0.01-0.01-0.01C675.01,119.51,674.99,119.56,675.14,119.56z"/>
	<path d="M246.67,181.37c-1.11-1.72-1.82-2.74-3.55-2.63C243.73,180.56,244.85,180.66,246.67,181.37z"/>
	<path d="M134.11,119.77c1.52,0.1,1.52,0.1,2.94-1.22C135.63,118.45,134.82,118.75,134.11,119.77z"/>
	<path d="M690.84,173.67c0.41,1.22,1.22,1.82,2.84,2.13c-0.61-1.42-1.72-1.82-2.43-2.53c-0.2-0.81-0.71-1.52-1.52-2.03   C689.43,172.45,690.14,173.06,690.84,173.67z"/>
	<path d="M346.97,71.34c0-1.62-0.1-2.63-0.81-3.95C345.66,68.8,345.56,69.92,346.97,71.34z"/>
	<path d="M683.35,121.49c1.32,0,2.53,0,4.26,0C685.78,120.88,684.56,121.08,683.35,121.49z"/>
	<path d="M698.14,549.25c-0.41,1.42,0.1,2.13,0.81,2.94C699.46,550.97,698.95,550.16,698.14,549.25z"/>
	<path d="M679.7,187.35c0,1.13,0,2.27,0,3.4C680.55,189.68,679.99,188.51,679.7,187.35z"/>
	<path d="M569.37,19.77c-0.81,1.42-0.3,2.13,0.41,2.94C570.38,21.69,570.28,20.88,569.37,19.77z"/>
	<path d="M111.11,19.36c-0.81,1.82-0.41,2.53,0.3,3.24C112.12,21.69,111.72,20.88,111.11,19.36z"/>
	<path d="M654.27,181.57c0-0.81,0-1.62,0-2.53C654.04,179.04,654.26,181.47,654.27,181.57z"/>
	<path d="M603.41,198.59c-0.91,0.61-0.2,1.32,0,1.82C604.42,199.71,604.32,199.1,603.41,198.59z"/>
	<path d="M701.28,543.07c0.1-1.32-0.81-1.22-1.82-1.72C699.86,542.56,700.37,543.07,701.28,543.07z"/>
	<path d="M698.95,157.76c-0.2,1.22,0.1,1.82,0.61,2.33C699.86,159.08,699.86,159.08,698.95,157.76z"/>
	<path d="M257.21,148.03c1.42,0.51,2.03-0.1,2.74-0.61C259.52,146.03,258.32,147.14,257.21,148.03z"/>
	<path d="M706.04,177.62c-0.81,0.2-1.22,0.61-1.01,1.52C705.86,179.69,706.66,178.23,706.04,177.62z"/>
	<path d="M635.12,227.37c0.2,1.01,0.81,1.01,1.62,0.71C636.34,227.37,635.93,226.96,635.12,227.37z"/>
	<path d="M253.46,163.23c0.91,0.3,1.42-0.2,1.93-0.81C254.27,162.22,254.27,162.22,253.46,163.23z"/>
	<path d="M120.53,104.27c-0.51,0.71-0.61,1.32-0.1,2.03C121.64,105.68,121.64,105.08,120.53,104.27z"/>
	<path d="M770.28,103.25c0.81-0.81,1.32-1.42,1.22-2.33C770.28,101.33,770.28,102.14,770.28,103.25z"/>
	<path d="M577.57,100.92c0.41-1.22,0.1-1.72-1.01-2.13C576.25,99.81,576.76,100.31,577.57,100.92z"/>
	<path d="M110.6,28.38c0.51-0.61,0.61-1.32-0.1-2.03C109.89,27.06,109.89,27.67,110.6,28.38z"/>
	<path d="M569.37,26.45c-1.52,0.51-0.41,1.22-0.91,2.33C569.77,27.77,569.47,27.16,569.37,26.45z"/>
	<path d="M679.7,190.75c-0.14,0.18-0.09,0.15-0.12,0.28C679.73,191,679.7,191.02,679.7,190.75z"/>
	<path d="M678.38,192.61c1.04-0.09,1.11-0.9,1.2-1.58C678.79,191.27,678.68,191.94,678.38,192.61z"/>
	<path d="M645.45,206.19c0.61-0.61,0.41-1.32,0.51-2.23C645.45,204.77,645.45,205.58,645.45,206.19z"/>
	<path d="M604.72,204.37c-0.3,1.11,0.41,0.91,0.91,1.42C605.74,204.67,605.23,204.57,604.72,204.37z"/>
	<path d="M688.62,168.91c-0.3-0.41-0.61-0.81-0.91-1.22C687.2,168.5,688.11,168.8,688.62,168.91z"/>
	<path d="M711.72,256.14c0.61,0.51,0.81-0.1,1.11-0.41s0.2-0.61-0.2-0.81C712.12,255.13,711.51,255.33,711.72,256.14z"/>
	<path d="M678.38,135.47c-0.41,1.22,0.3,1.52,0.81,2.03C679.8,136.59,678.99,136.28,678.38,135.47z"/>
	<path d="M130.16,122.2c0.2,0.71,0.81,0,1.11-0.2c0.2-0.1,0.2-0.3,0.51-0.91C130.76,121.39,129.95,121.69,130.16,122.2z"/>
	<path d="M705.13,511.56c-0.51,0.2-0.71,0.61-0.61,1.11C705.13,512.47,705.13,512.47,705.13,511.56z"/>
	<path d="M694.8,545.3c0.71,0.3,0.71,1.62,1.82,1.32C696.52,545.2,695.61,545.3,694.8,545.3z"/>
	<path d="M119.92,53.2c-1.32,0.2-0.2,1.11-0.41,1.62C120.33,54.42,120.43,53.81,119.92,53.2z"/>
	<path d="M164.91,93.32l0.1,0.1C165.06,93.18,165.06,93.29,164.91,93.32z"/>
	<path d="M632.99,457.56c-0.43,0.03-3.16,0.27-5.47,0.41C629.31,459.75,629.66,460.03,632.99,457.56z"/>
	<path d="M669.37,323.21c0.3-3.24,1.01-5.57-0.3-7.8C667.6,317.91,668.44,320.35,669.37,323.21z"/>
	<path d="M644.25,356.24c0.29-0.29-0.61,0-0.2,0.2c0.91,0.2,1.52,1.32,2.94,0.71C646.28,355.73,645.16,356.24,644.25,356.24z"/>
	<path d="M710.4,365.06c0.51,2.13,0.51,2.13,2.13,2.53C712.12,366.47,711.41,365.66,710.4,365.06z"/>
	<path d="M666.43,344.18c0.91-0.45,1.26-0.98,0.71-1.82C666.53,342.77,665.92,343.07,666.43,344.18z"/>
	<path d="M643.02,520.88c0.61,0.1,1.22,0.2,1.82,0.2C647.91,521.08,645.48,519.09,643.02,520.88z"/>
	<path d="M648.29,532.43c-1.85,0-1.81,0-2.33,0.41C647.4,533.2,647.14,533.09,648.29,532.43z"/>
	<path d="M611.87,546.11h0.05c-0.02,0-0.04-0.01-0.04-0.01c0.12-0.37,3.41-1.14,3.84-4.16c0.85-6.01-8.23-6.93-8.39-0.8   c-0.12,4.62,4.79,4.67,4.49,4.97c0.3,0-2.2,1.38-2.3,4.12c-0.09,2.53,2.31,5.46,5.44,4.39c0.91-0.31,1.82-0.71,2.84-1.01   C619.05,543.31,611.32,547.2,611.87,546.11z M611.52,543.68c-3.96,0-3.28-4.85-0.21-5.07   C614.93,538.61,615.15,543.46,611.52,543.68z M614.35,550.87c-0.2,0.71,0.71,1.11,0.2,1.72c-5.66,0-3.66-4.86-0.61-4.86   c1.32,0.1,2.43,1.22,2.33,2.43C615.77,550.67,614.76,550.06,614.35,550.87z"/>
	<path d="M607.27,536.09c1.83,0.89,2.94-0.81,3.75-1.82c1.09-0.36,3.09,1.02,2.79-0.29c-0.44-1.86-3.36-1.25-3.2-2.87   c0.13-1.33,2.13-0.81,1.92-2.42c-3.11-0.6-6.82,1.54-7.79,1.54C605.14,532.51,604.98,534.97,607.27,536.09z M607.97,534.56   c-1.18-1.18-1.06-0.82-1.42-2.94C609.16,529.59,610.8,533.29,607.97,534.56z"/>
	<path d="M600.87,520.27c-2.91-7.08-6.01-11.11,0-17.12C593.11,504.8,595.38,514.38,600.87,520.27z"/>
	<path d="M631.71,558.99c0.07-0.08,0.15-0.15,0.27-0.21c-4.58-8.05-10.2-7.28-9.5-7.28c3.94,1.52,6.46,4.65,9.1,7.69   c2.52,7.79,3.9,8.1,1.09,17.13c-0.4,1.3,5.86-6.2-0.59-17.54C631.94,558.82,631.81,558.89,631.71,558.99z"/>
	<path d="M605.43,512.64c-0.57-1.14-0.1-2.33-1.32-3.11c-1.63,2.17-0.21,5.75,2.79,5.89C610.29,515.57,606.01,514.08,605.43,512.64z   "/>
	<path d="M613.94,576.3c-0.2-2.13-2.03-5.37-4.36-7.7C609.69,572.15,611.51,574.38,613.94,576.3z"/>
	<path d="M608.37,525.95c3.05-0.17,3.59-1.14,4.46-5.47C608.64,525.5,612.6,520.49,608.37,525.95z"/>
	<path d="M607.66,565.06c0.72-3.72,0.56-6.61-1.72-9.73C606.24,559.18,607.76,562.02,607.66,565.06z"/>
	<path d="M612.73,509.23c-0.61-2.74-2.03-4.86-4.96-5.67C609.08,505.79,611.31,507.2,612.73,509.23z"/>
	<path d="M618.5,573.78c1.01,3.04,2.53,4.46,5.07,4.76C621.99,577.35,620.47,575.36,618.5,573.78z"/>
	<path d="M624.28,587.45c1.32,1.22,2.63,1.01,4.15,0.1C626.91,586.64,625.6,587.04,624.28,587.45z"/>
	<path d="M616.78,582.18c0.41,1.62,1.32,2.74,2.94,3.14C619.21,583.8,618.4,582.68,616.78,582.18z"/>
	<path d="M618.91,527.77c0.2-1.01-0.1-1.62-1.42-1.93C617.68,526.86,617.87,527.69,618.91,527.77z"/>
	<path d="M626.51,577.62c1.32,0.2,1.82-0.41,2.42-1.01C627.76,576.07,626.99,576.37,626.51,577.62z"/>
	<path d="M187.82,178.44c-0.01-0.11-5.49-37.73-4.37-54.17c0.09-0.34,1.38-0.86,2.46-2.92c1.15-2.18,1.25-4.44,1.5-5.93   c1.01-0.61,1.42,0.81,2.23,0.41c0.67-1.06-1.13-1.39-0.86-2.47c0.21-0.53,0.99-0.82,1.98-0.16c-0.56-1.92-0.77-1.91-0.49-1.7   c1.26,0.91,2.23,1.81,1.59,3.41c1.13,1.5,2.81,1.83,4.05,1.42c-2.85-2.4-5.89-9.08-6.84-12.2c-0.56-1.86,3.98,6.78,6.94,8.65   c-0.67-2.35-0.73-2.02-0.37-2.02c2.28,0.04,4.53,0.07,6.27,1.84c-1.87,0.27-0.27,3.24-3.57,3.01c-1.01,2.75-2.82,3.34-2.72,3.64   c0.72,2.75,1.09,6.49,3.53,9.53c-0.85-4.26-2.78-6.19-1.5-9.31c0.64-1.56,1.64-2.92,3.63-3.76c9.08,11.02-2.15,22.48,1.32,31.71   c-0.1-6.18,2.2-11.96,3.04-17.93c1.33-9.41-1.79-10.02-3.52-16.91h-0.01l0.01-0.01c0,0.02,0.05,0,0.07,0c0.01,0,0.01,0,0.01,0   c-0.1-0.1,0.39-0.25,0.33-0.63c-0.33-2.1,1.3,4.21-14.11-14.67c2.02,0,2.21,3.07,10.33,8.61c0.98,0.67,1.86,1.64,3.2,1.43   c-0.51-1.36-12.81-9.74-15.46-17.03c3.19,1.91,5.72,8.85,17.83,14.59c1.96,0.93,3.4,1.32,5.36,0.93c0.14-3.55-5.52-3.61-8.31-6.4   c3.09-0.21,6.07,1.2,9.32-0.1c-3.34-1.93-7.21-1.1-10.13-3.24c-2.75-2.01-5.9-3.42-8.51-5.67c-8.17-7.07-6.75-8.55-7.26-7.49   c-0.63,1.3,0.87,2,0.68,3.03c-2.43,2.94,0.51,5.47,1.11,9.02c-7.81-7.81-2.35-9.24-6.18-13.07c-1.35,9.48-3.35,12.84-0.51,27.76   c1.44,7.55,0.13,21.29,1.01,28.77c0.81,6.89,3.65,32.42,4.36,38.91c-3.14-4.18-3.52-6.21-5.57-9.63   c-1.57,2.16,6.49,11.29,8.41,21.68c0.5,2.69,2.38,4.61,3.51,6.91c1.01,0.11,4.45,3.61,6.6,1.14c0.75-1.5-0.04-2.47-0.87-3.89   C190.51,183.3,188.54,184.3,187.82,178.44z M191.16,92.31c-2.24-1.59-3.99-2.92-5.27-5.57C189.53,89.35,189.88,89.83,191.16,92.31z    M186.29,104.16c0,0.48,2.94,3.81,3.61,6.93c-1.92-0.69-2.14-4.53-3.61-5.25C186.29,105.28,186.29,104.72,186.29,104.16z    M186.12,106c0.1,0-0.02-0.11-0.02,0.42c0.01,1.6,1.5,2.66,1.5,4.64c-2.13-2.53-2.33-2.94-2.44-5.88   C185.44,105.45,185.64,105.99,186.12,106z M181.23,93.53c0.85,1.02,0.81,1.89,0.44,3.05C180.53,100.07,181.23,100.07,181.23,93.53z    M181.93,107.71c0.51,1.42,0.3,2.53,0.41,3.55c3.29,2.5,2.37,5.47,1.22,9.02c-1.02-2.54-1.14-6.93-1.22-9.02   C181.83,110.14,181.83,109.13,181.93,107.71z M189.73,186.84c3.55,3.55,5.47,6.28,6.79,9.93   C192.47,194.64,190.95,191.5,189.73,186.84z"/>
	<path d="M191.55,196.26l0.08,0.08c-0.08-0.01-0.2-0.02-0.38-0.06c-1.8-0.41-2.39-2.15-3.25-3.47c-23.47-35.9-10-89.17-10.44-94.43   c-4.07,10.85-4.92,29.19-5.67,40.43c-0.98,14.63,2.09,1.49-0.41,18.44c-1.87-8.09-1.5-20-3.04-29.18   c-0.37,3.41,1.24,24.99,0.71,29.08c1.81,2.33,0.16,10.6,4.05,22.19c0.94,2.81-2.1,1.47-5.57-11.04   c-3.53,7.5,23.01,42.47,10.84,21.58c-2.95-5.06-8.14-24.89-6.79-30.29c3.62,3.36,0.17,14.26,16.92,36.17   c0.58,0.76,1.36,1.69,2.43,1.82c0.56-1.13,0.84-1.19,0.6-1.23C191.62,196.3,191.61,196.26,191.55,196.26z"/>
	<path d="M201.99,107.41l0.09-0.1C201.92,107.34,201.94,107.26,201.99,107.41z"/>
	<path d="M209.79,105.79c-0.03,0.01-0.07,0.01-0.1,0.02C209.69,105.91,209.67,105.91,209.79,105.79z"/>
	<path d="M200.77,72.65c-5.47-0.71-10.54,0.71-15.6,0.51c0,0.81,0.41,1.11,0.71,1.11c4.26-0.51,8.01,1.76,12.16,2.23   c3.96,0.45,7.9,0.2,11.85,0.09c-4.92-0.21-11.95-1.4-16.82-2.32C195.51,73.67,198.04,73.67,200.77,72.65z"/>
	<path d="M219.72,87.55c-2.23,1.92-0.96,4.69-2.37,6.1c-0.01,0-0.01-0.01-0.01-0.01c-0.54-1.44,0.11-0.48-15.05-4.27   c4.72,2.61,9.55,4.83,15.08,4.37c-0.39,3.44-12.88-0.76-15.58,0.19c4.36,1.93,9.02,2.13,12.87,4.86   C218.85,96.69,219.72,92.22,219.72,87.55z M217.35,93.67l0.03-0.03c0.02-0.02,0,0.05-0.01,0.07   C217.36,93.7,217.36,93.68,217.35,93.67z"/>
	<path d="M224.07,72.25c1.02,1.02,1.23,1.52,1.23,1.41c1.42-2.64,1.42-5.37,0.91-8.4c-3.87,2.71,3.95,6.08-13.88,6.48   C216.25,73.05,219.84,73.81,224.07,72.25z"/>
	<path d="M182.55,71.63c0.04,0.45,0.31,0.7,0.61,0.49c5.59-4.07,11.85-6.99,18.24-10.54c-1.55-0.52-1.88-0.05-2.94,0.41   c-19.58,10.59-13,7.07-15.18,9c0.32-0.33,0.57-0.71,0.69-1.2c4.22-5.91,17.64-14.68,16.71-14.68c-1.51-0.19-2.12,0.6-2.93,1.22   c-4.75,3.62-7.33,4.7-12.17,9.53c-0.3,0.3-0.81,0.51-1.32,0.71c0.41-2.78,6.49-8.31,9.32-11.14c-6.39,3.99-6.91,6.33-7.78,7.05   c-1.32,1.1-2.37,2.56-2.76,4.41c-2.55,2.98-2.35,4.76-1.99,4.76C182.96,71.64,182.45,71.73,182.55,71.63z M184.26,66.58   c-0.2,0.2-0.36,0.68-0.67,0.69C183.83,67.18,184.01,66.77,184.26,66.58z"/>
	<path d="M199.86,81.17c-5.79-0.81-11.55-1.87-17.12-3.96C187.76,80.82,193.99,82.06,199.86,81.17z"/>
	<path d="M177.98,84.51c-2.33,5.78-2.13,12.16-3.44,18.24C179.51,81.42,179.1,84.88,177.98,84.51z"/>
	<path d="M168.86,81.87c-4.13,0-5.5,2.92-6.08,7.09C164.4,85.93,166.43,83.9,168.86,81.87z"/>
	<path d="M215.88,102.05c-1.81,1.81-2.99,3.4-4.87,3.77c-1.04,0.2-1.12-0.04-0.97,0.17c0.68,1,2.02,0.99,3,1.32   c0.3-2.13,2.33-2.74,3.66-4.04C216.69,101.93,215.58,102.34,215.88,102.05z"/>
	<path d="M209.89,105.79c-0.07,0.07-0.05,0.05-0.1,0.1C210.05,105.89,209.96,105.91,209.89,105.79z"/>
	<path d="M211.11,117.65c0-2.35-0.38-4.6-1.29-7.03C207.72,104.98,208.84,112.12,211.11,117.65z"/>
	<path d="M214.86,82.48c4.02,0.89,4.1,0.93,7.4,0.1C219.52,80.76,217.19,82.08,214.86,82.48z"/>
	<path d="M213.84,87.65c-1.79-1.79-4.14-1.87-8.61-2.42C207.54,86.55,209.67,87.39,213.84,87.65z"/>
	<path d="M218.1,99.81c-2.44,0.33-4.34,0.76-6.59,1.82c1.57,0.98,2.95,0.16,4.24,0.4c0.01,0,0.01,0,0.01,0   C216.35,101.17,218,101.45,218.1,99.81z"/>
	<path d="M215.76,102.03c-0.03,0.04-0.07,0.06-0.09,0.11C215.97,101.99,215.88,102.06,215.76,102.03z"/>
	<path d="M215.87,78.63c1.52,1.42,3.24,1.42,5.78,0.41C219.2,78.13,217.5,78.63,215.87,78.63z"/>
	<path d="M217.29,118.86c1.69,1.61,2.78,2.43,4.66,1.01C220.53,118.55,219.11,118.75,217.29,118.86z"/>
	<path d="M214.15,108.62c-0.62,1.57-0.18,2.89-1.53,3.65C215.21,111.51,215.28,111.37,214.15,108.62z"/>
	<path d="M165.01,93.63c-1.52,1.32-1.32,3.24-1.82,4.86C164.25,96.77,165.01,95.78,165.01,93.63z"/>
	<path d="M202.28,107.46c0.78,1.52,2.3,1.59,4.06,2.18C203.48,107.24,202.04,107.05,202.28,107.46z"/>
	<path d="M205.23,85.32c-0.51-2.03-1.92-1.01-3.65-1.22C202.84,85.55,203.85,85.64,205.23,85.32z"/>
	<path d="M161.77,91.3c-0.91,1.01-0.91,2.13-1.11,3.14C161.59,93.58,161.77,92.59,161.77,91.3z"/>
	<path d="M180.21,197.68c0.41,1.22,1.42,1.52,2.53,1.62C182.23,198.67,181.08,197.83,180.21,197.68z"/>
	<path d="M218.3,84.31c-1.32,0.5-1.64,1.07-1.6,1.97C216.77,87.74,216.77,88.04,218.3,84.31z"/>
	<path d="M223.87,96.67c-0.52,1.08-0.9,1.84,0,2.84C224.78,98.52,224.1,97.53,223.87,96.67z"/>
	<path d="M226.1,197.38c0.83-0.24,1.17-0.71,0.81-1.52C226.32,196.12,226,196.5,226.1,197.38z"/>
	<path d="M213.24,115.11c0.71,0.61,1.09,0.39,1.72,0C214.05,114.19,213.74,115.21,213.24,115.11z"/>
	<path d="M196.01,112.57c0.1,1.22,0.91,1.93,1.82,2.43C197.5,113.89,197.17,112.96,196.01,112.57z"/>
	<path d="M178.79,377.62c2.33,1.52,3.85,1.52,5.67-0.1C182.54,376.71,181.02,377.42,178.79,377.62z"/>
	<path d="M242.11,382.99c-0.97,0-0.84,1.01,0,1.01c0.2,0,0.41-0.2,0.71-0.3C242.72,383.29,242.41,382.99,242.11,382.99z"/>
	<path d="M248.29,449.86c-1.82,1.72-3.24,5.57-3.55,9.73c0.61,0.71,1.42,1.01,2.32,1.11C246.89,456.56,249.26,453.62,248.29,449.86z   "/>
	<path d="M228.64,494.64c3.04,0.1,5.47-0.2,7.8-1.82C233.99,491.88,232.13,492.77,228.64,494.64z"/>
	<path d="M249.51,446.21c1.11-1.62,0.2-3.34,1.82-5.17C248.19,443.27,248.19,443.27,249.51,446.21z"/>
	<path d="M221.64,494.64c1.4,1.4,2.85,1.48,4.76,1.01C224.87,493.93,223.3,494.45,221.64,494.64z"/>
	<path d="M249.88,471.3c0.42,0.53,0.64,0.98,0.69-0.12c0.03-0.67-0.29-1.19-0.76-1.66C249.16,470.16,249.33,470.61,249.88,471.3z"/>
	<path d="M253.15,437.6c-0.81,0.71-1.62,1.32-1.32,3.14C254.77,437.39,253.4,437.23,253.15,437.6z"/>
	<path d="M247.48,465.36c-0.61,0.51-0.2,0.81,0.2,1.11C248.48,467.27,249.4,466,247.48,465.36z"/>
	<path d="M261.67,283.6c-0.07,1.2,0.26,1.87,1.52,2.33C263.59,284.71,262.88,284.2,261.67,283.6z"/>
	<path d="M249.1,276.92c1.01,0.81,1.72,1.01,2.43,0.3C251.17,276.14,250.56,275.79,249.1,276.92z"/>
	<path d="M255.18,279.44c0.2,0.61,0.61,0.91,1.32,1.01C256.5,279.44,256.51,279.44,255.18,279.44z"/>
	<path d="M198.24,440.64c-1.62-1.32-2.74-1.01-4.66-0.1C195.45,441.04,196.61,441.15,198.24,440.64z"/>
	<path d="M161.06,387.14c1.42,0.81,2.23,0.41,3.04-0.2C162.82,386.65,162.78,386.63,161.06,387.14z"/>
	<path d="M197.23,452.8c2.59,0.94,2.57-1.78,0.88-0.7C197.87,452.25,197.61,452.49,197.23,452.8z"/>
	<path d="M154.2,387.26c1.19,0.68,2.2,0.19,3.31-0.63C156.06,385.66,155.16,386.64,154.2,387.26z"/>
	<path d="M154.08,387.24c0,0.09-0.06,0.15,0.12,0.01C154.17,387.25,154.2,387.24,154.08,387.24z"/>
	<path d="M169.88,474.42c0.68-5.59-0.82-7.61-5.89-7.34c-0.5,0.5-1.02,0.93-1.42,1.52c-2.17,3.2,0.14,8.42,4.86,6.79   C170.05,474.49,169.88,474.52,169.88,474.42z M168.64,470.68c-0.49,1.6-2.72-1-1.6,2.99c-4.35,0.86-4.84-3.92-1.72-4.86   C167.85,468.03,168.73,470.49,168.64,470.68z"/>
	<path d="M164.1,466.98l-0.2,0.1C164.01,467.08,163.97,467.1,164.1,466.98z"/>
	<path d="M164.18,466.87c0.89-0.52,1.65-0.84,2.41-1.57c4.12-3.99-1.99-10.59-6.03-6.04c-1.9,2.14-1.11,5.51,1.09,6.8   C161.94,466.22,163.89,467.04,164.18,466.87z M160.95,462.32c0-3.42,5.36-3.69,5.38-0.23C166.35,465.5,160.95,465.67,160.95,462.32   z"/>
	<path d="M164.1,466.98C163.99,466.95,163.95,466.98,164.1,466.98L164.1,466.98z"/>
	<path d="M160.15,457.11c2.35,0.35,2.13-2.6,4.3-1.87c1.63,0.54,1.88-0.21,1.27-1.03c-0.75-1-2.68-0.72-2.93-2.12   c-0.1-1.52,2.23-0.91,1.93-2.63c-2.68-0.33-7.8,1.53-7.8,1.63C157.31,452.91,157.15,456.67,160.15,457.11z M160.85,451.99   c0.9,1.7,1.29,2.71-0.71,3.44C158.16,454.21,158.23,451.4,160.85,451.99z"/>
	<path d="M173.62,470.93c9.63,5.47,13.48,13.07,10.94,24.11C189.92,485.54,181.75,471.94,173.62,470.93z"/>
	<path d="M152.65,422.91c-7.96,1.69-5.92,11.41,0.41,17.73C149.59,433.71,146.28,428.12,152.65,422.91z"/>
	<path d="M165.41,495.55c-1.11-2.53-2.23-5.07-4.26-7.6C160.96,491.9,162.78,494.03,165.41,495.55z"/>
	<path d="M159.64,434.76c-4.74-3.21-2.22-3.46-3.65-5.07c-1.22-0.1-1.11,0.91-1.11,1.52C154.88,433.86,155.9,435.12,159.64,434.76z"/>
	<path d="M159.13,485.02c0.61-3.14,0.71-6.38-1.53-9.12C157.82,479.04,159.01,481.75,159.13,485.02z"/>
	<path d="M159.44,445.2c2.92,1.25,3.7-0.29,4.96-4.96C162.37,442.16,161.26,443.98,159.44,445.2z"/>
	<path d="M164.2,428.89c-0.83-2.7-2.31-4.82-4.96-5.67C160.26,425.68,162.53,426.91,164.2,428.89z"/>
	<path d="M170.58,493.93c0.41,2.84,1.32,3.75,4.66,4.46C173.62,497.07,172.2,495.55,170.58,493.93z"/>
	<path d="M175.14,507.51c2.03,0.81,3.44,0.81,5.37-0.81C178.29,506.78,176.83,506.21,175.14,507.51z"/>
	<path d="M168.55,501.94c0.51,2.23,0.51,2.23,2.53,2.63C170.48,503.35,169.77,502.34,168.55,501.94z"/>
	<path d="M180.41,496.16c-1.22-0.51-1.92,0-2.63,1.42C178.96,497.49,179.83,497.21,180.41,496.16z"/>
	<path d="M170.38,447.73c0.19-1.01,0.02-1.61-1.52-2.23C169.26,446.72,169.37,447.33,170.38,447.73z"/>
	<path d="M150.42,459.58c0.1-0.78,0.1-1.43-0.6-1.82C149.92,458.37,149.61,459.18,150.42,459.58z"/>
</g>
</svg>