<?xml version="1.0" encoding="UTF-8"?>
<!-- Generator: Adobe Illustrator 23.0.1, SVG Export Plug-In . SVG Version: 6.00 Build 0)  -->
<svg version="1.2" fill="#fff" baseProfile="tiny" id="Layer_1" xmlns="http://www.w3.org/2000/svg" xmlns:xlink="http://www.w3.org/1999/xlink" x="0px" y="0px" viewBox="0 0 900 600" xml:space="preserve">
<g>
	<path d="M559.89,167.65l0.1-0.1C559.93,167.49,559.94,167.58,559.89,167.65z"/>
	<path d="M513.52,591.49c0.05,0.08,0.01,0.1,0.1,0.1L513.52,591.49z"/>
	<path d="M697.25,587.14c3.8-5.41-7.34-8.55-3.75-21.76c1.66-6.09-0.74-7.62-0.51-14.78c-1.51-2.85-4.4-0.41-4.86-6.68   c-0.27-3.65-5.24-17.51-5.16-27.84c0.02-3.07-2.05-10.27-4.35-21.56c-1.85-9.09-4.61-31.62-11.84-46.36   c-13.93-28.4-3.94-59.05-10.12-84.02c-5.92-23.91-15.58-38.96-16.8-44.14c-6.95-29.32-15.62-9.39-5.47-63.17   c-0.3-0.71-1.42-1.01-1.21-1.92c3.65-12.04,5.22-41.21,7.69-49.3c-2.44-6,0.21-11.01,1.92-22.57c1-6.76,7.97-19.61,5.57-39.48   c-3.91-32.28,0.04-36.39-4.35-36.64c0,47.47,4.24,51.51-1.92,69.85c-8.47,25.19-1.86,34.31-7.29,41.91   c-12.65-17.39-14.34-17.18-19.03-24.5c-2.26-3.52-3.64-7.39-5.47-10.73c0.51-1.52,1.12-2.53,1.92-3.44   c2.9-3.29,1.62-4.88,5.87-13.56c3.25-6.63,4.04,3.68,5.57,7.59c0.97-9.43-3-11.1-0.91-15.69c2.61-5.73,2.53-22.72,2.53-28.95   c0-4.46-0.86-5.28,2.43-19.64c1.05-4.59-0.82-12.31-2.73-15.08c-0.89-1.48-1.89-24.64-1.42-28.65c1.03-8.65,1.64-12.66-0.1-27.03   c1.11-0.3,1.42,1.32,2.43,0.91c-0.81-2.73-2.94-3.12-5.06-3.54c-12.91-2.56-13.86-9.68-18.63-11.44c-0.81-0.3-1.82,0-2.13-1.32   c3.85-1.6,5.8,3.21,11.44,2.13c-1.62-1.42-4.07-1.29-5.67-2.83c-1.54-1.49-3.92-1.64-5.37-3.44c-3.15-3.94-5.3-3.79-8.5-9.62   c1.78,0.24,2.33,2.22,3.44,1.11c-1.01-1.52-2.53-2.33-4.25-2.63c-2.62,2.4,6.02,10.27,8.5,12.75c-0.71,1.21-2.02,2.23-1.42,3.75   c0.81,1.01,1.92,1.03,2.94,1.21c4.09,0.75,5.83,8.44,17.71,11.64c2.02,0.54,2.26,2.68,2.43,4.76c0.39,4.75,1.4,9.61,0.4,14.48   c-3.72,18.24,0.85,36.56,1.01,37.86c0.41,3.34,0.4,6.89,2.02,10.02c1.21,2.33,1.39,4.85,0.81,7.29   c-3.19,13.49-1.56,26.56-3.04,37.96c-1.95,15.12-9.07,13.97-13.77,29.25c-0.4,1.32-1.52,2.23-3.04,3.14   c-5.77-15.67-3.17-18.78,0.61-31.99c0.61,0.1,1.11,0.2,1.72,0.3c0.71-1.01,1.82-1.52,2.23-2.73c1.21-3.63,5.77-7.1,0.51-12.75   c-1.66-0.33-2.85,5.03-2.33-6.38c0.79-17.12-7.71-18.95-8.6-20.75c0.61-5.37-1.72-8.02-6.98-8.3c-4.25-0.22-7.59,1.32-9.52,5.26   c-15.57,0.4-18.31,16.5-17.41,31.99c-1.58,2.84-2.97,5.32-1.52,8c1.7,3.14,2.93,8.74,3.95,9.41c2.72,1.78,2.88,7.14,4.86,9.72   c2.98,3.89,1.55,10.36,1.21,15.18c0,0.4-0.3,0.61-1.11,0.51c-2.13-7.69-8.5-12.65-12.75-18.73c-4.61-57.58-2.82-39.74-8.81-53.95   c1.37-2.28-0.11-3.05,1.52-12.35c1.06-6.08,0.76-12.25,0.71-18.42c-0.02-2.23-1.21-4.15-1.21-6.28c0-29.05,2.83-25.11,1.92-31.79   c0-2.2,5.14-1.47,9.31-7.09c5.64-7.6,10.55-7.54,11.44-9.31c0.2-2.02-2.02-2.13-2.73-3.64c2.83-3.54,5.16-7.39,6.48-12.55   c-2.87,2.18-4.47,10.8-11.03,13.46c-2.32,0.94-1.05,2.14-4.96,4.45c-0.51,0.3-1.01,0.61-0.4,1.62c6.09-2.24,4.86-7.04,10.22-4.25   c-4.45,3.85-9.62,6.78-13.36,11.34c-1.36,1.9-10.32,2.74-9.52,4.35c0.4,1.32,2.13,0.1,2.63,1.62c-0.4,2.83,0.09,5.97-0.51,9.01   c-3.29,16.85,1.96,22.63-1.32,54.66c-1.07,10.41,3.54,6.17,4.45,23.79c0.34,6.58,1.62,13.16,1.42,19.84   c-0.2,6.78,2.23,13.26,2.33,20.04c0.01,0.6,0.1,1.38,0.78,1.79c0.76-1.29-0.24-2.75,0.64-4.22c4.56,5.77,8.1,12.05,11.34,18.42   c-1.52,5.37-3.48,10.83-4.35,16.4c-1.65,10.53-11.52,19.61-14.37,27.13c-3.08,8.12-4.28-9.19-5.37-12.65   c1.21-2.83,0.08-5.67-0.2-8.4c-1.27-12.17-2.55-16.51-6.88-26.72c-10.58-24.94-1.76-52.43-6.68-59.93c-0.4-0.61-0.41-1.42-0.3-2.13   c0.39-2.63-0.21-5.16-0.91-7.69c-4.44-16.01,5.57-50.78,5.57-52.64c0-7.48,3.27-14.91,3.04-17.82c-0.14-1.72,0.2-3.24,1.42-4.45   c-0.4-1.21-1.01-2.12-0.61-3.24c3.97-11.13,6.26-8.19,11.84-14.48c2.81-3.16,5.77-6.28,9.52-9.31c-1.42,2.94-3.95,4.25-5.57,7.29   c3.34-1.62,4.85-3.96,6.58-6.17c1.51-1.93,3.78-2.89,5.57-4.35c0.72-0.59,1.82-0.61,2.83,0.71c-5.16,2.94-7.49,8.4-11.94,12.35   c0.91,0.2,1.32,0.3,1.52,0.3c4.05-4.66,8.4-8.6,12.05-13.36c0.51,0.4,1.21-0.2,1.72,0.71c-0.71,3.04-3.03,5.27-4.96,7.79   c-2.02,2.64-5.36,3.75-7.39,7.39c6.58-3.85,10.73-9.11,14.78-14.48c-1.62-0.81-1.32-2.33-1.62-3.95c-3.95-0.2-7.59,1.21-11.54,1.72   c-1.62,1.32-3.82,1.94-5.06,3.75c-9.87,14.36-21.13,13.35-19.64,27.64c-1.21,1.32-1.51,3.24-1.92,5.26   c-16.37,80.87-7.33,55.48-7.19,79.67c0,0.24,1.68,3.12,1.01,15.89c-1.62,31.21,8.37,54.14,9.52,62.36   c6.33,45.28,12.96,60.18,11.84,62.15c-0.69,1.22-0.22,2.23,0.1,3.34c1.7,5.83,3.25,3.57,6.88,24.9c3.12,18.3-6.22,17.26-9.11,31.89   c-1.74,8.8-5.1,17.1-7.29,25.71c-5.28,20.75-3.01,63.9-4.76,73.9c-5.08,0.34,0.79,20.51-6.28,37.86   c-7.47,18.34-7.67,61.42-8.5,73.59c-0.43,6.27-1.62,12.45-1.11,18.73c-3.88,2.96-9.45,0.92-4.38,10.49   c-0.13-0.14-0.26-0.3-0.37-0.47c-0.71,0-1.52,0.2-1.32,1.11c0,3.75-1.86,7.4-0.71,11.24c0.58,1.92,0.21,2.57-4.96,17.71   c0.29,1.17,1.43,1.69,1.51,2.82c0.12,0,1.22,0.16,1.22-1.2c0.7-4.9-2.71,6.19,4.56-16.08c0-0.1,2.21,0.29,3.33,1.41   c-0.14,0.64-0.68,0.72-1.02,0.89c-1.88,0.82,1.08,1.25,1.33,1.74c-0.2,0.71-1.11,0.3-1.42,0.91c-0.19,0.98,0.66,1.2,1.54,1.49   c0.29,0.09,0.99-1.88,3.62-2.5c-0.51-1.62,0.81-2.63,1.01-4.05c-2.9-3.84-7.9-0.43-7.9-1.33c-0.93-1.47-0.29-3.33-0.19-3.33   c3.57,0.83,6.91,3.63,10.33,0.91c0.3-1.52-0.51-2.02-0.91-2.73c1.52-1.21,4.05-0.51,5.06-2.63c-0.45-1.55-1.56-1.77-3.14-1.52   c-3.04,0.48-12.85,2.38-10.94-0.8c0-0.1,1.79,0.45,5.12,0.45c8.79-0.01,13.05-5.9-2.68-2.91c-0.9,0.17-1.8,0.26-2.51-0.56   c1.53-0.53-1.55-5.54,0.61-8.13c3.14-0.3,6.38-0.61,9.52-0.91c2.13,1.52,1.72,4.56,4.05,6.07c2.21-2.01,5.95-2.45,5.77-6.68   c2.71,2.71,4.95,4.08,3.78,8.79c-1.46,5.85-4.2,8.51-6.09,15.2c-2.42,8.55,7.52,20.73-2.33,22.57c-8.19,1.53-12.18-6.16-19.33,0.61   c-1.98-1.39-1.64-3.75-2.68-5.36c-0.49-0.08-0.87,0.12-1.16,0.81c0.94,4.4,0.94,5.43,2.13,6.38c8.21,3.24,9.34-1.11,15.29-0.1   c9.88,1.67,13.34-3.2,12.35-9.41c-0.83-5.18-2.96-5.88-3.64-14.37c7.29-13.54,6.36-7.4,8.6-18.42c0.88-4.35-3.77-7.6-7.9-9.21   c1.54-9.23,5.04-24.52,7.9-33.51c6.34-19.93,7.59-10.06,14.58-28.65c1.02-2.73,1.21-5.97,2.13-8.91   c1.82-5.87,2.43-11.84,2.43-17.92c0-6.03,1.87-7.19,1.92-9.72c0.19-8.56,8.52-32.11,15.69-47.88c3.06-6.73,0.78,9.09,9.31-31.89   c0.63-3.03,1.92-5.77,3.95-8.2c6.82,5.4,9.44,24.38,17.82,38.87c3.36,5.81,12.63,21.33,13.87,27.94c0.92,4.9,4.95,17.51,9.21,23.79   c3.74,5.51,0.33,4.99,1.01,15.89c1.37,21.87,14.19,32.21,19.13,41.71c4.39,8.44,7.69,17.31,11.44,26.22   c-1.11,1.32-1.53,2.93-1.82,4.56c-1.52,8.57-10.65,11.6-2.94,23.59c3.77,5.86,6.32,9.84,5.47,14.48   c-1.03,5.57-2.75,9.23-0.91,14.58c2.21,6.44,10.81,4.09,15.39,4.35c3.74,0.21,6.17-1.52,8.6-4.05c-0.91-1.32-2.12-1.53-3.44-1.72   c-7.13-1.02-9.05-1.8-11.03,3.44c-1.92-0.3-3.85-0.61-5.57-0.81c-2.73-2.94-2.13-6.48-3.14-9.52c6.39-10.09,0.12-16.44-3.64-22.88   c-5.36-9.18,1.18-14.11,3.44-19.84c0.61,3.85,1.62,6.38,4.96,7.19c1.11-7.6-0.86-11.64-14.07-40.29c-0.42-0.91-1.3-1.82-1.11-2.94   c0.45-2.69-4.48-9.36-5.97-11.34c-2.22-2.94-3.87-6.16-6.17-9.11c-2.76-3.52-5.05-7.49-4.05-12.45c0.1-0.51-0.21-1.11-0.2-1.72   c0.05-5.26-1.51-10.33-1.92-15.49c-0.57-7.14-4.84-8.89-4.45-12.96c0.1-1.01-0.69-1.94-1.32-2.83c-1.08-1.54-1.52-3.44-2.33-5.16   c-1.11-2.38,3.19-0.06-5.87-17.21c-3.22-6.09-7.15-11.76-9.72-18.12c-2.99-7.41-6.99-14.47-9.31-22.17   c-0.9-2.98-4.06-3.66,10.63-6.07c14.31-2.35,20.21-5.91,32.19-11.64c2,4.28,3.45,25.84,3.85,31.38   c1.82,25.42-1.88,14.84,3.24,44.64c1.04,6.07,2.54,0.48,10.33,27.03c10.41,35.51,12.32,67.46,15.69,76.73   c0.84,2.32,1.11,4.66,1.01,7.19c-7.39-1.72-10.83,0.4-9.52,5.87c1.82-0.51,1.72-2.83,3.44-3.34c3.54,0.3,6.58,2.23,10.22,3.54   c-0.4,1.52,0.61,2.94,0.3,4.76c-3.34,0-6.67,0.28-9.82-1.01c-1.51-0.62-2.73-0.71-3.44,1.01c0,1.72,1.42,2.23,2.23,3.34   c-1.21,0.4-2.83,0.1-2.94,1.92c0.2,1.11,1.02,1.91,2.02,2.33c9.95,4.14,11.86-0.06,12.65,1.52c0,0.91,0,1.82-1.21,2.43   c-3.24-0.81-6.88-0.81-10.12-2.02c-1.52,1.01-1.82,2.43-0.61,3.34c1.42,0.91,1.01,2.43,1.82,3.85c2.83,0.61,5.67,1.01,8.4-0.51   c0.3-1.11-0.81-1.52-0.81-2.53c0.61,0,0.91-1.01,1.82-0.51c0.15,1.53,0.36,3.04,0.72,4.48c-3.08,0.54-6.25-0.38-9.12,2.1   c3.17,2.28,7.02,1.35,9.17-1.92c1.69,6.68,5.1,6.75,5.1,10.63c0,3.85,0.2,7.69-3.54,10.73c4.25-0.4,4.86-1.21,5.57-6.38   C696.7,588.01,696.56,588.13,697.25,587.14z M524.02,567.37c0.41,0.07-1.78,1.22-4.42,0.33c-0.4-1.01,0-1.62,0.1-2.33   C521.37,565.67,522.39,567.07,524.02,567.37z M520.81,596.75c0.63-0.37,1.1-0.34,1.62,0C521.93,597.06,521.32,597.26,520.81,596.75   z M684.21,592.9c1.05-0.29,2.19,0.06,3.32,0.52C684.62,593.41,681.72,593.59,684.21,592.9z M611.51,143.15   c-0.81-0.91-1.42-1.62-1.92-2.23C609.99,139.74,612.35,136.01,611.51,143.15z M609.99,145.38c-0.1,1.82-1.01,2.73-2.33,4.35   C606.96,146.7,608.68,146.29,609.99,145.38z M607.46,128.27c0,0.77-0.53,1.39-0.96,1.61C606.6,129.32,606.47,128.64,607.46,128.27z    M605.72,125.71c-0.19-1.05,0.52-1.48,0.93-1.89C606.9,124.79,606.7,125.47,605.72,125.71z M604.83,114.81   c-0.64,0.7-0.95,0.46-1.19,0.11c-1.18-1.65-1.19,0.2-2.04,0.2c-1.16-1.16,0-2.73-0.81-4.15   C602.63,111.7,604.31,112.89,604.83,114.81z M598.03,112.97c-0.51-0.51,0.54-2.34,1.33-3.93   C600.07,111.03,599.38,112.03,598.03,112.97z M597.44,103.78c-0.2,1.01-1.52,0.4-1.72,1.21c0.9,0.3,2.24-0.71,3.04,1.21   c-1.43,0-2.49-0.53-3.04-1.21c-1.5,1.29-2.93,0.34-4.56-0.2c-0.1-0.71,0.81-0.91,0.91-1.62c-0.19-0.3-0.64-0.29-0.91-0.1   c-1.85,1.3-1.79,2.58-4.56,1.62C586.71,103.33,591.57,99.14,597.44,103.78z M592.79,110.74c0-0.22-0.04-0.44-0.3-0.59   c-1.42,0.91-0.71,3.04-2.33,4.25c0.01-0.1,0.56-5.16,0.61-5.06c1.1,0,1.02-2.75,2.8-2.1C595.68,108.03,592.79,113.97,592.79,110.74   z M585.5,106.61c0.51,1.32,0.1,2.02-0.81,2.83C584.49,108.28,584.18,107.42,585.5,106.61z M582.56,107.32   c1.52,2.83,1.92,4.96,1.72,8.71C581.25,112.99,580.64,110.36,582.56,107.32z M574.07,110.9c0.12-0.07,0.26-0.18,0.3-0.18   c0.05,0.77,0.35,1.72-0.2,2.47C573.4,111.89,573.11,111.53,574.07,110.9z M567.28,145.99c-1.58-1.28-1.58-2.58-1.11-4.35   C568.09,142.75,566.97,144.37,567.28,145.99z M568.29,130.1c0.51,0.3,1.01,0.61,1.01,1.32C568.15,131.3,568.2,131.28,568.29,130.1z    M574.46,162.19c-3.6-7.51-2.25-7.39-3.44-10.53c-1.64-4.32-3.16-5.5-2.33-17.21c0.3-1.32,1.42-1.72,2.02-2.63   c0.4-1.11-0.1-2.13-0.1-3.14c-0.34-0.68-0.65-0.03-0.96,0.03c-0.27,0.05-1.2-3.05-1.77-4.88c0.86-0.31,1.13,0.51,1.72,0.51   c0.15,0,0.8-0.46,0.91-1.01c-2.31-0.93-1.93-2.55-1.34-2.47c0.36,0.05,0.64,0.27,1.03-0.36c0.2-0.51-0.91-0.81-1.21-1.92   c0.51-0.91,1.82-1.92,1.11-3.75c1.72,0.43,2.12,2.53,3.75,2.83c0.76-0.76-1.1-1.56-0.61-2.53c0.85,0,1.37,1.26,2.43,1.62   c0.18-0.18,1.4-3.02-1.23-6.06l0.01-0.01c0.8-1.6,1.93-1.89,1.93-1.79c0.9,2.63,0.2,6.05,3.63,7.36c0-1.9-3.51-8.7-1.32-8.8   c0.79-0.04,1,0.69,0.91,1.2c-0.4,3.44,1.62,5.97,3.04,8.71c1.52,0.71,3.04,0,4.86,1.21c-0.99-1.98,0.86-7.72,0-11.03   c0.1-0.1,0.3-0.3,0.51-0.4c2.8-0.8,2.58,1.77,2.67,2.07c-0.69,0.5-1.38,1.08-2.07,1.58c-0.58,2.21-1.52,6.49,0.71,6.93   c1.54,0.31,3.11-2.05,4.15-3.39c0-0.33,0.23,1.25,0.36,1.18c2.18-0.65,1.95-0.73,1.95-1.69c-0.89-0.89-1.38,0.11-2.09,0.35   c-0.47,0.16,0.21-1.47,1.18-2.08c0.13-1.78,0.89-4.36,1.17-3.96c1.16,1.69-0.76,2.87-0.47,4.26c0.03-0.02,0.06-0.03,0.1-0.04   c2.11-0.97,0.62,0.27,1.44,0.48c-0.38,0.15-0.61,0.73-1.08,0.61c-0.23-0.06-0.31-0.23-0.24-0.02c0.36,1.56-0.95,1.74,1.4,0.8   c0.12-0.24,0.25-0.49,0.41-0.74c-1.2,2.4-0.4,1.59,1.35,2.49c1.57,0.81,1.84,1.77,2.09,1.77c0.44,0,1.72-1.44,1.72-0.97   c-0.24,2.04,1.77,4.01,1.85,3.85c0.65-1.29,0.16-3.92,0.67-3.74c3.36,1.2-2.67,6.93,0.3,8.89c-0.46,1.37-2.09,4.33,0.72,4.33   c-0.31,8.57,2.17,10.3,0,15.59c-3.57,8.7-2.18,21.61-15.59,24.8C585.53,171.73,577.52,168.57,574.46,162.19z M574.56,192.45   c0.21-2.73,1.32-5.26,1.21-8c-0.1-2.66,1.42-4.85,1.41-7.96c0-1.4,1.35,3.74,2.74,4.82c-0.5-2.32-0.66-4.83-2.33-6.88   c3.26-5.06-5.74-9.02,7.09-2.73c2.52,1.24,5.17,1.44,7.79,0c1.98-1.09,6.17-2.4,7.7-4.96c1.51,6.38,1.71,12.86,6.27,17.41   c0,11.57,3.75,18.46-12.65,23.28c-3.32,0.66-1.33-1.74-1.82-2.33c-0.49-0.2-0.9,0-1.01,0.3c-0.52,1.39-2.05,1.45-3.04,2.13   c-0.6,0.41-1.82,0-2.73-0.2C576.48,205.35,573.78,202.78,574.56,192.45z M556.97,252.7c-0.68-5.59-1-5.68-2.85-11.97   c-3.65-12.38,2.13-16.11,7.47-23.83c3.99-5.76,6.44-8.59,6.5-12.71c0.03-2.01,3.94-6.92,1.73-10.83c1.21-1.21,2.13-2.23,2.73-3.64   c-0.2,3.38-0.44,6.78,0.08,10.14c1.25,8.12,10.58,10.93,16.42,9.18c2.67,11.76,0.56,5.77,2.02,0.51c1.2-1.65,9.27-0.84,15.08-8   c5.45-6.71-1-14.39,2.86-16.97c0.1-0.07,0.58-0.42,0.58-0.31c1.01,3.12,4.45,11.05,6.57,13.54c3.63,4.26,6.78,8.91,10.73,12.86   c2.23,2.23,3.57,5.04,5.16,7.69c2.48,4.12,4.05,8,2.63,13.26c-2.08,7.69-0.53,9.13-4.35,27.23c-11.03,5.87-54.24,7.49-71.46,2.83   C558.88,261.79,557.76,259.23,556.97,252.7z M567.07,295.1c-0.09-0.95-0.71-1.1-1.6-1.36c-0.65-0.19,0.22-6.03-0.83-11.6   c-0.69-3.65-2.63-7.09-2.23-11.14c-1.52-1.62-1.92-3.85-2.53-6.07c4.64,0,16.35,5.39,43.33,1.11c10.81-1.71,11.26,0.86,26.85-4.24   c0.31-0.1,2.22,1.88,0.79,4.54c-1.4,2.59-6.45,20.38-2.13,32.29c1.8,4.95,7.83,12.09,8.4,21.87c-5.27,0.9-23.08,5.13-23.08,4.64   c0.45-2.59,3.38-6.19,2.6-5.78c-1.91,1.01-1.95,1.14-4.63,5.7c-21.55,1.65-35.76,2.8-55.57-5.57   C560.8,311.39,563.13,302.89,567.07,295.1z M570.11,426.69c-0.32,1.09-2.65,5.26-1.93,5.74c0.5,0.39,0.39,0.87,0.11,1.35   c0,0-1.31,6.97-2.13,10.12c-0.92,4.61-2.77,0.15-3.95,20.25c-1.74,29.57-10.08,22.84-18.73,49.2c-0.73,2.22-1.42,4.56-2.33,7.19   c0.1,0.61,0.9,1.41,0.51,2.73c-4.2,14.04-3.49,18.61-4.69,19.59c-0.71,0.57-0.35-2.66-1.39-3.69c-0.91,3.95-0.4,7.9,1.32,9.62   c-0.62,2.88-1.92,3.58-1.92,3.75c-1.16-1.16-1.27-2.78-2.75-4.58c-1.75-2.12-3.52-0.16-5.72-0.54c-1.28-0.22-0.18-5.95-0.03-7.04   c2.76-19.81,0.13-23.43,5.26-56.28c1.38-8.83-0.47-12.36,4.56-21.56c6.48-11.86,4.63-22.36,6.28-31.89   c1.49-8.59,1.82-17.21,1.82-25.91c0-1.72-0.2-3.34-1.72-4.56c2.94-34.96,2.63-32.67,2.93-32.52c29.21,10.22,42.83,4.91,42.83,6.22   C585.43,398.67,577.93,399.73,570.11,426.69z M606.24,369.4c0.1,0-3.59-7.39-3.64-7.49c-1.46-2.57-6.81-5.43-6.91-5.32   c-3.37,3.49-3.72,8.28-5.13,12.51c-0.81,0.61-1.72,1.21-2.43,1.82c-13.06,0-24.84-1.08-42.11-7.09   c1.03-14.22,2.95-27.99,9.41-40.69c6.05,2.78,26.58,7.15,43.61,5.55c6.67-0.63,10.33-0.31,15.1-0.99   c12.8-1.82,16.68-3.47,23.19-4.24c1.05,0,1.44,4.6,2.32,5.35c3.27,2.8,3.59,6.77,4.76,10.43c2.45,7.7,4.44,7.03,6.68,16.3   C633.96,365.1,618.15,369.08,606.24,369.4z M691.58,562.64c-1.96-0.72-3.82-1.41-5.87-1.62c1.92-0.51,3.85-0.4,5.67-1.42   C692.13,560.99,692.06,561.69,691.58,562.64z"/>
	<path d="M342.15,350.27c-1.49-1.32-0.7-1.22-1.32-21.16c-0.59-19.21-2.01-24.98-7.9-41.4c-2.73-7.62-2.9-9.1-3.95-33.1   c-0.11-2.43-1-4.65-0.71-7.09c0.95-7.99,0.51-15.89,0.71-23.89c0.12-5.07-1.5-14.01-7.49-17.01c-12.03-6.01-11.07-1.41-19.03-7.29   c-4.14-3.55-2.01-0.02-12.75-7.29c-2.06-6.18-4.34-12.66-2.33-19.94c4.7-17.02,2.37-9.27,4.86-10.93c2.43-1.32,2.2-4.38,3.95-6.17   c1.66-1.7,1.36-6.62-0.91-8.6c-1.52-0.91-1.62,1.01-2.73,0c0-4.05,0.13-8.2,0-12.35c-0.35-11.55-7.66-13.31-8.4-15.29   c0.2-5.97-2.33-8.38-8.3-8.2c-3.95,0.12-6.68,2.02-8.3,5.37c-1.21,0.2-2.23-0.31-3.34,0c-7.31,2.06-11.52,6.99-12.65,14.27   c-3.19,20.51,0.55,14.86-2.53,19.84c-2.18,3.52-0.06,4.92,2.33,12.05c0.58,1.73,1.42,3.24,3.04,4.05   c3.31,12.02,5.91,7.24,4.56,21.56c-0.68,7.19-5.13,7.38-20.85,14.78c-11.23,5.28-10.84,2.27-14.17,5.97   c-3.79,4.21-5.37,9.52-5.37,15.08c0,6.28-0.17,12.55,0.3,18.83c1.04,13.67-0.84,6.43-1.21,30.17   c-0.25,16.12-10.83,26.74-10.83,52.64c0,4.56-0.1,9.11-0.4,13.56c-0.3,4.45,0.61,9.11-1.42,13.46c-0.51,9.11-1.82,18.12-3.04,27.33   c2.83,2.63,5.25,5.67,6.78,9.31c2.67,6.36,7.87,5.47,17.41,8c0-0.43,0.05-0.74,0.08-1c0.45,0.04,0.89,0.16,1.34-0.82   c-2.53-1.42-1.52-4.76-3.44-6.78c0.2-0.71,1.11-0.91,1.11-2.02c-0.81-1.82-1.14-3.95-0.61-6.07c0.58-2.33-1.72-3.95-1.21-6.17   c0.16-1.05,0.29-8.44-2.63-14.58c-2.02-4.25-6.88,0.81,10.33-39.68c4.29-10.1,7.19-20.34,6.98-31.38c-0.05-2.73,0.8-5.36,0.4-8.1   c-0.21-1.42,0.51-2.73,1.62-4.15c1.42,4.25,2.97,8.1,2.63,12.35c-0.51,6.39-2.49,22.51-5.57,28.55   c-5.11,10.01-3.29,13.9-6.48,14.88c-3.48,10.76-1.46,19.1-1.92,23.69c-3.11,30.71,3.45,53.01,10.63,83.61   c2.99,12.74-0.03,11.25,1.92,23.28c2.02,12.48-4.25,15.22-2.02,31.18c4.39,31.48,6.62,26.36,8.91,38.06   c5.27,26.96,5.65,23.48,4.35,26.42c-19.39,43.93-12.07,34.4-15.39,38.16c0.71,1.32,1.82,1.49,2.83,1.62   c19.63,2.44,17.6,0.21,29.96-0.71c1.42-0.11,2.83-0.51,3.54-2.43c-2.76-4.35-1.73-8.49-2.53-15.29c-1.18-10.02,2.85-9.47-0.3-17.41   c-2.11-5.32-3.56-4.28-3.54-6.88c0.17-30.81-1.98-32.02,0.91-40.79c1.74-5.26,2.5-10.73,1.82-16.2   c-0.74-5.97-0.17-12.08-1.72-18.02c-0.19-0.71-0.1-1.42,0-2.13c1.42-6.38,1.67-12.85,2.73-19.33c1.28-7.8-0.82-8.68-0.1-21.36   c0.46-8.23,2.8-17.45,4.45-25.41c1.57,2.75,1.62,3.6,2.23,17.82c0.56,12.95-1.37,11.38-0.1,19.84c0.66,4.4,2.33,17.29,4.96,20.85   c-8.36,27.47-0.53,40.98-1.01,60.53c-0.25,10.31,0.35,19.21,0.71,24.7c1.53,2.49,2.78-1.33,1.32,6.48c0.65-0.25,0.4-0.1,1.12-0.45   c1.15-0.54,1.9-2.99,1.9-3.09c2.81-1.61,6.52,0.66,9.43-2.63c0.9-1.02-0.41,5.35,2.32,9.72c-3.6-0.98-6.69-1.15-10.93-0.1   c-1.56,0.39-2.93,0.52-3.04,2.23c0.4,1.52,1.72,1.21,2.63,1.62c-0.1,0.51-0.4,0.91,0,1.72c4.09,1.18,8.7,0.37,11.94,0.91   c0.61-1.62-0.81-1.92-1.01-2.73c-0.09-0.74,0.16-1.32,0.84-1.79c0.44-0.31,2.74,2.15,3.01,5.44c0.36,4.48,0.35,6.91,2.73,8.4   c2.26,1.41,2.38,2.63,4.25,8.71c-0.2,0.2-0.41,0.25-0.66,0.49c-0.77,0.74,1.16,2.05,1.58,3.87c-4.25,1.42-21.09,1.85-26.32,0.81   c-0.1-3.54-1.64-7.09-0.91-10.93c0.95-5-0.53-12.13,0.91-18.42c0.28-1.22,0.61-2.53,0.2-3.75c-1.11-0.71-1.72,0-1.32,0.91   c-0.91,3.85-1.74,7.69-1.52,11.64c0.99,17.87-2.97,18.87-0.4,22.98c5.31,1.57,22.42,0.79,28.65,0.1c1.72-0.19,3.64-0.1,4.66-1.92   c0.2-2.13-1.92-2.53-2.83-3.95c-0.71-4.29-0.36-8.03-3.34-11.34c-4.33-4.79,0.03-9.46-6.07-14.78c-0.6-0.52-1.33-1.01-1.52-1.82   c-0.78-3.43,0.71-7.29-1.82-10.43c0.81-1.62,0.93-3.34,1.01-4.96c0.28-5.56,1.59-11.04,3.04-16.4c2.72-10.09,0.65-5.11,4.05-19.44   c10.88-45.93-5.55-40.78,8.1-76.73c0.19-0.51,0.51-1.11,0.3-1.42c-1.01-2.02,0.2-3.75,0.61-5.47c2.46-10.43,3.66-12.51,3.44-14.78   c-0.18-1.8-0.1-2.11,2.83-14.98c0.61-2.67,0.17-3.5,9.11-4.76c9.97-1.4,6.58-7.41,15.39-15.39   C341.8,347.29,342.51,350.59,342.15,350.27z M249.52,152.27c1.94,1.13,0.79,2.79,1.21,4.45   C249.02,155.3,249.22,153.88,249.52,152.27z M294.67,153.38c-1.26-0.25-1.97-1.65-1.9-1.78   C293.62,149.27,295.41,148.21,294.67,153.38z M294.06,148.01c-0.4,0.3-0.81,0.61-1.32,1.01   C292.85,148.01,293.36,147.91,294.06,148.01z M293.15,155.4c0.2,1.82-0.81,3.14-2.02,4.86   C289.61,157.23,292.85,157.12,293.15,155.4z M289.89,135.88c-1,1.02-0.44-0.7-0.27-1.63C290.22,134.94,290.31,135.45,289.89,135.88   z M287.69,126.35c-0.91-0.01-0.81-1.21-1.62-1.21c-0.91,0.2-0.81,1.61-1.91,1.72c0.02-2.08,0.13-3.54-0.61-5.77   C286.07,122.71,287.99,123.62,287.69,126.35z M282.32,120.48c0.61,1.21,0.61,1.21-0.81,3.04   C281.01,122.1,281.92,121.39,282.32,120.48z M282.02,117.24c-1.01,0.25-1.52-0.26-2.33-0.61c0.1-0.31,0.2-0.69,0.3-1.01   C281.13,115.63,281.81,115.74,282.02,117.24z M279.4,123.68c-0.12-2.06-0.98-0.06-1.83-0.06c1-1.31,0.76-3.22,1.72-4.76   c1.37,1.37-0.3,2.37-0.21,3.54C279.07,122.59,279.42,122.92,279.4,123.68z M275.94,120.78c-1.52,1.11-0.81,3.24-2.33,4.45   c-0.07-1.94,0.33-4.13,1.72-6.88c2.34-1.03,3.37,1.42,0.61,5.57C275.14,122.82,276.36,122.02,275.94,120.78z M280.6,114.51   c-0.05,0.1-0.46,0.6-0.71,1.11c0.03,0,0.06,0,0.09,0c-0.56,0.01-1.85,0.93-2.65,0.99c-0.8,0.06-1.51-0.75-1.59-0.99   c-1.04,0.26-1.82,0.88-1.17-0.37c0.35-0.69,1.13-1.04,1.78-1.04c-0.85-1.98-2.67,0.49-3.75,1.42c-1.94,0.34-2.44-0.17-2.83-0.3   C273.31,112.08,276.55,111.77,280.6,114.51z M268.86,117.75c0.51,1.21,0,1.82-0.71,2.53C267.75,119.16,267.54,118.35,268.86,117.75   z M266.02,117.65c1.01,3.34,2.02,6.07,1.62,9.11C264.36,124.25,264.17,121.39,266.02,117.65z M257.79,121.61   c0.05-0.05,0.05-0.09,0.09,0.08c0.18,1.12-0.1,2.32,0.55,3.34C255.82,122.68,256.63,123.17,257.79,121.61z M251.37,141.59   c0.01-1.08,1.12-0.89,1.3,1.06C251.89,142.35,251.36,142.15,251.37,141.59z M253.17,163.91c-1.36-2.18-0.93-3.27-0.51-2.63   C253.27,162.08,253.67,162.89,253.17,163.91z M253.08,158.64c-1.27-2.03-1.07-11.38-0.81-13.56c0.4-1.11,1.32-1.52,1.92-2.23   c0.51-1.11,0-2.13,0-3.14c-0.51-0.51-0.71,0.51-1.42,0.2c0.3-1.7-0.97-3.2-1.2-4.99c0-0.57,1.09,0.58,2,0.33   c0.31-0.31,0.66-0.66,0.81-0.81c-0.68-0.37-2.86-1.12-2.03-2.36c0.26-0.47,0.86,0.17,1.13-0.88c0.11-0.4-1.01-0.81-1.01-1.82   c3.52-2.82-0.34-5.81,3.95-0.81c0.96,0.13,1.32-0.21,1.52-0.71c-1.56-0.52-1.83-2.64-1.92-2.94c0.73,1.22,1.92,1.01,1.92,2.94   c0.61-0.1,1.42,0,1.72-1.52c-0.29-1.29-0.31-3.25-1.73-4.85c4.16-4.16-0.16,2.75,6.22,6.9c1.4,0.91-3.06-5.06-2.66-9.55   c1.05-0.43,1.62,0.05,1.52,0.91c-0.39,3.43,1.52,5.97,3.14,8.6c1.61,0.57,2.66-0.17,4.55,0.91c-0.4-3.85,0.61-7.39,0.3-11.03   c0.85-0.48,1.68-0.32,2.53,0.2c1.32,2.43-1.92,2.63-1.92,4.35c0,1.62,0,3.34,0,5.06c2.08,2.74,4.74-2.08,5.4-2.73   c0.62,2.3,0.94,1.04,2.21,0.4c0-0.49,0.77,0.69,1.01,1.11c0.61,0.1,0.91-0.2,1.42-0.91c1.1,2.21,2.53,0.98,2.53,1.15   c0.1,0.4-0.1,0.86,0.3,1.27c0.81,0.1,1.01-0.91,1.92-0.91c-0.51,1.92,1.21,3.34,1.01,5.37c1.1-1.47,1.21-3.5,1.21-5.57   c1.23,1.51,1.09,2.82,0.63,4.09c-2.05,5.67-1.27,4.31,0.12,5.1c-0.11,0.05-0.06,0.12-0.13,0.19l-0.01,0.03   c-2.96,5.36,0.4,1.29,0.4,7.8c0,4.63,2.26,6.59,0.2,11.84c-2.64,6.74-2.69,15.37-7.77,20.73c-3.51,3.7-10.5,6.11-17.33,2.45   C255.22,174.21,256.32,164.66,253.08,158.64z M236.26,280.32c0.05,9.31-2.28,18.51-3.24,27.74c-0.24,2.32-1.22,4.35-2.23,6.38   c-4.17,8.39-6.95,17.42-10.63,26.02c-1.61,3.75-2.43,7.9-3.54,12.25c-0.96-1.09-0.42-2.48-0.71-3.44   c-1.11,0.08-1.32,0.73-1.32,1.82c-0.54,4.6,7.09,7.75,6.98,21.16c-0.02,2.33,0.2,4.56,1.72,6.58c-1.82,2.53,0.71,5.67-1.01,8.71   c-6.32-6.33-1.59-9.8-5.97-13.77c2.16,13.48-1.07,7.48,3.14,13.26c-2.45-0.71-2.89-0.85-3.34-3.24c-1.76-9.43-0.8-10.79-0.84-10.66   c0.16-0.07,0.16-0.04,0.06-0.14c0.14-0.14,0.79-0.69,0.79-1.13c-0.4-0.91-0.3-2.13-1.42-2.94c-0.59,1.63,0.53,4.25,0.31,4.36   c-3.07,1.82-1.05,7.52-0.91,9.09c0.9,10.08,8.41,8.3,11.61,12.99c-16.67-4.55-10.22-4.47-16.87-15.33   c-0.62-1.01-1.11-2.02-3.04-2.23c2.28,3.99,4.54,8.03,5.77,12.35c-1.86-3.81-4.58-7.61-8-10.93c0.71-4.25,2.02-8.2,2.02-12.15   c0-4.25,0.94-8.2,1.01-12.35c0.05-3.04,1.5-5.77,1.82-8.71c1.91-17.62-0.17-32.65,4.66-44.14c9.84-23.43,5.8-43.59,7.19-46.36   c4.47-16.03-6.61-43.93,11.03-48.08c4.24-1,10.86-6.06,14.68-5.87c-3.54,20.68-8.65,32.84-9.13,32.36   c-1.6-1.93-3.48-2.87-6.05-1.89c1.43,1.02,3.11,3.57,4.15,4.86c-3.64,6.98-2.47,13.63,1.42,20.14   C242.07,266.56,236.26,278.73,236.26,280.32z M223.31,391.16c-1.01-0.1-2.02-0.3-3.04-1.32   C221.59,390.15,222.7,389.85,223.31,391.16z M240.11,263.82c1.73-4.05,11.44,2.78-1.42-5.77c-2.77-5.81-5.19-14.23-1.62-19.23   c4.23-5.92,4.44-13.28,5.77-16.2c2.64-5.79,5.53-15.95,4.05-22.17c7.32-4.03,13.08-5.68,13.36-13.46c1.28,1.93,1.08,3.93,2.94,5.47   c-0.41-3.27-1.4-5.66-2.53-7.39c2.05-4.36-1.71-6.88,0.04-6.07c7.54,3.5,9.29,5.17,13.09,3.98c0.92-0.29,7.3-2.93,9.04-5.5   c1.64,5.73,1.77,12.71,6.58,17.41c-0.59,15.96,5.37,13.73,2.83,24.6c-0.29,1.73-6.72,8.18-16.2,9.9c0.82-2.47,0.52-4.28-0.1-6.76   c-1.03,2.69-1.55,4.29,0.09,6.76c-0.87,0.19-10.59-1.39-16.89-4.55c-2.33-5.16-3.85-10.43-4.15-15.89c0.1-1.26,1.3-2.16,0.86-3.75   c-0.12-0.44,0.3-0.38-2.38,2.63c-0.1,1.82,0.01,3.65-0.3,5.36c-0.3,1.62,1.23,2.02,1.42,3.34c0.33,2.32,1.34,4.45,1.92,6.78   c0.53,2.12,1.81,3.36,3.54,4.15c6.8,3.12,17.02,5.06,22.11,3.08c4.95-2.47,12.11-7.03,13.02-12.48   c-2.53-6.78-3.14-14.17-4.35-21.97c2.36,0.98,4.85,2.77,7.9,3.64c1.21,3.14,2.84,6.38,2.94,9.92c0.22,8.6,2.81,16.32,7.59,23.38   c3.71,5.48,6.03,14.51,1.62,20.35c-1.16,1.54-5.46,6.17-5.57,6.28c-2.44-1.02-4.63-0.07-7.09,1.01c2.11,2.01,3.88-0.7,5.36,0.11   c1.83,1,3.44-0.71,5.37,0.1c-3.29,15.15-4.1,17.91-4.26,18.31c0,0.02,0.01,0.06,0.01,0.11c-5.57,0.81-10.83,2.76-16.7,2.13   c-15.46-1.68-12.77,4.48-44.84-1.93C242.03,274.14,241.83,268.78,240.11,263.82z M322.91,375.67c0-0.71,0-1.01,0-1.42   C323.72,374.56,323.72,374.96,322.91,375.67z M325.24,389.74c-0.81,0.4-1.32,1.11-2.33,0.81   C323.42,389.44,324.03,389.14,325.24,389.74z M321.29,346.22c-2.13-14.62-5.93-19.44-9.21-31.58c-0.6-2.23-2.04-4.25-2.83-6.48   c-1.34-3.74-1.55-7.69-2.23-11.54c-1.51-8.52,1.12-19.14,1.23-17.49c1.19,17.08,0.95,24.73,7.77,40.37   c4.15,9.5,11.06,25.4,12.55,35.83C323.28,361.53,325.01,371.76,321.29,346.22z M240.11,316.66c4.09-7.87,5.43-22.11,4.96-27.03   c-0.31-3.26-1.31-6.87-1.01-6.87c4.97,0.41,12,2.77,22.66,2.87c8.24,0.08,12.53-1.31,13.54-1.38c0.74-0.05,2.07,0.38,5.88,0.32   c6.77-0.11,15.44-2.03,17.73-2.03c0.4,1.42,0,2.43-0.2,3.44c-1.7,8.57,0.86,18.91,2.13,20.95c3.68,5.95,4.96,12.75,7.69,19.33   c-20.25,6.33-12.57,4.24-13.67,2.33c-1.05-0.18-2.15,2.46-3.1,2.77c-1.71,0.34-3.39,2.31-5.38-0.12c-0.31-0.31-1.48,1.3-2.85,1.39   c-31.33,1.92-15.78,2.58-52.73-3.33C236.36,324.76,238.06,320.6,240.11,316.66z M303.68,331.54c-0.75,0.75-1.34,1.1-2.32,0.71   C302.36,331.48,302.99,331.4,303.68,331.54z M250.94,568.92c1.43,0.48,2.45,1.32,3.95,1.53c-1.49,0.29-3.07,0.6-4.66,0.79   C250,571.23,249.94,570.08,250.94,568.92z M268.66,571.55c-2.18,5.75,1.22,11.05,0.71,16.9c-0.19,2.16,1.51,6.18,0.89,6.18   c-7.78,0.47-18.62,3.5-26.1,1c2.23-2.33,5.26-3.14,8.4-3.44c3.13-0.3,6.05,1.67,9.09,1.72c0.13,0,0.43-0.94-0.08-1.11   c-12.41-5.32-21.15-0.8-19.13,2.63c-1.09,0.18-1.92,0.06-1.62-1.01c0.58-2.1,0.99-5.1,2.13-7.09c7.26-2.09,0.47-5.05,6.07-13.46   c1.11-0.1,1.92,0.3,2.73,0.81c-0.39,0.28-3.6,1.35-3.11,1.84c1.85,1.55,6.28,1.25,4.74,1.72c-4.96,1.52-4.29,1.22-4.13,1.43   c1.9,2.11,4.38,2.48,6.75,3.01c1.27,0.28,2.54,0.4,3.24-0.95c1.02-1.96-2-2.82-2.79-3.48c-0.97-0.8,6.58,0.42,6.58-2.47   c0-0.57-0.74-2.25-0.74-2.31c0.44-0.39,0.99-0.8,1.29-1.31c0.61-1.06-0.4-1.9-0.47-2.02c0.91-1.12,2.94-0.32,3.64-2.43   c0.2-1.11-1.82-1.82-1.11-3.44c-3.24-1.42-6.48-1.11-9.82-1.42c-0.93-1.13-0.42-2.82-0.91-4.05c2.43-1.32,4.76-1.92,7.19-2.33   c1.32,1.21,1.21,3.34,2.94,4.35c1.72-0.53,0.2-2.12,1.21-3.14C268.45,562.13,270.61,566.4,268.66,571.55z M268.35,446.74   c1.36,20.83-4.65,29.25-1.72,50.71c1.83,13.37-2.76,14.79-2.23,25.81c2.24,46.17,1.28,31.63-1.82,30.06   c-1.43,0-6.47,1.51-7.19,1.72c-1.42-5.26-2.66-10.13-3.44-14.98c-1.57-9.74-5.04-19.04-7.29-28.65   c-2.33-9.94-4.24-27.33-2.83-32.19c3.36-11.63-0.59-15.87,0.61-24.29c0.75-5.26,0.37-10.41-1.32-15.49   c-1.14-3.43-1.53-7.08-2.33-10.73c-5.76-26.28-2.84-7.91-7.29-39.07c0.94-0.07,5.17,2.34,9.01,1.72   c14.26-2.29,15.98,2.24,31.58-5.87C280.05,381.36,267.19,428.92,268.35,446.74z M316.83,407.06c-3.07,14.05-2.42,16.18-7.49,22.57   c0.85,1.02,1.33-0.9,2.33-0.1c-0.39,1.54-1.12,8.78-2.83,14.68c-4.91,16.87-3.78,15.05-2.43,28.34   c2.84,27.88-9.73,62.03-10.63,77.64c-0.07,1.22-0.3,2.53-1.21,3.85c-3.5,0-7.23,2.03-10.92,0.8c-0.92-23.81,0.02-6.28-0.2-33.1   c-0.06-7.44-5.63-21.67-0.3-44.54c1.16-4.98,2.46-12.02-1.83-14.16c1.04-2.07,0.73-3.91-0.81-9.21   c-3.71-12.75,3.53-19.13-2.83-47.37c-4.01-17.81,1.06-15.46-2.63-22.78c3.14,0.81,5.37,1.92,7.69,2.13   c10.75,1.67,16.92-2.1,28.24-2.53c6.45-0.25,8.45-2.14,8.52-1.59C320.01,385.88,317.8,402.62,316.83,407.06z M320.18,377.9   c-1.34,1.19-4.75,3.23-5.97,2.8c-0.57-0.2-0.3-1.14-1.04-1.03c-14.04,3.37-25.67,4.85-38.23,1.87c-0.51-1.11-1.11-2.33-1.72-3.64   c-0.79,1.23,0.3,2.36,0.2,3.34c-3.4,5.88-17.8,6.88-24.6,6.88c-10.99,0.81-12.01,1.45-17.51-1.92c-0.69-4.81-1.29-21.74-0.4-26.72   c2.17-12.18-2.13-4.82,4.05-26.12c0.56-0.22,1.25,0.45,1.82,0.55c0.67,0.12,1.06-0.65,2.93-0.82c2.73-0.25,12.29,2.26,20.46,3.21   c6.69,0.78,13.68,0.4,20.25-0.4c5.23-0.64,15.83,0.81,31.18-5.67c0.76-0.32,2.46-0.96,2.63-1.01c2.53,5.06,2.53,10.73,3.95,15.99   c1.42,5.26,2.63,10.53,2.53,15.99C320.59,366.66,320.89,372.33,320.18,377.9z M343.34,378.63c-2.06,2.16-6.26,6.92-7.57,10.2   c1.11-3.95,3.04-7.49,5.57-11.44c-2.23,0.1-2.63,1.32-3.24,2.13c-8.35,12.53,2.21,8.77-17.01,15.18c1.42-1.82,2.54-2.72,3.95-3.24   c4.78-1.77,7.49-5.16,7.9-10.33c0.39-2.71,0.77-3.99,0.61-5.67c-0.24-2.43-1.52-3.24-1.52-3.04c0,3.19,0.05,5.3-1.22,10.53   c-0.32,1.69-1,3.13-2.82,3.13c0.2-1.37,1.92-2.9,1.92-3.64c-0.19-2.78-0.03-6.06,0.59-9.39c0.1-0.41-1.87,1.08-2.11,5.14   c-0.26,4.46-0.3,4.45-3.24,8c-3.23-0.28,0.42-3.25-1.33-8.51c1.39-1.98,1.75-4.57,1.62-6.98c-0.77-13.71,9.59-16.52,6.17-22.57   c-0.83,0.65-0.48,1.53-0.51,2.27c-0.04,1.22-1.31,1.43-1.31,0.27c0-5.42-12.06-34.21-14.58-39.4c-2.76-5.7-3.94-31.71-5.97-37.35   c-0.59-1.63,1.39-5.19,1.52-7.59c0.3-5.74-0.03-6.63,1.21-8.5c3.14-4,3.8-9.25,3.78-14.47c-0.04-7.3-3.16-10.71-3.16-11.04   c0.28-0.71,1.68-4.18,2.02-4.86c-2.19,0.22-3.74,6.61-6.88-1.01c-5.56-13.48-2.53-19.61-5.47-24.5c5.77,4.05,13.16,3.54,19.54,8.3   c2.37,3.89,4.57,8.77,4.41,14.53c-0.44,16.8-1.68,23.23,0.04,28.19c2.13,6.12-1.83,25.39,6.98,46.16   c6.08,14.33,3.64,28.18,5.05,43.64c0.55,5.99,1.56,7.32,2.04,10.32c0.5,3.06,0.39,5.72,0.59,7.6   C342.59,376.48,343.65,378.3,343.34,378.63z"/>
	<path d="M304.69,279.2C304.67,279.09,304.62,279.38,304.69,279.2L304.69,279.2z"/>
	<path d="M596.23,9.74c0.2,0.3,0,0.61-0.4,0.81c-0.99,0.99,7.29,5.91,10.93,8.4c-1.62-3.04-4.76-4.25-7.49-6.17   c-0.71-3.14-3.14-5.57-3.75-8.91c4.25,4.15,8,8.81,12.75,12.45c-2.43-4.56-5.77-8.5-8.4-13.46c4.87,1.39,8.43,10.2,13.06,10.93   c-1.11-1.72-3.04-2.53-3.64-4.35c-1.42-1.11-2.94-2.13-3.44-4.66c2.33,1.11,2.63,3.04,3.44,4.66c7.75,2.41,6.81,2.69,21.26,16.8   c1.43,1.4,2.25,3.14,2.43,5.06c0.47,5.14,12.86,42,10.83,66.81c-0.18,2.23,0.1,4.56,1.32,6.68c5.76-26.52-10.08-69.08-10.22-73.49   c-0.11-3.44-1.63-5.96-4.35-7.69c-5.18-3.31-9.25-8.07-13.77-12.15c-1.6-1.44-3.56-2.31-5.06-3.85c-1.75-1.8-3.64-4.19-5.97-4.15   c-3.04,0.05-5.29-3.23-7.69-2.02c-0.71,0.81,0.91,1.72,0.1,2.73c-3.54-2.73-3.54-2.73-6.07-0.51C594.2,5.18,594.9,7.72,596.23,9.74   z M601.19,7.51c-0.81-0.61-1.52-1.01-1.82-2.43C600.48,5.89,600.88,6.5,601.19,7.51z"/>
	<path d="M643.5,434.99c-0.1-0.1-0.4,0-1.01,0.1c0.4,4.76,4.66,6.78,6.98,10.22C652.4,441.42,646.51,439.41,643.5,434.99z"/>
	<path d="M644.01,434.08c2.63,0.3,3.16,0.13,4.86-1.52c1.44-1.4,2.02-2.83,2.13-4.66C649.17,430.54,646.74,432.26,644.01,434.08z"/>
	<path d="M618.8,27.15c1.62-2.53,3.85-0.2,6.17-0.61c-2.43-2.33-4.76-2.53-7.39-0.91C617.69,26.34,617.89,26.84,618.8,27.15z"/>
	<path d="M560.49,174.03c0.59-5.35,0.63-5.89-0.4-6.28C559.89,169.68,558.67,171.8,560.49,174.03z"/>
	<path d="M550.07,34.94c-1.32-2.02-2.33-3.64-2.13-5.67C546.63,32.31,546.83,32.82,550.07,34.94z"/>
	<path d="M661.62,492.29c0.71,1.62,0.2,3.54,1.32,5.16C662.63,495.73,663.14,493.81,661.62,492.29z"/>
	<path d="M643.5,108.64c-1.82,0.1-2.63,1.01-3.14,2.33C641.68,110.76,642.89,110.56,643.5,108.64z"/>
	<path d="M635.71,176.36c-1.01-1.42-1.62-2.43-2.94-2.73C633.28,174.84,633.78,175.95,635.71,176.36z"/>
	<path d="M536.6,110.86c1.42,0.61,1.92-0.1,2.43-1.21C537.72,109.24,537.01,109.55,536.6,110.86z"/>
	<path d="M655.04,469.92c0.2-0.81,0.1-1.62-0.51-2.43C653.52,468.7,653.93,469.41,655.04,469.92z"/>
	<path d="M559.79,176.26c-0.2,0.91-0.2,1.72,0.91,2.13C560.7,177.47,560.39,176.86,559.79,176.26z"/>
	<path d="M672.45,530.15c0.91-1.52,0.4-2.13-0.4-2.73C671.64,528.32,672.15,528.93,672.45,530.15z"/>
	<path d="M659.39,479.84c-0.3,0.81-0.3,1.52,0.71,2.13c0.61-0.71,0.4-1.11,0.2-1.42C660.1,480.24,660.1,479.63,659.39,479.84z"/>
	<path d="M561.41,183.04c0.1-0.81-0.3-1.32-0.91-1.92c-0.4,0.61-0.3,1.11,0,1.52C560.7,182.84,560.8,183.54,561.41,183.04z"/>
	<path d="M624.57,178.08c0.3-0.61,0.4-1.21,0-1.82C624.17,176.86,623.66,177.47,624.57,178.08z"/>
	<path d="M546.32,45.27c0.92-1.53,0.74-1.6,0.3-1.82C545.96,44.12,545.43,44.82,546.32,45.27z"/>
	<path d="M559.48,25.53c0.4-0.2,0.81-0.4,1.72-0.81C559.89,24.42,559.18,24.42,559.48,25.53z"/>
	<path d="M616.17,27.65c0.4,0.91,0.81,1.11,1.42,0.61C617.28,27.45,616.88,27.35,616.17,27.65z"/>
	<path d="M630.34,37.27c0.1-0.61,0.51-1.11-0.2-1.52C629.94,36.26,629.94,36.77,630.34,37.27z"/>
	<path d="M667.39,513.75c0.1,0.3,0.3,0.51,0.4,0.81c0.1-0.1,0.3-0.1,0.4-0.1c-0.2-0.3-0.2-0.61-0.4-0.81   C667.59,513.34,667.39,513.44,667.39,513.75z"/>
	<path d="M670.53,522.86c0-1.01-0.1-1.62-1.01-1.62C669.21,521.95,669.62,522.25,670.53,522.86z"/>
	<path d="M513.83,591.29l0.1,0.1C513.93,591.24,513.91,591.31,513.83,591.29z"/>
	<path d="M566.57,435.3c1.15-1.04,2.61-1.86,1.6-2.85C567.55,431.83,566.61,435.15,566.57,435.3z"/>
	<path d="M557.05,438.43c-2.13-1.92-3.34-4.86-6.17-7.29c0.09,3.04,1.91,4.11,3.54,5.87c-1.11,2.73-0.71,5.57-0.91,8.5   c-0.4,0.91-1.42,1.52-1.42,2.73c0,1.3,0,2.06,1.62,2.63C553.1,446.13,557.15,442.99,557.05,438.43z"/>
	<path d="M553.21,467.18c2.23-2.02,4.45-4.05,4.35-7.19C555.13,461.82,554.42,464.65,553.21,467.18z"/>
	<path d="M543.58,442.38c-0.78,2.73-0.52,3.44,2.23,4.05C545.24,444.64,545.41,443.3,543.58,442.38z"/>
	<path d="M544.11,436.81c-0.89-0.36-1.13,0.29-1.67,0.48c0.5,1.61,0.15,3.49,1.21,4.82C544.25,440.34,544.86,438.56,544.11,436.81z"/>
	<path d="M542.27,437.32c0.18,0,0.17-0.04,0.1-0.2L542.27,437.32z"/>
	<path d="M543.6,442.25c0,0-0.01,0.02-0.01,0.03C543.74,442.13,543.67,442.07,543.6,442.25z"/>
	<path d="M534.99,535.41c2.53-2.23,2.53-2.43,1.01-4.96C535.69,531.97,535.39,533.28,534.99,535.41z"/>
	<path d="M550.47,429.83c0.5-2.53,0.51-2.52-0.91-5.37C549.46,426.39,549.97,428.11,550.47,429.83z"/>
	<path d="M546.42,486.11c1.72-0.81,2.02-2.53,2.53-4.05C547.13,482.87,546.83,484.59,546.42,486.11z"/>
	<path d="M549.07,478.93c0.86-1.42,1.62-2.22,1.62-3.75C549.22,476.1,549.07,477.19,549.07,478.93z"/>
	<path d="M536.81,526c0.71-0.91,0.71-1.52,0-2.23C536.6,524.78,536.6,524.78,536.81,526z"/>
	<path d="M610.8,237.9c-5.3,0.11-10.09-1.99-15.39-2.95C600.07,238.11,605.24,239.12,610.8,237.9z"/>
	<path d="M592.18,234.46c-2.43,1.11-4.96,1.82-7.79,3.95C587.31,237.64,590.26,236.72,592.18,234.46z"/>
	<path d="M621.03,232.44c-1.71,0.41-2.64,0.73-3.14,2.13C619.31,234.26,620.12,233.85,621.03,232.44z"/>
	<path d="M573.45,238.81c0.81,0.71,0.81,0.71,1.82,0.4C574.63,238.71,574.22,238.35,573.45,238.81z"/>
	<path d="M595.12,306.21c0.51,0.25,1.52,0.32,1.62,0.21c1.14-1.19,2.61-2.43,1.2-4.85C597.1,304.54,592,304.69,595.12,306.21z"/>
	<path d="M620.62,313.32c-1.11,0.84-1.67,1.77-1.42,3.64C620.22,315.75,620.83,314.94,620.62,313.32z"/>
	<path d="M624.06,308.05c-0.81,0.81-1.52,1.62-0.71,2.94C624.22,310.29,624.53,309.45,624.06,308.05z"/>
	<path d="M566.67,302.89c-0.82,1.12-0.36,1.98,0.4,3.14C567.4,304.63,567.64,303.68,566.67,302.89z"/>
	<path d="M595.52,295.81c0.49-1.08,0.64-1.99-0.2-2.83C594.81,293.88,594.71,294.79,595.52,295.81z"/>
	<path d="M597.14,301.07c0.1,0,0.3-0.2,0.51-0.3c-0.07-0.15-0.09-0.36-0.18-0.5C597.08,299.64,596.02,301.07,597.14,301.07z"/>
	<path d="M595.52,283.76c0.2-0.36,0.4-0.81,0.22-1.18C595.14,281.31,594.13,282.97,595.52,283.76z"/>
	<path d="M564.44,359.27c-2.73,2.47-0.8,6.12,2.63,6.12c0.68,0,1.4-0.08,2.13-0.15c0.91-2.02,1.87-3.9-0.2-5.87   C567.91,358.34,565.59,358.23,564.44,359.27z M566.4,363.77c-0.06,0.13-1.19-0.93-1.29-1.03c-0.81-0.87-0.38-1.27,1.36-2.85   c2.06,0.11,2.02,1.17,2.02,2.53C567.43,362.22,566.81,362.77,566.4,363.77z"/>
	<path d="M560.59,357.51c-2.16-0.83-5.05-0.05-5.05,3.08c0,3.25,3.7,4.05,5.56,2.81C562.84,362.25,563.08,358.47,560.59,357.51z    M560.87,360.98c-0.29,2-3.8,2.53-3.73-0.55C557.22,357.56,561.28,358.17,560.87,360.98z"/>
	<path d="M554.42,356.85c-1.07-0.33-2.63-0.91-4.15-0.91c-0.62,2.15-1.31,4.02-0.81,6.17c1.11,0.1,0.91-1.52,2.02-1.21   c1.09,0.3,1,2.23,2.53,2.23C552.6,360.9,556.44,359.49,554.42,356.85z M553.21,359.27c-1.42,0.1-1.42,0.1-2.13-1.42   C553.93,356.99,553.72,359.27,553.21,359.27z"/>
	<path d="M579.13,141.84c0.61-4.26,1.81-0.7,2.73-2.24c-1.85-3.52-4.63-3.97-8.5-2.94c-1.94,0.52-0.17,1.24,0.1,1.42   c-0.3,0.61-1.42,0.71-0.81,1.62c1.32,0.91,1.82-0.71,2.83-0.71C579.38,141.72,575.14,142.43,579.13,141.84z"/>
	<path d="M601.8,136.88c-2.94-1.32-5.26-1.72-7.79-1.11c-0.04,0.04,0.42-0.49-3.04,3.64c1.32,1.11,1.72-0.71,2.83-0.4   c0.51,1.01,2.23,0.71,2.73,2.13c0.8-0.6,0.25-1.97,1.32-2.33c1.19-0.53,2,1.21,3.34,0.2c-0.51-0.91-1.52-1.01-2.73-2.02   C599.18,136.98,600.72,136.99,601.8,136.88z"/>
	<path d="M594.41,159.45c0.55-0.01,1.02-0.34,1.02-0.92c-5.06-0.71-10.02-2.33-14.88,0.51C581.15,160.13,580.9,159.62,594.41,159.45   z"/>
	<path d="M602.2,133.02c-4.79-2.25-10.88-1.45-13.36,1.01C593.3,133.66,597.84,131.91,602.2,133.02z"/>
	<path d="M581.85,161.88c4.12,2.77,8,3.41,11.24-0.4C588.63,163.21,586.97,162.58,581.85,161.88z"/>
	<path d="M582.87,134.25c-3.38-2.69-7.03-2.97-10.92-1.21C575.67,132.11,579.13,133.64,582.87,134.25z"/>
	<path d="M592.48,149.23c-1.18,0.53,0,1.43-0.91,2.13c-0.91,0-2.11-1.61-2.63,0.4C591.87,153.52,594.11,151.47,592.48,149.23z"/>
	<path d="M589.24,138.19c0.71-1.21,1.01-1.82,1.72-3.04C589.34,135.87,589.24,136.58,589.24,138.19z"/>
	<path d="M586.61,151.86c-0.61-0.61-1.11-0.81-1.82,0.1C585.48,152.65,585.96,152.89,586.61,151.86z"/>
	<path d="M603.11,131.31c0.51-0.91,0.2-1.32-0.51-1.62C602.1,130.5,602.2,131.01,603.11,131.31z"/>
	<path d="M594.91,193.16c3.44-0.1,6.78-0.51,9.92-1.62C601.54,191.38,598.36,191.82,594.91,193.16z"/>
	<path d="M585.09,193.77c-2.43-1.01-4.35-1.21-6.28-0.71C580.82,193.26,582.55,194.37,585.09,193.77z"/>
	<path d="M591.06,191.14c-1.01,1.11-1.82,2.33-1.52,4.15C591.06,194.07,591.06,192.65,591.06,191.14z"/>
	<path d="M599.26,177.17c1.02-0.89,0.64-1.72-0.3-2.83C598.76,175.75,598.25,176.56,599.26,177.17z"/>
	<path d="M597.34,188.1c-1.01,0.1-1.11,0.61-0.71,1.42C597.44,189.31,597.95,189.01,597.34,188.1z"/>
	<path d="M596.13,200.85c-0.98,0.54-1.42,0.68-1.42,1.92C595.52,202.17,596.23,202.06,596.13,200.85z"/>
	<path d="M583.98,190.33c0.3-0.91-0.1-1.21-0.61-1.52C582.87,189.62,583.47,189.92,583.98,190.33z"/>
	<path d="M522.74,589.47c1.01,0.61,1.82,1.21,3.75,0.71C524.96,588.96,523.95,589.06,522.74,589.47z"/>
	<path d="M272.4,256.63c-0.45-0.57-1.08-0.66-1.62-0.3c-16.06,7.3-18.73,4.42-18.69,6.84C252.14,265.62,267.73,262.81,272.4,256.63z   "/>
	<path d="M295.58,261.29c-8.16,1.96-14.18-3.06-15.24-3.16C275.62,257.7,286.71,267.5,295.58,261.29z"/>
	<path d="M277.67,203.79c3.44-0.3,6.98-0.71,10.43-1.82C284.45,201.97,281.01,202.27,277.67,203.79z"/>
	<path d="M268.15,204.19c0-0.42,0.9-0.18-5.97-1.21C264.71,204.3,265.89,204.39,268.15,204.19z"/>
	<path d="M274.12,201.66c-0.4,1.21-1.72,2.13-1.21,4.25C274.22,204.3,274.33,203.08,274.12,201.66z"/>
	<path d="M277.26,255.11c-0.3-1.01-0.51-2.13-1.72-3.04C275.74,253.59,276.05,254.61,277.26,255.11z"/>
	<path d="M282.52,185.27c-0.81,0.91-0.61,1.69-0.2,2.83C283.09,187.13,283.29,186.31,282.52,185.27z"/>
	<path d="M280.6,198.42c-0.91,0.51-1.21,1.01-0.61,1.92C280.5,199.84,280.9,199.44,280.6,198.42z"/>
	<path d="M277.46,219.28c-0.91,0.51-1.32,1.01-0.51,2.02C277.57,220.69,277.97,220.26,277.46,219.28z"/>
	<path d="M279.18,218.16c0.71,0.2,0.71-0.4,1.21-1.01C279.29,217.25,278.98,217.56,279.18,218.16z"/>
	<path d="M267.24,200.85c0.38-0.76,0.15-1.21-0.71-1.11C266.44,200.27,266.75,200.66,267.24,200.85z"/>
	<path d="M290.42,462.02c-1.66-2.39-1.31-5.19-3.64-8.3c-0.91,3.84,1.43,5.99,2.43,8.71c-2.02,4.56-1.82,5.06,2.73,8.3   C291.94,467.04,288.42,468.42,290.42,462.02z"/>
	<path d="M281.71,411.4c-1.27,3.85-0.53,7.06,1.92,9.92c0-1.72-1.03-2.87-1.03-5.24C282.61,414.51,282.75,413.03,281.71,411.4z"/>
	<path d="M302.87,464.04c1.34-3.38,1.31-3.57-0.4-5.87C302.47,460.18,302.36,462.11,302.87,464.04z"/>
	<path d="M300.75,472.75c1.32-1.72,2.13-3.24,1.72-5.77C301.35,469.21,300.56,470.67,300.75,472.75z"/>
	<path d="M291.23,473.76c0.4,1.79,0.81,3.33,1.92,4.76C293.25,475.48,293.04,475.06,291.23,473.76z"/>
	<path d="M302.97,451.9c-0.4,1.42-1.32,2.73-0.71,4.96C303.48,454.43,303.48,454.43,302.97,451.9z"/>
	<path d="M285.26,549.99c0.71-1.52,1.32-2.53,0.71-3.95C284.95,547.15,284.75,548.16,285.26,549.99z"/>
	<path d="M294.57,487.53c-0.51,1.01-0.1,1.52,0.91,2.33C295.48,488.71,295.89,487.84,294.57,487.53z"/>
	<path d="M294.47,498.77c0.3-0.4,0.51-0.81,1.01-1.62C294.17,497.65,294.06,498.06,294.47,498.77z"/>
	<path d="M286.57,543.81c0.15-0.23,0.32-0.41,0.32-0.67C286.94,540.85,285.59,542.83,286.57,543.81z"/>
	<path d="M253.27,378c-4.49-1.84-7.19,4.38-3.18,6.28c1.43,0.68,3.14,0.01,4.9-0.51C254.84,381.83,256.07,379.36,253.27,378z    M252.36,381.24c-1.01,0.3,0.2,1.42-0.61,1.72c-1.42,0.2-1.86-0.66-2.33-1.92c1.92-2.64,2.04-2.61,4.15-0.4   C253.37,381.54,252.87,381.34,252.36,381.24z"/>
	<path d="M234.35,379.01c-0.1,0-0.42,3.63,0.19,6.08c1.85-0.11,0.69-3.63,2.99-1.34c0.51,0.59,0.94,1.2,1.78,1.12   c0.61-0.81-0.2-1.21-0.4-1.82c-0.18-0.55,0.4-1.04,0.62-1.56C240.79,378.97,236.89,377.15,234.35,379.01z M236.06,381.44   c-0.85-0.68-0.55-1.8,0.87-1.72C238.43,379.81,238.98,381.77,236.06,381.44z"/>
	<path d="M245.27,378.71c-6.9-2.85-6.57,10.94,1.72,4.86C247.39,380.32,247.04,379.44,245.27,378.71z M243.86,383.77   c-2.9,0-2.54-4.15-0.04-4.03C246.47,379.87,246.45,383.77,243.86,383.77z"/>
	<path d="M275.59,378.09c-0.02,0.34,0.08,0.66,0.46,1.02c0.84-2.21,1.19-4.25,0.71-6.58C276.17,374.54,275.61,377.67,275.59,378.09z   "/>
	<path d="M280.7,366.15c1.32-0.7,1.83-1.5,1.92-3.04C281.5,363.91,281.08,364.82,280.7,366.15z"/>
	<path d="M290.42,354.11c-0.4,0-0.81,0-1.32,0.1C289.61,354.62,290.02,354.42,290.42,354.11z"/>
	<path d="M249.27,463.55c0.08-2.52-1.37-3.76-1.37-8.31c0-0.61-0.1-1.21-0.91-1.32c-1.23,3.06-1,4.39,1.21,8.91   c-2,4.95-2.51,8.79,2.02,11.54C248.29,469.52,249.09,468.88,249.27,463.55z"/>
	<path d="M258.63,471.43c-1.67,1.67-0.58,3.58-0.95,5.27c-0.21,0.95-2.03,3.25-1.87,6.77c1.72-2.42,2.25-5.01,3.54-7.59   C258.23,474.67,259.14,473.16,258.63,471.43z"/>
	<path d="M258.63,462.22c1.04,3.9-0.49,9.81,0.75,7.82C261.24,467.08,261.57,464.1,258.63,462.22z"/>
	<path d="M269.74,418.28c0.34-1.16,0-2.08-0.59-3.64C269.25,415.6,268.88,421.21,269.74,418.28z"/>
	<path d="M254.59,491.89c0.71-0.71,1.42-1.32,0.61-2.43C254.22,490.17,254.13,490.95,254.59,491.89z"/>
	<path d="M277.97,314.53c-4.15-1.92-4.15-1.92-6.98-0.91C273.75,315.82,273.79,315.87,277.97,314.53z"/>
	<path d="M273.11,296.82c-0.71,5.06-0.61,8.6,0.3,11.44C273.72,304.26,273.82,300.83,273.11,296.82z"/>
	<path d="M304.19,322.63c-1.72,0.91-1.82,2.13-2.23,3.64C303.78,325.36,303.68,324.15,304.19,322.63z"/>
	<path d="M250.33,315.65c0.51-0.87,0.59-1.7,0-2.53C249.63,313.92,249.72,314.74,250.33,315.65z"/>
	<path d="M258.03,327.89c-0.54,0.93-0.23,1.11,0.81,1.11C258.94,328.3,258.53,328.1,258.03,327.89z"/>
	<path d="M306.72,319.69c0-0.1-0.2-0.2-0.2-0.2C304.78,320.22,307.03,321.26,306.72,319.69z"/>
	<path d="M226.95,288.42c2.53-0.53,3.89-1.31,4.76-3.95C229.68,285.78,228.27,286.59,226.95,288.42z"/>
	<path d="M223.41,290.04c0.81,0.51,1.21,0,1.42-0.71C224.02,288.82,223.61,289.33,223.41,290.04z"/>
	<path d="M314.71,284.06c1.11,2.43,2.43,3.34,4.45,3.34C318.16,286.09,316.94,284.87,314.71,284.06z"/>
	<path d="M330.81,371.93c1.21-1.72,1.21-1.72,0.61-3.85C331.32,369.4,330.2,370.21,330.81,371.93z"/>
	<path d="M331.11,344.8c-0.36,0-0.78,1.11,0.1,1.11C331.74,345.91,332.02,344.8,331.11,344.8z"/>
	<path d="M321.6,288.62c0.3,0.61,0.61,0.91,1.62,0.81C322.81,288.52,322.41,288.01,321.6,288.62z"/>
	<path d="M262.99,150.64c0.57-0.44,1.47,0.71,2.08-0.21c0.41-0.63-1.71-4.28-7.54-3.12c1.52,2.09-2.13,1.53-1.62,3.24   c1.21,1.01,1.82-0.61,2.83-0.51c1.11,0.61,2.02,1.32,1.92,2.73C263.87,153.31,261.42,151.86,262.99,150.64z"/>
	<path d="M281.11,147.61c0-0.4,0.81-0.51,0.2-1.21c-1.1,0.29-2.45-0.31-3.95,0.29c-1.21,1.21-3.9,3.77-2.39,3.96   c0.75,0.09,1.07-0.83,1.78-0.92c1.01,0.71,2.23,1.32,3.14,2.43c0.48-1.44,0.44-3.48,2.46-2.51c0.86,0.41,1.36,0.56,1.99-0.03   C283.54,148.52,281.92,148.72,281.11,147.61z"/>
	<path d="M263.9,169.88c0.27,0.8,0.55,0.56,13.36,0.4c0.51-0.01,1.21-0.1,1.42-1.01C275.88,168.94,267.08,166.69,263.9,169.88z"/>
	<path d="M264.71,172.31c4.2,2.88,8.32,3.69,11.54-0.2C272.5,173.86,268.81,173.09,264.71,172.31z"/>
	<path d="M285.16,143.96c-3.14-2.02-9.62-1.72-12.75,0.71C276.63,144.47,280.95,142.85,285.16,143.96z"/>
	<path d="M266.83,145.48c-3.95-3.14-8.1-3.64-11.54-1.52C259.25,143.02,262.91,144.58,266.83,145.48z"/>
	<path d="M275.64,162.08c-1.21,0.61-2.53-1.82-3.64,0.4C273.31,162.89,274.63,164.21,275.64,162.08z"/>
	<path d="M269.77,162.89c-0.81-0.81-0.81-0.81-1.62-0.2C268.64,163.5,269.18,163.49,269.77,162.89z"/>
	<path d="M275.24,160.16c-0.41,0.81,0.17,1.26,0.39,1.92C276.63,161.89,276.36,159.74,275.24,160.16z"/>
	<path d="M266.33,161.17c0.61-0.4,0.91-0.81,0.4-1.42C266.33,160.06,266.02,160.46,266.33,161.17z"/>
	<path d="M284.85,574.79c3.54,1.06,7.24,1.03,10.89,1.02c2.03-0.01,2.82,0.23,3.38-1.73C294.05,571.54,290.47,572.88,284.85,574.79z   "/>
	<path d="M305.6,593.62c-0.81-2.33-0.81-2.33-9.41-4.35c-2.02,1.92-5.67,1.52-7.39,5.16c3.64-0.51,5.87-2.83,8.91-3.64   C300.57,591.83,302.58,592.01,305.6,593.62z"/>
	<path d="M287.48,578.13c3.22,1.33,7.45,1.83,10.01-0.51C294.78,575.6,290.12,575.91,287.48,578.13z"/>
	<path d="M290.52,580.86c1.53,1.77,4.71,1.77,5.28,1.19C297.44,580.42,293,580.24,290.52,580.86z"/>
	<path d="M296.49,584c1.42-0.3,2.83,0.2,4.35,0.2C299.06,583.4,299.04,583.28,296.49,584z"/>
</g>
</svg>