<?xml version="1.0" encoding="UTF-8"?>
<!-- Generator: Adobe Illustrator 23.0.1, SVG Export Plug-In . SVG Version: 6.00 Build 0)  -->
<svg version="1.2" baseProfile="tiny" id="Layer_1" xmlns="http://www.w3.org/2000/svg" xmlns:xlink="http://www.w3.org/1999/xlink" x="0px" y="0px" viewBox="0 0 900 600" xml:space="preserve">
<g>
	<path d="M91.88,248.74c-0.07,10.52,0.27,29.34,9.21,34.97c1.6-0.4,1.25-0.63,1.97-1.35c-5.61-33.65-0.58,16.77,27.83,1.86   c-3.66-3.33-6.48,0.01-14.69-9.31c-2.99-3.4-7.66-10.77-7.66-15.31c2.86,4.65,2.22,5.08,3.41,2.69   c4.87,8.58,9.49,11.96,17.38,19.35c0.21-0.21,0.41-0.41,0.72-0.62c-0.62-0.83-1.14-1.66-1.86-2.38   c-16.59-16.48-15.56-41.91-16.56-57.84c3.93,5.59,6.42,12,10.86,17.07c4.98-1.99-10.72-8.83-9.11-39.53   c0.52-0.1,0.72-0.21,1.03-0.31c0.31,0,0.52,0,0.83,0c0.93-1.35,0.1-3.62-1.97-5.28c-3.31,3-2.28,7.55-3.83,11.38   c-0.82-1.64,0.21-3.3-1.03-5.07c-1.16,6.94-1.11,13.74-0.97,20.75c0.11,5.31,0.43-2.74,0.95-4.45c1.81-5.89-0.43,26.54,4.78,43.39   c-3.94-5.98-5.63-13.35-8.28-19.76c-2.69-6.52-1.71-13.66-1.66-20.59c0-0.62,0.83-1.55-1.03-2.38c0,45.16,8.15,54.95,4.95,50.03   c-5.56-8.53-6.99-35.09-7.12-45.27c-0.2,0-0.79,0-1.03,0c0,45.66,0.19,40.76-0.41,38.58c-3.1-11.12,0.74-24.6-0.94-23.58   c-1.3,0.79-3.76,10.02-0.4-14.27c1.01-7.29,2.1-7.51,1.14-8.79c-0.93-1.24,0-2.79-1.14-4.14c-2.58,8.26-4.51,26.38-5.09,21.68   c-3.39-27.39,18.1-45.53,19.78-42.16c-0.62,1.35-2.28,1.03-3.31,2.79c-1.55,4.66-5.59,8.79-6.93,14.49c3,0-0.17-0.53,8.48-10.76   c0.36-0.82,1.03-1.56,2.17-1.79c1.21-0.24,0.42-0.81,2.17-1c0.83,1.66,3,2.38,3.41,4.86c0.31,1.86,0.72,3.93,2.17,5.79   c8.32,3.47,3.57,7.94,10.76,11.07c0.93-1.35-0.21-1.76-0.62-2.28c-7.17-9.03,1.37-13.29-1.86-18.83c-0.31-0.41-0.41-1.03-1.14-1.14   c-3.41,1.76-4.24,5.69-6.93,9.11c0.21-5.17,1.65-9.11,4.45-12.42c7.3-8.63-0.13-14.97,9.21-20.8c7.65-4.77,8.53-1.45,17.18-3.31   c10.94-2.36,16.87,2.61,29.18,4.66c1.92,4.11,6.95,7.81,12.62,21.42c11.43,27.43,19.51,36.52,20.8,40.46   c2.96,9.09,9.31,15.31,16.66,20.9c-5.17-7.35-11.38-14.07-15.62-22.04c1.01-1.88,6.38-2.9,11.49-4.35   c10.55-2.98,12.13,3.13,23.07,8.28c7.6,3.57,17.22,15.07,13.66,27.94c-5.15,18.56-13.77,22.6-22.97,26.18   c-9.84,3.83-26.35,3.34-34.97-2.69c-25.4-17.75-28.27-39.66-33.42-52.87c-11.01-28.28-7.31-12.88-18.52-38.59   c-2.74-6.28-0.54-6.98-2.48-8.28c-1.45,1.45-0.62,3.52-1.45,5.38c-4.24-3.62-6.21-9.21-11.9-12.52c1.14,3.52,3.8,4.98,4.76,7.55   c1.01,2.7,3.14,4.63,4.86,6.93c1.69,2.25,5.07,2.79,5.79,6.1c-4.25,9.92,1.82,13.53-2.17,15.52c0.62,1.45,1.24,2.9-0.41,4.55   c-3.46-3.2,1-3.96-4.66-13.45c-0.62-1.04-1.66-1.86-3.72-1.97c-1.76,4.04,0.72,9.31-3,13.24c-1.14-1.03-1.86-2.48-2.59-4.14   c1.14-3.31,0-7.04,1.35-10.86c-5.07,2.59-4.04,13.45,1.14,16.87c1.35-0.21,1.97-1.45,3-2.17c1.45,0.31,2.9,0.72,3.72,0.93   c1.97,1.14,1.76,3.41,3.52,4.04c1.55,0.31,2.17-1.35,3.72-1.45c3,2.28,6.93,2.17,10.86,3.21c2.82,5.17,5.69,18.19,12.31,30.63   c2.95,5.54,5.74,25.67,27.94,32.9c9.6,3.13,7.56,7.31,24.52,7.04c48.91-0.8,41.79-3.61,51.22-4.45   c11.49-1.02,22.76-3.42,33.73-6.93c5.17-1.66,10.63-2.04,15.73-3.83c1.4-0.49,18.97,0.66,31.45,4.35   c4.26,1.26,15.51,8.69,38.28,15.42c27.14,8.02,48.63-1.24,69.12-11.48c1.89-0.95,13.96-12.79,16.87-24.42   c1.83-7.33,10.99-11.96,28.97-31.35c1.96-2.12,14.92-10.84,26.28-26.59c0.61-0.84,1.03-1.66,1.76-2.38   c14.7-14.33,26.61-35.64,45.63-40.87c25.69-7.06,35.69-3.33,45.63-9.21c4.9-2.9,10.75-3.8,16.97-10.24   c6.94-7.2,23.12-13.42,40.97-27.42c9.7-7.6,14.49-9.51,38.18-25.56c12.94,14.69,8.75,15.73,16.55,19.56   c3.32,1.63,6.19,3.74,8.59,6.83c8.89,11.46,17.25-5.56,28.14-15.83c8.73-8.22,5.15-14.27,8.9-23.69   c4.46-11.21,11.37-9.53,19.56-25.76c9.79-19.42,7.31-10.34,7.14-27.94c-0.04-4.17-2.67-9.05-1.45-12   c-2.38-3.93-5.48-7.04-9.31-9.42c-1.76,0-2.9,1.29-4.86,1.14c-9.56-0.74-13.8,17.18-22.56,21c-8.93,3.9-7.64,6.74-15.62,8.28   c-7.14,1.37-21.26,4.03-25.45,9.93c2.69,1.24,4.13-1.05,6-1.45c2.06-0.44,4.04-1.24,6-1.97c5.9,1.76,8.69,7.14,12.73,10.76   c5.18-2.59-2.01-8.54-6.62-12c6.03-3.62,7.15,4.2,14.49,7.14c2.38-3.52,1.97-4.35-3.83-9.42c1.45-0.72,2.79-1.35,4.04-1.86   c4.45,1.45,4.45,1.45,7.45,0.41c0.83-2.17-1.24-2.9-2.28-4.24c0.62-1.14,1.86-1.55,2.9-2.59c2.28,2.48,4.86,2.79,7.76,1.66   c-0.31-2.28-2.38-2.79-3.83-4.14c1.66-2.28,4.04-3.1,6.62-3.1c0.41-1.35-0.93-1.45-1.03-2.69c8.29-11.84,8.43-13.76,16.66-13.76   c1.03,0,1.86,0.62,2.59,1.35c5.14,5.14,5.99,7.53,8.07,25.14c0.34,2.91-0.09,3.08-12.31,24.42c-5.51,9.62-14.03,7.87-16.56,23.28   c-1.63,9.97-0.95,12.72-4.35,16.14c-31.74,32.04-18.62,18.76-34.35,11.28c-7.96-3.79-5.1-7.39-17.59-17.8   c5.59,0.37,11.81,2.67,14.9-3.52c4.14-8.27,1.4-10.85,5.07-11.49c-1.3-16.63-0.77-17.34-3.52-20.59   c-9.2-10.89-10.11-10.68-11.59-9.62c0.21,2.79,3.1,3.83,4.24,6.52c-9.4,2.86-15.37,3.88-27.94,11.38   c-6.73,4.02-13.96,6.84-21,10.35c-27.57,13.73-37.04,14.4-68.81,28.35c-20.48,8.99-27.66,7.51-35.39,10.35   c-9.91,3.64-27.48,7.18-29.18,7.45c-9.42,1.47-11.07,6.32-19.14,10.66c-14.69,7.89-14.97,9.77-24.94,15.21   c-3.61-2.28-6.11,3.14-22.14-3c-4.56-1.75-9.31-2.07-13.86-2.9c-1.97,1.55-1.55,3.62-2.17,5.48c-1.86,0.72-3.93,0.71-5.59-0.21   c-6.6-3.66-13.98-5.57-20.69-8.9c-21.45-10.64-34.29-23.05-50.8-31.66c-54.19-28.27-49.86-22.7-56.29-28.14   c-3.07-2.6-12.22-2.25-20.28-4.35c-7.94-2.07-12.9,4.11-21.83,13.45c-7.59,7.93-1.85,26.51,3.1,36.21   c17.07,33.43,25.61,37.06,39.53,55.67c3.62,4.85,23.81,30.56,30.01,34.46c-10.95,1.89-28.82-1.8-39.01-2.48   c-8.32-0.55-7.89-2.28-14.49-2.28c-21.08,0-22.56,1.66-25.35,2.28c-3.97-15.71-16.58-16.91-28.14-18.11   c-7.97-0.82-18.43,8.56-45.22,20.28c2.05-10.04-0.96-12.09,1.66-16.45c4.73-9.03,2.44-5.92,0.41-10.55   c1.45-11.17-1.97-21.83-5.28-32.8c-4.76-1.97-9.31-4.55-14.59-5.9c-2.79,2.17-6.31,2.79-9.42,4.04c-0.41-0.21-0.72-0.31-0.83-0.52   c-3.4-9.41-18.82-15.7-26.49-19.87c-2.34-1.27-13.84-1.27-19.14,0.83c-3.72,1.47-7.28,3.13-10.97,4.76   c-1.57,0.69-2.82,1.64-3.93,3.1c-5.27,6.92-8.43,8.38-15.62,20.69c-4.48,7.67-3.58,13.25-5.07,19.56   c-0.66,2.79-0.21,5.59,1.24,8.07c-0.52,1.24-1.14,2.15-2.38,2.38c-5.37,1-12.09,6.26-13.04,8.28c-8.69,18.51-9.81,19.38-7.66,36.52   C91.35,243.78,91.98,233.33,91.88,248.74z M110.81,205.9c0.41,3,0.72,5.9,1.03,8.79C109.05,209.73,108.95,207.77,110.81,205.9z    M125.71,284.23c-1.76,1.55-3.41,1.55-5.28,1.35c-1.14-2.38-3.83-3.72-4.66-6.62C116.48,279.3,117.97,280.99,125.71,284.23z    M118.78,285.78c-10.66-4.24-18-15.11-17.59-25.87C105.23,269.85,111.12,277.92,118.78,285.78z M96.33,268.19   c0.1,1.24,0.1,2.17,0.21,3c0.61,0.91,1.45,3.27,1.57,4.02c2.19,8.98-1.57-0.02-1.57-4.02C95.67,270.33,95.86,269.33,96.33,268.19z    M145.58,214.7c-1.33,0-2.55-0.75-3.72-1.24c2.23-2.55,0.04-6.42,1.55-8.69c1.77,2.77-0.84,4.94,0.1,7.76   C143.61,213.66,145.89,212.63,145.58,214.7z M156.45,214.98c0.19-2.36,2.18-0.01,0.47,1.7   C156.92,216.52,156.4,215.67,156.45,214.98z M156.96,216.77c0.39-0.06,1.93,0,3.83-1.03c0.59,1.16,1.76,2.75,1.76,4.55   C160.68,218.42,158.3,218.63,156.96,216.77z M117.54,191.96c0.52-1.78,2.65-2.16,2.95-4.09c0.33,0,0.95-0.06,1.29,0.44   C119.7,191.43,118.67,193.93,117.54,191.96z M484.78,255.52c-2.49-0.76-1.85-1.33-2.2,1.38c-1.13,8.55-7.89,18.15-15.31,25.06   c-7.45,6.94-22.69,9.6-38.8,12.62c-10.89,2.05-21.6,0.72-32.39-1.66c3.41-1.86,5.73-3.91,7.35-6.62   c21.78-36.62-4.01-64.93-2.07-68.81c3.21-0.41,6.52-0.31,9.62-3.72c-13.41,2.98-7.73,4.77-21.11-4.04   c4.82-1.47,9.71-2.2,14.69-1.55c2.65,0.34,6.94-0.11,10.71-0.09c14.16,0.07,0.48,1.43-3.67,5.58c2.31-0.74,12.66-0.45,16.45-4.76   c3.29-3.73,9.33-8.52,15.21-12.93c4.72,6.06-2.55-4.45,31.25,25.66c7.77,6.92,13.76,15.42,17.28,25.76   C485.81,252.91,485.41,255.71,484.78,255.52z M447.5,166.48c5.48,3.52,11.28,5.28,18.51,5.79c-4.55,3.71-8.58,7.03-13.23,10.75   C452.59,183.21,454.72,178.52,447.5,166.48z M451.85,183.97c-2.38,2.17-4.66,4.14-6.83,6c-12.31-14.38-24.63-28.56-39.94-39.53   c10.33,5.56,37.66,13.45,37.66,14.81C447.44,171.09,448.01,178.21,451.85,183.97z M441.29,193.06c-4.97,4.97-11.07,8.28-15,13.66   c-8.9-1.55-17.69-2.07-26.28-3.31c3.75-0.2,6.34-2.87,9.83-3.61c10.05-2.12,19.45-6,27.11-13.98   C438.4,188.2,440.36,190.06,441.29,193.06z M538.84,129.84c8.17-4.38,10.2-9.45,20.28-10.45c5.76-0.57,15.13-3.79,36.11-7.97   c24.21-4.82,31.12-11.27,40.66-14.69c23.63-8.47,50.55-19.02,76.15-32.9c29.54-16.02,26.09-10.53,29.18-13.97   c5.91,4.05,4.78,11.14,6.21,15.42c-3.94,2.85-4.65,4.7-3.26,9.53c-3.01,0.11-5.52,0.25-8.22,2.04c-0.57,0.33,8.18,2.67,8.79-1.61   c0.36,0.05,0.71-0.04,0.99,0.52c0.27,0.4-1.95,4.77-4.29,7.85c-3.41,0-6.83,0.93-10.37,0.3c-46.45,26.31-16.28,12.41-72.22,45.11   c-6.67,3.9-16.59,14.7-33.32,20.59c-11.65,4.11-27.58,3.41-30.94,4.66c-5.55,2.06-11.44,3.38-16.45,6.83   c-0.31,0.21-0.72,0.52-1.14,0.52c-7.63-0.12-29.96,24.8-34.56,31.87c-6.65,10.21-9.02,12.96-48.01,50.39   c-8.9-19.14-33.52-43.15-49.98-48.84c0.57-1.7,32.75-28.7,45.32-35.7C533.18,135.21,517.65,141.21,538.84,129.84z M500.27,145.48   c3.77,0.63,3.16,0.57,3.93,1.35c-2.07,1.97-2.07,1.97-5.07,3C499.16,149.72,499.95,146.59,500.27,145.48z M480.51,139.89   c4.97,1.55,10.14,0.31,14.28,3.93c-0.16,2.52,0.95,4.54,1.07,7.16c0.07,1.56,1.26,0.27-13.79,8.77   C479.99,153.13,479.47,146.72,480.51,139.89z M352.31,179.97c-4.47-7.5-10.22-13.45-10.83-14.37c-12.61-14.99-42.36-58.5-42.36-71   c2.17-17.11,0.03-3.3,13.85-22.45c5.32-1.77,9.12-1.38,12.43-0.1c1.8,0.69,9.75,0.4,16.87,3.93   c43.23,21.46,32.51,15.45,45.01,23.07c42.99,26.22,51.41,34.99,67.88,40.54c1.1,0,11.44,4.92,21.12,4.66   c0,24.59,8.5,11.74-7.46,25.68c-7.14,0.1-13.24-2.59-19.87-4.45c-2.02-4.03-7.12-2.42-22.76-10.45   c-25.45-13.06-53.86-3.01-85.14-47.17c-0.13,2.22,6.32,24.16,30.16,32.78c0.1,0.1,3.64,1.19,6.26,2.71   c0.29,0.3,11.2,6.48,21.52,7.04c0.17,0,10.84,9.69,18.52,15.93c6.34,5.14,12.31,10.76,17.49,17.38   c-19.97,12.73-41.18,19.56-65.08,18.11C364.97,194.19,357.23,188.24,352.31,179.97z M371.97,203.74c7.27,0,12.57,1.84,18.73,1.33   c-6.56,2.23-13.36,3.1-14.69,3.1C374.35,206.94,373,205.8,371.97,203.74z M308.23,240.98c-0.79-14.43,1.46-33.47,2.06-33.54   c7.43-0.91,23.04,0.32,34.98,3.54c16.61,4.47,17.45,0.79,21.83,3.41c0.48-0.79,0.75-1.76,1.14-1.76c6-0.72,12.11-0.83,18.11-2.28   c2.28,2.17,5.07,3.1,7.76,4.24c7.95,10.07,2.41,1.06,6.1,13.14c3.36,10.99,6.99,29.52,5.9,36.42   c-1.79,11.32-10.03,26.48-12.71,27.64c-2.47,1.06-1.33-1.13-17.82-7.67c-19.46-7.71-30.06-14.57-64.98-6.93   c-0.62-11.49-3.83-22.25-2.28-33.94c2.17-1.24,4.24-2.38,6.42-3.52C312.37,239.01,310.51,240.98,308.23,240.98z M230.94,206.83   c-4.04,2.07-7.76,4.24-12.42,5.9C221.32,209.73,227.53,206.94,230.94,206.83z M211.59,200.63c5.3-4.58,7.55-4.84,7.55-4.74   C215.93,220.55,218.58,206.58,211.59,200.63z M204.35,145.27c3.31,1.86,7.14,2.79,10.66,4.04c4.86,14.9,6.42,22.56,4.04,30.01   c-0.17-4.06-0.9-6.93-4.97-7.66c3-4.97-3.41-4.76-3.93-8.17c1.24-1.86,2.69-3.93,3.41-6.83c-5.59-4.04-13.14-3.83-18.62-8.48   C197.83,146.41,201.04,145.79,204.35,145.27z M156.56,127.99c-3.76,0.51-10.73,1.61-11.09,1.61   C148.07,127,152.78,126.96,156.56,127.99z M128.72,143.6c3.95-5.95,10.14-12.25,16.53-13.85c1.45,1.97,3.67-0.09,5.49,1.13   c-4.82,1.93-12.57,4.43-14.86,9.02c1.06,0.21,1.76-0.55,2.55-1.06c5.64-3.64,18.48-8.49,24.52-5.9c0.21,0.1,0.52-0.1,0.83-0.1   c0.31-0.62,0.62-1.14,1.03-2.07c1.55,1.45,2.79,0.21,3.62-0.31c8.17,2.79,13.55,9,20.69,12.93c0.72,3.62,2.49,6.62,5.9,8.28   c12.55,6.11,14.98,3.38,16.24,5.9c-1.67,3.34-4.32,6.81-6.62,9.11c1.76,1.86,2.79-0.52,4.24-0.52c1.24,1.35,3.31,1.76,4.04,4.02   c0,2.88-6.92,6.57-3.62,7.98c2.23-0.13,2.31-2.26,3.29-3.59c1.55-2.11,3.95,0.17,3.95,1.74c0.37,6.26,6.02,7.16,6.31,10.66   c-0.91,4.55-11.84,9.91-13.15,13.4c-0.46,1.23-0.51,2.66,0.01,4.29c3.67,2.04,4.42,6.09,6.63,9.07c0.45,0.61-2.61,1.54-3.3,2.84   c-0.56,1.06,0.61,1.45,1.43,1.13c21.21-8.39,19.96-11.44,27.01-14.18c2.04-0.79,3.41-2.18,3.41-4.35   c1.69-0.56,14.64-8.98,19.88-8.18c7.44,1.14,14.82,2.46,20.59,8.17c3.53,3.5,7.04,7.04,8.38,12.21c3.1-3.72,6.83-2.9,10.24-2.9   c1.7,17.03-3.13,14.37,3.83,69.94c-14.33,5.15-19.9,3.73-31.56,6.62c-8.87,2.2-19.02,3.16-28.35,3.83   c3.22-2.53,6.39-5.01,8.69-8.38c15.78-23.12,17.7-34.09-11.38-54.42c-10.66-7.45-18.95-4.1-31.56,0.21   c-1.97-6.93-4.68-13.34-8.28-19.35c-15.29-25.54-8.6-22.66-19.25-34.87c-6.75-7.74-25.49-12.77-35.9-10.04   c-2.49,0.65-8.99,0.15-11.9,0.83c-21.1,4.88-5.5,19-17.69,24.21c-0.17,0.07-0.25,0.32-0.32,0.47c-1.5,0.33-2.23,1.93-3.71,2.43   c-8.32-8.31,12.38-35.36,10.86-38.9c-0.01,0.02-0.03,0.05-0.04,0.07c-12.17,19.56-13.3,26.85-13.31,25.33   C114.04,163.06,121.61,154.32,128.72,143.6z"/>
	<path d="M245.22,498.2l0.21-0.1C245.22,498.14,245.24,498.16,245.22,498.2z"/>
	<path d="M818.95,350.66c-0.45-14.08-5.09-16.64-13.04-21.11c-11.95,5.25-9.78,11.86-32.39,26.8c-8.79,5.81-16.03,2.23-30.52,8.59   c-1.44,0.63-3.21,1.03-3.62,3.83c5.9-1.55,10.97-4.45,16.76-4.86c4.14,3.52,9.11,5.9,12.21,10.66c2.17-4.45,2.07-4.66-5.69-11.28   c0.85-0.85,0.28-0.38,4.86-1.03c3.41,2.36,3.54,2.57,8.07,4.55c-0.1-3-1.97-4.55-3.41-6.62c1.24-1.24,2.79-2.07,4.35-3.1   c2.17,1.55,4.55,2.69,7.66,2.9c-0.62-2.48-2.28-3.72-3.83-5.48c1.24-1.03,2.59-2.07,3.72-3c1.97,0.1,3.52,1.76,5.38,0.83   c0.31-1.86-1.76-1.86-1.97-3.41c4.53-4.08,2.45-2.92,7.14-3.31c0.52-1.03-0.62-1.55-0.62-2.59c3.62-3.72,6.42-8.48,11.69-10.86   c2.9,1.55,5.79,3.21,8.59,5.69c1.03,6.1,2.28,12.21,1.24,18.52c-2.07,12.62-7.45,23.27-18.83,29.9   c-10.59,6.17-15.66,19.42-16.04,24.52c-0.91,12.38-10.19,19.93-20.49,26.8c-2.59-1.35-4.66-3.1-6.62-5.28   c-4.56-5.06-9.93-9.21-14.18-14.59c-2.23-2.82-7.89-4.73-7.76-6.52c9.79-1.17,17.2-6.6,16.24-16.66c-0.5-5.22,1.73-2.89,0-12.42   c-4.79-5.09-7.69-7.34-8.69-13.14c-3.21,1.66-1.35,3.72-1.03,5.69c-0.93,1.24-2.37,1.26-3.72,1.76c-7.83,2.89-15.42,6.62-23.38,9   c-8.28,2.48-16.97,3.5-25.35,5.38c-27.66,6.21-81.72,22.01-84.74,23.49c-5.28-0.93-10.45-0.43-15.42-1.14   c-5.27-0.75-10.13,0.54-14.8,2.79c-4.96,2.4-10.24,3.23-15.52,4.35c-16,3.39-58.38,19.69-62.7,24.94   c-7.86-4.45-16.12-8.1-23.28-13.35c-14.45-10.6-29.78-19.81-46.15-27.21c-6.24-2.82-16.92-11.37-28.56-13.76   c-5.03-1.03-13.98-9.14-21.11-11.8c-12.51-4.65-17.21-5.24-32.28-1.03c-6.91,1.93-8.61,5.59-13.97,12.21   c2.33,4.33-3.88,8.24-1.35,18.73c0.2,0.83,0.52,1.86,0.1,2.48c-3.76,7.21,21.46,62.79,45.53,94.88   c-11.79,2.9-26.51-0.74-36.73-6.83c-5.11-3.04-7.31-2.17-29.39-2.17c0-9.21-7.76-12.11-14.18-16.97   c4.14-5.59,5.89-12.32,8.79-18.52c8.08-17.25,7.24-20.8,7.24-39.11c0-2.59-0.41-3-3.41-7.97c-10.25-2.41-43.82,4.24-55.36,12.62   c-0.33,0.24-26.94,10.37-35.39,12.31c-4.49,1.03-7.54,4.4-15.11,3.83c-3.62-4.14-7.98-7.64-12.42-10.86   c-13.8-10.04-34.02-1.48-45.94,8.38c-7.35-1.14-13.06,1.43-17.18,7.55c-5.08,7.55-2.92,13.73-7.24,26.49   c-17.74,9.85-36.26,16.06-33.94,36.52c0.39,3.47,1.96,1.77,12.83,14.49c11.46,13.41,19.51,13.54,24.83,21.52   c1.66,11.59,8.59,20.9,17.07,29.39c-3.52-7.14-8.07-13.76-7.45-22.25c5.34-0.67,3.14,7.13,13.45,20.49c2.9-2.07,0.1-3.41,0-5.38   c0.83-3.1-0.72-6.52-0.83-10.35c9.99,1.76,7.98,7.32,25.45,16.55c0.54,0.28,21.16,13.59,41.39,15.73   c11.49,1.21,22.87,3.09,34.46,2.38c18.83-1.16,37.77-1.97,56.29-5.59c48.77-9.53,40.85-4.1,71.7,3.1   c12.59,2.94,23.62,8.64,37.87,6.83c11.56-1.47,25.96,6.63,43.04-4.76c6.08-4.05,17.89-5.4,23.18-19.66   c3.32-8.95,6.14-27.02,4.14-35.7c2.75-4.71,16.14-17.35,21.21-21.42c2.32-1.86,16.9-4.56,17.49-4.66c3.31-0.52,5.9-1.86,7.55-4.66   c4.35-2.17,9.52-1.24,13.55-4.45c7.24,0.62,14.59-0.4,21.83-1.45c9.94-1.43,17.19-7.26,22.66-15.21c0.85-1.23,2.17-2.69,1.03-4.24   c-0.62-0.41-0.93-0.41-1.14-0.1c-13,19.73-30.77,15.43-49.77,19.45c-9.16,1.94-10.07,2.31-10.86,3.31   c-5.66,7.11-28.11,5.34-31.87,10.35c-5.48-0.1-10.97-1.55-15-3.93c-1.1-2.98,1.93-9.9,0.41-17.07c-0.7-3.32,2.45-9.96,1.86-16.76   c4.04,0.93,7.96,0.59,11.69-0.52c3.61-1.07,7.97-0.62,10.97-4.14c15.64,0.47,17.41-6.36,14.18-21.73c4.14,1.97,7.86,3.72,11.8,5.48   c-1.14,4.24-0.83,8.38,1.45,12.21c2.79-0.41,2.38-2.79,3.52-4.35c2.17,2.28,5.9,2.59,6.31,6.21c1.86,0.31,2.17-1.24,3.21-1.86   c2.69,1.24,6.1,1.24,7.45,4.14c1.24,0,1.24-0.72,1.76-1.35c5.13,1.12,5.39-1.86,14.9-1.03c4.45,0.39,8.69-0.62,12.42-3.1   c-1.3-2.16-10.63,2.08,17.07-10.55c5.93-2.71,31.73-2.12,33.32-2.17c9.26-0.33,4.97-2.83,18.93-5.9   c7.43-1.63,26.27-7.18,31.25-12.83c5.43-6.16,45.95-22.07,49.87-25.04c3.5,5.03,10.02,5.75,13.14,12.93   c0.31,0.72,0.71,1.67,1.35,2.17c8.95,7.12,13.2,17.26,22.25,12.52c6.22-3.26,20.35-17.18,21.73-30.52   c1.69-16.47,15.76-14.2,23.18-29.9C813.26,369.97,819.42,365.05,818.95,350.66z M256.37,427.03c1.4,0-3.09-0.42,16.37-5.7   c5.27-1.43,21.66-5.35,29.59-4.76c2.61,2.61,2.89,10.89,2.92,14.57c0.08,9.91-2.78,12.72-9.54,32.72   c-1.89,5.58-5.07,10.76-8.57,15.3c-13.09-1.04-22.14,1.82-31.13,9.2c0,1.81-22.4,12.48-25.67,14.29c0-1.05,8.95-14,9.82-14.59   c3.22-2.16,5.59-5.17,8.9-7.24c3.49,0,8.56-15.86,18.85-26.19c5.45-5.47,9.43-5.4,11.56-11.98c-14.53,12.1-7.4,5.89-14.05,7.96   c-2.61,2.61-28.26-1.83-51.03,11.39c-2.02,1.17-1.46,0.72-2.48,0.72c-3.76-5.29-10.18-9.32-10.76-16.87   C204.9,445.64,252.88,428.92,256.37,427.03z M219.14,481.65c-0.78-5.58-2.28-10.97-4.97-16.04c18.06-12.38,40.08-11.2,52.04-12   c-7.14,7.45-11.9,16.04-15.42,23.9c-11.43,8.14-20.61,16.39-24.77,29.02c-0.11,0.27,0.52,0.35-5.24-1.81   c-0.7-1.18-1.56-2.31-2.38-3.21c1.12-1.03,2.77-2.63,3.31-3.1C223.08,492.41,219.92,487.24,219.14,481.65z M166.3,432.41   c-1.23,0.18-2.69-0.39-3.65,1.13c0.72,0-1.51,0.23,7.35,1.84c0,1.74-7.62-0.42-11.49,1.17c0.25-1.41,1.75-1.14,2.07-2.49   c-2.79-0.2-5.82,1.35-8.38,1.14C161.36,428.55,169.91,431.88,166.3,432.41z M154.99,437.38c-1.92,1.54-5.57,1.63-7.76,2.58   c-4.27,5.07-5.3,6.4-9.42,6.4C140.51,441.61,147.54,437.26,154.99,437.38z M137.6,442.74c-0.2,0.8-0.97,0.83-1.49,1.11   c0,0-0.36-1.15-0.47-1.42C136.37,442.23,137.09,441.61,137.6,442.74z M136.03,443.96c-1.24,3.24,1.66,0.57-8.25,2.09   C130.03,442.08,133.07,443.32,136.03,443.96z M138.65,457.95c-3.13,0.28-2.83,0.62-5.69-0.93c1.24-0.83,2.9,0,4.14-0.93   c-1.03-0.93-2.9,0.1-3.83-1.35c2.06-1.64,2.34-1.67,10.35-1.35C141.35,454.53,140.12,455.88,138.65,457.95z M146.92,454.02   c2.51-1.69,1.48-4.86,4.97-4.86c-0.93,1.76-1.66,3.41-2.48,5.17c-2.9,1.14-5.48,2.69-8.79,3   C143.26,454.67,145.3,454.9,146.92,454.02z M123.23,452.78c0.42-2.28,1.66-4.24,3.94-5.48c1.8,0,4.05-0.41,5.9,0.1   c-0.52,1.55-2.28,0.93-2.59,2.28c0.33,0.38,1,0.23,1.53,0.46c1.11,0.47,0.27,2.36-0.81,3.17c-0.71,0.15-1.16,0.01-1.83-0.01   c-1.73-0.05-2.18,1.43-0.84,1.36c0.48-0.03,1.16-0.29,1.45-0.29c1.89,0.03-0.15,4.66-5.51,6.81c-1.45,3.62-3.37,7.13-4.04,11.07   c-0.23,1.34-0.93,1.97-2.38,1.97C116.83,472.24,119.15,474.86,123.23,452.78z M128.82,469.23c1.35,1.24,1.03,3.21,1.86,4.76   C128.3,472.54,128.3,472.54,128.82,469.23z M127.54,466.92c-0.01-0.07,0.08-1.36,0.12-1.49c0.07-0.21,0.22-0.37,0.53-0.44   C129.88,467.15,127.58,468.46,127.54,466.92z M125.61,473.58c-1.35-0.1-2.28,0.52-3.22-0.51   C125.9,460.53,124.25,469.07,125.61,473.58z M121.47,549.21c2.98,1.88,1.35,6,3.83,8.28c0.83-1.74-1.12-3.47,0.31-5.48   c1.97,2.79,0.62,5.79,1.24,9.52C123.94,557.66,121.66,553.98,121.47,549.21z M134.92,556.87c4.15,2.21,4.2,5.5,4.86,8.9   C137.4,563.49,137.09,560.28,134.92,556.87z M198.45,586.77c-8.13-4.77-6.64,0.37-34.04-16.14c-8.67-5.22-7.66-12.62-23.49-15.83   c-16.9-3.43-31.4-20.23-33.73-21.83c-8.96-6.17-15.21-15.21-23.9-21.31c-0.3-5.88-0.32-5.98,1.14-9c2.4,1.61,4.31,4.35,6.83,5.48   c-1.05-1.86-4.18-5.88-7.32-8.17c-0.22-0.16,4.26-6.02,7.11-7.97c12.34-8.44,24.52-16.97,41.08-16.14   c5.12,9.06,4.99,8.14,4.46,8.25c-3.18,0.82-4.39-4.45-8.6-2.04c3.53,1.26,5.57,4.06,8.48,4.66c4.55,0.92,7.74,4.05,9.93,7.55   c5.63,9.03,13.86,7.33,15.73,10.86c-3.53-0.29-6.5,0.72-9.73,0.83c-3.31-2.17-7.48-2.23-10.97-4.45c-3.34-2.13-7.66-1.66-11.38-2.9   c0-0.52,0.52-1.03-0.21-1.55c-3.93,0.1-7.14,2.38-10.24,3.72c-2.07-1.03-2.59-3.41-4.66-3.52c-1.53,1.53,2.25,2.71-0.31,3.93   c1.37,1.06,1.78,1.38,2.17,1.66c0.21,0.83-0.72,1.76,0.72,2.79c4.35,2.59,9.22,5.45,14.38,7.76c26.05,11.64,42.17,22.77,55.25,26.9   c6.49,2.05,15.04,2.93,21.21,5.17c-5.93-3.11-12.36-4.88-18.42-7.55c36.23-10.48,34.16-5.81,54.01,1.14   c19.83,6.94,23.11,40.25-2.59,46.77C227.71,589.31,203.83,589.93,198.45,586.77z M140.61,474.51c1.99,1.99-3.27,3.55,12.31-4.24   c-2.27,3.6-11.89,10.47-5.62,7.34c2.03-1.24,3.36-2.9,6.24-4.96c-3.93,6.36-8.27,9.16-15.52,8.59c-0.31-0.72-1.45-1.03-1.03-2.38   c2.01-0.34,4.09,0.67,6.21-1.05c-7.83-0.62-7.86-0.62-9.09-3.69c0-0.13,0.5,0.35,2.51,0.38   C138.03,474.52,139.38,474.3,140.61,474.51z M139.58,472.44c2.69-1.55,5.59-2.28,9.21-2.9c-1.86,2.17-3.72,3.41-6.1,4.55   c-0.62-0.31-1.14-0.62-1.66-0.72C140.51,473.16,139.58,473.78,139.58,472.44z M150.54,469.03c0.95-1.16,1.19-2.38,2.58-2.38   C152.94,468.31,152.09,468.73,150.54,469.03z M154.89,475.34c-3.16,4.43-2.8,3.26-13.24,10.66c-1.03-1.14-1.66-2.07-2.07-3.31   c3.62,0.31,6.31-1.24,9.11-2.28C155.16,473.93,153.95,474.4,154.89,475.34z M164.41,507.4c7.79,6.67,16.13,19.61,15,29.4   c-12.11-9.83-24.21-18.93-38.8-23.07c-0.64-2.2-1.12-4.24-1.08-6.24C139.76,498.27,142.01,511.54,164.41,507.4z M137.3,509.58   c-0.52-0.72-0.83-1.45-0.31-2.59C137.61,508.03,137.61,508.76,137.3,509.58z M134.82,511.24c-2.91-1.27-6.72-1.88-6.7-3.74   c0.01-1.78-0.24-3.44-1.06-5.16c-1.03,1.66-0.21,3.31-1.03,4.66c-0.31-1.69-0.45-3.18-0.31-5.79c0-0.1,0.31-0.31,0.83-0.83   c0.61,0.26,1.66,0.49,2.44,0.79c2.19,0.81,0.44,2.5,2.11,2.63c0.42-0.84,0.64-1.22,0.83-1.76c0.83-0.21,1.45-0.1,2.28,0.93   C133.37,505.44,135.55,508.21,134.82,511.24z M123.75,506.17c-1.55-0.52-2.9-0.72-3.62-2.17c0.92-1.32,2.21-1.43,3.62-1.86   C124.28,503.48,124.14,504.69,123.75,506.17z M240.15,589.36c2.97-0.67,11.31-3.23,12.33-6.63c0.9-2.99,5.73-3.86,8.88-10.57   c4.53-9.67,0.28-24.95-9-31.32c-11.56-7.93-15.04-9.64-21.31-11.28c-7.54-1.98-25.86-1.79-29.28,3   c-10.7,0.63-16.54,6.06-18.52,3.52c-0.1-7.45-0.71-8.94-5.07-15.73c-2.36-3.67-2.53-6.28-7.76-11.59   c-1.01-1.02-3.21-2.91-3.62-4.55c0.32-1.45,2.9-1.98,1.66-3.93c-1.24,0.21-1.24,1.86-2.59,1.97c-7.76-0.31-12.01-2.37-15.62-6.1   c-2.29-2.37-2.7-4.7-0.31-7.97c1.42,0.16,4.05,1.2,1.56,1.47c-0.86,0.09-1.72,0.07-2.29,1.43c0.95,1.26,0.2,3.2,1.97,4.35   c1.23-1.22-0.39-2.9,1.15-3.72c1.97,0.83,0.43,2.58,1.03,3.72c0.69,1.33,1.52,0.46,1.91-1c0.15-0.58,0.35-1.13,1.09-1.27   c0.72,1.03,0.31,2.59,1.86,3.93c2.26-1.33,2.87,2.63,5.59,2.38c0.62-3.62-2.28-3.72-4.55-4.55c-0.66-1.44-1.51-2.69-2.7-3.67   c-1.13-0.93,3.58-2.17,4.95-3.07c2.8-1.84-2.31-0.05-2.66-2.36c-1.13,0-1.89,1.32-3.21,0.83c0.93-1.96,4.34-2.18,3.72-5.69   c-2.21,1.81-3.75,4.11-7.04,4.24c2.71-2.71,6.2-4.26,5.38-8.59c-2.22,6.29-8.71,7.76-12.01,12.73c-1.07-0.7-2.03-1.27-2.57-2.26   c-0.89-1.64,10-4.56,15.6-14.71c-1.97-1.24-0.72-3.1-0.83-4.66c-1.45-0.52-1.14,1.76-2.69,1.03c0.83-2.17,1.14-4.45,0.93-7.24   c-1.62,1.74-1.26,4.03-2.91,5c-0.05-0.78,0.16-1.55-0.71-2.42c-1.06,2.02-2.94,3.51-6.31,3.93c1.81-2.21,4.34-3.47,4.76-6.21   c-3.83,4.35-8.79,7.24-13.24,10.86c-5.2-0.43-5.35-0.83-5.59-4.97c3.31,0.62,6-0.52,8.48-2.59c1.75-1.45,4.04-2.38,6.62-3.93   c-1.89,3.31-5.08,4.05-6.73,7.14c8.97-5.98,8.81-7.85,12.82-9.62c-0.83-0.93-1.66-0.93-2.28-0.72c-5.17,2.38-10.14,5.07-14.59,8.48   c-1.76,0-3.52,0.21-5.17-0.93c-0.19-2.05-0.14-4.19,0.49-6.25c0.37-1.23-0.23-1.3,4.69,0.46c5.11-1.96,12.05-2.05,16.04-5.79   c0.21-1.03-0.72-0.93-0.83-1.97c0.52-1.24,2.07-2.79,0.72-4.97c-3.72,1.97-8.28,1.45-11.38,4.66c-1.86-0.93-3.83-0.1-5.59-0.41   c0.83-2.54,0.72-2.7,2.38-3.1c3.41-0.84,6.62-2.28,10.04-3.31c3.1-0.94,6.83-0.93,9.11-3.83c2.38-0.21,4.66-0.41,7.04-0.52   c1.31-1.78,2.97-2.62,5.27-1.83c1.64,0.56-0.1,0.3,0.99-2c0.38-0.8,0.66-0.12,2.11-0.71c1.08-0.44,0.86-0.26-2.22-0.62   c-0.24-0.32-0.7-0.92-0.97-1.25c1.76-0.83,3.42,0.92,5.38,0.1c-1.13-1.45-3.61-0.78-4.35-3c3.08,0,5.56,2.15,7.24,2.48   c0.42-1.28-1.02-1.27-0.83-2.48c8.79,1.97,14.07,8.79,20.9,13.97c-3.12,1.7-5.77,3.24-7.45,6.31c4.35,0.52,5.17-4.86,9.21-4.55   c0.31,1.76,1.45,3.41,1.24,5.59c-2.99,1-5.01,2.26-5.68,5.79c2.38-1.14,3.62,2.07,5.59,1.35c2.79-1.56,0.63-4.58,1.76-5.59   c5.8,6.32,11.4,10.46,13.97,21.42c4,17.03,5.02,17.2,4.04,21.94c-2.06,3.09-6.96,5.01-5.59,5.9c1.03,0.41,1.76-0.93,2.79-0.52   c1.59,1.95-0.51,2.88-0.69,3.27c-0.18,0.38,0.3,1.06,1.29,0.44c0.24-0.18,0.91-0.69,1.26-0.82c2.52,1.84,6.69,3,7.66,3   c2.52-3.19,11.86-8.87,18.36-10.5c1.38-2.43,2.94-0.87,12.06-7.59c6.02-4.43,12-8.69,19.97-7.97   c16.43-3.58,29.58,13.37,24.83,19.14c5.45-2.98,8.64-1.5,14.38-1.24c-8.28,6.72-10.82,5.55-14.1,13.31   c-2.13,5.02-2.73,10.42-4.11,15.25c-0.1,1.55,1.45,1.76,1.45,2.69c-1.66,17.18-4.04,34.14,2.38,50.6   C288.68,587.55,216.95,592.93,240.15,589.36z M469.85,569.29c-0.92,1.66-0.1,2.9,0,4.24c-4.66,5.59-5.41,9.76-11.07,12.93   c-10.99,6.16-22.35,11.17-35.49,9.83c0.8-0.9,2.24,0.06,2.9-1.03c-0.21-0.1-0.41-0.41-0.62-0.41c-6.93,0-13.86-0.83-20.9-0.62   c-17.21,0.52-21.3-4.58-37.15-6.83c-12.98-1.84-19.49-10.85-39.94-7.24c-7.46,1.31-14.9,1.45-22.45,2.38   c-1.24-3.93-3.21-7.45-3.31-11.59c-1.03-44.44,3.46-44.87,1.45-50.91c1.21-2.17,1.78-4.71,3.16-6.6c1.63-2.23,4.16-2.9,16.19-13.06   c5.9-0.41,5.8-0.23,10.45,2.07c22.25,11,29.76,6.62,40.46,8.28c3.55,9.89,9.24,23.1,16.87,30.73c-1.54,1.25-2.36,2.87-2.69,4.86   c-2.23,13.34-2.67,25.62,7.45,46.56c0.1,0.21,0.52,0.21,0.93,0.41c1.08-1.43,0.4-3.17-0.31-4.66c-4.22-8.8-4.77-34.46-3.1-44.28   c10.7,10.69,8.34,9.23,9.62,8.59c-0.71-1.42-14.54-16.75-23.07-38.18c14.01,4,14.99,2.39,20.49,3.52   c5.39,1.11,10.77,0.96,16.04-0.21c10.74-2.38,32.44-2.97,36.32-19.25c0.06-0.23,0.56-1.41,0.68-1.28   c1.84,1.84,15.03,15.75,14.32,17.22c-0.96,1.98,1.12,1.97,2.79,6.73C475.57,537.73,478.36,553.97,469.85,569.29z M478.13,533.69   c-2.88-10.07-3.23-9.19,4.24-4.86C482.32,528.91,479.4,532.34,478.13,533.69z M472.85,494.98c0.67,2.61,0.36,5.17-1.14,14.69   c-0.96,6.13,8.77,8.52,14.49,7.98c3.52-0.34,7.04,0,10.55-1.03c-15.51,10.82-9.28,12.49-20.18,5.89c-1.66-1.01-2.58-2.38-3.4-4.13   v-0.01c-1.41-1.41-4.29-14.52-12.93-21.51c-0.29,0-2.62-2.59-3.47-3.63c-4.76-5.85-6.95-6.45-9.83-14.81   c-1.55-4.48-1.95-5.58-1.33-7.08c0.71-1.72,6.78-1.96,9.65-4.5c24.03,7.73,13.98,3.71,19.97,9.11   C476.48,483.22,471.49,489.73,472.85,494.98z M436.33,473.16c-5.48-4.55-10.66-8.79-15.93-13.14   C459.99,469.92,453.96,459.5,436.33,473.16z M445.22,480.82c-2.42-2.06-4.16-2.87-6.31-6.1c1.86,0.1,2.48-1.45,3.93-1.97   C443.44,475.61,444.39,478.21,445.22,480.82z M499.13,471.92c-2.68-2.57-6.26-2.29-9.21-4.66c2.99,7.97,12.02,5.45-3.83,6.62   c-4.29,0.68-3.51-2.39-16.14-6.2c-44.55-13.42-54.7-9.34-67.15-22.35c-0.49-0.51-7.18-4.31-14.8-13.35   c-4.35-5.16-13.37-16.31-15.52-22.76c-0.83,1.24-0.02,2.08,0.31,3c2.85,8.02,7.85,14.81,13.14,21.31   c4.74,5.83,62.99,59.34,63.63,61.25c-2.07,8.78-6.61,13.03-17.55,16.34c0,0-2.07-0.51-2.95-0.53c-4.07-0.09-21.5,8.96-51.52,1.26   c-0.07-0.1-34.81-60.21-41.18-76.36c-6.42-16.27-11.3-24.65-8.07-36.94c2.85-10.84-2.38-4.03,6.31-14.07   c0.82-0.94,1.66-2.05,2.79-2.48c3.55-1.37,7.03-3.01,10.86-3.72c19.35-3.6,30.2,6.04,41.18,13.24c-1.35,0.83-2.69,0-3.83,0.93   c1.82,1,3.72,1.55,5.48,1.36c6.84-0.77,5.95,0.79,26.07,10.85c39.77,19.89,51.23,36.23,88.89,50.13c2.53,0.93,3.87,1.58,5.06,0.14   c-0.41-2.79-3.52-2.59-5.38-4.14c0.2-0.13,4.5-2.78,4.57-2.64c1.35,3.39,3.08,6.48,3.6,9.67   C515.88,469.82,507.13,469.25,499.13,471.92z M719.39,410.97c-5.4,2.09-4.98,3.52-7.52,4.46c-7.54,2.77-17.97,7.7-26.76,12.14   c-4.06,2.05-4.03,3.21-7.87,6.01c-9.1,6.65-18.22,6.87-38.11,15.38c-12.48,5.34-23.6,2.99-29.7,4.04   c-20.8,3.57-14.47,0.48-20.07,3.1c-11.8,5.54-21.35,11.28-21.24,11.38c-11.36-1.46-13.36,1.21-16.1,0.83   c-8.04-1.13-15.31-3.93-21.21-8.17c-1.35-1.76-0.1-3.31-1.66-4.76c-8.8-6.21-15.01-6.71-17.49-10.76   c-13.98,5.05-3.54,7.34-16.76,1.45c6.7-4.47,45.62-19.84,57.43-22.14c10.48-2.05,25.48-9.49,27.42-8.9   c3.73,1.13,7.65,0.34,11.38,0.83c4.24,0.55,8.48-0.63,12.73-0.93c6.68-0.47,49.35-14.34,80.71-21.11   c23.98-5.18,43-11.83,54.94-17.38c1.86,2.17,3.52,4.24,5.28,6.31c0.21,3.21,1.14,6.42,0.52,9.83c-3.93,2.07-5.07,5.69-5.28,9.83   c1.87-0.51,2.6-3.81,4.76-3.31c-2.85,4.54-7.96,7.92-12.94,7.72C727.56,406.63,733.82,405.37,719.39,410.97z"/>
	<path d="M769.29,66.63c-0.68,4.41,4.16,7.16,7.66,4.66c2.48-2.07,2.38-5.17-0.83-8.59c0.83-0.41,1.24-0.62,1.76-0.93   c1.35,0.1,1.35,1.86,2.79,1.97c0.1-0.31,0.52-0.72,0.41-1.03c-0.21-1.35-1.76-2.28-1.35-3.72c0.93-1.35,2.59,0.83,3.52-1.14   c-2.17-2.17-5.28-2.48-7.76-3.83c-2.79,3.83-2.79,4.35-1.45,7.97C772.08,63.01,769.7,63.94,769.29,66.63z M778.19,57.84   c-0.62,1.35-0.83,3.1-3.31,2.07C774.65,56.5,776.76,55.55,778.19,57.84z M776.72,66.47c0.69,1.77,0.01,3.5-2.67,4.1   c-0.25-0.25-2.9-0.45-2.9-3C770.78,64.06,775.53,63.4,776.72,66.47z"/>
	<path d="M765.56,75.64c-2.17,4.81,2.44,6.5,6.31,7.66c0.72-1.14,1.53-2.08,2.07-3.21C777.03,73.61,768.28,69.62,765.56,75.64z    M769.91,74.6c4.95,2.73,2.55,4.45,2.37,4.45c-0.69,0.45-1.54-1.39-2.27-0.23c-0.31,0.44-0.16,1.26-0.93,1.26   C765.96,77.75,765.99,76.49,769.91,74.6z"/>
	<path d="M526.14,489.61c1.89,1.13,1.74-2.82,3.83-3.52c1.35-0.1,0.72,2.38,2.28,2.38c0.21-0.21,0.62-0.31,0.62-0.41   c-0.31-2.79-0.93-5.48-2.07-8.07c-5.37,0.31-6.21,0.93-6.83,4.84c0.76,0.68,1.51,1.42,2.17,1.99   C526.65,487.86,525.52,488.79,526.14,489.61z M525.72,483.3c2.11-2.81,5.12-1.76,3.72,1.03   C527.56,485.08,526.63,485.13,525.72,483.3z"/>
	<path d="M523.83,484.71c-0.4-0.31-0.81-0.69-1.21-1.01c-4.54-3.58-8.96-0.6-9,4.36c-0.34-0.77-3.69-5.43-7.97-2.69   c-3.34,2.14-2.15,5.3-0.52,8.9c6.95-0.61,7.54-1.03,8.45-6.14c0.05,0.05,0.06,0.04,0.06,0.01c0.75,0.44,2.84,4.77,6.8,3.13   c4.96-2.06,2.57-6.92,3.41-6.53c0.03,0.03,0.07,0.07,0.11,0.12c0,0,0-0.01,0-0.02C523.73,484.6,523.73,484.61,523.83,484.71z    M508.66,492.41c-0.81-0.51,0.38-1.67-0.63-2.07c-0.83-0.93-1.45,0.83-2.38-0.21c-1.28-3.19,3.93-5.68,5.39-1.76   C511.8,490.4,510.72,491.3,508.66,492.41z M516,486.72c0-2.8,3.46-4.09,5.3-1.45C524.33,489.64,516,492.09,516,486.72z"/>
	<path d="M583.46,480.41c2.17-4.04,0.41-9.11-4.76-12.83C577.97,470.06,578.29,471.09,583.46,480.41z"/>
	<path d="M233.11,251.95c2.79,3.83,6.42,5.28,13.35,5.38C241.7,255.36,237.67,253.81,233.11,251.95z"/>
	<path d="M133.58,198.35c-3.1,4.55-2.38,8.79-1.24,13.14c2.26-1.78-0.18-5.57,0.93-8.17C133.78,201.87,134.92,200.52,133.58,198.35z   "/>
	<path d="M174.65,172.28c1.14,0,2.28,0.93,3.83-0.21c-0.21-1.35-1.24-1.55-2.38-2.07c-1.24,1.24-3.72,1.24-4.35,3.93   C173.51,174.24,173.72,172.69,174.65,172.28z"/>
	<path d="M142.78,193.8c-1.03,1.14-0.62,1.76,0.52,2.38C144.13,195.14,143.72,194.52,142.78,193.8z"/>
	<path d="M150.03,182.31c0.21-1.14-0.1-1.45-0.72-1.66C148.68,181.38,149.41,181.69,150.03,182.31z"/>
	<path d="M135.85,140c0.13-0.41-1.4,0.08-2.59,2.99C136.38,141.06,135.72,139.74,135.85,140z"/>
	<path d="M552.11,130.89c-11.23-0.77-2.56-1.01-20.49,4.97C537.58,136.85,534.73,136.94,552.11,130.89z"/>
	<path d="M552.73,174.35c4.66-4.24,9.62-8.07,14.9-12.42C563.39,162.76,556.87,168.24,552.73,174.35z"/>
	<path d="M569.59,160.58c5.28-0.72,10.14-2.17,15-4.24C584.13,154.48,585.66,154.77,569.59,160.58z"/>
	<path d="M625.78,120.96c-4.85,0.1-9.4,2.47-12.73,6c2.79,0,4.35-2.06,6.31-2.9C621.54,123.13,623.6,121.99,625.78,120.96z"/>
	<path d="M637.47,116.71c2.79-1.45,5.59-3,8.38-4.45C642.44,112.47,639.54,113.61,637.47,116.71z"/>
	<path d="M536.69,192.56c1.35-1.03,2.59-1.97,4.24-3.31C538.04,189.76,538.04,189.76,536.69,192.56z"/>
	<path d="M734.21,78.22c-1.86-0.1-2.9,0.93-3.93,2.07C732.66,80.29,732.66,80.29,734.21,78.22z"/>
	<path d="M578.39,121.58c1.35-0.83,2.59-1.66,3.93-2.48C580.34,118.78,579,119.64,578.39,121.58z"/>
	<path d="M713.93,88.16c-2.59-0.62-3.21,0.72-4.35,1.97C711.68,90.62,712.27,89.19,713.93,88.16z"/>
	<path d="M719.42,84.12c-1.24-0.83-1.45,0.41-2.48,0.52C718.49,85.67,718.9,84.95,719.42,84.12z"/>
	<path d="M663.03,106.26c-0.88-0.6-1.41-0.15-1.97,0.72C662.37,107.72,662.6,106.91,663.03,106.26z"/>
	<path d="M655.15,108.63c-0.73-0.21-1.23-0.37-1.54,0.42C654.17,109.46,654.76,109.19,655.15,108.63z"/>
	<path d="M564.15,127.96c0.43-0.01,0.77-0.41,1.1-1.21C563.48,126.57,562.68,127.98,564.15,127.96z"/>
	<path d="M464.99,163.17c1.55-1.24,3.62-1.97,4.66-4.14c-2.6-2.06-4.01,0.4-6,1.24c-1.42,0.32-3.15-0.72-5.17,0.31   C460.12,163.27,462.61,162.86,464.99,163.17z"/>
	<path d="M371.13,103.11c4.37,1.48-8.13-5.45-10.34-6.78c-1.16-0.7-2.48-1.14-4.04-1.97C357.96,97.36,367.36,101.83,371.13,103.11z"/>
	<path d="M454.33,159.65c-0.31-2.28-0.31-2.28-3-1.97C452.16,158.82,452.88,159.65,454.33,159.65z"/>
	<path d="M400.11,125.71c-0.52-1.66-1.45-2.79-3.62-3.52C397.01,124.58,398.77,124.89,400.11,125.71z"/>
	<path d="M316.09,76.36c0.93,1.44,2.18,1.03,4.04,1.03C318.41,76.58,317.44,75.46,316.09,76.36z"/>
	<path d="M390.59,115.16c0.31,1.14,1.33,1.72,2.48,2.28c-0.27-1.43-1-2.11-2.34-2.47c-1.56-2.41-4.12-3.45-6.87-5.08   C385.11,112.68,385.21,112.68,390.59,115.16z"/>
	<path d="M447.29,156.24c-0.31-0.1-0.72,0.1-1.14,0.21C447.41,158.34,448.84,157.06,447.29,156.24z"/>
	<path d="M286.71,226.69c6.1-10.75,2.59-24.71-8.07-27.83C286.76,206.31,288.69,215.89,286.71,226.69z"/>
	<path d="M185.83,157.58c0,0,0.76,0.91,0.83,1.03c0.52,1.45-1.35,1.55-1.14,3c0.87-0.29,4.32-0.51,6.62-1.97   c0-1.24-0.93-0.93-1.66-1.35c-0.31-1.76-1.14-3.52-2.17-5.07c0.18-1.5,1.72-3.35,0.52-4.55c-3.8,4.58-3.83,4.76-6.31,14.38   C185.41,161.93,183.86,158.93,185.83,157.58z"/>
	<path d="M154.57,139.89c1.67,0,2.78,0.77,4.05,0c-0.31-1.66-2.17-0.62-2.79-2.28c2.79-0.21,5.17-0.41,6.42-3   c-4.12-1.41-7.65,1.67-12.2,5.58C150.04,140.29,149.55,140.25,154.57,139.89z"/>
	<path d="M128.71,159.03c-4.76,4.97-8.69,10.45-9.62,17.38C121.68,170.21,125.61,164.83,128.71,159.03z"/>
	<path d="M138.24,153.44c5.9-2.28,11.8-4.76,18.42-7.45C151.57,145.41,142.3,149.82,138.24,153.44z"/>
	<path d="M186.96,143.61c-4.24-0.62-7.45,2.38-11.28,10.24C180.4,150.96,182.25,145.93,186.96,143.61z"/>
	<path d="M143.79,156.17c-0.29,1.3-0.42,1.49-1.62,2.87c5.2-0.92,6.13-1.83,8.48-7.24C143.29,157.05,144.19,154.38,143.79,156.17z"/>
	<path d="M148.58,143.72c2.17-0.52,4.45-1.14,6.62-1.66C152.51,140.82,150.44,142.06,148.58,143.72z"/>
	<path d="M149.1,160.38c1.55-1.45,2.48-3.31,2.59-5.69C149.96,156.11,149.64,158.24,149.1,160.38z"/>
	<path d="M117.43,183.67c2.06-1.42,2.14-1.32,3.52-4.25C119.4,180.35,118.26,181.69,117.43,183.67z"/>
	<path d="M280.81,230.74c1.66,0.52,2.28-0.52,4.04-1.14C282.96,229.04,282.02,229.53,280.81,230.74z"/>
	<path d="M153.48,158.72c-0.6-0.01-1.11,0.04-1.28,1.03c0.62,1.14,1.55,0.41,2.38,0.21C153.72,158.53,153.74,158.72,153.48,158.72z"/>
	<path d="M265.19,197.94c-0.12-0.51-0.81-0.96-1.35,0.1C264.01,198.87,265.19,198.46,265.19,197.94z"/>
	<path d="M153.65,158.62c1.09-0.62,2.18-1.21,1.23-2.16C154.11,156.8,154.03,157.94,153.65,158.62z"/>
	<path d="M389.97,217.39c-7.13-1.95-13.47,1.54-20.28,2.17C376.62,220.49,383.25,218.01,389.97,217.39z"/>
	<path d="M357.59,217.58c1.96,1.59,3.79,1.55,6.31,1.55C361.62,217.48,359.86,217.48,357.59,217.58z"/>
	<path d="M317.54,254.74c1.66,0.31,2.59-0.83,3.52-1.86C319.72,252.98,318.27,252.98,317.54,254.74z"/>
	<path d="M319.51,235.5c-1.45,0.31-2.07,0.83-2.38,2.07C318.47,237.56,318.89,236.84,319.51,235.5z"/>
	<path d="M328.71,248.73c-0.93-0.6-1.52,0.24-2.89,0.53C327.19,249.87,328.13,250.01,328.71,248.73z"/>
	<path d="M323.34,230.32c-1.45-0.1-1.76,0.41-1.97,1.45C322.6,231.88,322.7,231.16,323.34,230.32z"/>
	<path d="M483.71,250.39c0.31-1.24-0.52-1.45-1.45-1.86C482.27,249.67,482.68,250.29,483.71,250.39z"/>
	<path d="M481.33,252.36c-0.01,0.19-0.01,0.36-0.01,0.52C481.36,255.11,484.59,256.02,481.33,252.36z"/>
	<path d="M98.5,204.87c0.93-0.52,1.35-1.35,1.14-2.9C98.91,203.11,98.09,203.83,98.5,204.87z"/>
	<path d="M341.86,382.42c2.59,2.38,5.28,0.93,7.66,1.55C347.34,382.52,345.17,380.97,341.86,382.42z"/>
	<path d="M397.11,411.81c-1.86-1.76-4.14-2.9-6.52-3.62C392.66,410.67,392.87,410.77,397.11,411.81z"/>
	<path d="M409.53,417.91c1.03,1.76,2.9,2.07,4.66,2.69C412.81,419.01,411.65,417.83,409.53,417.91z"/>
	<path d="M482.99,463.54c0.93,1.45,2.07,2.17,4.35,2.69C485.78,463.75,485.78,463.75,482.99,463.54z"/>
	<path d="M357.17,380.87c0.59,1.39,1.68,1.7,3.11,2.16C359.53,381.51,358.79,380.64,357.17,380.87z"/>
	<path d="M420.55,425.41c0.32,0.17,0.93,0.23,1.29,0.26C420.31,423.18,419.73,424.97,420.55,425.41z"/>
	<path d="M403.63,557.71c0.01,0.01,0.01,0.03,0.02,0.04C403.64,557.69,403.63,557.66,403.63,557.71z"/>
	<path d="M409.84,575.7c1.11-0.37,1.65,1.47-6.19-17.95C403.76,558.39,404.66,565.16,409.84,575.7z"/>
	<path d="M411.49,565.56c-0.94,0.94,4.32,7.58,4.94,6.96C416.57,572.38,415.02,569.09,411.49,565.56z"/>
	<path d="M424.32,569.91c-0.05,0-0.1,0.03-0.15,0.07c-0.05-0.45-2.2-2.57-7.82-7.21c-3.85-3.18-8.07-6.1-12.11-10.35   c1.84,5.54,18.67,17.87,19.86,17.65c-0.03,0.04-0.06,0.08-0.09,0.14c0.5,1.13,1.72,1.32,2.58,2.17   C426.6,570.88,425.46,570.36,424.32,569.91z"/>
	<path d="M416.36,572.6c0.11,1.46,1.29,2.11,2.69,3.52C418.62,574.49,417.95,573.13,416.36,572.6z"/>
	<path d="M409.63,563.08c0.04-0.97-0.65-1.57-1.55-2.28c-0.18,2.35,1.65,2.17,1.45,2.38c0,1.08,0.49,1.83,1.21,2.42   C412.12,566.61,411.47,563.91,409.63,563.08z"/>
	<path d="M245.28,498.51c-0.97-0.01,0.41,0.11-4.65,2.65c-1.76,0.88-9.21,4.28-10.2,6.55c2.23,1.98,0.41-0.11,17.49-7.55   c1.66-0.72,3.41-1.45,5.59-0.52c-3.93,2.21-9.93,7.02-12.42,9c-2.68,2.13-12.75,4.08-35.08,16.14c-8.66,4.68-7.78,4.38-7.69,4.91   c0.53,2.98,3.07,0.23,5.19-0.87c39.26-20.35,29.28-9.68,50.7-27.52c1.12-0.94,1.35-2.11,1.04-3.53   C251.93,494.79,247.24,498.53,245.28,498.51z"/>
	<path d="M244.91,498.51c0.01,0,0.02,0,0.03,0C245.04,498.51,245.31,498.29,244.91,498.51z"/>
	<path d="M273.26,533.59c-2.9,1.24-6.21,1.55-9.11,3.41c10.24,3.71,26.94-17.16,23.38-25.56   C284.37,519.88,278.81,526.56,273.26,533.59z"/>
	<path d="M176.2,468.51c-0.03,0.05-0.18,0.26-0.21,0.31C176.14,468.72,176.24,468.67,176.2,468.51z"/>
	<path d="M184.84,467.5c-0.27-0.42-2.13-1.16-1.59-1.7c0.83-1,1.76,0.93,2.89-0.3c-0.66-1.33-2.69-1.98-2.9-3.93   c-2.12,0.79-2.69,0.99-4.24,2.28c1.38,0.54,2.21-1.01,3.72,0c-2.26,1.05-8.33,5.46-7.35,7.86c1.55,0,1.24-1.97,2.79-2.48   c0.72,1.35,1.86,2.38,3.93,2.07C183.85,470.55,184.98,467.7,184.84,467.5z"/>
	<path d="M198.52,487.89c-0.27,0.33-0.41,0.79-0.28,1.52c4.42,1.19,8.63-6.61,16.14-9.42c0.39-0.14,0.15-1.01-0.1-1.45   c-3.41,0.21-6.62,1.76-9,4.04C198.19,489.33,199.61,486.56,198.52,487.89z"/>
	<path d="M205.59,468.61c0.62,1.86-1.24,3.21-0.62,5.17c1.44-0.48,1.57-1.29,2.48-1.86c0.1-1.66-0.62-2.9-1.03-4.35   c-4.17-3.2-13.9-7.32-14.61-10.73c-0.24-1.14-0.29-2.67-1.22-4.38c-0.83,3-0.48,4.92,1.24,6.62   C198,465.19,203.51,466.01,205.59,468.61z"/>
	<path d="M184.07,456.58c0.7-0.38,1.36-1.26,0.04-1.72c-0.17-0.06-9.64,2.97-13.29,6.61c-4.8,4.8-1.6,8.45-1.03,5.17   C170.93,460.08,180.65,458.45,184.07,456.58z"/>
	<path d="M207.2,489.97c4.27,0.03,7.16-2.34,8.42-7.18C212.3,486.89,204.12,489.94,207.2,489.97z"/>
	<path d="M194.93,510.83c4.45-0.21,8.38-1.35,11.8-3.93C202.59,507.93,198.55,508.86,194.93,510.83z"/>
	<path d="M203,473.06c-2.38,0.21-2.82,2.46-4.24,3.83c-0.53,0.51-1.55-0.31-2.07,0.62C197.07,479.78,201.97,478.4,203,473.06z"/>
	<path d="M170.1,501.93c-2.71,1.64,3.8,5.06,6.31,6C176.83,506.69,178.66,508.15,170.1,501.93z"/>
	<path d="M145.79,458.37c-3.41,1.45-6.83,3-10.24,4.45C139.58,462.82,142.89,461.16,145.79,458.37z"/>
	<path d="M184.28,516c1.24,2.17,3,3.72,5.07,4.97C188.12,518.69,186.74,516.93,184.28,516z"/>
	<path d="M173.62,470.58c1.5,0.1,1.18-2.01,2.37-2.06c-0.22-1.34,1.26-1.99,1.56-3.11C175.06,466.59,174.56,467.07,173.62,470.58z"/>
	<path d="M175.99,468.53c0.03,0.1-0.04,0.13,0.11-0.02C176.06,468.51,176.03,468.52,175.99,468.53z"/>
	<path d="M287.95,508.76c1.97-1.14,1.35-2.28,2.28-3.52C288.26,505.96,288.26,507,287.95,508.76z"/>
	<path d="M195.76,525.73c0.48,1.51,1.18,2.43,2.39,3.34C198.34,527.56,197.16,527.02,195.76,525.73z"/>
	<path d="M198.16,529.08c0,0.15,0.02,0.12-0.08,0.18c-0.35,0.22,0.06-0.01,0.06-0.01C198.26,529.18,198.31,529.17,198.16,529.08z"/>
	<path d="M196.48,452.37c-1.24,0-1.97,0.83-2.48,1.97C195.45,454.23,195.86,453.19,196.48,452.37z"/>
	<path d="M189.55,510.52c0.87,1.01,1.85,0.75,3.1,0.41C191.64,510.12,190.76,510.19,189.55,510.52z"/>
	<path d="M200,452.26c-1.14-0.51-1.89-0.62-2.51-0.5C194.72,452.33,197.73,452.26,200,452.26z"/>
	<path d="M205.61,477.46c-0.65-0.13-1.35,0.73,0.5,1.29C206.18,478.12,206.08,477.55,205.61,477.46z"/>
	<path d="M628.78,421.22c-5.59,1.03-10.86,2.38-15.52,5.59C613.71,428.15,611.72,428.53,628.78,421.22z"/>
	<path d="M583.46,455.68c4.55-0.52,8.28-1.86,11.9-3.52C591.32,451.85,587.18,453.09,583.46,455.68z"/>
	<path d="M569.57,424.27c-2.54,1.01-3.46,0.78,7.26,0.78C574.11,423.76,572.34,423.17,569.57,424.27z"/>
	<path d="M739.28,400.11c-0.31-0.72-0.72-1.03-1.45-1.24c-1.45,0.52-2.9,1.35-4.55,3C735.87,401.56,738.04,402.49,739.28,400.11z"/>
	<path d="M592.36,424.02c0.93-0.52,2.07-0.72,2.79-1.67c-1.62,0-1.34-1.12-4.55,1.67C591.63,424.02,592.05,424.12,592.36,424.02z"/>
	<path d="M726.87,402.91c2.17,0.72,2.17,0.72,4.14-0.83C729.04,401.25,728,401.87,726.87,402.91z"/>
	<path d="M639.02,417.91c1.76,0.62,3.52,0.31,5.17-0.1C642.54,417.08,640.78,417.6,639.02,417.91z"/>
	<path d="M576.63,458.16c1.97,0.31,2.9-0.72,3.83-1.76C578.91,456.32,577.68,456.77,576.63,458.16z"/>
	<path d="M565.87,463.23c-2.2,1.65,1.3,1.51,1.33,0.09C567.22,462.54,565.97,463.2,565.87,463.23z"/>
	<path d="M583.46,420.19c-1.42-0.2-2.7,1.49-0.89,1.16C582.76,421.31,584.6,420.47,583.46,420.19z"/>
	<path d="M571.56,461.26c0.75,0,1.58-0.09,1.97-0.72C572.7,460.23,572.7,460.23,571.56,461.26z"/>
	<path d="M232.7,558.63c-4.24-2.17-8.48-3.83-13.24-4.24C223.58,556.93,228.05,557.88,232.7,558.63z"/>
	<path d="M223.8,535.24c-2.75-0.79-2.96-0.97-5.45-0.03c-1.18,0.45-2,0.51,0.49,0.7C220.57,536.05,222.16,535.74,223.8,535.24z"/>
	<path d="M217.49,550.56c-1.24-0.62-2.59-1.24-4.55-2.17C214.07,551.08,215.63,551.18,217.49,550.56z"/>
	<path d="M132.13,480.2c-0.72-1.66-0.72-1.66-2.38-1.76C130.21,479.54,130.82,480.3,132.13,480.2z"/>
	<path d="M207.66,452.26c1.97,0.52,3.1-0.41,4.97-1.45C210.35,450.4,209.11,450.92,207.66,452.26z"/>
	<path d="M286.09,437.47c1.59-1.59-0.85-1.59-1.55,0.52C285.36,438.71,285.67,437.88,286.09,437.47z"/>
</g>
</svg>