<?xml version="1.0" encoding="UTF-8"?>
<!-- Generator: Adobe Illustrator 23.0.1, SVG Export Plug-In . SVG Version: 6.00 Build 0)  -->
<svg version="1.2" fill="#fff" baseProfile="tiny" id="Layer_1" xmlns="http://www.w3.org/2000/svg" xmlns:xlink="http://www.w3.org/1999/xlink" x="0px" y="0px" viewBox="0 0 900 600" xml:space="preserve">
<g>
	<path d="M622.05,543.81c-2.73-0.3-5.25-1.44-7.88-2.02c-8.4-1.85-7.42-0.64-9.9-1.62c-3.18-1.26-9.37-2.11-14.85-2.63   c-8.04-0.76-5.87-3.37-13.94-3.23c-19.98,0.33-8.78,3.13-15.97-23.34c-1.9-7-0.61-10.36-5.15-17.89   c-4.34-7.18,0.99-0.19-18.39-40.82c-0.39-0.82-1.41-0.61-2.12-1.31c-1.21-2.22-2.43-4.65-3.74-7.07c-0.71-0.81-0.91-1.41-0.81-2.02   c1.54,0.62,2.34,1.42-0.3-3.13c-23.48-40.44-30.95-44.23-34.15-57.6c-1.78-7.44-5.77-14.61-4.24-27.49   c1.5-12.72,6.37-11.18,8.08-22.94c3.48-23.83,4.27-24.57-6.37-60.73c-3.51-11.95-6.87-13.46-8.08-21.83   c-0.41-2.83-1.41-5.56-1.41-8.39c4.41-3.43,5.02-2.8,6.77-4.65c3.29-3.48,7.07-6.57,9.3-11.01c2.27-4.54,4.65-2.07,6.16-6.06   c3.01-7.96,7.09-6.9,4.45-10.1c-7.26-8.81-4.63-14.04-28.5-25.97c-2.22-3.23-4.75-6.37-8.39-8.18c-16.4-22.59-7.2-16.32-26.58-28.7   c-2.53-1.62-5.46-2.32-8.18-3.03c-2.12,0.51-3.23,2.02-4.85,2.93c-1.31,0.4-2.43-0.81-3.44-0.51c-1.41,0.2-2.41,0.71-2.93,1.62   c-6.16,10.77-8.93,8.94,0.81,19.4c-0.54,5.37,8.29,12.33,9.3,17.68c1.12,5.97,0.44,8.56,2.32,11.42c0.33,0.5,0.5-0.16,1.72,12.33   c0.15,1.56-0.26,11.84,2.63,11.52c0.71-1.11-0.51-2.22-0.1-3.44c0.34-0.69,0.22,0.01,1.01,0.81c4.24,1.36,8.52-1.02,7.78,1.92   c-0.71,0.91-1.41-0.3-2.43,0.1c-0.61,0.4-1.41,0.91-2.12,1.41c0.1,1.21,1.41,0.81,1.72,1.62c8.99,34.82,5.11,11.59,4.95,37.09   c-0.3,46.72-1.12,8.95-2.02,55.68c-0.08,4.31-0.83,1.6-1.31,6.77c-2.59,27.62-1.65,24.66-3.13,28.29   c-5.09,12.47-2.05,10.81-6.06,20.82c-4.07,10.15-1.09,21.32-0.2,30.01c0.51,4.99,2.21,46.91,15.36,85.69   c3.27,9.65,5.1,12.28,4.14,15.16c-6.87-1.52-13.64-0.81-21.12-0.1c-2.78-1.21-15.3-0.55-20.21-2.12   c-11.56-3.71-18.3-3.05-21.02-3.13c-2.65-0.08-11.59-1.89-12.73-3.03c-2.02-2.02-4.85-3.03-6.57-5.46   c-1.24-1.75-14.23-7.46-24.05-5.36c-16.08,3.45-14.93-0.74-36.88,21.22c-5.31,6.64-3.49,4.27-8.59,8.99   c-8.73,8.08-6.33,7.67-22.33,6.97c-21.48-0.94-5.98-6.02-13.54-16.98c-2.63-1.41-5.46-1.11-8.39-1.11   c-2.03-1.18-2.22-4.22-7.68-2.12c-1.21-0.81-1.41-2.63-3.23-2.83c-3.03,0.4-3.03,0.4-5.25-0.4c-3.23-12.91-0.78-6.35-21.32-1.52   c-4.28,1.01-4.07-3.73-15.36-2.53c-4.35,0.47-8.79,0.6-13.14,1.82c-9.29,2.6-10.14,2.26-13.14,5.25c-6.22,6.22-6.9,5.81-8.59,9.4   c-7.71,16.42-6.26,10.21-6.37,25.06c-0.07,9.98,1.05,21.23,6.77,29.1c3.68,5.06,2.77,6.78,7.98,10.41   c-0.5,1.68-2.19,0.48-8.08,3.33c-7.34,3.55-5.82,10.61,0.71,14.96c22.89,12.88,86.6,0.03,98.32,3.94c2.21,0.74,2.69-0.88-0.3-1.21   c-3.98-0.44-17.18-3.06-24.86-2.02c-1.36,0.18-41.52-1.73-43.96-1.52c-0.46,0.09-0.92-0.16-1.22-0.51   c-2.28,0.41-9.25,0.03-10.09-0.61c-1.92-1.92-4.54-1.74-6.87-2.43c-2.55-0.75-7.24-2.32-7.68-4.95c0.51-1.72,2.21-2.45,3.84-3.33   c3.41-1.86,4.55-2.02,6.97-1.72c-0.61,0.91-1.21,1.72-1.62,2.32c-0.83,4.38,5.21,8.18,9.08,8.28c-1.21-1.32-2.95-1.75-4.33-2.82   c-6.94-5.33-0.69-6.18-1.62-8.69c0.61-0.4,1.31-0.81,1.82-1.11c0.2-0.4,0.1-0.61-0.3-0.61c-6.43,0-7.75,2.74-16.77-33.95   c-0.83,3.81,3.23,20.14,5.76,26.88c-0.61,0.51-0.81,0-0.91-0.3c-5.04-6.91-7.98-14.79-8.29-23.44c-0.32-9.15-4.26-18.26,2.27-31.21   c0.54,3.02,2.45-1.98,4.71-2.51c0.46,2.4-6.07,6.58-4.96,19.27c1.01-7.68,4.41-14.28,9.3-20.21c7.14-8.67,7.74-3.25,6.87-7.58   c0.14-1.22,1.13-0.19,2.53-3.44c12.49-3.26,15.19-1.78,19.1-2.32c4.57-0.63,3.58-1.83,6.57,0.3c8.36,4.95,22.04-5.25,23.54-5.25   c1.41,1.52,1.32,3.64,1.21,5.66c-0.1,1.92,1.31,3.74-0.2,5.46c1.5,1.07,2.28-0.74,3.03-2.43c6.83-1.14,6.47-0.1,6.47,6.57   c0,2.25,2.43,2.36,2.43,0.1c0.25-2.02-1.28-1.91-0.4-4.24c1.47-1.66,3.69-0.55,5.25,1.01c3.29,3.29,4.34,0.16,9.8,2.73   c1.51,1.51,0.9,2.81-0.4,12.23c0.1,0.91,0.71,1.52,1.41,2.22c1.21,0.1,2.53,0.19,3.64,0.91c2.11,1.38,1.96,0.39,10.71,1.72   c2.43,0.37,4.85,0.61,7.38,0.91c0.5,0.5-0.61,2.24,0.9,2.13c-0.94,0.63-2.01,1.04-3.12,1.3c-3.82,0.92-10.62,4.56-10.91,4.95   c-1.91,2.53-4.95,3.23-7.48,4.75c-7.58,12.89-5.11,11.72-6.06,16.47c-1.56,2.08-3.38-0.17-8.99,2.32   c-8.1,3.6-11.55,2.13-14.15,5.86c-1.84,2.65-6.27,3.6-8.69,6.16c3.23-1.11,5.76-2.02,7.98-3.33c0.81,0.4,0.51,0.91,0.2,1.21   c-6.6,6.6-11.27,11.96-19.91,12.53c-15.19,0.99-15.36-0.61-18.59,0.91c-2.32-0.61-4.85-0.4-7.17-1.52   c0.65-2.95,5.34,0.17,13.94-4.85c6.34-3.7,12.78-13.91,10.41-12.33c-1.73,2.16-8.04,9.01-10.05,8.7c2.38-3.98,4.14-7.23,4.46-10.6   c-1.83,3.05-9.08,12.99-12.38,13.02c0.08-1.39,7.53-9.75,7.65-12.24c-1.23,0.72-1.92,1.98-2.71,3.04   c-13.38,17.99-11.33,10.35-13.94,18.19c0.61,0.61,1.52,0.2,2.22,0.51c1.82,1.62,3.54,3.33,6.57,4.04   c-1.01-1.72-2.93-2.12-3.44-3.94c7.5-0.64,13.93,3.7,16.77,2.83c3.54-1.09,7.17-1.01,10.91-1.82c2.02-1.01,3.84-2.93,6.67-3.44   c5.15,0.81,10.51,2.43,16.17,2.32c0-0.4,0.1-0.81,0.1-1.01c13.15,1.14,35.2,2.29,49.51,12.53c0.68,0.48,0.8,1.25,1.08,1.94   c3.07,0.77,1.14,2.37,1.95,3.72c2.12,1.06,1.78-4.9-1.31-7.58c-4.81-4.16-6.18-4.27-14.35-7.38c2.84-1.58,15.67,5.03,19,7.28   c6.83,4.63,0.9-2.14-3.94-4.14c-9.42-3.9-14.67-6-19.6-4.55c-30.23-6.64-37.65-0.8-46.79-4.04c0.16-1.74,6.16-4.4,8.39-9.5   c0.13-0.34,4.26-4.52,5.76-6.27c2.93-1.31,12.43-4.24,15.97-4.95c1.22,0.54,0.82,1.55,1.52,5.36c1.21-0.1,1.73,0.8,2.43,1.62   c10.38,12.11,21.35,10.74,32.94,15.16c10.24,3.9,20.63,5.27,43.05,8.89c10.11,1.63,11.44,3.06,19.7,2.43   c8.79-0.67,10.39,0.46,13.54-0.3c6.67-1.62,11.83,1.81,17.08,2.73c0.71,0.12,14.62,2.93,17.68,2.93c42.69,2.69,40,0.26,70.03-4.85   c3.96-0.67,0.68-1.54,8.89-1.92c26.94-1.25,21.92-3.67,27.69,0.1c1.41,0.92,3.03,1.42,4.75,1.31c10.51-0.66,21.02,0.19,31.53-0.1   c3.17-0.09,11.2-0.99,14.85-0.3c2.15,0.4,1.63,0.25,14.85-0.61c1.01-0.61,2.12-1.31,3.13-1.92c2.63-0.81,5.56,0.4,8.08-1.21   c0.3-0.61,0.51-1.41,1.01-1.92c0.61-0.51,1.31-0.71,1.62-1.62c-0.51-1.62-0.51-1.62-2.73-1.52c-0.4,0.61,0.81,1.01,0.2,1.72   c-0.2,0.1-0.61,0.3-0.91,0.2c-3.57-0.96-7.23-1.29-10.62-2.9c5.71,0.2,6.09,2.52,9.21,1.18c-0.32-3.52-19.23-4.49-25.16-5.05   c-1.11-2.02-3.03-2.93-5.56-3.54c-6.99,2.24-27.2-0.88-35.17-2.02c0-1.36,2.22-0.83,8.08-4.65c3.57-2.32,8.39-3.54,12.33-10.41   c0.75-1.3,3.25-6,4.55-5.36c8.08,4.04,18.38,0.31,22.64,2.12c1.94,0.83,6.18-0.43,14.35,0.71c8.48-2.83,0.83-3.55,10.51-2.32   c3.38,0.43,10.37,1.05,13.24-0.71c1.11-0.1,2.02,0.61,2.12,0.51c2.53-0.91,3.13-2.63,4.14-3.84   C624.17,544.02,622.95,543.92,622.05,543.81z M188.34,574.22c-2.02,1.01-4.15,1.71-5.96,3.03c-3.15,2.3-2.92,5.13,0.61,6.97   c3.55,1.86,6.41,1.76,6.77,2.73c0.71,0.1,1.52,0,2.32,0.4c-1.71,0.85-2.16-0.39-2.36-0.39c-2.13,0.66-4.5-0.3-5.62-0.3   c0.99,3.95,52.72,4.21,56.72,4.21c10.1,0-20.1,3.62-35.4,2.15c2.32-3.1-1.07,1.89-20.51-3.13c-5.65-1.46-10.01-8.04-4.65-12.53   C181.63,576.22,187.44,572.68,188.34,574.22z M182.89,508.57c0-0.28,0.29-0.32,0.29-0.32   C183.19,508.51,183.11,508.61,182.89,508.57z M178.44,510.77c-0.56,0.58,0.64-3.71,5.15-7.17c0.5-0.38,1.01-0.68,1.65-0.52   C185.14,503.08,181.69,507.39,178.44,510.77z M185.32,502.71c0.09-0.26,0.33-0.32,0.58-0.39   C185.85,502.96,185.11,503.33,185.32,502.71z M546.06,484.3c-1.52-1.21-1.52-1.21-2.22-3.23   C545.63,481.55,545.65,483.06,546.06,484.3z M542.52,475c1.21,1.12,1.82,2.53,1.31,4.24c-0.3,0.2-0.51,0.4-0.91,0.71   c-0.35-0.71-7.07-4.48-20.11-36.38c-0.29-0.71-0.71-1.52-0.61-2.22c0.33-4.23-3.69-8.7-3.73-11.72   C521.3,432.14,539.74,472.42,542.52,475z M514.93,422.26c0.28,1.11,0.22,1,0.26,1.02c1.37,0.44,1.54,1.79,2.36,2.71   c0.84,0.94,0.99,2.05,0.85,3.27c-1.95-1.46-3.11-5.73-3.34-6.08C514.74,422.86,514.64,422.7,514.93,422.26z M490.48,381.63   c-3.44-5.56-4.95-13.64-3.54-18.69C487.57,376.93,494.77,382.49,490.48,381.63z M493.12,283.02c3.29,11.53,5.25,18.81,5.25,29.3   C497.33,302.91,492.07,285.62,493.12,283.02z M492.3,281.39c-0.1-0.2-0.1-0.4-0.1-0.51C492.2,281.09,492.3,281.29,492.3,281.39z    M458.65,156.09c0.61,0.3,1.11,0.61,1.11,1.72C458.55,157.5,458.14,157,458.65,156.09z M436.01,175.19   c-0.77-0.48-1.31-1.2-1.31-2.12c0.75-0.75,1.7,0.64,2.43-0.81c-0.61-1.72-2.43-0.91-3.74-1.52c-5.41-15.31-11.11-12.9-8.89-15.86   c3.63-6.9,3.03-7.4,5.15-7.98c1.7,0,2.89,0.99,2.8,1.18c-0.74,1.71-1.77,3.22-1.49,4.98c-1.11,0.28-0.44,0.8,0.51,6.16   c7.68,9.99,2.86,4.89,7.07,14.15C438.44,173.37,436.11,175.11,436.01,175.19z M440.56,182.16c0-0.81,0.91-0.91,1.21-1.62   c-2.14-1.34-2.11-3.28-2.23-5.55c0.99,0.83,1.57,1.95,2.23,3.01c0.71,1.13,0.72,0.47,1.1,4.26   C441.98,182.84,441.17,183.11,440.56,182.16z M443.59,195.6c0,3.92,0.22,4.52-1.01,5.86C442.15,198.9,441.15,194.14,443.59,195.6z    M443.9,212.07c-0.1,0.2-0.4,0.51-1.01,0.51c0-1.92,0-3.85,0-5.77C442.88,200.65,444.75,208.66,443.9,212.07z M444.1,192.47   c-0.91,0.3-1.41-0.1-2.12-0.51c-0.51-1.95-0.79-3.85-0.51-5.83c0-0.1,0.76-0.69,2.43-0.54   C444.92,188.01,445.51,190.25,444.1,192.47z M460.06,481.16c-1.52-1.31-2.23-3.03-2.73-4.95c-3.31-12.9-11.86-51.89-11.72-72.96   c0.01-1.62-5.59-21.71-1.41-33.14c3.45-9.44,1.69-9.71,4.55-16.37c1.94-4.54,3.89-19.22,3.94-22.23c2.76-3.31,0.66,0.85,1.62-11.22   c0.8-10.08,3.93-33.88,3.74-42.24c-0.76-33.67-0.19-30.02-0.71-34.36c-0.22-1.82,0.1-3.64,0.91-5.15c-0.4-3.13-0.97-6.08-2.22-8.79   c-2.54-5.5-1.15-13.76-2.63-16.47c-2.19,0.1-4.65,0.88-7.17,0c-0.2-3.84,0.3-7.68-0.71-11.82c3.58,0.33,8.93-1.53,10.71-4.75   c-3.72-0.5-6.49,1.65-10.21,2.02c-0.1-2.53,0.4-4.95,1.21-7.17c3.84,0.51,5.86-0.1,7.58-2.63c-2.56-1.53-4.9,0.75-7.38,0.51   c0.2-3.84-1.92-7.07-3.13-10.61c0.81-0.91,2.12-0.81,2.53-1.82c0-0.47-0.3-0.8-0.71-1.01c-2.24,0.75-2.58,2.4-3.84-2.63   c-1.53-6.12-2.85-11.41-6.97-15.36c-2.78-2.32-1.81-2.85,0.3-11.32c1.72-0.4,3.44-0.4,4.75-1.41c18.48,7.68,9.96,5.86,31.33,30.11   c4.32,1.99,5.54,5.77,9.09,8.89c6.59,5.79,12.47,7.5,18.59,13.34c6.61,6.31,4.75,8.16,7.68,10.21c1.46,1.17,1.34,1.37-0.91,3.94   c-3.75,4.29-1.71-0.29-10.31,10.91c-1.62,2.12-3.12,4.05-5.36,5.56c-2.85,1.92-2.07,2.91-7.38,5.56c-0.91-0.61-1.62-1.11-1.62-2.53   c1.72-1.62,2.61-3.84,3.23-6.27c1.68-6.53-2.93-7.92-5.05-11.22c-1.44-2.24-3.42-3.46-5.96-3.74c-4.85,3.94-10.81,5.36-17.18,5.05   c-1.19,3.58,11.31,2.1,16.98-1.52c1.05,0.08,2.22,0.2,3.13,0.91c2.16,2.38,4.31,8.49,5.19,7.8c1.22-0.95-0.14-1.57,1.07-0.77   c0.41,0.41,0.34,4.52-0.81,6.41c-11.78,19.29,11.99,49.31,13.64,91.15c0.63,15.87-12.85,35.21-12.63,43.35   c-0.4,1.21-1.41,1.52-1.41,1.72c0,8.86,3.15,12.01,5.46,20.72c0.53,2.01,1.62,3.84,3.23,5.25c2.03,1.78,9.01,13.84,9.8,15.46   c4.2,8.67,6.34,9.74,12.83,21.73c5.17,9.54,8.92,23.13,12.53,31.43c2.7,6.22,3.2,5.28,6.97,11.72   c8.78,15.01,12.32,15.86,7.68,16.57c-27.1,4.16-31.24,6.34-53.25,6.97c-4.21,0.12-21.9,0.23-22.5,0.02   C462.8,493.45,461.02,484.83,460.06,481.16z M482.33,220.88c-0.16-0.22-0.33-0.33-0.04-0.63   C482.29,220.45,482.29,220.69,482.33,220.88z M481.28,241.37c-0.4-0.3-0.4-0.71-0.1-1.41   C481.69,240.57,481.38,240.97,481.28,241.37z M319.61,505.92c8.76-12.63,24.12-18.93,25.77-20.11c7.58,0.91,14.85,2.22,21.93,4.24   c1.82,2.63,2.22,2.93,4.95,3.64c-0.74-0.93-1.21-2.2-1.21-3.64c-1.95-0.65-7.68-4.83-13.74-5.56c-0.48,0-2.16-0.43-2.15-1.24   c0-0.62,2.84-0.7,4.27-0.17c9.86,3.64,12.83,0.62,23.85,9.6c3.95,3.22,6.59,2.83,10.71,2.83c0.37,0.43,0.73,0.86,1.41,1.72   c-0.11,1.11-1.12,1.59-1.02,2.73c2.17,0.24,2.16-2.12,3.84-3.03c11.97,0,24.88,6.19,40.33,6.23c1.49,0,3.12,0.16,4.54,0.64   c5.03-0.98,9.68-1.18,13.74-0.81c5.26,0.48,8.16-1.81,7.8,1.81c-0.71,0.91-1.72,1.82-1.72,3.23c0,3.47-1.6,9.3,3.44,31.63   c3.22,14.27,4.89,13.11,5.36,15.36c2.33,11.31,5.93,10.91-1.31,10.41c-31.87-4.19-43.44-8.55-70.85-3.32   c-1.57-0.52-1.41-1.41-2.73-1.41c-1.35,0.23-5-0.17-6.36-0.34c-4.55-0.58-1.84,1.02-3.45-5.21c-9.51-36.81,4.51-40.56,4.14-52.12   c0.01,0,0.04-0.02,0.09-0.02l-0.1-0.1c0,0.1,0,0.12,0.01,0.12c-0.69,0.1-0.95,0.5-1.31,1.09c-9.41,13.51-9.64,25.22-8.18,40.22   c0,0.77,4.64,12.95,3.84,14.55c-1.41,1.12-4.01-2.59-14.15-5.78c-6.34-1.99-29.04-6.03-29.22-6.08c-3.05-0.87-0.33-1.49-2.3-11.28   c-1.78-8.8-7.77-10.71-16.31-13.45c-7.66-2.45-14.71-3.17-21.99,0.41C292.82,526.43,314.29,512.58,319.61,505.92z M298.64,523.51   c0.96,0-0.01,0.52-0.85,0.4C297.99,523.67,298.23,523.51,298.64,523.51z M568.79,574.13c-0.13,0.25-0.07,0.26-0.2,0H568.79z    M566.87,573.32c-0.61,0.61-1.11,0.4-1.72,0C565.76,573.32,566.27,573.32,566.87,573.32z M533.93,572.1   c10.7,2.07,19.22,1.08,27.69,3.13c9.97,2.42,25.78,2.6,27,3.42c-4.78,1.58-18.38-2.05-18.41,0.6c-0.02,2.23,27.66,0,28.19,4.68   c-17.31,0.6-13.82-2.91-25.77-2.12c-3.03,0.2-5.96,0.2-8.89-0.2c-1.07-0.98-2.16-1.87-3.96-0.99c-0.51,0.25,1.11,0.26,1.67,0.83   c2.49,2.57,3.88,2.08,11.19,2.08c10.94,0,9.6,1.67,15.36,1.82c0.46,0.01,0.89,0.37,0.71,1.11c-3,0-4.92-0.86-9.6,0   c-1.11,0.2-2.33,0.11-3.44-0.1c-3.12-0.6-48.69,0.81-49.82,0.81c-2.43-1.62-4.35-3.74-6.77-5.15c-3.2,4-1.97-1.13-36.68,4.95   c-28.19,4.94-25.15,6.19-63.16,4.75c-22.08-0.84-31.13-7.99-39.31-4.45c-18.96-0.65-15.31-3.75-18.23-1.66   c-0.7-0.7-38.55-6.35-47.86-8.54c-14.44-3.39-3.93-1.65-23.75-7.17c-0.88-0.25-6.85-2.24-7.68-3.44c-0.84-1.2-8.7-6.5-10.21-10.84   c-0.95-2.74,0.44-8.99,1.72-11.6c5.04-10.27,4.92-7.11,8.69-10c6.3-4.84,16.85-6.49,21.42-8.89c3.37-1.77,12.53-1.3,16.27-1.01   c2.53,0.42,8.91,3.1,9.9,3.54c3.09,1.35,5.26,3.72,6.27,7.07c1.81,6.03,1.68,4.73,0.81,6.47c0.29,1.54,3.03,4.65,0.2,4.65   c-6.64-1.33-4.1-1.33-7.78-3.23c-2.62-1.36-13.02-6.06-15.94-5.98c-0.44,0.01,3.22,3.08,6.11,4.55c0.59,0.3-0.3,1.09-0.02,1.88   c1.28,3.63,46.7,12.4,48.44,12.69c2.03,0.34-0.84,0.4,11.82,3.64c2.23,0.57,4.41,1.2,6.47,2.53c-3.98,0.85-3.42,0.59-3.07,1.09   c0.38,0.55,6.55,2.18,10.55,1.74c13.03-1.43,10.89-0.22,13.14-1.01c4.85-1.71,32.02,0.49,32.13,0.51   c12.05,1.57,28.37,4.97,41.33,4.45c3.83-0.16,5.32,0.62,17.78,1.62C536.65,573.33,530.74,571.19,533.93,572.1z M542.01,559.78   c-1.92,0.95-5.64,3.33-8.18,4.45c-2.94,1.29-6.07,2.22-8.98,3.75c-6.37,3.34-27.29-1.73-27.83-1.19c-1.53,1.02-3.49,1.22-5.42,0.47   c-3.46-1.1-3.5-0.04-14.15-1.41c-5.1-14.45-6.09-21.84-7.28-30.82c-0.57,0.24-1.02,0.38-1.52,0.51   c-0.54-2.43-5.61-25.55-2.54-27.08c1.2,0.5,0.76,2.41,2.02,2.83c0.8-1.6-5.25-11.46-2.22-14.15c7.79,0,11.06,1.02,25.65,0.92   c29.91-0.2,47.39-8.53,52.46-10.22c1.82,1.72,3.72,3.34,4.85,5.56C559.7,514.68,563.78,549.04,542.01,559.78z M594.26,543.51   c-0.61-0.39-1.52-0.4-2.32-0.3c-6.34,0.79-9.31-2.69-11.12-1.11c1.41,0-0.01,2.73,12.73,2.73c2.84,1.71,4.09,2.34,1.47,4.39   c-1.65,1.28-5.02-0.81-9.65-0.34c-2.02,0.2-4.14-0.02-6.16-0.71c-3.85-1.31-6.2,0.61-8.79,0.4c-2.37-0.19-10.84-0.77-11.82-2.93   c2.02-2.49,2.62-5.63,3.94-9.6c9.92,0.99,13.26-1.15,19.4,1.41c5.86,2.44,15.98,2.22,19.1,3.64c3.33,1.52,6.87,2.43,10.21,3.64   C625.87,550,596.68,545.06,594.26,543.51z M619.62,546.85c0,0-2.12-1.12-2.53-1.31c-0.31-0.31-0.28-0.59-0.4-0.61   c-0.3-0.1-0.81,0.1-1.01-0.51c0.62-0.19,0.91-0.21,1.01,0.51c1.08-0.2,2.37,0.11,3.44,0.3C620.71,545.23,621,546.65,619.62,546.85z   "/>
	<path d="M303.94,592.92l0.1,0.1C304.01,592.91,304.03,592.95,303.94,592.92z"/>
	<path d="M200.57,586.56l0.1-0.1C200.41,586.46,200.4,586.39,200.57,586.56z"/>
	<path d="M218.96,556.75l-0.1-0.1C218.83,556.97,218.74,557.13,218.96,556.75z"/>
	<path d="M214.21,557.66l-0.1-0.1C214.11,557.84,214.02,557.75,214.21,557.66z"/>
	<path d="M92.04,104.86l0.1-0.1C91.94,104.75,91.96,104.69,92.04,104.86z"/>
	<path d="M428.85,24.94c-0.01,0.03,0,0.06-0.01,0.09C428.98,24.89,428.96,24.94,428.85,24.94z"/>
	<path d="M110.74,76.97l-0.1-0.1C110.59,77.19,110.57,77.1,110.74,76.97z"/>
	<path d="M830.51,23.71c3.27-7.19,1.24-7.35-7.48-11.52c-2.83-0.1-5.86-1.31-9.2-0.81c-2.32,1.62-4.85,3.33-7.38,5.05   c-3.13-0.1-5.78,1.29-8.18,3.13c-2.85,2.18-13.14,4.49-14.35,4.35c-4.95-0.61-9.8,0.85-14.65,1.01c-4.24,0.14-8.49,1.02-12.73,1.92   c-3.07,0.65-8.63-0.06-10.91,2.22c-0.81,1.31-0.62,2.74,0.51,3.54c7.65,5.43,3.84,13.59,10.1,12.02c-0.2-1.72-1.11-3.13-1.72-4.75   c1.21-1.52,2.93-1.42,4.24-1.01c1.92,0.6,3.84,0.4,5.96,0.71c8.44,6.63,6.12,6.4,8.08,7.38c3.37-1.12,0-4.32-1.62-6.47   c1.52-0.3,2.83-0.61,4.04-0.81c2.04,1.31,5.31,7.71,7.07,4.55c-0.1-2.02-1.62-3.44-2.43-5.15c0.91-1.11,2.32-1.11,3.64-1.72   c1.72,1.21,2.73,3.44,4.95,4.04c2.08-4.34-5.93-7.15,2.22-6.47c1.21,0.81,1.82,2.22,3.33,2.32c1.11,0.3,1.52-1.11,2.53-0.91   s1.31-0.61,1.72-1.41c5.89-1.04,5.63-1.15,9.7-3.03c0.81,0,1.31,0.71,2.53,0.2c2.02-1.62,4.85-2.83,6.97-4.04   c1.72-1.11,1.31-2.63,3.03-3.44c4.14-0.3,7.98,1.72,11.52,3.94c0.61,1.01,0.3,1.72,0.1,2.43c-3.14,10.89-3.67,11.82-5.86,13.84   c-3.24,3-2.27,3.4-7.58,8.89c-6.12,6.34-15.87,9.76-16.57,12.02c-0.28,0.92-1.21,0.81-1.72,1.11c-4.14,5.66-8.6,10.91-14.15,15.06   c-2.43,1.82-13.66,7.51-16.67,8.39c-1.63,0.47-3.23,0.81-4.95,1.31c-6.42-3.38-2.03-3.13-10.81-13.74   c-2.63-1.82-6.06-1.92-8.69-3.94c1.37-2.16,2.28-0.51,6.27-1.11c9.6-1.46,11.46-7.66,15.26-10c2.18-1.35,1.72-5.43,1.72-7.98   c-2.13-4.04-9.33-12.99-11.01-8.79c1.16,2.33,0.81-0.31,7.17,8.49c1.1,1.52,1.01,1.92,0.81,6.16c-0.91,1.21-2.02,2.53-3.03,3.94   c-2.22,0.1-3.33,2.32-5.46,3.03c-3.64-0.61-7.48-0.91-11.72-1.21c1.62,2.12,3.74,1.72,5.46,2.32c-0.71,1.41-1.82,1.21-3.13,0.61   c-3.49,2.44-2.59,2.33-6.87,3.03c-25.36,4.15-20.81,6.31-40.22,9.2c-33.07,4.92-18.07,6.23-48,7.17   c-12.76,0.4-25.01,3.94-37.79-1.31c-3.9-1.6-8.67-0.52-17.28-4.35c-10.04-4.47-55.59-1.43-66.59-0.3   c-26.77,2.75-6.06,1.79-49.51,6.16c-8.07,0.81-21.26,1.25-22.23,1.52c-7.18,1.92-21.77-0.07-28.9-1.31   c-8.66-1.51-4.79,1.26-40.72-2.73c-1.92,1.01-3.94,1.31-6.27-0.2c-3.07-35.8-2.56-39.43,1.72-48.6c5.34-11.44,4.84-9.88,3.64-17.08   c3.64-0.99,25.88,2.17,29.51,2.02c3.22-0.13,8.47,2.68,10.92,2.33c0.27-2.33-12.73-4.78-14.16-5.06c-1.31-0.26-1.35,0.98-5.46,0.1   c1.76-1.12,0.63-1.13,27.69-4.24c3.61-0.42,11.02-0.3,14.05-0.3c1.3,2.74-0.82,2.12,1.52,10.31c-0.86,2.16-3.26-0.15-41.94,5.46   c-7.54,1.09-4.98,2.83-4.04,2.83c82.64-6.17,30.23-13.66,46.89,54.77c0.63,2.6,2.43,1.82,2.43,0.4c0-6.71-2.85-13.68-1.62-25.97   c0.51-5.06,2.78-27.07,3.84-32.03c2.33-2.33,40.18,2.46,47.8,2.63c9.27,0.21,36.03,7.71,41.43,7.07c4.03-0.47,17.81-0.2,18.69-0.1   c14.47,1.65,13.38,3.58,18.29,3.13c0.4,0,0.81-0.1,1.11,0c3.33,1.52,7.09,1.58,10.31,3.44c5.07,2.92,6.9,1.63,9.3,2.43   c6.47,1.08-3.9,1.78-7.28,3.13c3.13,0.71,6.05,0.34,8.99,0c1.11-0.13,2.02-0.61,2.12-1.92c44.17,6.31,52.41,1.62,90.84,3.13   c8.4,0.33,13.63,1.82,28.5,1.21c3.74-1.5,20.93-1.93,27.18-8.18c-2.12,0.2-3.95,0.49-5.56,1.11c-3.7,1.43-22.05,2.98-24.25,3.33   c-8.23,1.32-15.86-0.52-37.29-1.31c-7.8-0.29-49.84,3.18-81.65-2.12c-7.02-1.17-8.94-3.08-14.96-4.14   c-6.79-1.2-8.82-5.15-36.18-6.67c-3.13-0.17-6.16,0.61-9.2,1.72c-5.49-2.95-15.03-2.67-25.36-5.25c-8.87-2.22-4.48-0.22-11.82-2.02   c-27.41-6.73-51.98-4.11-54.47-5.36c-0.2-1.01,0.6-2.02,0.51-3.13c-0.11-1.21-0.1-2.32-0.1-3.54c0-3.62,0.67-4.11,2.83-3.84   c0.2,0.04,42.87,3.21,65.18,8.79c6.31,1.58,18.85,1.17,36.98,7.07c6.1,1.99,2.19,2.74,11.42,4.65c1.93,0.4,4.23,1.86,2.53-0.4   c-2.5-2.31-5.86-1.71-5.86-3.54c11.08-1.42,13.42,0.25,20.92,2.53c23.22,7.06-1.16,4.96,50.63,6.16c6.28,0.15,14.97-1.27,27.69-0.4   c9.09,0.62,18.19,0.4,27.28,1.31c5.96,0.6,11.93,0.42,17.89,0c12.29-0.87,34.96-0.51,36.18-5.36c-2.12-0.51-3.64,1.31-5.56,1.21   c-4.25-0.59-11.86,0.92-15.06,1.11c-26.35,1.54-31.74-2.36-86.8-1.21c-38.97,0.81-32.94,2.56-48.81-4.24   c-11.34-4.86-17.17-4.7-25.77-3.13c-2.78,0-67.88-18.6-126.01-18.09c-3.44,0.03-30.71,4.65-30.82,4.65c-2.02,0-3.94,0.3-5.36,1.62   c-5.25-0.37-7.59-0.91-14.65-0.91c-5.52,0-6.12-3.5-16.77-1.31c-7.44,1.52-7.95-0.1-25.67,1.62c-35.06,3.4-45.84-4.96-49.21-3.84   c-4.53,1.13-18.23-1.76-19.4-2.93c-2.02-2.02-4.88-3.01-6.57-5.46c-1.22-1.78-13.84-8.26-26.68-4.85   c-7.44,1.98-12.66-1.89-34.46,20.92c-4.12,4.31,1.8-0.19-8.99,9.2c-2.01,1.75,0.1,0.14-6.67,6.06c-2.55,0.51-6.47,1.76-9.5,0.71   c-1.71-0.6-5.38-0.04-10.81-0.51c-8.57-0.73-6.45-4.06-6.27-6.97c0.75-11.79-3.71-10.58-10.51-10.81   c-2.12-1.36-1.91-4.25-7.48-2.02c-1.21-0.51-1.31-2.02-2.22-2.43c-2.22-1.21-4.65,0.91-6.67-1.21c-0.8-3.81-0.46-6.8-3.44-7.17   c-1.56,0-9.57,4.38-16.47,5.76c-2.45,0.49-4.58,0.35-8.49-1.82c-2.14-0.97-1.74-1.02-14.75,0.1c-6.21,0.54-9.28,2.46-12.13,2.83   c-7.29,0.94-8.69,5.66-11.22,7.17c-4.08,2.99-5.86,7-10.61,17.38c-0.7,1.52-1,3.13-0.8,4.84c0.74,6.28-1.19,11.3,1.72,26.37   c1.6,8.28,5.98,11.78,6.67,13.44c3.74,8.92,8.99,7.57,4.75,9.2c-3.06,1.18-6.44,2-8.59,3.64c-5.22,3.99-2.28,10.56,3.03,13.64   c7.22,4.19,10.1,3.15,22.64,4.95c27.39,3.93,35.93-3,77.4-1.11c0.1-0.91-0.5-0.81-1.01-0.91c-9.48-1.81-19-2.93-28.7-2.32   c-0.81-0.4-1.41-0.51-2.02-0.4c-4.06,1.38-14.47,0,0,0c-1.61-1.61-30.21,0-36.78-2.12c-0.2-0.1-0.51-0.1-0.81,0   c-4.24,0.91-8.49-0.1-12.93-0.4c-1.31-1.52-3.33-1.83-5.36-2.22c-2.97-0.58-8.78-2.41-8.99-5.15c0.21-2.76,7.53-5.25,10.61-5.56   c-0.1,1.41-1.62,2.02-1.72,3.33c0,4.18,5.02,7.29,8.02,7.37c-0.65-1.4-2.18-1.54-3.17-2.31c-5.89-4.57-2.76-5.57-1.72-7.48   c0-1.79-0.46-1.5,2.32-2.12c-1.46-2.2-2.84-0.2-4.85-0.61c-6.57-4.01-8.61-20.45-12.33-32.54c-0.51,2.93,2.27,15.04,2.93,17.38   c1.65,5.89,4,11.1,1.31,7.38c-6.08-8.42-7.23-15.12-7.98-22.43c-1.9-18.37-2.47-19.02,0.91-29.61c0.23-0.71,1.38-1.98,0.91-1.52   c0.12-0.28,0.11-1.22,0.71-1.56c0.01,0.45,0.06,0.87,0.08,1.3c-0.03,0.06-0.01,0.05,0,0.05c0,1.28,2.82-3.02,4.56-3.5   c-0.13,1.87-6.38,8.35-5.04,16.13c3.44-9.4,7.48-17.78,16.37-22.84c-0.2-0.51-0.4-0.91-0.61-1.41c0-0.91,1.11-0.91,1.52-1.52   c0.4-0.61,0.71-1.31,1.11-2.02c5.46-1.41,10.91-2.54,16.47-2.32c2.43,0.09,4.55-0.71,6.97-1.01c2.56,1.28,5.1,3.74,11.42,2.02   c12.37-3.36,14.53-8.72,15.06-4.45c0.41,3.33,0.81,6.57,0.61,9.9c1.92-0.1,1.92-1.92,2.83-2.93c3.14-0.63,6.16-1.02,6.16,2.22   c0.29,4.05-0.68,5.82,1.31,6.37c1.47-0.18,1.35-2.5,0.81-3.94c-0.85-2.26,1.31-3.49,3.13-2.53c2.72,1.44,3.45,3.54,6.47,3.03   c2.02-0.34,3.84,0.4,5.56,1.11c0.91,1.21,1.11,2.43,0.91,3.74c-0.51,2.32-0.33,4.64-1.11,6.87c-0.7,2,1.17,4.62,2.32,4.04   c1.08-0.54,3.34,2.06,6.97,2.02c4.55-0.05,8.99,1.11,13.34,1.52c0.81,0.91,0.1,1.82,0.3,2.73c-1.32,1.54-0.27-0.62-12.43,5.46   c-0.3,0.2-0.81,0.3-1.01,0.61c-1.92,2.53-4.95,3.23-7.58,4.85c-4.35,8.04-5.61,9.05-5.86,16.37c-3.22,1.84-4.47,0.08-9.09,2.22   c-7.31,3.39-12.17,2.19-14.55,6.47c-0.66,1.19-3.83,2.42-6.87,4.24c-1.31,1.01-0.71,1.72-1.31,2.73   c-3.26,3.58-10.32,5.91-11.06,7.4c1.77,0.29,11.04-4.86,12.15-6.85c0.43-0.88-0.12-1.7,0.74-2.56c5.89-2.79,6.11-3,6.27-2.53   c0.21,0.5-0.02,1.03-0.4,1.31c-1.71,1.58-5.62,5.51-8.59,7.88c-3.18,2.54-10.58,5.4-11.94,3.45c-6.59,2.78-12.51,0.05-17.26,1.4   c-2.72,0.77-10.36-1.84-6.06-2.63c8.18-1.5,12.59,0.67,23.44-15.06c0.21-0.3,0.2-0.51-0.2-0.81c-1.71,0.92-1.1,1.79-6.47,6.27   c-9.63,8.03-0.3-0.96,0.17-7.05c-0.69,0.57-9.23,12.21-11.58,11.43c0-2.23,1.57-0.84,7.56-11.75c-1.95-0.18-5.97,7.87-12.53,14.05   c-2.03,1.91-3.84,3.84-4.24,6.77c0.4,0.71,1.31,0.2,2.02,0.61c1.92,1.82,3.84,3.64,6.87,4.14c-1.31-1.72-3.33-2.22-4.14-4.24   c11.15,0.31,12.61,4.26,19,2.43c5.96-1.72,3.26,1.84,15.16-4.65c6.62,0.89,7.49,2.32,18.59,2.32c-1.12-0.47-1.98-0.51-2.67-0.51   c3.83-2.23,50.13,5.21,51.01,14.15c-0.55,0.06-0.93,0.37-1.25,1.01c1.69,0,0.7-0.91,2.63-0.91c1.52,0.91,0.4,2.53,1.11,3.64   c1.11,0.2,1.22-0.81,1.21-1.41c-0.21-10.5-15.19-11.91-16.07-13.94c2.69-0.07,4.99,1,7.38,1.92c12.52,4.86,11.97,7.3,14.27,7.28   c-1.5-2.14-5.43-4.92-7.6-6.37c-12.02-4.11-13.47-4.96-16.07-4.65c-7.83,0.95-6.93-2.97-39.51-3.13c-4.4-0.02-2.37,1.53-10.31-0.61   c-0.1,0-0.1-0.2-0.2-0.3c-0.21-1.28,4.83-3.24,8.49-9.4c1.44-2.41,3.84-4.24,5.96-6.47c5.15-1.52,10.41-3.23,15.76-4.85   c1.11,1.62,0.61,3.54,1.82,5.36c2.4,1.33,5.99,8.99,17.89,12.33c15.36,4.31,12.93,2.77,15.46,4.04   c9.96,3.96,18.72,5.01,53.35,11.12c10.06,1.77,7.64,0.51,15.56,0.51c15.46,0,13.25-1.35,18.49,0.61c16,5.98,51.49,6.23,54.77,6.06   c28.69-1.47,14.89-2.28,39.21-5.66c1.93-0.27,3.84-0.81,5.25-1.82c9.9-0.61,19.4-1.31,28.7-2.43c3.69,1.09,4.14,3.71,8.79,3.44   c6.35-0.38,54.16-0.3,54.26-0.3c2.53-0.08,4.85-0.91,7.28-0.61c4.49-4.06,7.75-1.38,10.31-2.73c1-0.53,1.11-1.41,1.52-2.22   c0.4-0.61,1.41-0.71,1.52-1.62c0.1-0.61,0-1.21-0.71-1.72c-1.52-0.51-1.41,0.91-1.82,2.02c-2.2-0.19-4.5-0.22-6.45-1.6   c1.38,0.08,2.79,0.09,4.53,0.18c-4.23-3.65-6.1-3.24-25.26-5.15c-0.78-1.57-1.88-0.8,4.95-1.21c47.71-2.89,62.55-8.16,81.24-8.29   c56.75-0.39,18.69-1.02,59.01,5.15c13.82,2.11,11.11,3.71,28.09,3.84c2.18,0.02,3.07-1.23,9.7-0.81   c12.11,0.76,24.06-1.64,26.27-2.43c13.69-4.83,27.38-4.53,43.65-9.6c4.67-1.45,2.1-0.63,22.74-5.46c1.81,0.33,1.72,2.85,5.25,3.54   c2.32,0.45,4.55,1.11,6.47,2.02c2.22,2.43,2.02,6.27,5.66,7.68c1.92,2.73,3.44,6.16,7.68,6.67c0.1,0,15.05-4.86,17.99-7.38   c12.88-11.01,8.8-7.34,20.21-21.02c0.67-0.8,10.18-6.8,11.72-7.58c6.06-3.07,7.68-5.8,11.52-10.81c3.93-5.14,2.99-5.47,7.58-16.98   C836.98,27.48,834.24,26.51,830.51,23.71z M762.4,35.33c-6.95,0.58-10,1.99-11.72-2.83c4.35-3.13,9.6-4.45,16.47-4.14   c2.34,2.22,3.65,3.46,4.65,6.47C768.57,35.64,765.43,35.08,762.4,35.33z M774.53,34.63c0-1.97-2.89-5.61-3.84-6.97   c11.84-0.74,5.63-4.17,12.43,5.86C780.09,34.73,777.36,34.22,774.53,34.63z M827.57,22.1c-2.63,0.4-5.25-1.31-8.39,0.71   c-6.64,6.64-4.29,3.91-9.3,7.98c-4.35,0.4-8.59,1.16-12.93,1.01c-4.25-0.15-8.39,1.01-12.63,1.21c0-4.76-2.6-6.88-2.25-6.88   c6.42-1.3,6.1-1.4,9.24,4.36c1.52-2.22,0-3.94,0-5.76c1.7-2.73,3.28,1.06,6.06,0.71c0.61-0.91-0.51-1.52-0.2-2.43   c1.92-0.71,3.44-2.43,5.36-3.54c2.73,0.81,4.64-1.03,6.67-2.22c2.11-1.24,4.14-2.63,5.86-4.35c2.93,0.71,5.56,1.92,8.49,1.62   c0.81,0.51,1.61,1.13,2.43,1.52c0.7,0.33,2.52,0.95,2.83,1.11C829.4,19.06,829.1,20.78,827.57,22.1z M81.33,92.73   c-0.12,0.6-0.68,0.3-0.78,0.3C80.66,92.63,80.86,92.55,81.33,92.73z M73.03,99.41c0.18,3.43,3.24,4.1,6.97,5.36   c4.74,1.6,3.64,0.69,3.64,1.62c-1.69,0-3.54,0-5.18,0c1.76,2.64,53.47,3.82,53.28,4.06c-0.69,0.8-19.53,2.03-24.29,2.03   c-10.32-0.01-7.45-1.3-9.56-1.36c-6.33-0.18-7.73,0.85-20.3-2.42c-2.73-0.71-4.89-2.41-6.27-4.95c-3.07-5.66,4.28-10.6,9.15-10.6   C80.11,94.3,73.32,95.69,73.03,99.41z M76.78,23.31c-2.36,2-6.1,7.45-5.48,5.34C73.08,22.65,81.29,19.49,76.78,23.31z M98.91,88.69   c0,0.1,0.05,0.2-0.3,0.2C98.45,88.57,98.91,88.46,98.91,88.69z M182.24,99.71c0.1-0.1,0.88,0.5,1.01,0.5   C181.86,100.24,181.16,99.89,182.24,99.71z M461.15,92.91c-0.74-0.09-1.51-0.09-2.61-0.18C460.59,91.79,461.66,92.98,461.15,92.91z    M305.26,17.55c29.71,8.23,74.19-1.56,80.44,2.01c2.77,3.84,1.44,9.04-0.91,12.43c-3.61,5.21-5.88,9.76-6.27,21.32   c-0.76,22.61-0.13,22.77,1.01,32.23c-8.96-0.32-40.61-4.97-40.72-4.99c-39.7-6.23-43.08,1.11-47.7-0.26   c-0.51-0.51-0.81-1.21-1.21-1.21c-3.44-0.05-6.67,0-9.9-0.51c1.62-6.08-14.63-29.6,10.61-63.26   C290.92,15.42,297.73,15.46,305.26,17.55z M212.49,24.12c2.31-3.63,5.73-6.26,8.8-9.12c5.36-5,9.83-7.32,17.17-10.68   c7.38,0.81,14.65,2.22,21.62,4.24c2.12,3,1.91,2.32,4.35,3.54c0.4-0.71-0.41-1.21-0.51-1.72c-0.49-2.65,0.73-1.17-8.08-5.76   C253.33,3.3,250.3,3.6,247.58,2c0,0-0.01-0.01-0.02-0.01c1.41-1.1,1.34-1.34,17.48,2.83c1.61,0.42,3.34,0.91,4.65,1.92   c2.22,1.72,4.93,2.85,6.97,4.95c2.31,2.37,6.52,2.43,9.8,2.43c2.05,2.05,2.67,1.57-2.28,6.52c-2.97,2.97-8.14,11.64-9.94,21.47   c-4.48,24.49,10.3,40.37,1.21,34.66c-11.4-6.2-15.65-5.95-20.41-7.17c-22.7-5.86-21.93-2.8-21.93-5.46   c0-10.05-0.94-17.56-10.41-20.92c-8.4-2.98-15.3-6.19-25.77-3.13c-3.85,1.13-5.68,3.21-6.87,2.02   C193.81,40.65,210.95,26.54,212.49,24.12z M486.04,98.23c-0.56,0.06-1.2,0.24-1.63,0.07c-1.86-0.93-2-0.46-11.62-1.01   c-9.45-0.54-10.74-0.83-10.41,0.81c3.48,1.16,17.68,1.09,20.01,1.62c8.53,1.92,8.11,2.04,8.29,2.63c-3.23,0.2-6.46,0.69-9.7,0   c-6.95-1.48-11.79-2.85-17.28-1.92c-8.59,1.45-8.81-3.12-12.13-1.62c0.88,0.78,3.03,1.3,3.74,2.53c14.22,2.37,1.72-0.91,23.44,2.02   c0.93,0.13,1.86,0.28,2.22,1.21c-1.98,0.49-8.25-0.05-17.99,0.1c-51.92,0.8-42.3,3.07-49.33-2.33c-2.1-1.62-1.97-2.04-3.82-0.19   c-52.79,3.6-57.18,10.47-76.49,8.59c-8.52-0.83-30.04,1.51-46.79-4.24c-3.24-1.11-10.88-2.28-14.35-0.3   c-20.52-1.77-16.21-3.8-18.59-1.41c-10.42-3.55-30.85-5.49-46.28-8.69c-13.34-2.77-8.08-3.06-23.14-6.87   c-9.42-2.38-9.19-3.9-11.61-5.79c-10.67-8.37-11.59-12.82-2.44-28.07c8.18-4.6,7.05-5.01,16.17-8.08   c11.56-3.9,19.66-8.23,36.69-0.29c4.59,2.14,5.63,7.02,6.87,11.72c-0.3,0.71-0.81,1.01-0.51,1.82c1.2,2.39,1.87,3.13,0.81,4.04   c-8.46-0.89-1.47-1.26-22.03-8.99c-0.51-0.19-1.23,0.05-1.41-0.19c0-0.25-0.93-0.42-1.16-0.47c0.12,0.12-0.16,0.32,1.18,0.71   c0,0.59,0.61,1.05,1.28,1.58c3.86,3.06,4.26,1.64,3.74,4.24c3.8,5.22,56.81,13.38,66.49,18.69c-3.31,1.65-3.56,1.46-2.5,1.73   c1.31,0.33,2.89,0.15,3.91,0.7c1.81,0.97,3.63,0.94,5.66,0.71c10.59-1.19,10.47-0.28,12.83-0.81c20.2-4.54,55.53,5.46,75.89,4.75   c3.27-0.11,32.96,3.03,36.68,3.13c11.12,0.31,15.3-0.23,21.02,1.01c7,1.52,12.26-0.03,23.54,2.63   C465.62,96.38,483.16,95.67,486.04,98.23z"/>
	<path d="M117,94.95l-0.1-0.1C116.93,94.89,116.96,94.95,117,94.95z"/>
	<path d="M71.02,30.89l0.1,0.1C71.12,30.81,71.11,30.89,71.02,30.89z"/>
	<path d="M205.01,109.5l0.1-0.1C204.86,109.4,204.93,109.38,205.01,109.5z"/>
	<path d="M119.73,77.17c1.55,0.83,3.18-1.31,4.14,0.63c-1.31,1.46-5.13,2.17-6.97,4.35c3.03-0.81,5.54-1.85,7.17-2.83   c1.9-1.14,3.44,0.2,4.65-0.91c-0.64-1.44-2.11-0.11-2.93-2.02c1.41-1.41,3.33-2.32,5.15-3.44c1.52-0.3,3.13,0.3,4.55-0.61   c1.11-0.61,1.21-1.82,1.92-2.53c0-1.31-0.71-1.92-1.41-2.43c-3.29-1.98-4.13,0.32-1.92,1.62c1.6,0.94,1.3,1.52,0.91,1.52   c-3.82-0.35-9.01,2.24-9.11,2.34c-0.47-0.24,1.24-2.64,4.48-3.77c-3.31-6.07-3.82-2.83-5.36-2.83c-2.53-2.25-2.32-3.39-6.97,0   c-0.68,0.49-1.28,1.16-2.24,1.2c-0.75,2.86,0.45,2.03,0.76,2.96c0.09,0.28,0.4-0.06,0.83,0.9c0.12,0.17,1.09,1.13,1.66,1.7   c-0.28-0.28,1.44,0.71,5.26,0.71c-0.9,1.09-2.07,0.97-3.34,0.81c-1.84-0.23-1.02-0.51-4.6-4.09c0.13,0.13-0.66-0.04-0.84-0.79   c-2.89-1.14,0.08-2.66,0.08-2.29c1.2-1.8,3.34-3.19,4.45-5.36c0.31-0.6,0.61-1.11,0.91-1.52c-0.2-1.31-1.01-1.92-1.92-2.43   c-1.68,0.34,0.04,1.48-2.22,5.76c-1.62,1.41-3.74,2.43-4.75,4.85C114.07,72.01,116.49,74.95,119.73,77.17z M124.52,73.56   c0.46-0.46,0.89-0.5,1.26-0.6C125.36,73.55,124.19,73.89,124.52,73.56z M120.85,71.91c-2.32-2.12-2.32-2.12-2.43-3.64   c1.01-0.4,0.91,1.11,1.82,1.11c0.9-0.93-0.61-1.92,0.29-2.93c0.3-0.38,0.95-0.7,1.72-0.61c0.81,0.91,0.81,2.43,2.02,2.93   c0.71,0,1.31,0,2.22,0C124.96,70.98,123.55,72.41,120.85,71.91z"/>
	<path d="M226.13,554.22c0.01,0.04,0.05,0.1,0.1,0.1L226.13,554.22z"/>
	<path d="M223,551.09l-0.1-0.1C222.9,551.06,222.94,551.07,223,551.09z"/>
	<path d="M218.96,549.57c1.92,3.13,4.2,5.81,6.97,8.08c1.39,1.14,3.03-0.1,4.46,0.51c0.41,1.23-1.14,1.51-3.33,2.73   c0,0.32-0.85,1.02-0.52,1.13c-0.07,0.2,1.26,0.14,2.83-0.73c4.36-1.94,1.37-1.62,6.67-1.62c-0.48-2.14-3.77-0.55-2.63-2.83   c1.62-1.01,3.33-2.02,4.95-3.13c4.57,0.61,4.94-0.91,6.27-3.03c0-1.41-0.92-2.2-1.92-2.73c-0.92-0.49-1.82-1.11-2.73,0.1   c-0.17,1.67,2.43,2.05,2.43,3.03c-0.2,0.61-0.61,0.71-1.01,0.61c-5-0.6-7.96,2.48-7.96,1.77c0.53-1.97,2.32-2.49,4.02-3.59   c-0.61-1.21-1.01-2.53-2.02-3.23c-1.41-0.61-2.12,0.3-3.03,0.71c-3.13-3.13-2.67-3.23-6.87-0.4c-0.88,0.59-1.68,1.47-2.83,1.7   c0,0.57,0,1.06,0,1.64c1.14,1.14,1.44,0.76,1.62,1.62c2.27,2.27,2.19,1.58,2.39,2.34c0.97,0.08,3.09,0.45,5.7,0.07   c-1.68,1.61-5.25,2.36-6.23,0c-0.69-0.17-0.32-0.36-1.66-1.7c-1.15-1.15-1.38-0.74-1.6-1.55c-0.42-0.12-0.63-0.39-0.81-0.84   c-2.12-1.36,0.44-0.65,5.74-8.83c-0.4-1.41-1.01-2.22-2.32-2.63c-0.81,1.92-0.71,4.04-1.92,5.96   C222.09,546.04,219.87,547.15,218.96,549.57z M232.95,554.04c0.05-0.18,0.16-0.32,0.3-0.41   C233.21,553.8,233.11,553.93,232.95,554.04z M228.46,553.31c-2.53-1.81-3.37-3.94-3.18-3.94c1.28-0.39,1.46,0.9,2.14,1.17   c1.84,0.55-1.75-3.27,1.95-3.8c1.11,0.71,0.81,2.43,2.22,3.13c0.2,0,0.4,0.1,0.61,0.2c0.29,0.09,0.69-0.27,1.08,0.35   C233.33,550.55,231.83,553.46,228.46,553.31z M232.42,554.3c0.02-0.02,0.08-0.03-0.02,0.02L232.42,554.3z"/>
	<path d="M222.09,548.66l0.1-0.1C222.16,548.58,222.09,548.62,222.09,548.66z"/>
	<path d="M222.19,550.28l-0.1-0.1C222.13,550.26,222.11,550.23,222.19,550.28z"/>
	<path d="M189.86,112.03c0.4-0.51,0.61-1.11,0.3-1.92c-1.52,2.53-3.94,3.54-6.47,4.04c2.35-2.17,5.44-2.71,3.84-5.46   c-1.21,0.3-0.9,1.74-1.92,2.22c-9.41,4.44-8.15,6.91-37.99,6.37c0.1,1.01,0.81,1,1.31,1.01   C153.87,118.39,184.26,120.42,189.86,112.03z"/>
	<path d="M209.86,533.51c2.08,3.1,2.14,2.64,0.71,2.93c-0.64,1.93,2.49,6.61-1.72,16.98c-1.18,2.91-3.27,6.32-3.32,7.65   c3.65-0.68,7.84-16.96,9.29-21.29c-0.3-2.43-1.31-4.85-2.02-7.28c-0.51-1.41-1.31-2.63-2.63-3.23c-0.1,1.31,1.11,2.02,1.21,3.13   C211.18,533.2,210.17,532.8,209.86,533.51z M211.77,536.32c1.09,0.88,2.26,3.53,0.92,3.86   C212.12,538.92,211.64,537.66,211.77,536.32z"/>
	<path d="M205.42,561.09l0.1,0.1C205.52,560.97,205.58,561.09,205.42,561.09z"/>
	<path d="M101.74,75.05c2.69-5.54,4.51-13.44,4.55-13.54c1.84-4.38-0.25-7.96-1.82-11.72c-0.21-0.5-0.61-1.01-1.21-1.31   c-0.4,1.11,0.91,1.82,0.61,2.93c-0.4,0.3-0.81,0.51-1.21,0.81c-0.1,1.11,1.4,1.41,1.31,2.52c-0.48,0.45-1.13,0.62-0.81,2.23   c1.82,6.37-0.69,14.28-3.84,20.01C97.21,80.8,99.02,80.66,101.74,75.05z M106.09,58.47c-0.09,0.09-0.8,0.45-0.91,0.51   c-0.14-0.5-1.06-4.04-1.06-4.14C105.41,55.65,105.89,57.02,106.09,58.47z"/>
	<path d="M98.48,79.64c-0.02,0.02-0.04,0.04-0.07,0.05C98.53,79.82,98.52,79.85,98.48,79.64z"/>
	<path d="M116.49,70.5l0.1,0.1C116.57,70.51,116.58,70.53,116.49,70.5z"/>
	<path d="M115.79,67.37l-0.1,0.1C115.8,67.47,115.75,67.47,115.79,67.37z"/>
	<path d="M222.7,548.56l-0.1,0.1C222.71,548.66,222.7,548.64,222.7,548.56z"/>
	<path d="M183.29,106.07c-11.42-5.56-29.1-8.18-43.25-6.06C175.18,100.01,181.71,109.61,183.29,106.07z"/>
	<path d="M122.25,27.55c1.21-1.62,2.93-3.13,3.44-5.36c-1.21-0.2-1.21-0.2-1.72,0c-1.01-0.1-1.52-1.2-2.53-1.52   c-0.91-0.29-1.72-0.61-2.43-0.91c-1.21-1.11-1.01-3.23-2.83-3.74c-0.52,7.3,1.91,9.68,4.45,14.75c1.31-2.63-1.41-3.64-1.01-5.56   c0.71-0.81,1.31-0.1,1.92,0.3C122.15,26.04,120.74,27.05,122.25,27.55z"/>
	<path d="M229.06,508.55c0.91,0.2,2.63-2.22,3.84-5.36c-0.61-0.91-1.11,0.2-2.12-0.1c-1.11-1.01-2.73-1.92-4.45-2.12   c-1.21-1.41-1.01-3.44-2.93-3.74c1.56,14.83,1.98,6.5,4.04,14.25c2.92,0-0.62-3.37-0.51-5.25c0.61-0.71,1.32-0.21,1.82,0.2   C229.58,507.12,228.36,507.94,229.06,508.55z"/>
	<path d="M290.3,587.67c0-3.08-31.75-9.88-34.15-6.87c4.39,1.25,14.86,0.93,29.3,5.86C286.96,587.18,288.48,588.07,290.3,587.67z"/>
	<path d="M132.66,79.69c-0.75-1.13-3.55,2.38-13.64,7.07c-2.02,3.64-5.86,4.45-8.59,6.87c0,3.22,10.67-6.19,16.77-9.4   C128.49,83.57,133.06,81.09,132.66,79.69z"/>
	<path d="M239.98,560.49c-1.7,0.2,1.81-0.81-13.54,7.38c-2.02,3.54-5.96,4.55-8.99,6.97c1.91,2.15,7.46-4.07,18.49-10.31   c1.22-0.69,2.32-1.62,3.54-2.43C239.78,561.7,240.28,561.4,239.98,560.49z"/>
	<path d="M547.27,42.41c-1.11-0.51-2.22-1.41-3.54-0.4c-0.47,1.42,0.97,1.4,3.23,2.43c0.71,3.55,8.45,5.53,11.92,5.66   c-3.46-2.69-3.24-2.31-5.46-3.54C552.22,43.82,549.49,43.42,547.27,42.41z"/>
	<path d="M98.91,52.01c1.47,0.59,1.43,2.29,2.62,2.68c-0.07-0.57-0.01-1.2-0.19-1.67c-1.01-2.12-1.62-4.45-3.03-6.67   c-0.4,0-0.91,0-1.31-0.2c-0.3,0.71-1.11,0.51-1.62,0.91c-0.3,0.91,0.51,1.31,0.81,2.02c0.2,0.61,0.4,1.21,0.61,1.72   c-0.3,3.44-1.92,6.27-2.73,9.8C95.97,59.57,98.6,52.47,98.91,52.01z"/>
	<path d="M101.54,54.84l0.1-0.1C101.55,54.71,101.49,54.6,101.54,54.84z"/>
	<path d="M201.88,541.29c2.12-2.43,2.83-5.66,4.55-8.29c1.11,0.81,1.11,2.43,2.83,3.03c-3.2-9.61-3.54-8.26-5.37-8.96   c-0.02,0.23-0.07,0.4,0.01,0.58c0.53,0.35,0,0.44,0,0c-0.89,0.36-1.97,0.28-1.01,1.72C206.05,533.5,200.77,539.62,201.88,541.29z"/>
	<path d="M192.69,508.85c0.39-0.62,0.91-1.21,1.52-1.92c0.1-1.01,0.1-2.22,0.2-3.13c-0.61-0.51-1.01-0.4-1.21-0.2   c-2.02,1.61-4.66,7.8-4.14,11.62c1.92-1.72,3.94-3.33,5.86-5.05c-1.41-1.31-2.12,0.51-3.13,0.51   C191.37,509.66,192.37,509.35,192.69,508.85z"/>
	<path d="M86.99,22.7c-1.82-2.28-5.36,6.04-5.36,11.22c0.48,0-0.28,0.69,5.66-4.55c0.1-0.1,0-0.2,0.1-0.4c-0.2-0.1-0.4-0.3-0.61-0.4   c-1.11,0.1-1.62,1.11-2.63,1.41c-0.54-0.54-0.22-0.24,2.63-4.04C86.89,24.82,86.99,23.71,86.99,22.7z"/>
	<path d="M216.84,495.71c-2.12,4.24-1.31,8.49-0.2,12.93c2.62-1.9-0.04-8.22,1.82-13.34C217.44,494.91,217.04,495.21,216.84,495.71z   "/>
	<path d="M77.09,64.03c0,4.3,1.35,19.07,4.35,17.78c0.16-2.24-0.89,0.63-3.54-17.89C77.39,63.63,77.09,63.73,77.09,64.03z"/>
	<path d="M188.64,563.11c-2.02-6.27-2.63-12.73-3.94-19C183.92,549.58,185.23,561.22,188.64,563.11z"/>
	<path d="M87.09,37.35c-2.09,3.26-5.76,11.62-6.27,14.96c3.13-5.86,5.96-11.12,8.99-16.98C87.9,35.54,87.6,36.55,87.09,37.35z"/>
	<path d="M196.73,517.24c0.1-0.2-0.1-0.51-0.1-0.71c-2.26-1.7-11.05,21.18-7.38,14.75C191.88,526.69,194.26,522.02,196.73,517.24z"/>
	<path d="M109.42,14.62c-1.01,2.53-1.92,5.05-1.11,7.88c0.51,1.41,0.1,3.13,1.21,5.05c1.95-3.25,0-6.11,1.41-12.93   C110.94,13.54,109.73,13.85,109.42,14.62z"/>
	<path d="M89.62,43.82c-1.11,2.83-2.43,5.46-3.84,8.08c-0.3,0.3-0.3,0.91-0.51,1.31c0.78-0.78,1.46-1.46,2.22-2.22   c0,0.89,0,1.87,0,3.33C93.45,46.49,89.62,46.36,89.62,43.82z"/>
	<path d="M194.91,534.92c2-2.39,3.01-5.08,3.32-8.07c-1.73,0.16-0.65-1.53-1.71-1.93c-3.04,7.9-2.85,6.33-2.93,7.38   C196.58,531.55,193.89,533.79,194.91,534.92z"/>
	<path d="M199.05,525.32c-0.7,1.44-0.77,1.33-0.77,1.54c1.31,0.44,1.36,3.4,2.89,4.93C200.97,529.47,200.47,527.44,199.05,525.32z"/>
	<path d="M220.47,534.82c0.17,2.08,1.62,1.65,1.62,9.8C225.72,542.81,223.96,534.63,220.47,534.82z"/>
	<path d="M238.16,566.85c-3.5,3.38-8.58,6.01-13.34,8.39C228.17,575.66,241.07,568.31,238.16,566.85z"/>
	<path d="M607.9,71.21c17.83,3.96,15.99,0.47-0.81-1.31C607.29,70.8,607.49,71.12,607.9,71.21z"/>
	<path d="M215.22,535.43c0,1.05,1.72,2.27,4.14,9.09C221.2,541.77,216.81,533.05,215.22,535.43z"/>
	<path d="M113.16,54.03c1.31,2.83,1.92,5.86,1.82,8.99C117.81,62.59,117.36,53.06,113.16,54.03z"/>
	<path d="M112.15,64.44c1.34-4.51-1.48-9.8-3.54-10.41c-0.2-0.1-0.4,0.2-0.81,0.4C108.39,56.92,108.57,54.22,112.15,64.44z"/>
	<path d="M151.26,60.29c-3.13,1.11-5.96,2.12-9.2,3.23c1.52,1.74,7.09-0.73,8.99-1.82C151.36,61.61,151.56,61.2,151.26,60.29z"/>
	<path d="M251.7,545.33c2.51-0.77,5.25-1.11,7.68-3.54c-3.94,0.61-6.77,1.52-9.6,3.13C250.28,545.84,251.09,545.52,251.7,545.33z"/>
	<path d="M760.08,54.23c0.3,0,0.51-0.4,1.11-1.11c-3.03-1.11-5.46,0.61-7.98,0.2C752.85,55.49,757.96,54.84,760.08,54.23z"/>
	<path d="M193.9,513.7c-2.53,0.61-2.53,0.71-4.24,5.66C191.15,517.44,189.89,518.71,193.9,513.7z"/>
	<path d="M247.46,580.9c3.13,0.71,5.86,0.61,8.79,0C253.32,580.9,250.39,580.9,247.46,580.9z"/>
	<path d="M608.91,41.9c-2.43-0.51-2.43-0.51-5.56,0.91C605.78,43.22,605.78,43.22,608.91,41.9z"/>
	<path d="M99.62,56.96c-0.91,1.82-2.02,3.54-1.92,5.56C98.91,60.9,99.82,59.08,99.62,56.96z"/>
	<path d="M91.74,44.63c-0.1,1.82,0.81,3.23,1.52,4.85C93.66,47.56,93.66,47.46,91.74,44.63z"/>
	<path d="M86.58,32.71c-0.81-0.61-1.21-0.2-1.52,0.1c-1.19,1.14-2.22,2.32-2.22,3.94C84.56,35.84,85.27,34.02,86.58,32.71z"/>
	<path d="M191.78,564.13c-0.3,1.72-0.51,3.13,0.61,4.85C192.89,567.16,192.59,565.84,191.78,564.13z"/>
	<path d="M84.97,82.22c-0.61,1.82-0.61,3.64-0.1,5.36C85.47,85.76,85.07,84.04,84.97,82.22z"/>
	<path d="M640.94,75.65c-2.43-0.81-4.04-1.01-6.16-0.1C636.9,76.06,638.52,75.96,640.94,75.65z"/>
	<path d="M206.73,538.05c-0.61,1.82-1.52,2.93-1.41,4.45C206.63,541.49,207.14,540.18,206.73,538.05z"/>
	<path d="M255.03,583.53c0-0.16,1.02-0.1-3.23-0.1C251.8,583.57,251.44,583.53,255.03,583.53z"/>
	<path d="M262.21,584.23c-1.21,0-2.53,0-3.74,0C259.78,584.54,261,584.64,262.21,584.23z"/>
	<path d="M147.92,102.94c3.83,0,3.44,0.07,3.44-0.2C147.04,102.73,147.92,102.65,147.92,102.94z"/>
	<path d="M594.86,52.01c-2.7-0.34-4.19,1.21-3.13,1.21C592.84,53.42,594.05,53.62,594.86,52.01z"/>
	<path d="M158.03,103.64c-1.31-0.3-2.32-0.51-3.54,0C155.7,103.85,156.61,103.95,158.03,103.64z"/>
	<path d="M576.37,46.95c1.41,0.2,1.41,0.2,2.22-1.41C576.88,45.14,576.98,46.35,576.37,46.95z"/>
	<path d="M265.64,585.24c0.08,0,0.71,0,1.41,0C266.35,584.44,265.54,585.14,265.64,585.24z"/>
	<path d="M589.91,77.47c0.71,1.11,1.21,1.21,2.12,0.81C591.43,77.17,590.72,77.88,589.91,77.47z"/>
	<path d="M95.68,44.02c0,1.21,0.51,1.72,1.21,2.22C96.69,45.54,96.49,44.83,95.68,44.02z"/>
	<path d="M598.91,70.6c1.31,0.81,2.02,0.91,2.63,0.3C601.03,70.2,600.32,70.5,598.91,70.6z"/>
	<path d="M584.56,53.42c0.71,0.81,1.31,0.4,1.92,0.4C585.97,52.71,585.26,53.42,584.56,53.42z"/>
	<path d="M324.86,594.04c0,0.81,0.4,1.41,1.01,1.82C325.87,594.95,325.87,594.95,324.86,594.04z"/>
	<path d="M207.84,527.75c0.81,1.11,1.31,1.52,2.22,1.52C209.97,528.25,209.36,527.85,207.84,527.75z"/>
	<path d="M193.7,532.4c-0.95,0.38-1.27,1.21-1.48,2.15C193.14,534.13,193.7,533.45,193.7,532.4z"/>
	<path d="M192.08,534.82c0.1-0.1,0.11-0.08,0.14-0.27C191.91,534.67,192.23,534.55,192.08,534.82z"/>
	<path d="M533.43,446.91c0-0.91,0-0.91-0.91-2.02C532.41,445.8,532.92,446.3,533.43,446.91z"/>
	<path d="M159.95,104.45c0.91,0.1,1.72,0.2,2.43,0.4C161.87,103.95,161.06,103.95,159.95,104.45z"/>
	<path d="M648.22,76.36c0.71,0,1.01,0,1.41,0C649.23,75.85,648.92,76.06,648.22,76.36z"/>
	<path d="M435.81,26.34c-0.51-0.3-0.91-0.4-1.41-0.1C434.9,26.85,435.31,26.64,435.81,26.34z"/>
	<path d="M166.96,106.25c0.02,0.05,0.04,0.07,0.06,0.12C167.17,106.22,167.14,106.29,166.96,106.25z"/>
	<path d="M164.9,105.56c0.19-0.19-0.28,0.47,2.06,0.69c-0.5-1.09-2.28-0.47-1.96-0.79C164.75,105.46,164.77,105.4,164.9,105.56z"/>
	<path d="M271.14,586.31c0.59,0.64,1.32,0.58,1.98,0.86C272.85,585.97,271.92,586.44,271.14,586.31z"/>
	<path d="M94.39,105.53c0.03,0.04,0.06,0.08,0.08,0.13C94.6,105.53,94.62,105.57,94.39,105.53z"/>
	<path d="M92.24,104.75c0.46,0.94,1.36,0.67,2.14,0.78C93.87,104.66,93.01,104.65,92.24,104.75z"/>
	<path d="M277.26,588.59c0-0.01-0.04-0.01-0.15-0.03c0.02,0.04,0.04,0.07,0.06,0.12c0.01-0.01,0.01-0.01,0.02-0.02   c-0.02,0.03,0.04,0.01,0.22,0.04C277.35,588.66,277.31,588.63,277.26,588.59C277.26,588.58,277.26,588.58,277.26,588.59z"/>
	<path d="M162.47,104.75c0.66,0.56,1.5,0.68,2.33,0.7C164.1,104.6,163.15,104.95,162.47,104.75z"/>
	<path d="M269.18,585.95c0.64,0.09,1.19,0.11,1.74,0.18C270.51,585.53,269.94,585.39,269.18,585.95z"/>
	<path d="M271.14,586.31c-0.1-0.1-0.14-0.05-0.04-0.15c-0.25-0.04-0.18-0.04-0.14,0.04C270.86,586.3,270.86,586.27,271.14,586.31z"/>
	<path d="M101.03,46.65c0,1.11,0.61,1.11,1.31,1.11C102.35,46.95,101.84,46.75,101.03,46.65z"/>
	<path d="M169.44,107.08c0.23,0.05,0.15,0.02,0.1-0.1C169.25,106.94,169.31,106.94,169.44,107.08z"/>
	<path d="M169.32,106.96c-0.61-0.58-1.45-0.6-2.2-0.69C167.68,107.01,168.48,106.91,169.32,106.96z"/>
	<path d="M273.36,587.15c-0.05-0.03-0.1-0.05-0.14-0.09C273.07,587.22,273.09,587.15,273.36,587.15z"/>
	<path d="M273.36,587.15c0.67,0.52,1.42,0.63,2.18,0.72C274.99,586.95,274.19,587.12,273.36,587.15z"/>
	<path d="M742.5,66.86c-0.4-0.3-0.81-0.4-1.31,0C741.59,67.37,742.09,67.37,742.5,66.86z"/>
	<path d="M95.88,106.07c0-0.1,0.1-0.1,0.1-0.2C95.13,105.72,93.33,105.05,95.88,106.07z"/>
	<path d="M208.65,588.48c-0.81-0.61-1.21-0.1-1.82,0C207.34,588.48,207.94,588.48,208.65,588.48z"/>
	<path d="M275.65,587.77l-0.1,0.1C275.81,587.92,275.7,587.9,275.65,587.77z"/>
	<path d="M277.1,588.55c-0.29-0.6-0.86-0.6-1.38-0.66C276.02,588.42,276.58,588.48,277.1,588.55z"/>
	<path d="M296.66,593.22c-2.07,0.41-1.6,0.82-3.03,0.82c-0.82,0,1.82-2,1.82-3.94c0,0.2-0.3-0.1-0.81-0.4   c-0.2,0.1-0.71,0.2-0.71,0.2c0,0.77-0.07,1.75-1.82,2.63c-8.6,4.35-12.24,6.34-35.06,6.16c-14.27-0.11,25.66,4.79,37.99-3.65   C295.96,594.53,296.66,594.23,296.66,593.22C296.67,593.23,296.67,593.23,296.66,593.22c0.61-0.09,0.81-0.29,0.51-0.9   C296.57,592.42,296.57,592.82,296.66,593.22z M291.73,595c-1.44,0.66-0.72-0.41-0.64-0.07C291.1,595.05,292.53,594.63,291.73,595z    M292.12,594.83c0.11-0.9,0.81-0.9,1.41-0.8C293.29,594.78,292.85,594.74,292.12,594.83z"/>
	<path d="M203.09,525.32c0,0.56,0.11,1.11,0.68,1.52C203.71,526.28,203.72,525.69,203.09,525.32z"/>
	<path d="M203.77,526.84c0.04,0.25,0.04,0.2,0.12,0.23C203.89,526.97,203.95,526.95,203.77,526.84z"/>
	<path d="M301.42,593.93c0.58,0,1.14-0.01,1.55-0.53C302.25,593.28,301.79,593.47,301.42,593.93z"/>
	<path d="M226.51,562.09c-0.74-0.09-1.29-0.04-1.49,0.72C225.61,562.71,226.28,562.79,226.51,562.09z"/>
	<path d="M224.72,562.91c-0.1,0.2,0.1,0.1,0.3,0C224.89,562.91,224.79,562.91,224.72,562.91z"/>
	<path d="M429.42,24.42c0.33,0.49,0.96,0.53,1.33,0.81C430.58,24.49,430.05,24.43,429.42,24.42z"/>
	<path d="M429.24,24.42c0.06,0,0.12,0,0.18,0C429.35,24.27,429.34,24.32,429.24,24.42z"/>
	<path d="M205.22,543.41c0-0.3,0.1-0.61,0.2-0.91C204.91,542.7,204.91,543.01,205.22,543.41z"/>
	<path d="M431.19,25.33c-0.01,0-0.01,0-0.03,0C431.24,25.37,431.23,25.36,431.19,25.33z"/>
	<path d="M431.16,25.31c0.02,0.01,0.02,0.01,0.03,0.02C431.23,25.33,431.22,25.32,431.16,25.31z"/>
	<path d="M431.16,25.3c-0.07-0.05-0.2-0.12-0.3-0.17C430.96,25.22,431.09,25.27,431.16,25.3z"/>
	<path d="M111.75,75.65c-0.91,0.2-0.61,0.71-0.81,1.01C111.14,76.36,111.34,76.16,111.75,75.65z"/>
	<path d="M201.78,586.46c-0.4-0.1-0.81-0.1-1.01-0.2C200.97,586.66,201.28,587.06,201.78,586.46z"/>
	<path d="M187.94,533.41c0.1-0.51,0.2-0.81,0.3-1.01C188.04,532.7,187.63,532.9,187.94,533.41z"/>
	<path d="M204.81,587.37h-0.2C204.61,587.5,204.56,587.49,204.81,587.37z"/>
	<path d="M117.28,94.53c0.58-0.07,1.26-0.05,1.54-0.69C118.16,93.84,117.6,93.96,117.28,94.53z"/>
	<path d="M530.89,442.64c-0.04,0.7,0.15,1.17,0.62,1.64C531.6,443.61,531.49,443.04,530.89,442.64z"/>
	<path d="M530.75,442.4c0.04,0.11,0.05,0.2,0.14,0.24C530.93,442.43,530.88,442.46,530.75,442.4z"/>
	<path d="M166.01,39.78c-0.39,0.39-0.1,0.37-0.1,0.61C166.33,39.96,166.2,39.97,166.01,39.78z"/>
	<path d="M82.74,37.86c0-0.4,0-0.81,0.2-1.01C82.54,37.05,82.14,37.25,82.74,37.86z"/>
	<path d="M741.59,53.42c-0.53,0.13-0.35,0.3,0.2,0.3C741.93,53.72,741.98,53.42,741.59,53.42z"/>
	<path d="M272.92,521.18c0,0.1-0.1,0.2-0.1,0.3s0.1,0.2,0.1,0.3C273.28,521.43,273.07,521.33,272.92,521.18z"/>
	<path d="M99.52,106.67h-0.3C99.22,106.81,99.15,106.8,99.52,106.67z"/>
	<path d="M171.97,108.19c-0.25-0.06-0.46-0.13-0.64-0.19C171.47,108.17,171.62,108.33,171.97,108.19z"/>
	<path d="M171.33,108c-0.06-0.08-0.11-0.15-0.17-0.21c-0.05-0.01-0.11-0.01-0.16-0.02c0.05,0.1,0.05,0.12,0.08,0.1   C171.06,107.9,171.11,107.91,171.33,108z"/>
	<path d="M169.61,107.1c0.3,0.61,0.87,0.61,1.39,0.67C170.7,107.16,170.13,107.16,169.61,107.1z"/>
	<path d="M85.07,53.42c0.1,0,0.2-0.1,0.3-0.1C85.17,53.22,85.07,53.32,85.07,53.42z"/>
	<path d="M101.84,55.04c-0.1-0.1-0.1-0.2-0.2-0.3C101.64,54.94,101.74,54.94,101.84,55.04z"/>
	<path d="M205.42,561.3C205.42,561.09,205.01,561.6,205.42,561.3L205.42,561.3z"/>
	<path d="M214.01,557.46c0.13-0.26,0.16-0.23-0.1-0.1L214.01,557.46z"/>
	<path d="M218.55,556.55c0.2,0,0.3-0.1,0.3-0.1S218.66,556.45,218.55,556.55z"/>
	<path d="M301.42,594.04v-0.1C301.29,594.19,301.27,594.18,301.42,594.04z"/>
	<path d="M303.03,593.34c0,0-0.01,0-0.01,0.01c-0.06-0.12-0.13,0.07-0.01,0.07l0.02,0.02c0,0,0,0,0-0.01   C303.15,593.43,303.17,593.48,303.03,593.34z"/>
	<path d="M303.01,593.31c0.45-0.11,0.73-0.31,0.73-0.79C303.17,592.52,302.89,592.71,303.01,593.31z"/>
	<path d="M323.95,593.13c0.51,0.94,1.52,1.52,0.1,0.1L323.95,593.13z"/>
	<path d="M313.95,591.71C313.84,591.81,314.25,592.12,313.95,591.71L313.95,591.71z"/>
	<path d="M313.84,591.81c-0.2-0.4-0.4-0.71-0.61-0.91C313,591.14,313.2,590.85,313.84,591.81z"/>
	<path d="M313.14,590.9l0.1-0.1C313.08,590.8,312.74,590.68,313.14,590.9z"/>
	<path d="M312.43,589.99c0,0.5,0.19,0.65,0.51,0.77C312.55,590.42,312.49,590.21,312.43,589.99z"/>
	<path d="M279.54,589.34c0.22,0.22,0.16,0.17,0.05-0.05c-0.06,0-0.14,0-0.2,0c-0.55-0.54-1.29-0.53-1.99-0.59   c0.55,0.53,1.28,0.58,1.99,0.59c0,0-0.01,0-0.01,0C279.53,589.4,279.44,589.44,279.54,589.34z"/>
	<path d="M205.86,109.93c-0.16-0.18-0.27-0.35-0.34-0.63C205.52,109.56,205.66,109.78,205.86,109.93z"/>
	<path d="M205.86,109.93c0.22,0.29,0.26,0.18,0.16,0.28C207.56,111.74,206.55,110.43,205.86,109.93z"/>
	<path d="M216.13,111.63l0.1,0.1C216.37,111.59,216.38,111.63,216.13,111.63z"/>
	<path d="M207.04,111.12l-0.1-0.2C206.8,111.05,206.78,110.99,207.04,111.12z"/>
	<path d="M217.04,112.54l0.1-0.1C215.74,111.03,216.48,111.69,217.04,112.54z"/>
	<path d="M217.95,113.34c0.06-0.06,0.1-0.09,0.12-0.1c-0.28-0.23-0.6-0.48-0.92-0.81C217.34,112.84,217.65,113.04,217.95,113.34z"/>
	<path d="M218.06,113.24c0.01,0,0.01,0.01,0.02,0.01C218.08,113.24,218.08,113.24,218.06,113.24z"/>
	<path d="M218.96,114.96c0.18-0.8-0.25-1.19-0.88-1.7C218.07,113.4,217.53,114.48,218.96,114.96z"/>
	<path d="M97.8,62.62c-0.14,0-0.18,0.05-0.22,0.08C97.65,62.67,97.73,62.62,97.8,62.62z"/>
	<path d="M224.92,575.34C224.92,575.24,224.62,575.65,224.92,575.34L224.92,575.34z"/>
	<path d="M559.09,50.29c0-0.1-0.1-0.2-0.1-0.3C558.99,50.19,558.99,50.29,559.09,50.29z"/>
	<path d="M189.15,515.32c-0.13-0.13-0.07-0.13-0.2,0H189.15z"/>
	<path d="M202.79,525.12c0,0,0.1,0.2,0.2,0.3C202.99,525.22,202.89,525.12,202.79,525.12z"/>
	<path d="M102.46,47.78c0.03,0.52,0.23,0.79,0.7,0.79C103.07,48.11,102.87,47.83,102.46,47.78z"/>
	<path d="M102.35,47.76c0.16,0,0.1,0.09,0.1-0.1L102.35,47.76z"/>
	<path d="M71.08,30.69c-0.2,0-0.41,0-0.62,0C70.65,31.07,70.9,31.13,71.08,30.69z"/>
	<path d="M98.51,79.8c-0.1,0.1-0.3,0.2-0.3,0.2C98.31,80,98.41,79.9,98.51,79.8z"/>
	<path d="M532.41,444.99l0.1-0.1C532.36,444.92,532.37,444.82,532.41,444.99z"/>
	<path d="M532.38,444.89c-0.1-0.39-0.29-0.64-0.75-0.61C531.74,444.61,531.94,444.9,532.38,444.89z"/>
	<path d="M531.64,444.28c-0.01-0.03-0.02-0.07-0.03-0.1C531.48,444.3,531.47,444.28,531.64,444.28z"/>
	<path d="M223.3,497.33c0-0.3-0.1-0.4-0.3-0.3C223,497.39,223.3,497.12,223.3,497.33z"/>
	<path d="M394.38,500.06c0-0.13,0.02-0.1-0.1-0.1L394.38,500.06z"/>
	<path d="M313.54,536.54l-0.1,0.1C313.69,536.6,313.69,536.69,313.54,536.54z"/>
	<path d="M78.4,106.27l-0.1,0.1C78.55,106.37,78.46,106.39,78.4,106.27z"/>
	<path d="M118.72,94.35c0.04-0.16,0.13-0.05-0.1-0.1L118.72,94.35z"/>
	<path d="M117.2,94.65c0.05-0.12,0.19-0.15-0.1-0.1L117.2,94.65z"/>
	<path d="M115.48,69.59c0,0,0.01,0.01,0,0.02C115.51,69.66,115.67,69.78,115.48,69.59z"/>
	<path d="M115.69,69.69l0.1,0.1C115.76,69.75,115.8,69.73,115.69,69.69z"/>
	<path d="M226.74,554.32c-0.01-0.03-0.02-0.06-0.03-0.09C226.58,554.17,226.66,554.25,226.74,554.32z"/>
	<path d="M482.9,380.82c0,0,0.73-0.2,1.11-0.2c-5.09-11.28-3.77-13.9-6.54-17.25C476.14,362.04,480.13,379.24,482.9,380.82z"/>
	<path d="M475.26,235.63c-0.04,1.77,1.18,6.38,1.78,4.51c0.13-0.39-0.04-1.94-0.4-3.21c-1.68-5.89,0.67-6.75-1.11-12.93   c-0.1-0.61-0.3-1.11-1.52-1.21c-0.17,4.29,1.66,7.97,1.63,10.2C475.62,234.14,475.29,234.28,475.26,235.63z"/>
	<path d="M452.28,377.49c-2.14,4.49-5.05,8.48-5.56,13.64c1.79-1.08,1.26-2.02,4.55-8.39C452.84,379.71,454.53,378.05,452.28,377.49   z"/>
	<path d="M447.43,181.65c0,0.81-0.1,1.41,0.81,1.82c1,0,3.67-1.31,3.83-3.44C452.07,179.79,449.34,179.4,447.43,181.65z"/>
	<path d="M463.7,335.35c-0.3-3.44,0.91-6.87,0.4-10.41c-0.01,0.1-2.1,9.42-0.71,11.52C463.5,335.96,463.7,335.65,463.7,335.35z"/>
	<path d="M452.59,372.74c0.4-2.43-0.3-3.94-0.71-5.46c-0.76-0.1-1.01,0.23-1.01,0.88C450.96,369.66,450.8,371.24,452.59,372.74z"/>
	<path d="M475.42,353.03c-1.01,1.72-0.97,1.81-0.81,3.33c0.13,1.21,0.4,2.53,1.31,3.84C476.41,357.47,474.93,355.43,475.42,353.03z"/>
	<path d="M465.12,301.4c-0.91,2.32-0.71,3.84,0,5.25C465.12,305.14,465.12,303.62,465.12,301.4z"/>
	<path d="M477.86,255.33c-0.32,0.97,0.43,1.45,1.1,2.31C479.15,256.49,478.99,255.89,477.86,255.33z"/>
	<path d="M463.7,400.53c0-1.21,0.26-2.18-0.71-3.04C462.99,397.39,462.53,399.57,463.7,400.53z"/>
	<path d="M462.9,397.38c0.03,0.04,0.05,0.08,0.09,0.11C462.99,397.25,463.02,397.27,462.9,397.38z"/>
	<path d="M464.71,404.47c0.2-0.27,0.28-0.51,0.29-0.7C465.02,403.53,464.26,401.86,464.71,404.47z"/>
	<path d="M463.8,400.43c-0.17,0.17-0.13,0.09-0.02,0.16C463.79,400.57,463.8,400.43,463.8,400.43z"/>
	<path d="M463.8,400.61c0-0.26-0.43,1.4,0.61,2.17C464.45,401.89,464.6,401.17,463.8,400.61z"/>
	<path d="M464.41,402.94c0.09-0.09,0.15,0.07,0.1-0.09C464.39,402.79,464.41,402.64,464.41,402.94z"/>
	<path d="M478.03,249.36c-0.14-0.21-0.34-0.74,0.02,0.71C478.23,249.77,478.18,249.58,478.03,249.36z"/>
	<path d="M477.65,249.15l0.1-0.1C477.62,249.01,477.69,248.99,477.65,249.15z"/>
	<path d="M477.17,248.64c0.62,1.25,0.98-1.1-0.22-1.1C476.95,247.64,477.01,248.36,477.17,248.64z"/>
	<path d="M462.76,397.2c-0.17-0.34-0.3,0.19,0.12,0.19C462.88,397.35,462.87,397.42,462.76,397.2z"/>
	<path d="M421.26,507.13c3-0.68,4.18-0.19,7.67,0.05c10.71,0.75,11.81-0.16-4.03-1.97c-2.12-0.24-4.14,0.51-6.06,1.01   c-0.27,0.09-0.36,0.4-0.71,0.91C419.24,507.74,420.25,507.36,421.26,507.13z"/>
	<path d="M354.78,524.1c0.52-0.26-4.66-0.26-6.78,0.11c-2.12,0.51-4.24-0.7-6.47-0.2C341.53,526.39,349.16,526.95,354.78,524.1z"/>
	<path d="M408.93,507.84c-4.93-3.03-4.2-2.87-6.74-5.43c-0.14-0.14-1.33,0.44-0.54,1.49C404.81,508.05,409.89,508.8,408.93,507.84z"/>
	<path d="M457.23,523c1.11-0.3,2.22-0.61,2.93-1.52c0.1,0,0-0.1,0-0.81c-3.51,1.48-4.95,2.1-6.27,2.63   C455.23,523.88,456.2,523.35,457.23,523z"/>
	<path d="M400.43,539.06c1.6-0.93,3.22-1.69,4.36-3.12C402.77,536.03,402.57,536.24,400.43,539.06z"/>
	<path d="M413.48,512.69c-0.9-2.77-1.65-3.62-4.35-4.55C410.04,510.06,411.86,510.97,413.48,512.69z"/>
	<path d="M446.52,508.04c0.1,0,0.1-0.1,0.4-0.4c-2.95,0-4.99-0.81-7.17,0.81C440.61,508.61,439.84,509.1,446.52,508.04z"/>
	<path d="M400.55,524.21c0.29-0.28,1.31-1.04,1.31-1.82c-2.12,0.51-2.43,0.81-2.93,3.74c0.01-0.01,0.01-0.01,0.02-0.01   C400.04,525.91,400.04,524.82,400.55,524.21z"/>
	<path d="M419.73,519.66c-0.22-1.62-0.56-2.47-2.12-3.44C418,517.8,418.37,518.81,419.73,519.66z"/>
	<path d="M385.99,533.71c0.35,0.47,0.92,0.09,0.92-0.19C386.82,532.85,385.99,533.03,385.99,533.71z"/>
	<path d="M398.93,526.13c-0.91,0.1-1.31,0.81-1.62,1.52C398.9,527.51,398.64,527.3,398.93,526.13z"/>
	<path d="M399.03,542.6c-0.3,0-0.71,0.1-1.11,0.1C398.52,543.41,398.73,543.01,399.03,542.6z"/>
	<path d="M454.3,507.74v0.2C454.7,507.81,454.69,507.87,454.3,507.74z"/>
	<path d="M437.12,507.44c0.07,0.04,0.27,0.14,0.33,0.19C437.58,507.63,437.23,507.5,437.12,507.44z"/>
	<path d="M437.49,507.66c-0.01-0.01-0.03-0.01-0.04-0.03C437.39,507.63,437.52,507.69,437.49,507.66z"/>
	<path d="M392.06,501.88h-0.1C392.09,502.15,392.06,502.12,392.06,501.88z"/>
	<path d="M387.43,536.15c0.24-0.11,0.38-0.29,0.46-0.58C387.66,535.67,386.88,536.4,387.43,536.15z"/>
	<path d="M388.01,535.53c0.14-0.14,0.15-0.13-0.1,0C387.87,535.62,387.91,535.55,388.01,535.53z"/>
	<path d="M391.85,501.88c-0.01,0.04-0.06,0.12-0.02,0.12C392.02,502,391.95,501.98,391.85,501.88z"/>
	<path d="M391.75,502.18c0.15-0.36-0.41-0.1-0.71,0.51C391.38,502.69,391.63,502.48,391.75,502.18z"/>
	<path d="M394.08,531.79c0.13-0.13,0.06-0.06,0.3-0.3C394.14,531.61,394.21,531.54,394.08,531.79z"/>
	<path d="M397.32,527.87c0.03-0.04,0.06-0.09,0.09-0.12C397.35,527.75,397.33,527.8,397.32,527.87z"/>
	<path d="M397.32,527.87c-0.02,0.02-0.14,0.21-0.21,0.28C397.35,528.15,397.3,527.97,397.32,527.87z"/>
	<path d="M398.93,542.5c0.25-0.17,0.25-0.15,0.51-0.4C398.83,541.89,399.03,542.4,398.93,542.5z"/>
	<path d="M394.06,499.83c0.07-0.03,0.15-0.1,0.22-0.17C394.21,499.66,394.13,499.77,394.06,499.83z"/>
	<path d="M387.05,536.41c0.37-0.11,0.28-0.06,0.09-0.06C387.01,536.36,386.74,536.47,387.05,536.41z"/>
	<path d="M400.44,570.59c-1.4,0.2-2.9-0.15-4.13,0.32c-2,0.77-3.01,3.4,8.78,1.5C403.58,570.49,401.96,570.38,400.44,570.59z"/>
	<path d="M290.91,566.65c1.93,1.22,3.9,0.95,7.48,0.51C296.36,565.94,294.24,565.74,290.91,566.65z"/>
	<path d="M322.74,575.85c3.13,0.71,5.46,0.61,7.98-0.3C328.8,574.43,326.37,574.53,322.74,575.85z"/>
	<path d="M305.66,565.54c0.57,0.76,1.08,0.55,1.92,0.2C306.87,565.24,306.87,565.24,305.66,565.54z"/>
	<path d="M377.4,562.51c1.01,0.71,1.62,0.3,2.32,0C379.01,561.79,378.28,562.01,377.4,562.51z"/>
	<path d="M407.52,572.41c0.51,0.51,0.51,0.51,1.31,0.1C408.43,572.11,408.02,572.11,407.52,572.41z"/>
	<path d="M340.52,573.62c0.2,0,0.3-0.2,0.51-0.3C340.41,572.71,339.79,573.62,340.52,573.62z"/>
	<path d="M313.02,536.32c-0.01-0.05-0.01-0.1-0.02-0.14C312.82,535.53,311.55,536.11,313.02,536.32z"/>
	<path d="M313.04,536.44l0.1-0.1C312.97,536.25,313.04,536.34,313.04,536.44z"/>
	<path d="M487.56,532.7c-15.79-17.44-14.62-19.08-16.37-19.3c-0.24,0.24-0.4,0.29-0.4,0.52c0.39,1.71,0.71,3.51,2,4.92   c0,0.1,15.8,17.71,17.5,17.5C489.98,534.72,488.57,533.81,487.56,532.7z"/>
	<path d="M480.68,535.53c-3.84-5.63-2.68-5.18-4.55-7.98c-2.96,1.24,10.3,19.18,10.24,16.2   C486.35,542.93,483.98,540.37,480.68,535.53z"/>
	<path d="M469.36,515.32c-0.61,2.53-0.3,4.85,1.11,7.07C470.77,517.64,470.67,516.94,469.36,515.32z"/>
	<path d="M486.34,544.12c0.19,1.82,1.75,2.65,2.86,3.68C488.9,546.33,487.96,544.93,486.34,544.12z"/>
	<path d="M489.27,548.06l0.1-0.1C489.1,547.64,489.22,547.85,489.27,548.06z"/>
	<path d="M500.38,545.63c0.14-0.14,0.15-0.08-0.02-0.12C500.19,545.47,500.22,545.47,500.38,545.63z"/>
	<path d="M500.24,545.49c-0.74-0.69-1.52-1.67-2.61-1.98C497.1,543.4,498.84,545.28,500.24,545.49z"/>
	<path d="M497.15,543.41c0.42,0.07,0.37,0.11,0.23-0.07C497.16,543.12,497.32,543.31,497.15,543.41z"/>
	<path d="M468.65,526.23c0,2.54-0.07,2.22,0.2,2.22C468.85,525.91,468.93,526.23,468.65,526.23z"/>
	<path d="M467.74,521.18c0.71-1.31,0.4-2.02,0.4-3.03C467.54,519.16,467.95,519.87,467.74,521.18z"/>
	<path d="M470.77,524.62c0.12,0.84-0.31,2.1,0.63,2.95C471.51,526.51,471.73,525.47,470.77,524.62z"/>
	<path d="M471.48,527.65c-0.03-0.03-0.05-0.05-0.08-0.08C471.4,527.73,471.31,527.82,471.48,527.65z"/>
	<path d="M472.32,529.54c0.15,1.5,0.66,2.11,0.66,1.82C472.98,531.6,473.2,529.98,472.32,529.54z"/>
	<path d="M472.31,529.55c0-0.03-0.02-0.17-0.02-0.18C472.14,529.52,472.17,529.44,472.31,529.55z"/>
	<path d="M473,531.69c0.06-0.06,0.06-0.06,0.1-0.1C472.97,531.46,472.96,531.39,473,531.69z"/>
	<path d="M471.58,527.64c0.06,0.45,0.28,1.09,0.64,1.46C472.13,528.56,472.19,527.99,471.58,527.64z"/>
	<path d="M472.29,529.36c0.03-0.03,0.07-0.07,0.1-0.1C472.29,529.19,472.1,528.9,472.29,529.36z"/>
	<path d="M473.8,533.09c-0.07-0.15,0.08-0.86-0.35-1.2C472.63,531.27,473.8,533.44,473.8,533.09z"/>
	<path d="M473.13,531.74c0,0-0.03-0.14-0.03-0.15C472.99,531.74,472.93,531.69,473.13,531.74z"/>
	<path d="M495.94,555.23l-0.1-0.2C495.7,555.16,495.68,555.11,495.94,555.23z"/>
	<path d="M495.82,554.92c-0.42-0.28-0.93-0.87-0.91-0.8c-0.01-0.01-0.07,0-0.2,0l0.1,0.1c0.07-0.07,0.11-0.09,0.09-0.1   c0.01,0.02,0.06,0.1,0.2,0.28C495.7,555.19,495.74,555.02,495.82,554.92z"/>
	<path d="M490.98,537.15c0.13-0.11,0.13-0.1-0.01-0.1C490.97,537.08,490.98,537.1,490.98,537.15z"/>
	<path d="M490.28,536.34c0,0.57,0.19,0.77,0.69,0.71C490.95,536.56,490.8,536.34,490.28,536.34z"/>
	<path d="M473.81,533.1C473.91,533.31,474.11,533.51,473.81,533.1L473.81,533.1z"/>
	<path d="M470.57,524.41c0,0.1,0.1,0.2,0.1,0.3C470.75,524.6,470.72,524.41,470.57,524.41z"/>
	<path d="M491.99,550.48c-0.04-0.1-0.02-0.05-0.1-0.2C491.89,550.41,491.87,550.36,491.99,550.48z"/>
	<path d="M491.36,549.91c0.43,0.52,0.42,0.49,0.54,0.37C491.55,550.06,490.65,549.05,491.36,549.91z"/>
	<path d="M490.38,548.77c-1.17-1.17-1.45-1.14,0.61,0.92C490.73,548.93,490.2,548.94,490.38,548.77z"/>
	<path d="M496.75,542.61c-0.44-0.22-0.12,0.25,0.47,0.62C497.19,543,497.06,542.78,496.75,542.61z"/>
	<path d="M495.81,541.91c0.12,0.33,0.64,0.82,0.59,0.54C496.25,541.91,495.73,541.75,495.81,541.91z"/>
	<path d="M495.73,541.69c-0.03,0.03-0.07,0.07-0.1,0.1C495.9,541.88,495.73,541.82,495.73,541.69z"/>
	<path d="M495.58,541.64c-0.13-0.33-0.53-0.73-0.53-0.55C495.16,541.56,495.74,542.03,495.58,541.64z"/>
	<path d="M495,541.02c0.08,0.04,0.03,0.02,0.03-0.13c-0.06,0.06-0.07,0.09-0.14,0.06C494.92,541.12,494.89,541.12,495,541.02z"/>
	<path d="M494.84,540.83c-0.18-0.53-0.61-0.75-0.61-0.55C494.29,540.76,494.91,541.1,494.84,540.83z"/>
	<path d="M493.31,539.48c0.19,0.03,0.15,0.09,0.1-0.11C493.37,539.41,493.4,539.38,493.31,539.48z"/>
	<path d="M493.46,539.52c0.1,0.3,0.83,1.14,0.57,0.52C493.9,539.73,493.71,539.61,493.46,539.52z"/>
	<path d="M492.55,538.52c0.01,0.01,0.02,0.06,0.02,0.07l-0.08,0.08c0.26,0.04,0.02,0.08,0.21-0.11   C492.68,538.56,492.57,538.53,492.55,538.52z"/>
	<path d="M492.65,538.71c0.16,0.51,0.81,1.07,0.58,0.52C493.09,538.9,492.89,538.8,492.65,538.71z"/>
	<path d="M491.92,537.9c0.06,0.37,0.42,0.62,0.63,0.62C492.39,538.03,491.87,537.57,491.92,537.9z"/>
	<path d="M491.64,537.43c-0.13-0.19-0.54-0.51-0.54-0.26C491.17,537.87,492.1,538.12,491.64,537.43z"/>
	<path d="M491.88,537.86c-0.03,0-0.07-0.01-0.12-0.01C491.76,538.01,491.78,537.97,491.88,537.86z"/>
	<path d="M288.38,90.1c-2.53,3.79,5.92,1.04,9.09,1.52c-0.4-0.71-0.51-1.21-0.71-1.41C294.5,88.97,293.37,89.48,288.38,90.1z"/>
	<path d="M216.13,94.14c-0.3,2.42,6.12,0.82,8.39-0.1C222.03,93.73,217.81,93.58,216.13,94.14z"/>
	<path d="M183.59,85.45c2.83,0.91,4.35,0.91,7.78,0.21C190.72,84.68,184.75,85.22,183.59,85.45z"/>
	<path d="M199.9,83.9c-0.76-0.22-1.88,0.64-2.06,0.75C199.99,85.7,200.69,84.13,199.9,83.9z"/>
	<path d="M300.2,91.21c0.09,1,0.64,0.98,1.52,0.61C301.49,90.91,301.03,90.67,300.2,91.21z"/>
	<path d="M269.89,81.72c1.01,0.4,1.82,0.3,2.43-0.71C271.2,80.5,270.49,81.11,269.89,81.72z"/>
	<path d="M445.01,98.19c0.3,0.1,0.61,0.2,0.91-0.1C445.61,97.98,445.21,97.88,445.01,98.19z"/>
	<path d="M205.44,54.83c-0.01-0.07-0.25-0.3-0.05-0.03c0.01,0.01,0.02,0.02,0.03,0.04c0.03,0.01,0.15,0.05,0.15,0.05   C205.52,54.7,205.54,54.72,205.44,54.83z"/>
	<path d="M233.56,92.17c0.01-0.01,0.24-0.24,0.25-0.25C233.71,91.92,233.56,91.91,233.56,92.17z"/>
	<path d="M207.44,83.33l-0.1-0.2C207.21,83.38,207.18,83.33,207.44,83.33z"/>
	<path d="M232.9,92.53c0.35,0.51,0.45,0.27,0.61-0.19C233.51,92.19,232.77,92.21,232.9,92.53z"/>
	<path d="M302.02,33.51c-0.58-4.34-9.12-9.26-12.93-11.42c-0.51-0.29-1.01-0.2-1.52,0.4c2.19,2.16,4.9,3.47,7.28,5.05   C297.27,29.17,299.29,31.39,302.02,33.51z"/>
	<path d="M379.22,22.8c-4.48,0-9.14-0.1-13.64,0.4c5.66,0.1,11.32,0.2,16.88,0.4C381.63,22.51,380.31,22.8,379.22,22.8z"/>
	<path d="M278.95,52.58c2.51-0.86,3.82-2.47,5.39-4.72c-0.1,0-0.3-0.1-0.4-0.1C279.96,49.83,278.67,52.73,278.95,52.58z"/>
	<path d="M310.21,38.67c-2.12-1.72-2.12-1.72-4.85-2.43C306.97,37.96,306.97,37.96,310.21,38.67z"/>
	<path d="M288.18,60.99c-1.82,0.4-2.83,1.01-3.94,2.12C285.62,63.19,286.75,62.86,288.18,60.99z"/>
	<path d="M352.85,22.59c-0.71-0.91-1.41-0.4-2.63-0.2C351.2,22.74,351.85,22.84,352.85,22.59z"/>
	<path d="M288.82,43.44c-0.06,0.2-0.04-0.12,0.26,0.18c0.1-0.1,0.4-0.3,0.4-0.4C289.63,42.81,289.25,42.55,288.82,43.44z"/>
	<path d="M291.82,38.77c0.06-0.31,0.14-1.43,0.2-1.62C291.03,37.15,291.22,37.98,291.82,38.77z"/>
	<path d="M301.19,54.97c0.08-0.01,0.16-0.03,0.22-0.03C301.32,54.91,301.25,54.93,301.19,54.97z"/>
	<path d="M300.71,55.04c0.21,0.21,0.32,0.03,0.47-0.06C301.28,54.88,301.1,55.04,300.71,55.04z"/>
	<path d="M383.57,23.92c-0.2-0.51-0.71-0.2-1.01-0.4C382.76,24.02,383.06,24.22,383.57,23.92z"/>
	<path d="M301.52,54.74l-0.1,0.1C301.42,54.98,301.39,54.99,301.52,54.74z"/>
	<path d="M284.34,47.56l-0.1,0.2C284.37,47.89,284.34,47.94,284.34,47.56z"/>
	<path d="M292.83,59.48c0.53,0,0.74-0.26,0.71-0.7C293,58.81,292.74,59.01,292.83,59.48z"/>
	<path d="M293.63,58.78l-0.1-0.1C293.57,58.83,293.46,58.78,293.63,58.78z"/>
	<path d="M292.92,59.49l0.01-0.01C292.83,59.48,292.75,59.66,292.92,59.49z"/>
	<path d="M292.8,59.56c-0.1,0.05-0.07,0.04-0.17,0.04C292.61,59.69,292.71,59.6,292.8,59.56z"/>
	<path d="M293.53,58.68c0.45,0,0.52-0.3,0.4-0.3C293.72,58.37,293.64,58.57,293.53,58.68z"/>
	<path d="M238.44,44.82c4.92,0.13,5.91-0.43,8.5-1.63c-4.61-0.51-8.23,0.34-13.03-0.5C234.92,43.84,234.57,44.72,238.44,44.82z"/>
	<path d="M249.17,42.61l-0.3,0.1C249.23,42.71,249.17,42.74,249.17,42.61z"/>
	<path d="M800.2,22.5c0.12,0.44,0.32,0.81,0.64,0.87C801.96,23.6,801.36,21.67,800.2,22.5z"/>
	<path d="M803.63,20.78c-0.51,0.91-0.51,1.31,0.91,0.91C804.34,21.09,804.14,20.88,803.63,20.78z"/>
	<path d="M76.58,105.77c0.69,0.58,1.24,0.51,1.62,0.61C78,105.56,77.49,105.77,76.58,105.77z"/>
</g>
</svg>