<?xml version="1.0" encoding="utf-8"?>
<!-- Generator: Adobe Illustrator 19.1.0, SVG Export Plug-In . SVG Version: 6.00 Build 0)  -->
<svg version="1.2" baseProfile="tiny" id="Layer_2" xmlns="http://www.w3.org/2000/svg" xmlns:xlink="http://www.w3.org/1999/xlink"
	 x="0px" y="0px" width="900px" height="600px" viewBox="144 97 900 600" xml:space="preserve">
<g>
	<path d="M466.6,367.3c0.7-0.8,0.6-1.4,0.6-1.9c0.6-0.2,0.7-0.7,0.8-1.1c1.4-4,2.3-8.2,3-12.4c0.4-2.8,1-5.7,1.6-8.5
		c0.2-0.8,0.7-1.3,1.7-0.9c0.9,1.2,0.8,2.6,0.7,4c-0.2,5.5-0.7,11-2.2,16.3c-1.8,6.2-3.6,12.5-5.7,18.7c-3.1,9.3-7.2,18.2-13.2,26.1
		c-3.2,4.3-5.2,9.1-6.6,14.2c-0.4,1.5-0.8,2.9-1.1,4.4c-3.2,12.9-6.2,25.8-10.4,38.4c-0.5,1.4-0.7,2.9-1,4.4c-0.7,3-0.6,6.1-2.1,9
		c-0.8,1.6-0.8,3.6-1.2,5.5c-0.8,3.8-1.7,7.6-2.5,11.4c-0.8,4-0.1,8-0.3,12c-0.2,2.8-0.4,5.5-2,7.9c-0.1,0.2,0,0.5,0,0.9
		c2,0.8,3.5,2.6,5,4.2c0.7,0.7,1.6,1.2,2.3,1.9c0.7,0.6,1.5,1,1.9,2c0.1,0.4-0.3,1.1-0.2,1.3c3.4,3.6,7.2,5.8,11.6,6.7
		c0.6,0.1,1.2,0.4,1.8,0.6c3.5,1.6,6.9,3.5,10.3,5.4c2.7,1.6,4.8,3.7,6.1,6.5c0.4,1,1,1.7,1.7,2.4c1.5,1.3,3.1,2.5,4.6,3.8
		c1.3,1.2,2.7,2.2,4.1,3.1c1.1-0.3,2-0.4,3,0c2.4,0.8,4.6,1.9,6.8,3.1c2.4,1.3,4.9,2.6,7.4,3.6c7.1,2.9,13.9,6.3,20.6,10
		c4.7,2.6,9.5,5.1,14.3,7.6c1.1,0.6,2.2,1.1,3.4,1.5c3.9,1,7.5,2.7,11,4.7c8.3,4.6,16.6,9.3,24.6,14.6c2.5,1.7,5.2,3.1,7.8,4.6
		c0.8,0.4,1.6,0.8,2.1,2c0,0.6-0.9,1.5-0.3,2.5c0.3,0.5-0.1,0.9-0.5,1.2c-1.7,0-3.1-0.9-4.5-1.6c-4.1-1.8-8.2-3.8-12.4-5.5
		c-4.3-1.7-8.6-3.5-12.7-5.7c-1.9-1-3.8-2-5.7-2.9c-6.9-3.4-13.3-7.4-19.4-12.1c-1-0.8-2.1-1.4-3.1-2c-1.4-0.8-2.8-1.6-4.2-2.5
		c-5.9-3.7-12.1-7-18.7-9.5c-3.9-1.5-7.6-3.2-11.2-5.2c-3.1-1.8-6.3-3.7-9.6-5c-0.5-0.2-0.9-0.5-1.2-0.8
		c-5.2-4.9-10.8-9.4-15.4-14.9c-1-1.2-2.1-2.1-3.4-2.9c-3.4-2.1-6.9-4.1-10.7-5.3c-2.8-0.9-5.2-2.5-7.4-4.3c-2.3-2-4.2-4.3-6-6.7
		c-0.6-0.8-1.2-1.6-2.1-2.1c-1.9-1-3.7-2.1-5.6-3.1c-4.2-2.3-8.6-3-13.4-2.2c-5.6,0.9-10.9,2.7-16.1,3c-1.7,1.2-3,2.2-4.4,3.1
		c-1.4,0.9-2.8,1.7-4.2,2.5c-1.3,0.8-2.6,1.5-3.9,2.2c-3.4,1.9-5.9,4.4-7.3,8.2c-0.7,2-1.5,3.9-1.8,6.1c-0.5,3.2-1.2,6.4-1.7,9.6
		c-0.4,2.5-0.7,4.9-0.9,7.4c-0.1,0.7,0,1.5,0.2,2.2c0.4,1.4,0.5,2.7,0.3,4.1c-0.1,0.6-0.1,1.3,0.1,1.9c1.1,3.5,2.1,7,4.2,10
		s4.2,5.9,6,9.1c2.1,3.7,5.6,6.1,8,9.4c0.8,1,2.3,1.5,3.4,2.3c2.2,1.7,4.4,3.4,5,6.3c0.1,0.6,0.6,1.1,1,1.6c1.8,2.1,3.6,4.1,5.8,5.9
		c5.4,4.5,11,8.8,17,12.4c1.5,0.9,2.9,2,4.3,3c3.9,2.9,7.8,5.9,12.2,8.1c7.3,3.7,14.9,6.7,22.6,9.1c2.4,0.8,4.7,1.7,7.3,1.9
		c6.9,0.5,13.7,1,20.6,1.4c5.6,0.3,11.3,0.5,16.9,0.7c2.8,0.1,5.5,0,8.3,0.3c3.8,0.4,7.5,0.5,11.3,0.2c0.9,1.1,2.2,1,3.4,1.1
		c2.3,0.1,4.5,0,6.8,0.3c2.6,0.3,5.2,0.3,7.9,0c4.5-0.4,9-0.2,13.5,0c4.8,0.3,9.5,0.8,14.2,1c3.4,0.2,6.8,0.6,10,1.4
		c5.8,1.6,11.8,2.2,17.7,3.3c0.2,0,0.5-0.1,0.7-0.1c0.8-0.8,0.6-1.8,0.5-2.8c-0.4-2.5-1.1-4.8-2.4-7c-2.3-3.7-4.1-7.7-7.1-11.1
		c-1.1-1.3-1.9-2.9-2.7-4.5c-1.1-2.2-2.1-4.6-3.1-6.9c-0.7-1.5-1.3-2.9-2.2-4.3c-1.8-2.5-2.2-5.5-2.6-8.5c-0.1-0.6,0.2-1.2,1-1.3
		c0.7,0.2,1,0.7,1.1,1.4c0.3,1.5,0.7,2.9,1.4,4.3c5.6,9.9,10.4,20.3,16.5,30c2.2,3.5,3,7.2,2.4,11.1c-0.4,3-0.6,6-0.6,9
		c0,0.9,0,1.8-0.6,2.5c-0.8,0.8-1.2,1.7-1.3,2.7s-1,1.8-0.6,2.8c0.6,0.6,1,1.3,1.9,0.6c0.2-1-1.5-1.4-0.6-2.7c1.5,0.2,2.3,1.9,4,1.8
		c1.8-0.6,3.1-1.8,3.8-3.7c-1-1-2.8-0.7-3.6-2.3c1.8-0.8,3.5,0.9,5.3-0.1c0.8-2.8,0.3-5.8,0.6-8.8c0.4-3.1,0.8-6.2-0.2-9
		c2.2-4.5,2.2-4.5,3.9-5.4c0.4,0.2,0.5,0.6,0.4,0.9c-0.2,0.9-0.4,1.7-0.8,2.5c-0.9,1.8-1.1,3.6-0.9,5.5c0.6,5.4-0.3,10.7-0.5,16.1
		c-1,0.8-1.9,1.4-2.4,2.5c-1,2.1-2.7,3.3-4.9,4.3s-4.1,0.8-6.1,0c-1.8-0.8-2.6-2.3-2.2-4.3c0.2-1,0.6-1.9,1-2.8
		c1.3-2.6,1.2-5.3,1.1-8.1c-2.3-1-4.6-1.5-7-1.8c-6.7-0.9-13.4-2-20.1-2.8c-7.7-0.8-15.4-1.8-23.2-1.9c-6.8-0.1-13.5-0.3-20.3,0.5
		c-1.3,0.2-2.7-0.1-4.1-0.2c-4.6-0.3-9.2-0.8-13.9-1c-5.5-0.3-11-0.4-16.5-0.6c-1.5-0.1-3-0.3-4.5-0.5c-4.9-0.9-9.9-1.2-14.9-1.7
		c-1-0.1-2,0.1-3,0.3c-2.7,0.5-5.4,1.1-8.1,1.4c-2.7,0.4-5.5,0-8.2,0.9c-0.4,0.2-1,0.1-1.5,0c-2.2-0.1-4.5-0.3-6.7-0.4
		c-5.8-0.3-11.5-1-17.1-2.1c-5.5-1.1-11-2.5-16.2-4.6c-7.4-2.9-13.3-7.9-19.7-12.3c-0.3-0.2-0.6-0.5-0.8-0.8c-1.3-1.7-3-3-4.5-4.5
		c-2.4-2.2-4.5-4.7-6.5-7.3c-1.8-2.4-3.1-5.1-4.2-8c-1.4-3.8-1.7-7.8-1.7-11.8c0-2.3,0-2.3,1-4.7c-0.1-0.4-0.1-0.9-0.3-1.4
		c-0.8-3.1-2.7-6-2.6-9.3c0-0.2-0.1-0.5-0.2-0.7c-2.5-5.5-4-11.3-6.3-16.9c-0.5-1.2-0.8-2.5-0.4-3.7c0.8-2.3,0.6-4.7,0.3-7
		c-0.4-2.3-0.2-4.5,0.4-6.7c0.8-2.8,1.2-5.6,1.5-8.5c0.3-2.7,0.9-5.2,2.2-7.5c0.4-0.8,0.9-1.5,1.2-2.4c0.6-2.5,2.5-4,4.4-5.4
		c2.9-2.1,5.9-3.7,9.2-5.1c1.6-0.7,3.1-1.6,3.7-3.1c1.2-0.7,2.5-0.4,3.3-1.5c-0.1-3.4,1.6-6,3.6-8.4c2.1-2.5,4.3-4.9,6.4-7.4
		c3.8-4.7,7.7-9.3,10.8-14.4c1.2-2,2.6-3.9,3.7-5.6c1.1-0.7,1.8,0.3,3.1-1c0.5-0.7,1.6-2.1,2.6-3.5c0.9-1.4,1.7-2.8,2.4-4.3
		c3.8-7.5,6.7-15.4,10.2-23c1.3-2.7,2-5.6,2.8-8.5c1.7-6.7,3.5-13.3,5.7-19.9c2.6-7.7,6.3-14.7,11.4-21c3-3.7,4.5-8.4,6.1-12.8
		c0.1-0.2,0.1-0.5,0.1-0.7c0.3-4.2,1.4-8.4,1.3-12.7c0-0.7,0.1-1.5,0.3-2.2c0.4-1.6,0.5-3.2,0.7-4.8c0.2-2.2,0.4-4.5,0.8-6.7
		c1.1-6.7,2.3-13.3,3.5-20c1.7-9.4,4.3-18.5,8.2-27.3c2.1-4.6,4.6-8.9,7.8-12.8c2.2-2.7,4.4-5.4,6.7-8.1c4-4.7,8.6-8.8,14.1-11.7
		c2.1-1.1,4.3-2.1,6.7-2.2c0.9,0,1.7-0.3,2.6-0.5c3.8-1,7.5-2.1,11.3-2.9c10.9-2.4,20.8-7.1,30.3-12.8c0.6-0.4,1.3-0.8,1.5-1.5
		c-0.3-2.7-0.7-5.5-0.9-8.2c-0.2-1.8-0.2-3.5-1.4-4.9c-0.3-0.3-0.4-0.9-0.5-1.4c-0.2-3.7-1.1-7.3-0.6-11.1c0.7-6,1.3-11.9,2.6-17.8
		c0.9-4.2,2.1-8.3,2.4-12.5c0-0.2-0.1-0.5-0.2-0.7c-0.3-0.4-0.6-0.7-0.9-1.1c-0.1-1,1.1-1,1.2-1.8c0.3-1.7,0.6-3.4,1-5.1
		c0.9-4,1.4-8.1,2.7-12c1.5-4.7,2.5-9.7,3.6-14.5c0.6-2.7,1-5.4,1.2-8.2c0.1-2.3-0.4-4.6,0-6.7c0.7-3.2,0.5-6.2,0.1-9.3
		c-0.3-2.8-0.2-5.5,0.2-8.2c0.6-4.1,1.6-8.1,1.9-12.2c0.2-2,0.9-3.9,1.7-5.7c2.3-5.5,6.3-9.3,12.2-10.8c2.2-0.6,4.4-1.1,6.6-1.5
		c2.5-0.4,5.1-0.6,7.4,0.2c5.1,1.9,10.4,3.8,13.8,8.5c0.5,0,0.8,0.1,1.2,0c3.7-0.9,7.5-0.7,11.2-0.2c2.4,0.3,4.7,0.5,7.1,0.7
		c2.6,0.3,5.2,0.5,7.8,1.1c7.9,1.9,15.3,4.8,22.3,8.8c4.1,2.4,8.3,4.7,11.7,8.3c0.7,2.5,2,4.8,3.8,6.7c1,1,1.4,2,1.7,3.2
		c0.6,2.6,1.1,5.2,2,7.6c1.8,5.1,3,10.3,4,15.6c0.3,1.7,0.8,3.4,0.7,5.2c-0.1,2.2,0,4.2,1.1,6c-0.4,3.5-1.5,6.5-2.2,9.7
		c0.5,0.4,1.2,0.4,1.5,1.1c0.3,1.6-1.6,1.3-2.1,2.6c0.1,2.1,0.3,4.4,0.5,6.8c0.1,1.1,0.4,2.2,0.7,3.3c0.3,1.1,0.4,2.2,0.4,3.3
		c0,2.8-0.1,5.5,0.4,8.2c0.2,1,0.1,2-0.1,3c-1.1,8-3.2,15.7-7.2,22.8c-1.7,3.1-3,6.3-4.3,9.6c-1.1,2.9-2.2,5.9-3.5,8.7
		c-1.6,3.5-3.7,6.8-6.6,9.3c-1.7,0.1-3.2-0.1-4.7,0.3c-3.3,0.8-6.7,0.3-10,1.2c-0.7,0.2-1.5,0.1-2.2,0c-3.1-0.4-6.2-0.8-9.3-1.2
		c-2.2,1.4-2.3,1.3-2.9,2.7c-2.2,4.5-3.6,9.3-5,13.9c1.3,2.1,3.3,2.7,5.2,3.2c3,0.7,5.8,1.8,8.3,3.4c4.5,2.8,9.5,4.4,14.6,5.9
		c2.1,0.6,4,1.5,5.7,2.8c1.8,1.3,3.6,2.7,5.5,3.9c3.4,2.2,6.4,4.9,9,7.9c2.8,3.2,5.6,6.4,7.1,10.5c1.8,5,3.4,10,4.6,15.1
		c1.8,7.3,3.3,14.7,5,22c0.1,0.5,0.2,1,0.3,1.5c0.2,2.5,1.1,4.9,2.2,7.1c1.3,2.7,2.7,5.4,3.8,8.2c1.1,2.9,2.3,5.8,3.9,8.7
		c-0.7,1.2-0.3,2.5,0.2,3.8c2,5.5,4.5,10.9,6.2,16.5c0.6,1.8,1.7,3.3,2,5.2c0.1,0.6,0.5,1.2,0.8,1.7c1.6,2.7,2.8,5.6,4,8.5
		c1.4,3.4,3,6.6,5.3,9.5c1.2,1.6,2.3,3.3,3.4,5c1.4,2.2,2.7,4.5,4.1,6.7c4.6,0.4,8.8,2,13.2,3c1.9,0.5,3.3,1.6,4.4,3.3
		c2.6,4.3,5.6,8.3,7.4,13.1c0.3,0.7,0.7,1.3,1,2c4,6.9,6.1,14.5,7.5,22.3c0.2,1.1,0.3,2.2,0.2,3.4c-0.2,3.6-0.4,7.3-1.5,10.8
		c-0.4,1.2-0.8,2.4-0.9,3.6c-0.2,4.3-1.6,8.3-2.3,12.5c-0.8,5.3-2.3,10.5-3.2,15.8c-0.6,3.8-1.3,7.6-1.8,11.5
		c-0.8,6.1-2.1,12.1-3.1,18.1c-0.1,0.7-0.3,1.5-0.5,2.2c-0.3,0.8-0.9,0.9-2,0.4c0-1.2-0.1-2.3,0-3.4c0.5-4,1.2-7.9,1.8-11.9
		c0.8-5.1,1.7-10.1,1.9-15.3c0.1-2.9,0.5-5.7,1.2-8.5c0.8-3.4,2-6.7,2.9-10.1c0.7-2.4,1.8-4.7,1.8-7.2c-0.1-2.9,0.5-5.7,1.3-8.5
		c1.4-4.7,2.1-9.5,1-14.4c-0.7-3.2-1.3-6.4-2.5-9.4c-1.5-3.8-3.6-7.4-4.9-11.3c-0.2-0.7-0.6-1.4-1-2c-2.3-3.9-4.6-7.8-6.8-11.7
		c-0.8-1.4-1.9-2.2-3.5-2.6c-3-0.8-6-1.7-9.1-2.5c-0.4-0.1-0.9-0.5-1.4,0.1c0,0.3-0.1,0.7,0,1c0.6,1.6,1.5,3.1,1.1,5
		c-0.1,0.6,0.2,1.2,0.4,1.8c1.9,8.1,2.9,16.3,3.6,24.5c0.2,2.7,0.6,5.5,0.7,8.2c0.3,6.7-0.5,13.3-1.1,19.9
		c-0.5,6.8-0.9,13.5-0.5,20.3c0.3,6.3,1,12.5,0.5,18.7c0.9,0.8,1.5,1.6,2,2.7c2.4,6.3,5.9,11.8,9.8,17.3c2.7,3.8,4.9,7.9,4.9,12.8
		c0,1.5,0.5,3,1.1,4.3c0.8,1.8,1.6,3.7,2.9,5.1c-0.4,3.5-1.9,6.6-2.9,9.8c0.4,1.4,0.7,2.8,1.1,4.1c0.5,1.4,0.3,2.7,0.3,4
		c0.8,2,1.9,3.6,2.3,5.7c0.3,2.1-0.6,4.2-0.2,6.4c0.5,0.1,1,0.2,1.5,0.2c2.4,0,4.8,0.1,7.1-0.1c3.4-0.2,6.8,0.3,9.9,1.6
		c3,1.2,5.9,1.9,9,2.3c3.2,0.4,6.5,0.9,9.7,1.2c3.6,0.4,6.7,1.8,9.4,4.2c1.6,1.4,3.3,2.6,5.1,3.9c3.8,2.8,7.7,5.5,11,9.2
		c0.7-0.2,1.5-0.6,2.1,0.5c0.1,2.8,0.5,5.8,0.1,8.8c-0.1,0.7-0.3,1.5,0.1,2.2c0.5,1,0.2,2-0.2,2.9c-1.7,3.8-3.1,7.7-5.3,11.2
		c-0.8,1.3-1.6,2.6-2.7,3.6c-2.9,2.6-5.7,5.3-9.1,7.2c-3.4,1.9-6.9,3.7-10.6,4.8c-5.5,1.7-11,3.2-16.6,4.8c-0.7-0.6-1.3-1.2-1.8-1.7
		c-5.8,3.6-11.3,7.2-18.1,8.3c-2.6,0.4-5.2,1-7.8,1c-4-0.1-8-0.1-12-0.3c-6.1-0.4-12.3-0.2-18.4-1.2c-6.3-1-12.6-2-18.7-3.9
		c-3.2-1-6.4-2.2-9.7-3c-4.3-1-8.6-1.7-13-0.8c-2,0.4-4,0.9-5.9,0.9c-2.5,0-4.6,0.7-6.8,1.9c-1.7,0.9-3.5,1.4-5.4,0.9
		c-4.4-1.2-8.7-2.3-13.1-3.5c-2.8-0.8-4.9-2.4-6-5.1c-2.9-0.8-5.6-1.6-8.4-2.4c-0.4,0.4-0.9,0.6-1.2,1c-1.5,2.2-3.6,3.3-6.2,3.8
		c-2,0.4-3.9,0.9-5.8,1.6c-2,0.8-3.7,0.1-5.2-1.1c-1-0.7-1-2-1.7-2.9c-1.8,0.7-3.5-0.1-5.1-0.6c-0.8-0.3-1.1-1-0.3-1.8
		c0.9-0.4,1.7-0.1,2.6-0.1c2.3,0,4.2-0.7,5.4-2.7c0.6-1,1.5-1.7,2.4-2.4c1.4-1,2.8-2.1,4.2-3.2c0.4-4.2,0.9-8.3,0.4-12.5
		c-0.4-3.3,0.4-6.5,1-9.7c0.1-0.8,0.6-1.4,1.6-1.1c0.7,1.2,0.4,2.5,0.2,3.7c-0.7,4.4-0.8,8.7-0.6,13.1c0.1,2.5-0.3,5-0.9,7.2
		c-3.1,3.2-6.6,5.6-9,9.2c0.8,1.4,1.9,2.1,3.2,2.5c1.8-0.4,3.4-1,5.2-1.2c4.5-0.6,7.6-3,9.4-7.1c-1.1-0.9-2.7,0.3-3.7-0.9
		c0.8-1.3,2-1,3.1-1.3c2.9-0.8,4.2-2.3,4.1-5.4c-0.1-1.5-0.3-3-0.4-4.5c-0.3-2.6-0.9-5.3-0.7-7.8c0.2-2.4,0.1-4.7-0.2-7.1
		c-0.2-1.3-0.6-2.7,0.2-3.9c0.5-0.5,1-0.6,1.5-0.2c0.9,0.8,0.1,2.2,0.9,3.1c0.3,0,0.7-0.1,1-0.1l-0.1-0.1c-0.7,2.3-0.8,4.6-0.3,7
		c0.5,2.3,0.8,4.8,0.1,7.1c-0.5,1.8-0.5,3.4-0.1,5.1c0.4,1.6,0.3,3.2-0.4,4.8c-0.4,0.9-0.7,1.9-1,2.8c-0.3,1-1.1,1.9-1.1,3.3
		c2.3,0.7,4.4,1.6,6.8,1.4c0.6-0.9,0.6-1.8,0.6-2.7c0-1.6,0-3.3-0.2-4.9c-0.2-1.7,0.2-3.2,1.1-4.6c0.9-1.5,1.8-3,3.2-4.2
		c0.5-0.4,1-0.8,1-1.6c-0.1-0.9-0.9-1.4-1.4-2.1c-2.3-2.8-4.3-5.8-6.1-9c-0.4-0.7-1-1.5-0.4-2.4c1-0.5,1.4,0.2,1.8,0.9
		c2.7,4.7,6.1,8.9,9.7,12.9c0.8,0.8,1.5,1.7,1.8,2.8c1.4,4.6,4,8.6,5.6,12.9c1.5,1.3,3,2.1,4.9,2.5c0.7-1.3,1.6-2.4,1.9-4.1
		c-3.3-6.8-5.5-14.2-9.1-21.2c-1.4-2.7-2.8-5.3-4.1-8c-1.2-2.5-2.7-4.8-4.5-6.9c-1.6-1.9-3.2-3.8-4.8-5.8c-2.6-3.1-5.1-6.2-7.3-9.6
		c-0.6-1-1.3-1.9-1.4-3c-0.1-0.5,0-1,0.7-1.1c0.9,0.1,1.1,0.9,1.5,1.5c1.7,2.9,3.7,5.6,5.9,8.3c0.6,0.7,1.1,1.4,2.4,1.7
		c2.7-0.4,5.6-1.1,7.1-4.1c0.4-0.3,0.7-0.7,1.4-0.4c0.5,2.2-1.3,3.3-2.5,4.6c-1.2,1.4-3.4,0.9-4.8,2c-0.1,0.6,0.2,1,0.5,1.3
		c2.7,3.3,5.3,6.6,7.3,10.4c1.3,2.4,3,4.6,4,7.2c2.3,5.8,4.9,11.5,7.3,17.2c0.2,0.4,0.4,0.9,0.7,1.3c0.9-0.4,0.5-1.1,0.5-1.6
		c-0.1-5.6,0.9-11,2.9-16.2c0.3-0.8,0.8-1.6,1.2-2.3c0.1-0.2,0.4-0.2,0.7-0.4c1.2,0.1,1.3,1,1.3,1.9c-0.1,2.4-0.2,4.8-0.5,7.1
		c-0.5,5.6-0.3,11.3-0.5,16.9c0,1.1,0.1,2.2,0.5,3.3c0.2,0.5,0,1-0.4,1.4c-2,0.3-1.7-2.3-3.5-2.6c-0.8,1-0.7,2.6-2.6,3.5
		c-1.2,0.5-2.9-0.1-4.5-0.9c-1.8-0.9-3.5-1.9-4.6-3.7c-2.1-3.4-4-6.9-4.9-10.9c-0.2-0.8-0.6-1.6-0.9-2.3c-0.9-0.2-1.3,0.4-1.6,0.9
		c-0.7,1-1.3,2.1-2,3.2c-0.6,1-0.8,2-0.7,3.2c0.3,3.7,0.5,7.5-0.2,10.9c0.7,1.3,1.7,1.6,2.7,1.8c4,1.1,8,2.1,12,3.1
		c1.2,0.3,2.6,0.4,3.7-0.3c3-1.9,6.3-2.4,9.7-2.4c4-0.1,8-0.7,12-0.2c2.2,0.3,4.5,0.6,6.6,1.2c2.3,0.7,4.6,1.3,6.8,2.2
		c4.9,1.9,10.1,2.8,15.2,4c0.5,0.1,1,0.2,1.5,0.2c4.3,0.2,8.5,0.4,12.8,0.5c5.4,0.2,10.8,0.1,16.1,0.7c5.5,0.5,11.1-0.1,16.3-2
		c5.6-2.1,11.1-4.8,15.9-8.4c2.5-1.9,4.3-4.3,3.8-7.7c-0.1-0.4,0-0.8,0-1.1c0.9-5.7,0.6-11.5,0.7-17.2c0-1.4,0-2.8-0.4-4.1
		c-0.6-2-1.6-3.6-3.8-4.3c-4.3-1.5-8.1-3.9-11.5-6.9c-1.6-1.4-3.6-2.2-5.6-3c-3.6-1.5-7.2-3-10.6-4.8c-2.9-1.6-6.2-2-9.5-2.1
		c-7.7-0.2-15.3,0-22.9,1.3c-1,0.2-2,0.3-3,0.3c-6.1,0.4-12.3,0.7-18.4,1c-1,0.1-2,0.1-3,0.2c-4.1,0.6-8,0.1-11.7-1.5
		c-2.4-1-4.8-2.3-7.3-3c-4.7-1.5-9-3.8-12.9-6.8c-0.8-0.6-1.7-1-2.8-1c-4.4,0-8.7,0.6-13.4,1.3c0.8,1,1.5,1.2,2.3,1.5
		s1.6,0.6,2.5,0.8s1.6,0.7,1.9,1.6c-5.1-0.5-9.4-2.3-12.4-6.6c-0.3-0.4-0.6-0.8-0.9-1.2c-0.8-1-1.9-1.6-3.1-1.7
		c-0.4,0.3-0.6,0.6-1,0.9c-1.4-1.2-3.1-2-5-2.4c-0.9-0.2-1.9-0.7-2.7-1.3c-7.4-4.9-14.7-10.1-20.9-16.5c-1-1.1-2.2-2.1-3.4-3
		c-7.8-5.9-15.2-12.2-22.1-19.3c-1.1-1.2-2.4-2.2-3.8-3.1c-4.2-2.8-8.4-5.5-12.5-8.4c-2.3-1.6-4.7-2.9-7.3-3.7
		c-2.4-0.7-4.7-1.8-6.5-3.6c-5.3-5.2-11-9.9-16.5-14.8c-0.9-0.8-1.8-1.7-2.7-2.6c-2.5-2.6-5-5.2-7.6-7.8c-3.4-3.5-7.3-6.5-11.4-9.2
		c-0.6-0.4-1.2-0.8-1.8-1.3c-2.1-2-4.2-3.9-6.3-5.9c-1.7-1.7-3.3-3.4-5.3-4.7c-1.1-0.7-1.9-1.7-2.6-2.7c-1.9-2.7-3.3-5.6-4.2-8.8
		c-0.5-1.8-0.9-3.6,0.1-5.5c0.3-0.5,0.2-1.2,0.3-1.8c0.5-4,0.6-8,2.2-11.7c0.2-0.5,0.3-1,0.4-1.5c0.1-1.7,0.8-3.1,1.5-4.6
		c0.7-1.6,1.5-3.2,2.2-4.8c6-12.7,10.6-26,13.9-39.6c1.4-5.8,3.3-11.5,5.1-17.3c0.5-1.8,1.3-3.5,2.1-5.2c3.7-8.4,9.9-14.4,17.8-18.7
		c0.7-0.4,1.4-0.6,2.1,0.1c0.5,1,0,1.7-0.7,2.3c-1.6,1.6-3.2,3.2-4.8,4.7c-2.9,2.6-5.6,5.4-7.7,8.7c-0.5,0.8-1.3,1.5-1.2,2.8
		c2.5,2.1,5.6,2.6,8.7,2.9c5.6,0.7,10-1.4,13.6-5.6c2.9-3.4,4.8-7.3,6.6-11.3c2.5-5.7,3-11.9,3.7-17.9c0.8-7.3,0.1-14.5-1.1-21.7
		c-0.9-5.1-2.3-10-4.5-14.7c-0.9-1.8-0.5-3.3,0.4-4.8c-2.3-6-4.1-12-5.8-18c-2.4-8.3-5.6-16.3-9.8-23.9c-1.8-3.3-3.6-6.6-5.4-9.8
		c-1-0.3-1.8,0.1-2.6,0.3c-4.9,1.4-9.8,3-14.9,3.7c-2.5,0.4-4.8,1.4-6.9,2.7c-6.4,4-11.5,9.2-15.9,15.2c-2.3,3.1-4.5,6.3-6.9,9.4
		c-1.6,2-2.9,4.1-3.8,6.4c-1.9,4.8-3.7,9.6-5.1,14.5c-1,3.5-2.1,7-3.1,10.4c-0.4,1.4-0.8,2.9-1,4.4c-0.7,4.8-1.4,9.7-2.3,14.5
		c-0.5,2.9-0.7,5.7-0.6,8.6C466.6,365.7,466.8,366.3,466.6,367.3z M526.5,580.9c-0.1,0-0.2,0.1-0.3,0.1c0.2,0.1,0.3,0.2,0.5,0.4
		c0.3,0.6,0.9,0.8,1.5,0.7c0.2,0.9,1,1.1,1.6,1.4c6.1,3.6,12.3,7.3,18.5,10.8c3.4,1.9,6.9,3.5,10.7,4.3c0.3,0.2,0.5,0.4,1,0.7
		c-0.3-0.8-0.8-0.5-1.1-0.6c0-0.6-0.4-0.8-0.9-1.1c-9.4-5.1-18.8-10.2-28.1-15.2c-0.6-0.3-1.1-0.5-1.8-0.3c-0.2-0.9-0.9-0.8-1.6-0.7
		C526.6,581.2,526.5,581,526.5,580.9z M646.6,122.8c2,1.3,4,2.6,5.9,4c0.5,0.3,0.9,0.8,1.6,0.9c0.6-0.2,0.7-0.7,0.4-1.2
		c-1.9-2.5-4.1-4.7-7.1-5.9c-5.2-2.1-10.7-3.5-16.2-4.6c-0.3-0.1-0.7,0.2-1.1,0.4c0.3,1.1,1.2,1.3,1.9,1.6c2.9,1.3,5.7,2.5,8.5,3.8
		c1.1,0.5,2.1,1.3,3.1,2.1c0.2,0.2,0.3,0.6,0.5,0.9c-1.4,0.4-2.4-0.5-3.5-1c-1.4-0.6-2.6-1.4-4.2-1.3c-1.2,0.1-2.1-0.7-3.1-1.3
		c-5.1-3-10.6-5.1-16.5-5.6c-0.9-0.1-1.7-0.1-2.6-0.1c-4,0.1-7.9,0.7-11.8,1.2c-0.4,0.9,0,1.3,0.6,1.7c2.1,1.5,4.6,1.8,7.4,1.8
		c2.2-2,4.8-1.8,7.2-0.7c1.1-0.2,1.1-1.3,1.6-1.4c1-0.4,1.7-0.1,2.4,0.2c3.4,1.3,6.7,2.7,10.1,4c1.4,0.6,2.7,1.4,4.3,1.2
		c0.6,0,1.2,0.2,1.7,0.5c1.6,1,3.1,2.1,5,2.4c0.2,0,0.5,0.2,0.6,0.4c1.5,1.7,3.6,2.5,5.3,3.9c-0.9,1.4-0.9,1.5,1,2.4
		c0.2-0.3,0.3-0.6,0.5-0.9c1.6,0.3,2.4,2.1,4.1,2.3c0.5-0.3,0.6-0.8,0.2-1.2c-0.9-1-1.9-1.9-2.9-2.8c-0.6-0.6-1.4-1-1.4-2
		c0.5,0,1,0,1.5,0.1c0.1,0.8,0.9,1.1,1.4,1.6c1,1,2.1,1.8,2.9,2.9c1.1,1.4,1.8,3,3.3,3.4c0.1,0.9,0,1.2-0.5,1.4
		c-1.4,0-2.2-1.3-3.5-1.8c-0.7,0-1.4,0.1-2.2,0c-0.6-0.1-1.1-0.3-1.7-0.5c-0.7,1.2,1.4,2,0.1,3.2c-1.8-0.5-2-2.7-3.4-3.7
		c-1-0.8-2.5-0.4-3.3-1.4c-0.9,0.6-1.7,1-2.5,1.5c-7.8-5.4-16-9.8-25-12.8c-1-0.3-2.1-0.9-3.3-0.5c0.1,0.9,1,1,1.5,1.2
		c3.4,1.3,6.8,2.5,10.2,3.8c1.2,0.4,2.3,1,3.4,1.5c0.5,0.2,0.7,0.7,0.6,1.2c-0.1,0.1-0.2,0.2-0.3,0.2c-5.8-1.6-11.3-4-16.9-5.9
		c-1.2-0.4-2.3-1-3.4-1.5c-0.7,0.2-1.2,0.4-2,0.7c-2.5-2.2-6-2.5-8.9-4.1c-1.5,0.8-2.8,1.5-4,2.1c-0.3,1,0.3,1.2,0.9,1.5
		c2.5,1.5,5,2.8,7.1,4.8c3.7-0.1,7.5,0.3,11.2,0.1c2.8-0.2,5.4,0.9,8.1,1.4c0.5,0.1,0.9,0.4,0.5,1.3c-1.3,0-2.5-0.5-3.8-0.7
		c-1.4-0.2-2.7-0.5-4.1-0.8c-1.3-0.3-2.6-0.8-4.1-0.3c0.9,1.5,2.3,1.6,3.6,2c1.5,0.4,2.9,0.6,4.4,0.9c1,0.2,1.9,0.5,2.8,1.1
		c0.7,0.5,1.4,1.1,1.3,2.3c-1.3,0.2-2.3,0.7-3.4,1.7c-1.2,1-2.8,1.5-4.3,2.2c-0.2,1.1,1.3,1.2,1.1,2.4c-1.6,1.9-3.7-0.4-5.5,0.2
		c-1,0.5-1.9,1.1-2.9,1.6c-1-0.7,0.6-1.3-0.2-2.1c-7.1-2.8-14.7-4.8-21.7-8.4c-0.1,0-0.1-0.2-0.1-0.3c0.3-0.7,1.2-0.2,1.7-0.9
		c-1-1.1-2-2.3-3-3.4c-0.4,0.1-0.7,0.1-0.8,0.2c-2.4,3-5.2,5.7-7.2,9c1.3,2.1,2.6,3.2,6.6,5.8c2.1-0.5,4.3-0.3,6.5-0.1
		s4.5,0.6,6.7,0.4c0.4,0,0.8,0,1.1,0.1c3.4,1.1,6.8,1.4,10.3,1.8c1.9,0.2,3.2,1.1,4.6,2.1c-0.3,1.6-0.7,2-1.8,1.9
		c-2-0.4-3.9-0.8-6.1-1.3c-5.1,1.9-10.8,2.1-16.4,1.9c-1.5,0-3-0.2-4.3-0.7c0-0.8,0.4-1,0.9-1c1.9-0.1,3.8-0.2,5.6-0.3
		c2.8-0.1,5.5-0.1,8.3-0.2c0.9,0,1.7-0.1,2.5-1c-1.3-0.8-2.7-0.8-4-0.9c-3.1-0.4-6.2-0.6-9.4-0.9c-1.1-0.1-2,0-2.7,1
		c-2-0.4-3.6-1.5-5.4-2.4c-1.7-0.8-2.6-2.7-4.6-3.3c-0.9,1.6-1.6,3.2-1.8,4.9c-0.2,1.5,0.7,2.6,1.5,3.7c2,2.6,4.5,4.6,7.2,6.5
		c1,0.7,2.1,1.4,2,2.9c3.4,1.1,6.7,0.7,9.9,0.7c1,0,2,0.1,2.9-1.1c-2.5-1.5-5.4-1.7-8-2.7s-5.3-1.5-7.7-2.2
		c-0.7-0.8-0.8-1.6-0.7-2.3l-0.1,0.1c4,1.3,8.1,1.7,12.2,1.3c2.2-0.2,4.5-0.3,6.7-0.6s4.4-0.9,6.5-1.3c0.8,0.5,0.9,1.1,0.3,1.6
		c-0.3,0.3-0.8,0.6-1.3,0.7c-2.5,0.8-5.1,1.2-7.7,1.4c-1.1,0.1-2.2,0-3.3,0c-0.2,1.1,0.5,1.2,1,1.3c2.3,0.5,4.6,1,6.3,1.3
		c2.4,0.1,3.5-1.5,5.3-1.6c0.8,1.7-0.7,2.2-1.4,3.1c-2.1,0.3-4.2,0.6-6.1,1.5c-0.2,0.1-0.2,0.4-0.4,0.8c1.9,0.5,3.7,0.7,5.3-0.5
		c1.3-1,3.1-0.9,4.4-2.1c1.1-1,2.3-1.9,3.5-2.8c0.5-0.4,1.1-0.5,1.8,0.2c-0.2,2.5-2.7,2.9-4.1,4.4c-0.1,0.5-0.3,1.1-0.5,1.8
		c-0.4,0.2-0.8,0.5-1.3,0.6c-1.5,0.3-2.5,1-3,2.6c2.1,1.2,3.1-1.1,4.8-1.2c1.1,0.3,1,1,0.4,1.7c-0.7,0.9-1.7,1.4-2.7,1.9
		c-1.5,0.7-3,1.3-4.4,2.5c-2.8-0.4-5.5,0.8-8.3,1.3c-2.3,0.4-4.6,1-7,1c-3.9,0.1-7.4-1.1-10.9-2.3c-1.2-0.4-2.2-1.2-3-2.2
		c-0.5-0.5-1.1-1.1-1.9-1c-1.2,1,0.6,1.4,0.5,1.6c0,0.8,0.1,1.1,0,1.2c-1.1,1.3-1,2.5,0,3.6c1.2,0.7,2.5,0.7,3.7,0.3
		c1.4-0.4,2.7-0.2,4.1-0.1c5,0.4,10,0.6,15-0.4c1.2-0.2,2.4-0.5,3.6-1c0.5-0.3,1.2-0.4,1.8-0.5c3.5-0.5,3.5-0.5,6.3-2.2
		c0.4,0,0.7,0.2,1,0.7c-0.4,1.3-1.6,2.1-2.7,2.7c-1.6,0.9-3.4,1.4-5.3,1.9c-6.2,1.5-12.4,1.4-18.7,1.4c-2.8,0-5.5,0.1-7.9-1.3
		c-1,0.6-0.9,1.4-0.6,2.1c0.7,1.9,1,3.9,0.7,5.9c-1.4,0.4-1.4,0.4-0.9,1.9c1.1-0.3,1.2-1.1,0.8-2c0.3-0.1,0.7-0.2,1-0.4
		c3.3-2.5,7.2-2.4,11.1-2.4c2.2,0,4.5,0,6.7-0.3c2.7-0.4,5.4-1.1,7.7-2.8c0.5-0.4,1-0.8,1.8-0.6c0.8,0.3,0.9,1,0.3,1.7
		c-2.3,2.8-5.5,3.9-8.9,4.1c-3.2,0.2-6.5,0.3-9.6-0.4c-0.9,0.6-0.6,1.1,0,1.5c0.2,0.1,0.4,0.3,0.7,0.3c2.6,0.3,5.2,0.7,7.8,0.9
		c2.1,0.2,4.3,0.3,5.9-1.1c1.1,0.2,1.5,0.7,1.7,1.6c-0.4,1.4-1.5,1.9-2.8,2c-3.4,0.4-6.7,0.1-10-0.6c-0.8,0.7-0.2,1.4,0.3,1.5
		c2.1,0.3,4,1.4,6.2,1.2c0.5-0.1,1,0.1,1.4,0.1c0.6,1.5-1.4,1.3-1.3,2.4c1,1.7,2.8,1.2,4.1,1.4c0.7,1.1,0.3,1.7-0.3,2.2
		c-0.7,0.7-1.5,0.9-2.4,0.5c-0.6-0.2-1.1-0.6-1.6-0.9c-0.4-0.2-0.9-0.5-1.4-0.8c-2.1,0.5-4.2-0.3-6.2-1.2c-0.5,1.1,0,1.6,0.3,2.1
		c0.4,0.5,0.8,0.9,1.3,1.5c-0.6,2.1-1.1,4.1-0.4,6.1c0.4,1,1.1,1.5,1.8,2.1c0.8,0.6,1.4,1.5,1.5,2.5s0,2-0.5,2.9
		c-0.5,1-0.9,2.1-2.2,2.3c-1.3-0.4-0.9-1.4-0.8-2.2c-0.4-0.8-1.5,0-1.9-0.8c-0.4-1.6,1.7-1.7,1.7-3c-0.6-0.8-1.5-0.8-2.3-1.3
		c-1.6-1-2.1-2.5-1.3-4.2c0.3-0.7,0.7-1.3,1.1-2c0.4-0.6,1-1.1,1-1.9c-0.1-0.7-0.5-0.8-1.1-0.9c-1.7,0.7-2.6,2.7-4.4,3.2
		c-0.9,0-1.4-0.5-1.6-1.6c0.1-2.3,2.7-2.9,4-4.7c-0.3-1.3-1.2-2-2.2-2.6c-1,0.3-1.1,1.1-1.3,1.8c-0.5,1.5-1.1,3-2.6,3.8
		c-0.6-0.1-0.9-0.4-0.9-0.7c0.3-2.8,1.3-5.3,2.6-7.8c0.3-0.6,0.7-1,1.8-1c1.4,1.2,3,2.6,4.7,3.8s3.7,1.4,5.5,2c0.7-0.6,0.5-1,0-1.2
		s-1-0.1-1.5-0.3c-2-0.8-3.9-1.7-5-3.7c-0.8-1.3-1.9-2.3-3.2-2.8c-1.7,0.1-2.7,1.2-3.5,2.2c-2.3,2.8-3.6,5.9-2.7,9.7
		c1,3.9,2.7,7.5,4.4,11.1c1.5,3,3.9,5.2,6.3,7.4c1.4,1.3,2.9,2.3,4.3,3.3c2,0.9,3-1.3,4.3-1.4c0.9,0.1,1.1,0.5,1.3,1.1
		c-0.2,0.5-0.4,1.1-0.7,1.7c0.5,0.9,1.2,1.9,1.6,2.9c0.4,0.9,0.4,2,0.7,2.9c1.6,4.2,2.4,8.7,4.6,12.5c-0.7,1.1-1.5,0.9-1.9,0.3
		c-1.1-1.7-2.2-3.4-2.4-5.5c-0.2-1.9-0.7-3.7-2.1-5.1c-1-1-0.9-2.3-1-3.5c-0.1-1.3-0.3-2.5-1.5-3.4c-0.3,0-0.8-0.1-1.3-0.1
		c-0.4,0-0.7,0.2-1.1,0.3c-1.2-0.8-2.5-1.6-3.7-2.4c-1.1,0-1.6,0.6-1.9,1.6c-0.7,3.1-1.4,6.1-2.1,9.1c-0.9,3.5-1.9,7-3.7,10.2
		c-0.2,0.3-0.3,0.7-0.4,1c-1.9,6.1-5.7,11.1-9.5,16.1c-1.2,1.6-2.7,2.9-4.3,4.2c-4.6,3.5-9.4,6.6-14.4,9.4c-0.4,0.2-0.8,0.6-1.4,0.9
		c1.7,2.1,3.3,4.1,4.9,6.2c6.9,8.8,13.7,17.6,19.5,27.1c2.6,4.3,5.2,8.6,7.1,13.2c0.5,1.2,1.2,2.4,0.9,3.9c-0.2,0.8,0.6,1.8,1.1,2.7
		c3.7,7.5,7.3,15.1,11.1,22.6c2.5,5,4.1,10.2,5.6,15.5c0.9,3.1,1.6,6.3,2.4,9.5c0.3,1.1,0.7,2.1,0.3,3.3c-0.3,1,0.3,1.9,0.6,2.9
		c2.2,5.5,5.2,10.6,9,15.1c2.3,2.8,5,5.2,6.8,8.5c0.4,0.7,1,1.2,1.7,1.4c1.4,0.6,2.8,1,4.5,1.6c-0.5-4.6-2-8.5-3.4-12.5
		s-3.1-7.9-6.4-10.8c0.4-0.4,0.6-0.6,0.9-0.9c1.9,1,3,2.9,4.2,4.5s2.4,3.2,3.6,4.8c0.9,0,1-0.6,1.2-1.2c0.2-0.7,0.4-1.4,1.5-1.8
		c0.1,2.5,0.4,4.8-0.6,7c1.6,3.4,2.5,6.9,2.5,10.4c0.8,0.5,1.4,0.3,1.9,0c1.6-0.8,3.1-1.7,4.6-2.5c1.9-1,3.1-2.6,3.4-4.7
		c0.4-3.7,2.2-7.2,2.2-11c0-0.7,0.4-1.4,0.6-2.2c0.2-1,0.4-2,0.3-3c-0.4-4.2-0.8-8.5-1.9-12.6c-1.1-4.1-1.4-8.4-2.2-12.6
		c-2.2-11.2-3.5-22.5-5.5-33.7c-1.1-6.2-2.6-12.2-4-18.3c-0.2-1-0.1-2.3-1.1-3.3c-3.5,5.7-4.5,12.1-6.3,18.2
		c-0.4,0.2-0.9,0.1-0.9-0.2c0.6-4.7,0.8-9.5,1.9-14.1c0.2-1,0.6-1.9,1.2-2.7c0.9-1.5,1.5-3.2,1.9-4.9c1.3-5.9,3.1-11.6,5.3-17.2
		c0.6-1.6,0.9-3.2,1-4.8c0.3-4.4,2.1-8,5.7-10.6c0.2-0.1,0.2-0.4,0.4-0.8c-3.5-0.8-6.7-2.8-10.5-2.7c-1.7-1.4-3.7-2.4-5.9-3.1
		c-1.7-0.6-3.1-1.5-4.4-2.8c-2-2-4.2-4-6.2-6c-0.5-0.5-1-1.2,0.2-1.9c1.9,0.7,2.8,2.7,4.4,3.8c1.7,1.1,2.9,2.8,4.4,4.3
		c4.1,0.9,8.1,2.8,12.3,4.1c2.1,0.7,4.3,1.5,6.5,1.7c1.1,0.1,2.2,0.4,2.7,1.7c1.4,0.3,2.9,0.7,4.3,1c1.7,0.4,3.4,0.7,5.2,0.6
		c4.2-0.2,8.5-0.4,12.7-0.6c1.6-0.1,2.8-0.7,3.9-1.9c2.4-2.7,4.2-5.7,5.2-9.1c2-6.8,5-13.1,7.9-19.5c2.1-4.7,3.5-9.7,4.6-14.7
		c0.4-1.8,0.4-3.7,0.4-5.6c0-2.8,0-5.5-0.1-8.3c-0.1-2.1-0.2-4.2-0.9-6.2c-0.7-2.1-0.5-4.4-0.6-6.7c-0.1-0.7,0.3-1.5-0.5-2
		c-0.6-0.2-1.1,0.3-1.1,0.7c-0.3,1.6-1.1,2.8-2,4c-1.3,1.8-3.1,2.1-5.6,0.9c-0.5-0.8,0.5-1.3,0.5-2.1c-0.7-0.1-1.4-0.2-2.2-0.3
		c-0.8-1.2,1.3-2.3-0.1-3.5c-0.7-0.4-1.5,0.7-2.5,0.2c-0.1-0.3-0.3-0.6-0.4-1c1.9-1.8,4.2-2.6,6.7-3.1s4.5,1.2,6.6,2.1
		c1.9-4.2,2.9-7.8,3-10.1c-4-1.8-8-0.3-12.1,0.4c-1.1-0.5-2.2-0.9-3.3-1.4c-0.2-1.4-0.1-2.2,0.6-2.2c3.7-0.2,7.4-1.4,11.1-0.5
		c1,0.2,1.9,0.8,2.8,0.6c0.6-0.4,0.6-0.9,0.4-1.3c-2.1-4.9-2.7-10.1-4-15.2c-0.7-2.8-1.4-5.6-2.6-8.2c-0.5-1.1-0.5-2.5-1-3.6
		c-1.8-3.9-4.1-7.4-7.2-10.5c-0.1-0.1-0.4-0.1-0.7-0.1c-0.1,2,2,3.2,1.7,5.2c-0.5,0.7-1,0.6-1.6,0.1c-0.1-0.1-0.2-0.2-0.2-0.3
		c-1.2-4.3-4.5-7.5-6.3-11.5c-0.2-0.4-0.6-0.7-1.2-0.5c-0.1,0.1-0.2,0.2-0.2,0.3c0.2,1.5,0.5,2.9,0.7,4.2c1.3,2.4,4.2,3.6,4.2,6.9
		c-1.3-0.2-1.6-0.9-2-1.5c-1.5-2-3.3-3.8-5.1-5.5c-1.2-1.1-2.4-2.3-4.1-2.4c-0.3-0.9-0.8-1.4-1.9-1.2c0.2,0.5,0.3,0.9,0.5,1.3
		c-2-0.4-3.4-1.6-4.6-3.1c0.3-0.1,0.7-0.2,1-0.3c-0.2-1.2-1.7-1.5-1.7-2.7l-0.1,0.1C645.4,122.2,646,122.4,646.6,122.8z
		 M597.8,135.3c2.9,0.7,5.5,2.5,8.6,2.2c1.1-0.1,1.9,1.2,3.8,1.2c2.6-1,5.4-3,8.6-4.7c-1.9-1.1-1.9-1.1-4.6-1.1
		c-1.5,2-3.7,3-6.1,3.4c-4-2-8-2.8-12.4-2.6c0-0.6,0-1.3,0.5-1.7c0.5-0.5,1.1-0.7,1.7-0.5c2.2,0.5,4.4,0.7,6.7,0.1
		c0.5-0.1,1.2,0.2,1.8,0.3c1.1,0.2,2.2,0.4,3.5,0c-1.2-1.5-2.7-1.7-4.4-1.8c-0.6,0-1.2,0.3-1.8,0.3c-0.5,0-1.1-0.1-1.4-0.4
		c-1.5-1.7-3.8-2.3-5.5-3.6c-1.8-1.3-3.8-2.4-5.8-3.5c-1.1,0.1-2.1,0.6-2.7,1.6c0.1,0.3,0.1,0.6,0.2,0.7c1.6,1.2,3.2,2.4,4.7,3.6
		c0.5,0.4,1,0.8,1,1.5c-0.5,0.6-1.1,0.4-1.7,0.1c-1.6-1.1-3.3-2.3-4.9-3.4c-0.6-0.4-1.1-1-1.9-1c-0.5,0.3-0.7,0.8-0.3,1.2
		c1.9,1.8,3.7,3.7,5.7,5.4c1.3,1,3,1.2,4.6,1.2C596.2,134.5,596.9,135.1,597.8,135.3z M589.2,115c-0.1-0.4-0.1-0.7-0.2-1.1
		c0.5-0.7,1.1-0.6,1.7-0.3c1.6,0.8,3.2,1.5,4.9,1.8c0.3,0.1,0.7,0,1,0c0.5-0.6,0.2-1.1-0.2-1.4c-3.1-2.4-6.3-4.5-9.8-5.8
		c-0.7,0.2-1.2,0.3-1.6,0.4c-5.8,1.2-9.4,4.9-11.5,10.3c-0.7,1.7-1.3,3.5-2,5.3c-0.4,0.9,0.5,1.7,0.3,2.6
		c-1.8,4.2-3.2,10.8-2.8,13.8c0.6,0.3,0.9-0.2,1.1-0.6c1.6-4.8,5-8.7,7.3-13.1c0.8-1.5,2.1-2.4,3.8-2.7c2.6-0.4,2.9-0.7,5.6-2.9
		c-1.8-1.5-4.5-1.5-6.1-3.6c1.6-1.2,2.8-0.4,4,0.2c1.3,0.6,2.3,1.4,3.1,2.7c2.1-0.4,3.6-1.6,5.4-2.8c-1.1-1.6-2.5-2.3-4-2.9V115z
		 M427.6,473.2c-1.1,2.2-2.5,4.3-4,6.3c-3.3,4.3-6.7,8.4-10.7,12.1c-0.7,0.7-1.5,1.4-2,2.2c-2.3,3.6-4.9,7-7.4,10.4
		c-0.2,0.3-0.4,0.7-0.7,1.2c1,2.6,2.9,4.7,5.3,6.6c5.6-1.5,10.8-0.1,16,2c0.1-0.5,0.2-0.8,0.2-1.2c0-10.1,1.3-20,3.4-29.8
		c1-4.4,1.9-8.8,2.9-13.2c0.3-1.2,0.6-2.4,0.4-3.7c0.7-0.1,0.5-0.6,0.3-1c-0.1,0.4-0.1,0.7-0.2,1.1
		C430,468.6,428.8,470.9,427.6,473.2z M578.7,563.4l-0.2-0.1c-0.2-0.6-0.3-1.2-0.6-1.7c-2.2-3.7-3.6-7.8-4.4-11.9
		c-0.9-4.5-2.4-9-2.9-13.6c-0.7-6-0.9-12,0.1-18c0.8-4.8,2.2-9.5,3.4-14.2c0.3-0.3,0,0.1,0.1,0.1c-1.7-0.1-3,1.1-4.3,1.6
		c-1.4,2.3-2.7,4.4-4,6.5c-0.6,1-1,1.9-2.1,2.6c-1,0.6-1.4,1.8-1.6,2.9c-0.8,3.7-2.9,6.9-4.6,10.2c-0.5,1-1.3,1.9-1.7,2.9
		c-1.3,3.5-4.1,5.9-6.1,8.9c-1,1.4-2.8,2.1-4.3,2.9c0.1-0.6,0-1.4,0.4-1.8c1.8-2.2,2.8-5,4.9-7c0.4-0.3,0.7-0.8,0.9-1.2
		c2.2-3.5,4.5-7,6.7-10.4c0.1-0.1,0.1-0.2,0.2-0.3c2-4.6,4.7-8.8,6.7-13.4c2.1-4.8,4.5-9.5,6.7-14.2c2.3-4.9,4.4-9.8,7.3-14.4
		c-0.8-0.8-1.5-0.3-2.2-0.2c-4,0.4-8,0.4-12,0c-7.6-0.8-15.2-2-22.8-2c-3.3,0-6.5-0.6-9.4-2.2c-0.9-0.5-1.8-0.8-2.9-1.3
		c-1.2,0.5-2.4,1.1-3.6,1.6c-0.8,0.4-1.6,0.7-2.5,0.5l0.1,0.1c0.7-1.8,2.7-1.5,4-3c0.1-0.4-0.5-0.7-1-1c-3.8-2.2-7.5-4.5-11.3-6.7
		c-2.6-1.6-4.8-3.6-6.8-5.9c-0.5-0.6-0.9-1.2-1.4-1.8c-0.4-0.6-0.3-1.5-1-2c-1.9,2-2.7,4.5-3.5,6.4c-0.2,1.9,1.6,2.6,1.4,4.1
		c-1.2,0.1-1.3-1.2-2.1-1.4c-0.2,0.1-0.6,0.1-0.6,0.2c-1.3,2.6-2.6,5.1-3.9,7.7c-0.8,1.6-1,3.3-1,5.1c0,1.7-0.2,3.2-1.1,4.7
		c-1.5,2.6-1.2,5.3-0.6,8c0.4,1.8,1.2,3.5,2.1,5.2c2.6,4.5,5.7,8.5,9.7,11.8c3.9,3.3,8,6.5,12.2,9.4c3.7,2.6,7,5.8,9.8,9.2
		c4.6,5.7,10,10.5,15.7,15.1c0.4,0.3,0.7,0.7,1.1,1c2.4,2,5.2,3.4,7.8,5c2.7,1.6,5.2,3.5,7.9,5c6,3.4,11.7,7.2,17.5,10.9
		L578.7,563.4z M374.1,581.2c0,0.2-0.2,0.5-0.1,0.7c1.3,3.1,1.9,6.4,3.9,9.2c1.2,1.7,2.4,3.5,3.7,5.4c-1.4,0.4-1.7-1.4-2.9-1.1
		c-0.1,0.2-0.2,0.5-0.2,0.7c0.8,3.8,0.7,7.7,1.1,11.6c0.3,2.4,1.5,4.5,2.8,6.5c2.1,3.1,4.2,6.2,6.5,9.2c1.2,1.5,2.9,2.7,4.4,4
		c2.3,2,4.5,3.9,6.9,5.8c5.5,4.2,11.8,7.1,18.4,9.1c4,1.2,7.8,2.8,11.9,3.3c0.7,0.1,1.5,0.4,2.2,0.3c4.4-0.5,8.7,0.5,13,1.2
		c5.6,0.8,11.2,0.2,16.9,0.3c-0.4-1-1.2-1.2-1.9-1.4c-8.4-2.5-16.3-6.5-24.3-10c-1.3-0.6-2.4-1.3-3.6-2c-0.7-0.4-1.2-0.9-1.9-1.1
		c-4.9-1.4-8.8-4.7-12.8-7.6c-5.2-3.7-10.1-7.8-14.9-12.1c-3.6-3.3-7.3-6.5-10.1-10.5c-1.3-1.8-2.8-3.5-4.3-5.2
		c-1.3-1.5-2.4-3.2-4.4-3.8c0.1-0.8,0.2-1.3,0.3-1.9c-0.7-1.2-1.9-2.2-3.1-3.1C378.7,586.8,376.3,584.1,374.1,581.2
		C373.9,581.1,374.1,581.3,374.1,581.2z M775.6,637.7c0.4,0.8,1.2,0.8,1.9,1.1c2.8,1,4.4,3.1,5.3,5.9c0.6,1.9,0.8,3.9,0.9,5.9
		c0,2.1-0.1,4.2,0.3,6.6c2.5-0.3,4.8-0.7,7.1-0.1c2.2,0.5,4.5-0.1,6.5,0.7c0.6,0.8,0.4,1.3,0.1,1.9c-0.9,1.6-2.2,2.6-4,3.1
		c-1.6,0.4-3.2,0.6-4.8,0.7c-1.6,0.1-3.3-0.3-4.8,0.2c-0.7,1.3-1,2.7-0.9,4c0.2,1.9-0.4,3.4-1.3,5c-0.7,1.3-1.5,2.6-2.3,3.9
		c0.5,0.1,0.8,0.3,1.2,0.2c7.8-1.8,15.5-3.8,22.7-7.6c3.1-1.6,5.5-4,8.1-6.1c0.4-0.3,0.7-0.7,0.9-1.2c2-3.9,4.6-7.5,6.2-11.7
		c-0.6-3.2,0.1-6.4,0.2-9.6c0-0.7,0.2-1.5,0.2-2.2c0-1.2-0.4-2.2-1.5-2.9c-0.6-0.4-1.3-0.8-1.9-1.2c-5.4-3.4-10.7-7-15.1-11.7
		c-1.2-1.2-2.5-2.1-4.2-2.3c-2.6-0.4-5.2-1.2-7.8-1.3c-5.2-0.2-10.1-1.6-15.1-2.6c-1.7-0.3-3.4-0.8-5.1-1.3
		c-1.5-0.4-2.9-0.5-4.4-0.4c-2.5,0.1-5,0-7.5-0.2c-6.4-0.5-12.7,0.5-19,1.8c-2.7,0.6-5.4,1.2-8,1.8c-2.4,0.6-4.8,1.4-7,2.6
		c-0.1,0.5-0.2,0.8-0.4,1.2c0.2,0.2,0.4,0.4,0.5,0.4c5.4-0.7,10.7-0.6,16.1-0.6c3.8,0,7.4,0.6,11,2.1c3.5,1.5,7,2.7,10.5,4.1
		c1.4,0.6,2.9,0.8,4.4,0.8c5.2-0.2,10.2,0.8,15.3,1.1c2.3,0.1,4.6,0.4,6.9,0.8c-3.5,0.9-7,0.4-10.4,0.4c-3.3,0.1-6.6-0.8-10.5-0.6
		c2.4,2.4,4,4.7,6.7,6.2c0.4,0.3,0.9-0.1,1.4-0.1C774.9,636.6,774.8,637.9,775.6,637.7L775.6,637.7z M596.7,484
		c8.1-4.9,16.5-8.8,25.5-11.9c9.8-3.4,19.4-7.3,29-11.4c4.4-1.9,8.8-3.8,13.4-5c6.6-1.6,12.6-4.8,19.1-6.8c0.2-0.1,0.4-0.3,0.8-0.5
		c0.1-3.2,0.4-6.4-1-9.7c-3.6-8.5-8.9-15.9-14.5-23.2c-0.3-0.4-0.6-0.8-1-1.1c-6.5-5.9-10.4-13.4-13.8-21.3
		c-0.5-1.1-0.6-2.4-1.6-3.2c-0.9,2.5-1.3,6.1-0.7,8.8c0.7,3.2,1.1,6.4,1.5,9.6c0.5,4.8,0.2,9.5-0.9,14.2c-0.4,1.7-0.6,3.5-0.8,5.2
		c-0.3,2.5-1.2,4.8-2.6,7c-0.7,1.1-1.3,2.1-1.9,3.2c-3.3,5.9-8.2,10.1-14.2,13c-5.3,2.6-10.8,4.6-16.8,5.3c-2.1,0.2-4.2,0.8-6.2,1.3
		s-2,0.5-4.4,0c-2,0.8-3.6,2.2-5.3,3.5c-1.9,1.4-3.6,3.1-5.4,4.6c-0.4,0.3-0.7,0.7-1,1.1c-3.3,4.9-7.7,8.8-11.6,13.3
		c-0.6,0.8-1.3,1.5-1.7,2.4c-2.6,5.4-5.2,10.9-7.7,16.3c-0.2,0.4-0.1,1-0.1,1.5h-0.2l0.1-0.1C580.6,494.6,588.4,489,596.7,484z
		 M692.2,495.7c-2.5-5.1-3.8-10.6-4.5-16.2c-0.2-1.5-0.4-3-0.8-4.4c-1.7-6.7-2.6-13.5-2.5-20.4c0-0.6,0.2-1.3-0.5-1.9
		c-1.4-0.1-2.8,0.7-4.2,1.2c-2.2,0.8-4.5,1.7-6.6,2.6c-1.7,0.7-3.5,1.3-5.4,1.7c-1.9,0.5-3.8,1.1-5.7,1.7
		c-8.7,2.8-17.1,6.5-25.6,9.7c-8,3-15.7,6.5-23.3,10.3c-9.2,4.7-18.2,9.4-26.7,15.4c-2.4,1.7-4.8,3.2-7.2,4.7c-2.9,4.6-4,9.7-5,14.9
		c-1.7,8.7-2,17.4-0.8,26.2c0.3,2,0.8,3.9,1.3,5.9c0.4,1.9,1.4,3.7,1.4,5.8c0,0.7,0.4,1.4,0.8,2.1c2.1,3.8,4.1,7.8,6.8,11.2
		c0.9,1.1,1.8,2,2.2,3.4c0.2,0.8,1,1.4,1.6,2c4.3,4.6,8.8,8.9,13.9,12.6c3.5,2.6,6.7,5.6,10,8.5c1.8,1.5,3.6,3,5.5,4.6
		c0.9-0.7,1.6-1.4,2.4-2c0.8-0.6,1.7-1.1,2.6-1.6c6.5-3.9,13.1-7.8,19.6-11.8c2.7-1.6,5-3.8,7.3-5.9c5.2-4.9,10.4-9.8,15-15.3
		c0.3-0.4,0.7-0.7,1-1.1c4.5-4.7,9.3-9.1,13.4-14.2c0.5-0.8,0.3-1.7,0.3-2.5c0-3.4,0-6.8,0.6-10.1c0.2-0.9,0.1-1.7,0.1-2.6
		c0.2-8.4,2.4-16.3,6.4-23.7c1.4-2.6,2.9-5.2,5.6-6.9c0.7-0.4,1.2-1.2,1.8-1.9c-0.6,2.7-1.7,5.2-3,7.7c-2.3,4.7-3.7,9.9-4.9,15
		c-1.6,6.3-2.7,12.7-2.8,19.3c0,2,0.3,4,0.6,6c0.8,5.3,2.7,10.4,4.4,15.5c2.5,7.5,4.7,15.1,5.9,22.9c0.5,3.4,0.7,6.7,0.7,10.1
		c0,2.7,0.2,5.5,1.4,8.2c2.5-0.5,5-0.7,7.3-0.2c0.9-0.5,1.2-1.2,1.2-2c0.5-6.8,0.6-13.5-0.6-20.2c-0.3-1.5-0.8-2.9-1.1-4.4
		c-0.8-4.5-0.5-9-0.1-13.5c0.1-0.6,0.2-1.2,0.5-1.8c1.2-3.1,2.4-6.3,3.8-9.4c0.8-1.8,1.1-3.6,0.9-5.5c-0.1-1.4-0.3-2.7-0.4-4.1
		c-0.1-1.4-0.4-2.8-0.2-4.1c0.9-4.9,0.3-9.7,0.5-14.6c0.1-2.3-0.1-4.5-0.5-6.7c-0.2-1.3-0.3-2.7-0.3-4.1c0-0.9,0.1-1.7,0.3-2.6
		c1.4,6.2,2.9,12.4,2.3,18.8c-0.1,1.1-0.1,2.3-0.4,3.4c-0.9,3.1-0.6,6.2-0.3,9.3c0.1,1.5,0.2,3,0.5,4.5c0.6,2.5,0,5-0.3,7.4
		c-0.1,0.9-0.4,1.7-0.9,2.4c-0.3,0.4-0.5,0.9-0.8,1.3c-3.9,6.6-3.3,14.4-1.8,20.8c1,4.4,1.8,8.8,1.5,13.4c-0.2,3.1-0.4,6.2-0.6,9.4
		c-0.1,0.7-0.3,1.4-0.5,2.3c0.1,0.4,0.3,0.8,0.4,1.3c0.4,1.7,1.6,2.5,3.2,2.6c3.4,0.4,6.2-0.3,8-3.9c-0.1-1.4-0.3-3-0.4-4.6
		c-0.2-2.6-0.4-5.2-0.5-7.9c0-0.7,0-1.5,0.2-2.2c0.9-2.8,1.1-5.6,1.6-8.5c0.1-0.5,0.2-1,1.1-0.8c-0.1,2.4-0.5,4.9-0.9,7.4
		c3.7,1.3,7.6,0.7,11.5,2.4c0.9,1.3,2,2.9,3.5,4.3c1.5,1.4,2.5,3.1,3.1,5.1c0.4,1.3,1.2,2.2,2.3,2.9c1.2,0.9,2.6,1.6,3.3,3
		c0.3,0.5,0.6,0.7,1.2,0.7c1.1,0.1,1.7,1,2.4,1.6c0.4,1.3,0.8,2.4,1.3,3.6c0.4,1.1,0.2,2.2,0,3.1c2.6,0.8,3.3,0.8,7.3,0
		c0.2-0.4,0.5-0.8,0.5-1.3c0.6-4.1,0.4-8.2-0.9-12.2c-0.8-2.5-1.7-5-2.5-7.5c-0.7-2.5-1.5-5.1-0.8-7.7l-0.1,0.1
		c0.6,0.4,1.2,0.9,1.3,1.7c0.1,0.9,0.3,1.9,0.6,3.1c0.6-1.1,0.9-1.9,1.4-2.6c0.4-0.6,0.9-1.2,1-2.1c-2.8-4.1-4.3-8.9-5.3-13.8
		c-0.6-3.1-2-5.9-3.9-8.5c-3.1-4.4-5.8-9.1-8-14c-0.7-1.5-1.7-2.8-2.9-4.1c-0.5-5-1-10.1-1.4-15.2c-0.3-3.4-0.6-6.7-0.8-10.1
		c-0.3-4.9,0.5-9.8,0.8-14.6c0.1-1.5,0.2-3,0.3-4.5c0.2-3.6,0.3-7.3,0.7-10.9c0.7-5.7,0-11.3-0.8-16.8c-0.1-0.7-0.3-1.5-0.3-2.2
		c0-6.1-1.5-11.9-2.4-17.9c-0.4-2.8-1.1-5.7-1.8-8.5c-0.7-2.7-1.8-5.2-3.5-7.4c-1.7-2.3-3.4-4.7-5.1-7c-2.2-2.9-3.9-6.1-5.4-9.4
		c-0.9-1.9-1.9-3.8-2.8-5.7c-1.7-3.2-3-6.6-4.3-10c-4.2-11.1-8.6-22.2-12.8-33.3c-2.7-7.1-4.9-14.2-6.7-21.5
		c-1.1-4.9-1.8-9.8-2.8-14.8c-0.5-2.6-1-5.2-1.6-7.7c-0.4-1.6-1.1-3-1.9-4.5c-3.2-5.9-7.3-11.1-11.9-15.9c-3.9-4-8.6-6.9-14-8.5
		c-3.2-1-6.4-2.1-9.6-3.2c-1.6-0.6-3.2-1.4-4.7-2.3c-3.6-2.1-7.1-4.1-11.1-5.4c-0.9-0.3-1.8-0.8-2.7-1.3c-0.6,0.6-0.1,1.1,0.1,1.7
		c3,8.1,6.4,16,10,23.9c2.8,6.3,5.5,12.7,8.1,19c2.3,5.6,3.2,11.6,4.7,17.4c1.3,5.1,2.3,10.2,3,15.4c0,0.4,0.2,0.7,0.3,1.1
		c1.2-0.8,1.5-2,2-3.1c1.2-2.7,3.3-4.7,5.4-6.7c0.8-0.8,1.9-1.2,3-1.5c0.2-0.1,0.5-0.1,0.7-0.1c1.3-0.1,2.7-0.3,4-0.5
		c-0.1,0.4,0,0.7-0.2,0.8c-2.9,1.3-5.8,2.5-7.6,5.3c-3.3,2-4.1,5.5-5.5,8.7c-0.4,0.9-0.8,1.9-1,2.8c-0.3,1.1-1.2,1.5-1.8,2.5
		c-0.3,3.9-0.5,7.9-0.8,12c0.9,1,1.7,2.3,2.3,3.7c2.3,5.6,5.1,10.9,8.9,15.6c4.7,5.7,9.2,11.6,13.8,17.4c3.3,4.1,5.8,8.8,8.2,13.5
		c0.6,1.2,1,2.6,1.4,3.9c0.3,1.2,0.5,2.3,1.4,3.4c1,1.2,0.8,2.8,0.9,4.3c0.2,5.4,0,10.8-0.8,16.1c-0.2,1.5-0.2,3,0,4.5
		c0.8,5.3,1.3,10.7,2.4,16c0.9,4.4,2.2,8.7,4.4,12.7c2,3.6,4,7.2,5.3,11.2c2.1,6.6,4.8,12.9,5.6,19.8c0.2,1.5,0.3,3,0.4,4.5
		c0,0.3-0.1,0.7-0.7,0.8c-0.3-1.7-0.6-3.4-1-5c-0.5-1.7-1.1-3.3-1.6-5c-0.9-3-2.1-5.9-3.2-8.8c-1.3-3.4-2.5-6.8-4.3-10
		c-0.8-1.5-1.5-3.2-2.8-4.4C692.7,497.1,692.6,496.3,692.2,495.7z M533.3,274.3c-0.3,0.9,0.3,1.2,0.6,1.7c2.3,3.6,4.6,7.2,7,10.7
		c4.7,7,8.1,14.7,10.2,22.9c1.8,6.9,4,13.7,5.3,20.7c0.2,1,0.4,2,0.5,3c1,6.1,2,12.1,3.4,18.1c1.6,6.9,1.4,13.9,0.5,20.9
		c-0.3,2.2-0.6,4.5-0.9,6.7c-0.5,3.5-1.7,6.8-3.2,10c-2,4-4.7,7.4-8.5,9.9c-1,0.7-2,1.4-2.6,2.6c-2.1,3.7-5.6,5.2-9.8,5.3
		c-2.3,0.1-4.5-0.6-6.5-1.6s-4-1.9-5.9-2.9c-1.1,0.3-1.3,1.1-1.5,1.7c-1.9,4.2-3.8,8.5-5.5,12.8c-1,2.3-1.4,4.8-1.9,7.3
		c-1.7,9.3-3.9,18.4-7.1,27.2c-0.1,0.3-0.1,0.7-0.2,1.2c1.1,1.7,2.1,3.6,3.7,4.4c0.8,0.7,0.4,1.2,0.5,1.6c0.3,0.9,1,1.2,1.7,1.5
		c5.4,2.5,10.3,5.7,15.5,8.4c2.1,1.1,4.3,2,6.4,3.2c2.1,1.1,4.2,1.4,6.5,1.5c5.9,0.2,11.7,0.8,17.6,1.8c4.5,0.7,8.9,1.2,13.4,1.6
		c2.9,0.3,5.7-0.3,8.6-0.6c1.1-0.1,1.9-0.6,2.6-1.4c3.1-3.4,6.7-6.4,9.1-10.4c2.3-3.9,5.6-6.8,9.5-8.9c3-1.6,6.4-2.2,9.8-2.4
		c0.8,0,1.7,0.4,2.8,0.7c4.7-1.8,9.6-3.7,14.5-5.7c2-0.8,3.8-1.9,5.7-2.9c4.3-2.3,7.5-5.8,10.1-9.9c0.9-1.4,1.7-2.8,2-4.4
		c0.2-0.8,0.5-1.7,1-2.4c0.5-0.8,0.8-1.7,0.7-2.5c-0.3-2.6,0.5-5,0.9-7.4c0.6-4,0.6-8,0.1-12c-0.3-2.5-0.6-5-0.9-7.5
		c-0.1-0.5-0.1-1,0-1.5c0.9-5.3,0.7-10.7,1.3-16.1c0.1-1.2,0.5-2.5,0.4-3.7c-0.2-1.3,0.1-2.5,0.1-3.7c0.1-2.3,0.6-4.5,1.9-6.2
		c-0.8-7.2-1.9-14.1-4.1-20.8c-1.7-5.2-3.9-10.3-5.9-15.4c-1.5-3.7-2.9-7.5-4.6-11.1c-2.8-6.3-5.1-12.8-7.5-19.2
		c-1.3-3.6-3-7.1-4.6-10.7c-1.2,1.4-1.2,3-1.9,4.4c1,1.3,1.8,2.7,2.3,4.2c1.7,5.1,3.5,10.2,5,15.4c1.6,5.4,2.4,11,3.2,16.6
		c0.7,4.6,1.1,9.2,1.7,13.8c0.1,1,0.1,2,0.2,3c0.2,3,0.5,5.9,1.4,8.9c2.1,7.2,3.2,14.7,2.9,22.3c-0.1,4.1-0.4,8.2-1.3,12.3
		c-0.7,3.1-1.9,5.9-3.6,8.9c-2,0-3.3,1.3-4.7,2.5c-1,0.9-2.1,1.8-3.2,2.6c-2.3,1.5-4.8,2.1-7.5,1c-1.9-0.8-3.7-1.5-5.5-2.4
		c-1-0.5-2-1.2-2.5-2.2c-1.6-2.9-4.1-5.1-6.2-7.5c-5.5-6.1-9.2-13.1-11.3-21c-1.1-4-2.4-7.9-2.6-12.1c0-0.9-0.3-1.7-0.7-2.5
		c-2.3-5.3-4.6-10.6-7.1-15.8c-4-8.4-7.8-16.8-11.2-25.4c-1.5-3.7-3.1-7.4-4.6-11.1c-0.6-1.5-1.5-2.9-2.6-4.1
		c-5.8-6.8-11.3-13.8-15.9-21.4c-0.5-0.9-1.1-1.7-1.7-2.5c-1.7-2.3-3.4-4.6-4.7-7.6C539.7,271.9,536.5,273.1,533.3,274.3z
		 M675.8,553.1c-4.6,5.4-9.2,10.9-14,16.2c-2.5,2.8-5.3,5.3-8.1,7.8c-1.9,1.7-3.9,3.1-6.1,4.3c-2.4,1.4-4.8,2.8-6.9,4.6
		c-5.7,4.7-12,8.5-18.5,12.2c-0.5,0.3-1.2,0.4-1.4,1.2c0.2,0.2,0.3,0.6,0.6,0.8c4.7,3.3,9.4,6.6,14.8,8.8c1.7,0.7,3.1,1.6,4,3.2
		c0.5,0.8,1.3,1.5,2,2.2c5.9-1.8,11.9-2,17.9-2.3c1.5,0.9,3,1.9,4.6,2.9c3.7-2.3,7.9-2.7,11.9-2.9c1.1-0.4,1.7-1.1,2.2-1.8
		c1.6-2,3.6-3,6.2-2.9c1.9,0.1,3.7-0.2,5.7-0.9c0.4-1.2,0.4-2.7,1.6-3.4c0-1.4-1.4-2-1.4-3.2c0-1-0.1-2-0.1-3
		c0.2-7.9-0.8-15.7-2.3-23.5c-0.6-3.1-1.6-6-3.1-8.8c-2.7-4.9-4.9-9.9-6.3-15.8C677.7,550.6,676.8,551.9,675.8,553.1z M735.6,608.4
		c-4.2-1.6-10.4-3-17.2-4c-2.1,1-3.4,3.3-5.9,3.9c-1.2-0.2-2.4-0.4-3.6-0.5c-1.9-0.1-3.4-0.8-4.4-2.4c-0.2-0.3-0.5-0.6-0.7-0.8
		c-3.2-0.6-6.2,0.9-9.4,1.1c-1.5,2.5-4.1,3.4-6.9,3.8c-0.9,0.1-1.7,0.3-2.6,0.4c-2.5,0.2-4,1.6-5.2,3.9c1,0.7,2,0.4,2.9,0.6
		c0.9,0.2,1.7,0.3,2.6,0.5c2,0.4,3.9,1,5.9,1.1c2.1,0.1,4.1,0.1,6.1,0.9c2,0.8,4,1.3,6,2.2c3.2,1.4,6.7,2.2,10.1,2.7
		c3.3,0.4,6.4,0.1,9.2-2.2c1.7-1.4,3.9-2.3,6.1-2.7c5-1,9.8-2.6,15-3.3C741.2,611.2,738.4,609.5,735.6,608.4z M566.4,172.9
		c-0.5,2.3-1.3,4.7-1.2,7c0.1,3.5-0.6,7-1,10.4c-0.4,3.6-0.9,7.2-1.4,10.8c-0.1,0.9-0.4,1.7-0.7,2.5c-1,2.5-1.3,4.9-0.8,7.6
		c0.5,2.9,0.1,6,0,9c-0.1,2-0.5,4-0.9,5.9c-0.1,0.3-0.3,0.6-0.5,1c-0.8-1.5-0.8-1.5-0.8-3.3c0-1.2,0.3-2.4-0.2-3.7
		c-1,0.6-1,1.5-1.1,2.3c-0.3,4.4-0.5,8.7-0.8,13.3c1.4,1.4,1.5,3.2,1.6,5.1c0.2,4.5,1.1,8.9,1.7,13.2c1.3,0.2,1.7-0.5,1.8-1.2
		s0.1-1.5,0.1-2.2c0-3.4-0.1-6.8,0-10.1c0.2-7.1,1.2-14.2,2.6-21.2c0.6-3.1,1.7-6,2.2-9.1c0.3-1.5,0.5-2.9,0.5-4.4
		c0-5.8-0.1-11.5,0-17.3c0-1.9,0.1-3.8,0.4-5.6c0.3-1.7,0.4-3.5,1.2-5.1c-1.1-1.7-0.5-3.7-1.7-5.6
		C566.7,172.5,566.4,172.7,566.4,172.9z M742.3,606c-0.5,0-0.9,0-1.6,0c-0.8-2-2.2-3.5-3.9-4.8c-1.2-0.9-2.2-2-2.5-3.6
		s-1.3-3-2.5-4.2c-1.4-1.4-2.8-2.9-3.4-4.6c-2-0.9-3.7,0.1-5.4-0.2c-1.6-0.3-3.1-0.7-5-0.5c0.1,4.8,2.3,9.4,0.5,14.2
		c8.7,0.7,16.9,2.5,24.4,6.9C743,607.6,743,607.6,742.3,606z M570,201.7c0.3,4.3-0.4,8.5-0.6,12.7c-0.2,3.9-0.4,7.8-0.6,11.6
		c0,0.7,0,1.5-1,1.8c-0.6-0.1-0.7-0.7-0.7-1.1c0.1-2.4,0.3-4.8,0.4-7.1c0.1-1.4,0.2-2.7-0.7-4.6c-1.1,9.8-1.8,19-1.9,28.2
		c0,1.9-0.1,3.9,0.2,6.1c3.2-2,2.8-5.1,3.2-8.2c0.5,0.9,0.8,1.5,1.2,2.4c1.4-1,2.2-2.1,2.3-3.7c0.1-0.9,0.1-1.8,0.1-2.6
		c0.1-8,0.2-16,0.3-24.1c0-2.4,0.2-4.8,0.4-7.1c0.2-2-0.6-3.6-2-5.4C570.2,201.3,570,201.5,570,201.7z M693.5,618.3
		c-5.4-1.1-10.8-1.8-16.6-2.2c-1.4,0.3-2.7,1.8-4.5,1.8c-0.9-0.2-0.9-1.2-1.3-1.6c-0.9,0-1.6,0.2-2.2,0.6c0.1,0.2,0.1,0.4,0.3,0.5
		c4.4,2.6,9.2,4.5,14,6.2c2.3,0.8,4.7,0.8,7,0.7c6.2-0.3,12.5-0.7,18.7-1.1c0.2,0,0.4-0.1,0.9-0.3
		C704.4,620.5,698.9,619.5,693.5,618.3z M599.4,161.8c-2.1,0.5-4.2,0.7-6.2-0.4c-1.2-0.7-2.7-0.5-4.1-0.5c-3.5-0.2-7-0.6-10.4-1.7
		c-0.6-0.2-1.2-0.4-1.3-1.2c1.1-0.9,2.5,0.1,3.6-0.4c0.2-0.6-0.2-0.9-0.6-1.2c-1.3-0.8-2.5-1.6-3.8-2.4c-1.5-1-2.9-2-3.9-3.5
		c-0.3-0.4-0.6-0.8-1.2-0.8c-0.2,0.1-0.5,0.2-0.5,0.4c-0.2,1.6-0.3,3.2-0.5,4.9c4.1,3.4,8,6.8,12.9,8.9c0.9,0.4,1.8,0.7,2.9,0.8
		c2,0.2,3.8-1,5.9-0.6c1.8,0.3,3.7-0.2,5.6-0.5c1-0.2,1.9-0.6,3-1C600.4,161.7,599.9,161.7,599.4,161.8z M581.6,168.7
		c2.4,0.9,5,0.5,7.5,0.2c3.8-0.5,7.6-1.5,11.3-2.8c0.6-0.2,1.2-0.5,1.4-1.4c-2.3-0.1-4.3,1.1-6.5,1.4c-2.4,0.3-4.7,0.8-7.1,0.8
		c-2.2-0.1-4.5,0-6.6,0c-1-1.1,0.5-1.3,0.1-2.5c-1.5-0.9-3.8-1.1-5.7-2.3c-1.9-1.2-3.3-2.9-5.1-4.4c-0.8,2.2-0.8,2.2-0.5,5.4
		C573.9,165.8,577.8,167.2,581.6,168.7z M602.4,113c-1.5-2.4-2.9-5.1-6-6.3c-1.9,0.1-4.1-0.4-6.1,0.3c-0.2,0.7,0,1.1,0.5,1.3
		c0.2,0.1,0.4,0.2,0.7,0.3c3.3,1.1,6,3,8.1,5.6C601,114.1,601.9,114.2,602.4,113z M784,658.4c-0.3,1.1-0.2,2.3,0.2,3.7
		c3.4-0.1,6.7-0.2,9.9-1.4c1-0.4,2.1-0.8,2.3-2.2C792.6,657.6,787.5,657.6,784,658.4z M400.9,507.7c-2.8,1.8-4.3,4.5-6.6,7.1
		c4-0.3,7.5-1.3,11.8-2.4C404.1,510.5,402.5,509.2,400.9,507.7z M579.4,213.6c-0.2-0.1-0.5,0-0.7-0.1c-0.2,0.2-0.5,0.3-0.5,0.5
		c-0.4,2.3-0.4,4.6-0.1,7.6c1.7-2.7,1.5-5.2,2.1-7.4C579.8,213.9,579.6,213.7,579.4,213.6z M607.1,112.4c-0.9-1.6-2.4-2-3.9-2.8
		c0.1,1.8,0.1,1.8,1.5,3.5C605.7,113.4,606.4,113.2,607.1,112.4z M575,212.3c1.8-1.7,1.8-1.7,0.1-3.7
		C574,210.1,574.5,211.1,575,212.3z M674.4,187.1c-0.2,0.1-0.3,0.3-0.4,0.4l0.2,0.2c0.2-0.1,0.4-0.2,0.6-0.3
		C674.6,187.4,674.5,187.2,674.4,187.1z"/>
	<path d="M545.1,316.7c-0.3-0.3-0.7-0.5-0.9-0.8c-2.7-4-6.6-5.6-11.3-5.5c-2.1,0-4.2,0.2-6.4,0.3c-4.5,0.2-8.3-1.2-11.6-4
		c0.1-0.8,0.5-1,1-1.1c0.1,0,0.2,0.1,0.4,0.1c5.8,2.1,11.6,3.9,17.9,3.5c3.5-0.2,6.6,1.4,9.4,3.3c1.3,0.8,2.3,2,2.4,3.7
		C545.7,316.3,545.4,316.5,545.1,316.7z"/>
	<path d="M426.6,615.2c-2.7-1.8-5-4.1-7.4-6.3c-4.2-4.1-7.9-8.6-10.9-13.7c-0.8-1.4-1.7-2.8-2.1-4.4c-0.1-0.5-0.2-1,0.6-1
		c0.9,1.6,1.8,3.3,2.8,4.8c3.2,5.1,7,9.7,11.3,13.9c1.6,1.6,3.2,3.2,4.7,4.8C426.1,613.8,426.7,614.4,426.6,615.2L426.6,615.2z"/>
	<path d="M480.6,346.2c-0.8,3.5-1.5,7.1-2.6,10.5c-0.7,2.5-1.3,5.1-1.4,7.7c-0.2-6.1-0.1-12.2,2.3-18c0.3-0.7,0.5-1.5,1.4-1.5
		C480.8,345.2,480.7,345.7,480.6,346.2z"/>
	<path d="M439.5,556.8c2.1,0.4,4.2,0.8,6.2,1.4c2.5,0.8,4.9,1.8,7.5,2.3c0.5,0.1,1.2,0.2,1.2,1.3c-5.6-1.7-11.3-2.1-17.3-3.3
		C437.6,556.9,438.5,556.6,439.5,556.8z"/>
	<path d="M581.2,600.3c-0.3,0.5-0.6,0.8-0.8,1c-4.2-0.9-7.8-3.4-9.7-7.1C573.7,597,578.2,597.3,581.2,600.3z"/>
	<path d="M448.3,431.2c-0.2-1.6-0.1-3.3,1-4.6c0.3-0.4,0.7-0.7,1.5-0.2c-0.1,3.8-0.4,7.7,0.4,11.6
		C449.7,435.9,448.6,433.7,448.3,431.2z"/>
	<path d="M408.7,530.9c1-0.2,2-0.1,2.9,0.2c2.9,1.1,5.5,2.8,8.1,4.5c-1.1,1-1.8,0.2-2.5-0.2c-2.5-1.5-5.3-2.2-8.2-2.3
		c-0.4,0-0.7-0.2-1.3-0.3C407.6,531.7,407.8,531.1,408.7,530.9z"/>
	<path d="M436,513.6c0.3,2.8,0.8,5.4,2,8c0.1,0.2-0.2,0.6-0.4,1c-1.9-0.4-2.3-1.9-2.6-3.3c-0.3-1.9-0.3-3.7-0.4-5.6
		c0-0.5,0.2-0.9,0.9-1C435.7,512.9,436,513.2,436,513.6z"/>
	<path d="M538.8,387.2c1-3.4,2.6-6.4,4.7-9.3c0.2-0.2,0.6-0.3,1-0.4c0.2,0.3,0.4,0.5,0.4,0.7c0,1.9-1.2,3.2-2.1,4.7
		C541.7,384.6,540.6,386.3,538.8,387.2L538.8,387.2z"/>
	<path d="M404,570c1.4,0.1,2.7,0.5,4,0.9c1.1,0.3,2.4,0.1,3.3,1.2c-4.8,0.5-8.2-0.1-11.1-1.9C401.7,568.8,402.9,569.9,404,570z"/>
	<path d="M474.2,375.6c-0.3-1.2-0.2-2.5-0.1-3.7c0-0.5,0.3-0.9,0.9-1c1.3,2.6,1.4,6.1,0.1,11.7C474.9,379.8,474.7,377.7,474.2,375.6
		z"/>
	<path d="M511.7,556.5c2.8,0.8,5.7,1.4,8.3,2.9c0.2,0.1,0.2,0.4,0.3,0.6c-0.2,0.1-0.5,0.3-0.7,0.3c-2.5-0.4-4.9-0.9-6.9-2.4
		C512.2,557.5,511.7,557.1,511.7,556.5L511.7,556.5z"/>
	<path d="M483,492.5c2.7,1,5.7,1.5,7.8,3.9c-0.3,0.5-0.4,0.8-0.7,1.2c-0.5-0.2-1-0.3-1.3-0.6C487,495.4,484.6,494.5,483,492.5
		L483,492.5z"/>
	<path d="M425.1,539.9c1.1,1.3,1.9,2.8,2.1,5c-1.6-1.2-2.8-2.3-3.6-3.6c-0.3-0.4-0.4-0.9,0.1-1.7
		C424.3,539.3,424.7,539.5,425.1,539.9z"/>
	<path d="M469.3,564.7c-2.8,0.1-5.3,0.5-7.5-1.4C464.2,563.2,466.7,563.1,469.3,564.7z"/>
	<path d="M749,458.1c0.5,0.4,0.8,1,0.6,1.6c-0.2,1.2-0.7,2.3-1.9,3.1C746.7,459.3,746.8,458.8,749,458.1z"/>
	<path d="M624.1,637.8c-1.5-1.8-1.4-2.4,0.9-4.5c0.3,0.2,0.6,0.3,1,0.6C625.7,635.4,625.4,636.8,624.1,637.8z"/>
	<path d="M513.9,299.9c2.3-0.3,4,0.4,5.1,2.9C516.4,303,515,301.7,513.9,299.9L513.9,299.9z"/>
	<path d="M612,639.6c-0.6-1.8,0.1-3,1.6-3.9C614.6,637.5,614.4,638.1,612,639.6z"/>
	<path d="M745.3,468.1c-0.9-2.9-0.8-3.4,0.8-4.4C747,465.3,746.6,466.7,745.3,468.1z"/>
	<path d="M635.2,632.1c0.4-0.8,1-1.5,2.5-1.7c-0.9,1.7-1.6,3-2.5,4.8C633.9,633.7,634.8,632.8,635.2,632.1z"/>
	<path d="M637.4,640.1c-0.4-1.6,0.1-2.7,1.7-3.2c0.5-0.2,1.2-0.3,1.4,1c-1.3,0.2-1.9,1.6-3.2,2L637.4,640.1z"/>
	<path d="M614.7,618.9c2.6,1.5,2.8,1.8,2.5,3.8C616,621.6,614.7,620.6,614.7,618.9L614.7,618.9z"/>
	<path d="M472.8,564.9c1.8-0.2,1.8-0.2,3.6,1C473.9,566.1,473.9,566.1,472.8,564.9z"/>
	<path d="M436.2,623.1c-1.4-0.3-2.6-0.8-3.4-2.7C435.2,621.7,435.3,621.7,436.2,623.1z"/>
	<path d="M431.2,550.4c-1,0-1.8-0.7-2.5-1.3c-0.4-0.4-0.5-0.8,0.1-1.3C429.9,548.3,431.2,548.7,431.2,550.4L431.2,550.4z"/>
	<path d="M743.8,467.7c0.6,1.2,0.7,2.1-0.6,2.9C742.7,469.4,742.3,468.4,743.8,467.7z"/>
	<path d="M548.1,580.8c1.4-0.2,2,0.4,2.6,1.8C549.4,582.1,548.6,581.8,548.1,580.8z"/>
	<path d="M477.4,392.8c1.2,0.9,1.2,0.9,1,3.2C477.7,394.8,477.3,393.9,477.4,392.8z"/>
	<path d="M476.9,489.6c0,0.1-0.2,0.3-0.4,0.6c-0.8-0.3-1.5-0.7-1.6-1.6C476.1,488.4,476.1,488.4,476.9,489.6z"/>
	<path d="M430.5,618.1c-1.4-0.1-2.2-1.2-3.1-2.1l-0.1,0.1C428.7,616.2,429.6,617.1,430.5,618.1L430.5,618.1z"/>
	<path d="M454.8,448c0.1,0.2,0.3,0.5,0.2,0.6c-0.2,0.4-0.6,0.8-0.9,1.1c-0.1-0.1-0.2-0.2-0.2-0.3c-0.2-0.6,0.1-1.3,0.6-1.5
		C454.6,448,454.8,448,454.8,448z"/>
	<path d="M453.5,443.6c0.2,0.4,0.2,0.9-0.2,1.4c-0.3-0.2-0.6-0.4-0.8-0.7c-0.3-0.4-0.2-0.9,0.2-1.3
		C453,443.2,453.3,443.3,453.5,443.6z"/>
	<path d="M611.7,615.5c0.6,0,0.8,0.3,1,1C611.6,616.5,611.5,616.1,611.7,615.5z"/>
	<path d="M402.5,585.1c0.8-0.1,1.4,0,1.1,1.2C403.1,585.9,402.5,585.8,402.5,585.1L402.5,585.1z"/>
	<path d="M504.5,552.9c0.2,0,0.4,0.1,0.6,0.2c-0.1,0.1-0.2,0.2-0.2,0.2c-0.2,0-0.4-0.1-0.6-0.2C504.4,553.1,504.5,552.9,504.5,552.9
		z"/>
	<path d="M512.4,299.2c0.6,0,1.2,0,1.5,0.7l0.1-0.1C513.3,299.9,512.6,300,512.4,299.2L512.4,299.2z"/>
	<path d="M510.1,555.8c0.6,0,1.2,0.1,1.6,0.6l0.1-0.1C511.2,556.3,510.6,556.2,510.1,555.8L510.1,555.8z"/>
	<path d="M483.1,492.5c-0.4,0.1-0.7,0-1.5-0.7C482.5,492,483,491.8,483.1,492.5L483.1,492.5z"/>
	<path d="M566.6,590.3c-0.6,0-1.3,0.2-1.5-0.8l-0.1,0.1C565.7,589.6,566.3,589.6,566.6,590.3L566.6,590.3z"/>
	<path d="M431.1,619c0.3,0,0.6-0.1,0.8,0.3C431.4,619.6,431.3,619.2,431.1,619L431.1,619z"/>
	<path d="M559.1,586.5c-0.3,0-0.6-0.1-0.9-0.2C558.7,586,558.8,586.4,559.1,586.5L559.1,586.5z"/>
	<polygon points="476.6,387.1 476.8,387.1 476.8,387.4 	"/>
	<polygon points="446.7,630.6 446.5,630.6 446.5,630.4 	"/>
	<path d="M538.7,387.2c0,0.2-0.1,0.4-0.1,0.6c-0.1-0.1-0.2-0.2-0.3-0.3C538.4,387.4,538.6,387.3,538.7,387.2L538.7,387.2z"/>
	<path d="M402.6,585c-0.3-0.1-0.3-0.1-0.2-0.2C402.5,584.9,402.5,585,402.6,585L402.6,585z"/>
	<path d="M559,586.6c0.1,0,0.2,0.1,0.3,0.2c0,0,0,0.1,0,0.2C559.3,586.8,559.2,586.6,559,586.6L559,586.6z"/>
	<path d="M565.1,589.5c-0.4,0-0.5-0.1-0.3-0.2C564.9,589.4,565,589.5,565.1,589.5L565.1,589.5z"/>
	<path d="M567.3,591.1c-0.4-0.1-0.7-0.3-0.7-0.8l-0.1,0.1C567,590.4,567.3,590.6,567.3,591.1L567.3,591.1z"/>
	<path d="M567.2,591.1C567.1,591,567.6,591.4,567.2,591.1L567.2,591.1z"/>
	<path d="M512.5,299.1c-0.1,0-0.2,0-0.3,0s-0.1-0.2-0.1-0.2C512.2,298.7,512.4,298.9,512.5,299.1L512.5,299.1z"/>
	<path d="M510.2,555.7c-0.1-0.1-0.1-0.2-0.2-0.3C510,555.6,510.1,555.7,510.2,555.7L510.2,555.7z"/>
	<path d="M427.4,615.9c-0.3-0.3-0.5-0.5-0.8-0.8l-0.1,0.1C427.1,615.2,427.3,615.5,427.4,615.9L427.4,615.9z"/>
	<path d="M431.1,550.5c0.1,0.1,0.1,0.1,0.2,0.2C431.2,550.6,431.2,550.5,431.1,550.5L431.1,550.5z"/>
	<path d="M614.8,618.8c-0.1,0-0.2,0-0.3,0s-0.1-0.1-0.1-0.2C614.5,618.8,614.6,618.8,614.8,618.8L614.8,618.8z"/>
	<path d="M430.4,618.2c0.4,0.1,0.7,0.3,0.7,0.8l0.1-0.1C430.8,618.8,430.5,618.6,430.4,618.2L430.4,618.2z"/>
	<path fill="none" d="M571.9,181.8c0.3-2,0-4-0.7-5.9c-0.3-0.7-0.4-1.5,0.6-2.1c2.4,1.3,5.2,1.3,7.9,1.3c6.3,0,12.5,0.1,18.7-1.4
		c1.8-0.5,3.6-0.9,5.3-1.9c1.2-0.7,2.3-1.5,2.7-2.7c-0.3-0.5-0.6-0.7-1-0.7c-2.8,1.7-2.8,1.6-6.3,2.2c-0.6,0.1-1.2,0.3-1.8,0.5
		c-1.1,0.5-2.4,0.8-3.6,1c-5,1-10,0.8-15,0.4c-1.4-0.1-2.7-0.3-4.1,0.1c-1.2,0.3-2.5,0.4-3.7-0.3c-1-1.2-1.1-2.4,0-3.6
		c0.1-0.1,0-0.5,0-1.2c0-0.2-1.7-0.5-0.5-1.6c0.8-0.1,1.4,0.4,1.9,1c0.9,0.9,1.8,1.7,3,2.2c3.5,1.3,7,2.5,10.9,2.3
		c2.4-0.1,4.7-0.6,7-1c2.8-0.5,5.5-1.7,8.3-1.3c1.4-1.2,2.9-1.8,4.4-2.5c1-0.5,2-1,2.7-1.9c0.5-0.7,0.6-1.4-0.4-1.7
		c-1.6,0.1-2.7,2.4-4.8,1.2c0.5-1.6,1.5-2.3,3-2.6c0.5-0.1,0.9-0.4,1.3-0.6c0.2-0.7,0.3-1.3,0.5-1.8c1.4-1.5,3.9-2,4.1-4.4
		c-0.7-0.7-1.3-0.6-1.8-0.2c-1.2,0.9-2.4,1.8-3.5,2.8c-1.2,1.2-3,1-4.4,2.1c-1.6,1.2-3.4,1-5.3,0.5c0.2-0.4,0.3-0.7,0.4-0.8
		c1.9-0.9,4-1.2,6.1-1.5c0.7-0.9,2.2-1.5,1.4-3.1c-1.8,0.1-3,1.6-5.3,1.6c-1.6-0.3-4-0.8-6.3-1.3c-0.5-0.1-1.2-0.2-1-1.3
		c1.1,0,2.2,0,3.3,0c2.6-0.1,5.2-0.6,7.7-1.4c0.5-0.1,1-0.4,1.3-0.7c0.5-0.5,0.5-1.1-0.3-1.6c-2.1,0.4-4.2,1-6.5,1.3
		c-2.2,0.3-4.5,0.4-6.7,0.6c-4.2,0.4-8.2,0-12.2-1.3c-0.2-0.1-0.3-0.3-0.5-0.4c-0.1-0.1-0.3-0.1-0.3,0c-0.2,0.2-0.1,0.4,0.2,0.4
		c0.2,0,0.5,0,0.7,0c-0.1,0.8,0,1.5,0.7,2.3c2.4,0.7,5.1,1.2,7.7,2.2c2.6,1,5.5,1.2,8,2.7c-0.9,1.1-1.9,1-2.9,1.1
		c-3.2,0.1-6.5,0.4-9.9-0.7c0.2-1.5-1-2.2-2-2.9c-2.6-1.9-5.1-4-7.2-6.5c-0.9-1.1-1.7-2.2-1.5-3.7c0.2-1.7,0.8-3.3,1.8-4.9
		c2,0.6,2.9,2.5,4.6,3.3c1.8,0.9,3.4,2,5.4,2.4c0.7-1,1.7-1.1,2.7-1c3.1,0.3,6.2,0.5,9.3,0.9c1.3,0.1,2.6,0.1,4,0.9
		c-0.8,0.9-1.7,1-2.5,1c-2.8,0.1-5.5,0.1-8.3,0.2c-1.9,0.1-3.8,0.1-5.6,0.3c-0.5,0-0.9,0.2-0.9,1c1.3,0.6,2.8,0.7,4.3,0.7
		c5.7,0.2,11.3,0,16.4-1.9c2.2,0.5,4.2,0.9,6.1,1.3c1.1,0.2,1.5-0.3,1.8-1.9c-1.4-1-2.7-1.9-4.6-2.1c-3.5-0.4-7-0.7-10.3-1.8
		c-0.3-0.1-0.8-0.1-1.1-0.1c-2.3,0.3-4.5-0.1-6.7-0.4c-2.2-0.2-4.5-0.5-6.5,0.1c-4-2.5-5.3-3.6-6.6-5.8c2-3.3,4.8-6,7.2-9
		c0.1-0.2,0.5-0.1,0.8-0.2c1,1.1,2,2.3,3,3.4c-0.5,0.7-1.4,0.2-1.7,0.9c0,0.1,0.1,0.3,0.2,0.3c7,3.6,14.6,5.6,21.7,8.4
		c0.8,0.8-0.8,1.5,0.2,2.1c1-0.5,1.9-1.1,2.9-1.6c1.8-0.6,3.9,1.8,5.5-0.2c0.2-1.2-1.4-1.3-1.1-2.4c1.4-0.7,3.1-1.2,4.3-2.2
		c1-0.9,2.1-1.5,3.4-1.7c0.1-1.2-0.6-1.9-1.3-2.3c-0.8-0.6-1.8-0.9-2.8-1.1c-1.5-0.2-3-0.5-4.4-0.9c-1.3-0.3-2.7-0.4-3.6-2
		c1.5-0.6,2.8,0,4.1,0.3c1.4,0.3,2.7,0.6,4.1,0.8c1.3,0.2,2.6,0.8,3.8,0.7c0.4-0.9,0-1.2-0.5-1.3c-2.7-0.6-5.3-1.6-8.1-1.4
		c-3.8,0.2-7.5-0.1-11.2-0.1c-2.1-2-4.7-3.3-7.1-4.8c-0.5-0.3-1.1-0.6-0.9-1.5c1.2-0.6,2.5-1.3,4-2.1c2.9,1.6,6.4,1.9,8.9,4.1
		c0.8-0.3,1.4-0.5,2-0.7c1.1,0.5,2.2,1.1,3.4,1.5c5.6,2,11.1,4.3,16.9,5.9c0.1,0,0.2-0.1,0.3-0.2c0.1-0.5-0.1-1-0.6-1.2
		c-1.1-0.5-2.3-1.1-3.4-1.5c-3.4-1.3-6.8-2.5-10.2-3.8c-0.6-0.2-1.4-0.3-1.5-1.2c1.2-0.4,2.3,0.2,3.3,0.5c9,3,17.2,7.4,25,12.8
		c0.8-0.5,1.6-0.9,2.5-1.5c0.9,1,2.3,0.5,3.3,1.4c1.3,1,1.5,3.2,3.4,3.7c1.3-1.2-0.8-2-0.1-3.2c0.6,0.2,1.1,0.4,1.7,0.5
		c0.7,0.1,1.5,0,2.2,0c1.3,0.5,2.2,1.8,3.5,1.8c0.5-0.2,0.6-0.6,0.5-1.4c-1.5-0.5-2.3-2.1-3.3-3.4c-0.8-1.1-1.9-2-2.9-2.9
		c-0.5-0.5-1.3-0.8-1.4-1.6l0,0c1.8,0.1,3,1.3,4.1,2.4c1.8,1.7,3.6,3.5,5.1,5.5c0.4,0.6,0.8,1.3,2,1.5c0-3.2-2.9-4.5-4.2-6.9
		c-0.2-1.3-0.5-2.8-0.7-4.2c0-0.1,0.1-0.2,0.2-0.3c0.6-0.3,1,0,1.2,0.5c1.8,4,5.1,7.2,6.3,11.5c0,0.1,0.1,0.2,0.2,0.3
		c0.5,0.5,1.1,0.6,1.6-0.1c0.3-2-1.8-3.2-1.7-5.2c0.3,0.1,0.6,0,0.7,0.1c3,3.1,5.4,6.6,7.2,10.5c0.5,1.1,0.5,2.5,1,3.6
		c1.2,2.6,1.9,5.4,2.6,8.2c1.3,5.1,1.9,10.3,4,15.2c0.2,0.5,0.2,1-0.4,1.3c-1,0.2-1.9-0.3-2.8-0.6c-3.8-0.9-7.4,0.4-11.1,0.5
		c-0.7,0-0.9,0.8-0.6,2.2c1.1,0.5,2.2,1,3.3,1.4c4.1-0.7,8-2.2,12.1-0.4c-0.1,2.3-1.1,5.9-3,10.1c-2.1-0.9-4.1-2.6-6.6-2.1
		c-2.4,0.5-4.8,1.2-6.7,3.1c0.2,0.4,0.3,0.8,0.4,1c0.9,0.5,1.7-0.6,2.5-0.2c1.4,1.2-0.7,2.3,0.1,3.5c0.8,0.1,1.5,0.2,2.2,0.3
		c0,0.8-1,1.2-0.5,2.1c2.4,1.2,4.2,0.9,5.6-0.9c0.9-1.2,1.8-2.4,2-4c0.1-0.5,0.5-0.9,1.1-0.7c0.8,0.5,0.5,1.3,0.5,2
		c0.2,2.2-0.1,4.6,0.6,6.7c0.7,2.1,0.9,4.1,0.9,6.2c0.1,2.8,0.1,5.5,0.1,8.3c0,1.9,0,3.8-0.4,5.6c-1.1,5-2.5,9.9-4.6,14.7
		c-2.8,6.4-5.9,12.7-7.9,19.5c-1,3.4-2.8,6.4-5.2,9.1c-1.1,1.2-2.3,1.8-3.9,1.9c-4.2,0.1-8.5,0.4-12.7,0.6c-1.8,0.1-3.5-0.2-5.2-0.6
		c-1.4-0.3-2.9-0.7-4.3-1c-0.5-1.3-1.6-1.6-2.7-1.7c-2.3-0.2-4.4-1-6.5-1.7c-4.2-1.3-8.1-3.2-12.3-4.1c-1.5-1.5-2.7-3.2-4.4-4.3
		c-1.6-1.1-2.5-3.1-4.4-3.8c-1.2,0.7-0.7,1.4-0.2,1.9c2,2,4.2,4,6.2,6c1.3,1.3,2.7,2.2,4.4,2.8c2.2,0.7,4.2,1.6,5.9,3.1
		c3.8,0,7,1.9,10.5,2.7c-0.2,0.4-0.3,0.7-0.4,0.8c-3.6,2.6-5.3,6.2-5.7,10.6c-0.1,1.6-0.4,3.2-1,4.8c-2.2,5.6-4,11.3-5.3,17.2
		c-0.4,1.7-1,3.4-1.9,4.9c-0.5,0.9-0.9,1.7-1.2,2.7c-1.1,4.6-1.3,9.4-1.9,14.1c0,0.3,0.5,0.5,0.8,0.2c1.8-6.1,2.8-12.6,6.3-18.2
		c1.1,1.1,0.9,2.3,1.1,3.3c1.4,6.1,2.9,12.2,4,18.3c2,11.2,3.4,22.5,5.5,33.7c0.8,4.2,1.1,8.4,2.2,12.6c1.1,4.1,1.5,8.3,1.9,12.6
		c0.1,1-0.2,2-0.3,3c-0.1,0.7-0.6,1.4-0.6,2.2c0,3.8-1.8,7.3-2.2,11c-0.2,2.1-1.5,3.7-3.4,4.7c-1.5,0.9-3.1,1.7-4.6,2.5
		c-0.5,0.3-1.1,0.5-1.9,0c0-3.5-0.9-7-2.5-10.4c1-2.2,0.8-4.5,0.6-7c-1.1,0.3-1.3,1-1.5,1.8c-0.1,0.6-0.3,1.2-1.2,1.2
		c-1.2-1.6-2.4-3.2-3.6-4.8c-1.2-1.7-2.3-3.6-4.2-4.5c-0.3,0.3-0.5,0.5-0.9,0.9c3.3,2.9,5,6.8,6.4,10.8s2.9,7.9,3.4,12.5
		c-1.7-0.6-3.1-1.1-4.5-1.6c-0.7-0.3-1.3-0.7-1.7-1.4c-1.8-3.2-4.5-5.7-6.8-8.5c-3.8-4.5-6.8-9.6-9-15.1c-0.4-0.9-1-1.8-0.6-2.9
		c0.4-1.2,0-2.2-0.3-3.3c-0.8-3.1-1.6-6.3-2.4-9.5c-1.5-5.3-3.1-10.6-5.6-15.5c-3.8-7.5-7.4-15.1-11.1-22.6
		c-0.4-0.9-1.2-1.9-1.1-2.7c0.4-1.6-0.4-2.7-0.9-3.9c-1.9-4.7-4.5-9-7.1-13.2c-5.8-9.5-12.7-18.4-19.5-27.1c-1.6-2-3.2-4.1-4.9-6.2
		c0.6-0.4,1-0.7,1.4-0.9c5-2.8,9.9-5.9,14.4-9.4c1.6-1.2,3.1-2.6,4.3-4.2c3.8-5,7.6-10,9.5-16.1c0.1-0.4,0.2-0.7,0.4-1
		c1.8-3.2,2.8-6.7,3.7-10.2c0.7-3,1.4-6.1,2.1-9.1c0.2-1,0.8-1.5,1.9-1.6c1.2,0.8,2.5,1.6,3.7,2.4c0.4-0.1,0.8-0.3,1.1-0.3
		c0.5,0,1,0.1,1.3,0.1c1.3,0.9,1.5,2.1,1.5,3.4c0.1,1.2,0,2.6,1,3.5c1.4,1.4,1.9,3.2,2.1,5.1c0.2,2.1,1.3,3.8,2.4,5.5
		c0.4,0.7,1.2,0.9,1.9-0.3c-2.3-3.8-3-8.3-4.6-12.5c-0.4-0.9-0.4-2-0.7-2.9c-0.4-1-1.1-1.9-1.6-2.9c0.2-0.6,0.5-1.2,0.7-1.7
		c-0.2-0.6-0.5-1-1.3-1.1c-1.3,0-2.3,2.2-4.3,1.4c-1.3-1-2.9-2.1-4.3-3.3c-2.4-2.2-4.9-4.3-6.3-7.4c-1.8-3.6-3.5-7.2-4.4-11.1
		c-1-3.8,0.4-6.9,2.7-9.7c0.8-1,1.8-2.1,3.5-2.2c1.3,0.5,2.4,1.5,3.2,2.8c1.1,2,3,2.9,5,3.7c0.5,0.2,1,0.1,1.5,0.3
		c0.6,0.2,0.7,0.6,0,1.2c-1.8-0.6-3.8-0.8-5.5-2s-3.3-2.6-4.7-3.8c-1,0-1.5,0.5-1.8,1c-1.3,2.4-2.3,5-2.6,7.8c0,0.3,0.3,0.7,0.9,0.7
		c1.4-0.8,2-2.3,2.6-3.8c0.2-0.7,0.3-1.5,1.3-1.8c1,0.6,1.9,1.4,2.2,2.6c-1.4,1.8-3.9,2.4-4,4.7c0.2,1.1,0.7,1.5,1.6,1.6
		c1.9-0.5,2.7-2.5,4.4-3.2c0.6,0.1,1,0.2,1.1,0.9c0,0.8-0.6,1.3-1,1.9c-0.4,0.7-0.8,1.3-1.1,2c-0.7,1.7-0.3,3.2,1.3,4.2
		c0.7,0.5,1.7,0.5,2.3,1.3c0,1.3-2.1,1.5-1.7,3c0.4,0.8,1.5,0,1.9,0.8c-0.1,0.8-0.5,1.8,0.8,2.2c1.3-0.2,1.7-1.3,2.2-2.3
		c0.5-0.9,0.7-1.9,0.5-2.9c-0.1-1-0.7-1.9-1.5-2.5c-0.7-0.6-1.4-1.1-1.8-2.1c-0.7-2-0.2-4,0.4-6.1c-0.5-0.6-0.9-1-1.3-1.5
		c-0.3-0.5-0.8-0.9-0.3-2.1c2,0.9,4,1.8,6.2,1.2c0.6,0.3,1,0.6,1.4,0.8c0.5,0.3,1.1,0.7,1.6,0.9c0.9,0.4,1.7,0.2,2.4-0.5
		c0.6-0.5,1-1.1,0.3-2.2c-1.3-0.3-3.1,0.3-4.1-1.4c-0.1-1.1,2-0.9,1.3-2.4c-0.4-0.1-0.9-0.2-1.4-0.1c-2.2,0.3-4.1-0.9-6.2-1.2
		c-0.5-0.1-1-0.8-0.3-1.5c3.3,0.7,6.6,1,10,0.6c1.3-0.2,2.4-0.6,2.8-2c-0.1-0.9-0.5-1.4-1.7-1.6c-1.6,1.4-3.8,1.3-5.9,1.1
		c-2.6-0.2-5.2-0.6-7.8-0.9c-0.2,0-0.5-0.2-0.7-0.3c-0.6-0.4-0.9-0.9,0-1.5c3.1,0.7,6.4,0.7,9.6,0.4c3.4-0.2,6.6-1.3,8.9-4.1
		c0.6-0.7,0.5-1.4-0.3-1.7c-0.8-0.2-1.3,0.3-1.8,0.6c-2.3,1.7-4.9,2.5-7.7,2.8c-2.2,0.3-4.5,0.3-6.7,0.3c-3.9,0-7.7-0.1-11.1,2.4
		C572.5,181.6,572.1,181.6,571.9,181.8L571.9,181.8z M632.2,181.1c2.1-0.8,4.4-1.1,6.4-2.2c2.1,1.3,4.9,0.7,6.8,2.7
		c-1.5,0.8-2.9,0.4-4.3,0.2c-3.4-0.4-6.7,0.2-10,1c-2.2,0.6-2.9,1.1-4,2.9c0.2,0.8,0.9,0.8,1.5,0.6c0.8-0.3,1.6-0.7,2.4-1.1
		c0.9-0.4,1.7-1.1,2.8-0.9c1.1,1.2-0.3,2.3-0.2,3.8c1,0.8,1.8,2,2.5,3.3c2.2,0.1,4.4,0.2,6.1-1.4c0.8-0.7,2-0.1,2.7-1
		c0-1.1-1.1-1.3-1.5-2.1c-0.5-0.9-0.5-1.7,0.5-2.2c1.7,0.4,1.5,2.6,3,3.1c0.9,0.1,1.3-0.4,1.5-1.2c0-1-0.9-1.5-1.3-2.5
		c0.1-0.9,0.2-2.1,0.2-2.9c0.4-1,1.5-1.3,1.5-2.3c-1.2-0.7-2.5,0.2-3.7-0.1s-2.4-0.7-3.7-0.8c-5.3-0.5-10.2,0.7-14.7,3.4
		c-0.8,0.5-0.9,0.8-0.6,2.3C628.2,182.8,630.2,181.8,632.2,181.1z M672.4,231.2c-1.2-1.9-3.7-1.6-5.2-3c-1,0.3-1.8,0.5-2.7,0.7
		c-0.2-0.1-0.5-0.1-0.7-0.2c-2.9-1.7-5.8-2.1-9-0.8c-0.7,0.3-1.4,0.4-2.2,0.7c-2.1,0.7-4.1,0.8-6.2,0.1c-1.2-0.4-2.4-0.6-3.7-0.9
		c-1,0.1-1.8,0.5-2.4,1.3c0,0.4,0,0.7,0.1,0.9c0.9,1.4,2.3,1.9,3.8,2.1c1.4,0.2,2.7,0.3,4.1,0.7c0.7,0.2,1.5,0.1,2.2,0
		c4.9-1.1,9.9-0.7,14.9-0.7c1.7,0,3.1,1,4.4,1.5C671.3,233.3,672.2,232.8,672.4,231.2z M666.7,216.5c0.8-0.1,1.7,0,2.3,0
		c0.9-0.4,1.3-1,1.4-1.6c0.3-1.2,0.7-2.3,1.3-3.5c0.7-1.3,0.6-2.8-0.1-4.3c-2.4-5.1-4.6-10.2-6.9-15.4c-0.3-0.8-0.4-1.7-0.6-2.5
		c-0.4-1.7-0.7-3.4-1.7-4.9c0.7-2.5,1.9-4.7,3.2-6.9c0.5-0.8,0.4-0.8-0.2-2.3c-0.5-0.1-1,0-1.4,0.4c-1.6,2-2.7,4.2-3.4,6.6
		c-0.3,1.1-0.1,2.2,0.2,3.3c1.3,6.3,3.5,12.2,6.7,17.8c1.1,1.9,1.8,4.1,2.7,5.9c-0.2,1.5-1,2.2-2,2.9c-1.1,0.8-2.2,1.6-3.3,2.4
		c-0.6,0.5-1.1,1-1,2.1C665,217.7,665.8,216.6,666.7,216.5z M625.7,169.6c-0.7,2.5-3.9,3.1-4.9,5.7c0.4,0.2,0.8,0.4,1.1,0.6
		c2.3-1.3,4.7-2.4,6.3-4.6c2.8-0.2,5.5-0.5,8.3-0.7c1.5-0.2,3,0.1,4.4,0.7c4.1,1.6,8.5,2.1,12.7,3.2c0.4,0.1,1,0,1.5-0.1
		s0.9-0.5,1-1s0-1.1-0.5-1.3c-0.7-0.4-1.5-0.9-2.3-1.1c-1.8-0.5-3.7-0.8-5.5-1.1c-2.2-0.3-4.4-0.7-6.4-2.1
		C635.9,167.4,630.8,167.5,625.7,169.6z M609.4,304.7c-0.8,1-1.5,2-2.4,3.1c-1.9,0.1-3.1,1.6-4.1,3.2c-3.1,4.9-3.3,10.1-0.8,15.3
		c0.5,1,1.1,1.9,1.8,3c1.1-0.2,2.1,0.1,3.1,0.5c0.9,0.4,1.8,1.6,3,0.6c0.3-0.6,0.1-1-0.3-1.4c-1.7-1.4-3.5-2.8-5.5-3.7
		c-0.3-3.2-0.5-6.2-0.1-9.2c0.3-2,1-3.8,2.3-5.4c2.1-2.6,4.1-5.3,6.2-8C610.8,302.7,610.2,303.8,609.4,304.7z M667.5,237.6
		c-3.4,1.1-6.9,0.7-10.4,0.3c-1.9-0.2-3.7-0.5-5.4-0.4c-0.7,0.4-1.1,0.9-1,1.6c0.1,0.2,0.2,0.5,0.4,0.6c5,3.2,10.2,2.8,15.5,1.1
		c0.7-0.2,1.3-0.6,2-1.1c0.6-0.4,0.7-1,0.6-1.7C668.5,237.4,668,237.4,667.5,237.6z M583.3,137.7c3.6,1.5,7.3,2.4,11.1,3.1
		c2,0.4,3.9,0.7,5.9,0.9c1,0.1,2,0.4,2.9-0.2c0.2-0.6-0.1-1-0.6-1.1c-1.7-0.4-3.4-0.7-5.1-1c-4.4-1-8.7-1.9-13-3.3
		c-1.2-0.4-2.3-0.9-4-0.7C581.2,136.8,582.3,137.2,583.3,137.7z M650.8,210.8c-1.9,1.4-2.2,2.7-1.1,4.1c0.8,1,1.8,1.7,3.1,2
		c7.8-0.9,8.1-0.9,9.9-3.1c-0.3-1.4-1.5-1.8-2.5-1.6c-1.8,0.3-3.8,0.2-5.3,1.6c-0.4,0.4-1.1,0.5-1.4,0.7
		C651.2,214.2,651.4,212.2,650.8,210.8z M672.7,179c-2.4,0.6-5.1,0.4-6.9,3c0.7,0.2,1.1,0.4,1.4,0.3c0.7-0.2,1.4-0.5,2.1-0.8
		c2.1-0.9,4.1-0.8,6,0.4c0.8,0.5,1.7,0.9,2.6,1.4C677.3,180.4,674.7,180.3,672.7,179z M659.9,220.9c-0.5,1.6,0.1,2.8,1.5,3.8
		c0.1,0.1,0.4-0.1,0.9-0.2c0.1-1.3-0.2-2.6-0.5-3.9C660.8,220,660.1,220.2,659.9,220.9z M598.6,248.7c0.6-4.4,0.5-5.1-0.9-6.4
		C596.7,244,596.7,244,598.6,248.7z M600.4,262c-0.8-0.2-1,0.2-1,0.7c0.2,1.3,0.2,2.6,1.4,3.7C601.4,264.7,600.4,263.4,600.4,262z
		 M599.9,275.3c1-0.7,1-0.7,0.7-1.8C599.7,273.8,599.8,274.5,599.9,275.3z"/>
	<path fill="none" d="M750,582.6c-0.6,0.1-0.3-0.4-0.4,0.1c-0.2,0.6-0.2,0.9,0.5,0.9c-0.7,2.7,0.1,5.2,0.8,7.7s1.6,5,2.5,7.5
		c1.3,4,1.5,8.1,0.9,12.2c-0.1,0.5-0.4,0.9-0.5,1.3c-3.9,0.8-4.7,0.8-7.3,0c0.2-1,0.4-2.1,0-3.1c-0.4-1.2-0.8-2.4-1.3-3.6
		c-0.7-0.6-1.3-1.5-2.4-1.6c-0.6,0-0.9-0.2-1.2-0.7c-0.8-1.4-2.1-2.1-3.3-3c-1.1-0.8-1.8-1.7-2.3-2.9c-0.7-1.9-1.7-3.7-3.1-5.1
		c-1.4-1.4-2.6-3-3.5-4.3c-3.9-1.7-7.8-1.1-11.5-2.4c0.4-2.6,0.8-5,0.9-7.4c-0.9-0.2-1,0.4-1.1,0.8c-0.5,2.8-0.7,5.7-1.6,8.5
		c-0.2,0.7-0.2,1.5-0.2,2.2c0.1,2.6,0.3,5.3,0.5,7.9c0.1,1.6,0.3,3.2,0.4,4.6c-1.8,3.6-4.6,4.3-8,3.9c-1.6-0.2-2.8-0.9-3.2-2.6
		c-0.1-0.5-0.3-0.9-0.4-1.3c0.2-0.8,0.5-1.5,0.5-2.3c0.2-3.1,0.4-6.2,0.6-9.4c0.3-4.6-0.5-9-1.5-13.4c-1.4-6.4-2.1-14.2,1.8-20.8
		c0.3-0.4,0.5-0.9,0.8-1.3c0.6-0.7,0.8-1.5,0.9-2.4c0.3-2.5,1-4.9,0.3-7.4c-0.4-1.4-0.4-3-0.5-4.5c-0.2-3.1-0.6-6.2,0.3-9.3
		c0.3-1.1,0.3-2.2,0.4-3.4c0.6-6.4-0.9-12.6-2.3-18.8c-0.2,0.9-0.3,1.7-0.3,2.6c0,1.4,0.1,2.8,0.3,4.1c0.4,2.2,0.6,4.5,0.5,6.7
		c-0.2,4.9,0.4,9.7-0.5,14.6c-0.2,1.3,0.1,2.7,0.2,4.1c0.1,1.4,0.3,2.7,0.4,4.1c0.2,1.9-0.1,3.7-0.9,5.5c-1.4,3.1-2.6,6.2-3.8,9.4
		c-0.2,0.6-0.4,1.2-0.5,1.8c-0.5,4.5-0.7,9,0.1,13.5c0.3,1.5,0.8,2.9,1.1,4.4c1.2,6.7,1.1,13.5,0.6,20.2c-0.1,0.8-0.3,1.5-1.2,2
		c-2.3-0.5-4.8-0.3-7.3,0.2c-1.2-2.8-1.3-5.5-1.4-8.2c-0.1-3.4-0.2-6.8-0.7-10.1c-1.2-7.8-3.4-15.4-5.9-22.9
		c-1.7-5.1-3.6-10.1-4.4-15.5c-0.3-2-0.6-4-0.6-6c0.1-6.6,1.2-13,2.8-19.3c1.3-5.1,2.6-10.2,4.9-15c1.2-2.5,2.3-5,3-7.7l-0.1,0.1
		c1.3,1.2,2,2.9,2.8,4.4c1.8,3.2,3,6.6,4.3,10c1.1,2.9,2.3,5.8,3.2,8.8c0.5,1.7,1.2,3.3,1.6,5c0.4,1.7,0.7,3.4,1,5
		c0.6-0.1,0.7-0.5,0.7-0.8c-0.1-1.5-0.2-3-0.4-4.5c-0.8-6.9-3.6-13.3-5.6-19.8c-1.3-4-3.3-7.6-5.3-11.2c-2.2-4-3.5-8.3-4.4-12.7
		c-1.1-5.3-1.6-10.6-2.4-16c-0.2-1.5-0.2-3,0-4.5c0.8-5.3,1-10.7,0.8-16.1c-0.1-1.5,0.1-3.2-0.9-4.3c-0.9-1-1.1-2.2-1.4-3.4
		c-0.4-1.3-0.8-2.7-1.4-3.9c-2.3-4.7-4.9-9.3-8.2-13.5c-4.6-5.8-9.1-11.6-13.8-17.4c-3.8-4.7-6.6-10-8.9-15.6
		c-0.6-1.4-1.3-2.6-2.3-3.7c0.3-4.2,0.5-8.2,0.8-12c0.6-1,1.6-1.5,1.8-2.5c0.3-1,0.6-1.9,1-2.8c1.4-3.2,2.2-6.7,5.5-8.7
		c1.8-2.8,4.7-4,7.6-5.3c0.1-0.1,0.1-0.4,0.2-0.8c-1.4,0.2-2.7,0.3-4,0.5c-0.2,0-0.5,0-0.7,0.1c-1.1,0.3-2.2,0.6-3,1.5
		c-2.1,2-4.2,3.9-5.4,6.7c-0.5,1.1-0.8,2.3-2,3.1c-0.1-0.4-0.3-0.8-0.3-1.1c-0.7-5.2-1.7-10.3-3-15.4c-1.5-5.8-2.3-11.8-4.7-17.4
		c-2.6-6.4-5.3-12.7-8.1-19c-3.5-7.9-7-15.8-10-23.9c-0.2-0.6-0.7-1.1-0.1-1.7c0.9,0.4,1.8,1,2.7,1.3c4,1.2,7.6,3.3,11.1,5.4
		c1.5,0.9,3.1,1.7,4.7,2.3c3.2,1.2,6.4,2.3,9.6,3.2c5.4,1.6,10.1,4.4,14,8.5c4.6,4.8,8.6,10.1,11.9,15.9c0.8,1.4,1.6,2.9,1.9,4.5
		c0.6,2.6,1.1,5.1,1.6,7.7c0.9,4.9,1.6,9.9,2.8,14.8c1.7,7.3,4,14.4,6.7,21.5c4.2,11.1,8.6,22.2,12.8,33.3c1.3,3.4,2.7,6.8,4.3,10
		c1,1.9,2,3.8,2.8,5.7c1.5,3.3,3.2,6.5,5.4,9.4c1.7,2.3,3.4,4.7,5.1,7c1.7,2.2,2.9,4.7,3.5,7.4c0.7,2.8,1.4,5.6,1.8,8.5
		c0.9,5.9,2.3,11.8,2.4,17.9c0,0.7,0.2,1.5,0.3,2.2c0.8,5.6,1.5,11.2,0.8,16.8c-0.4,3.6-0.5,7.2-0.7,10.9c-0.1,1.5-0.2,3-0.3,4.5
		c-0.3,4.9-1.1,9.7-0.8,14.6c0.2,3.4,0.5,6.7,0.8,10.1c0.4,5.1,0.9,10.2,1.4,15.2c1.2,1.4,2.2,2.6,2.9,4.1c2.2,4.9,4.8,9.6,8,14
		c1.8,2.6,3.2,5.4,3.9,8.5c1,4.9,2.6,9.7,5.3,13.8c-0.1,0.9-0.6,1.5-1,2.1c-0.5,0.7-0.8,1.5-1.4,2.6c-0.2-1.2-0.4-2.1-0.6-3.1
		c-0.1-0.8-0.7-1.3-1.3-1.7C750.1,583.3,750.1,582.9,750,582.6z M657.8,385.7c0.7,4.4,2.4,8.4,4.6,12.2c2.2,3.6,4.7,7.1,7.1,10.6
		c0.5,0.7,1,1.5,1.8,1.8c0.6-0.4,0.3-0.8,0-1.2c-5.3-7.2-9.3-15-11.6-23.7c-0.2-0.9-0.3-2-1.6-2.5
		C657.4,384,657.7,384.8,657.8,385.7z M710.9,432.3c-1.1,1.5-2.3,3-3.7,4.2c-2.6,2.2-5.5,3.8-9,4.1c-1.1,0.1-2.3,0-3.3,0.5
		c-0.6,0.3-1.1,0.6-0.9,1.4c6.7,1.3,15.4-3.8,18.1-10.6C711.5,431.5,711.2,431.9,710.9,432.3z M708.5,601.4c-0.9,0.4-1.7,0.9-1.7,2
		c0.3,0.4,0.7,0.6,1.1,0.4c1.8-0.9,3.7-1.2,5.6-1.2c0.1,0,0.1-0.2,0.4-0.6C712.1,600.8,710.4,600.6,708.5,601.4z M727.9,585.8
		c-1.1-3.1-1.6-3.7-4.7-4.5C724.7,583.3,725.2,585.6,727.9,585.8z M693.6,438.6c2.2,0.5,3.4,0.1,5.8-2.1
		C697.6,436.3,696.8,436.5,693.6,438.6z M715.2,539.4c-1.7,2.3-1.7,2.8-0.6,4.1C715.7,542.3,715.2,540.9,715.2,539.4z M672.8,411.6
		c0.2,1.6,1.5,2.1,2.5,2.9C674.3,411.6,674.3,411.6,672.8,411.6z M680.2,420.7c0.1-1,0.1-1-1.2-1.8
		C678.8,420.3,679.6,420.4,680.2,420.7z M714.9,535.1c0.4,0,0.5-0.4,0.4-0.7s-0.3-0.4-0.6-0.2c-0.2,0.1-0.2,0.4-0.3,0.6
		C714.5,534.9,714.7,535.1,714.9,535.1z M715.6,528.8c0-0.2-0.2-0.4-0.4-0.7c-1,0.5-0.3,1.1-0.2,2.3
		C715.4,529.5,715.6,529.2,715.6,528.8z M705.5,499.5c0.1-0.3,0.1-0.4-0.1-0.4c0,0,0,0.2-0.1,0.3
		C705.4,499.4,705.5,499.5,705.5,499.5z M722,580.2V580l-0.2,0.1L722,580.2z"/>
	<path fill="none" d="M548.1,278.1c0.6,0.8,1.2,1.6,1.7,2.5c4.6,7.6,10.1,14.6,15.9,21.4c1.1,1.3,1.9,2.6,2.6,4.1
		c1.5,3.7,3.1,7.4,4.6,11.1c3.4,8.6,7.2,17.1,11.2,25.4c2.5,5.2,4.8,10.5,7.1,15.8c0.4,0.8,0.6,1.7,0.7,2.5
		c0.2,4.2,1.5,8.1,2.6,12.1c2.2,7.8,5.9,14.9,11.3,21c2.2,2.4,4.6,4.6,6.2,7.5c0.6,1,1.5,1.7,2.5,2.2c1.8,0.8,3.7,1.6,5.5,2.4
		c2.7,1.1,5.2,0.6,7.5-1c1.1-0.8,2.2-1.7,3.2-2.6c1.4-1.2,2.8-2.5,4.7-2.5c1.6-2.9,2.9-5.7,3.6-8.9c0.9-4.1,1.2-8.2,1.3-12.3
		c0.3-7.6-0.8-15-2.9-22.3c-0.9-2.9-1.2-5.9-1.4-8.9c-0.1-1-0.1-2-0.2-3c-0.5-4.6-1-9.2-1.7-13.8c-0.8-5.6-1.6-11.2-3.2-16.6
		c-1.6-5.2-3.3-10.2-5-15.4c-0.5-1.5-1.3-2.9-2.3-4.2c0.7-1.4,0.7-3,1.9-4.4c1.6,3.7,3.3,7.1,4.6,10.7c2.4,6.4,4.7,12.9,7.5,19.2
		c1.6,3.7,3.1,7.4,4.6,11.1c2,5.1,4.2,10.2,5.9,15.4c2.2,6.7,3.3,13.6,4.1,20.8c-1.3,1.7-1.8,3.9-1.9,6.2c0,1.2-0.3,2.4-0.1,3.7
		c0.2,1.2-0.2,2.5-0.4,3.7c-0.6,5.3-0.4,10.8-1.3,16.1c-0.1,0.5,0,1,0,1.5c0.3,2.5,0.6,5,0.9,7.5c0.5,4,0.5,8-0.1,12
		c-0.4,2.5-1.1,4.9-0.9,7.4c0.1,0.8-0.2,1.7-0.7,2.5c-0.4,0.7-0.8,1.6-1,2.4c-0.3,1.7-1.1,3-2,4.4c-2.7,4-5.8,7.5-10.1,9.9
		c-1.9,1-3.7,2.1-5.7,2.9c-4.9,2-9.8,3.8-14.5,5.7c-1.1-0.3-1.9-0.7-2.8-0.7c-3.4,0.2-6.8,0.8-9.8,2.4c-3.9,2.1-7.2,5-9.5,8.9
		c-2.4,4.1-6,7-9.1,10.4c-0.7,0.8-1.5,1.3-2.6,1.4c-2.9,0.2-5.7,0.8-8.6,0.6c-4.5-0.4-9-0.9-13.4-1.6c-5.8-0.9-11.7-1.6-17.6-1.8
		c-2.3-0.1-4.5-0.3-6.5-1.5c-2.1-1.1-4.3-2-6.4-3.2c-5.2-2.8-10.2-6-15.5-8.4c-0.7-0.3-1.4-0.7-1.7-1.5c-0.2-0.4,0.3-0.9-0.5-1.6
		c-1.6-0.8-2.6-2.7-3.7-4.4c0.1-0.5,0.1-0.9,0.2-1.2c3.2-8.9,5.4-18,7.1-27.2c0.4-2.5,0.9-4.9,1.9-7.3c1.8-4.3,3.7-8.5,5.5-12.8
		c0.3-0.7,0.5-1.5,1.5-1.7c1.9,0.9,3.9,1.9,5.9,2.9c2.1,1,4.2,1.6,6.5,1.6c4.1-0.1,7.6-1.5,9.8-5.3c0.7-1.2,1.6-1.9,2.6-2.6
		c3.7-2.5,6.5-5.9,8.5-9.9c1.6-3.2,2.8-6.4,3.2-10c0.3-2.2,0.6-4.5,0.9-6.7c0.9-7,1.1-14.1-0.5-20.9c-1.4-6-2.4-12-3.4-18.1
		c-0.2-1-0.3-2-0.5-3c-1.3-7-3.5-13.8-5.3-20.7c-2.1-8.2-5.5-15.8-10.2-22.9c-2.4-3.5-4.7-7.1-7-10.7c-0.3-0.5-1-0.9-0.6-1.7
		c3.2-1.2,6.5-2.4,10.1-3.7C544.6,273.5,546.4,275.7,548.1,278.1z M590.6,449c-2.1,0.9-4.3,1.3-6.5,1.7c-1.2,0.2-2.5,0.4-3.7,0.5
		c-3.3,0.1-6.5,0.1-9.8,0.1c-2,0-4-0.3-5.9-0.8c-8-2.1-15.9-4.3-23.3-8.1c-2.6-1.3-5-2.8-7.5-4.3c-2.1-1.3-3.6-3.1-4.5-5.4
		c-0.3-0.7-0.6-1.4-0.9-2c-0.3-0.5-0.7-0.7-1.3-0.6c-0.7,0.6-0.6,1.4-0.1,2c0.8,1,0.7,2,0.6,3.2c0.6,0.6,1.1,1.3,1.8,1.8
		c3.7,2.9,7.4,5.9,11.3,8.7c3.5,2.5,7.3,4.4,11.4,5.7c3.9,1.2,7.8,2.7,11.9,3.5c8.7,1.7,17.2,0.9,25.4-2.6c0.7-0.3,1.3-0.7,2-1.1
		c0.5-0.3,1-0.7,1.5-1.1C592,448.6,591.2,448.7,590.6,449z"/>
	<path fill="none" d="M693.1,497.6c-0.6,0.6-1.1,1.4-1.8,1.9c-2.7,1.7-4.2,4.3-5.6,6.9c-4,7.4-6.2,15.3-6.4,23.7
		c0,0.9,0,1.8-0.1,2.6c-0.6,3.3-0.7,6.7-0.6,10.1c0,0.9,0.3,1.8-0.3,2.5c-4.1,5.1-9,9.4-13.4,14.2c-0.3,0.4-0.7,0.7-1,1.1
		c-4.6,5.5-9.8,10.3-15,15.3c-2.3,2.2-4.6,4.3-7.3,5.9c-6.5,4-13.1,7.9-19.6,11.8c-0.9,0.5-1.8,1-2.6,1.6s-1.5,1.2-2.4,2
		c-1.9-1.6-3.7-3.1-5.5-4.6c-3.3-2.8-6.5-5.9-10-8.5c-5.1-3.7-9.6-8-13.9-12.6c-0.6-0.6-1.4-1.3-1.6-2c-0.4-1.4-1.4-2.4-2.2-3.4
		c-2.8-3.4-4.7-7.4-6.9-11.2c-0.4-0.7-0.8-1.4-0.8-2.1c0-2.1-1-3.9-1.4-5.8c-0.4-1.9-1-3.9-1.3-5.9c-1.2-8.8-0.9-17.5,0.8-26.2
		c1-5.2,2.1-10.3,5-14.9c2.4-1.5,4.8-3,7.2-4.7c8.4-5.9,17.5-10.7,26.7-15.4c7.6-3.9,15.3-7.4,23.3-10.3c8.6-3.2,16.9-6.9,25.6-9.7
		c1.9-0.6,3.8-1.3,5.7-1.7c1.8-0.4,3.6-0.9,5.4-1.7c2.2-0.9,4.4-1.8,6.6-2.6c1.4-0.5,2.7-1.3,4.2-1.2c0.7,0.6,0.5,1.2,0.5,1.9
		c-0.1,6.9,0.7,13.7,2.5,20.4c0.4,1.5,0.6,2.9,0.8,4.4c0.7,5.6,2,11.1,4.5,16.2C692.5,496.3,692.7,497,693.1,497.6L693.1,497.6z
		 M588.6,509.3c0.3,0.4,0.6,0.4,0.9,0.1c0.8-1,1.8-2,1.8-3.5c0.1,0,0.2,0,0.3,0c-0.1,0-0.2,0.1-0.2,0.1
		C590.4,507.1,588.9,507.7,588.6,509.3z M574.5,522.7c0.4,0.7,0.8,0.3,1.1,0c1.2-1,2.4-2,3-3.6C577,520.2,575.5,521.2,574.5,522.7z
		 M602.3,494.8c0.9-0.2,0.9-0.2,0.9-1.1C602.5,493.8,602.2,494.2,602.3,494.8z"/>
	<path fill="none" d="M651,619.8c-0.4-0.9-1-1.4-1.9-1.6c-0.8-0.2-1.7-0.5-2.5-0.8c-0.7-0.3-1.5-0.5-2.3-1.5c4.7-0.7,9-1.4,13.4-1.3
		c1,0,2,0.4,2.8,1c3.9,3,8.1,5.3,12.9,6.8c2.5,0.8,4.9,2,7.3,3c3.8,1.6,7.7,2.1,11.7,1.5c1-0.1,2-0.2,3-0.2c6.1-0.3,12.3-0.7,18.4-1
		c1-0.1,2-0.2,3-0.3c7.6-1.2,15.2-1.4,22.9-1.3c3.3,0.1,6.5,0.5,9.5,2.1c3.4,1.8,7,3.3,10.6,4.8c2,0.8,4,1.6,5.6,3
		c3.4,3,7.2,5.4,11.5,6.9c2.1,0.7,3.1,2.4,3.8,4.3c0.4,1.3,0.4,2.7,0.4,4.1c-0.1,5.7,0.2,11.5-0.7,17.2c-0.1,0.4-0.1,0.8,0,1.1
		c0.5,3.4-1.3,5.8-3.8,7.7c-4.8,3.6-10.3,6.3-15.9,8.4c-5.2,1.9-10.7,2.5-16.3,2c-5.4-0.5-10.8-0.5-16.1-0.7
		c-4.3-0.2-8.5-0.4-12.8-0.5c-0.5,0-1-0.1-1.5-0.2c-5.1-1.3-10.3-2.1-15.2-4c-2.2-0.9-4.5-1.5-6.8-2.2c-2.2-0.6-4.4-0.9-6.6-1.2
		c-4-0.5-8,0.1-12,0.2c-3.4,0.1-6.7,0.5-9.7,2.4c-1.1,0.7-2.4,0.6-3.7,0.3c-4-1-8-2-12-3.1c-0.9-0.3-2-0.5-2.7-1.8
		c0.8-3.4,0.5-7.2,0.2-10.9c-0.1-1.2,0.1-2.2,0.7-3.2c0.7-1.1,1.3-2.1,2-3.2c0.3-0.5,0.6-1.1,1.6-0.9c0.3,0.7,0.7,1.5,0.9,2.3
		c0.8,4,2.7,7.5,4.9,10.9c1.1,1.8,2.9,2.8,4.6,3.7c1.6,0.8,3.2,1.4,4.5,0.9c1.9-0.9,1.8-2.6,2.6-3.5c1.8,0.3,1.5,2.9,3.5,2.6
		c0.4-0.4,0.6-0.8,0.4-1.4c-0.4-1.1-0.6-2.2-0.5-3.3c0.2-5.6-0.1-11.3,0.5-16.9c0.2-2.4,0.3-4.7,0.5-7.1c0-0.9-0.1-1.8-1.3-1.9
		c-0.2,0.1-0.6,0.2-0.7,0.4c-0.4,0.7-0.9,1.5-1.2,2.3c-2,5.2-3.1,10.6-2.9,16.2c0,0.5,0.5,1.2-0.5,1.6c-0.2-0.5-0.5-0.9-0.7-1.3
		c-2.4-5.8-5.1-11.4-7.3-17.2c-1-2.6-2.7-4.8-4-7.2c-2-3.8-4.6-7.1-7.3-10.4c-0.3-0.4-0.7-0.7-0.5-1.3c1.4-1.1,3.5-0.6,4.8-2
		c1.2-1.3,3-2.4,2.5-4.6c-0.7-0.3-1,0.1-1.4,0.4L651,619.8z M679.4,670.4c0.1-1.7,0.3-3.5,0.3-5.2c-0.1-5.6-0.4-11.2-1.1-16.8
		c-0.2-1.3-0.5-2.7-0.8-3.9c-0.5-0.2-0.9-0.5-1.2-0.5c-0.7,0-1.2,0.4-1.4,1c-0.4,0.9-0.7,1.9-0.8,2.9c-0.5,4.7-1.2,9.4-0.9,14.2
		c0.2,2.7,0.5,5.5,1.5,8.1c0.3,0.8,0.8,1.6,1.3,2.3s1.1,0.9,2,0.7C679.1,672.4,679.4,671.4,679.4,670.4z M690.7,670.6
		c0.2-2,0.5-4,0.4-6c-0.3-4.5-0.7-8.9-1.2-13.4c-0.2-1.5-0.6-2.9-1-4.4c-0.2-0.6-0.5-1.2-1.3-1.3c-0.8,0.1-1.3,0.6-1.4,1.4
		c-0.3,1.6-0.6,3.2-0.6,4.8c-0.1,4.1-0.1,8.2,0,12.3c0,1.7,0.3,3.5,0.7,5.2c0.3,1.5,0.8,3.2,2.5,3.8
		C690.2,672.8,690.5,671.7,690.7,670.6z M699.3,671.2c0.5-2.3,1.1-4.7,1.2-7.2c0.1-4.4-0.5-8.8-1.1-13.1c-0.2-1.6-1-2.4-2-2.3
		c-1,0.1-1.8,0.9-2.1,2.3c-0.1,0.6-0.2,1.2-0.2,1.9c-0.1,3.9-0.1,7.8,0.3,11.6c0.3,2.5,1.1,4.9,2.3,6.8
		C698.3,671.7,698.7,671.7,699.3,671.2z M706.6,654.6c-1,3.3-1,6.6-0.5,10c0.2,1.5,0.8,2.9,1.7,4.1c0.3,0.4,0.8,0.6,1.5,0.5
		c1.1-1.6,1.4-3.6,1.3-5.6c-0.1-2.7-0.3-5.5-0.5-8.2c-0.1-1-0.2-2-1.3-2.7C707.3,652.7,706.9,653.6,706.6,654.6z M774.2,655.2
		c-0.5,0.6-1,1.3-1.5,1.9c0.3,4.4,2.3,10.3,4.8,14.5c0.7-0.4,0.5-1,0.3-1.5c-0.4-1.4-0.8-2.9-1.2-4.3c-0.8-2.5-1.6-5-2.3-7.2
		c0.2-3.1,1.3-5.6,2.6-8c0.9-1.8,1.8-3.6,2.2-5.5c0.2-0.8,0-1.5-1.3-1.7C775.9,646.6,774.5,651,774.2,655.2z M714.8,656.8
		c-0.1,3.9,0.2,7.7,1.5,11.4c0,0.1,0.2,0.2,0.3,0.2c0.7,0.1,1.1-0.5,1.4-1c0.7-1,0.9-2.1,0.9-3.2c0-2.8-0.3-5.5-1.3-8.1
		c-0.1-0.4-0.7-0.7-1-1C715.4,655.5,714.8,656,714.8,656.8z M722.9,664.4c1.1-2.1,1.1-4.3,1-6.6c-0.1-0.8-0.6-1.3-1.4-1.5
		c-0.8-0.2-1.9,0.3-2.1,1.2c-0.9,2.8-1.1,5.6,0.7,8.1C722.1,665.7,722.5,665.1,722.9,664.4z"/>
	<path fill="none" d="M522.9,476.4c0.4,0.2,0.6,0,0.7-0.4c0.9,0.2,1.7-0.1,2.5-0.5c1.2-0.6,2.5-1.1,3.6-1.6c1.1,0.5,2,0.8,2.9,1.3
		c2.9,1.6,6.1,2.2,9.4,2.2c7.7,0,15.2,1.3,22.8,2c4,0.4,8,0.4,12,0c0.7-0.1,1.4-0.5,2.2,0.2c-2.9,4.5-5,9.5-7.3,14.4
		c-2.2,4.7-4.7,9.4-6.7,14.2c-2,4.6-4.7,8.8-6.7,13.4c-0.1,0.1-0.1,0.2-0.2,0.3c-2.2,3.5-4.4,7-6.7,10.4c-0.3,0.4-0.6,0.8-0.9,1.2
		c-2.1,2-3.1,4.8-4.9,7c-0.3,0.4-0.3,1.2-0.4,1.8l0.1-0.1c-0.4-0.3-0.7-0.7-1.1-1c-5.7-4.5-11-9.4-15.7-15.1
		c-2.8-3.4-6.1-6.6-9.8-9.2c-4.2-2.9-8.2-6.1-12.2-9.4c-4-3.3-7.1-7.3-9.7-11.8c-0.9-1.6-1.7-3.3-2.1-5.2c-0.6-2.7-0.9-5.5,0.6-8
		c0.9-1.5,1.1-3,1.1-4.7c0-1.8,0.3-3.5,1-5.1c1.2-2.6,2.6-5.1,3.9-7.7c0.1-0.2,0.4-0.2,0.6-0.2c0.8,0.2,0.9,1.5,2.1,1.4
		c0.2-1.6-1.6-2.3-1.4-4.1c0.9-2,1.6-4.4,3.5-6.4c0.7,0.5,0.6,1.4,1,2s0.9,1.2,1.4,1.8c2,2.2,4.2,4.3,6.8,5.9
		c3.8,2.2,7.5,4.5,11.3,6.7c0.5,0.3,1.1,0.5,1,1c-1.2,1.5-3.3,1.2-4,3C523.4,476,523.1,475.9,522.9,476.4z M559.9,490.4
		c-0.9,0.2-0.8,0.9-0.7,1.5c-1.1,0.1-1.3,0.7-1.3,1.7c0.7-0.5,1-1.1,1.2-1.8C559.6,491.4,559.7,490.9,559.9,490.4
		c0.5-0.4,0.6-1,0.7-1.6c0.7-0.3,0.8-0.9,0.7-1.6c0.6-0.1,0.8-0.5,1-1c0.7-1.5,1.3-2.9,1.9-4.4c0.1-0.2-0.1-0.4-0.2-0.9
		c-1.3,2.1-2.5,4-2.6,6.4c-0.9,0.2-0.8,0.9-0.7,1.6C559.7,489,559.9,489.7,559.9,490.4z M515.9,479.1c-0.2-0.1-0.4-0.4-0.5-0.4
		c-2.5,0.6-4.5,2.1-6.1,4.1c-1.9,0.4-3.7,0.9-5,2.8c0.5,0.1,0.8,0.4,1.1,0.3c1.3-0.3,2.5-0.9,3.5-1.9c0.4-0.4,0.4-0.9,0.2-1.3
		C512.4,482,513.2,481.6,515.9,479.1z M549.1,515.2c1.2-1.5,2.1-3.1,2.6-4.9c0.7-2.5,1.3-5,1.9-7.6c0-0.2-0.2-0.4-0.4-0.8
		c-1.5,2.5-1.5,5.3-2.4,7.8c-0.9,2.5-2.4,4.6-3.7,6.8c-0.1,0.1-0.2,0.2-0.3,0.4c0.1,0,0.2-0.1,0.2-0.1c0-0.1,0-0.2,0-0.3
		C548,516.7,548.5,515.9,549.1,515.2z M546.6,532.3c0.6-0.5,0.9-1.1,0.6-1.7c-0.2-0.4-0.6-0.8-1-1s-1-0.2-1.5-0.2
		c-1.9,0.4-3.9,0.8-5.8,1.2c-0.3,0.1-0.4,0.5-0.9,1.1C541.2,531.3,543.8,532.9,546.6,532.3z M502.5,485.9c-1.9-0.1-1.9-0.1-3.3,1
		C500.7,487.4,501.5,486.6,502.5,485.9z M546.1,518.6c-0.8,0.2-0.8,0.9-1.3,1.9C546.6,519.7,546.6,519.7,546.1,518.6z"/>
	<path fill="none" d="M572.7,500.1c0-0.5-0.1-1,0.1-1.5c2.5-5.5,5.1-10.9,7.7-16.3c0.4-0.9,1.1-1.7,1.7-2.4
		c3.8-4.4,8.3-8.4,11.6-13.3c0.3-0.4,0.6-0.8,1-1.1c1.8-1.6,3.6-3.2,5.4-4.6c1.7-1.3,3.3-2.7,5.3-3.5c2.3,0.6,2.3,0.5,4.4,0
		c2.1-0.5,4.1-1.1,6.2-1.3c6-0.6,11.5-2.7,16.8-5.3c6-2.9,10.9-7.1,14.2-13c0.6-1.1,1.2-2.2,1.9-3.2c1.4-2.1,2.3-4.5,2.6-7
		c0.2-1.7,0.4-3.5,0.8-5.2c1.1-4.7,1.4-9.4,0.9-14.2c-0.4-3.2-0.8-6.5-1.5-9.6c-0.6-2.7-0.3-6.2,0.7-8.8c1,0.8,1.2,2.1,1.6,3.2
		c3.4,7.9,7.3,15.4,13.8,21.3c0.4,0.3,0.7,0.7,1,1.1c5.6,7.3,10.9,14.7,14.5,23.2c1.4,3.3,1.1,6.5,1,9.7c-0.4,0.3-0.6,0.5-0.8,0.5
		c-6.4,2-12.4,5.2-19.1,6.8c-4.6,1.1-9,3.1-13.4,5c-9.6,4.1-19.2,8-29,11.4c-8.9,3.1-17.4,7-25.5,11.9
		C588.4,489,580.6,494.6,572.7,500.1L572.7,500.1z"/>
	<path fill="none" d="M685.4,564.7c1.5,2.8,2.5,5.7,3.1,8.8c1.5,7.8,2.5,15.6,2.3,23.5c0,1,0.1,2,0.1,3c0,1.2,1.4,1.8,1.4,3.2
		c-1.1,0.7-1.2,2.2-1.6,3.4c-2,0.6-3.8,0.9-5.7,0.9c-2.6-0.1-4.6,0.9-6.2,2.9c-0.6,0.7-1.1,1.4-2.2,1.8c-4,0.2-8.2,0.6-11.9,2.9
		c-1.6-1-3.1-2-4.6-2.9c-6,0.3-12,0.5-17.9,2.3c-0.7-0.7-1.5-1.4-2-2.2c-1-1.6-2.3-2.5-4-3.2c-5.4-2.1-10.1-5.5-14.8-8.8
		c-0.3-0.2-0.4-0.6-0.6-0.8c0.2-0.8,0.9-0.9,1.4-1.2c6.5-3.6,12.8-7.4,18.5-12.2c2.1-1.7,4.5-3.2,6.9-4.6c2.2-1.3,4.3-2.7,6.1-4.3
		c2.8-2.5,5.6-5.1,8.1-7.8c4.8-5.3,9.4-10.8,14-16.2c1-1.2,2-2.5,3.3-4.3C680.5,554.8,682.8,559.8,685.4,564.7z"/>
	<path fill="none" d="M783.8,638.2c3.8,0.4,7.4-0.3,11.1-0.7c1.1-0.1,2.3-0.4,3.4-2.2c-4.3,2.3-8.3,1.8-12.2,1.7c-2,0-4-0.2-6-0.4
		c-1.6-0.1-3.2-0.1-4.5,1.1c-0.9,0.1-0.8-1.1-1.5-1.2c-0.5,0-1,0.4-1.4,0.1c-2.7-1.4-4.4-3.8-6.7-6.2c3.9-0.3,7.1,0.6,10.5,0.6
		c3.5-0.1,7,0.5,10.4-0.4c-2.3-0.4-4.6-0.7-6.9-0.8c-5.1-0.3-10.2-1.3-15.3-1.1c-1.5,0.1-3-0.2-4.4-0.8c-3.5-1.4-7-2.6-10.5-4.1
		s-7.2-2.1-11-2.1c-5.4,0-10.8-0.1-16.1,0.6c-0.2,0-0.3-0.3-0.5-0.4c0.1-0.3,0.2-0.7,0.4-1.2c2.2-1.1,4.5-2,7-2.6
		c2.7-0.6,5.4-1.2,8-1.8c6.3-1.4,12.5-2.3,19-1.8c2.5,0.2,5,0.3,7.5,0.2c1.5-0.1,3,0,4.4,0.4c1.7,0.5,3.4,1,5.1,1.3
		c5,1,10,2.4,15.1,2.6c2.6,0.1,5.2,0.9,7.8,1.3c1.7,0.3,3,1.1,4.2,2.3c4.4,4.7,9.7,8.2,15.1,11.7c0.6,0.4,1.3,0.8,1.9,1.2
		c1,0.7,1.5,1.6,1.5,2.9c0,0.7-0.2,1.5-0.2,2.2c-0.2,3.2-0.8,6.5-0.2,9.6c-1.6,4.2-4.2,7.8-6.2,11.7c-0.2,0.4-0.5,0.9-0.9,1.2
		c-2.6,2.1-5,4.5-8.1,6.1c-7.2,3.7-14.9,5.8-22.7,7.6c-0.3,0.1-0.7-0.1-1.2-0.2c0.8-1.4,1.6-2.6,2.3-3.9c0.9-1.5,1.5-3.1,1.3-5
		c-0.1-1.4,0.1-2.7,0.9-4c1.6-0.5,3.2-0.1,4.8-0.2c1.6-0.1,3.2-0.2,4.8-0.7c1.8-0.5,3.1-1.5,4-3.1c0.3-0.6,0.5-1.1-0.1-1.9
		c-2-0.7-4.3-0.1-6.5-0.7c-2.3-0.6-4.6-0.2-7.1,0.1c-0.5-2.3-0.3-4.5-0.3-6.6c0-2-0.2-4-0.9-5.9c-0.9-2.7-2.5-4.9-5.3-5.9
		c-0.7-0.2-1.5-0.3-1.9-1.1C778.4,637.8,781.1,637.9,783.8,638.2z"/>
	<path fill="none" d="M374,581.3c2.3,2.8,4.7,5.5,7.8,7.6c1.2,0.8,2.4,1.8,3.1,3.1c-0.1,0.6-0.2,1.1-0.3,1.9c2,0.6,3.1,2.3,4.4,3.8
		c1.5,1.7,3,3.4,4.3,5.2c2.9,4,6.6,7.2,10.1,10.5c4.7,4.3,9.6,8.4,14.9,12.1c4.1,2.9,7.9,6.1,12.8,7.6c0.7,0.2,1.3,0.8,1.9,1.1
		c1.2,0.7,2.4,1.4,3.6,2c8,3.6,15.8,7.5,24.3,10c0.7,0.2,1.5,0.4,1.9,1.4c-5.7-0.1-11.3,0.5-16.9-0.3c-4.3-0.6-8.6-1.6-13-1.2
		c-0.7,0.1-1.5-0.2-2.2-0.3c-4.1-0.5-8-2.2-11.9-3.3c-6.7-1.9-12.9-4.8-18.4-9.1c-2.4-1.8-4.6-3.8-6.9-5.8c-1.5-1.3-3.2-2.5-4.4-4
		c-2.3-2.9-4.5-6-6.5-9.2c-1.3-2-2.5-4.1-2.8-6.5c-0.5-3.8-0.4-7.7-1.1-11.6c0-0.2,0.1-0.5,0.2-0.7c1.1-0.3,1.5,1.5,2.9,1.1
		c-1.3-1.9-2.4-3.7-3.7-5.4c-2-2.8-2.6-6.1-3.9-9.2C373.9,581.7,374.1,581.5,374,581.3L374,581.3z"/>
	<path fill="none" d="M574.1,503.8c-1.2,4.7-2.6,9.4-3.4,14.2c-1,6-0.8,12-0.1,18c0.6,4.6,2,9,2.9,13.6c0.8,4.1,2.2,8.2,4.4,11.9
		c0.3,0.5,0.4,1.2,0.6,1.7l0,0c-5.8-3.7-11.5-7.5-17.5-10.9c-2.7-1.5-5.3-3.4-7.9-5c-2.6-1.6-5.4-3-7.8-5l-0.1,0.1
		c1.6-0.8,3.3-1.5,4.3-2.9c2-3,4.8-5.4,6.1-8.9c0.4-1,1.2-1.9,1.7-2.9c1.7-3.3,3.8-6.5,4.6-10.2c0.2-1.1,0.6-2.3,1.6-2.9
		c1-0.6,1.5-1.6,2.1-2.6c1.3-2.1,2.6-4.3,4-6.5C571.2,505,572.4,503.8,574.1,503.8L574.1,503.8z"/>
	<path fill="none" d="M728.5,616.7c-2.2,0.5-4.4,1.3-6.1,2.7c-2.7,2.3-5.9,2.6-9.2,2.2c-3.5-0.5-6.9-1.2-10.1-2.7
		c-1.9-0.9-4-1.4-6-2.2s-4-0.8-6.1-0.9c-2-0.1-3.9-0.7-5.9-1.1c-0.9-0.2-1.7-0.3-2.6-0.5c-0.9-0.2-1.9,0.1-2.9-0.6
		c1.2-2.2,2.7-3.7,5.2-3.9c0.9-0.1,1.7-0.3,2.6-0.4c2.8-0.4,5.4-1.3,6.9-3.8c3.3-0.3,6.2-1.7,9.4-1.1c0.2,0.3,0.5,0.5,0.7,0.8
		c1,1.7,2.5,2.4,4.4,2.4c1.2,0,2.5,0.3,3.6,0.5c2.5-0.6,3.8-2.9,5.9-3.9c6.8,0.9,13,2.4,17.2,4c2.9,1.1,5.6,2.8,7.9,5
		C738.3,614.1,733.5,615.7,728.5,616.7z M717.9,615.5c-3.6-0.5-7.2-0.8-10.7-0.3c-0.6,0.1-1.2,0.3-1.2,1.3c4.7,0.1,9.4,0.3,14,0.4
		c0.6,0,1.2,0,1.8-0.6C720.6,615.6,719.2,615.7,717.9,615.5z"/>
	<path fill="none" d="M431.1,466.2c0.2,1.3-0.1,2.5-0.4,3.7c-1,4.4-2,8.8-2.9,13.2c-2.1,9.8-3.4,19.7-3.4,29.8
		c0,0.4-0.1,0.7-0.2,1.2c-5.2-2.1-10.4-3.5-16-2c-2.3-1.9-4.3-3.9-5.3-6.6c0.3-0.6,0.4-0.9,0.7-1.2c2.6-3.4,5.2-6.7,7.4-10.4
		c0.5-0.8,1.3-1.6,2-2.2c3.9-3.7,7.4-7.8,10.7-12.1c1.5-2,2.9-4.1,4-6.3C428.8,470.9,430,468.6,431.1,466.2L431.1,466.2z"/>
	<path fill="none" d="M568.9,177.7c-0.8,1.6-1,3.4-1.2,5.1c-0.3,1.8-0.4,3.7-0.4,5.6c0,5.8,0,11.5,0,17.3c0,1.5-0.2,2.9-0.5,4.4
		c-0.6,3.1-1.7,6-2.2,9.1c-1.4,7-2.4,14.1-2.6,21.2c-0.1,3.4,0,6.8,0,10.1c0,0.7,0.1,1.5-0.1,2.2c-0.1,0.7-0.5,1.4-1.8,1.2
		c-0.6-4.3-1.5-8.7-1.7-13.2c-0.1-1.9-0.2-3.7-1.6-5.1c0.3-4.5,0.5-8.9,0.8-13.3c0.1-0.8,0.1-1.8,1.1-2.3c0.5,1.2,0.2,2.5,0.2,3.7
		c0,1.8,0,1.8,0.8,3.3c0.2-0.4,0.5-0.6,0.5-1c0.3-2,0.7-3.9,0.9-5.9c0.2-3,0.5-6.1,0-9c-0.5-2.8-0.2-5.2,0.8-7.6
		c0.3-0.8,0.6-1.6,0.7-2.5c0.5-3.6,1-7.2,1.4-10.8c0.4-3.5,1.1-6.9,1-10.4c0-2.3,0.8-4.7,1.2-7c0-0.2,0.3-0.3,0.8-0.8
		C568.4,174,567.8,176,568.9,177.7z"/>
	<path fill="none" d="M585.4,114.5c0.6,1.3,1.6,1.8,2.6,1.9c1.1-0.3,0.9-1.1,1.1-1.6c1.4,0.7,2.9,1.3,4,2.9
		c-1.7,1.2-3.2,2.4-5.4,2.8c-0.8-1.3-1.8-2.1-3.1-2.7c-1.2-0.6-2.4-1.4-4-0.2c1.6,2.1,4.3,2.1,6.1,3.6c-2.6,2.2-3,2.5-5.6,2.9
		c-1.8,0.3-3,1.2-3.8,2.7c-2.3,4.4-5.8,8.2-7.3,13.1c-0.1,0.4-0.5,0.9-1.1,0.6c-0.4-2.9,1-9.6,2.8-13.8c0.2-0.9-0.7-1.7-0.3-2.6
		c0.7-1.7,1.3-3.5,2-5.3c2.1-5.3,5.7-9.1,11.5-10.3c0.5-0.1,1-0.2,1.6-0.4c3.5,1.4,6.8,3.5,9.8,5.8c0.3,0.3,0.7,0.8,0.2,1.4
		c-0.3,0-0.7,0.1-1,0c-1.7-0.3-3.3-1-4.9-1.8c-0.5-0.3-1.2-0.4-1.7,0.3c0,0.3,0.1,0.7,0.2,1.1C588,114.7,586.9,113.5,585.4,114.5z"
		/>
	<path fill="none" d="M718.5,602.3c1.8-4.8-0.4-9.4-0.5-14.2c1.9-0.2,3.5,0.2,5,0.5c1.7,0.3,3.5-0.7,5.4,0.2c0.6,1.7,2,3.1,3.4,4.6
		c1.1,1.2,2.1,2.5,2.5,4.2c0.3,1.6,1.3,2.7,2.5,3.6c1.8,1.3,3.1,2.8,3.9,4.8c0.6,0,1.1,0,1.6,0c0.7,1.6,0.7,1.6,0.6,3.3
		C735.4,604.9,727.2,603.1,718.5,602.3z"/>
	<path fill="none" d="M572.5,205.9c-0.2,2.4-0.4,4.8-0.4,7.1c-0.1,8-0.2,16-0.3,24.1c0,0.9,0,1.8-0.1,2.6c-0.1,1.6-0.9,2.7-2.3,3.7
		c-0.4-0.9-0.7-1.5-1.2-2.4c-0.3,3.1,0.1,6.2-3.1,8.2c-0.3-2.1-0.2-4.1-0.2-6.1c0.1-9.2,0.7-18.4,1.9-28.2c0.8,1.9,0.7,3.3,0.7,4.6
		c-0.1,2.4-0.3,4.8-0.4,7.1c0,0.5,0.1,1,0.7,1.1c0.9-0.2,0.9-1,1-1.8c0.2-3.9,0.4-7.8,0.6-11.6c0.2-4.2,0.9-8.5,0.6-12.7
		c0-0.2,0.2-0.4,0.5-1.2C571.9,202.3,572.6,203.9,572.5,205.9z"/>
	<path fill="none" d="M708.8,623.3c-6.2,0.4-12.5,0.8-18.7,1.1c-2.4,0.1-4.8,0.1-7-0.7c-4.8-1.7-9.5-3.7-14-6.2
		c-0.1-0.1-0.2-0.4-0.3-0.5c0.7-0.4,1.3-0.7,2.2-0.6c0.5,0.4,0.5,1.4,1.3,1.6c1.8,0,3.1-1.5,4.5-1.8c5.8,0.4,11.2,1.1,16.6,2.2
		c5.4,1.2,10.9,2.1,16.2,4.7C709.2,623.2,709,623.3,708.8,623.3z"/>
	<path fill="none" d="M650.1,132.2c-0.1-0.5-0.3-0.8-0.9-0.9l0.1,0.1c0-0.5-0.3-0.8-0.9-0.9l0.1,0.1c-1.7-1.3-3.8-2.2-5.3-3.9
		c-0.2-0.2-0.4-0.3-0.6-0.4c-1.9-0.3-3.4-1.4-5-2.4c-0.5-0.3-1.2-0.6-1.7-0.5c-1.6,0.1-2.9-0.7-4.3-1.2c-3.4-1.3-6.7-2.7-10.1-4
		c-0.7-0.3-1.4-0.5-2.4-0.2c-0.5,0.1-0.4,1.3-1.6,1.4c-2.4-1.1-5.1-1.3-7.2,0.7c-2.8,0.1-5.2-0.2-7.4-1.8c-0.5-0.4-1-0.8-0.6-1.7
		c3.9-0.5,7.8-1.1,11.8-1.2c0.9,0,1.7,0,2.6,0.1c6,0.5,11.4,2.6,16.5,5.6c1,0.6,1.9,1.4,3.1,1.3c1.6-0.2,2.9,0.7,4.2,1.3
		c1.1,0.5,2.2,1.3,3.5,1l-0.1-0.1c0.3,0.7,1,0.7,1.6,0.8l-0.1-0.1c1.3,1.5,2.7,2.7,4.6,3.1l-0.1-0.1c0,1,0.8,1.4,1.4,2
		c0.9,1,1.9,1.9,2.9,2.8c0.4,0.4,0.3,0.9-0.2,1.2c-1.7-0.2-2.4-2-4.1-2.3L650.1,132.2z"/>
	<path fill="none" d="M597.9,163.6c-1.8,0.3-3.8,0.8-5.6,0.5c-2.1-0.4-3.9,0.8-5.9,0.6c-1-0.1-1.9-0.4-2.9-0.8
		c-4.9-2.1-8.8-5.6-12.9-8.9c0.2-1.7,0.3-3.3,0.5-4.9c0-0.2,0.3-0.3,0.5-0.4c0.6,0,0.9,0.4,1.2,0.8c1,1.5,2.4,2.5,3.9,3.5
		c1.3,0.8,2.5,1.6,3.8,2.4c0.4,0.3,0.8,0.6,0.6,1.2c-1.1,0.6-2.5-0.5-3.6,0.4c0.1,0.7,0.7,1,1.3,1.2c3.4,1.1,6.8,1.5,10.4,1.7
		c1.4,0.1,2.8-0.2,4.1,0.5c2,1.1,4.1,0.9,6.2,0.4c0.5-0.1,1-0.1,1.5,0.8C599.8,163,598.8,163.5,597.9,163.6z"/>
	<path fill="none" d="M595.9,133.6c-1.7,0-3.3-0.2-4.6-1.2c-2-1.7-3.9-3.5-5.7-5.4c-0.4-0.4-0.2-0.9,0.3-1.2c0.8,0,1.3,0.6,1.9,1
		c1.6,1.2,3.2,2.3,4.9,3.4c0.5,0.4,1.1,0.5,1.7-0.1c0-0.7-0.5-1.1-1-1.5c-1.6-1.2-3.2-2.4-4.7-3.6c-0.2-0.1-0.1-0.4-0.2-0.7
		c0.6-1,1.6-1.4,2.7-1.6c2,1.2,3.9,2.2,5.8,3.5c1.8,1.3,4,1.9,5.5,3.6c0.3,0.3,0.9,0.4,1.4,0.4c0.6,0,1.2-0.3,1.8-0.3
		c1.6,0,3.2,0.2,4.4,1.8c-1.3,0.5-2.4,0.2-3.5,0c-0.6-0.1-1.3-0.5-1.8-0.3c-2.2,0.6-4.4,0.4-6.7-0.1c-0.6-0.1-1.2,0-1.7,0.5
		s-0.5,1.1-0.5,1.7L595.9,133.6z M598.3,128.7c-0.4-0.1-0.7-0.2-0.9-0.3c-0.6-0.8-1.4-0.9-2.3-1.3c0.3,1.6,1.5,1.1,2.4,1.2
		C597.6,128.6,597.7,128.9,598.3,128.7z"/>
	<path fill="none" d="M570.9,157.7c1.8,1.4,3.1,3.2,5.1,4.4c1.9,1.2,4.2,1.4,5.7,2.3c0.4,1.1-1.1,1.3-0.1,2.5c2.1,0,4.3,0,6.6,0
		c2.4,0.1,4.7-0.5,7.1-0.8c2.2-0.3,4.1-1.5,6.5-1.4c-0.2,0.9-0.8,1.1-1.4,1.4c-3.6,1.4-7.4,2.3-11.3,2.8c-2.5,0.3-5.1,0.8-7.5-0.2
		c-3.8-1.5-7.7-2.9-11.2-5.6C570.1,159.9,570.1,159.9,570.9,157.7z"/>
	<path fill="none" d="M645.6,125.4c-0.3-0.7-1-0.8-1.6-0.8l0.1,0.1c-0.1-0.3-0.2-0.8-0.5-0.9c-1-0.7-2-1.5-3.1-2.1
		c-2.8-1.3-5.7-2.6-8.5-3.8c-0.8-0.3-1.7-0.5-1.9-1.6c0.4-0.2,0.8-0.4,1.1-0.4c5.5,1.1,10.9,2.6,16.2,4.6c3,1.2,5.2,3.4,7.1,5.9
		c0.3,0.4,0.3,0.9-0.4,1.2c-0.7,0-1.1-0.5-1.6-0.9c-2-1.3-3.9-2.6-5.9-4c-0.5-0.4-1.1-0.6-1.8-0.4c-0.1-0.1-0.2-0.2-0.3-0.3
		c0,0.1,0,0.2,0.1,0.2s0.2,0.1,0.3,0.1c0,1.3,1.5,1.5,1.7,2.7C646.2,125.1,645.9,125.2,645.6,125.4L645.6,125.4z"/>
	<path fill="none" d="M595.8,133.7c4.3-0.2,8.4,0.6,12.4,2.6c2.3-0.4,4.6-1.5,6.1-3.4c2.7,0,2.7,0.1,4.6,1.1c-3.1,1.7-6,3.6-8.6,4.7
		c-2,0.1-2.7-1.3-3.8-1.2c-3.2,0.3-5.7-1.6-8.6-2.2c-0.9-0.2-1.6-0.8-1.9-1.7L595.8,133.7z"/>
	<path fill="none" d="M528.2,582.1c0.6-0.2,1.2,0,1.8,0.3c9.4,5.1,18.8,10.1,28.1,15.2c0.4,0.2,0.9,0.4,0.9,1.1l0.1-0.1
		c-3.9-0.7-7.4-2.3-10.7-4.3c-6.2-3.6-12.3-7.2-18.5-10.8C529.2,583.1,528.4,582.9,528.2,582.1L528.2,582.1z"/>
	<path fill="none" d="M591.5,108.5c-0.2-0.1-0.4-0.2-0.7-0.3c-0.5-0.3-0.7-0.6-0.5-1.3c2-0.7,4.1-0.1,6.1-0.3c3.2,1.2,4.5,3.9,6,6.3
		c-0.5,1.2-1.4,1.2-2.8,1.2C597.4,111.6,594.7,109.6,591.5,108.5z"/>
	<path fill="none" d="M794.1,660.7c-3.2,1.1-6.5,1.3-9.9,1.4c-0.4-1.4-0.5-2.6-0.2-3.7c3.5-0.8,8.5-0.7,12.4,0.2
		C796.2,659.9,795.2,660.3,794.1,660.7z"/>
	<path fill="none" d="M394.4,514.8c2.2-2.6,3.8-5.4,6.6-7.1c1.6,1.4,3.1,2.8,5.2,4.7C401.9,513.5,398.4,514.5,394.4,514.8z"/>
	<path fill="none" d="M578.1,221.6c-0.2-3-0.3-5.3,0.1-7.6c0-0.2,0.3-0.3,0.5-0.5c0.2,0,0.5,0,0.7,0.1s0.4,0.3,0.7,0.6
		C579.6,216.4,579.7,218.9,578.1,221.6z"/>
	<path fill="none" d="M603.2,109.6c1.4,0.8,3,1.2,3.9,2.8c-0.7,0.8-1.4,1-2.3,0.7C603.3,111.4,603.3,111.4,603.2,109.6z"/>
	<path fill="none" d="M575,212.3c-0.5-1.2-1-2.2,0.1-3.7C576.8,210.6,576.8,210.6,575,212.3z"/>
	<path fill="none" d="M571.8,181.8c0.4,0.9,0.3,1.7-0.8,2C570.4,182.3,570.4,182.3,571.8,181.8L571.8,181.8z"/>
	<path fill="none" d="M648.5,130.6c0,0.6,0.4,0.8,0.9,0.9l-0.1-0.1c0.1,0.5,0.3,0.8,0.9,0.9l-0.1-0.1c-0.2,0.3-0.3,0.6-0.5,0.9
		c-1.8-0.9-1.9-1-1-2.4L648.5,130.6z"/>
	<path fill="none" d="M650.2,128.5c-0.2-0.4-0.3-0.8-0.5-1.3c1.1-0.2,1.6,0.3,1.9,1.2l0,0c-0.5,0-1,0-1.5-0.1L650.2,128.5z"/>
	<path fill="none" d="M467.2,365.3c0,0.5,0.1,1.1-0.6,1.9C466.8,366.3,466.6,365.7,467.2,365.3L467.2,365.3z"/>
	<path fill="none" d="M431.2,466.2c0.1-0.4,0.1-0.7,0.2-1.1C431.6,465.6,431.8,466.1,431.2,466.2L431.2,466.2z"/>
	<path fill="none" d="M558.9,598.7c0.3,0.1,0.8-0.2,1.1,0.6C559.5,599,559.3,598.8,558.9,598.7L558.9,598.7z"/>
	<path fill="none" d="M674.2,187.8c-0.1,0-0.2-0.2-0.2-0.2c0.1-0.2,0.3-0.3,0.4-0.4c0.1,0.1,0.2,0.3,0.3,0.4
		C674.6,187.6,674.4,187.7,674.2,187.8z"/>
	<path fill="none" d="M526.6,581.4c0.7-0.2,1.4-0.3,1.6,0.7l0,0C527.6,582.1,527,581.9,526.6,581.4L526.6,581.4z"/>
	<path fill="none" d="M574.2,503.9C574.1,503.9,574.4,503.6,574.2,503.9L574.2,503.9z"/>
	<path fill="none" d="M572.7,500.1l-0.2,0.1L572.7,500.1z"/>
	<path fill="none" d="M374.1,581.2C374.1,581.3,373.9,581.1,374.1,581.2L374.1,581.2z"/>
	<path fill="none" d="M526.7,581.3c-0.2-0.1-0.3-0.2-0.5-0.4c0.1,0,0.2-0.1,0.3-0.1c0,0.2,0.1,0.4,0.1,0.6L526.7,581.3z"/>
	<path fill="none" d="M578.6,563.2l0.1,0.2L578.6,563.2z"/>
	<path d="M626.7,181.4c4.5-2.6,9.4-3.8,14.7-3.4c1.2,0.1,2.5,0.5,3.7,0.8s2.5-0.6,3.7,0.1c0,1.1-1.1,1.3-1.5,2.3
		c-0.1,0.9-0.2,2-0.2,2.9c0.4,1,1.3,1.5,1.3,2.5c-0.2,0.8-0.6,1.3-1.5,1.2c-1.6-0.5-1.3-2.8-3-3.1c-1.1,0.5-1,1.3-0.5,2.2
		c0.4,0.7,1.5,1,1.5,2.1c-0.7,0.9-1.9,0.3-2.7,1c-1.7,1.6-3.8,1.5-6.1,1.4c-0.7-1.3-1.5-2.6-2.5-3.3c-0.1-1.5,1.3-2.6,0.2-3.8
		c-1.1-0.1-1.9,0.5-2.8,0.9c-0.8,0.3-1.6,0.8-2.4,1.1c-0.6,0.2-1.2,0.1-1.5-0.6c1.2-1.8,1.8-2.3,4-2.9c3.3-0.9,6.6-1.4,10-1
		c1.3,0.2,2.7,0.5,4.3-0.2c-1.9-2-4.7-1.4-6.8-2.7c-2,1.2-4.3,1.4-6.4,2.2c-2.1,0.8-4,1.8-6.1,2.7
		C625.8,182.2,625.9,181.9,626.7,181.4z M637.5,184.9c-0.1-0.3-0.5-0.6-0.8-0.3c-0.4,0.4-0.3,0.8,0.1,1.2
		C637.4,185.8,637.7,185.5,637.5,184.9z"/>
	<path d="M665.5,232.1c-5,0-10-0.4-14.9,0.7c-0.7,0.2-1.5,0.2-2.2,0c-1.3-0.4-2.7-0.5-4.1-0.7c-1.5-0.2-2.9-0.7-3.8-2.1
		c-0.1-0.2-0.1-0.5-0.1-0.9c0.6-0.7,1.4-1.2,2.4-1.3c1.3,0.3,2.5,0.4,3.7,0.9c2.1,0.8,4.2,0.6,6.2-0.1c0.7-0.2,1.5-0.4,2.2-0.7
		c3.1-1.4,6.1-0.9,9,0.8c0.2,0.1,0.5,0.1,0.7,0.2c0.8-0.2,1.7-0.4,2.7-0.7c1.5,1.4,4,1.1,5.2,3c-0.2,1.5-1.1,2-2.5,2.3
		C668.6,233,667.2,232.1,665.5,232.1z"/>
	<path d="M664.9,214.6c1.1-0.9,2.2-1.7,3.3-2.4c0.9-0.7,1.8-1.3,2-2.9c-0.8-1.9-1.6-4-2.7-5.9c-3.2-5.6-5.3-11.5-6.7-17.8
		c-0.2-1.1-0.5-2.2-0.2-3.3c0.7-2.4,1.8-4.7,3.4-6.6c0.3-0.4,0.8-0.5,1.4-0.4c0.7,1.5,0.7,1.5,0.2,2.3c-1.2,2.2-2.5,4.3-3.2,6.9
		c1,1.5,1.2,3.2,1.7,4.9c0.2,0.8,0.3,1.8,0.6,2.5c2.2,5.2,4.5,10.3,6.9,15.4c0.7,1.5,0.9,2.9,0.1,4.3c-0.6,1.1-1,2.2-1.3,3.5
		c-0.1,0.6-0.5,1.1-1.4,1.6c-0.5,0-1.4-0.1-2.3,0c-0.9,0.1-1.7,1.2-2.8,0.2C663.7,215.6,664.3,215,664.9,214.6z"/>
	<path d="M647.8,169.7c1.9,0.3,3.7,0.6,5.5,1.1c0.8,0.2,1.6,0.7,2.3,1.1c0.5,0.3,0.6,0.8,0.5,1.3s-0.5,0.9-1,1s-1,0.2-1.5,0.1
		c-4.2-1.1-8.6-1.5-12.7-3.2c-1.4-0.6-2.9-0.8-4.4-0.7c-2.7,0.3-5.5,0.5-8.3,0.7c-1.7,2.2-4,3.3-6.3,4.6c-0.4-0.2-0.7-0.3-1.1-0.6
		c1-2.6,4.2-3.3,4.9-5.7c5.1-2.1,10.2-2.2,15.7-2C643.3,169.1,645.5,169.4,647.8,169.7z"/>
	<path d="M606.3,310.8c-1.3,1.6-2,3.4-2.3,5.4c-0.4,3-0.2,6,0.1,9.2c2,0.9,3.8,2.3,5.5,3.7c0.4,0.3,0.6,0.8,0.3,1.4
		c-1.2,0.9-2-0.2-3-0.6s-2.1-0.7-3.1-0.5c-0.6-1.1-1.3-2-1.8-3c-2.5-5.3-2.2-10.4,0.8-15.3c1-1.6,2.2-3.1,4.1-3.2
		c0.9-1.2,1.6-2.2,2.4-3.1c0.8-0.9,1.4-2,3-1.8C610.4,305.5,608.4,308.3,606.3,310.8z"/>
	<path d="M668.5,239.7c-0.6,0.4-1.3,0.8-2,1.1c-5.3,1.8-10.5,2.1-15.5-1.1c-0.2-0.1-0.3-0.4-0.4-0.6c-0.1-0.7,0.2-1.2,1-1.6
		c1.7-0.1,3.6,0.2,5.4,0.4c3.5,0.4,7,0.8,10.4-0.3c0.5-0.1,1-0.2,1.7,0.4C669.3,238.8,669.1,239.3,668.5,239.7z"/>
	<path d="M584.4,136.1c4.3,1.4,8.6,2.4,13,3.3c1.7,0.4,3.4,0.7,5.1,1c0.5,0.1,0.8,0.5,0.6,1.1c-0.9,0.5-1.9,0.3-2.9,0.2
		c-2-0.3-3.9-0.6-5.9-0.9c-3.8-0.7-7.5-1.6-11.1-3.1c-1-0.4-2.1-0.8-2.8-2.2C582.1,135.2,583.3,135.7,584.4,136.1z"/>
	<path d="M655,213.9c1.5-1.4,3.5-1.3,5.3-1.6c1.1-0.2,2.3,0.2,2.5,1.6c-1.9,2.1-2.1,2.2-9.9,3.1c-1.3-0.3-2.3-1-3.1-2
		c-1.1-1.4-0.8-2.7,1.1-4.1c0.6,1.4,0.3,3.5,2.7,3.7C653.9,214.4,654.6,214.3,655,213.9z"/>
	<path d="M675.3,182c-2-1.2-4-1.3-6-0.4c-0.7,0.3-1.4,0.6-2.1,0.8c-0.3,0.1-0.7-0.1-1.4-0.3c1.9-2.6,4.6-2.4,6.9-3
		c2,1.3,4.6,1.4,5.1,4.3C677,182.9,676.1,182.5,675.3,182z"/>
	<path d="M662.3,224.4c-0.4,0.1-0.7,0.3-0.9,0.2c-1.5-0.9-2-2.2-1.5-3.8c0.2-0.7,0.9-0.8,1.9-0.4
		C662.2,221.8,662.4,223.1,662.3,224.4z"/>
	<path d="M598.6,248.7c-1.9-4.7-1.9-4.7-0.9-6.4C599.1,243.5,599.2,244.2,598.6,248.7z"/>
	<path d="M599.4,262.7c-0.1-0.5,0.2-0.9,1-0.7c0.1,1.4,1.1,2.6,0.4,4.3C599.6,265.4,599.6,264,599.4,262.7z"/>
	<path d="M599.9,275.3c-0.1-0.7-0.2-1.5,0.7-1.8C600.9,274.6,600.9,274.6,599.9,275.3z"/>
	<path d="M579.5,150.1c-0.2,0-0.5,0-0.7,0c-0.4,0-0.5-0.1-0.2-0.4c0,0,0.2,0,0.3,0C579.1,149.9,579.2,150,579.5,150.1L579.5,150.1z"
		/>
	<path d="M659.7,385.4c2.3,8.7,6.3,16.5,11.6,23.7c0.3,0.4,0.6,0.8,0,1.2c-0.8-0.4-1.3-1.1-1.8-1.8c-2.4-3.5-4.9-6.9-7.1-10.6
		c-2.2-3.8-3.9-7.8-4.6-12.2c-0.1-0.8-0.4-1.7,0.3-2.8C659.4,383.4,659.5,384.5,659.7,385.4z"/>
	<path d="M694,442.5c-0.2-0.8,0.3-1.1,0.9-1.4c1-0.5,2.2-0.4,3.3-0.5c3.5-0.3,6.4-1.9,9-4.1c1.4-1.2,2.6-2.7,3.7-4.2
		c0.3-0.4,0.6-0.8,1.2-0.4C709.5,438.7,700.7,443.8,694,442.5z"/>
	<path d="M713.6,602.6c-2,0-3.9,0.3-5.6,1.2c-0.3,0.2-0.7,0-1.1-0.4c-0.1-1.1,0.8-1.6,1.7-2c1.8-0.9,3.6-0.6,5.4,0.6
		C713.7,602.4,713.6,602.6,713.6,602.6z"/>
	<path d="M727.9,585.8c-2.7-0.2-3.2-2.5-4.7-4.5C726.3,582.1,726.8,582.7,727.9,585.8z"/>
	<path d="M693.6,438.6c3.2-2.1,4-2.3,5.8-2.1C697,438.7,695.8,439.1,693.6,438.6z"/>
	<path d="M715.2,539.4c0,1.5,0.5,2.9-0.6,4.1C713.4,542.3,713.5,541.7,715.2,539.4z"/>
	<path d="M672.8,411.6c1.5-0.1,1.5-0.1,2.5,2.9C674.3,413.8,673,413.2,672.8,411.6z"/>
	<path d="M680.2,420.7c-0.7-0.2-1.5-0.4-1.2-1.8C680.4,419.7,680.4,419.7,680.2,420.7z"/>
	<path d="M714.7,534.1c0.2-0.2,0.5-0.1,0.6,0.2c0.1,0.4,0,0.7-0.4,0.7c-0.1,0-0.3-0.3-0.5-0.4C714.5,534.5,714.5,534.3,714.7,534.1z
		"/>
	<path d="M715.2,528.2c0.2,0.3,0.4,0.5,0.4,0.7c0,0.3-0.2,0.7-0.6,1.6C714.9,529.3,714.2,528.7,715.2,528.2z"/>
	<path d="M705.4,499.1c0.2,0,0.3,0.1,0.1,0.4c0,0-0.1-0.1-0.2-0.1C705.3,499.3,705.3,499.1,705.4,499.1z"/>
	<path d="M750.2,583.5c-0.7,0-0.7-0.3-0.5-0.9c0.1-0.5-0.2,0,0.4-0.1C750.1,582.9,750.1,583.3,750.2,583.5L750.2,583.5z"/>
	<polygon points="721.9,580 722,580.2 721.8,580.1 	"/>
	<path d="M591.2,451.3c-0.6,0.4-1.3,0.8-2,1.1c-8.2,3.5-16.6,4.3-25.4,2.6c-4.1-0.8-7.9-2.3-11.9-3.5c-4.1-1.3-7.9-3.2-11.4-5.7
		c-3.8-2.8-7.5-5.8-11.3-8.7c-0.7-0.5-1.2-1.2-1.8-1.8c0.2-1.2,0.2-2.2-0.6-3.2c-0.5-0.6-0.7-1.4,0.1-2c0.6-0.1,1,0.1,1.3,0.6
		c0.3,0.7,0.7,1.3,0.9,2c0.9,2.3,2.4,4.1,4.5,5.4c2.4,1.5,4.9,3,7.5,4.3c7.4,3.8,15.3,6,23.3,8.1c2,0.5,3.9,0.8,5.9,0.8
		c3.3,0,6.5,0,9.8-0.1c1.2,0,2.5-0.2,3.7-0.5c2.2-0.4,4.4-0.8,6.5-1.7c0.7-0.3,1.5-0.4,2.2,1.2C592.2,450.5,591.8,450.9,591.2,451.3
		z"/>
	<path d="M575.6,522.8c-0.3,0.3-0.7,0.6-1.1,0c1-1.5,2.5-2.5,4.1-3.5C578.1,520.8,576.8,521.7,575.6,522.8z"/>
	<path d="M591.3,506c0,1.5-1,2.4-1.8,3.5c-0.2,0.3-0.6,0.3-0.9-0.1C588.9,507.7,590.4,507.1,591.3,506L591.3,506z"/>
	<path d="M602.3,494.8c0-0.7,0.3-1.1,0.9-1.1C603.1,494.7,603.1,494.7,602.3,494.8z"/>
	<path d="M591.3,506c0.1,0,0.2-0.1,0.2-0.1C591.5,506,591.4,506,591.3,506L591.3,506z"/>
	<path d="M676.2,672.4c-0.5-0.7-0.9-1.5-1.3-2.3c-1.1-2.6-1.4-5.3-1.5-8.1c-0.3-4.8,0.3-9.5,0.9-14.2c0.1-1,0.5-1.9,0.8-2.9
		c0.2-0.6,0.7-1,1.4-1c0.3,0,0.7,0.3,1.2,0.5c0.3,1.3,0.6,2.6,0.8,3.9c0.7,5.6,1,11.2,1.1,16.8c0,1.7-0.1,3.5-0.3,5.2
		c-0.1,1-0.3,2-1.2,2.6C677.4,673.3,676.7,673,676.2,672.4z"/>
	<path d="M686.2,669.3c-0.4-1.7-0.7-3.4-0.7-5.2c-0.1-4.1-0.1-8.2,0-12.3c0-1.6,0.4-3.2,0.6-4.8c0.1-0.8,0.6-1.3,1.4-1.4
		c0.8,0.1,1.1,0.7,1.3,1.3c0.4,1.4,0.8,2.9,1,4.4c0.5,4.5,1,8.9,1.2,13.4c0.1,2-0.2,4-0.4,6c-0.1,1.1-0.5,2.2-2,2.5
		C687,672.4,686.6,670.8,686.2,669.3z"/>
	<path d="M695.3,664.4c-0.4-3.9-0.4-7.8-0.3-11.6c0-0.6,0.1-1.3,0.2-1.9c0.3-1.4,1.1-2.2,2.1-2.3s1.8,0.7,2,2.3
		c0.6,4.3,1.2,8.7,1.1,13.1c0,2.5-0.6,4.9-1.2,7.2c-0.6,0.4-1.1,0.5-1.7,0C696.4,669.3,695.6,666.9,695.3,664.4z"/>
	<path d="M710.2,655.5c0.2,2.7,0.4,5.5,0.5,8.2c0.1,2-0.3,3.9-1.3,5.6c-0.7,0.1-1.2-0.1-1.5-0.5c-0.9-1.2-1.5-2.6-1.7-4.1
		c-0.5-3.4-0.5-6.7,0.5-10c0.3-1,0.7-1.9,2.3-1.8C710,653.5,710.1,654.4,710.2,655.5z"/>
	<path d="M779.1,645c-0.4,2-1.3,3.8-2.2,5.5c-1.3,2.4-2.4,4.9-2.6,8c0.7,2.2,1.5,4.7,2.3,7.2c0.5,1.4,0.9,2.9,1.2,4.3
		c0.1,0.5,0.4,1.2-0.3,1.5c-2.5-4.1-4.5-10.1-4.8-14.5c0.5-0.6,1-1.3,1.5-1.9c0.3-4.2,1.6-8.6,3.6-11.9
		C779.1,643.5,779.3,644.2,779.1,645z"/>
	<path d="M717.7,656.2c0.9,2.6,1.3,5.4,1.3,8.1c0,1.1-0.2,2.2-0.9,3.2c-0.4,0.5-0.7,1.1-1.4,1c-0.1-0.1-0.3-0.1-0.3-0.2
		c-1.3-3.7-1.6-7.5-1.5-11.4c0-0.8,0.6-1.4,1.8-1.7C717,655.5,717.5,655.8,717.7,656.2z"/>
	<path d="M720.3,657.5c0.3-0.8,1.3-1.4,2.1-1.2s1.4,0.7,1.4,1.5c0.2,2.3,0.1,4.5-1,6.6c-0.4,0.7-0.8,1.3-1.9,1.1
		C719.2,663,719.4,660.3,720.3,657.5z"/>
	<path d="M538.9,530.6c1.9-0.5,3.9-0.9,5.8-1.2c0.5-0.1,1,0,1.5,0.2c0.4,0.2,0.8,0.6,1,1c0.4,0.6,0,1.2-0.6,1.7
		c-2.8,0.7-5.5-0.9-8.6-0.5C538.5,531.2,538.6,530.7,538.9,530.6z"/>
	<path d="M547,516.6c1.3-2.2,2.8-4.3,3.7-6.8c0.9-2.5,0.9-5.3,2.4-7.8c0.2,0.4,0.5,0.6,0.4,0.8c-0.6,2.5-1.2,5.1-1.9,7.6
		c-0.5,1.8-1.5,3.4-2.6,4.9C548.5,515.9,548,516.7,547,516.6L547,516.6z"/>
	<path d="M509.4,482.7c1.6-2,3.6-3.4,6.1-4.1c0.1,0,0.3,0.3,0.5,0.4c-2.7,2.5-3.5,2.9-6.7,3.6L509.4,482.7z"/>
	<path d="M509.3,482.7c0.2,0.5,0.2,1-0.2,1.3c-1,0.9-2.2,1.6-3.5,1.9c-0.3,0.1-0.7-0.2-1.1-0.3c1.2-1.9,3-2.5,5-2.8L509.3,482.7z"/>
	<path d="M561.3,487.3c0.1-2.4,1.3-4.3,2.6-6.4c0.1,0.5,0.3,0.8,0.2,0.9c-0.6,1.5-1.2,3-1.9,4.4
		C562.1,486.7,561.8,487.2,561.3,487.3L561.3,487.3z"/>
	<path d="M502.5,485.9c-0.9,0.7-1.8,1.5-3.3,1C500.6,485.7,500.6,485.7,502.5,485.9z"/>
	<path d="M546.1,518.6c0.6,1.1,0.6,1.1-1.3,1.9C545.3,519.5,545.3,518.8,546.1,518.6z"/>
	<path d="M559.1,491.8c-0.2,0.7-0.5,1.3-1.2,1.8C557.9,492.6,558.1,492,559.1,491.8L559.1,491.8z"/>
	<path d="M523.7,475.9c-0.1,0.4-0.3,0.6-0.7,0.4C523.1,475.9,523.4,476,523.7,475.9L523.7,475.9z"/>
	<path d="M559.8,490.3c-0.1,0.6-0.2,1.1-0.7,1.5l0.1,0.1C559.1,491.3,559,490.6,559.8,490.3L559.8,490.3z"/>
	<path d="M560.6,488.8c0,0.6-0.2,1.2-0.7,1.5l0.1,0.1C559.9,489.7,559.7,489,560.6,488.8L560.6,488.8z"/>
	<path d="M561.3,487.2c0.1,0.7,0,1.3-0.7,1.6l0.1,0.1C560.6,488.2,560.4,487.5,561.3,487.2L561.3,487.2z"/>
	<path d="M547,516.5c0,0.1,0,0.2,0,0.3s-0.1,0.1-0.2,0.1C546.8,516.8,546.9,516.7,547,516.5L547,516.5z"/>
	<path d="M775.7,637.8c1.3-1.3,2.9-1.3,4.5-1.1c2,0.2,4,0.4,6,0.4c3.9,0,7.9,0.5,12.2-1.7c-1.1,1.8-2.3,2.1-3.4,2.2
		c-3.7,0.4-7.4,1.1-11.1,0.7C781.1,637.9,778.4,637.8,775.7,637.8L775.7,637.8z"/>
	<path d="M720,616.9c-4.7-0.1-9.4-0.3-14-0.4c0-1,0.6-1.2,1.2-1.3c3.6-0.5,7.2-0.2,10.7,0.3c1.3,0.2,2.7,0.1,3.9,0.9
		C721.2,616.9,720.6,616.9,720,616.9z"/>
	<path d="M589.2,114.8c-0.3,0.5,0,1.3-1.1,1.6c-1-0.1-2-0.6-2.6-1.9c1.5-1,2.6,0.2,3.9,0.4L589.2,114.8z"/>
	<path d="M644,124.6c0.7,0,1.3,0.1,1.6,0.8C645,125.2,644.3,125.3,644,124.6z"/>
	<path d="M649.4,131.5c-0.5-0.1-0.8-0.3-0.9-0.9C649,130.6,649.3,130.9,649.4,131.5z"/>
	<path d="M650.1,132.2c-0.5,0-0.8-0.4-0.9-0.9C649.8,131.4,650.1,131.7,650.1,132.2z"/>
	<path d="M597.4,128.3c-0.9-0.1-2.1,0.5-2.4-1.2C595.9,127.5,596.8,127.7,597.4,128.3L597.4,128.3z"/>
	<path d="M597.4,128.4c0.3,0.1,0.6,0.2,0.9,0.3C597.7,128.9,597.6,128.6,597.4,128.4L597.4,128.4z"/>
	<path d="M644.9,122.3c-0.1,0-0.2,0-0.3-0.1c0,0,0-0.1-0.1-0.2C644.6,122.2,644.7,122.3,644.9,122.3L644.9,122.3z"/>
	<path fill="none" d="M636.8,184.6c0.3-0.3,0.7,0,0.8,0.3c0.2,0.6-0.1,0.9-0.6,0.9C636.4,185.5,636.4,185,636.8,184.6z"/>
</g>
</svg>
