<?xml version="1.0" encoding="utf-8"?>
<!-- Generator: Adobe Illustrator 19.1.0, SVG Export Plug-In . SVG Version: 6.00 Build 0)  -->
<svg version="1.2" baseProfile="tiny" id="Layer_2" xmlns="http://www.w3.org/2000/svg" xmlns:xlink="http://www.w3.org/1999/xlink"
	 x="0px" y="0px" width="900px" height="600px" viewBox="144 97 900 600" xml:space="preserve">
<g>
	<path d="M927.2,481.8c2,8.1,3.6,16.3,4.1,24.7c0.8,12.9,0.9,25.7-0.1,38.6c-0.1,1-0.1,2.1,0,3.1c0.2,2.4,0.5,4.9,0.8,7.3
		c0.1,0.9,0.1,1.8,0.8,2.5c3.4,1,6.9,1.1,10.3,0.2c4.1-1.1,7.8,0.3,10.9,2.4c3.9,2.6,8.2,4.3,12,6.9c0.5,0.3,1.2,0.4,1.8,0.6
		c3.8,1.4,7.9,2.3,11.2,4.7c1.1,0,2.2-0.4,3.1,0.2c1.7,1,3.6,1.2,5.5,1.8c1,0.3,2.1,0.5,2.8,1.1c1.7,1.4,3.6,2.3,5.6,2.3
		c0.8,1,0.8,1.9,0.4,2.8c-0.5,1-1.3,1.6-2.4,1.8c-1.2,0.2-2.5,0.2-3.9,0.4c-1.9,1.5-4,2.7-6.9,2c-1.3-1-3-1.5-4.8-1.8
		s-3.5-0.8-5.3-1c-2.2-0.3-4.2-1-6.3-1.9c-1.2-0.5-2.4-1-3.6-1.4c-3.3-1-6.7-1.9-10-2.9c-1.5-0.5-3.1-0.6-4.5,0
		c-1.4,0.5-2.8,0.6-4.2,0.7c-0.4,0-0.5,0.1-0.4,0.4c0.7,0.5,1.6,0.8,2.7,0.8c2.3-0.9,4.8-0.8,7.3-0.5c0.9,0.8,1.5,1.5,2.6,1.8
		c2.6,0.7,4.5,2.5,6.1,4.5c1,1.2,1.5,2.7,1.1,4.3c-0.9,1.7-2.5,2.3-4.1,2.5c-4.2,0.4-8.4,0.3-12.4-1.7c-3.6-1.8-7.3-2.1-11.1,0.2
		c0.1,0.7,0.1,1.3,0.3,1.9c0.9,4,1.9,8,2.9,12c0.6,2.1,1,4.2,0.7,6.5c-0.2,1.1-0.2,2.3,0.3,3.5c0.6,0.6,1.4,1.4,2.1,2.1
		c0.9,0.8,1.9,1.4,3.1,1.5c2.8,0.3,5.5,1.1,8.4,0.9c2.7-0.1,5.4,0,8.1,0c3.1,0,6.2,0.1,9,1.5c1.3,0.6,2.7,0.8,4.1,0.6
		c2.6-3.1,6.1-2.1,9.3-2.3c1.4,1.7,3.3,2.6,5,3.7c1.1,0.7,2.3,1.2,3.3,2c1.4,1.1,2.9,1.6,4.5,2c3.1,0.8,6.2,1.6,9.3,2.4
		c0.9,0.2,1.9,0.4,2.5,0.9c1.7,1.6,3.9,1.8,5.9,2.7c1.1,0.5,2.3,0.7,3.1,1.4c1.1,1,2.4,1.5,3.6,2.1c3,1.5,6.1,2.6,9.3,3.8
		c1.3,0.5,2.7,0.9,3.6,2.3c0.4,0.5-0.2,1.5,0.4,2c2.3,1.2,4.8,2,6.5,4c-0.2,1.4-1,2.1-2.2,2.5c-3.1,1-6.3,2.1-9.6,2.6
		c-2,2-2.2,2.2-4.6,2.5c-2.6,0.3-5.1,0.3-7.6-0.5c-2.1-0.6-4.2-1.2-6.3-1.8c-0.2-0.1-0.5,0.1-0.7,0.1c-0.5,1-0.5,2.3-1.9,3.4
		c-1.2,0.9-3.3,0.6-5.2,1.2c-2.3-0.6-4.6-1.3-7-1.9c-4.1-1.2-8.1-2.5-12.2-3.6c-5.6-1.5-11.3-2.6-16.9-4.1c-3.7-1-7.6-1.2-11.5-0.5
		c-2.8,0.5-5.6,0.4-8.5,0.1c-3.1-0.4-6.1-0.8-9.2-1.3c-4-0.8-8-1.7-12.1-2.6c-2.2-0.5-3.8-2-5.7-3.1c-2.9-1.7-4.7-4.2-6.3-7.1
		c-2.5-4.4-4.2-9.1-5.8-13.9c-0.9-2.6-2-5-1.5-7.9c0.1-0.7-0.2-1.5-0.4-2.3c-2.3-8.8-4.7-17.7-7-26.5c-0.1-0.5-0.4-0.9-0.6-1.4
		c-2.9,0.2-3.3,0.1-4.4-0.7c-5.9-4.2-10.7-9.2-13.1-16.2c-1.7-5.1-3.7-10.2-5.4-15.3c-1.5-4.6-3.5-9-3.7-14.1
		c-0.1-3.3-1.2-6.6-1.9-9.8c-0.1-0.5-0.2-1-1-1.1c-1.1,1.2-2.4,2.4-2.9,4.3c-0.3,1.4-1.2,2.6-2.1,3.7c-1.2,1.5-2.5,2.9-3.8,4.3
		c-6.5,6.8-13.5,13.1-21,18.8c-1.5,1.2-3,2.4-4.5,3.6c-7.5,6.3-15.4,12.1-23.7,17.3c-2.7,1.7-5.5,3.3-8.4,4.8
		c-1.3,0.7-2.7,1.5-4.7,1c-0.6,0.1-0.6-1.3-1.9-1.1c-3.6,2.5-7.7,4.4-12.1,6.1c-4.8,1.9-9.6,3.7-14.5,5.1
		c-8.1,2.3-15.8,5.5-22.5,10.8c-2.4,1.9-5,3.2-8.1,2.1c-1.2,0.6-2.3,1-3.2,1.6c-4.7,3-9.9,4.8-15.2,6.5c-4.9,1.5-10,2.7-14.7,4.7
		c-2.4,1.1-5,1.6-7.5,1.7c-3.6,0.1-7.2,0.7-10.7,1.4c-14.3,2.6-28.7,4.5-43.3,5.4c-13.5,0.8-27,0.7-40.5-0.2
		c-0.9-0.1-1.8-0.2-2.7-0.4c-4.1-1-8.3-1.6-12.4-3c-0.7-0.2-1.5-0.4-2.3-0.4c-7.2-0.6-14.2-2.6-21.4-2.6c-0.1,0-0.3,0-0.4-0.1
		c-3.3-0.4-6.6-0.8-9.9-1.4c-6.4-1-12.7-2.1-18.9-4c-4.1-1.3-8.2-2.3-12.4-3c-0.3-0.1-0.8-0.1-0.7-0.7c0.2-0.4,0.6-0.4,1-0.3
		c2.9,0.6,5.8,1.3,8.7,1.7c10.4,1.7,20.9,3,31.4,3.9c8,0.7,15.9,1.7,23.8,2.7c8.4,1.1,16.8,2.3,25.2,3.4c2.9,0.4,5.9,0.7,8.8,0.7
		c6.3-0.1,12.6-0.4,18.9-0.8c7.1-0.5,14.1-1.1,21.1-1.9c9.7-1.1,19.4-2.5,29.1-3.7c0.7-0.1,1.6,0,2.2-1c0-1.6,0.2-3.4,0.5-5.2
		c0.2-0.9,0.2-1.8,0-2.7c-0.5-2.5-0.8-5.1-1.9-7.5c-0.4-0.8-0.7-1.7-0.9-2.5c-3.6-12.3-8.3-24.1-14-35.5c-0.3-0.7-0.6-1.5-1.2-1.9
		c-1.4-1-2.1-2.6-3.1-3.9c-1.4-1.8-2.8-3.7-4.2-5.5c-4.7-6.1-9.7-12-13.4-18.9c-1-1.8-2.4-3.3-3.8-4.6c-6.2,2.1-6.2,2.1-13.4,2.6
		c-1.5,0.1-3.1,0.3-4.6,0.6c-3.4,0.8-6.8,1.2-10.3,1.7c-10.6,1.6-21,4-31.3,6.8c-6.9,1.8-13.8,3-20.9,3.8c-4.6,0.5-9.2,1-13.7,1.5
		c-0.9,0.6-1.6,1.2-2.4,1.5c-0.9,0.4-1.9,0.7-2.9,0.9c-4.3,0.9-8.5,1.9-12.8,2.6c-8.1,1.4-16.1,3.2-24.4,3.8
		c-6.1,0.4-12.1-0.2-17.9-1.7c-2.2-0.6-4.5-1.2-6.8-1.3c-0.8,0-1.6,0-2.2-0.5c-1.3-1.1-2.8-1.2-4.3-1.4c-7.1-1.1-14.2-2.3-21.2-4.1
		c-1-0.3-2-0.4-3-0.6c-7.8-1.2-15.6-1.5-23.4-2.2c-6.4-0.6-12.8-1-19.2-1.4c-3-0.2-5.9-0.1-8.8,0.6c-10.1,2.4-20.4,4.2-30.7,5.9
		c-3.3,0.5-6.6,0.8-9.9,1.8c-7.4,2.2-15,3.4-22.7,4.6c-8.9,1.3-17.9,2.1-26.9,2.4c-1.2,0-2.3,0.1-3.5,0.3
		c-7.5,1.2-15.1,1.5-22.7,1.4c-4-0.1-8-0.2-12.1-0.3c-4.9,2.5-10.4,4.1-15.2,7.8c-1.2,2.3-3.6,4-5.8,5.7c-2.1,1.6-3.8,3.4-4.6,6.1
		c2,5,2.3,10.5,4.8,15.3c4.8,2,9.5,3.6,14.5,4.5c0.8,0.1,1.5,0.2,2.2,0.6c1.6,1,3.4,1.1,5.2,1.1c1.3,0,2.6,0.1,3.9,0.1
		c1.4-0.1,2.7-0.3,3.8-0.4c1.1,0.6,0.3,1.7,1.1,2.3c2.1,0,4.3-0.1,6.5,0c9.3,0.3,18.5,0.8,27.8,1.1c8.2,0.2,16.4,1.2,24.6,2
		c4.1,0.4,8.1,1.3,12.2,0.6c0.7-0.1,1.6-0.1,2.3,0.1c2.7,0.5,5.4,0.3,8.1,0.5c2.6,0.1,5.1,0.4,7.7,0.6c4.5,0.3,9,0.6,13.5,1
		c9.4,0.7,18.8,0.1,28.2,0.6c7.3,0.4,14.7,0.2,22,0.9c7,0.7,14.1,1.2,21.2,1.7c1,0.1,2,0.5,2.9,0.8c3.6,1.2,7.2,2.7,11.1,3.2
		c3.6,0.4,7.2,0.5,10.8,0.7c1.9,0.1,4,0,5.7,0.7c1.6,0.6,3.2,0.7,4.8,1c2.2,0.4,4.4-0.1,6.5-0.2c5.1-0.3,10.3-0.6,15.3-1.7
		c0.7-0.2,1.5-0.3,2.2,0.3c0.1,0.8-0.3,1.3-0.9,1.5c-1.7,0.5-3.5,1-5.2,1.3c-3.6,0.5-7.2,0.8-10.7,1.2c-3.9,0.5-7.7,0.2-11.6-0.1
		c-5.5-0.4-10.9-1.6-16.4-2.2c-2.5-0.3-5.1-0.8-7.5-1.7c-3-1.2-6.2-1.8-9.4-1.8s-6.4-0.3-9.6-0.9c-0.9-0.2-1.8-0.2-2.7-0.3
		c-3.8-0.6-7.7-0.5-11.5-0.7c-7.6-0.4-15.2-0.8-22.7,0.1c-0.9,0.1-1.8,0.1-2.7,0c-5.1-0.3-10.3-0.6-15.4-1c-4.7-0.4-9.5-1-14.2-1.2
		c-6.7-0.3-13.4-0.4-20.1-0.7c-4.6-0.2-9.2-0.6-13.9-1c-7.4-0.6-14.9-1.4-22.3-2c-9.9-0.8-19.8-1-29.7-0.7c-1.4,0-2.8,0.2-4.1-0.1
		c-0.8-0.4-1-1.3-2.1-1.3c-1.5,0.4-3.1,0.6-4.8,0.7c-0.8,0-1.5,0.1-2.3,0.3c-3.8,1-7.7,2-11.5,3.2c-4.3,1.4-8.6,1.7-12.9,0.6
		c-2.9-0.8-5.7-0.5-8.3,0.8c-2.8,1.4-5.6,1.8-8.6,1.9c-10.4,0.2-20.8,1.7-31.1,2.8c-1.7,0.2-3.4,0.2-5,0.5
		c-6.3,1.2-12.6,0.9-18.8,0.1c-4.1-0.5-8.2-0.4-12.3-0.4c-1,0-2,0.3-3,0.6c-2,0.5-4,0.9-6.1,1c-3.1,0.1-6.1,0.3-9.1,0.4
		c-2.8-1.7-4.1-2.7-4.9-4.8c-1.2-3.2-2.2-6.5-3.5-9.7c0.1-2.1-0.6-4-1.2-5.8c1.1-2.1,2.6-3.7,4.1-5.2c0-0.9,0-1.7,0-2.3
		c1.4-1.9,3.2-3.2,4.9-4.6c2.4-2,4.6-4.1,6.1-6.9c0.5-0.9,1.2-1.7,1.8-2.5c0.9-0.1,1.8-0.3,2.7-0.4c3.4-3.6,8.2-5.6,11.8-9.2
		c0.3-0.3,0.6-0.5,1-0.6c4.8-1.7,9.7-3.5,15-3.1c1.9,0.1,3.9,0,5.8-0.1c0.6,0,1.3,0.2,1.5-0.8c-0.3-0.3-0.6-0.7-1-1.1
		c-1.6-1.6-1.9-3.6-1.4-5.7c0.6-2.3,1.5-4.3,3.1-6.1c1.9-2.3,4.6-3.3,6.8-5c1.2-0.9,2.5-1,3.9-0.7c0.4-0.6,0.6-1.1,0.9-1.5
		c2.2-3.6,4.8-6.7,8.6-8.6c1.7-0.8,3.3-2,5-2.9c3.2-1.9,6.4-3.8,9-6.6c1-1,2.1-1.9,3.2-2.8c1.8-1.5,3.9-2.5,6-3.3
		c1.4,0.7,1.6,2.6,3.4,2.6c0.9-0.6,1.8-1.3,2.8-1.8s2.1-0.9,3.2-1.3c2-0.8,4.1-1.6,6.1-2.4c0.2-0.1,0.3-0.4,0.5-0.6
		c0.3-0.8-0.6-1.4-0.4-3c1.2-2.4,2.6-5.6,4.3-8.6c1.7-3.1,2.9-6.2,3.8-9.6c1.9-7.2,5.9-13.1,12.1-17.4c4.2-2.9,8.7-5.5,13.3-7.9
		c1.1-0.6,2.2-1.2,3.8-1.1c0.9,1.5,1.8,3,2.9,3.8c4.3,2.1,8.4,3.6,12,6.2c5.7,4.2,11.4,8.4,16.9,12.8c4.2,3.4,8.7,5.9,13.8,7.5
		c1.1,0.3,2.2,0.6,3.1,1.5c0.2,0.7,0.4,1.5,0.8,2.1c0.5,0.8,1.1,1.4,1.6,1.9c0.4,1.7,0.3,3.3,1.3,4.6c0.4,0.1,0.8,0.2,1.1,0.2
		c10.6,0.3,21.1,0.6,31.6-0.8c2.9-0.4,5.9-0.8,8.6-2c0.3-0.2,0.7-0.2,1.1-0.3c0.6,0.2,1.2,0.5,1.9,0.7c7.3-1.5,14.7-2.5,22.1-3.1
		c4.1-0.3,8.2-0.9,12.3-1.5c3.2-0.4,6.3-1,9.5-1.6c5.3-0.9,10.8-1,16.1-2.1c0.6-0.1,1.3,0,1.8,0c0.7,0.5,1.3,1,1.7,1.3
		c3.7,0.5,7.2,0.9,10.6,1.5c4.4,0.8,8.8,1.8,13.2,2.6s8.9,1.5,13.2,2.7s8.9,0.8,13,2.9c6.8,1.3,13.7,2.2,20.6,2.4
		c11,0.3,21.9-0.6,32.8-1.1c0.5,0,1-0.1,1.5-0.2c7.2-1.2,14.6-1.8,21.9-2.1c5.1-0.2,10.3-0.6,15.4-0.9c7.2-0.4,14.4-1.1,21.6-1.3
		c10-0.3,20-1.2,30.1-1.7c0.9,0,1.8-0.2,2.6-0.3c1.7-1,2.8-2.8,5-2.5c1.4-1.8,3.4-3,4.2-5.1c0.1-0.4,0.8-0.6,1.3-0.9
		c1.2,0.3,2.4,0.6,3.7,1c0.7-0.7,1.4-1.3,2-2s1-1.5,1.5-2.2c2.6-4.4,5-9,8.1-13.1c3.9-5.3,8.8-9.3,14.7-12.2
		c4.7-2.2,9.5-3.9,14.4-5.4c3.1-1,6.2-1.8,9.4-1.8c1,0,2-0.3,3-0.5c13.3-2.5,26.1-1.1,38.5,4.5c3.5,1.6,6.9,3.5,10.4,5.4
		c2.2-0.1,4.3-0.8,6.3-2c1.7-0.9,3.4-1.8,5.2-2.5c5.8-2.6,11-6.1,15.2-10.8c1.8-4.5,3.4-8.9,5.2-13.3c2.1-5.3,4.2-10.5,6-15.9
		c1.3-4,2.4-8.2,3.9-12.1c1-2.7,1.4-5.4,1.6-8.3c0.2-4.9,0.6-9.8,0.8-14.6c0.5-8.2,1.1-16.4,1.4-24.7c0.3-9.9,1.4-19.8,2.4-29.6
		c0.6-5.6,1.4-11.2,2.6-16.8c0.5-2.3,1.3-4.4,3-5.8c1.9-11.1,4.9-21.6,9.4-31.6c0.4-0.8,0.7-1.7,1-2.5c1.2-3.6,2.6-7,5.1-9.8
		c0.1-0.1,0-0.5,0-0.7c-0.2-0.1-0.4-0.3-0.7-0.3c-6.5-0.9-13-2-19.5-2.5c-1.9-0.2-3.8-0.6-5.7-1.1c-2.6-0.7-5.1-1.7-7.7-2.5
		c-0.6-0.2-1.2-0.4-1.6-1c-0.7-1.1-1.9-1.2-3-1.5c-0.4-0.1-0.7,0.2-1,0.5c0,0.4,0,0.7,0.1,1.1c0.2,0.6,0.4,1.2,0.6,1.7
		c0.7,0.6,1.6,0.5,2.2,2c0.3,21.9,1.1,44.4,3.5,66.7c0.8,0.5,1.8,0,2.4,1.1c-1.2,1-1,2.6-0.9,4.1c0.6,6.9,1.3,13.8,1.8,20.8
		c0.5,6.5,1,13.1,0.8,19.7c-0.1,3.5-0.3,6.9-0.4,10.4c-0.2,6.2-0.9,12.3-2.2,18.4c0,0.2,0.1,0.5,0.2,0.8c0.3,0.1,0.7,0.2,1,0.4
		c0.3,0.2,0.6,0.5,0.7,0.6c0.3,0.9,0.1,1.7-0.1,2.4c-2.8,12.4-8.3,23.5-16.5,33.2c-4.4,5.2-9.7,9.2-16,11.8
		c-1.8,0.7-3.5,1.7-5.1,2.7c-2,1.3-4.1,2.6-6.3,3c-0.8-0.4-1.1-0.7-1-1.4c0.3-1,1.2-1.6,1.9-2.4c2.9-3.2,5.9-6.5,8.9-9.7
		c1.3-1.5,2.2-3.1,2.7-5.1c0.8-3.6,1.8-7.2,2.6-10.9c2.2-9.8,3.4-19.8,4.5-29.8c0.3-2.4,0.2-4.9-0.5-7.3c-0.8-2.8-1.4-5.7-2.2-8.6
		c-3-11.5-6.8-22.7-10.8-33.8c-2.9-8.1-5.7-16.3-7.6-24.7c-1.5-6.7-2.4-13.4-1.9-20.3c0.2-3.3,0.6-6.7,1.1-10c1.3-9,2.8-18,4.1-27.1
		c0.4-2.6,1.2-5,2.6-7.2c1-1.5,2-3,3.1-4.4c2.7-3.6,5.5-7.2,8.2-10.7c0.5-0.7,1.3-1.3,1.1-2.7c-2.2-2.8-3.4-6.5-4.8-10.1
		c-0.3-0.8-0.8-1.6-1.2-2.4c-2.6-5.7-4.3-11.6-4.4-17.9c0-7,0.3-13.9,1.6-20.8c1.1-5.8,2.7-11.5,3.1-17.4c0-0.6,0.4-1.2,0.7-1.8
		c0.6-1,1.2-2,1.9-2.9c3.3-4.4,6.7-8.8,10-13.3c1.6-2.1,3.5-3.7,5.7-5.1c3.3-1.9,6.7-3.9,9.8-6.1c2.1-1.5,4.4-2,6.9-2.2
		c1.2-0.1,2.3-0.1,3.5-0.1c4.3-0.3,8.7-0.7,13-0.9c1.8-0.1,3.6,0,5.3,0.2c4.3,0.5,8.6,1.5,13,1.6c1.8,0.1,3.5,0.7,5,1.8
		c0.9,0.7,1.9,1.3,2.8,2c1.9,1.4,3.9,2.5,6.5,3c1.5-0.4,3.3-0.4,5.1-0.4c1.5,0,3.1,0,4.6-0.3c4.4-0.9,8.8-2.1,13.3-2.4
		c0.4,0,0.7-0.3,1.1-0.4c0.4-0.1,0.7-0.1,1-0.2c1.1,0.3,2,0.7,2.7,1.8c0.7,2.9,0.9,5.9,0.2,9c1.4,1.7,3,2.6,5.1,2.3
		c1.7-0.3,3,0.1,4.3,1.4c0.5,1.2,1,2.5,1.6,3.9c3-1.5,5.6-0.9,7.9,1.2c0.8,1.1,1.1,2.6,2.4,3.4c3.9,0.2,7.5,1.1,10.7,3.3
		c1.8,4,1.9,7.9,0.7,11.8c-1.3,4.2-2.6,8.3-4.3,12.4c-1.2,2.8-1.7,5.6-1.7,8.6c-0.1,8.5,1.3,16.9,3,25.2c1.2,5.6,3,11.2,2.2,17.1
		c0,0.2,0,0.5,0.1,0.8c0.6,5.6,0.3,11.3,0.3,17c0,1.4,0,3-0.6,4.2c-1.2,2.5-0.8,5.3-1.7,7.9c3.4,4.2,6.8,8.2,9.2,12.9
		c2.4,4.7,4,9.7,5.4,14.6c2.2,1.3,2.2,1.3,2.9,2.7c1.1,2.5,2.1,5,3.2,7.4c1.9,4.4,3.2,9,3.8,13.7c0.4,3.3,0.8,6.7,0.9,10
		c0.1,1.8,0.4,3.5,1.1,5.2c3.1,8,6,16.1,8.7,24.4c1,3.1,1.9,6.1,2.8,9.2c1.3,0.6,2,1.6,2.5,2.9c0.7,1.8,1.1,3.7,1.4,5.6
		c1.3,6.2,2.6,12.4,2.2,18.7c-0.1,0.9,0.3,1.8,0.4,2.7c1.8,13.8-3.3,25.1-14.9,32.3c-1.9,1.2-3.9,1.8-6.2,1.7
		c-1.2-0.1-2.4-0.2-3.5,0c-2.7,0.6-5.5,1.2-8.5,1.4c-0.5,2.7-0.5,5.2-0.7,7.8c-0.1,2.1-0.3,4.1-1,6.1c-1.1,3.2-1.5,6.5-1.4,9.8
		c0.1,5.4-0.4,10.8-2.1,16.2C927.1,479.5,927.2,480.7,927.2,481.8z M1020.8,636.9c-1.1-1.7-3.2-2-4.4-3.5c-1.9-0.3-3.7-1.2-5.7-1.1
		c-3.1-1.7-6.5-2.9-9.9-4c-1.6-0.5-3.2-0.9-4.8-1.4c-0.6-0.2-1.3-0.3-1.8-0.7c-2.5-2.1-5.5-2.5-8.5-3.3c-1.6-0.5-3.2-1-4.8-1.4
		c-0.7-0.2-1.1-0.7-1.5-1.2c-1.3,1.1-2.8,1.2-4.4,1c-1.5-0.2-3.1-0.3-4.5-0.8c-2.3-0.8-4.5-0.7-6.8-0.4c-4.2,0.5-8.4,0-12.7-0.3
		c-1.4-0.1-2.8-0.4-4-1.3c-0.9-0.7-1.9-0.7-2.9-0.6c-0.9,0.7-0.9,1.8-1.4,2.7c-0.4,0.7-0.7,1.4-1.6,1.5l0.1,0.1
		c-0.9-2,0.2-3.7,0.6-5.6c-1.4-1.4-3.9-1.1-4.7-3.7c0.8-2.4,0.2-5-0.6-7.6c-3.4-10.9-4.7-22.1-6.7-33.3c-0.5-2.7-0.6-5.4-0.9-8.1
		c-0.2-1.4-0.2-2.8,0.4-4c-0.4-0.5-0.7-0.9-1.1-1.5c0.9-4,0-8.1-0.2-12.2c-0.1-2.1-0.4-4.1,0.6-6.1c0.4-0.8,0.3-1.8,0.3-2.6
		c0-11.1,0-22.1-0.8-33.2c-0.5-6.6-1.4-13-3.6-19.3c-0.3-1-0.8-1.9-0.7-3c0.2-2-0.5-3.8-1.8-5.1c0-2.7,0.4-5.3,0.1-7.8
		c1-1.8,1.4-3.7,1.7-5.6c1-5.8,1.5-11.7,2.1-17.6c0.3-2.8,0.7-5.6,0.9-8.4c0.6-7.3,1.1-14.6,0.4-22c-0.1-1-0.1-2.1,0.1-3.1
		c0.7-4.1,0.6-8.2,0.2-12.3c-0.1-1.5-0.4-3,0.1-4.6c0.2-0.8,0.1-1.8,0.1-2.7c0-3.2-0.1-6.4-0.2-9.7c0-2.5,0-4.9,1.3-7
		c-0.9-5.4-0.2-10.7,0.4-15.9c1.1-10.2,2.3-20.5,3.5-30.7c0.2-2,0.2-4.1,0.3-6.2c0.1-1.5,0-3,0.4-4.6c0.3-1.1,0.2-2.3,0-3.4
		c-0.5-3.7-1.2-7.4-1.8-11c-0.3-1.7-0.6-3.3-0.1-4.9c-3-7.9-6.4-15.5-11.8-22.1c-1.9-2.4-4-4.2-7-5.2c-3.8-1.3-7.4-3-11.1-4.6
		c-2.5-1-4.9-2.1-7.6-2.8c-1.9-0.5-3.8-0.7-5.6,0.3c-0.8-0.2-1.5-0.4-2.3-0.6c-0.6-0.2-1.2-0.3-2.2-0.6c1.9-0.7,3.5-0.4,5.2-0.6
		c1-0.6,1.8-1.8,3.2-1.8c1.1,0,2.3,0.2,3.8,0.3c-1.8-1.6-3.7-2.2-5.6-2.7c-5.7-1.6-11.4-1.8-17.1,0c-4.4,1.4-8.8,2.9-12.7,5.5
		c-2.6,1.7-4.9,3.7-6.8,6.2c-2.7,3.6-5.1,7.4-6.6,11.7c-2.2,6.3-4.7,12.5-7.1,18.8c-1.6,4.2-2.8,8.6-3.5,13c0,0.1-0.1,0.2-0.1,0.4
		c-0.6,5.1-0.9,10.2-1.6,15.3c-0.2,1.1,0.3,2.3,0.5,3.4c0.5,2.6,1.2,5.3,1.7,7.9c1.7,8.8,5,17,9.6,24.7c3.8,6.5,9.5,11.1,16.4,14.1
		c0.6,0.3,1.2,0.3,1.9,0.1c0.7-0.6,0.6-1.4,0.5-2.1c-0.4-6.7-0.8-13.4-1.3-20c-0.3-4-0.4-8-0.2-12c0.1-2.3,0.4-4.6,2.2-6.5
		c0.1-2.7,0.3-5.4,0.8-8c0.2-0.8,0.3-1.5,0.8-2.1c0.6-0.6,1.2-0.9,2-0.2c0.1,0.2,0.3,0.5,0.3,0.7c-1.1,6.4-0.9,12.8-1.5,19.2
		c-0.5,5.6,0.6,11,1.1,16.5c0.4,4.1,0.9,8.2,1.1,12.3c0.4,6.9,0.8,13.9,1.6,20.8c0.6,5.2,1.4,10.5,2.3,15.7c0.3,1.7,0.8,3.2,1.6,4.7
		c5.5,10.1,8,21.1,9.1,32.5c0.2,1.8,0.1,3.6-0.3,5.5c1.2,1.6,1.3,3.5,1.4,5.4c0.3,4,0.5,8,0.6,11.9c0.1,4,0.6,7.9,1.1,11.9
		c1,8.4,2.2,16.8,3.3,25.3c0.2,1.7,0.2,3.3,0.4,5.2c2.3,2.9,2.4,6.6,2.8,10.1c0.7,6.3,1.1,12.6,1.7,18.8c0.9,8.7,1.9,17.4,4.4,25.8
		c2.6,9,4.9,18.1,7.3,27.2c0.8,3.1,1.4,6.3,2,9.4c0.2,1,0.4,2.1,0.2,3.1c-0.4,2.2,0.3,4.1,1.1,6c2.2,5.4,4.6,10.6,7.8,15.5
		c1,1.5,1.9,3,2.1,4.8c3.1,1.9,6.4,3,9.8,3.6c5.9,1.2,11.9,2,18,2.4c2.8,0.2,5.7,0.1,8.5-0.4c0.5-0.1,1-0.2,1.5-0.2
		c6,0.4,12.1,0.2,17.8,2.8c2.7,1.2,5.6,1.9,8.4,2.6c4.9,1.2,9.7,2.7,14.4,4.4c2.4,0.9,4.7,1.1,7.2,0.6c-0.1-0.8-0.8-1-1.3-1.2
		c-1.8-0.8-3.5-1.5-5.3-2.4c-1-0.5-2.2-1-2.9-1.8c-2.3-2.5-5.3-3.5-8.4-4.5c-2.2-0.7-4.4-1.4-6.6-2.1c-1.2-0.4-2.5-0.8-3.2-2
		c0-0.5,0.2-0.7,0.8-1.1c3.5,1.6,7.4,2.5,11.2,3.6c2.8,0.9,5.5,2.1,8,3.8c1.4,0.9,2.9,1.5,4.6,1.7c4.8,0.8,9.6,1.9,14.2,3.5
		c3.1,1,6.1,0.9,9.1,0.2c0.2,0,0.4-0.3,0.6-0.5c0-0.1,0.1-0.3,0.1-0.4c-0.6-0.7-1.2-1.3-1.6-1.8c-2.8-0.7-5.2-1.6-7.8-2
		c-2.9-0.5-5.7-1.6-8.1-3.4c-3.1-2.4-6.6-3.3-10.4-3.4c-4.5-0.2-8.9-1.2-13.1-3.1c-0.8-0.4-1.7-0.6-1.7-1.8c0.4-0.4,0.9-0.4,1.4-0.2
		c4.7,2,9.6,2.8,14.7,3c3.1,0.1,6,0.9,8.8,2.5c3.9,2.2,8.2,3.7,12.5,5.1c1.8,0.6,3.7,1.1,5.2,2.4c1.1,0.9,2.5,1.2,4,0.8
		c1.9-0.4,3.8-0.8,5.6-1.3c0.3-0.1,0.6-0.5,0.8-0.7c-0.8-1.2-2.1-1.5-3.3-1.8c-5.4-1.8-10.7-3.5-16.1-5.3c-2.3-0.8-4.5-1.9-6.5-3.3
		c-1.6-1.1-3.4-1.7-5.3-2c-3.4-0.6-6.8-1.2-10.2-1.9c-1.3-0.2-2.5-0.6-3.7-1c-0.6-0.2-1.2-0.5-1.3-1.3c0.2-0.8,0.9-0.8,1.5-0.7
		c4.3,0.8,8.6,1.6,12.9,2.5c1.5,0.3,3,0.5,4.6,0.4c2.6,2.2,5.9,3.3,9,4.6C1020.1,637,1020.2,636.9,1020.8,636.9
		c0.3,0.8,1,0.7,1.7,0.7c0.2,0.5,0.5,0.6,1,0.3c-0.3-0.1-0.7-0.1-1-0.2C1022.2,636.8,1021.2,636.8,1020.8,636.9z M788.7,432.8
		c-1.1-0.6-1-1.8-1.6-2.9c-2.6,4.5-5.9,8.3-6.6,13.5c2.9-1.3,5.4-3.3,9.8-8c0.1-0.7,0.3-1.6,0.4-2.5c0.7-0.4,0.7-1,0.7-1.7
		c1-0.5,1.2-1.6,1.5-2.5c1.6-4,2.4-8.1,3.1-12.3c1-6.3,1.6-12.7,1.7-19.2c0-2.7,0.5-5.4,0.5-8.1c-0.2-10.7-0.5-21.3-1.8-31.9
		c-0.7-6-1.4-12-2.4-17.9c-0.2-1-0.1-2-0.1-3.1l-0.1,0.1c0.6,0.2,0.7,0.7,0.8,1.2c1.7,6.6,2.9,13.3,4,20c0.1,0.4,0.2,0.7,0.5,1.9
		c0.1-2.5,0.2-4.1,0.2-5.8c0-7.4-0.1-14.9-0.1-22.3c0-1-0.2-2.2,0.2-3c0.9-1.9,0.4-3.7,0.2-5.6c-1.1-8.8-2.8-17.5-4.6-26.1
		c-0.1-0.6-0.3-1.2,0.2-1.8c0.4-0.1,0.8,0.1,0.9,0.5c0.4,1.5,0.7,3,1,4.5c0.1,0.6,0.2,1.3,0.8,1.7c0.1,0.8,0.1,1.6,0.2,2.6
		c0.5-1.1,0.5-1.9-0.3-2.5c0.3-2.7-0.6-5.4-1-8c-1.2-6.6-2.6-13.1-3.9-19.7c-0.4-2.1-0.7-4.3-1-6.5c0-0.2,0.1-0.5,0.3-1
		c1.6,2.3,0.9,5.1,2.4,7.5c0.4-4.1,0.1-7.8-0.8-11.5c-0.2-0.7-0.5-1.5-1.3-1.7c-0.5,0-0.7,0.3-0.8,0.7c-0.1,0.3-0.3,0.6-0.5,0.9
		c-0.5-0.7-0.4-1.3-0.3-2c0.1-0.5,0.3-1,0.3-1.1c0.7-1,1.6-0.8,2.2-1.1c0.5-0.7,0.1-4.8-0.7-8.9c-1.4-1.4-3.5-2.1-4.7-4.3
		c-0.6-0.9,0.1-2.3-0.3-3.4c-0.4-0.6-0.9-1-1.9-0.9c-1.6,2.1-3.7,4.2-4.9,6.6c-1.9,3.9-3.7,7.9-4.7,12.2c-1.8,7.8-2.8,15.7-3,23.7
		c-0.1,3.2,0,6.4,0.1,9.6c0.1,2.8,0.1,5.6,0.8,8.4c0.3,1.2,0.3,2.5,0.4,3.8c0.2,2.8,0.6,5.6,0.8,8.4c1,10.8,4.1,21.2,6.7,31.6
		c1,4,2.2,7.9,3.3,11.9c0.2,0.6,0.4,1.2-0.1,1.8c-0.6,0.2-1,0-1.2-0.5c-0.6-1.3-1.2-2.6-1.6-3.9c-3.6-11.3-6.8-22.7-9-34.3
		c-2.4-12.4-3.2-25-2.4-37.6c0.6-9.3,2.1-18.4,5.3-27.1c0.4-1.1,1-2.1,0.6-3.3c0.2-0.1,0.3-0.2,0.5-0.2c-0.1,0-0.2,0-0.2,0
		c-0.1,0.1-0.1,0.2-0.2,0.3c-2.4,1.8-3.9,4.4-5.5,6.9c0.2,2-0.2,4-0.4,6.1c-1.1,8.5-2.2,17.1-3,25.7c-1.1,10.4-0.5,20.8,2.2,31
		c2.2,8.2,4.7,16.3,7.2,24.4c3.4,10.7,6.4,21.4,9,32.3c0.3,1.1,0.6,2.2,1.3,3.3c0.2-2.5,0.5-4.9,0.7-7.4c0.3-5.9,0.6-11.8,0.9-17.7
		c0.3-6.5-0.6-12.8-1.8-19.2c-1.6-8.9-3.8-17.6-6.8-26.1c-0.3-1-0.7-2-0.9-2.9c-0.1-0.4,0-0.7,0.6-0.9c0.7,0.1,0.8,0.8,1,1.4
		c3.6,11.3,7.6,22.4,10.4,33.9c2.2,9.1,3.8,18.4,4.8,27.7c0.6,5.5,0.4,11.1,1.1,16.5c-0.8,6.1-0.3,12.3-1.1,18.5
		c-1,8.2-2.3,16.3-4.6,24.2c-0.1,0.5-0.1,1-0.2,1.5c-0.7,0.4-0.9,0.9-0.7,1.7C790.1,432.9,789.3,432.8,788.7,432.8z M957.8,565.3
		c-0.4-0.4-0.8-0.3-1.2-0.2c-0.2-1.7-2.1-1.7-2.8-2.8c-0.8,0.1-1.4,0.1-2,0.1c-0.9-0.7-1.8-1.4-2.5-2c-1.9-0.6-3.5-0.4-5.2,0
		c-3.2,0.7-6.4,0.9-9.6,0.3c-0.3-0.1-0.7,0.1-1,0.1c-0.2,0.2-0.3,0.3-0.3,0.4c-0.1,0.1-0.1,0.3-0.1,0.4c0.5,3.9,1,7.9,1.4,11.9
		c1.5,1.2,3.2,1.8,5.1,1.5c1.3-0.2,2.6,0,3.8-0.3c1.8-0.4,3.6,0,4.6,0.1c1.6,0,1.7-0.8,2.1-1.1c1.1-0.5,2.1-0.1,3.1,0.1
		c3.5,1,6.9,1.9,10.4,2.9c0.7,0.2,1.5,0.4,2.2,0.8c3.4,2,7.2,2.8,10.9,3.5c3,0.6,6,1.4,9,2c1.4-0.5,2.7-1.1,3.8-2.3
		c-1.1-0.9-2.3-1.5-3.6-2.1c-3.2-1.6-6.4-3.3-9.6-4.8c-2-1-4-1.8-6-2.7c-1.1-0.5-2.2-0.7-3.4-0.7c-4.7-0.3-9-1.9-13.3-3.8
		c-1.3-0.6-2.3-1.4-3.2-3.1c2.3,0.5,4.3,1,6.2,1.5C957.1,565.3,957.2,565.8,957.8,565.3z M797.5,426.3c4.3-6.4,8.1-13.1,10.8-20.4
		c0.4-1.2,1-2.4,1-3.6c-0.1-1-1.1-1.2-1.4-2.4c-0.2-2,0.6-4.2,0.9-6.5c0.6-4.3,1.1-8.7,1.3-13c0.1-3.6,0.3-7.2,0.4-10.8
		c0.2-5.7-0.3-11.3-0.7-16.9c-0.5-6.8-1.3-13.6-2-20.3c-0.5-4.2-1.2-8.4-1.8-12.6c-1-6.7-1.7-13.5-2.1-20.3
		c-0.5-8.9-1.1-17.7-1.5-26.6c-0.2-4-0.2-8-0.2-12c0-1.3,0-2.6,0-3.8c-0.8-0.5-1.4-0.8-2.1-1.2l-0.2-0.1h0.3
		c-0.5,1.9-0.1,3.8,0.2,5.7c0.2,1.2,0.6,2.5,0.3,4.2c-1.8-2.5-1.2-5.3-2.3-7.5c-1.1-2.3-1.7-4.8-3.3-7.2c-0.3,4.2,0.1,9.2,1.1,12.2
		c1.3,3.8,1.7,7.8,2.1,11.7c0.3,2.8,0.3,5.6,0.3,8.5c0,0.9-0.2,1.7-0.5,2.6c-0.9-4.4-1.1-8.9-2.5-13.1c-0.5,2.6-0.7,5.2-0.3,7.9
		c0.7,4.3,1.6,8.6,2.6,13.3c0.9-1.8,0.4-3.4,1-4.8c0,2.2,0,4.4,0,6.6c-0.1,6.3,0.6,12.6,2,18.7c0.3,1.3,0.6,2.5,0.2,3.8
		c-0.3,0.9,0.1,1.8,0.2,2.6c0.9,6,2,11.9,2.8,17.9c0.6,4.3,0.9,8.7,1.2,13.1c0.3,3.7,0.4,7.4,0.6,11.2c0.3,5.4,0,10.8-0.5,16.2
		c-0.1,1.2-0.2,2.5-1.3,3.3c-0.8-0.2-0.9-0.7-0.9-1.2c0-3.2,0-6.4-0.1-9.6c-0.2-11.2-1-22.4-1.8-33.5c-0.1-2.2-0.6-4.3-1.2-6.5
		c0,2-0.2,4-0.1,6c0.3,7.6,0.5,15.2,1,22.7c0.7,12.7,0.5,25.5,0.3,38.2c-0.1,4.4-0.3,8.7,0.1,13.1c0,0.4-0.1,0.8-0.2,1.1
		c-0.4,0-0.8,0-1.3,0.1c-0.2,0.4-0.4,0.9-0.5,1.4c-0.7,3.5-1.4,7.1-2.5,10.5c-0.2,0.6-0.3,1.3,0,1.9c-0.3-0.1-0.5,0-0.5,0.3
		c0.1,0,0.2,0,0.2,0c0.1-0.1,0.1-0.2,0.2-0.3C797.1,426.6,797.3,426.5,797.5,426.3z M830.8,551.9c0,1.6-1.2,2.5-1.9,3.6
		c-1.1,1.7-2.7,3-3.4,4.9c-0.3,0.1-0.4,0.2-0.3,0.4c0,0,0.2,0,0.2-0.1s0-0.2,0-0.3c2.4-0.3,4.1-2,5.7-3.6c0.9-0.9,1.9-1.8,2.9-2.5
		c6.6-4.3,12.6-9.4,18.4-14.7c1.3-1.2,2.6-2.5,3.7-4c4.7-6.3,9.5-12.5,14.3-18.7c2.7-3.6,5.7-6.9,9-10c2.1-1.9,4.1-3.9,6.9-4.9
		c0.1-3.7-0.9-7.2-1.3-10.8c-0.4-3.7-0.8-7.4-0.9-11.2c-0.2-3.6-1-7.2-0.7-11c0.4-0.6,0.8-1.4,1.3-2.1c0.1-0.8,0-1.6-0.3-2.3
		c-2.6-5.6-3.2-11.6-4-17.7c-0.3-0.5-0.9-0.7-1.5-0.8c-3.5-0.6-6.6-2-9.5-4c-1.9-1.3-4-2.3-6.2-3.2c-12.2-5-23.8-11-35.3-17.4
		c-3.6-2-7-4.3-9.8-7.4c-0.8-0.9-1.7-1.5-3-1.7c-0.7,1.1-1,2.3-1.3,3.5c-2.5,8.4-5.6,16.6-9.3,24.5c-1.7,3.6-3.5,7.2-5.8,10.5
		c-0.7,1-1.3,2.2-2,3.4c-1.4,0.4-2.8,1.1-4,2.3c-0.8,1.3-1.3,3-3.4,4.1c-0.4,0.1-1.4,0.4-2.4,0.5c-0.3,0-0.6-0.3-0.9-0.5l0.2-0.1
		l-0.1,0.1c-1.1,0.4-2.2,0.7-3.3,1.2c-2.2,1-4.4,2-6.8,3c1.7,3,4,5.2,5.8,7.9c1.7,2.5,4,4.7,4.7,7.9c2.4,2.3,4.6,4.7,7.4,6.6
		c3,2,5.2,4.9,7.3,7.9c5.2,7.3,9.1,15.2,11.1,24c0.4,1.7,0.9,3.2,1.7,4.7c4.2,8.7,6.3,17.9,7.6,27.4c0.2,1.5,0.2,3.1,0.1,4.6
		c-0.1,1.3-0.1,2.6,0.1,3.8c0.9,0.4,1.2-0.3,1.6-0.7c1.8-2.1,3.8-4.2,5.9-6.1C829.7,552.5,830.2,552,830.8,551.9z M802.1,146.1
		c-7.2,3.1-12.2,8.3-15.4,15.4c-0.8,1.9-1.9,3.7-2.7,5.5c-2.1,4.6-2.8,9.6-3.3,14.6c-0.2,2.4-0.3,4.9-0.5,7.3
		c-0.2,2.7-0.3,5.4-0.8,8.1c-0.2,1.1-0.2,2.3-0.2,3.5c0,0.6,0.2,1.3,0,1.9c-1.2,4-0.5,7.9,0.1,11.8c0.8,5.8,2.6,11.3,4.8,16.6
		c0.3,0.8,0.8,1.5,1.5,2.7c0.7-1.5-0.1-2.5-0.2-3.5c-0.1-1.1-0.4-2.3-0.5-3.4c-0.1-1-0.2-2.1-0.3-3.1c-0.1-1.2-0.2-2.3-0.3-3.5
		s-0.1-2.3-0.2-3.5c0-1.2-0.1-2.3-0.1-3.5c0-1,0-2.1,0-3.1c0-1.2,0-2.3,0-3.5s0-2.3,0-3.5s0-2.3,0.1-3.5c0-1,0-2.1,0.1-3.1
		c0-1.1,0-2.3,1.3-3.7c0,1.9,0,3.2,0,4.4c0.3,9.5,0.7,19,1.7,28.5c0.4,4.4,1.3,8.6,2.8,12.8c0.9,2.5,2.5,4.5,4.7,6
		c1.9,1.3,3.7,2.8,5.2,4.4c0.3,0,0.5,0,0.5-0.1c2.5-2.4,5.6-3.9,8.4-5.9c1.8-1.3,3.5-2.7,5.1-4.1c3.9-3.3,7.8-6.7,11.7-10.1
		c0.6-0.5,1.1-1.4,2.1-1.4c-2,3.5-2,3.5-15.3,15.7c0.5,0.7,1.1,0.2,1.6,0c5.6-2.2,10.3-5.8,14.7-9.8c1.3-1.2,2.3-2.8,4-3.5l-0.1-0.1
		c0,1.9-1.4,3.3-2.3,4.8c-1.4,2.3-3.3,4.3-5.2,6.1c-0.4,0.4-1,0.8-0.9,1.5c-0.1,0-0.3,0-0.3,0.1c0,0.3,0.1,0.2,0.3-0.1
		c0.7,0.1,1.3-0.1,1.8-0.4c4.2-2,8.3-4.1,11.8-7.1c1-0.9,2-2,3.2-2.4c0.5,0.4,0.6,0.8,0.3,1.1c-4.5,4.2-8.9,8.5-14.4,11.5
		c-4.9,2.6-10,4-15.5,3.6c-1.7-0.1-3.3-0.2-5-0.5c-1.4-0.2-2.5,0.1-3.6,0.9c0,0.8,0.6,1.1,1.2,1.3c2.7,1.2,5.4,2.3,8.4,3.5
		c1.7-1,3.6-0.7,5.5-0.2c2.1,0.6,4.2,1.1,6.4,1.6c3.3,0.8,6.6,1.3,9.9,1l-0.1-0.1c1.1,1.1,2.6,1,4,1c3.3,0.1,6.7,0,10-0.1
		c3.2-2.3,6.8-3.3,10.5-3.9c0.9-0.1,1.8-0.3,2.6-0.7c5.2-2.2,10.6-3.1,16.1-3.7c3.9-0.4,7.7,0,11.5,0.8c0.9,0.2,1.8,0.5,2,1.6
		c-0.2,0.8-0.8,0.4-1.2,0.4c-2.4,0.1-4.9,0.1-7.3,0.1c-6.4,0-12.5,1-18.6,2.8c-1.4,0.4-2.8,1.1-4.5,0.5c-1.1-0.4-2.2,0.5-3.2,1
		c-0.5,1.1-1,2.1-1.5,3.2c-1.2,0.5-2.4,1-3.7,1.6c-1,1-2.1,2.1-3.1,3.3c-1,1.1-2.1,2.3-3,3.5s-1.6,2.5-2.6,4.2
		c0.1-2.3,0.1-2.3,1.7-5c0.8-1.3,1.5-2.7,2-4.1c-0.9-0.8-1.3-0.1-1.5,0.4c-1.7,3.7-3.4,7.5-5,11.3c-3,6.9-5,14.1-7.2,21.2
		c-2.3,7.2-4.5,14.5-6.9,21.7c-1.4,4.1-2.1,8.5-3,12.8c-0.1,0.4-0.2,0.8-0.1,1.1c0.2,6.7-0.9,13.3-0.7,20
		c0.3,11.9-0.7,23.7-1.8,35.4c-0.3,3.7-1,7.4-1.8,11c-0.8,3.5-0.7,7.1-1.3,10.8c3.2,2.4,6,5.3,9.5,7.2c4.1,2.2,8.2,4.4,12.3,6.5
		c10.2,5.1,20.4,10.4,30,16.7c3.8,2.5,8.2,3.7,12.4,5.3c0.2,0.1,0.4-0.1,0.7-0.2c0.1-3.6-0.7-6.3-4.8-16c-2.1-5.1-3.9-10.4-7.3-14.5
		c-0.2-1.3,0.7-1.6,1.1-2.3c-2-8.5-3.3-17.3-3.9-25.9c-0.7-0.9-1.5-0.8-2.3-1c-3.7-1-6.9-2.9-9.7-5.3c-1.8-1.5-3.6-2.9-5.5-4.3
		c-3.7-2.7-6.6-6.2-8.6-10.2c-3.7-7.1-6.2-14.7-7.4-22.6c-0.3-2.2-0.7-4.3-1.2-6.4c-0.7-2.8-0.6-5.6-0.1-8.4c0.4-2,0.8-4.1,0.9-6.1
		c0.2-6.5,1.9-12.7,4-18.8c2.4-6.8,5.3-13.4,8.5-19.9c1.3-2.7,2.5-5.4,3.7-8c0.7-0.4,1.4-0.8,2-1.2c0.5-0.8,0.9-1.6,1.3-2.4
		c1.2-2.5,3-4.5,5.2-6.1c3.5-2.6,7.4-4.7,11.6-6c1.8-0.6,3.7-1.1,5.5-1.6c8.9-2.5,17-0.4,24.6,4.3c0.6,0.4,1.2,1,1.7,1.6
		c0.4,0.5,0.6,1.1,1,1.7c3.3,1.7,6.6,3.5,9.9,5.2c0.8-0.3,1.7-0.5,2.1-0.7c1.6-0.1,2.5,0.9,3.9,1.2c0.4-2.7-0.4-5.8,1.8-7.7
		c0.3-9.3,0.5-18.3-0.8-27.3c-0.2-1.4-0.5-2.8-0.9-4.1c-0.6-2.2-1.4-4.4-1.9-6.7c-2-9.1-2.7-18.3-1.5-27.6c0.4-2.9,1.2-5.5,2.7-8
		c1.5-2.6,2.3-5.4,3.3-8.2c0.4-1.1,0.7-2.2,1-3.3c0.7-2.2,0.7-2.2,0.2-5.5c-1.3-0.8-2.8-1.6-4.3-2.5c-1.2-0.2-2.4-0.4-3.7-0.5
		c-1.9-0.2-3.4-1.2-4.4-2.8c-0.8-1.4-2-2.3-3.2-3.4c-1.2-0.5-2.4-0.8-3.7-0.3c-1.8,1.4-1.2,3.2-0.6,4.9c-0.4,1.4-0.5,2.9-2,3.6
		c-0.6,0.1-1.1-0.1-1.4-0.6c-0.5-0.7-0.8-1.5-0.5-2.2c0.7-1.6,0.6-3.3,1-4.9s0.3-3-0.4-4.6c-2.2-1.5-4.8-1.1-7.5-1.5
		c-1,1.7-1.7,3.8-4.4,3.5c-0.4-1.4,1-1.8,1.1-3.5c-0.1-1.6,0.1-3.9,0.6-6.2c0.3-1.6,0.4-3.3,0.1-5c-0.1-0.8-0.4-1.5-1.3-1.7
		c-6.5,3.1-13.6,4.3-20.8,5c-4.7,0.5-8.9-0.8-12.3-4.4c-0.4-0.5-0.9-0.9-1.4-1.3c-0.1-0.1-0.2-0.1-0.3-0.2c-0.2-0.1-0.5-0.2-0.7-0.2
		c-3.6,0.4-7.1,0.1-10.7-0.7c-4.5-1-9.2-1.2-13.8-1.1c-2.6,0-5.1,0-7,0c-1.7,0.6-0.9,1.7-1.5,2.2c-0.9,1-2.4,0.8-3.5,1.5
		c-0.6,1.1,0.9,1.5,0.7,2.4c-0.2,0.7-0.7,1-1.4,1.1c-2.8,0.4-5.1,1.6-7.3,3.3c-7.8,5.7-14,12.8-18.5,21.4c-1,2-1.5,4.1-2.2,6.5
		c-0.6-1.2-0.3-2.1-0.2-3c1.2-7.5,4.9-13.7,9.9-19.3c1.3-1.5,2.8-2.9,3.9-4.6c-3.5,1.5-6.2,4-9.2,6.3c-0.6-1.1,0.2-1.6,0.6-2
		c3.1-3.3,6.6-6.1,10.4-8.5c1.2-0.7,2.6-1.2,3.4-2.4c0.1,0,0.2-0.1,0.3-0.1c-0.1,0.1-0.2,0.1-0.2,0.2
		C803.7,145.4,802.8,145.7,802.1,146.1z M671.5,516.8c-1-0.3-1.5-1.3-2.1-2c-1,0.4-1.2,1.1-1.5,1.8c-0.3,0.6-0.6,1.1-0.8,1.5
		c-1.5,1.6-3.4,0.7-5.3,1.5c-0.8,0.3-0.7,1.9-2.1,2.6c-0.8,0.2-1.9,0.4-3.1,0.6c-0.2,1.4,1.2,1.9,1.6,2.9c0.4,1,1.2,2,1.9,2.9
		c1.2,1.5,2.5,2.9,3.8,4.4c12.3,14.4,20.7,30.9,26.5,48.9c1.1,3.3,2,6.6,2.9,10c0.7,2.7,1.4,5.5,2.5,8.1c0.9,2.1,1.4,4.4,1.5,6.8
		c0.1,2.4,0,4.9,0,7.4c-0.2,0.2-0.4,0.4-0.9,0.8c3.5-0.3,6.8-0.3,10-1.6c2.6-1.1,5.3-2,8-2.7c5.5-1.4,10.7-3.4,15.8-5.8
		c3.2-1.5,6.7-2.6,10-4c1.1-0.4,2-1.1,3-1.7c2.1-1.4,4.2-2.9,6.3-4.4c4.2-3,9-5,13.9-6.5c3-0.9,5.9-1.7,8.9-2.5
		c4.5-1.2,8.9-2.5,13.2-4.3c0.7-0.3,1.5-0.5,2.3-0.7c0.8,0.2,1.7,0.4,2.5,0.6c0.4-0.2,0.8-0.3,1.1-0.5c3.8-2.2,7.5-4.5,11.7-5.8
		c1.1-0.3,2.1-1,3.1-1.6c3.7-2.3,7.4-4.6,11.1-7c0.6-0.4,1.2-0.9,1.8-1.4c0.3-2.2,0.3-4.5-0.3-6.5c-1.5-5.3-2.3-10.8-3.5-16.2
		c-1.7-7.6-4.3-14.8-7.8-21.7c-0.2-0.4-0.6-0.8-1-1.3c-1.7,0.8-3.3,1.7-4.9,2.4c-1,0.5-2,1.2-3.3,0.8l0.1,0.1
		c1.2-1.4,2.9-2.1,4.4-3.1c1-0.7,2.3-1.1,3.2-2.3c-0.8-2.6-1.5-5.4-2-8.2c-0.1-0.6-0.3-1.3-0.6-1.8c-2.1-4.1-4.4-8.1-7.2-11.9
		c-1-1.4-2.3-2.4-3.6-3.5c-5.4-4.6-10.5-9.5-15-15c-2.3-2.8-2.8-3.9-3.3-7.4c-1-1.4-2.1-3-3.2-4.5c-3.2-1-6.2-2.1-9.1-3.4
		c-6.5-2.8-13.4-4.4-20.5-5.3c-5.9-0.7-11.8-1.1-17.7-1c-1.2,0-2.3,0.1-3.4,0.5c-5.4,2-10.9,3.8-16.4,5.8
		c-11.4,4-20.5,11.2-27.7,20.7c-1.6,2.1-2.9,4.3-3.7,6.7c-0.5,1.4-1.2,2.5-2.9,3.1c-1,0.4-2.1-0.6-3.4-0.2c-0.4,0.7-0.8,1.5-1.3,2.2
		c-1.4,0.9-2.8,1.4-4.4,1.8c-0.7,0.7-0.8,1.5-0.6,2.5c0.8,4.6,1.2,9.2,1,13.8c0,1.3,0.2,2.5,0.7,3.6c1.1,1,2.2,0.8,3.4,0.9
		c0.3-0.2,0.7-0.4,0.8-0.7c0.9-1.6,2.1-2.9,3.8-3.7c0.4-3,1.6-5.5,3.1-7.9c2.4-3.8,4.5-7.8,7.5-11.2c0.6-0.7,1-1.5,1.5-2.3
		c2.6-4,5.6-7.7,9.4-10.7c1.3-1,2.7-1.9,4.3-2.6c1.7-0.7,3.4-1.1,5.4-0.5c0.8-0.5,1.7-1,2.6-1.6c7.1-4.3,14.8-6.4,23-7
		c3.1-0.2,6.1-0.5,9.2-0.5c7.5,0.1,14.8,1.6,21.9,4c0.4,0.1,0.7,0.3,1.1,0.5c0.2,0.1,0.4,0.3,0.6,0.4c-1.2,0.5-2.3-0.2-3.4-0.4
		c-4-0.4-7.9-1-11.9-1.4c-1.9-0.2-3.9-0.2-5.8-0.1c-5.4,0.4-10.8,0.8-16.1,1.3c-4.6,0.4-9.2,1.2-13.6,2.9c-4.8,1.9-9.3,4.3-13.9,6.6
		c-1.9,1-3.5,2.7-4.9,4.3c-3.8,4.2-7.1,8.8-10,13.7c-1.1,1.9-1.9,4-2.4,6.1c-0.1,0.5-0.1,1-0.7,1.3c-0.9,0.2-0.8-0.8-1.5-1.1
		c-1.4,2.9-3.9,5.4-3.2,9.2c4,1.3,7.7,3,11.1,5.3c0.5,0.3,1.2,0.6,0.9,1.5l0.1-0.1C679.8,520.2,675.8,518.1,671.5,516.8z
		 M660.2,518.2c-2.4-4.8-3-10-3.4-15.3c-0.1-0.9,0-1.8-0.9-2.7c-2.2,0.3-4.6,0.6-7,0.9c-5,0.5-10,1.1-15,1.5
		c-5.1,0.4-10.3,0.6-15.4,0.8c-9,0.5-18,1-27,1.5c-6.9,0.4-13.9,0.7-20.8,1.2c-3.3,0.2-6.6,0.8-10,1.2c-7.3,0.8-14.6,1.5-21.9,1.5
		c-1.9,0-3.9-0.1-5.8-0.1c-0.8,0-1.7-0.2-2.3,0.1c-3,1.5-6.1,0.8-9.1,0.3c-5.7-0.8-11.4-2.1-16.9-3.9c-6.1-2-12.4-3.3-18.8-4.3
		c-4.6-0.7-9.1-1.7-13.7-2.5c-5.3-1-10.7-1.4-16.1-2.1c-4.5-0.6-8.9-0.2-13.3,0.9c-6.5,1.6-13.2,2.3-19.8,2.9
		c-12,1.2-24,2.5-35.8,5.4c-4.3,1-8.6,1.5-13,1c-3.4-0.3-6.8-0.7-10.3-0.5s-6.9-0.2-10.4-0.3c-2.8-0.1-5.7,0-9,0
		c-3.5,1.9-7.6,3.8-11.2,6.4c-0.4,0.8-0.7,1.4-1.1,2.1c-1.2,0.5-2.4,1-3.5,1.5c-1.2-0.7-2.3-1.6-4-1.6c-4.6,1.2-8.8,3.8-12.8,6.5
		c-3,2-4.5,4.9-4.4,8.5c0.1,1.7,0.1,3.3,0.2,5.2c2.3,0.8,4.1,2.5,6.1,3.9s4.1,2.6,6.2,3.9c2.3,1.4,4.8,1.8,7.4,1.9
		c4,0.1,8,0.1,12,0.3c4.8,0.2,9.5,0.4,14.3,0.7c3,0.2,5.9-0.1,8.8-1.1c2.6-0.9,5.2-1.2,8-1.4c2.4-0.1,4.9-0.5,7.3-0.8
		c0.5-0.1,1.1-0.2,1.5-0.4c2.8-1.8,6.1-2,9.3-2.3c6.8-0.7,13.5-2.1,20.1-3.8c2.7-0.7,5.3-0.9,8-0.6c5.9,0.5,11.8,0.8,17.7,1.1
		c2.8,0.2,5.7,0.1,8.5,0.6c1.1,0.2,2.3,0.1,3.5,0.1c3.4-0.1,6.7,0.1,9.9,1c10.2,2.8,20.5,4.8,30.9,6.8c5.6,1,11.1,2.4,16.6,3.6
		c2.4,0.5,4.8,0.9,7.3,0.8c3.6-0.1,7.2-0.2,10.8-0.8c8-1.4,16-2.5,24-3.6c1.3-0.2,2.5-0.5,3.7-1c5.6-1.9,11.1-4.1,17-5.1
		c3.7-0.6,7.4-1.2,11.1-1.6c4.9-0.6,9.6-1.7,14.3-3c8.7-2.3,17.5-4.1,26.4-5.6c2.8-0.5,5.6-0.6,8.4-1c5.7-0.8,11.5-1.5,17.3-1.7
		c2.1-0.1,4.3-0.9,6.4-1.4c0.9-0.2,1.7-0.6,2.4-1.2c3.6-2.9,3.6-2.8,7.5-3.8C660.1,518.5,660.2,518.3,660.2,518.2z M155.5,603
		c1,0.9,2,1.7,3,2.6c-0.7,0.3-1.2,0.5-1.6,0.6c-0.3,0.4,0.1,0.7,0.3,0.9c1,1.2,2,2.3,2.9,3.3c1.4,0,2-1.1,3-1.3s2-0.3,3-0.5
		c7.1-1.5,14.3-1.5,21.5-0.5c2.5,0.3,5.1,0.6,7.7,0.7c1.8,0.1,3.6,0,5.4-0.1s3.6-0.4,5.4-0.6c1.8-0.2,3.4-0.4,5.1-1.3
		c1.9-1,4.2-1.6,5.9,0.5c0.9,0,1.5,0.1,2.1,0s1.2-0.3,2.1-0.6c-1-1.2-1.9-2.3-2.7-3.3c0.3-0.8,0.8-1,1.5-0.9
		c4.5,0.4,8.8,1.6,13.2,2.8c2.7,0.7,6.1,0.7,8.9-0.3c-6.8-2.5-7-2.6-8.9-5.7c0.4-0.8,1.2-1,2-0.9c1.1,0.2,2.3,0.4,3.4,0.8
		c1.8,0.5,3.7,1.2,5.5,1.7c1.7,0.5,3.5,0.7,5.4,1.1c0.5,0.4,1.1,0.9,1.7,1.4c2.9-1.1,5.9-0.9,8.8-0.2c3.5,0.8,6.9,0.6,10.3-0.4
		c2-0.6,3.9-1.1,6-1.7c0-0.5-0.1-1-0.2-1.7c2.6-0.2,5.1-0.3,7.7-0.5c-4.9-0.8-9.7,0.1-14.6,0.3c0.1-0.6,0.1-1.1,0.2-1.5
		c-1.9-0.9-4.1,1-5.9-0.3c-0.2-1.3,1.2-0.9,1.5-1.7c-2-0.8-4-1.7-6-2.4c-1.6-0.6-2.6-1.7-3.1-3.2c-0.3-0.9-0.6-1.7-0.8-2.6
		c-0.8-2.7-1.5-5.4-3-7.9c-1.6-2.6-1.3-5.5,0.5-8c1.5-2.2,3.2-4.3,5.8-5.5c1.1-0.5,1.8-1.4,2.5-2.3c1.7-2.2,3.9-3.7,6.3-4.9
		c2-0.9,4-1.8,5.5-3.4c3.1,0,5.7-0.9,7.8-3c0.1-0.6-0.4-0.8-0.8-1.1c-3.4-1.7-6.2-4-8.5-7c-2-2.7-4.2-5.2-6.6-7.6
		c-1.3-1.3-2.5-2.6-3.3-4.2c-0.8-1.6-1.9-3.1-3.2-4.4c-1.2-1.2-2.5-2.3-3.6-3.5s-2.6-2-3.1-3.7c-1.9-1.3-3.5-3-5.6-3.8
		c-1-0.1-1.7,0.3-2.3,0.8c-5.6,5.7-12.4,9.7-19.2,13.5c-4.1,2.3-6.5,5.7-8.5,9.6c-1.1,2.2-1.8,4.5-2.7,6.8c-0.7,1.7-1.3,3.4-3.1,4.4
		c-0.3,3-1.3,5.7-3.9,7.2c-5,0.8-9.9,1.1-14.8,1.1c-3.5,0-6.8,1.3-9.8,3.1c-4,2.4-7.7,5.1-11.3,8.1c-2.5,2.1-5.1,4-7.4,6.2
		c-2.3,2.1-4.3,4.4-6.5,6.6c-0.3,0.3-0.4,0.6-0.6,1c-2.6,4.5-2.6,4.5-6.1,7.5C151.7,596.5,154.9,599,155.5,603z M304.5,470.8
		c-1.9-0.8-3.5-2-5.3-3.1c-2.3,0-4.3,0.9-6.2,1.9c-3.7,1.8-7.3,3.9-10.6,6.4c-3.7,2.8-6.3,6.4-7.9,10.7c-0.6,1.6-1.3,3.1-2,4.6
		c-0.7,1.7-1.4,3.3-2.1,5c-0.7,1.8-1.4,3.5-2.9,4.9c-1.4,1.3-2,3.3-2.5,5.2c-0.5,2-1.1,3.9-1.6,5.8c-3.2,1.6-6.1,3.1-9.2,4.8
		c1.2,2.5,3.7,3.6,5.2,5.6c1.7,2.1,3.7,3.9,5.5,6c1.7,1.9,3.3,4,4.9,6c1.7,2.1,3.2,4.3,4.9,6.5c1.6,2,3.1,4.1,5.2,6.7
		c0.6,0.5,2.4,0.9,3.1,2.4c1.2,0.3,1.5-1.2,2.6-0.9c0.6,0.6-0.2,1.2,0.1,1.9c0.2,0.1,0.5,0.4,0.9,0.4c4.5,0,9,0,13.5,0
		c0-0.2,0-0.5,0.1-1c2.2-0.4,4.5-0.3,6.7-0.4c2.4-0.2,4.9-0.4,7.3-0.5c2.3-0.1,4.5,0,6.8-0.2c-0.1-0.8-0.6-1-1-1.3
		c-0.6-0.5-1.4-0.8-1.8-1.4c-2.8-4.1-7.2-6.5-10.5-10.1c-1.5-1.6-2.6-3.5-3.3-5.6c-1.2-4-0.6-7.6,2.2-10.8c1.4-1.6,3-2.9,4.8-3.8
		c1.3-0.6,2.4-1.5,3-2.6c6.9-2.2,5.2-2.8,13.1-1.2c3.5-4.8,9.1-6.7,14.2-9.3c1.3-0.6,2.5-1.2,3.7-2.1c-0.2-0.8-0.4-1.5-0.6-2.4
		c-0.8-0.9-1.6-1.8-2.6-2.9c-2.8-0.4-5.7-0.9-8.1-1.3c-1.4,0.2-1.5,1.3-2.8,1.3c-3.7-2-7.5-4.5-11.1-7.1c-3.2-2.3-6.3-4.9-9.5-7.3
		c-1-0.8-2-1.5-3.2-1.9c-2.7-1-5.3-2.3-8.3-4.3c4.2,0.7,7.3,1.5,10.2,3.8c4.8,3.8,10,7.2,15.4,10.3c0.4,0.2,0.8,0.6,1.4,0.3
		c0.1-0.2,0.3-0.5,0.3-0.6c-0.1-0.4-0.2-0.7-0.4-1c-3.4-4.2-7.3-8-11.5-11.4c-1.1-0.9-2.3-1.7-3.9-1.4
		C309.1,473.1,306.9,471.8,304.5,470.8z M961.9,393.5c-0.5-3.6-1.6-7-3.1-10.3c-4.9-11.1-8.6-22.6-12.6-34c-0.2-0.6-0.3-1.3-0.9-1.7
		c-0.7,0-0.8,0.5-0.9,1c-0.9,4.3-2.5,8.4-4.7,12.2c-1.8,3.1-4.2,5.8-6.8,8.4c-0.1,1-0.4,2-0.4,3c-0.5,7.3-1,14.6-0.9,22
		c0.1,4.5-0.2,9-0.2,13.5c0,2.7,0,5.4,0.1,8.1c0.1,4.5,0.3,9,0.4,13.5c0,1.3,0,2.6,0,3.7c1,1.2,2.5,1,3.3,1.7c3,0,5.6-0.9,8.1-1.8
		c2.2-0.8,4.3-1.6,6.5-2.4c1.2-0.4,2.4-1,3.3-1.9c2.5-2.6,4.8-5.4,6.1-8.8c0.2-0.6,0.5-1.2,0.7-1.8c1.2-6.2,2.4-12.4,1.2-18.8
		C962.2,397.3,962.2,395.4,961.9,393.5z M872.3,520.5c0.9,3.8,1.8,7.7,2.6,11.5c0.8,3.4,1.5,6.8,2.3,10.1c0.3,1.2,0.7,2.5,1.1,3.7
		c2,6,4.1,11.9,5.9,17.9c1.2,4,3.3,7.2,6.5,9.8c1.8,1.5,3.6,2.9,5.4,4.3c0.7,0.5,1.4,1.1,2.4,0.7c0.6-0.9,0.2-1.7,0-2.6
		c-1.2-5.2-2.6-10.5-3.7-15.7c-1.6-7.3-2.3-14.7-2.8-22.1c-0.3-4-0.7-7.9-1.5-11.8c-1-5-1.7-10.1-2.5-15.2c-0.3-2-0.6-4-0.9-6.1
		C883.2,507.2,876.6,514.1,872.3,520.5z M959.2,583.3c-1.9-1.5-4.1-2.6-6.4-3.4c-1.2-0.4-2.5-0.5-3.8-0.2c-3.3,0.7-6.4-0.4-9.4-1.3
		c-0.8-0.3-1.5-0.9-2.3-1.3c-0.8-0.4-1.1-1.4-2-1.6c-0.3,4.1,0,6.9,1.3,11.1c1.5-0.7,2.9-1.3,4.7-1.3c2.7,0,5,0.7,7.4,1.8
		c4.3,2,8.8,2.6,13.5,0.8C961.9,585.4,960.2,584.3,959.2,583.3z M934.1,358.7c0.9-0.1,1-0.8,1.2-1.3c3.3-7.7,4.8-15.7,4.5-24
		c0-0.8,0-1.6-0.2-2.3c-0.8-3.5-1.6-6.9-2.5-10.3C936.2,333.4,935.1,346,934.1,358.7z M211.7,541.2c-0.5-0.6-1-0.2-1.4,0.1
		c-2.6,1.5-4.7,3.6-6.4,6c-1.5,2.1-2.1,4.6-1.8,7.1c0.5,1.3,1.9,1.6,2.2,2.7c1.6-0.5,2-1.8,3.1-2.6c0.3-2.3,0.7-4.6,1-6.9
		C209.6,545.5,211.2,543.6,211.7,541.2z M788.3,420.5c0.7-4.9,1.1-9.9,1.6-14.9c0.1-1.1,0-2.3-0.2-3.4c-1.4,3.9-1.2,8.1-2,12.1
		c-0.8,4-1.5,8-2.3,12.5C787.1,424.6,788.1,422.6,788.3,420.5z M790.3,397.9c1-8.9,1.2-17.1,0.7-25.3
		C790.1,375.8,789.6,393.6,790.3,397.9z M323.9,546.5c2.7,1.7,3.9,1.8,7.4,0.8C329,546.5,326.6,546.6,323.9,546.5z M994.2,580
		c-2-0.9-3.4-3.1-6.1-3.1c0.6,1.1,1.4,1.8,2.3,2.1c1.1,0.4,1.6,1.2,2.1,2.1C993.2,580.9,994.1,580.7,994.2,580z M936.2,312.6
		c0.6,0.6,1.2,0.6,1.8,0.3c0.1-0.2,0.2-0.5,0.2-0.6c-0.6-1.6-1-3.3-2.3-5.1C935.9,309.3,936.2,311,936.2,312.6z M981.8,620.2
		c1.5,0.4,2.8,1,4.5,1.1C983.7,618.9,983.7,618.9,981.8,620.2z M332.8,490.8c-1.7-1.2-2.8-2-3.9-2.8
		C329.2,489.8,330.3,490.7,332.8,490.8z M338,547.7c-1.4-0.6-2.7-0.7-4.1,0C335.3,548.6,336.7,547.9,338,547.7z M345.8,499.8
		c0,0.1,0.2,0.2,0.2,0.2c0.3-0.2,0.3-0.3,0-0.5C346,499.6,345.8,499.7,345.8,499.8z"/>
	<path d="M265.6,566.3c-0.1-0.9-0.7-1.6,0.2-2.5c0.3-0.1,0.8-0.3,1.3-0.2c4.5,0.8,9,0.4,13.5,0.6c0.6,0,1.4,0.2,1.9,0
		c3.5-1.3,6.8-0.3,10.9,0.4c-2.4,1-4.3,1.1-6.2,1c-2.1,0-4.1-0.2-6.1,0.3c-3.4,0.9-6.9,0.9-10.3,0.8c-1,0-2-0.4-3,0.3
		c-1.6,2.3-2.1,5.2-4,7.4c-0.5-0.1-0.8-0.1-1.2-0.2c-0.2-0.1-0.3-0.4-0.6-0.8C262.1,570.3,264.2,568.4,265.6,566.3z"/>
	<path d="M416,596.7c1.8,0,3.6,0,5.4,0.1s3.6,0.4,5.4,0.5c9.4,0.4,18.7,0.7,28.1,1.1c2.3,0.1,4.6,0.4,6.9,0.6
		c0.8,0.1,1.6,0.2,1.8,1.2c-0.9,0.8-1.9,0.4-2.9,0.4c-10-0.2-20-0.9-30-1.5c-4.5-0.3-8.9-0.9-13.4-1.7
		C416.7,597.3,416.3,597.2,416,596.7z"/>
	<path d="M526.5,597.3c-0.4,0-0.8,0-1.1-0.1c-0.6-0.2-1.2-0.5-0.8-1.3c2.2-0.5,15.8-1.4,19.6-1.1C539,596.2,531.1,597.3,526.5,597.3
		z"/>
	<path d="M519.6,609.3c0.6-0.1,1.3,0.1,1.9,0.2c0.5,0.1,1,0.3,1,1.1c-0.4,0.2-0.8,0.5-1.3,0.6c-3.9,0.5-7.7-0.1-11.5-0.7
		c-1.7-0.3-3.6-0.3-5.3-1.6C509.7,608.8,514.6,609.8,519.6,609.3z"/>
	<path d="M516.5,560.3c3.1,0.1,6.1-0.5,8.7-2.4c0.3-0.2,0.6-0.5,1.1,0.1c-0.2,1.5-1.3,2.2-2.6,2.7c-4.8,1.9-9.4,1.1-14.9-0.7
		C511.9,560.2,514.1,560.3,516.5,560.3z"/>
	<path d="M501.2,608.1c-3.8,2-13.3,2.6-20.1,1.2c7-0.7,13.6-0.3,19.8-2.2C501.2,607.4,501.3,607.7,501.2,608.1z"/>
	<path d="M553.7,592.2c3.3,0,6.5,0,9.7,0c0.6,0,1.2-0.2,1.7,0.3C560.7,594,557,594,553.7,592.2z"/>
	<path d="M395.9,593.6c2.2,0.1,4.3,0,6.5,0.2c4.6,0.5,4.5,0.6,6.4,2.2c-0.7,0-1.2,0.1-1.7,0c-3.4-0.6-6.8-1.2-10.1-1.8
		C396.7,594.1,396.3,593.7,395.9,593.6z"/>
	<path d="M486.5,556.5c2.4,0,4.5-0.6,6.7,1.3C488.7,557.8,488.7,557.8,486.5,556.5z"/>
	<path d="M305.9,564.9c-1.8,0.2-3.2,1.5-4.6-0.7C302.8,564.2,304.2,563.9,305.9,564.9z"/>
	<path d="M382.7,589.4c0.4,0,0.5,0.4,0.3,0.8c-0.9,0.5-1.9,0.4-3.1-0.1C381,589.1,381.9,589.3,382.7,589.4z"/>
	<path d="M467.5,596.4c1.3-0.5,2.2-1.5,3.9-0.8C470.2,596.9,469,596.6,467.5,596.4z"/>
	<path d="M316.5,562.6c-1.1,0.4-2.2,0.4-3.6-0.6C315.2,561.2,315.2,561.2,316.5,562.6z"/>
	<path d="M367.3,586.6c-0.8,0.2-1.6,0.2-2.5-0.3C365.9,585.9,366.7,585.6,367.3,586.6z"/>
	<path d="M416.2,596.6c-0.8-0.1-1.6-0.1-2.7-0.2C414.5,596,415.3,595.9,416.2,596.6z"/>
	<path d="M396,593.5c-0.8,0-1.7-0.1-2.6-0.2C394.4,592.7,395.2,593.2,396,593.5z"/>
	<path d="M501.5,559.8c0.7-0.5,1.3-0.5,1.8,0.2C502.7,560.4,502,560.5,501.5,559.8z"/>
	<path d="M577,591.8c-0.7,0.3-1.4,0.5-2-0.1C575.6,591.4,576.3,591.2,577,591.8z"/>
	<path d="M325,562.2c-0.6,0.5-1.2,0.7-1.7,0C323.9,561.6,324.4,561.9,325,562.2z"/>
	<path d="M548.3,594C548,594,547.7,594,548.3,594C547.7,594,548,594,548.3,594z"/>
	<path d="M367.2,586.7c0.3,0,0.7-0.1,0.9,0.3C367.7,587.2,367.5,587,367.2,586.7z"/>
	<polygon points="346.2,582.4 345.9,582.4 346,582.2 	"/>
	<path d="M892.6,454.6c0,2.7,0,5.4,0,8.1c0,1.6,0.3,3,0.7,4.5c1,3.3,1.7,6.7,2.4,10.1c0,0.2-0.2,0.4-0.3,0.7
		c-1.7-0.8-4.4-3.4-4.9-4.9c0-0.1-0.1-0.2-0.1-0.4c-0.4-1.9-1-3.8-0.4-5.7c0.5-1.8,0.4-3.6,0.1-5.3c-0.4-2.3-0.5-4.6-0.4-6.9
		c0-1,0.3-2,1.8-2.5C892.6,453.7,892.6,453.7,892.6,454.6z"/>
	<path d="M922.2,624.1c-0.6-1-1.2-2-1.7-3c-1.3-3.2-2.4-6.5-3.3-9.8c-0.5-2.2-0.8-4.5-2.3-6.4c-0.9-1.1-0.9-2.7-0.8-4.1
		c0-0.6-0.3-1.5,0.8-2c3.1,8.6,5.1,17.4,9.1,25.4c-0.3,0.6-0.6,0.7-1.1,0.7C922.8,624.5,922.2,624.4,922.2,624.1z"/>
	<path d="M864.1,269.9c0-0.6,0.4-0.9,0.8-1.2c3.1-1.7,6.3-2.9,9.8-3.3c1.5-0.2,3-0.4,4.5,0.1c-0.1,0.2-0.1,0.4-0.1,0.5
		c-0.3,0.5-0.8,0.6-1.3,0.7c-3.8,0.1-7.3,1.3-10.8,2.6C866.1,269.7,865.1,270.2,864.1,269.9z"/>
	<path d="M894.1,487.4c0-0.9,0-1.8,0.2-2.7c0.1-0.6,0.5-1.1,1.5-1.1c1.7,1.8-0.6,3.4-0.4,5.6c1.2,1.8,1.2,3.9-0.9,6.4
		C894.2,492.5,894.1,489.9,894.1,487.4z"/>
	<path d="M938.1,616.9c0.2,0.1,0.4,0.3,0.6,0.4c-1.2,2.3-5.6,7.1-7.8,8.4C932.1,622.6,935.2,618.7,938.1,616.9z"/>
	<path d="M893.2,275.8c-1.7,0.3-3.2,0.9-4.4,2.1c-0.3,0.3-0.7,0.2-1-0.4c1.9-1.9,3.6-4.1,6.4-4.3c0.9,0.3,1.4,0.7,1.2,2
		C894.9,275.4,894.2,275.7,893.2,275.8z"/>
	<path d="M910.2,578c0,0.7,0.5,1.3-0.3,1.9C909.9,579.2,909.2,578.6,910.2,578z"/>
	<path d="M912.1,588.5c0-0.4,0-0.7,0.1-1.2C912.6,587.7,912.6,588.1,912.1,588.5z"/>
	<path d="M913.1,595.8c-0.5-0.5-0.7-1-0.1-1.6C913.6,594.7,913.9,595.2,913.1,595.8z"/>
	<path d="M908.7,572.2c-0.1,0.3-0.2,0.3-0.3,0c0-0.1,0-0.2,0.1-0.3c0,0,0.1,0,0.2,0C908.6,572,908.7,572.1,908.7,572.2z"/>
	<path d="M941.2,622.2c0,0.1-0.1,0.2-0.1,0.3H941C940.9,622.3,941.1,622.2,941.2,622.2z"/>
	<path d="M864.1,269.9c0,0.1,0,0.2-0.1,0.3c0,0.1-0.2,0.1-0.2,0C863.6,270,863.8,269.9,864.1,269.9z"/>
	<path d="M685.6,529.4c-0.3,0-0.6,0-0.7-0.1c-4.1-2.6-8.2-5.2-12.3-7.9c-0.2-0.1-0.7-0.5,0-1c4.4,2.3,8.6,4.8,12.5,8.1
		C685.3,528.8,685.5,529.2,685.6,529.4z"/>
	<path d="M696.5,524.9c-2.7-0.6-4.9-2-7.2-3.4c0.4-0.5,0.8-0.5,1.1-0.3c2,0.9,4,1.8,5.8,3.1C696.2,524.4,696.2,524.7,696.5,524.9z"
		/>
	<path d="M744.3,548c-1.9,1.9-2.8,2.4-5.4,3.1l0.1,0.1C740.7,549.3,742,548.6,744.3,548z"/>
	<path d="M737.3,551.8c-0.5,1.5-1.8,1.5-3,1.6l0.1,0.1C735.1,552.5,736.1,551.9,737.3,551.8z"/>
	<path d="M744.3,548.1c0.2-1,0.9-1.2,1.9-1.2c-0.3,0.3-0.4,0.6-0.7,0.8C745.2,547.8,744.7,547.9,744.3,548.1z"/>
	<path d="M743.6,577.3c-0.9-0.5-0.7-1.4-0.8-2.2l-0.1,0.1C743.5,575.8,743.5,576.6,743.6,577.3z"/>
	<path d="M704.1,566.5c-0.2,0.8-0.9,0.7-1.4,0.8l0.1,0.1C703.1,566.8,703.6,566.7,704.1,566.5z"/>
	<path d="M704.1,566.6c0.4-0.5,1-0.6,1.6-0.8l-0.1-0.1C705.3,566.6,704.6,566.4,704.1,566.6z"/>
	<path d="M707.1,565c-0.3,0.8-1,0.7-1.6,0.7l0.1,0.1C706.1,565.3,706.6,565.1,707.1,565z"/>
	<path d="M740.7,570.4L740.7,570.4c0.1,0,0.2,0.1,0.2,0.2l-0.1,0.1C740.8,570.6,740.7,570.5,740.7,570.4z"/>
	<path d="M734.3,553.4c-0.2,0.4-0.4,0.9-1,0.3C733.7,553.6,734.1,553.6,734.3,553.4z"/>
	<path d="M742.1,573.4c-0.3-0.2-0.7-0.4-0.4-0.9c0.1,0.4,0.2,0.7,0.2,1L742.1,573.4z"/>
	<path d="M737.3,551.9c0.3-0.7,0.9-0.8,1.6-0.7l-0.1-0.1C738.6,552,738.1,551.9,737.3,551.9z"/>
	<path d="M742.8,575.1c-0.8-0.3-0.7-1-0.8-1.6l-0.1,0.1C742.5,574,742.6,574.6,742.8,575.1z"/>
	<path d="M700.3,549.6c0.2,0.5,0.4,1,0.6,1.6l0.1-0.1C700.8,550.6,700.6,550,700.3,549.6z"/>
	<path d="M745.1,580.6c0.2,0.2,0.6,0.3,0.4,0.8c-0.1-0.4-0.2-0.6-0.3-0.9L745.1,580.6z"/>
	<path d="M684,521.9c0.3,0,0.8-0.3,1.1,0.4C684.5,522.1,684.3,522,684,521.9z"/>
	<path d="M798.5,522.5c-0.2,0.8-1,0.6-1.5,0.8l0.1,0.1C797.3,522.8,797.8,522.7,798.5,522.5z"/>
	<path d="M796.8,523.3c-0.3,0.7-0.9,0.7-1.5,0.8l0.1,0.1C795.6,523.4,796.3,523.5,796.8,523.3z"/>
	<path d="M795.3,524.1c-0.3,0.6-1,0.6-1.5,0.8l0.1,0.1C794.1,524.1,794.8,524.3,795.3,524.1z"/>
	<path d="M743.5,577.4c0.7,0.3,0.7,0.9,0.8,1.5l0.1-0.1C743.6,578.6,743.7,577.9,743.5,577.4z"/>
	<path d="M745.1,580.5c-0.8-0.3-0.7-1-0.7-1.7l-0.1,0.1C745,579.3,745.1,579.9,745.1,580.5z"/>
	<path d="M793.8,524.9c-0.3,0.1-0.6,0.7-1.1,0.2C793.2,525,793.5,525,793.8,524.9z"/>
	<path d="M696.3,524.9c0.4,0,0.7,0,1.3,0.1C697,525.3,697,525.3,696.3,524.9z"/>
	<path d="M702.6,567.3c0,0.1-0.1,0.1-0.1,0.2C702.5,567.4,702.6,567.4,702.6,567.3z"/>
	<path d="M707.2,565.1c0.1-0.1,0.2-0.2,0.2-0.3C707.5,564.8,707.3,564.9,707.2,565.1z"/>
	<polygon points="701,551.2 701.2,551.3 701.1,551.1 	"/>
	<path d="M699.5,548.9c0.3,0.2,0.6,0.5,0.8,0.7l0.1-0.1C700.1,549.3,699.8,549.1,699.5,548.9z"/>
	<polygon points="699.5,548.8 699.5,548.7 699.5,548.9 	"/>
	<path d="M687.1,531.2"/>
	<path d="M686.3,530.4c0.5,0,0.8,0.3,0.8,0.8l0.1-0.1C687,530.8,686.6,530.5,686.3,530.4z"/>
	<path d="M686.5,530.3c-0.5-0.1-0.8-0.3-0.8-0.8l-0.1,0.1C686.1,529.5,686.5,529.8,686.5,530.3z"/>
	<path d="M840.1,221.2c0.6,1.7,1.6,3.1,3.2,4l-0.1-0.1c1.2,3.9,3.3,5.3,7.1,4.7c0.8-0.1,1.5-0.4,2.2-0.6c1.3-0.4,2.7-0.9,4-1.4
		c2.7-1,5.5-1.4,8.3-0.2c0.5,0.2,1,0.3,1.5,0.3c0.5,0.1,1,0,1.2-0.8c-0.6-1.8-3.7-2.1-3.1-4.8c1.9-0.9,3.2,0.2,4.4,1.4
		c1.7,1.6,2.4,3.6,1.4,6c-3.1,1.5-6.2,0.9-9.2,0.1c-3,0.9-5.9,1.9-8.4,3.5c0.6,2.3,3.3,1.5,4.2,3.2c-1.4,0.7-1.4,0.7-5.7-0.2
		c-3.9,1.4-8.1,2.4-12.4,2.4c1.6-1.1,3.5-1.5,5.3-2c1.9-0.6,4-0.8,5.6-1.7c0.3-0.8,0.1-1.2-0.5-1.7c-1.8-0.4-4,0.6-5.8-1.2
		c-2.8-3.9-5.6-8-7.3-12.7c2.1-3.1,5.6-3.8,8.1-5.5c1.3-2.2,2.4-4.2,2.9-6.5c0.1-0.5,0.4-0.9,1.2-0.9c0.8,1,1.6,2.1,2.1,3.3
		c-0.2,0.5-0.2,1-0.4,1.2c-2.1,2.2-4.1,4.6-6.9,6c-1.6,0.7-3.3,1.5-4.1,3c0.3,0.8,0.7,1.3,1.3,1.6L840.1,221.2z"/>
	<path d="M812.3,232.8c1.7-2.2,3.5-4.4,5.2-6.7c1.3-1.8,2.6-3.5,3.7-5.4c3.6-6.1,6.2-12.4,5.7-19.7c0-0.5,0-1,0.1-1.5
		c0-0.6,0.3-1,0.9-1c0.9,0.9,0.7,2.1,1,3.2c0.3,1.2-0.4,2.4,0.1,3.7c1.5-0.9,1.7-2.1,1.5-3.5c-0.5-2.7-1.8-5-3.5-6.9
		c0.7-1.7,1.9-0.1,2.7-0.7c0.4-1-0.2-1.8-0.5-2.6c-0.4-0.9-0.9-1.8-1.4-2.7c-0.4-0.8-1.6-1-1.4-2.1c0.9-0.7,1.5-0.1,1.9,0.5
		c1.8,2.7,3.4,5.5,3.4,8.9c0,2.9,1.1,5.8,0.4,8.8c-0.7,1-1.5,1.9-1.9,2.9c-1.4,3.6-3.5,6.9-5.4,10.2c-2.5,4.6-5.4,8.7-9.2,12.3
		C814.7,231.5,813.8,232.7,812.3,232.8z"/>
	<path d="M843.2,225.2c-0.6-1.7-1.2-3.4-3.2-4l0.1,0.1c0.1-0.6,0.3-1.2,0.4-1.9c3.3-1.7,6.6-3.5,10.2-4.2c1.5,1.3,2.7,2.5,2.9,4.3
		c0.8,0.2,1.2-0.2,1.6-0.4c0.6-0.2,1.2-0.4,1.7-0.6c2.2,1.3,2.2,1.3,3.4,5.9c-0.7,0.5-1.5,0.4-2.2,0.5c-0.9,0.1-1.6,0.7-2.4,1.2
		C850.5,229.6,847.8,229.4,843.2,225.2z M850.6,217.6c-1.4-0.2-2.3,0.3-3.2,1.1c-0.6,1.4,1,3-0.3,4.3c-1-0.2-0.8-1-1-1.5
		c-0.2-0.6-0.4-1.2-1.1-1.6c-0.3,0.2-0.6,0.3-1,0.6c0.6,2.1,1.8,3.9,3.1,5.6c4,1.6,6.3-1,9.3-3.2c-1.5-0.6-2.6,0.6-3.2,0.2
		C850.7,221.5,851.2,219.3,850.6,217.6z"/>
	<path d="M857.1,151.2c0.5,1.4,0,2.8,0.9,3.9c1.1,0.6,2.3,1.2,3.3,2c1.1,0.9,1.9,2,2.9,2.9c1,0.1,1.7-1.3,2.9-0.5
		c-1.6,3.3-4.3,5.3-7.1,7.4c-1.2-1.5,0.6-2.1,0.6-3.2c-0.8-0.8-1.7-1.5-2.8-1.6c-0.5,0.4-0.4,0.9-0.4,1.4c0.2,1.3,0.6,2.5,1.1,3.7
		s0.5,2.5-0.8,3.4c-0.2-0.3-0.5-0.4-0.5-0.6c-0.3-2.4-1.1-4.7-1.9-7c-0.7-1.9-1-4-0.7-6.1c0.2-1.3,0.4-2.5,0.5-3.8
		c0.2-1.4-0.4-2.7-0.7-4.4C856,149.2,856.3,150.4,857.1,151.2z"/>
	<path d="M874.8,218.3c0.2-0.1,0.5-0.1,0.7-0.1c8.1,2,15,0,20.5-6.2c1.2-1.3,2.2-2.8,3.4-4.1c0.8-0.9,1.4-2.2,2.7-2.4
		c0.7,0.1,0.8,0.5,0.9,1.2c-1.1,1.6-2.2,3.5-3.4,5.2c-1.6,2.2-3.4,4.2-5.7,5.7c-5.4,3.7-11.3,4.7-17.6,2.6c-0.8-0.3-1.8-0.5-1.8-1.7
		C874.6,218.4,874.7,218.3,874.8,218.3z"/>
	<path d="M831,250.8c1.6-0.6,3.1-1.2,4.6-1.9c1.3-0.6,2.9-0.8,4-1.9c-0.7-0.8-1.6-0.4-2.4-0.7c1.9-0.5,3.6-1,5.4-1.5
		c2.6-0.7,5.2-1.3,7.8-2.2c3.2-1.1,6.3-2.3,9.4-3.5c0.6-0.2,1.2-0.4,1.8,0.1c-0.1,0.7-0.6,1-1.2,1.4c-2.7,1.6-5.5,2.8-8.5,3.6
		c-3.1,0.9-6.1,2.1-8.9,3.5c-3.5,1.8-7.2,3.5-11,4.7c-1.5,0.5-2.9,1-4.5,1c-0.3-0.3-0.5-0.6-0.9-1.1
		C828.1,251.8,829.5,251.4,831,250.8z"/>
	<path d="M814,204.3c-0.1-1,0.4-1.7,0.8-2.5c1.4-2.6,2.8-5.2,4.3-7.7c1.3-2.2,1.3-4.4,0.2-6.6c-0.3-0.6-0.9-1.3-0.3-2.1
		c0.1,0,0.2,0,0.3,0c1.1,0.3,1.3,1.4,2.3,2.2c-0.2-2.5-2.2-4.4-1.5-6.7c0.1,0,0.3,0,0.3,0.1c0.9,1.1,0.7,2.7,1.4,3.9
		c0.5,0.3,1.1,0.6,1.6,0.9c2.4,8.3,2.8,10.9,2.3,13.1c-1.7-1.7-1.5-4.3-2.9-6.4c-0.7,1.3-1.1,2.5-1.8,3.5c-1.3,1.9-2.8,3.7-4.2,5.5
		C816,202.3,815.2,203.7,814,204.3z"/>
	<path d="M804,164.9c0.4-1.5,0.5-3.1,1.2-4.4c1.3-2.6,2.9-5.2,4.4-7.7c0.8-1.3,1.9-2.4,3.4-3c0.6-0.3,1.3-0.2,1.7,0.9
		c-0.9,0.9-0.6,2.4-1,3.5c-1,1.5-2.3,2.3-3.5,3.3c-0.7,0.5-1.6,0.9-1.6,2c-0.5,0-0.8,0.3-0.7,0.8c-0.1,0-0.2,0-0.3,0
		c0.1,0,0.1-0.1,0.2-0.1c0.4-0.1,0.8-0.3,0.7-0.8c1.4,0.2,2.4-0.9,3.6-1c0.7-0.1,1.3-0.1,1.5,0.7c-0.1,0.2-0.2,0.5-0.4,0.6
		c-3.1,1.4-6,2.9-8.7,5C804.3,164.8,804.1,164.8,804,164.9z"/>
	<path d="M791,208.9c-0.2,6.2-0.5,12.3,0.6,18.4c0.1,0.7,0.5,1.5-0.4,2c-1.2-1.2-1.2-1.2-1.4-2c-0.9-3.9-1.2-7.9-1-11.8
		c0.3-3.7,0.8-7.4,1.2-11.1c0.2-1.4,0.4-2.8,1.3-4.1C791.6,203.3,791.1,206.1,791,208.9z"/>
	<path d="M842.8,158.9c0.1-1.3,0.5-2.6,0.4-3.8c-0.2-2,0.3-3.8,1.2-5.5c0.9-1.8,1.6-3.7,3.1-4.9c0.7-0.1,1,0,1.2,0.4
		c0.2,0.7-0.2,1.4-0.6,2.1c-1,2.2-1.6,4.6-1.9,7c-0.2,1.4-0.4,2.8-0.7,4.2c-0.4,1.8-1,3.4-2.4,5.4
		C842.5,161.7,842.7,160.3,842.8,158.9z"/>
	<path d="M802.3,192.6c0.3-0.4,0.5-0.9,0.9-1.3c3.3-3.7,6.6-7.5,8.7-12.1c0-0.1,0.4,0,0.8,0c-0.2,1-0.3,2-0.5,2.8
		c0.3,0.7,0.9,1.1,0.8,2.1c-1.2,3.4-3.5,6.4-6.5,9.3c-0.6-2.3,1.9-3.3,1.5-5.5c-1.1,1-2,1.9-2.9,2.7
		C804.2,191.6,803.5,192.6,802.3,192.6z"/>
	<path d="M798.5,188c-0.1-1.6,0.9-2.6,1.7-3.7c2.4-3.5,4.8-6.9,7.3-10.4c1.5-2.1,3.3-3.9,5.2-5.6c0.5-0.4,1.1-0.7,1.7-0.1
		c0,0.2,0,0.5-0.1,0.7c-4.9,6.1-9.7,12.2-14.6,18.3C799.3,187.6,798.8,187.7,798.5,188z"/>
	<path d="M834,256c2-1.3,4.3-1.7,6.5-2.3c5.9-1.6,11.8-3.3,16.8-7c0.8,0.7,0.5,1.2,0.1,1.8c-1.2,1.4-2.8,2.3-4.5,2.9
		c-4.2,1.7-8.5,3-12.9,3.9C838,255.6,836,256.2,834,256z"/>
	<path d="M841,213.5c0-0.4-0.1-0.8,0.1-1.1c1.5-4.1,1.5-8.2,0.1-12.3c-0.1-0.2,0.1-0.5,0.2-0.6c0.3-0.4,0.6-0.5,1-0.3
		c0.7,0.3,1.2,1,1.5,1.6c2.1,3.7,1.2,9.4-2,12.4C841.7,213.4,841.2,213.4,841,213.5z"/>
	<path d="M836.1,206c-0.5-2.4-1.5-4.8-2.2-7.1c0.5-0.5,0.9-0.8,1.9-0.5c1.7,2.1,2.4,4.9,2.7,7.8c0.3,2.5,0.3,5-1.3,7.9
		C836.8,211,836.6,208.5,836.1,206z"/>
	<path d="M873.1,242c-0.9,0.5-1.7-0.3-2.9-0.1c-1.9,1.1-4.2,2.2-6.7,2.6c-2.6,0.4-5.1,1.4-7.9,1c5-2.1,10.4-3.1,15.4-5.6
		C873.3,240.7,873.8,241.2,873.1,242z"/>
	<path d="M885.2,233.3c-1.7-0.6-3.4-1.2-5-1.9c-1.7-0.8-3.8-0.4-5.1-1.9c0.2-0.8,0.7-1.1,1.2-1c5.4,0.9,10.2,3,14.7,7.4
		C888.2,235.2,887.1,234,885.2,233.3z"/>
	<path d="M803.8,230.5c-0.8,3.6-1.6,7.2-2.5,10.8c0,0.2-0.3,0.3-0.5,0.4c-0.9-0.3-0.9-1.2-0.7-1.9c0.6-3.2,1.5-6.2,3.2-9
		C803.3,230.8,803.7,230.7,803.8,230.5z"/>
	<path d="M803.1,171c0.8-2.4,2.5-4.2,4.2-5.9c0.7-0.7,1.6-1.2,2.5-1.7c0.5-0.3,1-0.2,1.4,0.2c-0.1,0.2-0.1,0.6-0.3,0.7
		c-2.2,1.4-4,3.2-5.8,5.1C804.5,170,804.1,170.8,803.1,171z"/>
	<path d="M817.1,208.9c0.1-0.4,0-0.8,0.2-1.1c1.6-2.8,3.3-5.6,5-8.3c0.6,0.4,0.7,1,0.5,1.5C821.3,203.9,819.6,206.7,817.1,208.9z"/>
	<path d="M796,229.3c0,3.7-0.6,7.2-1.8,9.6C794,234.6,794.5,232,796,229.3z"/>
	<path d="M814.3,181.5c0-0.4,0.3-0.7,0.9-0.6c1.1,2.8,1.4,5.7,0.8,9.5C815.1,187,814.5,184.3,814.3,181.5z"/>
	<path d="M898.2,245.2c-1.8-0.8-3-2-4-3.4C897.2,242.8,897.7,242.9,898.2,245.2z"/>
	<path d="M896.9,254.2c-2.4,0.5-4-0.2-5.7-1.9C893.6,252.1,895.1,253.1,896.9,254.2z"/>
	<path d="M901.2,251.2c0.2,0.4-0.1,0.7-0.7,0.9c-0.9-0.4-1.5-1-1.6-2.4C900.2,249.8,901.1,250.4,901.2,251.2z"/>
	<path d="M832.5,229.8c0.5-1.8,0.5-1.8,1.7-2.1C834,228.8,833.5,229.5,832.5,229.8z"/>
	<path d="M798.3,188c0,0.8,0,1.6-1.2,1.6C797.3,188.8,797.6,188.2,798.3,188z"/>
	<path d="M861.1,237.1c-0.5,0.5-1.1,0.3-1.7,0.1C860.1,236.7,860.6,236.8,861.1,237.1z"/>
	<path d="M839.1,241.7c0.5,0,0.8-0.1,1.2-0.1C840,241.9,839.6,241.9,839.1,241.7z"/>
	<polygon points="797.1,223.7 797.2,223.4 797.3,223.7 	"/>
	<path d="M804,230.6c0.1-0.3,0.1-0.6,0.2-1C804.3,230.1,804.1,230.3,804,230.6z"/>
	<path d="M842.5,240.8l0.1,0.1c-0.1,0-0.2,0.1-0.3,0.1l-0.1-0.1C842.3,240.9,842.5,240.8,842.5,240.8z"/>
	<path d="M808.6,212.8c0.1-0.6,0.1-1.2,0.7-1.5l-0.1-0.1C809,211.7,808.7,212.2,808.6,212.8z"/>
	<path d="M810.8,208.9c0.1-0.6,0.2-1.1,0.7-1.5l-0.1-0.1C811.5,207.9,811.3,208.4,810.8,208.9z"/>
	<path d="M813.1,205c0,0.6-0.2,1.2-0.7,1.5l0.1,0.1C812.5,206,812.6,205.4,813.1,205z"/>
	<polygon points="810.8,208.8 810.6,209 810.8,208.9 	"/>
	<path d="M809.2,211.3c0.1-0.1,0.1-0.2,0.2-0.2C809.3,211.1,809.2,211.1,809.2,211.3z"/>
	<polygon points="808.5,212.7 808.5,212.8 808.6,212.8 	"/>
	<path d="M841,213.5c-0.1,0.1-0.1,0.1-0.2,0.2C840.8,213.6,841,213.6,841,213.5z"/>
	<path d="M806.1,238.2l-0.1,0.2L806.1,238.2z"/>
	<path d="M806.1,238.2l0.1-0.1L806.1,238.2z"/>
	<polygon points="809.1,235.9 809.1,236.1 809.2,236 	"/>
	<path d="M809.2,236c0.3-0.3,0.5-0.5,0.8-0.8l-0.1-0.1C809.7,235.4,809.5,235.7,809.2,236z"/>
	<path d="M810.7,234.4c-0.2,0.3-0.5,0.5-0.8,0.8l0.1,0.1C810.2,235,810.5,234.7,810.7,234.4z"/>
	<path d="M811.5,233.6c-0.3,0.3-0.5,0.5-0.8,0.8l0.1,0.1C811.1,234.2,811.3,233.9,811.5,233.6z"/>
	<path d="M812.3,232.7c-0.3,0.3-0.6,0.6-0.8,0.9l0.1,0.1C811.8,233.4,812.1,233.1,812.3,232.7z"/>
	<path d="M803.8,164.8c-0.1,0.4-0.2,0.5-0.2,0.2C803.5,165,803.7,164.9,803.8,164.8z"/>
	<path d="M813.1,205.1c0.3-0.3,0.6-0.5,0.8-0.8l-0.1-0.1C813.7,204.6,813.5,204.9,813.1,205.1z"/>
	<path d="M811.5,207.4c0.3-0.3,0.6-0.5,0.9-0.8l-0.1-0.1C812.1,206.8,811.7,207,811.5,207.4z"/>
	<path d="M817,208.8c-0.1,0.1-0.1,0.1-0.2,0.2C816.8,209,817,208.9,817,208.8z"/>
	<path d="M318.7,525.2c-0.8,0.4-0.7,1.9-2.1,1.7c-0.7-1.8,0.2-3.3,0.7-4.8c3.8-2.4,4.9-2.4,7.6-0.2c0.3,0.7,0.1,1.2-0.7,2.2
		C322.4,524.4,320.6,524.8,318.7,525.2z"/>
	<path d="M326.8,521.5c-0.6-0.5-0.8-0.9-0.7-1.5c0.7-1.4,2-1.4,3.3-1.4c3.6,0,7.2,0,10.7,0c0.3,0,0.7,0.2,1.4,0.4
		C336.5,520.9,331.5,521.1,326.8,521.5z"/>
	<path d="M514.2,513.9c-1.9-0.2-3.8-0.6-5.3-1.9c-0.5-0.4-0.9-1,0-1.7c4.1,2.4,9,1.8,13.6,3.3C519.8,514.2,517.1,514.3,514.2,513.9z
		"/>
	<path d="M418.2,530.5c1.9,0.2,3.8,0.5,5.7,0.6c2,0.2,3.9,0.5,5.8,1.2c-4,0.2-8.1,1-12-0.6C417.7,531,417.9,530.7,418.2,530.5z"/>
	<path d="M347.3,519.3c-0.8,0.1-1.6-0.1-1.5-1.5c2.1-1.2,4.5-1,7.6-0.5C350.9,518.4,349.2,519.1,347.3,519.3z"/>
	<path d="M403.7,528c-3.4-0.1-6.5-1.2-9.7-2.3c-0.4-0.1-0.4-0.4,0.1-0.6c2.8,0.7,5.8,1.5,8.7,2.3C403.2,527.4,403.4,527.6,403.7,528
		z"/>
	<path d="M488.7,538.9c2.3-2.1,4-2.6,6.3-1.9C492.9,538,490.8,538.6,488.7,538.9z"/>
	<path d="M359.5,517.8c-0.7,0-1.2-0.2-1.2-1.3c1.4-0.2,2.9-0.4,4.6,0.1C361.7,517.3,360.7,517.9,359.5,517.8z"/>
	<path d="M369.9,516.2c-0.6-0.3-1.7,0.4-2.2-1.1c1.1-0.3,2-0.7,2.9,0.1C370.7,515.6,370.4,515.9,369.9,516.2z"/>
	<path d="M445.8,533c-1.7,1.2-3,1.1-4.2,0.4C442.8,533.3,444,533.2,445.8,533z"/>
	<path d="M533.6,512.8c0.7-1.5,1.8-1.2,3.2-0.8C535.7,512.8,535,513.5,533.6,512.8z"/>
	<path d="M403.5,528c0.7,0,1.5,0.1,2.8,0.2C404.9,528.6,404.2,528.4,403.5,528z"/>
	<path d="M488.7,538.8c-0.6,0.8-1.5,0.8-2.4,0.7l0.1,0.1C486.9,538.6,487.8,538.7,488.7,538.8z"/>
	<path d="M486.2,539.5c-0.1,0.7-0.5,0.8-1.1,0.3C485.7,539.7,486,539.6,486.2,539.5z"/>
	<path d="M803.8,455.4c-2.8,7.1-8.8,10.3-15.6,12.4c-0.4,0.1-1-0.1-1.1-1c1-1.4,2.6-2.2,4.2-2.9c2.4-0.9,4.6-2.3,6.6-3.8
		c1.6-1.2,3.2-2.5,4.6-4C803,455.7,803.3,455.3,803.8,455.4z"/>
	<path d="M804,455.4c1.3-3.5,3.4-6.5,5.9-9.1c0.3-0.3,0.7-1.1,1.6-0.5c-0.9,1.6-1.7,3.1-2.6,4.6c-0.8,1.3-1.7,2.5-2.6,3.8
		c-0.4,0.1-0.7,0.2-1.1,0.4C804.7,454.9,804.2,455.1,804,455.4z"/>
	<path d="M836.3,540.8c0.1,3.6,0.1,3.6-1.7,5.8C835.1,542.4,835.1,542.4,836.3,540.8z"/>
	<path d="M839.1,534.2c-0.1,0.4-0.4,1-1.2,0.5c0-0.4-0.1-0.9,0-1.4c0.2-1.1,0.5-2.2,0.8-3.3C839.7,531.9,839.7,532.6,839.1,534.2z"
		/>
	<path d="M842.1,525.7c-0.5,0.1-0.8-0.1-1.1-0.5c-0.2-1.2-0.2-2.4,1.4-3.4C842.7,523.5,842.8,524.7,842.1,525.7z"/>
	<path d="M815.5,439.4c-0.2-1.3,0.5-2.1,1.5-2.8C816.7,438.7,816.7,438.7,815.5,439.4z"/>
	<path d="M820.6,432.6c0.1,0.8-0.1,1.2-1,1.6C819.3,433.3,819.5,432.8,820.6,432.6z"/>
	<path d="M831.7,551.2c0.1-0.3,0.1-0.6,0.2-1C832.2,550.7,831.8,550.9,831.7,551.2z"/>
	<path d="M825.2,421.8c0.2,0,0.3,0,0.5-0.1C825.6,421.7,825.5,421.7,825.2,421.8z"/>
	<path d="M831.6,551.1c-0.3,0.3-0.6,0.5-0.9,0.8l0.1,0.1C831,551.6,831.2,551.3,831.6,551.1z"/>
	<polygon points="823.6,427 823.6,427.2 823.3,427.1 	"/>
	<path d="M790,321.8c0.9-0.2,0.5,1.3,1.6,1.2c-0.6-18.4-1.1-36.8-3.5-56c-0.4,2.3-0.7,3.8-0.9,5.4c-0.2,1.5-0.2,3.1-0.3,4.6
		c-0.1,1.7-0.3,3.3-0.5,5c-0.1,1.5-0.1,3.1-0.2,4.6c-0.1,1.5-0.1,3.1-0.3,4.6c-0.1,1.5-0.3,3.1-0.1,4.6c0.2,1.5,0.2,3.1,0.2,4.6
		c0.1,1.7,0.1,3.3,0.2,5c0.1,1.5,0.2,3.1,0.3,4.6c0,1.4,0.9,2.8,0,4.2c-0.7-0.4-0.7-1.1-0.7-1.7c-0.3-3.6-0.6-7.2-0.7-10.8
		c-0.2-8.9-0.7-17.7-0.4-26.6c0.2-6.2,0.7-12.3,2.3-18.3c0.3-1.2,0.8-2.4,1.3-3.6c0.4-0.9,1.1-1.4,2.2-1.1c0.3,1.6,0.3,1.6-0.1,2.9
		c-0.5,1.5-0.8,2.9-0.6,4.5c0.7,5.7,1.4,11.5,1.8,17.2c0.6,7.2,1,14.4,1.4,21.5c0.4,8.5,0.6,17-0.1,25.4c-0.2,3,0,5.9,0.7,8.8
		c0.3,1.3,0.7,2.5,0.5,3.8l0.1-0.1c-0.9-0.3-0.5-1.4-1.2-1.8c-0.5,0.3-0.1,1.4-1.3,1.1c0-0.5,0-1,0-1.5c0.2-3.5,0-6.9-1.2-10.2
		C790,323.3,790.1,322.4,790,321.8z"/>
	<path d="M784.2,252.7c-0.8,1.6-1.6,3.2-2.2,4.9c-0.8,2.2-1.6,4.3-2.3,6.6c-3,10-4.5,20.3-5.3,30.7c-0.1,0.9-0.2,1.8-0.4,3.6
		c-0.3-1.3-0.4-1.7-0.4-2c-0.3-11,0.7-21.8,3.6-32.5c1.1-4.1,2.6-8.1,4.6-11.8c1-1.8,1.9-3.6,3.7-4.7c0.8,0,1.4,0,1.7,1.3
		C786.1,250,785,251.2,784.2,252.7z"/>
	<polygon points="790,321.7 789.8,321.5 790,321.8 	"/>
	<path d="M939.8,573.2c-0.1,0-0.2,0.1-0.3,0.1c-0.3-0.1-0.2-0.3,0.1-0.3c0.1,0,0.2,0.1,0.3,0.1C939.8,573.1,939.9,573.2,939.8,573.2
		z"/>
	<path d="M955.8,583.2c-0.3,0.4-0.4,1.1-1.2,1.2c-0.1-0.4-0.3-0.7-0.2-1.1c0-0.3,0.2-0.7,0.4-1C955.2,582.3,955.7,582.5,955.8,583.2
		z"/>
</g>
</svg>
