<?xml version="1.0" encoding="utf-8"?>
<!-- Generator: Adobe Illustrator 19.1.0, SVG Export Plug-In . SVG Version: 6.00 Build 0)  -->
<svg version="1.2" baseProfile="tiny" id="Layer_2" xmlns="http://www.w3.org/2000/svg" xmlns:xlink="http://www.w3.org/1999/xlink"
	 x="0px" y="0px" width="900px" height="600px" viewBox="144 97 900 600" xml:space="preserve">
<g>
	<path d="M341.6,624.3c-2.2,0.3-4.3,0-6.5-0.3c-4.5-0.7-9.1-1.3-13.6-1.9c-3.5-0.5-7.1-0.9-10.6-1.3c-1-0.1-2-0.2-3-0.2
		c-7.4,0-14.8-0.1-22.2,0.1c-3.4,0.1-6.9,0.4-10.3,0.7c-8.4,0.8-16.8,1.2-25.1,2.6c-2.5,0.4-5.1,0.5-7.6,0.8
		c-8.4,0.9-16.8,1.1-25.2,0.8c-1.9-0.1-3.8-0.3-5.5-1.4c0.1-0.6,0.1-1.1,0.2-1.5c-0.2-0.2-0.3-0.4-0.5-0.5c-0.7-0.2-1.5-0.4-2.2-0.6
		c-1.8-0.6-3.5-1.4-4.4-3.3c-1.4-0.1-2.6-0.1-3.9-0.2c-0.9-0.1-1.7,0.1-2.5,0.5c-1.6,0.6-3.2,0.9-5.1,0.7c-2.5-0.3-5,0.3-7.6,0.5
		c3.8,5.8,18.3,11.2,27.1,10.3c-3.2-1.2-6.5-2.5-9.8-3.8c-2.1-0.9-4.1-2-5.7-3.7c-0.4-0.5-0.8-1-1-1.3c-0.1-1,0.3-1.4,1-1.6
		c0.2,0.1,0.5,0.1,0.7,0.3c5.1,4.5,11.3,6.2,17.8,7.4c3.1,0.6,6.3,0.9,9.5,1.3c1.9,0.2,3.8,0.1,5.7-0.3c1.9-0.4,3.6-1.2,5.7-1.1
		c0.5,0.4,1.1,0.9,1.7,1.4c11.6-1.6,23.3-2.5,34.8-4.6c4.6-0.9,9.2-1.9,13.8-2.9c0.1,0,0.2,0.1,0.3,0.1c0.1,0.1,0.2,0.2,0.4,0.4
		c-3.5,1.7-7.4,2-11,3.1s-7.4,1.9-11.8,3c1.2,0.1,1.6,0.2,2.1,0.1c3.3-0.3,6.6-0.5,9.9-0.9c6.2-0.8,12.4-0.9,18.7,0.2
		c1.1,0.2,2.3,0.1,3.4,0.1c1.4,0.1,2.8,0.1,4.4,0.2c-0.7,0.9-1.5,0.6-2.1,0.6c-6.1-0.3-12.2,0.2-18.3,1.4c-4.4,0.8-8.8,1.2-13.3,1.7
		c-7,0.8-13.9,1.5-20.9,2.1c-7,0.6-14,1.3-21,1c-4.6-0.2-9.2,0.3-13.7-0.5c-0.6-0.1-1.3,0-1.9,0.1c-8.6,1-16.4-1.8-23.7-5.8
		c-2.8-1.5-5-4-7.1-6.4c-0.9-1-1-2.3-1.7-3.5c-0.8-0.5-1.7-1-2.5-1.5c-1.8-1.1-3.3-2.4-3.9-4.5c-0.4-1.3-1.2-2.2-2.3-3
		c-2.8-2.1-4.8-4.9-6.5-8c-5-9.4-9.4-18.9-11.6-29.4c-1.8-3.8-2-8.1-4-11.9c-0.4-0.7-0.5-1.7-0.4-2.6c0-1.7,0.1-3.3,0.4-4.9
		c0.9-5.4,1.9-10.8,2.7-16.2c0.5-3.6,1.6-6.9,3.6-9.9c1.6-2.3,2.9-4.8,4.2-7.3c1.4-2.7,3-5.3,5.4-7.4c0.5-0.4,0.8-1,1.3-1.6
		c1.8-0.6,3.8-1.2,5-3c0.9-1.2,2.6-0.8,3.6-2c0.8-1.1,2.1-1.9,3.3-2.6c1.9-1,4-1.6,6-2.4c5.7-2.3,11.3-4.6,17-6.9
		c2.4-1,4.8-1.5,7.5-1c1.9,0.3,3.8,0.6,5.7,0.8c2.6,0.2,5.1,0.1,7.2-1.8c0.7-0.7,1.8-1,2.7-1.5c3.1-1.8,6.1-3.7,8.7-6.2
		c1.9-1.8,4.1-3.4,6.3-4.9c1.2-0.8,2.2-1.7,2.9-2.7c1.4-0.7,2.6-0.6,4-0.1c2.3,2.4,4.1,5.3,4.9,8.8c2,1.3,4.1,1.3,6.2,0.2
		c0.9-0.5,1.7-1.1,2.8-1.3c0.5-0.1,1-0.1,1.3-0.1c2,0.6,2.9,2.4,4.6,3.4c1.6-1.9,3.5-3.1,6.2-3.1c2.5,0,4.2,1.7,6.2,2.5
		c3.6-1.8,7.3-2.4,11.2-2.5c0.9,0,1.8,0.2,2.5,0.9c1.5,1.7,3.2,3.3,4.1,5.4c1.6,3.8,2.5,7.7,2.8,11.9c0.1,1.4,0.2,2.8,0.6,4.1
		c0.7,2.6,0.9,5.3,0.4,7.7c0.6,1.4,1.7,1.4,2.7,1.4c3.7,0.1,7.4,0.1,11.1,0.3c2.8,0.1,5.6,0.3,8.3,1c1,0.3,2,0.2,3,0.2
		c3.9-0.1,7.6,0.4,11.3,1.4c2.2,0.6,4.1,0.4,6-1.3c1.4-1.3,3.2-2.1,4.9-3c2.9-1.6,5.9-3.1,8.8-4.7c1.7-0.9,3.3-1.9,4.6-3.3
		c0.9-0.9,2-1.5,3.1-2.2c5.5-3.7,11-7.5,15.6-12.3c4.4-4.6,8.8-9.2,12.9-14.1c4.6-5.4,9.6-10.2,15.4-14.2c2.5-1.7,5.1-3.3,7.7-5
		c3.2-2,6.6-3.2,10.4-3.4c3.1-0.2,6.1-0.7,9.1,0c1,0.2,2,0,3-0.4c3.6-1.4,7.3-1.2,10.9,0c7,2.5,12.5,6.8,15.6,13.7
		c1,2.2,2.6,4,4.3,6c4-1.3,8.1-2.2,11.4-5.4c1.6,0.1,3.2-0.4,4.7-1.1c3.2-1.6,6.3-3.3,9.2-5.4c2.9-2,5.9-4,8.9-5.9
		c1.8-1.2,3.6-2.5,4.9-4.2c1.7-2.1,4.3-3.1,6.3-4.9c1.1-1,2.4-1.9,3.3-3c0-1.1-0.9-1.6-1.4-2.3C505.2,428,494,414.8,483.4,401
		c-2.5-3.3-4.8-6.9-7.1-10.4c-1-1.5-1.9-3-3.7-3.7c-0.8-2.1-1.8-4-3.2-5.4c-0.3-1.1,0.5-1.6,0.7-2.5c-0.4-4-0.7-8.2-1.1-12.4
		c-0.1-1-0.2-2.1,0-3.1c0.5-3.8,0.7-7.6,0.7-10.8c0.3-1.4,1.2-1.2,2-1.9c0.3-0.9,0.7-2.3,1.1-3.6c1.2-4.3,3.2-8.3,5.2-12.3
		c1.9-3.7,4.6-6.7,8.1-9c2.6-1.7,5.1-3.4,7.9-5.2c0.6-1.9,2.3-3.2,4.1-4.5c3.6-2.5,7.5-4.3,11.5-6c2.1-0.9,4.4-1.4,6.7-1.3
		c3.6,0.2,6.8-1,9.7-2.9c7.8-5.1,15.8-9.8,23.8-14.5c2.3-1.4,4.7-2.5,7.4-2.8c1.2-0.1,2.2-0.6,3.2-1.1c4.8-2.2,9.8-3.5,15-4.6
		c5.6-1.2,11-3.1,16-5.9c1.8-1,3.7-1.8,5.5-2.6c6.4-3,12.4-6.5,18.1-10.6c3-2.1,5.8-4.5,8.4-7.3c-0.2-1.9-0.5-3.8-0.7-5.7
		c-0.4-3.2-0.2-6.4,1.5-9.3c0.5-0.8,0.7-1.6,0.5-2.5c-0.3-2.1,0.8-3.5,2.7-4.1c4.1-1.3,8.3-2.6,12.6-3c1.9-0.2,4,0.4,6.2,0.7
		c-1.5,1.2-3,0.5-4.7,1.2c-2.6,2-6.2,2.4-9.6,3.2c-1.7,0.4-3.6,0.3-5.2,1.7c0.1,1.7-1.4,3-1.4,4.9c1,0.4,1.3-0.5,1.9-0.8
		c0.8-0.4,1.5-1,2.3-1.4c0.7-0.4,1.4-0.7,2.1-0.9c0.7-0.3,1.5-0.5,2.2-0.7c0.9-0.2,1.7-0.4,2.6-0.6c0.7-0.2,1.5-0.3,2.3-0.4
		s1.5-0.3,2.3-0.2c0.9,0,1.8,0.3,2.6,0.4s1.5,0,2.1,0c1.8,1.6,3.4,3.1,4.7,4.8c0.9,1.2,1.1,2.5,1,3.9c-1-0.8-2-1.6-2.6-2.7
		s-1.4-2.1-2.6-2.8c-6.7-2.1-12.4-0.1-17.7,3.8c0.1,0.7,0.4,1.2-0.2,2c-0.5,0.9-2,0-3,1.1c0.3,1.7,0.7,3.6,1,5.4
		c0.8,0.1,1.3-0.4,1.8-0.8c2.6-2,5.2-4,7.9-6c0.5-0.4,1.2-0.5,1.5,0.6c-0.7,1.4-2,2.2-3.3,3c-2.9,1.8-5.5,4-7.7,6.7
		s-4.7,5.1-7.5,7.1c-6.1,4.4-12.7,8.1-19.5,11.3c-1,0.5-2.2,0.8-3,1.6c-0.9,0.8-1.9,1.2-2.9,1.8c-4.3,2.2-9.1,3.3-13.6,5.1
		c-7.8,3-15.9,5.4-23.6,8.9c-3.2,1.5-6.7,2.5-9.8,4.2c-4.3,2.3-8.4,4.8-13,6.5c-0.5,0.2-0.9,0.5-1.2,0.7c-0.3,0.7-0.6,1.2-0.8,1.8
		c-3.1,1.3-6,2.5-9.1,3.2c-7.3,1.8-14.3,4.4-21,8c-2.5,1.3-4.9,2.7-6.8,4.8c-0.9,1-2.2,1.7-3.3,2.6c-2.4,1.9-5.1,3.3-7.2,5.3
		c-0.6,1.3-1.1,2.5-1.7,3.7c-2.9,5.8-5.7,11.7-7.8,17.8c-0.3,1-0.8,1.9-1.2,2.8c-0.4,1-1.9,0.7-2.2,2.2c0.7,4.9,1.4,10.1,2.1,15.2
		c0.4,2.8,0.8,5.6,1.1,8.3c0.1,1,0.5,1.9,1.2,2.8c2.2,2.7,4.2,5.4,6.4,8.1c8.5,10.2,17.1,20.3,25.6,30.5c2.4,2.8,4.7,5.7,7,8.6
		c5.1,6.5,10.3,13,15.4,19.5c7.2,9.4,15.4,18.1,23.2,27c0.8,1,1.7,1.9,2.8,2.6c2.2,1.6,4.1,3.4,6.1,5.3c2.5,2.3,4.9,4.8,7.3,7.2
		c5.2,5.1,10.6,10,15.9,14.9c2.4,2.2,5,4.3,7.4,6.4c2.2-0.5,4.2-0.9,6.3-0.5c2.5,0.5,5.1,0.5,7.6,0.4c10.7-0.2,21.4-0.6,32.1-1.6
		c3.7-0.3,7.4-0.5,11.1-0.9c6.7-0.6,13.4-1.4,20.2-2c6-0.6,11.9-1.2,17.8-2.3c4.6-0.9,9.2-2.1,13.5-4.2c5.3-2.5,10.7-4.7,16.5-5.9
		c1.5-0.3,2.9-0.8,4.2-1.6c0.8-0.5,1.6-1.2,2.7-1c0.7,0.9,0.4,1.7-0.4,2.4c-1.8,1.6-4,2.2-6.1,2.9c-12.1,4.3-24.4,8-36.9,11.3
		c-1.2,0.3-2.5,0.6-3.7,0.8c-5,0.9-10.1,1.6-15.1,2.6c-9.9,2-19.9,2.9-30,3.4c-9,0.5-18.1,0.2-27.2,0.2c-1.8,0-3.5-0.4-5.3-0.6
		c-1.1-0.1-2.2-0.6-3.3-0.1c0.1,0.9,0.9,1.2,1.5,1.7c2.7,2.4,5.4,4.7,8.1,7c0.4,0.3,0.7,0.8,0,1.3c-1.6-1.2-3.1-2.5-4.9-3.5
		c-1.6-1-3.2-2.4-5.3-2.9c-0.4,2.1,0,3.8,0.4,5.5c1.4,5.7,2.5,11.4,3.1,17.3c0.3,2.7,0.6,5.3,1.1,8c1.2,6,2.4,12,3.7,18
		c0.4,2,1,4,1.6,5.9c1.5,4.6,3.2,9.1,4.7,13.8c1.6,5.3,3.6,10.4,7.3,14.6c0.6,0.7,1,1.4,0.6,2.4c-0.1,0.3,0.1,0.7,0.3,1
		c1.5,2.1,2,4.7,3.8,6.6c0.8,0.8,0.3,2,1,2.7c1.3,0.6,2.5,0.7,3.8,0.8c2.3,0.1,4.6,0.1,6.9,0.2c7.5,0.5,15,0.6,22.5,0.6
		c2.7,0,5.3-0.1,8-0.6c5.6-1,11.3-1.9,17-2.8c4.4-0.7,8.8-1.7,12.7-4c4-2.3,8-4.5,11.9-7c5.9-3.8,11-8.6,15.1-14.5
		c3.8-5.6,7.5-11.2,10.4-17.4c1.1-2.3,2.4-4.5,3.6-6.7c0.9-1.7,1.6-3.4,2.2-5.3c2-5.8,3.1-11.8,4.5-17.8c0.2-0.9,0.4-1.8,0.4-2.6
		c-0.4-4.3-0.2-8.7-1.2-13.1c-1.2-0.3-1.9-1.4-2.1-2.7c-0.2-0.9-0.5-1.7-0.6-2.6c-0.7-4.5-2.3-8.6-4.4-12.6
		c-0.9-1.8-1.9-3.6-2.7-5.5c-2.6-5.8-6.5-10.6-10.4-15.6c-0.3-0.4-0.6-0.8-1-1.1c-2-1.4-3.5-3.3-5-5.2c-1.4-1.8-2.9-3.5-4.9-4.8
		c-0.7-0.5-1.3-1.1-1.7-2c-0.3-0.8-1-1.5-1.6-2.1c-1.7-1.6-2.9-3.5-4.2-5.4c-2.1-3.1-4.3-6-7.1-8.5c-3.9-3.5-7.9-6.9-11.9-10.3
		c-1.8-1.6-3.7-3.1-5.8-4.4c-4.1-2.8-8.1-5.7-12.4-8.3c-4.4-2.6-8.6-5.5-12.8-8.3c-2.5-1.7-5-3.5-7.8-4.7c-1.2-0.5-2.3-1.2-3.3-2
		c-2.4-2-5.1-3.3-7.8-4.9c-1.6-0.9-3.1-1.6-5.1-1.6c-0.7-1.5-1.9-2.4-3.3-3.1c-1.7-0.9-3.3-2-4.9-2.9c-5.2-3-10.2-6.4-15.5-9
		c-5.6-2.8-11-6-16.5-8.8c-0.7-0.3-1.4-0.8-1.9-1.3c-0.9-1.1-2.1-1.8-3.3-2.5c-3.3-1.9-6.3-4.4-9.1-7c-2.1-2-4.4-3.9-6.9-5.4
		c-2.6-1.6-4.8-3.8-6.9-5.9c-2.1-2.1-3.7-4.6-4.1-7.6l-0.1,0.1c1.9,0.8,2.8,2.5,4,3.9c1.7,1.9,3.6,3.6,5.5,5.3
		c2,1.6,4.1,1.9,6.4,0.8c4.6-2.2,9.1-4.6,12.9-8c3-2.7,5.7-5.8,8.5-8.8c1.1-1.2,2.3-2.4,2.7-4.1c0.2-0.7,0.9-1.2,1.4-1.8
		c0.7-0.7,1.5-1.4,2.1-2.2c1.7-2.2,3.4-4.4,5.1-6.6c3-4.1,5.8-8.4,8.4-12.8c2.3-3.9,4.7-7.5,7.6-11c3.4-4.2,6.4-8.6,6.9-14.2
		c0-0.1,0.1-0.2,0.1-0.4c1.2-6.4,3.2-12.6,3.5-19.1c2-1.3,2.6-3.4,2.9-5.6c0.2-1.5,0.5-3,1.2-4.4c2.2-4.6,4.3-9.3,7.3-13.4
		c0.8-1.1,1.9-2.2,2.4-3.4c1.3-3,3.7-4.8,6.1-6.6c2.1-1.5,4.5-2.3,6.8-3.4c0.4-0.2,1-0.4,1.5-0.3c2.9,0.4,5.5-0.8,8.2-1.3
		c0.9-0.2,1.7-0.5,2.4-1.1c1.5-1.2,3.2-1.4,5.1-1.3c3.9,0.3,7.8,0.9,11.6,2.1c2.3,0.7,4.6,1.3,7,1.9c1.2-1.5,1.2-3.2,1.5-4.8
		c0.4-1.6,0.9-3.1,0.3-4.9c-0.6-1.7-0.2-3.5,0.1-5.3c0.8-3.6,1.5-7.2,2.3-10.8c0.8-3.5,1.3-7,1.8-10.6c0.5-3.5-0.3-6.8-1.7-10
		c-2.9-6.5-6.5-12.7-10-18.9c-1.2-2.2-2.8-4.3-4.2-6.4c-1.9-2.8-4.8-4.5-7.6-6.3c-2.6-1.6-5.3-2.9-8.3-3.9c-2.9-1-5.8-1.8-8.5-3.7
		c-3.5,0.8-6.9,2.1-10.1,4c-0.5,0.3-1,0.8-1.4,1.3c-1.4,2-2.9,3.9-4.1,6c-1.6,2.6-2.7,5.5-2.5,8.7c0.1,2.7,0.1,5.3,0.1,8.2
		c2.4,1.3,2.8,3.5,2.7,5.9c-0.2,5.8-0.8,11.4-3.6,16.6c-0.3,0.5-0.5,1.1-0.8,1.6c0.6,1,1.5,0.6,2.1,0.5c5-0.2,9.9,0.3,14.9,1
		c1.9,0.3,3.8,0.6,5.3,1.9c0.5,0.4,0.9,1,0.8,1.7c0,0.7-0.5,1.1-1.1,1.4c-6.1-0.8-12.1-1.3-18.3-1.4c-1.9,0-3.8,0-5.2-1.9
		c-1,1.6-1.8,3-2,4.8c10.3,0.2,19.6,3.4,28.8,7.3c0.5,0.2,0.8,0.6,0.8,1.2c-0.1,0.6-0.5,0.9-1,1c-1,0.2-2-0.1-3-0.3
		c-5.6-1.4-11.1-2.8-16.7-4.1c-4.2-1-6.9-0.9-10.8,0.2c-0.9,1.7-1.1,3.7-1.5,5.7c-0.1,0.6-0.3,1.2-0.5,1.8c-0.3,0.7-0.9,0.7-2.3,0
		c0.3-4.9,1.3-9.7,3.3-14.3c1.2-2.7,2.4-5.4,3.8-7.9c1.1-2,1.7-4.1,1.4-6.2c-0.5-4.3,0-8.7,0-13c0-4,0-7.9,0.1-11.9
		c0-1.9-0.1-3.9,1.5-5.4c0.7-3.5,3.4-6,4.5-9.2c0.3-0.8,0.9-1.6,1.6-2.1c3.9-3.2,8.4-5.3,13.4-6.1c0.2,0,0.5,0,1,0.1
		c2.4,1.9,5.4,2.9,8.4,3.8c2.8,0.8,5.5,2.1,7.9,3.7c1.9,1.3,3.8,2.5,5.8,3.8c1.6,1.1,3,2.4,4.1,4c4.5,6.1,8.3,12.6,10.8,19.7
		c0.5,1.4,0.9,2.9,1.9,4.1c2.9,3.4,3.6,7.5,3.4,11.8c-0.3,5-1.1,9.9-2.4,14.7c-0.3,1.2-0.6,2.5-1,3.9c0.9,3.8,0.6,7.7-0.4,11.6
		c-0.4,1.5-0.5,3-0.4,4.4c-0.5,1.4-1.5,2.3-1.5,3.7c0.3,0.8,1,1,1.7,1.3c4.5,1.9,8.8,4.1,13,6.5c7.1,3.9,14.5,6.7,22,9.6
		c1.8,0.7,3.6,1.3,5.3,2.1c4.8,2.1,9.7,3.8,14.8,5.1c6.4,1.7,12.6,4.2,18.7,6.8c1.1,0.5,2.1,1.3,3.6,0.8c0.6-0.2,1.5,0.3,2.2,0.5
		c6.4,2.6,12.7,5.3,18.5,9c3.9,2.5,7.8,4.9,12,6.6c0.1,0,0.2,0.1,0.3,0.2c7.9,4.5,16.3,7.9,24.4,11.8c2.9,1.4,5.9,2.3,9.1,2.8
		c2.8,0.4,5.5,1.2,8.1,2.2c11.6,4.2,23.5,7.5,35.7,10c2.5,0.5,5.1,0.3,7.6,0.3c1.8,0,3.6-0.1,5.3,0.2c2.5,0.4,5.1,0.5,7.6,0.4
		c2.9,0,5.9-0.2,8.8-0.3c0.1,0,0.2-0.1,0.3-0.2c0.5-0.4,0.4-0.9,0.4-1.4c-0.3-3.3-0.5-6.6-0.8-9.9c-0.1-0.8,0.2-1.5,1-2.1
		c0.4-0.3,1-0.3,1.7-0.2c2.4,0.2,4.8,0.4,7.3,0.4c4.8,0,9.3,1.5,13.9,2.4c0.1,0,0.3,0,0.4,0.1c4,2.6,8.8,2.3,13.2,3.1
		c5.9,1.1,11.7,0.3,17.3-1.4c1.9-0.6,3.9-1.2,5.9-1.3c1.1-0.1,2.2-0.7,3.2-1.2c2.6-1.3,5.3-2.6,7.9-3.9c5.4-2.8,11.1-4.5,17.1-5.3
		c4.5-0.6,7.8-2.9,10.6-6.2c2.5-3,2.6-3.1,6.5-5.1c5.9,1.3,12.8,5.4,16.2,9.7c0,0.6-0.3,1.5,0.1,2.1c1,1.6,0.6,3.1,0.3,4.8
		c-0.8,3.4-2.3,6.5-3.7,9.6c-0.6,1.4-1.6,2.6-1.5,4.2c0,0.8-0.7,1.6-1.1,2.4c-4,6.7-8.4,13.1-12.9,19.4c-0.7,0.9-1.3,1.9-2.1,2.7
		c-5.6,6.3-11.2,12.6-17.9,17.8c-2,1.6-4,3.2-5.8,5c-3.7,3.7-8,6.3-12.6,8.5c-2.1,1-4.3,1.6-6.5,1.8c-0.7,0.8-1.2,1.5-1.9,2.1
		c-1.3,1.2-2.3,2.7-2.9,4.4c-1.9,4.9-4.8,8.9-9,12.1c-0.9,0.7-1.7,1.6-2.4,2.4c-4.4,5-9.2,9.5-14.8,13.2
		c-6.8,4.6-13.8,8.7-20.9,12.8c-1.4,0.8-2.9,1.5-4.2,2.7c-0.4,0.3-0.9,0.5-1.3,0.7c-2.4,1-3.9,0.4-5-1.8c-0.5-1.1-0.9-2.4-1.3-3.6
		c-1.2-4.7-3.7-8.6-6.9-12.2c-0.2-0.2-0.4-0.3-0.6-0.5c-3.5-5-7-10-8.8-16c-0.7-2.4-1.8-4.5-3.3-6.4c-1.7-2.1-3.3-4.2-4.9-6.4
		c-1.2-1.6-2.3-3.4-2.5-5.5c0-0.3,0-0.6-0.1-0.8c-2.1-3.3-1.4-6.9-1.2-10.4c0.7-0.9,1.8-0.9,2.6-1.1c0.3-0.3,0.2-0.4-0.1-0.5
		c-7.5-1.4-14.8-3.8-22.1-6c-3.7-1.1-7.5-1.3-11.3-1.6c-9.8-0.7-19.6-1-29.4-1.7c-7.1-0.5-14.2-1.2-21.3-1.9
		c-1.3-0.1-2.5-0.2-3.8-0.3c-3.4-0.2-6.9-0.4-10.3-0.6c-0.8,0-1.5-0.1-2.3,0c-4.1,0.7-8.1,0.6-12.2,0.4c-2.8-0.2-5.6-0.1-8.4,0.5
		c-3,0.6-6.1,0.6-9.1,0.1c-7.1-1.1-14-2.7-20.9-4.5c-4.7-1.2-9.1-3.1-13.3-5.8c-0.6-0.4-1.4-0.7-2-1l-0.2-0.1c0.1,0,0.2,0,0.3,0.1
		c0.7,3,0.3,5.9-1.2,8.6c-0.2,0.4-0.3,0.9-0.4,1.4c-1.9,1.5-3.8,0.7-5.6,0c-1.1,0.9-1.2,2.2-1.8,3.1s-1,1.9-3.2,2.3
		c1.5-2.4,1-4.8,2.4-6.4c-0.3-1.4-0.8-2.5-0.8-3.6c-0.2-3.1,0.5-5.8,3.4-7.6c0.7-0.4,1.7-0.7,1.9-1.9c-1.8-1.6-3.3-3.8-5.6-5
		c-1.7,0.1-3.4-0.1-5,0.3c-4.4,1.3-9,1.5-13.5,2.5c-0.7,0.2-1.6,0.2-2.3,0.1c-3.3-0.7-6.6-0.6-9.9-0.6c-0.5,0-1-0.1-1.1-0.8
		c0.1-1.1,1.3-0.7,1.8-1.4c-1-3.2-0.2-6.2,2-8.8c0.6-0.7,1.2-1.3,1.9-1.8c2.2-1.8,4.4-3.5,6.5-5.3c0.9-0.7,1.7-1.5,2.5-2.3
		c1.7-1.9,2.4-4.2,1.8-6.7c-0.3-1.1-0.6-2.2-0.9-3.4c-0.9-0.5-1.5-1.4-2.7-1.6c-0.3,0.1-0.8,0.3-1.2,0.6c-3.3,2.6-6.9,4.8-9.2,8.5
		c-0.5,0.9-1.2,1.6-1.9,2.4c-2.5,2.6-5,5.1-8,7.1c-0.3-0.1-0.7-0.1-1.1-0.2c0.4-1.7,1.3-2.9,2.5-4.1c2.7-2.5,5.5-4.9,7.4-8.2
		c0.3-0.5,0.8-1,1.3-1.4c2.1-1.8,4.2-3.7,6.4-5.4c1.5-1.2,3.1-2.1,5-2.2c1.3,0.7,2,1.8,3.2,2.4c1.1,0.5,1.8,1.7,1.8,2.8
		c0,2.1,0.5,4.3,0.1,6.4c-0.6,2.7-2,4.9-4.1,6.7c-1.4,1.1-2.8,2.1-4.2,3.3c-1.5,1.2-3,2.4-4.2,3.8c-1.9,2.2-2.6,4.9-2.5,7.8
		c3.7,0.5,15.2-1.1,23.9-3.3c0.1-0.5,0.1-1,0.2-1.5l0.3-0.2c1.4-0.2,2.5,0.5,3.5,1.2c2.4,1.8,4.7,3.5,7,5.3c2.6,2.1,5.4,3.8,8.4,5.2
		c4,1.8,8,3.2,12.1,4.7c6.7,2.4,13.5,3.6,20.6,3.6c1.5,0,3,0.3,4.6,0.4c2.7,0.3,5.3,0.8,8,0.8c4.6,0,9.2,0.4,13.8-0.2
		c0.9-0.1,1.8,0.1,2.7,0.1c6.2,0.3,12.5,0.8,18.7,0.9c5.7,0.1,11.5-0.1,17.2,0.4c2.3,0.2,4.6,0.4,6.9,0.4c6.9,0.2,13.7,0.9,20.5,2
		c0.9,0.1,1.8,0.2,2.7,0.2c2.3,0.1,4.6,0.5,6.8,1c8.2,1.8,16.3,3.9,24.5,6c3.2,0.8,6.4,1.8,9.2,3.6c0.2,0.1,0.5,0.1,0.7,0.2
		c3-0.5,6.1-0.7,9.1-0.7c5.6,0,6-0.2,10.1-4.2c0.4-0.4,0.7-0.7,1.1-1.1c1.1-1,1.7-2.2,2-3.6c0.8-3.5,1.7-6.9,2.6-10.4
		c0.5-2,0.8-4,0.7-6c0-0.8-0.1-1.6,0.1-2.3c0.9-3.5-0.3-6.8-0.4-10.1c-2.7,0.3-5.2,0.8-7.7,1c-6.5,0.5-13-0.4-19.5-0.9
		c-3.3-0.2-6.6-0.9-9.8-1.5c-2-0.4-4-0.7-6-1.3c-1.7-0.6-3.4-1.1-5.1-1.5c-7-1.7-14.1-3.5-21.1-5.2c-1.9-0.4-3.7-1-5.4-1.8
		c-4.7-2.1-9.4-3.9-14.3-5.4c-1.2-0.4-2.4-0.9-3.5-1.4c-6.3-3.3-12.7-6.6-18.9-10c-5.3-2.9-10.6-5.5-16.1-7.9
		c-12.8-5.5-25.6-10.6-38.9-14.7c-3.5-1.1-7-2.3-10.4-3.9c-6.9-3.3-14.2-5.7-20.9-9.6c-1.4,0.6-2.6,0-3.9-0.7
		c-5.2-2.8-10.3-5.5-15.5-8.3c-2.2-1.2-4.4-2-6.8-2.3c-2.9-0.5-5.8-1.1-8.6-1.9c-3.7-1-7.4-1.8-11.1-2.3c-3.7,1.5-7.5,2.2-11.3,2.6
		c-3.2,0.4-6,1.5-8.6,3s-5.3,3.2-6.2,6.4c-0.1,0.4-0.4,0.6-0.6,1c-5.1,7.3-8.8,15.2-11.8,23.5c-0.8,2.2-2,4.4-1.3,7
		c0.1,0.5-0.2,1.2-0.4,1.8c-0.2,1-0.6,2-0.7,3c-0.2,3.8-0.9,7.6-1.7,11.3c-1.3,6.4-1.4,12.9-2.3,19.4c-0.2,1.6-0.4,3.3-0.5,4.9
		c-0.5,8-1,16-1.5,24c0,0.7,0,1.5,0.2,2.3c0.5,2.3,0.3,4.5-0.1,6.8c-0.4,2.1-0.7,4.3-0.9,6.4c-0.1,0.6-0.4,1.5,0.6,2.1
		c2.8-2,6.1-3.6,7.9-6.9c0.3-0.5,0.8-0.9,1.3-1.4c0.8-0.9,1.4-1.8,1.9-2.8c1.9-3.8,3.9-7.5,5.8-11.2c0.5-0.9,1-1.8,1.7-2.5
		c1.7-1.8,3-3.8,4.4-5.8c1.8-2.5,3.7-4.8,5.7-7.1c2.2-2.6,4.4-5.3,6.2-8.2c1.3-2.2,3.2-3.6,5.7-4c0.1,0.6,0.1,1.3-0.5,1.7
		c-2.1,1.7-3.4,4.1-4.9,6.3c-0.7,1.1-1.4,2.2-2.3,3c-3.2,3-5.4,6.7-7.6,10.5c-0.8,1.4-1.7,2.8-2.8,4.1c-2.5,2.9-4.7,6-5.8,9.7
		c-0.1,0.4-0.3,0.7-0.6,1c-2.7,2.6-3.9,6.2-6.3,9c0.4,0.5,0.7,0.9,1,1.4c-0.5,0.7-1.1,1.4-1.7,2.2c-1.6-0.6-2.9,0.2-4.1,1.2
		c-4.4,3.3-8.8,6.5-12.9,10.1c-5.2,4.6-10.5,8.9-16.4,12.5c-0.3,0.2-0.7,0.4-0.7,0.8c0,0.1,0,0.3,0.1,0.3c9.2,5.3,18.7,10,27.5,15.9
		c0.3,0.2,0.7,0.3,1,0.5c1.2-0.3,2.1-1,3-1.7c2.8-2,5.6-3.9,8.8-5.4c1.7-0.8,3.3-1.9,4.7-3.2c1.7-1.5,3.6-2.9,5.3-4.3
		c2.7-2.2,5.2-4.5,6.7-7.7c0.2-0.3,0.4-0.7,0.7-0.8c0.3-0.2,0.7-0.1,1-0.2c0.9,0.5,0.5,1.5,1.1,2c1,0.5,2-0.7,3-0.1
		c-0.2,0.3-0.4,0.7-0.6,1c-0.8,1-2.1,1.3-3.3,1.9c1.2,0.6,2.2,0.4,3.2,0.4c3.5,0.1,6.8-0.6,10.3-0.8c1.4-0.1,2.8-0.3,4.1-0.6
		c2.9-0.9,5.9-1.7,8.8-2.5c2.7-0.8,5.3-1.9,8.1-2.2c3.1-0.3,6-1.1,9-1.7c3.2-0.7,6.4-1.1,9.7-0.9c1.3-2,1-3.9-0.1-5.6
		c-1-0.7-2-0.7-3-1c-0.3-0.1-0.6-0.4-1.1-0.6c-0.1-0.9-0.7-1.8-0.2-3.3c0.3-1,1.9-1.1,2.7-1.9c0.5-1.3,0-2.9,1.6-4
		c0.5,2.1,0.1,3.9-0.1,5.7c-0.4,0.9-1.7,0-1.8,1.1c1.2,0.7,1.2,0.7,4.3,0c1-1.9,2.4-3.8,1.8-5.5c-1.1-2.1-2.7-1.8-3-2
		c-1.2-0.9-0.8-1.8-1.9-2.3c-1.2-0.8-1.8,1.3-3.2,1.3c-0.6-0.3-1.3-0.5-2.1-0.9c1-1.4,0.8-3.2,1.9-4.3c1.1,0.3,0.3,1.3,1,1.6
		c0.2-1.6,0.2-3.3,0.5-4.9c0.2-1.3,0.9-2.4,2.9-2.5c-0.2,2.5-1.6,5.2,0.1,7.8c2.3-1.6,3.7-3.6,4.7-5.8c0-1.6-0.6-2.7-1.3-3.7
		c-0.4-0.5-0.5-1.1-0.4-1.8c1.1,0.1,1.9,0.8,2.4,1.7c0.6,1,1.2,2.1,0.9,3.2c-0.8,2.9-1.1,6.1-4.3,7.7c0.5,0.8,1.3,0.7,1.9,1
		c2.3,1.2,3.3,3.1,2.7,5.7c-0.5,2.1-1.3,4.1-2.5,6c-0.3,0.5-0.7,1-1.2,1.7c0.8,2.5,0.5,5-0.7,7.4c0.7,2.4,1.5,4.6,3,6.6
		c1.4,1.9,2.1,4.1,2.8,6.3c0.6,1.9,1.3,3.9,1.9,5.8c0.4,1.5,0.9,2.9,1.2,4.4c1.9,9.1,3.8,18.2,5.7,27.3c0.3,1.6,0.5,3.3,1.7,4.6
		c0.4,0.4,0.5,1.2,0.6,1.8c2.9,12,5.7,24.1,8.5,36.1c1.1,4.5,1.5,9,2.1,13.6c0.2,1.4,0.1,2.9,1.5,3.9c-0.6,1.3-0.8,2.7-0.5,4.1
		c0.6,2.6,0.6,5.3,0.7,8c0.1,2.7,0.4,5.4,0.3,8c-0.1,4.2-0.5,8.4-0.7,12.6c-0.1,0.9-0.3,1.8-0.2,2.7c0.6,3.8-0.1,7.6-0.2,11.4
		c0,0.6,0,1.3-0.2,1.9c-1.3,5.6-2.3,11.2-4.1,16.7c-0.9,2.7-1.6,5.4-2.1,8.1c-1.2,6.3-3.7,12.2-6.9,17.7c-1.3,2.3-2.9,4.5-4.3,6.8
		c-5.8,9.1-14,15.4-23.8,19.7c-2.2,1-4.5,1.8-6.7,2.8c-6.9,3-14.2,4.8-21.7,6c-4.3,0.7-8.5,1.5-12.9,1.8c-5.4,0.3-10.7-0.1-16.1-0.1
		c-6.9-0.1-13.7-1.2-20.6-1.7c-7.8-0.6-15.4-2-23-3.8c-1.7-0.4-3.5-0.6-5.3-0.9c-6.5-1.2-13-2.4-19.5-3.5c-0.1,0-0.3,0-0.4-0.1
		c-9.2-2.5-18.7-2.4-28.1-2.2c-11.7,0.2-23.5,0.6-35.2,0.9c-8.9,0.2-17.8,0.5-26.7,1.5c-5.9,0.7-11.9,1.6-17.7,2.7
		c-4,0.7-8.1,0.8-12.2,1.2c-5.1,0.4-10.2,0.8-15.2,1.2c-1,0.1-2,0.1-3.1,0.1c-7.7-0.1-15.3,0.6-22.9,1.1c-2.5,0.2-5,0.3-7.6,0.3
		c-10.2,0.1-20.4,0.3-30.6,0.4c-3.7,0-7.4,0-11.1-0.5c-4.8-0.6-9-2.8-13.2-4.8c-3.4-1.7-6.7-3.6-10.1-5.5c-1.2-0.7-2.4-1.5-3.4-2.5
		c-4.4-4.1-8.7-8.2-13.4-12c-0.5-0.4-0.9-0.9-1.1-1.5c-0.4-1.6-1.6-2.6-2.9-3.4c-1.1-0.8-2.4-1.3-3.5-2.3c-0.5-0.5-1.4-0.7-2.1-0.8
		c-1.3-0.2-2.5-0.3-3.8-0.3c-5.7-0.2-11.5,0.4-17.2,0.7c-2.1,0.1-4,0.7-5.9,1.6c-0.7,0.3-1.4,0.7-1.8,1.4c-1,2.1-2.9,3.1-5.1,4
		c-0.2,1.6-1.5,2.8-2,4.4l-0.1,0.2v-0.2c1.1,0.4,2.3,0.1,3.4-0.1c9.7-1.7,19-0.6,28,3.5c4.4,2,8.6,4.3,12.3,7.5l0.1-0.1
		c-1.7,0.3-2.9-0.8-4.2-1.5c-3.7-2-7.6-3.6-11.6-4.8c-6.7-2-13.5-2.5-20.4-2c-0.8,0-1.5,0.2-2.3,0.4c-0.2,0-0.4,0.3-0.6,0.4
		c0,0.1-0.1,0.3-0.1,0.3c0.2,0.1,0.5,0.2,0.7,0.3c2.1,0.6,4.1,1.2,6.2,1.8c6.2,1.6,12.3,3.2,18.5,4.9c4.3,1.2,8.5,2.8,12.4,5
		c0.7,0.4,1.4,0.6,2.2,0.6l0.2,0.3c-0.1-0.1-0.2-0.1-0.3-0.2c-0.1-0.4-0.2-0.7-0.3-1.4c3.4,0.7,6.3,2.3,9.8,3.1
		c-1.9,0.8-3.5-0.7-5.5,0.2c4.9,1.6,9.6,3.1,14.3,4.7c4.6,1.5,9.4,2.2,14.2,2.8c0.1,0.8,0.2,1.2,0.3,1.8c3.7,0.2,7.3-1.1,11.2-0.4
		c-1,0.8-1.9,1.2-3,1.2c-6.4-0.2-12.6,1.4-18.9,2.5c-5.8,1-11.5,2-17.3,3c-1.4,0.2-2.7,0.6-4.3,0.9c4.2,1.6,13.5,2,21,1
		c0.1-0.9-0.6-0.9-1.2-1.1c-0.7-0.2-1.5-0.3-1.4-1.4c0.6-0.4,1.2-0.3,1.9-0.2c5.6,0.2,11.2,0,16.8-0.6c8.4-0.9,16.7-2.3,24.9-3.7
		c1.2-0.2,2.5-0.6,3.7-0.1c0.2,0.7-0.3,1-0.7,1c-1.8,0.3-3.5,0.4-5.3,0.8c-6.5,1.4-12.9,3-19.3,4.4c-7.7,1.7-15.5,3.1-23.3,4
		c-1.5,0.2-3.1,0.2-4.6,0.1c-4.2-0.3-8.4-0.4-12.5-1.3c-2.1-0.5-4.2-1.1-6.1-2.4c-4.1-0.1-8.3,0-12.5,0.4
		c-5.7,0.5-11.2-0.3-16.7-1.6c-0.5-0.1-0.9-0.4-1.1-0.9c1.4-1.5,1.7-1.7,3.5-1.5c1.3,0.1,2.5,0.5,3.8,0.6c3.1,0.1,6.1,0.3,9.2,0.2
		c4,0,7.9-0.1,11.9-0.4c2.3-0.1,4.5-0.6,6.7-1c-7.4,0-14.8,0-22-2.3c-0.3-0.1-0.5-0.5-0.7-0.8c1.2-0.6,2.3-0.3,3.4-0.1
		c11.5,1.8,23.1,1.5,34.7,0.9c3.4-0.2,6.8-1,10.3-0.6c1.6,0.2,3.3-0.4,5.6-0.7c-8-1.4-15.3-2.6-22.6-4.2c-5.2-1.1-10.4-2.7-15.5-4.2
		c-9.2-2.7-18.6-4.2-28.1-5.3c-4.7-0.5-9.4-0.7-14.1-1.2c-4-0.4-8.1-0.5-12.2,0.4c-1.2,0.3-2.5,0-3.8,0c-2.8-0.1-5.6,0.1-9,1.4
		c1.6,0.1,2.5,0.2,3.4,0.2c3.2,0.2,6.4,0.2,9.5,0.6c2.9,0.4,5.8,0.3,8.8,0.2c2.7-0.1,5.3,0,8,0.2c4.5,0.2,8.9,0.5,13.3,1
		c3.7,0.5,7.4,0.7,11,1.1c1.4,0.1,2.8,0.3,4.1,1c-0.5,0.9-1.4,0.5-2,0.4c-2.4-0.2-4.8-0.6-7.2-0.8c-7.4-0.9-14.7-0.9-22.1-0.6
		c-0.6,0-1.3,0-1.9,0c-7.7-0.3-15.3,0.6-22.9,1.3c-8.8,0.8-17.5,1.8-26.3,2c-0.5,0-1,0-1.4,0c-0.3-1.1,0.4-1.2,0.9-1.4
		c0.3-0.1,0.7-0.2,1.1-0.2c3.4-0.3,6.9-0.5,10.3-0.8c2.7-0.2,5.3-0.6,8-0.8c3.5-0.4,7.1-0.7,11.2-1.1c-7.6-1.4-14.5-1.4-21.5,0
		c-3.6,0.7-7.2,1.5-10.8,2.4c-2.9,0.7-5.8,1.2-8.7,1.1c-2.7,0-5.3,0.4-8,0.9c0.1,1,1,1.1,1.5,1.3c2.1,0.6,4.2,1.1,6.3,1.5
		c1.5,0.3,3,0.5,4.5,0.7c1.4,0.2,2.8,0.2,4.2,0c2.9-0.5,5.8-0.6,8.8-0.6l-0.1-0.1c-0.4,0.9-1.3,0.7-2,0.8c-5.6,0.5-11.1,1.1-16.7,1
		c-0.1,0-0.2,0.1-0.7,0.4c7.2-0.1,14.1,0.4,21-0.3c5.9-0.7,11.9-1.1,17.9-2c9.8-1.5,19.8-2.2,29.7-2.8c8.9-0.6,17.8-0.3,26.8-0.1
		c1.9,0,3.8,0.5,5.7,0.7c6.5,1,13.1,2,19.6,3.2C336.6,622.6,339.3,622.9,341.6,624.3L341.6,624.3z M302.6,608.3
		c0.8,0.6,1.6,0.7,2.4,0.1C304.1,608.4,303.3,608.4,302.6,608.3c-0.2-0.5-0.7-0.6-1.2-0.7c-3.1-0.8-6.2-1.6-9.3-2.3
		c-2.5-0.6-4.8-1.6-7.2-2.5c-0.9-0.3-1-1.3-1.5-1.9c-4,0.3-7.5,1.5-9.2,5.6c0.7,0.8,1.6,0.4,2.5,0.5c5.1,0,10.2-0.1,15.3,0.5
		C295.4,607.8,299,608.5,302.6,608.3z M359.1,510.2c1.5,0.5,3,0.1,4.5-0.2c3-0.6,6-1.3,9-1.9c5.1-0.9,10.2-2,15.2-3.6
		c3.6-1.1,7.3-2.1,11.2-3.1c0.6-1.4,2-2,3.5-2.4c2-0.5,3.8-1.4,5.7-2.2c9-3.6,17.7-7.8,26.8-11c9.8-3.5,19.6-7.1,29.5-10.6
		c0.7-0.2,1.6-0.3,1.7-1.4c-4.1-6.2-9.6-11.1-16.1-14.8c-1.3-0.8-2.6-1.4-4.3-1.2c-0.8,0.1-1.7-0.3-2.6-0.5c-4.1-1-8.2-1.4-12.5-0.6
		c-5.2,1-10.2,2.4-14.6,5.4c-2,1.4-4.1,2.6-6.1,3.9c-4.5,2.9-8.9,6-13,9.4c-0.8,0.7-1.5,1.4-2,2.2c-2.7,4-5.9,7.7-9,11.4
		c-3.9,4.8-8.6,8.7-13.6,12.2C368.1,504.3,363.7,507.3,359.1,510.2v0.3C359.1,510.4,359.1,510.3,359.1,510.2z M266.5,595.4
		c0.9-0.1,1.5,0.4,1.5,1.3c0.1,1.1-0.5,2-1,2.9c-1.1,1.9-2.6,3.5-4,5.1c-1,1.1-2,2.2-3.4,3.7c5.3,0,9.5-1.4,12.6-4.7
		c1.3-6.4,4.2-11.6,9-15.5c1.5-1.2,2.9-2.5,4.3-3.7c1-0.3,2.1-0.4,3-0.7c6.1-2,12.4-2.9,18.8-3c3.1-0.1,6.1,0.1,9.2,0.1
		c0.7,0,1.5,0.2,2.1-0.5c0.3-0.8,0.3-1.5-0.5-2c-1.8-0.1-3.8,0.8-5.6-0.8c1.7-2.2,3.9,0.3,5.7-0.8c0.6-1.5,0.6-3.2,0.5-4.8
		c-0.2-5.6,0.4-11.2,1.3-16.8c0.4-2.7,1.5-5.1,3.5-7c0.5-0.4,1-0.9,1.2-1.4c0.9-2.2,2.6-3.7,4.2-5.2c2.5-6.8,5.4-13.1,9.1-19.1
		c0.2-0.3,0.2-0.7-0.1-1c-3.7-0.3-7.4-0.8-11-0.8c-6.4,0-12.7-0.8-19.1-1.2c-2-0.1-4.1-0.3-6.1-0.4c-1.5-0.1-2.5-0.7-3.6-1.8
		c-2.6-2.7-3.1-6.1-3-9.6c0-1.7,0.1-3.3-0.2-4.9c-0.6-3.4-1.2-6.8-1.6-10.2c-0.3-2-1.2-3.6-2.6-4.7c-3.2-0.2-6.2-0.4-9.1,1.1
		c-2,1-4.3,0.8-6.2-0.5c-1.2-0.8-2.6-0.9-4-1.3c-1.9-0.5-3.5,0-4.6,1.3c-0.2,0.4-0.2,0.5-0.2,0.6c-0.1,1.5,0.2,2.8,1.5,3.7
		c1.2,1,1.3,2.4,1.4,3.8c0,0.8-0.3,1.5-1.2,1.9c-1.6,0.1-2.7-0.9-2.9-2.4c-0.2-2.1-1.3-3.9-1.7-5.8c-0.4-1.8-1.3-3.3-3.3-3.9
		c-2.6,0.5-5,1.7-7.4,2.6c0.1,4.2-0.6,5.5-3,5.3c-0.4-1,0.7-1.9-0.1-3.5c-1.3-1.8-2-4.6-2.9-7.2c-0.6-1.7-1.3-3.3-2.4-4.8
		c-0.5-0.6-1.1-1-2.3-0.7c-1.2,2.5-3.4,4.4-5.6,6.4c-3.7,3.3-7.5,6.5-11.8,9.1c-4.6,2.8-9.6,4.2-15,2.1c-0.8-0.3-1.7-0.6-2.8-0.5
		c-0.9,0.5-2.1,1.1-3.1,1.8c-1.3,0.9-2.6,1.6-4.1,1.9c-9.1,2.3-17.4,6.4-25.5,11.2c-0.2,0.1-0.3,0.4-0.5,0.6
		c0.2,0.7,0.4,1.4,0.6,2.1c-1,1.1-1.9,2.1-2.8,3.1c0.2,1.3,2.5,1.2,1.8,3.3c-3.8,2.4-5.9,6.5-7.8,10.7c-2.9,6.5-4.7,13.2-5.4,20.2
		c-0.5,4.8-0.9,9.7,0.9,14.4c0.1,0.1-0.2,0.4-0.4,0.7c-1.1-0.7-1.1-2-1.4-3s-0.3-2-0.7-3c-1.1-2.9-1.2-6-1.2-9.1
		c0-4.9,1-9.6,2.2-14.3c0.3-1.2,1-2.4,0.8-3.7c-0.9,0-1.1,0.6-1.4,1.2c-1.2,2.5-2.4,5.1-3.6,7.6c-0.2,0.5-0.5,1.2-1.4,0.8
		c-0.1-0.3-0.2-0.5-0.1-0.7c1.1-3.7,2.3-7.3,4.1-10.7c1.3-2.3,2.7-4.6,4-7c0.2-0.3,0.7-0.8-0.1-1.3c-0.3,0.3-0.7,0.6-1.1,1
		c-4.7,5.1-7.1,11.1-7.9,17.9c-0.2,1.6-0.8,3.2-0.4,4.9c0.4,1.8,0.3,3.5,0.3,5.3c0,3.5,0.3,6.9,1.3,10.2c0.9,3.3,1.9,6.6,3.4,9.7
		c3.3,6.7,5.3,13.8,8.8,20.3c0.1,0.2,0.3,0.5,0.3,0.7c0.3,3.2,2.3,5.6,3.8,8.2c1.3,2.2,2.8,4.3,5.3,5.3c1.3,4,4.4,6.2,7.8,8.1
		c0.4,0.2,0.9,0.5,1.2-0.3c-0.8-1.2-1.6-2.5-2.4-3.8c-4.1-6.6-7.7-13.5-11.3-20.4c-1.4-2.7-2.9-5.4-3.9-8.3
		c-0.1-0.4-0.5-0.9,0.2-1.4c7,11.6,13.2,23.6,20.9,34.7c0.1,0.2,0.1,0.5,0.1,0.7c-0.5,0.8-1.4,0.1-2,0.7c0.3,0.7,0.9,0.9,1.5,0.8
		c2.5-0.5,5.1-0.4,7.6-0.6c0.6,0,1.3-0.1,1.7-1c-0.4-2.5-0.9-5.3-1.5-8.7c1.6,3,2,5.9,3.5,8.1c3.2-0.6,5.6-1.6,8.4-3.4
		c0.4-1.4,0.7-3,1.2-4.6c0.4-1.2,0.3-2.6,1.5-3.4l-0.1-0.1c0,2.4,0,4.8,0,7.1c1.6,0.4,2.5-0.8,3.6-1.2c2.3,0.5,4.3-0.3,6.3-1.1
		c0.5-1.3,1.1-2.6,1.6-3.9c1.4-3.6,2.7-7.1,4.1-10.7c0.3-0.7,0.5-1.6,1.6-2.1c-0.3,1.7-0.5,3-0.8,4.4c-0.3,1.2-0.7,2.4-1.1,3.7
		s-0.8,2.7-1.2,4c-0.4,1.3-1.2,2.5-1,3.9c2,0.5,3.2-0.1,3.9-1.7c2.4-5,4.8-10.1,5.4-15.8c0.1-0.6,0.1-1.3,1.2-1.3
		c-0.1,1.5-0.1,3-0.2,4.5s-0.2,3.1-0.4,4.6c-0.2,1.5-0.5,3-0.8,4.5c-0.2,1.5-1,2.8-0.9,4.3c1.2,0.6,1.6-0.2,2-0.7
		c2.6-3.6,5.2-7.2,6.8-11.4c0.5-1.3,1.1-2.6,1.7-3.9c0.2-0.4,0.5-0.9,1.2-0.7c0.1,0.1,0.2,0.2,0.2,0.3c0.1,0.1,0.2,0.2,0.1,0.3
		c-1.6,5.6-4,10.9-6.4,16.5c2.9,0.2,5.6,0.6,8.1-0.6c2,1.4,2.2,1.4,3.6-0.9c-0.3-0.6-0.8-0.5-1.3-0.6c0.6-1.3,1.9-2,2.9-2.9
		c2.8-2.4,5.5-4.9,7.9-7.7c2.3-2.5,4.6-5.1,6.9-7.6c0.3-0.4,0.7-0.7,1.3-0.5c0.3,1.3,0.3,1.3,0,1.6c-2.2,3.4-4.8,6.6-7.8,9.3
		c-3.3,3-5.8,6.6-8.2,10.4c2.7,1.2,2.7,1.2,5.7,1c2.1-1.9,4-4.1,5.9-6.3c1.6-2,3.1-4,3.7-6.6L266.5,595.4z M398.4,588.6
		c1-2.4,2.6-4.2,4.5-5.8c2.8-2.4,5.7-4.7,8.5-7.2c7.3-6.6,15.5-12,24-17c2.7-1.6,5.5-3.3,8.2-4.9c2.8-1.7,5.7-3.1,8.2-5.3
		c2.2-2,5.1-3.3,7.8-4.7c3.7-2,7.4-4,10.9-6.4c4-2.7,8.1-5.4,12.4-7.6c9.4-4.9,18.2-10.8,27.1-16.5c2-1.3,3.6-2.8,5-4.6
		c0.1-0.7-0.5-1.3-0.1-1.8c0.7-1.2,1.8-1.9,2.9-2.5c2.6-1.5,5.1-3.3,7.5-5.3c3.3-2.7,6.1-6.1,10.3-7.6c0.3-0.1,0.6-0.5,0.9-0.7
		c4.8-3.7,9.5-7.5,15-10.9c-3.5-3.6-7-7-10.6-10.1c-3.7-3.3-6.8-7.2-10.4-10.5c-2,1.3-3.1,2.9-3.7,5c-0.4,1.6-1.1,3.1-2.1,4.5
		c-2,2.9-4,5.9-6.1,8.8c-0.7,1.1-1.6,1.9-2.9,2c-0.5-0.2-0.8-0.4-0.9-1c1.1-1.6,3.3-2.6,3.7-5.2c-1.1-1.1-1.3-2.6-0.6-4.1
		c1.6-3.4,3.4-6.6,6.7-8.6c1.6-0.9,2.7-2.2,4.1-3.4c-2.8-3.4-5.4-6.6-8.1-9.8c-0.2-0.3-0.6-0.3-1-0.5c-3.2,2.2-5.5,5.3-8.2,8
		c-1.6,1.6-3.2,3.3-5.1,4.6c-2.3,1.5-4.7,3.1-7.1,4.6c-2.4,1.4-4.8,3-7.4,4c-4.8,1.8-9.5,3.7-14.1,5.8c-0.7,0.3-1.4,0.7-2.1,0.9
		c-2.6,0.6-5,1.9-7.4,3c-2.8,1.3-5.6,2.5-8.3,4c-2.5,1.3-5.1,2.4-7.7,3.4c-10.6,3.9-21.3,7.9-31.9,11.8c-1.4,0.5-2.8,1.1-4.1,2
		c-4.4,2.9-9.4,4.5-14.5,5.7s-10.1,2.5-15.2,3.8c-2.1,0.6-4.2,1.1-6.3,1.5c-5.2,1-10.6,1.5-15.6,3.6c-0.2,0.1-0.5,0-0.9,0
		c-0.5-0.4-1-0.9-1.6-1.5c-1.1,0.2-2.3,0.4-3.4,0.7c-5.7,1.8-10.8,4.5-14.2,9.7c-1.5,2.4-3.1,4.7-4.4,7.2
		c-2.9,5.7-5.7,11.4-8.5,17.1c-0.6,1.1-1.2,2.3-2.1,3.2c-0.6,0.7-1.7,0.9-2.7,1.5c-0.6,3.3-1,6.6-0.9,9.9c0.1,3.1,0.4,6.1,0.6,9.2
		c0.3,3.2,0.8,6.3,1.6,9.4c1,4.4,2.6,8.5,4.2,12.7c0.6,1.8,1.6,3.1,3.1,4.3c2.1,1.7,4.2,3.4,6.1,5.2c1.5,1.4,3.1,2.6,4.9,3.6
		c5.1,3,10.5,5.1,15.9,7.6c1.3,0.6,2.7,0.7,4.1,0.9c1.4,0.1,2.8,0.4,4.2,0.5c0.4,0,0.5,0.1,0.4,0.4c-0.3,0.2-0.6,0.4-1.3,1
		c4.2,0.1,8-0.4,11.8-0.1c3.8,0.3,7.6,0,11.5-0.1c3.8-0.1,7.6-0.4,11.5-0.5c3.8-0.1,7.6,0.1,11.3-0.3c0.5-0.7,0.9-1.3,1.2-1.8
		c2.6-5.1,5.2-10.2,7.7-15.4c1-2.1,1.7-4.3,2.1-6.5c0.4-2.1,0.7-4.3,1.1-6.4c0.9-4.7,0.4-9.4-0.7-14c-0.2-0.7-0.2-1.5-1.3-2
		c-1.2,0.8-2.7,1.6-3.9,2.6c-5,4-10,8-14.9,12c-1.9,1.5-3.6,3.3-5.4,4.9c-0.5,0.4-1,0.8-1.5,1.1C399.4,589.6,399,589.4,398.4,588.6z
		 M488.7,607.5c1-0.1,1.6,0,2.2-0.2c1.4-0.3,2.7-0.7,4.1-1c3.2-0.7,6.5-1.4,9.8-0.4c0.9,0.3,2,0.1,3,0.1c11.1,0,22.2-0.1,33.3,0
		c3.7,0,7.4,0.2,11.1,0.5c1.9,0.2,3.8,0.3,5.7-0.2c1.1-0.3,2.3-0.3,3.4-0.2c3.3,0.3,6.6,0.5,9.9,1c6.5,1.1,13,2.4,19.5,3.5
		c6.5,1.2,13,2.4,19.4,4.1c2.6,0.7,5.3,0.8,7.9,1.1c0.2,0,0.3-0.2,0.4-0.3c-2.1-4.8-4.4-9.5-6.3-14.4c-2.1-5.5-4.3-10.9-6.9-16.2
		c-0.9-1.8-1.7-3.7-2.5-5.6c-1-2.5-2-5-2.7-7.6c-1.1-4.4-2-9-3-13.4c-1.6-7.5-1.9-15.2-3-22.7c-0.6-4.2-1.1-8.3-1.8-12.5
		c-0.4-2.6-0.5-2.6,0.1-4.9c-2.7-1.9-4.8-4.7-7.7-6.4c-4.9,0.8-6.8,1.4-10.7,3.5c-0.9,0.5-1.8,1-2.7,1.4c-0.4,0.2-0.9,0.5-1.4-0.2
		c3.1-3.8,7.5-5.4,12.2-6.6c-1.6-2.3-14.6-14.8-19.2-18.4c-1.6,0.3-3.4,0.5-5.1,0.8c-6.3,1-12.5,2.3-18.8,1.3
		c-0.6,0.3-1.1,0.5-1.5,0.8c-3.8,2.7-7.7,5.4-12,7.5c-1.1,0.6-2.2,1.3-3.2,2c-1.3,0.9-2.7,1.6-3.6,2.7c-2,2.5-4.3,4.7-6.3,7.2
		c-3.5,4.3-7.5,8-12.1,11.1c-1.6,1.1-3.1,2.2-4.7,3.3c0.1,1.6,0.3,3.2,0.2,4.7c-0.8,10.4-0.1,20.9-1.3,31.3c-0.4,3.5-0.6,7.1-1,10.7
		c-0.6,5.3-1.3,10.6-2.1,15.9c-0.8,5-1,10.2-2.8,15C488.7,606.2,488.8,606.6,488.7,607.5z M940.6,327.3c-1-0.8-1.1-1.9-1.3-3.1
		c-0.6-2.9-0.5-5.8-0.7-8.8c-0.1-1,0.1-2.1-0.7-2.9c-7.2-1.6-15.8-2.4-19.4-1.6c0,2,0.4,4-0.2,5.8c1,2.1,1.7,4.2,1.9,6.3
		c0.3,3.7,1.2,7.3,0.2,11c-0.2,0.7-0.2,1.5-0.2,2.3c0,2.8-0.7,5.6-1.5,8.2c-0.4,1.2-0.9,2.4-1.2,3.6c-0.7,3.8-2.7,6.9-4.7,9.9
		c-2.3,3.5-5.4,5.5-9.9,5.4c-5.5-0.1-10.9,0.4-16.4,0.7c-0.5,0-1,0.2-1.5,0.3c-0.7,3-0.6,5.9-0.6,8.6c0.8,1.9,1.9,3.5,3.2,4.9
		c2,2.2,3.8,4.5,5.7,6.7c1.9,2.1,3.2,4.6,3.8,7.4c0.5,2.3,1.5,4.3,2.8,6.3c1.2,1.8,2.3,3.7,3.1,5.7c0.4,1.2,1.2,2.2,2.2,3.1
		c4.3,3.8,7.2,8.5,8.6,14.1c0.3,1,0.6,2,0.8,3c0.5,0.2,0.9,0.5,1.5,0.8c1.1-1.7,2.8-2.5,4.5-3.5c6.7-3.9,13.5-7.7,19.7-12.4
		c1.8-1.4,3.8-2.6,5.6-4c2.1-1.5,4-3.2,5.6-5.2c2.7-3.4,5.6-6.6,9.2-9.1c0.5-0.4,1-0.8,1.4-1.1c0.2-2.7,1.5-4.6,3.1-6.3
		c1.9-2.2,4.1-4.2,6-6.5c1.6-1.9,3.6-3,6-3.9c4.7-1.7,9.1-4,12.8-7.5c1.5-1.5,3.1-3,4.8-4.4c4.8-4,9.3-8.4,13.6-12.8
		c6.7-6.9,12.3-14.6,16.7-23.2c2-3.8,4.1-7.6,6.3-11.3c1.1-1.8,2.1-3.8,3.1-5.7c1.1-2.3,1.2-4.7,0.6-7.1c-0.5-1.9-1.5-3.4-3.3-4.4
		c-3-1.6-5.9-3.6-8.8-5.3c-0.2-0.1-0.5-0.1-0.7-0.2c-1,0.3-1.8,0.9-2.7,1.7c-0.3,1-0.8,2.3-1.7,3.2c-3.6,3.5-7.5,6.5-12.8,7
		c-3.9,0.4-7.7,1.6-11.5,2.9c-1.4,0.5-2.9,1-4.1,2c-0.1,1,0.7,1.6,1.1,2.4c0.5,0.9,0.9,1.9,0.9,2.9c0,0.8,0,1.6-0.9,1.9
		c-3-0.4-3.8-3.4-5.7-5.3c-1.2,0.5-2.2,0.9-3.2,1.5c-1.1,0.6-2.5,0.7-3.2,1.9c1.1,3.4,1.1,3.4,0.3,5.5c-0.3,0.1-0.7,0.2-1.1,0.2
		c-0.7-0.1-1.1-0.5-1.6-1c-1-1-1.3-2.5-2.6-3.4c-1.3,0.5-2.7,0.4-4.1,0.5c-0.7,0.1-1.6,0-2.1,1.1c-0.1,2,1.7,4.5-0.6,6.8
		c-3.1-0.9-2.8-4.2-4.1-6.4c-3,0.3-6-0.9-9.2-0.3c0.5,1.8,0.8,3.4,1.2,5c0.4,1.4,0.5,2.8,0.3,4.2c-0.1,1-0.6,1.7-2,1.9
		c-1.5-0.6-2.6-2-3.1-3.7c-0.4-1.3-0.7-2.7-0.9-4.1c-0.3-1.5-0.6-3-1.1-4.3c-1.6-0.6-3-1.1-4.5-0.9c-0.7,0.8-0.4,1.8-0.4,2.6
		c0,2.7-0.2,5.4-0.7,8C941.7,325.9,941.6,326.8,940.6,327.3z M634,411.3c0.7,1.3,1.7,1.7,2.5,2.2c7.6,4.7,15.1,9.4,22.7,14.1
		c3.1,1.9,6.3,3.9,9.5,5.8c3.3,1.9,6.4,4.2,9.2,6.8c2.1,1.9,4.1,3.9,6.1,5.8c8.5,8.1,17,16.2,25.5,24.3c5.7,5.4,9.8,12.1,15.1,17.8
		c0.7,0.7,1,1.7,1.6,2.5c0.7,0.9,1.2,1.9,2.5,2.4c2.8-0.8,5.7-0.7,8.6-0.4c0.7,0.1,1.5,0.4,2.2-0.6c-0.9-13-3.5-25.8-5.6-38.8
		c-2-1.4-2.6-3.5-3-5.6c-0.5-2.5-1-5-1.8-7.4c-1.6-4.5-2.6-9-3.5-13.7c-0.3-1.8-0.8-3.5-1.3-5.2c-3.1-10.1-5.6-20.4-9.2-30.3
		c-0.8-2.3-1.9-4.4-2.7-6.7c-3.2,0.6-6.2,0.7-9.2,1.5c-3.6,0.9-7.1,2-10.8,2.3c-1.5,0.1-3,0.6-4.3,1.5c-4.5,2.7-9.4,4.6-14.8,4.6
		c-0.8,0-1.5,0.3-2.3,0.4c-4.7,0.3-9.4,0.9-13.7-2c-2.5,3.1-6.1,4.4-9.2,6.5c-0.3,1.4-1.1,2.5-2.3,3.4c-1.4,1-2.6,2.1-4,2.9
		C639.2,407,636.7,409.1,634,411.3z M485.9,607.9c-0.5-1.6-0.3-3,0.2-4.3c0.5-1.4,0.9-2.9,1.1-4.4c1.3-10.5,2.8-21,4-31.5
		c0.6-4.8,0.9-9.6,1.1-14.5c0.2-6.6,0.7-13.2,1.3-19.8c0.1-1.1,0.5-2.2-0.2-3.3c-0.9,0-1.5,0.5-2.1,0.8c-6.2,3.3-12.3,6.7-18.3,10.4
		c-2.7,1.7-5.5,3.3-8.3,4.8c-10.2,5.7-20.7,11.1-30.6,17.2c-1.9,1.2-3.9,2.3-5.9,3.8c1.1,2,1.8,3.9,2.3,6c1.4,6.5,0.6,12.9-0.6,19.3
		c-0.9,5-3.5,9.3-5.9,13.6c-1.3,2.5-2.8,4.9-4.7,6.9c-0.3,0.3-0.8,0.7-0.3,1.3c0.3,0,0.7,0.2,1,0.1c6.8-0.3,13.5-0.3,20.3,0
		c1.3,0.1,2.5,0.2,3.7-0.6c0.8-0.5,1.7-0.4,2.6-0.4c6.6,0.4,13-0.7,19.3-2c2-0.4,4-0.7,6-1.1C476.6,609.7,481.1,609.2,485.9,607.9z
		 M625.5,312.3c-1.5,0.6-1.8,1.5-2.3,2.2c-1.9,3.3-3.9,6.6-5.4,10.1c-2.8,6.4-6.6,12.1-10.7,17.6c-1.9,2.6-4,5.1-6.6,6.8
		c-1.6,1-2.7,2.3-3.6,3.8c-2.5,4.4-5.5,8.2-9.1,11.8c-3.9,3.8-8.4,6.5-13.6,8.1c-0.6,0.2-1.5,0.1-1.8,1.2c2.9,2.1,5.8,4.2,8.6,6.3
		c0.8,0.6,1.8,1.1,2.3,1.9c0.9,1.4,2.2,2.1,3.6,2.7c1.2,0.5,2.5,0.8,3.2,1.9c1,1.5,2.6,1.9,4.1,2.7c1.9,1,3.7,0.8,5.4-0.2
		c0.7-0.4,1.3-0.7,2-1.1c5.3-3.5,10.7-7,16-10.5c0.3-0.2,0.6-0.5,0.9-0.8c0.1-0.7-0.1-1.5,0.7-2.5c1.1-0.8,2.5-1.9,4-3
		c0.1-1.8,0-3.5,0.3-5.3c0.9-6.5,0.7-13,0.1-19.5c-0.3-2.9-0.3-5.9-0.1-8.8c0.2-3.3,0.4-6.6,0.6-9.9c0.1-2.3,0.3-4.6,0.6-6.9
		C625,318.2,625.2,315.4,625.5,312.3z M731.8,497c0,1.4,0.9,2.3,1.5,3.4c2.7,5,5.4,10.1,6.9,15.6c0.4,1.6,0.9,3.2,1.4,5.2
		c0.6-4.6-0.2-8.6-0.3-12.6c-0.1-4.2-0.3-8.3-1.3-12.4c-1.4,0.2-2.7,0.4-3.9,0.5C734.7,496.9,733.3,496.4,731.8,497z M542.4,491.8
		c6.1-0.5,11.8-1.8,17.8-3.1c-2.4-2.4-4.4-4.8-7-6.8c-1.2,1.3-2.3,2.5-3.5,3.6c-1.1,1-2.3,2-3.5,2.9
		C545,489.5,543.4,490,542.4,491.8z M324,553.2c-1.1,0.2-1.2,0.8-1.2,1.4c-0.3,3.7-1.1,7.3-1.1,11c0,4.5,0,8.9,0.1,13.4
		c0,1.5-0.2,3.1,0.3,4.7c1.2,0.9,2.5,1.9,4.3,3.2c-0.9-4.1-1.8-7.6-2.4-11.2c-0.7-3.8-0.6-7.6-0.8-11.4S323.4,556.9,324,553.2z
		 M711.6,338.7c-0.9,2.9-0.2,5.6,0.3,8.2c1,0.8,1.7,1.7,2.9,1.5c1.2-1.4,1.2-2.8,0.8-4.4c-0.5-1.8-0.5-3.5,0.8-4.9
		c-0.3-1-0.7-1.8-1.7-2.3C713.7,337.5,712.7,338.1,711.6,338.7z M235.4,611c3.4,0.6,6.5-0.1,9.6-0.7c0.6-0.1,1.4-0.7,0.9-1.8
		c-3.1,0.2-6.2-0.5-9.4,0.1c-0.3,0.5-0.7,0.9-0.9,1.3C235.4,610.1,235.4,610.4,235.4,611z M219.1,610.8c-3.4-0.6-5.9,1.7-9,1.6
		c-0.1,0.8-1.1,1.2-0.3,2.3c1.9-0.6,4.1-0.3,6.1-0.5C217.9,614,219,613.1,219.1,610.8z M221.6,613.5c2.7-1.7,2.8-1.8,3.2-4
		C222.5,609.8,222.5,609.8,221.6,613.5z M249.7,609.5c0.6,0.4,1.1,0.3,1.7,0C250.8,609.2,250.2,609,249.7,609.5z M207,614.6
		c-1-0.9-1.4-0.1-2.2,0.3C205.7,615.3,206.3,615.3,207,614.6z M328.1,614.8c-0.1,0-0.2-0.1-0.3-0.1c-0.2,0.1-0.2,0.2,0.2,0.2
		L328.1,614.8z M307.9,609.4L307.9,609.4l0.3,0.1L307.9,609.4z"/>
	<path d="M664.5,208.2c-0.9,0.9-1.9,0.6-2.8,0.2c-1.8-0.6-3.6-1.4-5.4-2c-3-1-6.1-1.8-9.3-2.3c-0.9-0.1-1.8-0.4-2.5-0.9
		c-0.4-0.3-0.6-0.8-0.6-1.3c0-0.6,0.4-1,0.8-1.2c0.4-0.2,1-0.3,1.5-0.4c0.8,0,1.5,0,2.3,0.1c4.6,0.7,9,2,13.1,4
		c0.9,0.4,1.8,1,2.6,1.7C664.8,206.6,665,207.4,664.5,208.2z"/>
	<path d="M647.4,195.5c1.1-1.2,2.5-1.3,3.9-1.3c2.5-0.1,5,0.2,7.5,0.8c1.3,0.3,2.4,0.7,2.7,2.2c-0.1,0.9-0.7,1.6-1.4,1.7
		c-3.9,0.4-7.8,0.5-11.4-1.6C648.1,196.9,647.6,196.5,647.4,195.5z"/>
	<path d="M648.7,235.3c0.9-1.2,1.7-1.3,2.7-1c1.5,0.5,2.7,1.4,3.8,2.5c1.2,1.2,2.1,2.5,2.7,4.2c-1.9,0.7-3.4,0.1-4.8-0.8
		C651.2,239,649,238,648.7,235.3z"/>
	<path d="M648.6,192c-0.4-0.7-0.3-1.2,0.1-1.5c2.2-1.3,4.6-2,7.2-1.6c0.4,0,0.7,0.2,1.1,0.4c1,0.5,1.6,1.5,1.5,2.4
		c-0.2,0.9-1.1,1.6-2.3,1.6c-0.5,0-1,0-1.5-0.1C652.6,192.8,650.6,192.4,648.6,192z"/>
	<path d="M232.9,621.3c1.7-1.2,3.6-0.7,5.4-0.5C236.5,621.4,234.7,621.5,232.9,621.3L232.9,621.3z"/>
	<path d="M341.6,624.4c0.2,0.1,0.5,0.1,0.7,0.2C341.9,624.9,341.8,624.4,341.6,624.4L341.6,624.4z"/>
	<path d="M328.7,610.5c-0.6-0.1-1.1-0.2-1.5-0.7l-0.1,0.1C327.6,610.1,328.2,610.1,328.7,610.5L328.7,610.5z"/>
	<path d="M324.8,608.3c0.6,0,1.1,0.3,1.6,0.7l0.1-0.1C325.8,608.9,325.1,609.2,324.8,608.3L324.8,608.3z"/>
	<path d="M327.2,609.8c-0.4-0.2-0.7-0.4-0.7-0.9l-0.1,0.1C326.6,609.3,326.8,609.6,327.2,609.8L327.2,609.8z"/>
	<path d="M328.6,610.6C328.9,610.9,328.7,610.6,328.6,610.6L328.6,610.6z"/>
	<polygon points="330.9,612.1 330.7,612 330.8,612.2 	"/>
	<polygon points="330.8,612.2 331.1,612.3 330.9,612.1 	"/>
	<path d="M637.2,543.2c0.6,1.1,1.7,1.4,2.7,1.9c6.1,3.1,12.2,6.1,18.2,9.2c2,1,4.2,1.7,5.7,3.5l0.1-0.1c-0.9,0.3-1.8,0-2.6-0.3
		c-2.6-1.1-5.2-2.1-7.7-3.4c-8.1-4.1-16.1-8.2-24.1-12.5c-3.8-2-7.5-4.4-11.1-6.7c-1.1-0.7-2.5-1.4-2.9-2.9
		c-0.2-0.8-1.1-1.1-1.8-1.4c-1.4-0.7-2.8-1.3-4.2-1.9c-0.5-0.2-1.2-0.3-1.3-1.1c0.9-0.5,1.4,0.3,2.1,0.6c1.5,0.6,3.2,0.2,4.6,1.3
		c1.3,1,2.8,1.7,4.2,2.6c1.4,0.8,2.8,1.7,4.3,2.5c9.3,5.1,19.1,9.1,29.5,11.3c0.2,0,0.5,0,0.9-0.1c1.2-1.8,0.1-4.2,1.2-6.4
		c0.8,2.3,0.2,4.6,0.6,6.9c5.3,1.8,10.9,2.3,16.3,4.2c-1,0.8-1.9,0.5-2.7,0.3c-3.4-0.5-6.8-1.2-10.2-1.7c-1.6-0.3-3.2-0.7-4.8,0
		c-0.7-0.5-1.3-1.1-2.2-1.3c-4.7-1.1-9.4-2.5-13.9-4.3C637.9,543.2,637.5,543.3,637.2,543.2c-0.2-0.8-1-0.6-1.5-0.7
		c-0.3-0.6-1-0.6-1.5-0.8c-0.3-0.1-0.5-0.3-0.4-0.2c-0.2,0,0.2,0,0.5,0.1c0.2,0.8,0.9,0.7,1.5,0.8
		C635.9,543.3,636.5,543.2,637.2,543.2z"/>
	<path d="M578.2,331.9c-4.6,5.3-10.2,9.1-16.8,11.4c-0.5,0.2-1,0.1-1.5,0.1c-0.2,0-0.4-0.3-0.6-0.4c-0.1-0.6,0.1-1,0.6-1.3
		c1.1-0.6,2.2-1.3,3.3-1.8c4.9-2.2,9.9-4.2,14-7.7C577.4,332,577.9,332.1,578.2,331.9L578.2,331.9z"/>
	<path d="M633.3,573.9c-4.5,3.2-9.7,4.9-14.9,6.3c-1.1,0.3-2.2,0.4-3.3-0.1c-0.5-0.3-0.7-0.7-0.6-1.3c0.3-0.2,0.6-0.4,1-0.5
		c4.6-0.6,9.2-1.7,13.6-3.3C630.3,574.4,631.7,573.7,633.3,573.9L633.3,573.9z"/>
	<path d="M619.5,548.7c-0.7-0.1-1.1-0.6-1.5-1.1c-2.9-3.4-5.4-7.1-7.5-11c-0.2-0.4-0.3-0.7,0-1c0.4-0.3,0.8,0,0.9,0.3
		c2.7,4.1,5.4,8.3,8.1,12.4C619.6,548.4,619.5,548.5,619.5,548.7L619.5,548.7z"/>
	<path d="M643.3,567.8c-0.1-0.7,0.4-1.1,0.9-1.5c1-0.7,2-1.5,3-2.2c0.6-0.4,0.6-1,0.7-1.7l-0.1,0.1c0.6-0.1,1.2-0.1,1.9-0.2
		c0.4,1,1.7,1.4,1.9,2.6l0.1-0.1c-0.7-0.2-1.4-0.4-2.1-0.6c-0.9,0.2-1.5,0.9-2.1,1.5C646.2,566.7,644.9,567.6,643.3,567.8
		L643.3,567.8z"/>
	<path d="M627.2,547.8c-0.8,0.1-1.4-0.5-2-0.9c-2.1-1.5-4.3-2.9-6.2-4.8c0.4-0.4,0.8-0.4,1.1-0.2c2.3,1.7,4.6,3.5,6.8,5.3
		C627.1,547.3,627.1,547.7,627.2,547.8L627.2,547.8z"/>
	<path d="M504.7,318.4c0.2,0.4,0.5,0.6,0.4,0.8c-0.2,1.6-0.5,3.2-0.8,4.8c-1.1-0.2-1.1-0.9-1-1.5
		C503.5,321.1,503.3,319.5,504.7,318.4z"/>
	<path d="M600.3,308.2c0.3,2.1-1.3,3-2.3,4.3c-1.1-0.3-0.9-1-0.6-1.5C598.2,309.9,599,308.8,600.3,308.2L600.3,308.2z"/>
	<path d="M653.7,523.2c0.3,1.8,0.6,3.6,1,6C653.3,526.3,653.3,526.3,653.7,523.2z"/>
	<path d="M592.7,319c-0.2,1.1-0.5,2.1-1.9,2.7C590.9,320.1,591.5,319.3,592.7,319L592.7,319z"/>
	<path d="M640.1,557.1c1.1,0,1.8,0.6,2.3,1.4l0.1-0.1C641.5,558.5,640.7,557.9,640.1,557.1L640.1,557.1z"/>
	<path d="M659.3,569.3c-1-0.2-1.9-0.4-2.2-1.6l-0.1,0.1C658,567.9,659,568.2,659.3,569.3L659.3,569.3z"/>
	<path d="M645.6,560.8c-1-0.2-1.8-0.7-2.3-1.5l-0.1,0.1C644.3,559.4,645.1,559.8,645.6,560.8L645.6,560.8z"/>
	<path d="M647.9,562.4c-1-0.1-1.8-0.6-2.3-1.5l-0.1,0.1C646.7,560.8,647.4,561.4,647.9,562.4L647.9,562.4z"/>
	<path d="M502.9,332c-0.6-0.5-0.5-1-0.2-1.6C503.1,331,503.1,331,502.9,332z"/>
	<path d="M634.1,552.4c-1.1-0.1-1.9-0.5-2.3-1.5l-0.1,0.1C632.8,551,633.6,551.5,634.1,552.4L634.1,552.4z"/>
	<path d="M655.5,567c-1-0.2-1.9-0.5-2.2-1.6l-0.1,0.1C654.3,565.5,655.2,565.9,655.5,567L655.5,567z"/>
	<path d="M631.8,550.9c-1.1,0-1.9-0.5-2.3-1.5l-0.1,0.1C630.5,549.5,631.3,549.9,631.8,550.9L631.8,550.9z"/>
	<path d="M552.3,356.1c1-0.2,1.3,0.2,1.7,0.7C553.2,357.3,553,356.6,552.3,356.1z"/>
	<path d="M627.1,547.9c1.1,0,1.9,0.5,2.3,1.5l0.1-0.1C628.4,549.3,627.6,548.9,627.1,547.9L627.1,547.9z"/>
	<path d="M619.6,548.5c0.8,0.2,1.1,0.9,1.5,1.5l0.1-0.1c-1,0.2-1.5-0.4-1.7-1.3L619.6,548.5z"/>
	<path d="M657.1,567.7c-0.7,0.2-1.3,0-1.6-0.7l-0.1,0.1C656.1,566.9,656.7,567,657.1,567.7L657.1,567.7z"/>
	<path d="M659.2,569.4c0.7-0.1,1.4-0.2,1.5,0.7l0.1-0.1C660.2,570,659.6,569.9,659.2,569.4L659.2,569.4z"/>
	<path d="M660.8,570.1c0.7,0,1.4-0.2,1.5,0.8l0.1-0.1C661.8,570.8,661.1,570.7,660.8,570.1L660.8,570.1z"/>
	<path d="M663.9,571.6c-0.6,0-1.2-0.1-1.5-0.8l-0.1,0.1C662.9,570.9,663.7,570.6,663.9,571.6L663.9,571.6z"/>
	<path d="M665.4,572.4c-0.5-0.2-1.1-0.3-1.5-0.8l-0.1,0.1C664.5,571.6,665.2,571.5,665.4,572.4L665.4,572.4z"/>
	<path d="M665.3,572.5c0.3,0,0.7,0.1,0.4,0C666,572.6,665.7,572.5,665.3,572.5L665.3,572.5z"/>
	<path d="M634.8,553.3c0.7-0.1,1.2,0.1,1.6,0.6l0.1-0.1C635.8,554,635.2,553.8,634.8,553.3L634.8,553.3z"/>
	<path d="M637.8,555.6c0.7-0.1,1.2,0,1.6,0.6l0.1-0.1C638.9,556.2,638.3,556.1,637.8,555.6L637.8,555.6z"/>
	<path d="M663.9,557.8c0.3,0.1,0.7,0.1,1,0.2C664.3,558.5,664.1,558.3,663.9,557.8L663.9,557.8z"/>
	<path d="M651.6,564.8c0.7-0.2,1.3-0.1,1.6,0.7l0.1-0.1C652.6,565.5,652,565.4,651.6,564.8L651.6,564.8z"/>
	<path d="M652.9,520.5l-0.2-0.1c0-0.3,0.1-0.4,0.2-0.2C653,520.3,652.9,520.4,652.9,520.5z"/>
	<polygon points="600.4,308.3 600.5,308.1 600.3,308.2 	"/>
	<path d="M556,360.3C555.6,360,556,360.5,556,360.3L556,360.3z"/>
	<polygon points="592.8,319 592.9,318.8 592.7,319 	"/>
	<polygon points="585,326.6 584.9,326.8 585.1,326.7 	"/>
	<path d="M585.1,326.7c0-0.5,0.2-0.7,0.7-0.8l-0.1-0.1C585.9,326.4,585.5,326.5,585.1,326.7L585.1,326.7z"/>
	<path d="M643.2,567.7c0,0.3-0.1,0.5-0.3,0.4v-0.3C643,567.8,643.2,567.8,643.2,567.7L643.2,567.7z"/>
	<path d="M643.3,559.3c-0.5-0.1-0.8-0.3-0.7-0.9l-0.1,0.1C642.9,558.7,643.2,558.9,643.3,559.3L643.3,559.3z"/>
	<path d="M639.4,556.2c0.4,0.1,0.7,0.4,0.7,0.9l0.1-0.1C639.8,556.9,639.4,556.7,639.4,556.2L639.4,556.2z"/>
	<path d="M637.1,554.8c0.5,0.1,0.8,0.3,0.7,0.8l0.1-0.1C637.5,555.4,637.2,555.1,637.1,554.8L637.1,554.8z"/>
	<polygon points="633.3,574 633.4,573.8 633.3,573.9 	"/>
	<path d="M637.2,554.7c-0.5-0.1-0.8-0.3-0.7-0.9l-0.1,0.1C636.8,554.1,637.1,554.3,637.2,554.7L637.2,554.7z"/>
	<path d="M578.2,332c-0.2-0.3,0.1-0.7,0.2-0.6C579.1,332,578.4,331.8,578.2,332L578.2,332z"/>
	<path d="M634.8,553.2c-0.4-0.1-0.7-0.4-0.7-0.9l-0.1,0.1C634.5,552.5,634.8,552.7,634.8,553.2L634.8,553.2z"/>
	<polygon points="621.1,550.1 621.2,550.3 621.1,550 	"/>
	<path d="M585.8,325.8c0.1-0.1,0.2-0.2,0.2-0.3C586.2,325.7,586.1,325.8,585.8,325.8L585.8,325.8z"/>
	<path d="M896.1,353.6c3.2-2.5,6.1-4.9,9.1-6.9c1.3,0.3,1.6,1.1,1.4,2.1c-0.2,0.8-0.6,1.5-1.2,1.9c-4.7,3-9.7,5-15.4,4
		c0-0.4,0-0.8,0.1-0.8C892,353,893.9,352.3,896.1,353.6z"/>
	<path d="M703.6,326c-1.4-0.7-1.5-1.9-1.6-3.2c-0.2-2.5-0.4-5.1-0.5-7.6c-0.1-1.8-0.1-3.5-0.6-5.2c0.6-0.5,0.9-0.1,0.9,0.2
		c0.4,3.7,1.8,7.1,2.4,10.8c0.3,1.6,0.6,3.3-0.4,4.8L703.6,326z"/>
	<path d="M733.6,292.1c-5.4-0.4-10.9-0.4-16.2-1.9c-0.2,0-0.3-0.4-0.4-0.6c0.2-0.8,0.9-0.8,1.5-0.7c2.6,0.4,5.3,0.7,7.9,1.2
		c2.2,0.4,4.4,1,6.7,1.6C733.2,291.8,733.3,292.1,733.6,292.1L733.6,292.1z"/>
	<path d="M664,252.9c2.8-1.7,5.7-1.4,8-2.6c0.9,0.8,0.6,1.2,0.2,1.5c-0.8,0.7-1.8,0.9-2.8,1C667.8,253.2,666.1,253.2,664,252.9z"/>
	<path d="M869.3,350.6c-0.5,0.9-1.2,1-2,0.9c-1.7-0.2-2.2-0.4-3.6-1.7C865.7,349.3,867.5,350,869.3,350.6z"/>
	<path d="M771.9,307.1c-2.3-0.1-2.3-0.1-4.4-2.6C769.8,304.8,770.1,304.9,771.9,307.1z"/>
	<path d="M877.5,351.9c1.2-0.2,2.3-0.8,3.6-0.7c0.6,0.1,1.2,0.1,1.4,0.9C880.4,353,880.1,352.9,877.5,351.9L877.5,351.9z"/>
	<path d="M854.8,349c0.4,0,0.8-0.2,1.1-0.1c0.9,0.3,2,0.3,2.8,1C856.8,350.8,856.8,350.8,854.8,349z"/>
	<path d="M699.7,304.8c-0.8-0.8-0.8-1.4-0.5-2C700.2,303.4,700.2,303.4,699.7,304.8z"/>
	<path d="M748.4,297c-0.4,0.3-0.7,0.1-0.9-0.1s-0.2-0.4,0-0.5c0.1,0,0.3-0.1,0.3,0C748,296.5,748.2,296.7,748.4,297z"/>
	<path d="M733.5,292.2c0.8,0,1.6-0.3,2.4,0.3C735,293.1,734.2,293,733.5,292.2L733.5,292.2z"/>
	<path d="M654.8,256.9c0.2-0.3,0.3-0.6,0.7-0.3C655.3,257,655,256.9,654.8,256.9L654.8,256.9z"/>
	<path d="M764.3,302c-0.2,0-0.5,0-0.7,0c-0.1,0-0.3,0-0.3-0.1c-0.1-0.3,0.1-0.4,0.4-0.3C763.8,301.8,764,301.9,764.3,302L764.3,302z
		"/>
	<path d="M756.3,299.5l0.1-0.2c0.4,0,0.4,0.1,0.2,0.3C756.6,299.6,756.4,299.5,756.3,299.5z"/>
	<path d="M877.6,351.8c-0.1,0-0.2,0-0.3-0.1L877.6,351.8L877.6,351.8z"/>
	<path d="M764.2,302.1l0.1,0.2C764.1,301.8,764.8,302,764.2,302.1L764.2,302.1z"/>
	<polygon points="697.1,296.3 697.4,296.2 697.3,296.5 	"/>
	<path d="M654.7,256.9c0,0.1,0,0.2-0.1,0.3L654.7,256.9L654.7,256.9z"/>
	<path d="M512.9,482.6c0.5,1.9,0.5,1.9-2,3.7C510.7,484.7,510.7,484.7,512.9,482.6z"/>
	<path d="M504.7,495c1.4-1.2,1.5-2.5,2.9-2.7c0.1,0.3,0.2,0.6,0.3,0.9C507.4,494.3,506.5,494.6,504.7,495z"/>
	<path d="M396,595.3c0,0.8-0.2,1.3-1.1,1.7C395,596.1,395.1,595.4,396,595.3L396,595.3z"/>
	<path d="M396.1,595.4c-0.2-0.7-0.2-1.4,0.7-1.6l0,0C396.9,594.5,396.7,595,396.1,595.4L396.1,595.4z"/>
	<path d="M396.8,593.8c0.1-0.2,0.1-0.4,0.2-0.6c0.1,0.1,0.2,0.2,0.3,0.3C397.1,593.6,396.9,593.7,396.8,593.8L396.8,593.8z"/>
	<path d="M244.5,596.9c-0.1-0.9,0.6-1.4,1.1-1.9c2-1.8,3.9-3.6,5.9-5.4c0.6-0.6,1.4-1.1,1.7-2c0.1-0.6-0.2-1-0.8-1.2
		c-0.9-0.2-1.7,0.4-2.4,0.9c-2,1.2-4,1.6-6,0c-0.8-0.6-1.9-0.8-2.8-1.3c-1.2-0.7-2.5-1.3-3.6-2.1c-1.5-1.2-3-2.3-4.7-3.3
		c-0.5-0.3-1-0.8-1.3-1.9c0.2-1.9,1.6-3.7,2.6-5.7c3.2-2.4,2.6-5.8,2.5-9.1c0-0.9-0.4-1.7-0.5-2.6c0-0.3,0.2-0.7,0.4-1.1
		c1.7,0.1,2.7,1.3,3.8,1.8c0.8,1.1,0.8,2.1,0.4,3.1c-1.3,3.2-2,6.6-4.4,9.2c-0.9,1-1.3,2.4-2.1,3.7c2.4,1.8,5,2.8,7.6,3.7l-0.1-0.1
		c3,3,5.9,3.3,9.1,0.9c1.5-1.2,2.7-2.7,4.1-4c1.1-1.1,2.1-2.2,3.3-3.2c1.7-1.4,3.6-2.4,5.8-2.7c0.7-0.1,1.5-0.4,2.2-0.7
		c0.2-0.1,0.3-0.4,0.5-0.6c-0.5-1.4-1.8-1.1-2.8-1.4c-1.1-0.3-2.2-0.6-2.7-1.9c0-1.3,0.9-1.7,2-1.8c3.6-0.3,6,1.4,7.5,5.2
		c-0.4,2-2.2,2.6-3.7,3.4c-1.6,0.7-2.8,2.4-4.7,1.6c-2.9,2.5-5.2,5.1-7.3,7.8c0.2,0.9,0.8,1.2,1.5,1.2c1,0,2-0.1,3-0.2
		c0.5,0,1,0.1,1.3,0.6c0,0.8-0.6,1.1-1.2,1.2c-3,0.4-5.3,1.8-7.4,4.1c-1.7,2-4.1,3.4-6.2,5C245.6,596.6,245.1,596.9,244.5,596.9
		L244.5,596.9z"/>
	<path d="M212.4,564.1c0.1-0.5,0.1-1,0.8-1.5c2.6,1.2,2.9,4.1,4.5,6.2c1-1.8,1.1-2.2,0-3.6c-1.7-2.2-3.7-4.2-6.5-5
		c-0.2-0.1-0.4-0.3-0.6-0.4c-0.4-0.8,0.1-1.1,0.7-1.5c0.5-0.3,1.3-0.2,1.6-0.9c-3.3-3.8-3.1-3.7-7.2-5c-0.2-0.6,0-1,0.5-1.2
		c0.6-0.2,1.3-0.1,1.8,0.2c3.3,1.9,6.5,4.1,8.4,7.6c1,1.8,2.2,3.4,3.3,5.2c0.9,1.4,1.5,2.9,1,4.7c-0.2,0.6-0.2,1.3-0.1,1.9
		c0.4,4.2,0.1,8.4,0,12.6c-0.1,5.9-0.9,11.7-2.8,17.3c-0.5,1.4-1,2.8-2.3,4.5c0.5-2.9,0.7-5.2,1.2-7.4c0.8-3.4,1.2-6.8,1.5-10.2
		c0.4-5.7-0.4-11.2-2.1-16.6C215.2,568.4,214.2,566,212.4,564.1L212.4,564.1z"/>
	<path d="M242.2,581.6c-0.3-0.8-1-1.1-1.6-1.5c-1.2-0.6-2.5-1.3-3.6-1.8c-0.6-0.7-0.5-1.4-0.2-1.9c2.1-3.2,4.4-6.2,7.3-8.6
		c1.6-0.3,2.7,0.9,3.9,0.9c0.5,0.7,0.9,1.2,1.3,1.7c0.3-0.1,0.5-0.1,0.7-0.2c0.2-0.1,0.3-0.4,0.5-0.6c2-2.6,3.3-2.8,5.5-0.6
		c0.4,0.4,0.9,0.9,1.4,1.3c0.5,0.4,1.2,0.4,1.4,1.2c0,0.5-0.4,0.8-0.9,1c-1.3,0.6-2.2,1.6-2.8,3c-0.4,0.8-0.8,1.6-1.2,2.4
		c-2,3.4-5.6,4.9-9.4,4C243.8,581.7,243,581.6,242.2,581.6L242.2,581.6z M240.3,576.6c1.4,0.9,2.7,1.8,4.1,2.7
		c1.4,1,2.8,0.9,4.3,0.1c1.1-0.6,2.1-1.4,2.7-2.6c0.6-1.1,1.1-2.3,1.7-3.4c0.2-0.4,0.2-0.7-0.3-0.9c-1,0.3-1.6,1.7-3.7,1.4
		c-0.9-0.1-1.7-1.5-2.6-2.7c-0.4-0.5-0.5-1.2-1.5-1.1c-1,0.6-1.9,1.5-2.2,2.8c0.7,1.2,1.4,2.2,2,3.3c0.3,0.5,0.2,1-0.5,1.2
		c-1.5-0.3-1.7-2.2-3.2-2.4C240.6,575.1,240.3,575.5,240.3,576.6z"/>
	<path d="M228.6,505.8c1.4-0.6,1.4-2.1,2.9-2.1c0.3,1.7,0.1,3.5-0.5,5.1c-0.7,1.9-1.5,3.8-2.2,5.6c-0.8,0.4-1.3,0.2-1.4-0.6
		c-0.1-0.7,0-1.5,0.1-2.3c-1.2-1-2.6-0.3-4-1c0.6,2.1,1.2,3.1,2.5,4.3c0.5,0.4,1,0.8,1.4,1.2c0.9,1,1.4,2.1,0.6,3.5
		c-0.6,0.2-1-0.1-1.3-0.5c-1.1-1.9-2.6-3.4-4.2-4.8c-2.7-2.3-4.6-5.1-5.5-8.5c-0.5-2-1.3-3.8-3-5.2c-0.3-0.2-0.4-0.6,0-1.3
		c1.3-0.1,2.2,1.2,3.2,1.4c1.3,1.1,1.6,2.6,3.1,3.5C223.2,504.1,226.1,504.1,228.6,505.8z"/>
	<path d="M290.6,531.2c0.7,0.2,1,0.8,1,1.5c-0.2,4.2-0.6,8.4-2.2,12.4c-3.1,7.9-8.6,13.1-17.3,14.3c-0.8,0.1-1.8,0.4-2.3-0.6
		c0.1-0.7,0.6-0.8,1-0.9c7.5-2,12.8-6.5,15.7-13.8c1.1-2.7,1.6-5.6,2.1-8.5c0.2-1.1,0.5-2.2,0.8-3.3
		C289.7,531.6,290.1,531.3,290.6,531.2z"/>
	<path d="M199.2,554c0-1-0.8-1.5-1.3-2.2c-0.6-0.7-1.1-1.4-1.7-2.1c-0.1-0.2-0.1-0.4-0.2-0.7c1.5,0.4,1.5,0.4,3.8,3.1
		c0.7,0.4,1.2-0.3,2.1-0.1c1.8,1.7,3.5,3.9,5.3,6c1.7,2,3,4.4,5.2,6l-0.1-0.1c-0.3,0.2-0.7,0.3-1,0.5c-2.5-1.1-3.9-3.6-6.1-5.1
		c-0.9,1.7,0.5,3-0.2,4.4c-0.7,1.3-0.7,2.7-0.9,4.1c-0.4,3.3-1.1,6.5-2.2,10.1c-0.4-3.7-0.3-7,0-10.2c0.2-2.2,0.1-4.3-0.1-6.5
		c-0.1-1.6-0.9-2.9-2-4c-0.9-0.9-2.1-1.4-2.7-2.6C197.7,553.6,198.5,554,199.2,554c0.5,0.4,1,0.6,1.7,0.6l0.2,0.2
		c-0.1-0.1-0.2-0.1-0.3-0.2C200.4,554.1,199.8,554,199.2,554z"/>
	<path d="M173.5,534.3c1.5-0.9,2.1-2.6,3.5-3.5c0.6-0.3,1.2-0.6,1.7,0.5c-0.2,1.3-1.5,2-2.2,3.2c-0.8,1.3-1.6,2.6-2.4,3.9
		c-0.7,1.1-0.9,2.6-2.1,3.6c-1.5-4.6-1.1-9.2-0.9-13.7c0.1-2.2,0.5-4.3,2-6.1c0.5-0.6,1.1-1.1,2.2-0.3c0.2,1.2,0.2,2.8,0.9,3.9
		C176,529,173.9,531.3,173.5,534.3z"/>
	<path d="M177.3,584c1.7,1.4,2.4,3.5,3.3,5.4c0.9,2,1.7,4,2.7,5.9c0.9,2,1.9,3.9,3,5.8c1,1.9,2.1,3.8,3.3,5.6
		c1.1,1.8,2.3,3.6,3.5,5.3c-0.3,0.4-0.5,0.5-0.8,0.8c-1.3-0.3-2-1.4-2.8-2.4c-2.2-2.8-4.2-5.8-5.7-9c-2.6-5.3-4.7-10.7-6.3-16.4
		C177.4,584.7,177.4,584.3,177.3,584z"/>
	<path d="M205.6,498.6c0.8,0.1,1.1,0.7,1.1,1.4c-0.1,4.2,1.1,8.1,2.6,11.9c0.9,2.3,1.1,4.7,1.3,7.1c0,0.3-0.2,0.7-0.3,0.9
		c-0.6,0.1-0.8-0.2-1-0.5c-1-1.6-1.8-3.4-2.5-5.2c-0.3-0.8-0.5-1.8-1-2.5c-2.5-3.7-1.8-7.8-1.5-11.8
		C204.5,499.2,204.9,498.7,205.6,498.6z"/>
	<path d="M187.3,551c1.6,1.1,1.2,2.5,1.9,3.4c0.5,0.4,1.1,0.8,1.6,1.2c0.6,1.5,0.6,3,0.4,4.3c-0.4,2.6-0.9,5.2-1.4,7.9
		c-0.1,0.4-0.3,0.7-0.9,0.8c-0.9-1.7,0.2-3.7-0.7-5.6c-1,1.1-1.1,2.5-1.6,3.7s-1,2.3-1.7,3.4c-0.2-2.2,0.7-4.2,1.1-6.3
		c0.3-2,0.8-4,1-6C187.3,555.7,187.2,553.5,187.3,551z"/>
	<path d="M184.5,539.9c-2,10.4-4,20.6-6.2,30.7c-0.6-2-0.4-4-0.2-6c0.6-5.4,1.2-10.9,2.1-16.3c0.4-2.6,1.4-5.1,2.3-7.7
		C182.7,540.1,183.1,539.3,184.5,539.9z"/>
	<path d="M226.8,556.9c0.1-0.8,0.6-1.1,1.3-1c0.6,0.1,1.2,0.4,1.7,0.7c3.9,2.5,6.1,8.1,5,12.7c-0.1,0.5-0.5,0.9-0.7,1.2
		c-0.6,0-0.9-0.2-1-0.6c-0.6-5-2.8-9.1-6.3-12.6C226.8,557.2,226.9,557.1,226.8,556.9z"/>
	<path d="M230.2,573c-2.1-2.1-3.1-4.8-4.9-6.9c-1.8-2.1-3.9-4-5.9-5.5c-0.3-1.3,0.3-1.6,1.3-2c3.1,1.2,5.2,3.7,7.1,6.5
		C229.7,568,230.4,570.2,230.2,573z"/>
	<path d="M266.6,595.3c-0.8,0-1.6,0-2.4-0.1l0.1,0.1c0.5-1.2,1.6-2,2.5-2.8c3.1-3,6.3-5.9,8.9-9.3c0.9-1.2,2-1.9,3.5-1.9
		c0.6,0,0.8,0.2,1.4,1.5c-0.7,0.9-1.9,0.5-3.5,1.7c0.5-0.4,0.2-0.3,0.1-0.1c-2.1,3.3-5,5.7-8,8.1c-1.1,0.9-2.3,1.6-2.8,3
		L266.6,595.3z"/>
	<path d="M302.2,576c-5.3,1-10.2,1.9-15.2,2.8c-0.1,0-0.2-0.1-0.3-0.2c-0.3-0.6-0.1-1,0.4-1.2c1.3-0.5,2.6-1.1,3.9-1.5
		c2.7-0.9,5.5-0.8,8.2-1C300.2,574.9,301,575.1,302.2,576z"/>
	<path d="M179.1,537c-2.6,3.8-3.2,8.1-4.8,12.9c-0.3-2-0.3-3.2-0.1-4.5c0.2-1.4,0.5-2.7,0.8-4.1c0.3-1.4,0.8-2.7,1.8-3.7
		C177.3,537,177.7,536.2,179.1,537z"/>
	<path d="M207.2,580.7c0-5.2,0.9-9.6,0.5-14.2c0.6,0.4,1,0.5,1.2,0.8s0.3,0.7,0.3,1.1C209.4,572.3,208.8,576.2,207.2,580.7z"/>
	<path d="M191.5,551.7c2.8,2.5,4.9,5.6,5.9,9.2c-2.3-2.8-5.2-5.1-6.5-8.6C190.8,552.3,191.2,552.1,191.5,551.7z"/>
	<path d="M201,586.6c0-1.6,0-3.2,0-4.8c0.1,0,0.2,0,0.3,0c0,1.6,0,3.2,0,4.8C201.2,586.6,201.1,586.6,201,586.6z"/>
	<path d="M266.8,583.4c-0.2,0.9-0.7,1.1-1.2,1.3c-0.4,0.2-0.9,0.5-1.6,0.2C264.8,583.9,265.7,583.6,266.8,583.4z"/>
	<path d="M211.5,599.9c0.1-1.3-0.3-2.7,0.8-3.7l-0.1-0.1C212.1,597.3,212.6,598.7,211.5,599.9L211.5,599.9z"/>
	<path d="M210.8,603.1c0.1-1.1-0.3-2.3,0.7-3.2l-0.1-0.1C211.4,600.9,211.7,602.1,210.8,603.1L210.8,603.1z"/>
	<path d="M195.9,603c0.2,0.5,0.3,0.9,0.1,1.5C195.5,604,195.4,603.5,195.9,603z"/>
	<path d="M212.3,596.2c0-0.6,0.1-1.2,0.1-2C213.2,595.1,212.9,595.6,212.3,596.2L212.3,596.2z"/>
	<path d="M247.6,605.2c-0.6,0.3-1.1,0.6-1.7,0.8C246.3,605.6,246.9,605.3,247.6,605.2z"/>
	<path d="M246.6,599.9c0,0.1-0.1,0.2-0.1,0.3L246.6,599.9L246.6,599.9z"/>
	<path d="M248.3,604.4c-0.3,0.3-0.6,0.6-0.9,0.9C247.7,605,248,604.7,248.3,604.4z"/>
	<path d="M264.3,595.2c0,0.1,0,0.2-0.1,0.3L264.3,595.2L264.3,595.2z"/>
	<path d="M249.8,596.8l0.2-0.2L249.8,596.8z"/>
	<path d="M244.4,596.8c-0.1,0.1-0.2,0.2-0.3,0.4l0.1-0.2C244.2,596.9,244.4,596.9,244.4,596.8L244.4,596.8z"/>
	<path d="M249.1,597.6c0.3-0.2,0.5-0.5,0.8-0.7l-0.1-0.1C249.6,597.2,249.4,597.4,249.1,597.6L249.1,597.6z"/>
	<path d="M249,597.5c-0.1,0.4-0.3,0.7-0.7,0.8l0.1,0.1C248.6,598.1,248.8,597.9,249,597.5L249,597.5z"/>
	<path d="M247.5,599.1c0.3-0.3,0.5-0.5,0.8-0.7l-0.1-0.1C248.1,598.7,247.9,599,247.5,599.1L247.5,599.1z"/>
	<path d="M247.4,599c-0.1,0.4-0.4,0.7-0.8,0.8l0.1,0.1C247,599.7,247.3,599.4,247.4,599L247.4,599z"/>
	<path d="M508.5,545.5c0.1,0.5,0,1-0.4,1.4c-1.6,1.8-3.1,3.6-4.6,5.3c-1.1-0.2-1.1-0.8-0.7-1.4C504.4,548.8,506.3,547,508.5,545.5
		L508.5,545.5z"/>
	<path d="M519.9,558.5c-0.3,2.5-0.3,2.5-2.1,3.6C518.3,560.5,519,559.4,519.9,558.5L519.9,558.5z"/>
	<path d="M513.1,537.1c0.1,1.1-0.1,2-1.2,2.5C511.9,538.3,511.9,538.3,513.1,537.1L513.1,537.1z"/>
	<path d="M524.7,552.8c-0.1,0.6-0.2,1.1-0.9,1C523.5,553,524.2,553,524.7,552.8z"/>
	<path d="M514.9,528.7c0-0.2,0-0.5,0-0.7C515.3,528.3,515.1,528.5,514.9,528.7z"/>
	<path d="M508.6,545.6c-0.1-0.7,0.1-1.2,0.7-1.5l-0.1-0.1C509.2,544.6,509.3,545.3,508.6,545.6L508.6,545.6z"/>
	<path d="M513.2,537.2c-0.1-0.3-0.1-0.6,0.3-0.8C513.7,536.8,513.4,537,513.2,537.2L513.2,537.2z"/>
	<polygon points="554.6,523.8 554.3,523.7 554.6,523.7 	"/>
	<polygon points="509.3,544.1 509.4,543.9 509.2,544 	"/>
	<path d="M520,558.6C520.3,558.2,519.8,558.6,520,558.6L520,558.6z"/>
	<path d="M693.5,351.4c1.9-0.4,3.6-0.9,5.1-1.7c1.4-0.7,2.9-1.6,4.4-1.7c0.4,0.3,0.7,0.6,0.6,1c0,0.1-0.1,0.3-0.2,0.3
		c-2.7,2-5.6,3.1-9,2.9C694.2,352.2,693.9,351.8,693.5,351.4z"/>
	<path d="M704.7,340.7c0.9-2.4,0-4.5-0.6-6.7c2,0.7,2.3,1,3,2.8c0.5,1.3,0.6,2.5-0.3,3.6C706.4,341,705.9,341.3,704.7,340.7z"/>
	<path d="M704.7,358.8c0.2,0.8,0.3,1.1,0.3,1.2c-0.4,0.3-0.8,0.7-1.2,0.8c-1.6,0.3-3.2,0.6-5.3,0.9
		C700.4,359.5,702.6,359.7,704.7,358.8z"/>
	<path d="M671.6,382.1c-1.4,1.4-2.9,2.7-4.7,3.3c-0.8-0.6-0.4-1-0.1-1.4C668.1,382.6,669.8,382.3,671.6,382.1z"/>
	<path d="M699.8,367.9c-1.9,2.3-3.6,0.9-5.2,0.3C696.2,368.2,697.8,367.6,699.8,367.9z"/>
	<path d="M690.9,361.3c2.2-0.2,3.8-0.5,5.4-0.1c0,0.9-0.6,1.1-1.2,1.1C693.9,362.4,692.7,362.3,690.9,361.3z"/>
	<path d="M668.5,335.6c-0.2-0.1-0.4-0.2-0.4-0.3c-0.1-0.2-0.2-0.4-0.2-0.7c1.3-1.2,1.3-1.2,3.4-1.6
		C670.2,334.1,669.6,335.1,668.5,335.6z"/>
	<path d="M682,350.8c-0.5,0.5-0.6,0.8-0.8,0.8c-0.9,0.3-1.9,0.5-3.1,0.8C679.6,350.3,679.6,350.3,682,350.8z"/>
	<path d="M707,372.7c-1-2.2-1-2.2,0.3-3.3C708.7,370.5,708.7,370.6,707,372.7z"/>
	<path d="M690.4,349.9c-0.2,0.8-0.7,1.1-1.6,0.9c-0.3-0.6,0.3-0.8,0.6-1S690.1,349.4,690.4,349.9z"/>
	<path d="M641.3,363.7c0.3-0.2,0.6-0.4,0.9-0.1v0.3C641.9,364.1,641.5,364.2,641.3,363.7z"/>
	<path d="M688.4,361.8C688.7,361.4,688.3,361.9,688.4,361.8L688.4,361.8z"/>
	<path d="M688.3,361.7c0.1,0.3,0,0.5-0.2,0.5V362C688.2,361.9,688.3,361.9,688.3,361.7L688.3,361.7z"/>
</g>
</svg>
