<?xml version="1.0" encoding="utf-8"?>
<!-- Generator: Adobe Illustrator 23.0.1, SVG Export Plug-In . SVG Version: 6.00 Build 0)  -->
<svg version="1.2" fill="#fff" baseProfile="tiny" id="Layer_1" xmlns="http://www.w3.org/2000/svg" xmlns:xlink="http://www.w3.org/1999/xlink"
	 x="0px" y="0px" viewBox="0 0 900 600" xml:space="preserve">
<g>
	<path d="M709.53,375.74c1.76-0.46,0.51,0.27,0.27-4.99C709.8,375.57,709.37,374.98,709.53,375.74z"/>
	<path d="M658.66,423.63l0.1-0.1C658.62,423.53,658.6,423.41,658.66,423.63z"/>
	<path d="M698.47,382.5C698.44,382.62,698.45,382.6,698.47,382.5L698.47,382.5z"/>
	<path d="M701.69,373.3c-0.82,1.34,0.82,1.75,1.03,3.08c-1.03,2.56-0.98,4.4-3.8,3.39c-4.1-1.47-3.01-1.93-4.83-0.41
		c2.25,1.69,0.7,0.81,3.08,1.23c1.4,0.25,1.34,1.56,1.3,1.91c0.01-0.04,0.02-0.09,0.04-0.16c1.95-0.21,3.18-1.13,3.39-3.29
		c0.1-0.51,0.82-1.03,1.23-1.64c3.22,0.64,7.09,1.76,6.41-1.67C708.24,376.08,703.4,374.12,701.69,373.3z"/>
	<path d="M658.66,414.39l0.1-0.1C658.65,414.28,658.62,414.23,658.66,414.39z"/>
	<path d="M705.49,316.82c0.18,0,0.23,0.03,0.1-0.1L705.49,316.82z"/>
	<path d="M712.99,319.18c-2.27-2.23-3.09-3.93-4.62-5.03c-0.95-0.68-12.53-5.8-19.1-7.39c-5.62-1.36-8.92-0.94-14.58,0
		c-5.12-18.43-24.31-11.51-25.27-3.9c0.82-0.62,2.05-1.55,3.18-2.57c8.13-7.31,17.89-1.47,17.78,1.51
		c-11.17-3.04-12.18-0.32-20.33,4.23c-0.3-0.39-0.67-0.85-1.05-1.32c-2.16,1.64-2.98,3.9-3.08,6.47
		c-2.36,21.27-0.62,14.22-0.62,30.71c1.64,16.1,2.82,15.76-1.64,18.18c-3.34,1.81-4.13,0.91-19-1.75
		c-14.11-2.52-28.73,1.21-33.07,4.93c-10.44,1.23-16.6,2.25-26.5,6.06c-66.08,25.43-35.9,9.71-71.79,28.35
		c-11.14,5.78-15.63,5.7-24.75,13.56c-5.47,4.71-8.58,5.17-12.84,9.24c-3.77-1.01-13.11,6.5-16.02,9.45
		c-7.75,7.86-6.81,14.54-8.83,18.08c-15.84,7.2-18.47,5.76-30.61,12.12c-66.42,30.19-60.16,23.5-95.21,28.55
		c-35.19,5.07-39.19,11.21-62.65,22.18c-3.2,1.5-13.19,5.06-15.61,4.31c-1.88-0.58-2.98-0.4-8.01,0.72
		c-2.42-4.04-0.64-2.88-4.62-3.39c-0.72-0.09-1.54,0.1-2.16-0.1c-1.23-0.51-2.35-0.28-3.49,0.1c-4.53,1.53-5.54,1.2-7.7,2.67
		c-6.99,4.75-8.22,1.6-13.35,4.11c-7.89,3.86-12.38,5.1-10.48,12.02c0.42,1.52,0.56,0.1,1.64,5.85c1.21,6.42,2.22,10.8,7.19,16.43
		c3.83,4.35,5.22,6.15,10.58,8.83c5.53,17.39,3.15,25.34,35.13,34.71c2.78,0.81,5.64,0.6,8.42-0.51c8.48-3.4,5.62-11.61,5.75-13.56
		c0-5.45-1.37-0.42-7.81-9.14c-1.53-2.07-2.41-4.31-2.16-6.98c0.91-9.45,1-6.14-1.54-13.76c2.71-5.41,2.23-4.44,2.98-9.04
		c0.65-4.01-0.15-3.97-1.75-6.47c12.58-3.39,4.9-0.86,15.41-3.29c9.6-2.22,10.15-0.26,16.64-0.51c0.11,0,20.21-0.36,26.91-1.75
		c13.41-2.77,23.64-4.3,31.32-7.7c0.99-0.44,6.67-2.8,7.6-2.57c2.46,0.82,4.93,0.1,7.39,0.62c1.44,0.3,2.77-0.51,4.11-0.51
		c2.3,0,3.85,1.12,5.96,0.31c7.63-2.92,14.36,0.35,20.75-5.24c-1.03,0-1.54-0.1-1.95,0c-7.05,2.23-9.96,1.25-17.15,2.57
		c-5.92,1.08-8.97,2.2-10.37,1.95c-8.74-1.53-6.53-1.4-4.21-3.39c-1.13-0.82-2.05-0.51-2.98,0.21
		c-7.78,6.05-42.25,13.01-52.89,13.35c-37.78,1.22-12.6-2.46-49.5,4.72c-5.34,1.04-5.83,3-10.17,2.57c-2.56-0.25-5.14-0.71-7.7-1.03
		c-6.24-0.76-6.71-7.28-4.31-13.87c2.71-7.46,8.68-3.63,14.69-5.44c7.31-2.21,10.98-0.57,23.83-7.7
		c24.15-13.42,25.1-14.32,52.07-19.72c8.86-1.78,9.82-0.93,18.38-1.95c4.31-0.52,8.62-1.64,13.04-1.54c0.51,0.01,1.03-0.1,1.44-0.21
		c6.37-2.16,13.22-2.63,19.31-5.75c0.41-0.21,0.92-0.31,1.34-0.41c9.87-2.5,56.81-25.22,71.69-29.48c2.62,4.58,3.97,7.95,8.22,12.84
		c19.03,21.89,21.79,24.26,28.35,28.24c1.14,0.7,2.26,1.34,2.98,2.67c-4.33,4.33-24.62,10.81-30.61,12.53
		c-20.09,5.79-32.96,4.92-42.52,7.39c-5.18,1.34-18.67-0.6-20.64,0.1c4.64,2.49,8.31,2.69,15.2,2.36
		c10.97-0.51,30.16-1.55,40.98-5.44c27.85-10.02,2.06,3.49,42.62-16.02c8.46-4.07,12.15-10.25,22.9-13.97
		c2.22-0.77,4.65-4.9,11.09-4.72c37.82,1,95.46-31.44,103.12-33.28c-19.25,23.53-13.08,40.64-12.84,53
		c0.72,36.52,5.17,39.6-0.21,56.69c-4.75-0.24-4.36,3.11-5.03,6.16c-2.04,6.92,0.64,8.7-3.08,17.36c-1.87,4.35,0.13,3.55-2.16,8.83
		c-0.84,1.94-1.23,4.01-1.85,6.16c7.37,6.73,18.14,6.46,27.94,5.34c8.51-0.97,9.61-3.47,15.3-1.75c5.69,1.73,14.87,4.75,31.63,3.18
		c2.35-0.22,4.3-1.23,5.33-3.47c4.58-0.93,8.98-2.55,13.67-4.85c10.03,1.43,7.64,0.63,12.63-3.08c3.11-2.31-0.68-5.38-4.52-5.65
		c-4.03-0.28-8.65,0.25-11.3-3.8c0-0.12-0.76-1.53-3.18-1.95c-7.94-1.37-7.76,0.76-20.64-1.95c-1.34-1.95-2.46-3.8-3.59-5.55
		c0.72-1.54,1.34-2.98,2.05-4.52c4.6,1,4.21-0.09,11.71,0.31c7.77,0.41,11.41,1.76,14.28-4.93c1.54-3.08-7.82-1.39-14.28-3.7
		c-0.24-0.12-4.16-0.48-6.68-1.03c-10.5-2.3-13.84,0.18-19-1.54c-0.84-2.85,0.4-5.98,0.72-10.99c0.48-7.63,0.4-12.71,1.75-18.28
		c3.53-14.6,1.23-15.07,3.08-24.96c0.82-4.41,1.79-5.71-1.44-20.34c-0.81-3.68,2.22-8.33,1.44-15.71c-0.29-2.74,0.91-2.89,0.41-9.86
		c-0.13-1.85-0.33-3.8,0-5.65c1.05-5.77,2.55-11.47,4.42-17.15c2.66-8.08-3-11.31,1.95-21.98c0.62-1.34,0.66-1.68,3.08-9.76
		c0.21,11.61,2.26,22.18,5.44,32.97c2.19-7.12,0.76-9.67,1.75-10.99c1.09,0.6,0.96,2.13,2.13,2.33c-0.52-2.71-2.54-6.1-2.54-11.06
		c0-2.16-0.72-3.9-2.36-5.24c0.93,7.45,1.46,6.55,1.23,13.97c-0.51-0.92-1.03-1.44-1.13-1.95c-2.72-10.58-4.18-14.41-2.77-25.88
		c0.51-0.1,0.92-0.1,1.34-0.21c1.19,1.78-0.45,12.27,1.23,14.38c-0.31-9.76-0.21-12.02,0.51-14.79c8.45-1.41,0.78-2.82,2.46,14.07
		c0.62,6.21,0.52,7.58,2.04,7.49c-1.18-14.94-2.36-16.71,0.83-23.1c4.99-2.49,3.29-2.16,3.29,9.65c0,3.59,0.72,7.19,0,11.4
		c-1.13-3.08-1.34-5.75-1.64-8.42c-1.6,5.45,3.32,19.04,5.55,24.44c0.2,0.48,0.48,1.05,1.1,1.03c-0.67-3.2-1.53-0.49-2.13-12.12
		c3.53,3.53,1.93,7.9,5.75,11.3c-5.23-19.18-1.24-23.05-3.59-29.68c0.1-3.49,0.41-6.98,1.75-10.37c10.31-4.58,13.37,7.08,21.77,4.52
		c1.64-1.64,2.26-3.7,3.18-5.55c3.56-1.78,2.94-1.38,3.89-4.65c-0.97,2.33-4,1.7-5.23,5.58c-0.32,1.02-1.34,1.85-2.05,2.88
		c-1.8-0.36-1.6,0.85-11.71-6.37c-11.84,0.62-15.98,3.22-24.85,5.44c-4.6,0.84-3.13,1.51-5.34-4.31
		c-2.47-6.51,0.16-10.43-2.67-16.23c-4.1-8.39-4.09-6.33-1.75-7.5c7.97-3.98,7.56-5.4,8.11-13.66c-1.03-1.34-1.35-3.08-1.03-5.03
		c3.04-18.1,0.06-3.98,3.08,3.08c0.31,0.62,0.82,1.13,1.44,0.82c-2.65-6.35-1.86-11.63-2.69-12.97c0.11-0.14,0.52-0.67,0.23-0.38
		c1.09-6.34,3.82-8.67,4.31-11.91c0.31-2.05,1.75-3.49,2.98-5.03c2.64,0.99-2.33,4.17-0.31,12.53c0.92,3.8,2.88,7.09,5.34,11.09
		c0-2.98-3.9-7.93-2.88-10.78c0.82,1.18,3.15,4.43,4.56,4.88c-2.51-6.55-3.56-6.55-4.25-11.76c4.92,7.82,4.85,8.1,5.7,8.11
		c-8.26-15.5-5.51-15.61-9.81-15.41c0.51-1.13,1.03-2.16,1.44-3.18c-0.62-0.51-0.92,0-1.23,0.31c-1.72,1.67-2.62,3.79-3.08,5.96
		c-0.64,3.01-1.5,3.49-6.27,13.45c-1.78,3.73-0.93,7.33-1.44,10.37c-1.41-8.43-3.14-16.52-1.75-26.19c0.42-2.9,3.12-10.25,6.06-9.86
		c0.74,0.1,1.56-0.47,2.31-0.82c-0.78,1.1-2.31,1.75-2.31,3.39c3.39-1.44,5.44-1.64,8.11-0.72c1.44,0.41,1.64,0.72,2.46,2.77
		c-0.41,0.51-0.92,1.03-1.44,1.64c0.31,0.21,0.62,0.51,0.72,0.41c8.33-5.98,21.72,0,29.99,0c-4.29-2.24-15.52-3.38-20.34-3.8
		c0.21-0.41,0.41-0.72,0.51-0.72c13.98-2.28,13.11,0.16,25.88,3.29c4.51,1.1,13.82,5.39,15.1,9.86c3.71,9.23-4.21-5.17-8.65-5.14
		c3.08,3.76,10.87,10.35,11.11,18.28c0.82,0.41,1.85,0.41,1.95,1.75c0,0.62,0.72,1.13,1.13,1.75c-0.16,0.97-0.34,1.92-0.53,2.87
		c2.52-9.14,0-10.61-0.49-12.72C718.13,325.69,716.53,322.66,712.99,319.18z M206.96,528.49c-1.21,5.24,2.05,10.07,7.39,10.99
		c13.96,2.41,11.48-0.38,17.15,0.51c2.43,0.38,2.13-0.32,5.24,0.72c-0.41,2.98-1.23,5.75-2.05,8.42c-0.21,0.92-1.03,1.54-1.54,2.26
		c-3.08-0.1-5.55,1.03-8.01,2.88c0.31,0.41,0.51,1.03,0.82,1.13c2.09,0.65,1.21,0.75,6.68-1.64c0.54,0.54,0.51,0.67,1.34,2.88
		c-3.92,1.31-4.59,0.95-5.24,2.26c1.51,2.01,1.54,2.15,5.96,0.31c2.01,7.03-3.27,2.88-3.59,6.47c0.72,1.64,2.16,0.82,3.59,0.72
		c-0.19,6.05,2.15,11.16,9.35,14.89c0.7,3.85-0.68,6.07,0.51,9.24c-2.14,3.68-7.46,5.68-9.76,5.14
		c-8.93-2.12-20.28-6.01-27.83-12.63c-2.03-1.78-2.67-2.94-5.65-11.61c-4.26-12.38,0.95-8.46-5.44-12.12
		c-1.64-0.94-3.21-1.84-4.21-3.59c-0.52-0.92-1.43-1.55-2.16-2.36c-10.54-11.74-7.06-19.81-9.96-22.6c-0.42-0.4-0.1-1.54-0.21-2.46
		c3.7-2.77,7.45-4.39,10.99-6.26c2.33-1.23,5.13,0.29,11.4-3.59c4.15-2.57,8.33-4.33,13.15-3.29
		C213.67,518.73,209.41,517.86,206.96,528.49z M217.02,518.43c-0.21,0-0.21-0.41,0-0.41c0.1,0,0.1,0.1,0.21,0.21
		C217.13,518.22,217.02,518.32,217.02,518.43z M686.69,584.88c0.21,0,0.41,0.41,0.62,0.72c-0.69,0.69,0.74,0.57-8.63-1.44
		C681.66,583.75,684.13,584.57,686.69,584.88z M677.24,583.54c0.14,0,0.19,0.31-0.21,0.31
		C677.04,583.52,676.69,583.54,677.24,583.54z M676.32,586.72c1.06-0.71-0.54-0.5,9.45,0.92c-0.21,1.44-0.92,2.23-2.16,2.16
		C675.19,589.27,676.32,589.27,676.32,586.72z M664.82,389.33c1.18-0.68,4.11-1.73,4.11-0.51c-1.71,5.92-1.34,12.16-1.34,23.72
		C664.17,405.92,664.82,401.72,664.82,389.33z M664.61,416.64c-0.13,0.39-0.07,0.41-0.21,0H664.61z M663.79,413.15
		c0,0.42,0.29,0.26-0.1,1.23C663.79,413.77,663.79,413.46,663.79,413.15z M650.44,392.51c0,0.1,0.1,0.21,0.1,0.31
		c-0.1,0.1-0.21,0.1-0.21,0.21C650.34,392.71,650.05,392.9,650.44,392.51z M496.28,398.67c20.87-10.82,22.14-11.49,59.57-22.18
		c0.29,11.43-0.79,7.41,2.88,22.49c-6.15,2.11-18.87,6.6-34,9.35c-5.85-6-15.61-6.06-24.34-6.06
		C494.87,399.97,487.73,403.1,496.28,398.67z M490.22,477.04c-4.12,0.42-7.52-1.78-12.02-1.03c5.16,4.46,23.09,1.85,13.35,4.93
		c-4.45,1.41-13.49,8.32-21.77,12.84c-3.69-1.15-2.2-1.66-6.68-4.83c-2.89-2.04-5.75-4.21-8.22-6.98c0.31-0.51,0.72-0.92,1.23-1.64
		c-2.18,0.48-2.24,0.75-2.88,0.1c-18.05-18.46-21.11-21.23-24.55-28.96c1.44-1.34,3.18-1.95,5.24-2.16
		c3.37-8.99,2.11-9.91,5.24-13.66c6.39-7.67,19.14-16.11,15.61-11.4c-3.29,4.93-7.11,13.9-5.24,19.51
		c1.72-10.3,5.01-16.96,9.45-23.21c1.41-1.99,25.12-15.3,28.35-16.64c2.18-0.9,5.63,0.06,12.32,0.92
		c9.63,1.24,17.86,1.74,23.21,4.42c-1.34,1.13-2.26,2.26-3.9,2.36c-1.54,0-6.25,4.36-7.5,5.96c2.26,0,1.9-1.21,6.88-2.88
		c1.23-0.41,2.46-0.72,3.9-1.23c-0.38,2.49-8.3,13.02-8.94,28.35c-0.64,15.36-1.32,8.51,2.36,31.32
		C515.69,474.5,517.21,474.3,490.22,477.04z M644.79,567.31c-1.34-1.03-2.77-2.16-3.08-4.42c2.16,0.21,3.29,1.75,4.62,2.57
		C646.43,566.7,645.82,567.11,644.79,567.31z M671.7,559.4c-0.1,0.21-0.1,0.51-0.21,0.62c-0.72,0.41-0.92,0-1.13-0.82
		C670.88,559.3,671.29,559.4,671.7,559.4z M650.54,558.07c6.12,2.72,16.8,1.98,19.21,3.18c0.66,0.33,0.66,1.31,0,1.64
		c-2.37,0.53-1.92,0.57-12.32-0.1c-1.8-0.26-5.51,1.06-9.14-0.21c-0.31-0.11-0.72-0.21-1.03-0.1c-2.36,1.13-4.01-0.72-6.06-1.03
		c-1.36,0-4.21-3.83-4.93-5.14C651.82,556.32,648.81,555.29,650.54,558.07z M633.9,558.99c0.82,1.13,1.44,2.05,2.16,3.08
		c-1.39,3.7-5.53,3.93-6.06,7.09c-0.1,0.62,0.72,1.43,1.34,1.34c2.19-0.32,2.55-0.7,7.6-4.62c1.64,0,2.57,1.03,3.08,2.77
		c-1.3,0.87-1.94,0.65-3.39,3.18c-1.02,1.78-2.02,2.84,0.82,4.11c2.05-0.92,2.57-3.29,4.21-4.83c0.62,1.03,1.23,1.95,1.75,2.77
		c-1.03,1.34-1.95,2.67-2.88,3.8c0.41,1.34,1.44,1.75,2.36,2.26c0.93-0.46,0,0.82,2.57-4.31c1.44,0.1,2.46,1.23,3.7,2.16
		c-0.51,0.62-0.92,1.23-1.34,1.75c0.38,4.2,3.04,3.64,4.62-0.31c1.44,0.1,2.98,0.72,4.42-0.21c0.44-0.33,5.28,0.47,11.61,1.03
		c1.13,1.23,2.26,2.67,3.29,3.9c0,1.95,0,3.59,0,5.24c-3.06,3.58-4.65,1.9-11.28,6.89c-17.55,0.63-13.57,0.55-41.51-2.17
		c-3.9-0.38-4.34,2.02-13.15,2.57c-0.89,0.05-15.82-0.78-22.6-4.31c-0.41-2.16,0.01-4.31,0.82-6.47c1.71-4.53-0.43-2.23,2.26-8.52
		c4.11-9.64-0.14-13.88,4.31-19.82c6.14,4.91,8.17,15.48,19.92,9.65c1.15-0.57,4.13-4.84,6.37-5.96c1.3-0.56,1.34-3.7,4.42-7.81
		c2.45,0,1.27,0.73,3.08-1.54c1.13-0.21,3.29,1.64,5.14,4.21c-0.82,1.54-2.23,2.59-3.49,3.9c-5.92,6.17-3.01,6.79-2.16,6.37
		C629.19,564.12,630.48,561.85,633.9,558.99z M636.47,510.52c1.07,8.08-1.84,1.31-4.21,41.6c-5.17-2.59-3.9-2.32-6.37-2.57
		c0.21-12.92-1.9-12.74,5.85-44.88c0.03-0.1,5.34-22,5.34-20.03C640.36,494.8,635.82,505.59,636.47,510.52z M638.42,451.87
		c0.61,10.66-2.39,14.88-3.7,25.98c-0.55,4.65,0.77,3.19-1.75,12.22c-11.68,41.97-9.55,50.32-9.55,60.39
		c-2.7,2.7-5.13,4.64-5.65,7.91c-0.37,2.34-1.81,2.71-4.01,5.24c-1.92,2.21-5.2,3.42-8.42,2.77c-0.44-1.75-0.01-1.53,0.51-9.45
		c0-1.02-1.7-0.74-1.85-0.31c-1.03,2.33-1.1,3.41-1.34,8.11c-2.46-1.95-3.59-4.42-5.24-5.96c4.35-21.04,2.21-59.06-0.41-66.66
		c-0.29-0.83-0.41-1.64-0.31-2.46c0.9-14.77,0.61-23.31,9.14-36.25c7.3-11.08,10.28-13.15-8.11-6.78c-2.94,3.1-8.61,1.64-22.29,9.86
		c-3.06,1.84-13.22,6.92-21.57,8.94c-39.51,9.54-26.98,6.66-34.2,8.01c-3.2-3.36-3.48-8.46-4.21-13.45
		c-3.97-27.08,7.22-47.13,10.58-48.78c22.26-10.95,77.63-12.35,99.21-9.35c1.44,0.2,2.47,0.94,8.83,5.75
		c4.67,3.53,3.82,1.17,7.29,6.98c1.03,1.72,0.26,8.1,0.92,12.74C643.55,435.89,637.77,440.57,638.42,451.87z M644.69,411.41
		c-0.62,0.51-1.34,0.41-1.64-0.1c-2.16-2.98-5.24-4.72-8.22-6.68c-5.96-3.9-12.74-5.34-19.72-6.27c-2.5,0-1.28-0.22-2.26-3.8
		c-0.53-1.06-1.91-1.32-2.57,0c-1.28,3.4,2.85,3.56-12.12,2.77c-2.16-3.29-4.14-6.47-4.01-10.48c0.23-6.71-1.49-17.34,16.02-23.01
		c3.04,3.04,10.37-2.18,19.1,3.59c1.68,1.11,8.57,5.72,10.48,8.42C649.48,389.67,647.63,388.73,644.69,411.41z M643.35,376.18
		c-2.26-1.81-5.62-8.02-16.02-12.43c-5.09-2.16-10.33-0.46-15.51-1.23c-2.57-0.38-7.98,2.2-10.27,3.49
		c-10.44,5.92-9.35,15.64-9.35,22.8c0,3.59,2.62,5.7,2.26,8.22c-4.35,0.79-6.14-0.15-20.64,0.72c-8.26,0.49-10.84,1.83-11.3,0
		c-1.97-5.73-5.16-16.52-3.7-22.39c6.52-3.26,19.06-7.52,30.3-9.14c10.86-1.57,10.39-5.39,17.77-5.65
		c12.19-0.43,8.98-1.97,30.09,2.77c0.51,0.11,1.13,0.1,1.85,0.1C641.81,367.35,643.56,372.07,643.35,376.18z M649.62,346.6
		c0.89,5.02,1.65,6.49-0.21,7.6C649.41,345.45,649.34,346.6,649.62,346.6z M666.26,310.55c-0.97-0.97-0.11-4.28-5.55-4.93
		c-1.59-0.19-3.18-0.02-4.78,0c1.2-2.54,9.48-1.97,11.55,3.39C667.8,309.83,667.69,309.93,666.26,310.55z M670.77,307.26
		c-0.21,1.03-0.82,1.64-1.85,1.85c-2.11-4.65-2.13-3.46-4.62-5.96c2.57-0.51,4.74-0.15,6.88,0.72c1.45,0.59,1.64,1.03,2.05,2.88
		C672.52,307.57,671.7,307.78,670.77,307.26z M718.02,329.45c-0.29-0.7-3.5-7.09-3.56-7.85c0.16,0.13,0.28,0.32,0.28,0.55
		c0.41,0.41,0.92,0.72,1.34,1.13C717.3,325.13,718.22,327.09,718.02,329.45z"/>
	<path d="M667.8,429.38l0.1-0.1C667.81,429.3,667.69,429.23,667.8,429.38z"/>
	<path d="M709.8,370.75c0-11.83,2.4-8.34,4.87-14.15C709.87,359.2,709.5,364.57,709.8,370.75z"/>
	<path d="M714.73,356.56c0.21-0.11,0.12,0.06,0.78-2.34c-0.28,0.94-0.56,1.72-0.84,2.38C714.69,356.59,714.71,356.57,714.73,356.56z
		"/>
	<path d="M715.84,353.05c-0.13,0.45-0.23,0.83-0.33,1.17C715.62,353.85,715.73,353.47,715.84,353.05z"/>
	<path d="M719.33,341.45c-0.59,2.16-1.78,4.99-3.49,11.6C716.57,350.46,717.91,348.51,719.33,341.45z"/>
	<path d="M669.54,331.19c-0.14,0.02-0.21-0.06-0.1,0.1L669.54,331.19z"/>
	<path d="M668,334.99l0.1-0.1C667.93,334.86,667.9,334.75,668,334.99z"/>
	<path d="M739.79,49.06c-0.09-1.34-0.21-2.77-1.34-3.9c-1.39-1.39-6.95-18.14-18.9-23.62c-6.23-2.86-0.12-3.29-5.85-9.14
		c-0.1-0.1-0.22-0.24-0.32-0.38c1.82,0.18,2.92,1.3,6.28,4.18c-1.48-3.7-7.29-6.65-9.65-6.06c0.35,0.31,4.67,2.14,2.16,1.34
		c-3.74-1.56-5.09,0.36-8.32,2.67c-0.62-1.44-0.61-1.43-0.41-1.75c2.42-3.76,5.55-6.37,10.17-6.68c2.18,0,1.44-1.26,2.16,0
		c4.72,5.44,8.94,11.19,10.37,18.49c1.38-6.44-5.91-19.35-12.12-22.9c-5.5-3.15-10.91,0.28-11.19,1.13
		c-0.62,3.26-9.6,7.88-6.68,17.25c-0.62,0.31-1.23,0.62-1.75,0.72c-3.49,0.92-6.66,2.5-9.96,3.9c-6.75,2.86-8.78,7.96-12.63,14.28
		c-2.68,4.39-0.7,2.95-1.85,4.72c-2.99,4.62-5.7,4.59-9.65,5.75c-11.7,3.45-12.16-9.06-38.41-10.17
		c-24.82-1.05-55.06,16.14-61.73,25.37c-5.85,8.11-13.7,9.88-30.4,23.11c-7.9,6.25-12.41,6.18-29.37,9.35
		c-6.7,1.25-13.45,0.24-16.95-1.85c-8.92-5.31-43.1-5.09-55.56,11.61c-5.59,7.48-3,11.5-9.24,13.66
		c-27.56,9.55-14.34,2.71-50.22,19.62c-11.49,5.41-26.53,10.58-38.72,15.1c-4.65,1.72-17.16-0.1-25.78,0.72
		c-13.86,1.32-27.52,6.12-32.35,8.73c-3.38,2.08-51.31,22.71-54.13,24.24c-4.73,2.56-9.96,3.59-15.3,4.62
		c-1.78-2.97-0.69-4.54-8.42-2.88c-11.68,2.52-3.29-0.13-20.85,4.42c-6.07,1.57-7.98,0.97-8.63,4.21c-0.69,2.07,1.03,1.43-2.26,2.57
		c-2.78,0.96-2.4,5.32-1.23,7.81c1.39,2.96,1.1,3.9,1.64,7.5c1.07,6.99,8.42,18.08,16.02,21.67c0.51,0.21,1.03,0.62,1.34,0.82
		c6.85,21.54,3.99,19.4,16.33,27.11c5.14,3.21,17.97,8.96,24.75,7.91c7.31-1.14,8.12-6.79,9.14-9.35c0.67-0.67,4.66-1.51,4.21-6.78
		c-0.62-7.31-1.93-6.48-8.73-10.17c-1.44-2.98-2.67-6.37-5.55-8.32c-0.72-6.84-0.81-5.42-2.36-9.76c2.6-4.88,1.71-1.67,3.39-10.89
		c0.21-1.13-0.1-2.06-0.82-2.98c-0.41-0.52-1.34-0.51-1.23-1.54c2.57-0.62,5.24-1.42,7.91-1.75c8.4-1.03,12.39-3.27,18.9-2.05
		c2.65,0.5,21.52-0.44,24.55-0.51c3.85-0.09,23.38-4.23,29.37-5.65c10.1-2.38,14.54-6.11,17.87-5.44c2.77,0.72,5.65,0.1,8.42,0.62
		c0.41,0.1,0.82-0.21,1.03-0.72c-9.66-1.61-8.91-1.43-5.75-3.8c-4.48-1-1.3,2.18-14.69,5.55c-8.13,2.04-33.59,10.65-61.01,8.11
		c-7.91-0.73-11.13,0.33-29.68,4.52c-6.49,1.47-6.67,4.47-19.62,1.23c-1.64-0.41-2.55-1.45-3.29-2.98
		c-1.87-3.87-0.99-6.42,0.72-10.89c2.38-6.23,8.81-3.87,12.94-4.62c19.16-3.47,24.49-9.75,31.84-12.63c9-3.53,16.2-8.01,19.41-8.94
		c30.59-8.87,37.04-6.94,48.48-8.63c2.97-0.44,5.86-1.25,8.83-1.03c1.23,0.09,2.67-0.41,3.8-0.92c4.49-2.04,9-1.45,12.32-2.88
		c5.3-2.26,10.2-3.36,14.69-5.34c73.32-32.37,64.56-26.65,72.2-30.91c0.5,0-0.21-1.59,6.78,20.64c-2.38,1.43-2.02,0.89-1.64,1.64
		c3.26-0.47,1.7-1.7,6.37,8.52c5.76,12.62,4.32,14.17,10.27,23.31c0.41,0.72,0.72,1.44,1.13,2.26
		c-11.92,5.11-68.75,12.54-71.48,12.43c-8.62-0.36-5.25-0.51-15.1-0.51c4.83,2.66,8.06,2.85,15.92,2.46
		c21.2-1.05,55.12-5.7,73.64-13.04c6.26-2.49,6.93-1.73,12.02-5.03c5.4-3.51,11.97-8.44,14.58-9.55
		c20.26-8.61,22.56-4.73,37.18-14.48c2.29-1.53,1.47-0.68,2.67-3.08c14.32,0.82,22.75-3.7,29.68-5.14
		c14.12-2.92,15.61-2.45,18.18-4.42c3.98-3.06,10.14-2.83,20.34-9.04c11.68-7.12,21.91,3.83,29.68,0.72
		c0.01,0.1,2.23,19.67,4.01,30.5c0.57,3.47-0.82,0.23-0.82,9.04c0,31.41,1.31,20.88,0.51,24.85c-1.88,7.06-0.31,13.38,0.21,26.81
		c0.19,4.93,1.12,9.66,2.26,14.38c0.72,2.98,1.85,5.85,4.83,7.19c0.49,2.47-0.01,5.45,1.75,12.12c0.61,2.31-0.5,2.88,1.34,7.6
		c0.8,2.06,2.16,4.01,2.46,6.27c0,1.03,6.22,5.88,19.62,2.88c10.78-2.42,11.14,2.55,23.83,1.64c4.71-0.34,3.58-2.76,4.83-3.7
		c18.87,0.82,10.66,1.94,17.56-2.77c2.76-1.89,1.67-5.63-5.96-6.06c-7.28-0.41-3.76-0.84-11.19-1.34
		c-10.24-0.68-6.88-1.91-13.76-2.88c-3.45-0.48-2.17-1.6-6.47-1.34c-14.94,0.94-10.15-0.2-14.99-3.7c-1.67-1.2-2.05-2.67-1.34-4.62
		c8.86,0,10.03,3.97,12.94-3.8c3.76,1.01,4.76-0.11,12.02,0.31c6.77,0.39,12.87,2.09,14.28-6.37c-3.29-1.32-8.96-0.39-14.48-2.36
		c-0.31-0.15-3.26-0.19-6.37-0.92c-10.11-2.39-14.03,0.01-19.31-1.54c-0.39-0.98-0.5-0.92,0.21-5.44
		c1.29-8.25,0.18-15.95,2.46-25.06c3.66-14.61,0.7-12.25,2.88-24.34c1-5.57,0.85-8.26-1.44-19.72c-0.94-4.71,1.72-6.9,1.54-14.69
		c-0.35-15.4-4.12-12.75,1.34-36.56c0.92-4.01,2.34-7.91,3.08-12.02c0.7-3.91,2.46-7.39,3.7-11.19c0.82-0.21,1.65-0.84,2.36-0.72
		c2.47,0.41,11.76-1.54,16.64-1.54c2.31,6.92,3.11,10.92,6.37,13.35c2.09,1.56,3.22,0.27,7.5-1.44c3.18,0.82,3.18,0.82,6.26-1.54
		c1.34,1.23,2.77,1.34,4.31-0.1c0.51-0.41,1.54-0.41,2.26-0.62c5.88,6.42,4.05,5.03,10.37-1.95c4.91-5.42,6.04-5.13,7.6-5.75
		c1.17,5.26,0.59,13.69,4.93,16.95c0.1-0.72,0.31-1.23,0.21-1.64c-0.91-4.86-0.25-12.73,1.44-16.54c0.24,2.15-1.9,13.4,6.16,23.72
		c0.4,0.52,0.92,1.13,1.95,0.62c-0.57-0.99-2.17-3-2.05-3.59c0.31-1.66-2.99-12.88-2.26-20.34c0.1-0.41-0.21-0.92-0.31-1.34
		c-2.05,3.07,1.02,15.94,0.72,18.38c-2.46-6.16-3.9-12.02-3.08-18.28c1.13-1.03,2.26-2.16,4.01-2.98c0.92,3.18,0.57,6.17,0.82,9.04
		c0.86,9.82,0.34,8.83,1.13,8.83c0.5-3.47,0.54-1.9,1.34-0.31c2.67-7.7,4.11-15.2,3.7-23.21c1.06-1.06,3.94-3.32,4.52-4.62
		C740.42,61.74,740.5,59.17,739.79,49.06z M183.95,194.08c0.31-0.51,0.82-0.51,1.44-0.21c-3.46,0.69-2.31,1.33-6.2,1.53
		C180.59,194.38,182.27,194.19,183.95,194.08z M178.9,195.52c-1.12,1.03-2.61,1.13-4.4,1.34C176,195.76,177.41,195.53,178.9,195.52z
		 M172.76,197.37c-2.05,0.82-4.11,1.64-5.96,2.46C164.81,198.09,170.14,197.12,172.76,197.37z M219.39,241.94
		c0.21,0.1,0.51,0.1,0.62,0.21c3.69,5.53,2.71,9.85,7.39,9.96c5.79,0.14,4.42,5.07,4.42,8.52c0,1.75-1.03,2.46-2.57,2.98
		c-0.82-1.95,0-3.9-0.51-5.75c-1.15-2.29-3.47-0.58-7.81-7.29C219,247.58,218.67,245.95,219.39,241.94z M190.01,204.56
		c-1.57,5.11,1.24,11.17,7.19,12.02c15.63,2.23,12.34-0.41,17.56,0.51c3.26,0.33,1.2-0.49,4.83,0.72c-0.41,2.88-1.21,5.45-1.95,8.01
		c-0.3,1.03-1.13,1.85-1.75,2.67c-2.88-0.31-5.14,0.92-7.39,2.26c-0.62,0.41-0.51,1.54,0.21,1.75c0.72,0.21,1.44,0.51,2.05,0.31
		c5.72-1.85,4.3-3.33,5.96,0.82c-3.25,1.08-4.72,1.1-5.03,2.36c-0.25,1.49,2.11,1.73,2.98,1.44c0.82-0.21,1.64-0.72,2.67-1.23
		c0.62,1.44,0.51,2.77,0.1,4.21c-1.42,0.31-3.76,0.78-3.39,2.26c0.36,1.44,2.45,1.04,3.39,0.92c-0.31,7.19,3.7,11.71,9.65,14.99
		c1.03,3.18-0.72,6.26,0.31,9.35c-2.1,3.7-7.6,5.38-9.45,4.93c-16-3.9-21.84-8.06-28.04-12.94c-2.11-1.66-2.65-2.36-6.57-14.69
		c-1.9-5.96,0.19-6.3-2.16-7.6c-1.16-1.16-1.72,1-10.68-9.65c-7.5-8.92-6.07-18.5-7.29-19.31c-1.85-1.44-0.82-3.18-0.92-5.03
		c5.14-1.54,9.55-4.52,14.69-5.55c3.8-1.95,8.23-2.02,12.22-3.39c7.5-2.56,7.28-3.27,8.63-2.46
		C196.66,195.7,193.29,193.89,190.01,204.56z M199.67,195.42c-0.66-0.33-0.51-0.32-0.31-0.51
		C200.14,195.29,199.84,195.25,199.67,195.42z M218.77,190.39c0.82-1.44,2.26-1.44,3.7-1.44C221.24,189.36,220,189.87,218.77,190.39
		z M411.24,126.3c-68.41,26.96-74.67,32.72-85.35,33.69c-4.42,0.4-8.52,1.75-12.63,3.8c-8.17-2.6-53.09,7.39-53.3,7.39
		c29.22-12.91,30.37-11.93,52.28-13.87c5.93-0.52,7.42,1.22,13.04-0.1c39.65-9.36,57.7-24.34,76.1-29.78
		c8.5-2.52,12.07-4.27,16.84-5.14C415.86,124.55,413.51,125.4,411.24,126.3z M714.94,18.66c-0.28,0-0.21-0.09-0.21-0.41
		c-0.48,0.2-0.69-0.08-0.8-0.62C714.75,17.5,714.67,18.4,714.94,18.66z M713.89,17.52c-1.23-0.59-1.77-1.78-2.59-2.68
		C712.53,15.42,713.64,16.03,713.89,17.52z M711.03,14.66c-0.48,0.01-0.98,0.1-1.75,0.1C710.15,13.9,710.57,14.2,711.03,14.66z
		 M709.29,15.99c2.44,1.22,1.72,0.89,2.57,1.95c-2.18,0-1.44,0.62-3.08-1.44C708.98,16.4,709.08,16.2,709.29,15.99z M706.52,15.69
		c0.1,0,0.1,0.1,0.21,0.21C706.26,16.35,706.29,15.69,706.52,15.69z M652.39,51.53c0-0.1,0.1-0.1,0.21-0.1
		c0.1,0.1,0.1,0.21,0.21,0.31C652.36,51.73,652.39,52.08,652.39,51.53z M430.03,107.91c0.46-3.22,8.79-8.41,10.5-8.33
		c-1.27,1.37-4.93,2.44-8.85,7.2C431.26,107.29,430.55,107.5,430.03,107.91c0,0.21-0.1,0.41-0.21,0.51
		C429.42,107.91,429.83,108.02,430.03,107.91z M496.18,156.39c-4.13,1.7-8.32,2.97-12.63,3.8c-11.58,2.22-19.17,8.13-35.84,18.28
		c-2.83,1.53-4.07,2.45-5.75,0c-6.34-9.24-6.06-14.23-12.32-29.07c-3.82-9.05-6.54-17.69-9.76-27.73c2.16-1.73,1.52-2.5,2.88,0.21
		c14.52-18.36,15.48-24.75,48.37-24.75c8.25,0,9.18,2.61,10.48,1.75c-2.15-4.3-16.85-3.78-21.77-3.7
		c-12.3,0.21-16.96,4.6-18.99,4.22c4.45-4.18,6.76-3.95,15.5-5.04c6.56-0.82,23.42-1.11,28.14,3.08c1,0.89,1.34,0.79,8.22,2.26
		c3.57,10.7,3.48,11.78,6.68,22.29c5.87,19.29,3.84,7.46,8.01,29.37C501.9,155.41,497.82,155.71,496.18,156.39z M578.65,129.69
		c-6.33,2.71-23.47,9.29-24.85,9.65c-15.17,3.99-39.44,12.16-44.88,7.81c1.78-1.5,3.22-0.81,7.5-4.31c1.65-1.15,5.13-5.38,5.75-6.06
		c-1.03-0.21-1.64,0.21-2.16,0.72c-1.82,1.82-8.71,6.87-11.3,6.47c-0.15-0.6-13.86-42.85-13.45-44.06
		c1.93-0.48,9.33-1.03,16.02-1.85c10.95-1.34,16.4-6.37,46.32-26.5c10.37,20.74,8.6,12.87,14.48,28.55
		c0.55,1.46,6.38,17.51,6.26,18.08c-0.31,3.18,1.24,5.95,1.85,8.94C580.56,128.92,580.91,128.56,578.65,129.69z M607.41,119.73
		c0.1,3.8,0.31,7.19,0.41,10.78c-14.01-2.8-3.8-0.38-15.41-5.34c-1.07-0.46-1.23-0.42-9.24,2.05c-3.83,1.18,0.39-12.8-15.3-41.39
		c-0.42-0.76-5.3-9.28-5.85-9.65c-2.07-1.41-2.26-3.8-3.49-5.65c8.11-10.13,31.29-23.67,36.97-24.24
		c-1.71,4.57-3.63,8.41-2.77,12.53c0.79,3.8-1.07,13.17,4.31,24.24c1.6,3.29,3.9,6.88,7.19,8.52c5.66,2.83,3.09,2.57,5.33,1.44
		c0.37,2.56,0.56,4.08,0.21,8.11C608.13,120.18,608.67,119.27,607.41,119.73z M619.11,240.71c-2.42-1.32-1.4-3.73-2.57-8.32
		c-3.42-13.43-3.1-30.57-3.29-44.47c-0.17-13.1-0.68-12.79,0.51-12.94c1.36,0.68,1.84,23.13,1.85,23.42
		C615.69,202.22,620.22,235.83,619.11,240.71z M688.13,266.08c0.87,0,0.8,1.13,0,1.13c-0.1-0.03-3.14-0.97-3.24-1.13
		C685.97,266.07,687.05,265.98,688.13,266.08z M679.91,265.16c1.39,0.14,2.23-0.1,4.26,0.72c-6.41,0-0.62-0.82-7.96-0.82
		C677.45,264.33,678.68,264.44,679.91,265.16z M672.31,240.51c1.49,0.37,1.38-0.44,0.92,0.92
		C671.85,241.08,672.31,240.68,672.31,240.51z M636.16,237.73c0.41-0.14,11.89-0.21,15.2-0.21c1.03,3.51,4.85,3.21,19.1,4.72
		c0.82,0.09,1.54,0.51,1.44,1.75c-1.73,1.73-11.16-0.22-14.89,0.31c-8.23,0.72-3.26-0.66-10.48-0.21c-4.01-1.75-4.83-1.85-8.32-1.23
		c5.2,2.23,4.96-0.45,10.17,4.21c-0.51,2.06-2.76,2.21-4.83,1.75c-9.66-2.17-6.43-1.08-7.09-6.37
		C636.37,240.92,635.55,239.48,636.16,237.73z M649.21,64.16c-0.3-0.52-0.51-1.13-0.92-1.95c-3.1,3.1,2.33,5.17,0.62,16.02
		c-1,6.33-1.32,11.44-2.05,14.38c-3.35,2.01,0.47-2.81-5.44,17.46c-1,3.45-3.17,18.23-3.08,21.88c0.32,13.58,1.64,16.82,0.21,24.14
		c-1.46,7.44,2.96,10.89,1.34,24.24c-0.44,3.59-1.45,7.29-1.34,10.89c0.18,5.44-1.04,10.58-2.16,15.71
		c-1.24,5.7-1.27,12.02-2.05,29.37c-0.26,2.35-0.79,3.82-0.31,4.83c1.41,2.95-0.81,3.64,1.13,9.76c0.49,1.55,0.41,1.64,0,3.59
		c2.26,3.62,1.89,4.96,4.93,5.34c5.1,1.02,12.01-0.11,17.05,0.92c0.11,0.02,7,1.49,7.91,1.95c4.52,2.26,6.9,0.59,9.35,1.95
		c-8.21,0.75-5.06,0.57-13.15,0.21c1.23,3.06,8.48,1.95,12.74,1.95c1.05,0,6.61,1.18,13.56,2.36c0,2.73-2.79,2.29-6.88,1.75
		c-4.42-0.58-8.83-0.21-13.04-1.75c-3.38,0.79-4.33-2.72-14.79-3.59c0.31,0.51,0.51,0.92,0.72,1.03c6.67,2.56,8.43,2.86,11.4,4.93
		c0.95,0.66,3.58,1.24,4.83,1.95c-12.24,1.7-12.78-3.21-21.67-1.85c-8.46,1.29-13.45,0.99-18.9-0.31c-0.62-0.82,0.1-1.84-0.92-2.57
		c-1.73-1.22-2.02-4.16-3.8-5.85c-0.84-0.8-1.33-2.26-1.13-3.59c0.62-4.09-1.25-7.2-0.82-13.76c0.37-5.79-2.21-20.63-1.95-21.16
		c1.87-3.81-3.61-18.81-2.46-45.6c0.21-4.85-3.08-6.26-3.08-9.14c-0.44-8.28-1.92-3.88-1.44-8.83c0.41-4.22,0.3-4.26-3.29-28.55
		c-1.59-10.78-0.71-10.19,0.41-21.16c0.13-1.26,1.4-15.44,1.23-15.92c-0.88-2.48-0.84-5.13-1.23-7.7c-0.41-2.73-2.4-3.37-1.95-1.13
		c0.29,3.15,0.58,5.11,0.81,6.67c-2.56-0.2-10.11-9.39-12.52-19.2c-1.05-4.28-1.23-11.1-1.23-15.51c0-8.26,4.35-16.01,12.63-16.54
		c7.28-0.46,12.02-1.14,14.89-0.62c23.43,4.24,11.65,3.24,26.29,8.73c2.46,5.24,2.98,10.58,1.03,16.43
		C650.13,65.5,649.62,64.88,649.21,64.16z M716.99,87.27c-0.4-1.19-0.8-0.78,0.31-1.34C717.3,86.16,717.64,88.24,716.99,87.27z
		 M728.19,94.97c-0.64-17.3-1.81-15.65,2.46-18.28C731.67,79.74,729.74,90.56,728.19,94.97z M736.88,64.81
		c-0.34-2.02,2.11-5.24,1.17-8.45c-3.51,9.82,0.54-2.35-3.7-8.63c0.62,7.29,1.23,14.48-3.08,21.16c0.97,1.46,1.03-0.04,0.1,4.62
		c-8.53,7.51-9.62,6.06-14.58,10.48c-1.17,0-4.57-0.74-7.81,2.05c-3.98,3.44-6.11,6.57-7.91,10.17c-3.08-1.64-3.7-5.03-5.65-7.29
		c-0.92,0.72-0.41,1.75-0.72,2.88c-0.92,0.51-2.05,1.23-3.29,1.95c-0.72-0.62-1.44-1.03-1.85-1.64c-1.33-1.77-1.47-3.92-2.98-3.49
		c-0.51,0.21-0.62,1.13-0.1,1.85c0.21,0.41,0.62,0.61,0.92,1.03c1.53,2.13-0.67,3.48-3.59,2.77c-2.43-0.58-3.42,0.88-6.37,1.54
		c-5.45,0.84-3.84-15.36-9.96-14.07c-4.44,0.94-4.25-0.02-13.66,1.64c-5.94,1.48-0.15-2.9-2.26-12.63
		c-1.23-5.67,4.54-8.34,2.98-18.18c7.97-0.36,18.52-4.31,19.41-13.25c0.54-5.44,11.26-11.94,16.43-14.58
		c8.01-4.1,2.91-2.86,10.68-4.72c-3.45,5.75-9.64,2.75-11.4,20.95c1.34-3.29,1.85-6.88,4.42-10.27c-0.31,3.49-0.82,6.37,0.51,8.73
		c0.76-4.55,1.3-9.62,3.9-12.84c-0.51,4.01-0.92,7.5-1.34,10.99c0.92-1.13,1.23-2.36,1.44-3.59c2.6-15.25,3.57-10.74,2.77-15.1
		c-3.52,0.27-4.68,1.01-4.62-2.05c0.1-5.37,3.83-8.63,8.01-13.04c3.33-3.51,8.58-1.15,10.46,1.17c-4.81-1.41-8.37,0.71-11.38,4.07
		c-2.48,2.76-2.57,4.83-0.72,8.01c1.28,2.57,4.01-1.03,11.09,6.06c4.47,4.47,9.4,10.39,10.23,10.47c-1-3.01-2.78-3.26-10.43-12.83
		c9.01,3.81,12.72,8.48,22.18,24.44C738.4,48.88,740.8,60.54,736.88,64.81z"/>
	<path d="M724.59,33.56c-0.18,0-0.16-0.06-0.1,0.1L724.59,33.56z"/>
	<path d="M329.69,199.42c5.17,1.13,1.85-1.05,14.69-1.64c3.08-0.14,5.96-1.13,8.83-2.26c0.51-0.1,0.82-0.62,1.34-0.92
		c-0.31-0.31-0.31-0.41-0.41-0.41c-0.62,0-1.23-0.1-1.75,0.1c-6.59,2.2-9.84,1.06-16.43,2.36
		C322.35,199.33,327.51,198.95,329.69,199.42z"/>
	<path d="M358.86,173.44c-10.86,3.05-10.01,2.71-10.37,3.8c1.23,0.41-0.71,1.04,8.32-2.16
		C357.63,174.79,358.65,174.57,358.86,173.44z"/>
	<path d="M327.12,175.19c-0.1,0,0.1,0.51,0.21,0.82c3.39-0.92,5.65-2.26,8.11-4.62C332.36,171.8,329.69,173.44,327.12,175.19z"/>
	<path d="M198.54,210c1.03,0.62,1.85,0.31,3.08-1.03c-2.16-0.72-2.16-0.72-4.21-2.77C196.89,208.36,197.2,209.49,198.54,210z"/>
	<path d="M214.66,529.52c-0.21,1.95,0.11,2.97,1.23,3.59c0.93,0.51,1.64,0.31,3.49-1.13c-0.92-0.21-1.85-0.41-2.67-0.82
		S215.89,529.41,214.66,529.52z"/>
	<path d="M316.75,502.1c-1.36,0,1.79-1.18-7.7,3.39C312.75,504.97,314.49,504.15,316.75,502.1z"/>
	<path d="M197.82,205.18c2.05,0.21,2.16,0.21,4.72-2.26C200.8,203.22,198.85,203.22,197.82,205.18z"/>
	<path d="M368.31,514.83c-2.16-1.13-3.9-1.03-5.75-0.72C364.1,515.24,365.95,515.04,368.31,514.83z"/>
	<path d="M215.28,527.87c1.44,0.82,2.67,0.21,4.83-2.16C218.15,526.23,216.51,526.44,215.28,527.87z"/>
	<path d="M345.2,191.21c1.54,0.82,3.18,1.03,5.24,0.51C347.87,190.69,347.87,190.69,345.2,191.21z"/>
	<path d="M299.19,179.19l-0.1-0.1C298.96,179.28,298.86,179.28,299.19,179.19z"/>
	<path d="M298.96,179.25c-1.97,0.51-3.93,1.23-5.42,2.81C295.73,181.77,297.63,181.07,298.96,179.25z"/>
	<path d="M303.6,506.41c-1.44,0.31-2.57,0.82-3.8,1.95C302.94,507.73,302.66,507.82,303.6,506.41z"/>
	<path d="M229.25,523.15c1.03,0.41,1.95,0.62,2.67-0.62C230.68,522.02,229.86,521.92,229.25,523.15z"/>
	<path d="M205.32,201.68c1.23,0.31,2.05-0.1,2.88-0.92C206.14,200.45,206.14,200.45,205.32,201.68z"/>
	<path d="M211.79,200.35c0.92,0,1.64-0.1,2.36-0.1C212.81,199.12,212.81,199.12,211.79,200.35z"/>
	<path d="M363.07,171.28c-0.11,0.1,0,0.41,0.1,0.72c1.44-0.41,2.57-1.13,3.59-2.05C365.33,169.64,364.18,170.23,363.07,171.28z"/>
	<path d="M222.57,524.59c1.34,0.62,2.16,0.1,3.08-0.82C224.32,523.46,223.29,523.36,222.57,524.59z"/>
	<path d="M329.59,195.62c0.1,0.92,0.41,1.23,1.13,1.23c0.51,0.1,1.03,0.1,1.03-0.51C331.75,195.29,330.11,195.62,329.59,195.62z"/>
	<path d="M337.6,170.05c1.23,0,2.05-0.41,2.77-1.44C339.14,168.51,338.22,168.72,337.6,170.05z"/>
	<path d="M347.15,519.04c0.52,1.05,0.94,0.72,2.26,0.72C349.08,517.92,347.15,518.49,347.15,519.04z"/>
	<path d="M234.48,521.3c1.51,0,1.29-0.11,1.54-0.62c-0.73-0.37-0.29-0.52-1.75,0.21C234.28,521.1,234.38,521.2,234.48,521.3z"/>
	<path d="M322.4,194.39c0.82,0.41,1.23-0.21,1.85-0.72C323.32,193.26,322.71,193.47,322.4,194.39z"/>
	<path d="M285.84,183.51c-0.82,0.31-1.85,0.31-2.26,1.34C283.79,184.81,287.15,184.6,285.84,183.51z"/>
	<path d="M339.96,517.6c0.62-0.21,1.13-0.41,1.95-0.82C340.68,516.37,340.17,516.47,339.96,517.6z"/>
	<path d="M659.94,416.51c-0.21-0.93-0.47-1.8-0.67-2.64C659.36,414.74,659.02,415.79,659.94,416.51z"/>
	<path d="M659.99,416.75l0.1-0.1C659.86,416.49,659.95,416.41,659.99,416.75z"/>
	<path d="M346.54,508.26c-1.44-0.41-2.05-0.62-3.29,0.31C344.48,508.46,345.1,508.36,346.54,508.26z"/>
	<path d="M326.71,185.35c0.31,0,0.62,0.1,0.92,0.1c0.21,0,0.51-0.21,0.82-0.31C327.84,185.05,327.12,184.33,326.71,185.35z"/>
	<path d="M659.99,416.75c0.1,0.41,0.1,0.92,0.21,2.26C660.61,417.67,660.3,417.26,659.99,416.75z"/>
	<path d="M418.33,149c-0.21,0.21-0.51,0.31-1.13,0.82C418.82,149.59,418.33,149.48,418.33,149z"/>
	<path d="M217.13,197.88c0,0.27-0.18,0.21,1.13,0.21C218.38,198.09,218.91,197.44,217.13,197.88z"/>
	<path d="M326.92,193.16c0-0.27,0.05-0.23-0.21-0.1L326.92,193.16z"/>
	<path d="M270.84,188.13v-0.1C270.46,188.02,270.41,187.98,270.84,188.13z"/>
	<path d="M283.31,185.04c0.04-0.05,0.14-0.13,0.27-0.2C283.39,184.93,283.17,185.01,283.31,185.04z"/>
	<path d="M283.37,185.05c-0.04,0-0.04-0.01-0.06-0.01C283.28,185.08,283.29,185.09,283.37,185.05z"/>
	<path d="M292.51,182.38c0.39,0,0.59,0.47,1.03-0.41C293.1,182.18,293.17,181.72,292.51,182.38z"/>
	<path d="M663.58,425.17c-0.27-0.35-0.45-0.71-0.63-1.06C662.93,424.55,662.91,425.01,663.58,425.17z"/>
	<path d="M662.97,423.83l-0.1,0.1C662.98,424.16,662.97,424.19,662.97,423.83z"/>
	<path d="M664.2,426.71c-0.51-1.28-1.14-2.5-0.1,0.1L664.2,426.71z"/>
	<path d="M661.33,421.16c0.1,0.1,0.1,0.31,0.1,0.51C661.43,421.81,662.28,422.12,661.33,421.16z"/>
	<path d="M661.22,420.45c0-0.1-0.1-0.21-0.1-0.31c-0.25,0.5-0.36,0.59,0.31,0.92C661.22,420.96,661.22,420.65,661.22,420.45z"/>
	<path d="M659.48,423.32c-0.1-0.1-0.21-0.1-0.31-0.1C659.27,423.22,659.37,423.32,659.48,423.32z"/>
	<path d="M664.82,427.43l0.1-0.1C663.42,426.32,664.42,427.03,664.82,427.43z"/>
	<path d="M668.82,429.17c-0.1-0.1-0.31-0.21-0.41-0.31C668.51,429.17,668.31,429.48,668.82,429.17z"/>
	<path d="M664.82,427.43c0.1,0,0.1,0.1,0.21,0.1C665.02,427.53,664.92,427.43,664.82,427.43z"/>
	<path d="M366.87,169.85c-0.13,0.13-0.13,0.08,0,0.21V169.85z"/>
	<path d="M359.07,173.34c-0.26,0.13-0.24,0.07-0.1,0.21L359.07,173.34z"/>
	<path d="M299.19,179.19c0-0.1,0.1-0.21,0.1-0.31C299.19,178.99,299.19,179.09,299.19,179.19z"/>
	<path d="M611.62,434c-2.11-1.06-11.29,2.59-13.87,4.52c2.46-0.31,11.5-2.88,13.56-3.9C611.51,434.52,611.51,434.21,611.62,434z"/>
	<path d="M620.65,459.06c-0.42,2.36-1.44,4.52-1.13,7.29c2.77-7.39,3.29-10.78,2.26-14.38C621.37,454.44,621.06,456.8,620.65,459.06
		z"/>
	<path d="M636.06,441.19c0.69,4.81,0.19,4.72,0.92,5.03C638.22,444.17,638.01,442.63,636.06,441.19z"/>
	<path d="M631.34,411.3c1.75,1.44,3.18,2.05,4.93,1.95C631.96,411.1,633.66,411.77,631.34,411.3z"/>
	<path d="M618.7,471.8c-0.72,1.03-0.72,2.16-0.62,3.7C619.19,474.3,619.97,472.64,618.7,471.8z"/>
	<path d="M611.51,442.12c1.03-0.51,2.05-1.03,3.29-1.64C612.41,439.79,610.39,441.22,611.51,442.12z"/>
	<path d="M606.07,538.97c0.21-0.92,0.82-1.85,0-2.88C606.07,537.22,606.07,538.04,606.07,538.97z"/>
	<path d="M631.64,435.03c0.46-0.7,0.54-0.21,0.21-1.54C631.4,434.39,631.3,433.64,631.64,435.03z"/>
	<path d="M605.45,549.85c0,0.21-0.1,0.51-0.1,0.82c0.1,0,0.21,0.1,0.21,0.1C605.56,550.31,605.83,549.85,605.45,549.85z"/>
	<path d="M589.23,440.58l0.31,0.1C589.53,440.54,589.6,440.58,589.23,440.58z"/>
	<path d="M434.55,450.33c-0.38,5.08,3.67,10.43,8.52,11.61C441.49,458.55,440.87,462.26,434.55,450.33z"/>
	<path d="M449.65,451.36c-0.31,2.88,0.62,5.75,3.18,8.73C450.03,450.73,450.14,451.6,449.65,451.36z"/>
	<path d="M496.89,425.48c1.03,1.23,3.49,2.05,6.16,1.95c-6.67-3.03-3.62-1.39-6.78-3.49C496.48,424.45,496.48,425.07,496.89,425.48z
		"/>
	<path d="M506.22,417.47c-0.43,0.01-0.63,0.24-0.61,0.63c1.15-1.15,3.5-1.44,5.86-4.53C509.53,414.36,506.04,416.64,506.22,417.47z"
		/>
	<path d="M492.68,419.01c-0.1,2.67,0.92,3.7,2.88,4.11C495.5,423.05,492.72,419.06,492.68,419.01z"/>
	<path d="M516.1,419.62c-0.21,0.31-0.41,0.62-0.82,0.92C515.69,420.55,515.7,421.23,516.1,419.62z"/>
	<path d="M459.51,466.76c0.89,0.89,0.19,0.69,1.03,0.41c-0.31-0.21-0.51-0.31-0.72-0.51C459.72,466.56,459.61,466.76,459.51,466.76z
		"/>
	<path d="M517.03,419.01c0.08-0.51,0.25-0.89,0.41-1.37C517.02,418.02,516.93,418.47,517.03,419.01z"/>
	<path d="M517.64,417.47l-0.1-0.1C517.41,417.79,517.36,417.64,517.64,417.47z"/>
	<path d="M472.86,473.75c-0.25-0.13-0.25-0.15-0.1,0c0.35,0.18,0.5,0.53,0.92,0.1C473.55,473.72,473.48,473.75,472.86,473.75z"/>
	<path d="M499.87,407.5c0.28,0,0.61-0.2,0.72-0.31C500.19,406.8,500.12,407.02,499.87,407.5z"/>
	<path d="M505.52,418.2c-0.25,0.32,0-0.01,0.1,0.09c0.02-0.04,0.01-0.05,0-0.04C505.59,418.08,505.66,418.05,505.52,418.2z"/>
	<path d="M446.57,464.4c-0.1,0-0.21-0.1-0.31-0.1C446.26,464.3,446.36,464.4,446.57,464.4z"/>
	<path d="M453.66,469.64c0.1,0.1,0.1,0.1,0.21,0.1C453.67,469.74,453.66,469.54,453.66,469.64z"/>
	<path d="M453.55,469.54c0.03,0.03,0.06,0.06,0.1,0.09C453.66,469.61,453.65,469.54,453.55,469.54z"/>
	<path d="M452.94,468.72c-0.1,0.1-0.3,0.04,0.72,0.72C453.45,469.23,453.14,469.02,452.94,468.72z"/>
	<path d="M446.57,464.4l-0.1,0.1C446.68,464.72,446.57,464.67,446.57,464.4z"/>
	<path d="M447.81,465.75c-0.25-0.25-0.46-0.45-0.62-0.6C447.2,465.58,447.37,465.77,447.81,465.75z"/>
	<path d="M447.16,465.12c0.01,0.01,0.02,0.02,0.03,0.03c0-0.01,0-0.01,0-0.02C447.18,465.12,447.17,465.12,447.16,465.12z"/>
	<path d="M447.16,465.12C446.08,464.13,446.74,465.1,447.16,465.12L447.16,465.12z"/>
	<path d="M517.85,417.47c0,0,0.1-0.1,0.1-0.21C517.72,417.49,517.72,417.47,517.85,417.47z"/>
	<path d="M517.75,417.46c-0.06-0.02-0.11-0.03-0.11,0.11C517.68,417.53,517.72,417.49,517.75,417.46z"/>
	<path d="M495.56,423.22c0,0.38,0.27,0.58,0.71,0.61C496.23,423.4,496.03,423.22,495.56,423.22z"/>
	<path d="M496.38,423.83c-0.04,0-0.07-0.01-0.11-0.01C496.27,423.98,496.27,423.94,496.38,423.83z"/>
	<path d="M452.94,468.72C452.63,468.51,452.83,468.72,452.94,468.72L452.94,468.72z"/>
	<path d="M448.01,465.74c-0.08,0.01-0.13,0.01-0.2,0.01C447.93,465.86,447.88,465.86,448.01,465.74z"/>
	<path d="M448.52,466.66c0.1,0,0.21,0,0.21,0.1C448.73,466.66,448.73,466.66,448.52,466.66z"/>
	<path d="M448.46,466.5c-0.22-0.22-0.39-0.41-0.55-0.66C447.9,466.25,448.11,466.41,448.46,466.5z"/>
	<path d="M448.46,466.5c0.06,0.05,0.1,0.1,0.16,0.16C448.76,466.52,448.79,466.58,448.46,466.5z"/>
	<path d="M516.81,419.01c-0.35,0.02-0.52,0.28-0.61,0.62C516.38,419.37,516.61,419.18,516.81,419.01z"/>
	<path d="M517.03,419.01l-0.1-0.1C516.75,419.08,516.77,418.98,517.03,419.01z"/>
	<path d="M499.77,407.62c-0.43,0.03-0.62,0.24-0.62,0.71C499.53,408.23,499.8,408.04,499.77,407.62z"/>
	<path d="M499.87,407.61l-0.1-0.1C499.81,407.67,499.69,407.61,499.87,407.61z"/>
	<path d="M499.15,408.33l-0.1-0.1C499.09,408.38,498.97,408.33,499.15,408.33z"/>
	<path d="M498.44,408.94c-0.45,0-0.65,0.17-0.63,0.64C498.07,409.37,498.25,409.13,498.44,408.94z"/>
	<path d="M499.05,408.34c-0.41,0.03-0.65,0.22-0.62,0.61C498.44,409.16,499.09,408.89,499.05,408.34z"/>
	<path d="M497.81,409.58c-0.19,0.19-0.16,0.17-0.17,0.18C497.88,409.76,497.81,409.79,497.81,409.58z"/>
	<path d="M497.1,410.39c0,0.2,0.02-0.06,0.53-0.63C496.9,409.75,497.03,410.76,497.1,410.39z"/>
	<path d="M674.27,343.52c1.84,2.52,2.37,4.21,3.8,4.21c0.62,0.1,1.44,0,1.44-1.13c-6.46-4.31-2.18-5.76-5.85-7.6
		c-3.32,0.83-8.43,1.8-8.63,4.83c0,0.51-0.31,0.92-1.03,0.82c-0.72-1.54,0-3.39-0.72-5.34c-1.3,3.65,0.62,4.23-1.13,8.01
		c-0.1,0.1,0.21,0.31,0.31,0.62c0.09-0.09,0.98-0.86,1.75-1.44c1.66,4.98,0.42,4.84,0,8.42c-0.43,3.63,4.43,2.3,4.83-0.1
		c-1.23-1.54-2.05,0.72-3.08,0.31c-0.1-0.31-0.31-0.62-0.21-0.72c3.18-6.08-2.54-10.67,3.96-12.26c-2.91,2.18-3.13,3.25-2.12,6.31
		c1.15,3.46-0.24,3.36,2.77,2.88c1.87-0.3,0.93-1.66,1.34-2.46c2.97-1.65,2.36-0.55,2.36-5.44h0.21c-0.99-0.49-0.66-1.37-0.8-2.16
		c-0.52,0-1.09,0-1.63,0c1.03-0.51,1.54-0.77,1.81,0.16c0.82,0.52,0.73,1.41,0.73,2.2L674.27,343.52z M672.21,343.21
		c0.1,1.23-0.92,0.72-1.13,1.23c1.54,0.82,1.54,0.82,2.05,2.46c-3.52,0.64-2.65-0.13-3.7,1.95
		C667.63,347.18,667.13,343.21,672.21,343.21z"/>
	<path d="M673.55,341.36l0.1,0.1C673.65,341.42,673.59,341.38,673.55,341.36z"/>
	<path d="M691.21,338.59l-0.1-0.1C690.84,338.65,691.03,338.59,691.21,338.59z"/>
	<path d="M690.98,338.6c-2.31,0.07-2.11-0.2-3.05-1.14c-4.92,0.7-4.29,0.44-5.14-0.23c6.69-0.64,3.51,0.39-2.88-2.75
		c-6.77-3.33-7.96-8.03-10.07-8.73c0.8,1.41,0.24,2.21,5.34,6.88c0.57,0.52,6.76,6.03,8.11,6.27
		C685.34,339.25,689.32,339.89,690.98,338.6z"/>
	<path d="M673.55,341.26l-0.1-0.1C673.48,341.28,673.42,341.26,673.55,341.26z"/>
	<path d="M698.5,356.67c1.95,1.54,2.16,4.21,4.11,5.75c1.54-1.34,2.88-2.67,4.01-3.8c1.23-0.41,2.57,0.31,3.39-1.03
		C706.31,356.15,702.61,355.64,698.5,356.67z M700.46,357.8c0.21-0.31,0.41-0.62,0.51-0.62c1.62,0,1.71-0.21,2.05,0.82
		C701.22,359.35,702.28,359.62,700.46,357.8z"/>
	<path d="M659.78,349.48c-1.06-11.33-0.93-10.57-1.13-10.89c-1.49-2.33-1.54-4.93-1.95-7.5c0-0.31-0.31-0.51-0.82-1.23
		c0,6.08,1.69,9.94,2.57,17.56C658.84,350.83,660.14,350.18,659.78,349.48z"/>
	<path d="M673.55,377.62c-0.55-3.82-7.56-6.51-4.31-16.02C670.43,356.8,661.1,368.28,673.55,377.62z"/>
	<path d="M693.68,333.45c-2.89,0.39-4.42-1.45-7.89-4.05c0.88,1.93,0.17,0.83,3.88,5.28c-0.72,0.21-1.64,0.72-2.26,1.34
		c4.59,0,7.43,0.67,5.96-1.54c0.51-0.1,1.03-0.21,1.44-0.31C694.29,334.07,693.88,333.56,693.68,333.45z"/>
	<path d="M685.53,329.23c-0.01,0-0.02,0-0.03,0C685.51,329.23,685.52,329.23,685.53,329.23z"/>
	<path d="M685.5,329.23c-0.04,0-0.09-0.03-0.14-0.09C685.36,329.2,685.42,329.22,685.5,329.23z"/>
	<path d="M685.57,329.23c0.3,0.3,0.21,0.15,0.09-0.09c-0.05,0.05-0.09,0.08-0.13,0.09C685.55,329.23,685.56,329.23,685.57,329.23z"
		/>
	<path d="M710.01,333.56c0-6.71-0.37,0.65,4.62,1.13c0-2.27-3.37-5.05-5.65-6.16c-0.21-0.1-0.51,0.1-0.72,0.1
		C708.77,331.4,708.88,331.81,710.01,333.56z"/>
	<path d="M673.86,313.32c6.5,0.32,11.4,2.46,13.76,2.46c-1.98-1.98-8.76-3.2-12.94-3.39C674.16,312.3,673.75,312.5,673.86,313.32z"
		/>
	<path d="M713.29,354.61c-1.13-3.08-4.31-4.72-9.14-4.83C705.49,351.23,705.55,350.74,713.29,354.61z"/>
	<path d="M691.62,326.16c2.88,3.9,4.07,4.74,5.96,3.8c-1.11-1.82-2.72-3.24-4.23-4.85C693.11,326.74,693.56,326.4,691.62,326.16z
		 M693.57,326.68c-0.27,0-0.17,0.03-0.25-0.12C693.42,326.58,693.51,326.61,693.57,326.68z"/>
	<path d="M683.71,344.96c0.43-0.43,0.17-0.49-7.19-2.26C677.47,344.91,681.7,346.47,683.71,344.96z"/>
	<path d="M697.58,324.31c0.1,0.21,0.1,0.51,0.21,0.51C711.72,342.25,700.1,324.31,697.58,324.31z"/>
	<path d="M682.79,340.44c-2.04,0-2.19,0.29-5.34-0.1c2.57,1.75,5.14,2.05,8.22,0.62C684.54,339.72,683.71,340.54,682.79,340.44z"/>
	<path d="M657.11,356.77c1.71-1.14,0.93-1.3,0.31-7.5C656.25,348.88,656.75,348.14,657.11,356.77z"/>
	<path d="M667.08,374.13c-0.1-0.21-0.31-0.31-0.51-0.62C657.51,383.96,667.6,376.72,667.08,374.13z"/>
	<path d="M651.77,318.77c-0.31,2.26-0.31,4.52,0,6.88C651.77,323.39,651.77,321.03,651.77,318.77z"/>
	<path d="M693.06,331.71c1.54,0.41,2.67,0.51,3.9,0C695.83,331.4,694.6,331.09,693.06,331.71z"/>
	<path d="M705.59,327.97c-0.04,0.94,0.36,1.7,1.34,1.99C707.03,328.98,706.37,328.38,705.59,327.97z"/>
	<path d="M705.59,327.81l-0.1,0.1C705.66,328,705.56,328.01,705.59,327.81z"/>
	<path d="M692.44,337.36c-0.51,0.51-0.82,0.82-1.23,1.23C691.73,338.38,692.75,338.79,692.44,337.36z"/>
	<path d="M707.03,331.5c0.31-0.62,0.92-1.23-0.21-1.54C706.93,330.48,707.03,330.99,707.03,331.5z"/>
	<path d="M696.45,334.48c-0.62-0.1-1.23-0.1-1.75-0.21C695.22,334.69,695.63,335.1,696.45,334.48z"/>
	<path d="M668.41,314.15c0.51,0.1,1.03,0.1,1.44,0.21C669.23,313.84,669.23,313.84,668.41,314.15z"/>
	<path d="M669.95,314.35c-0.13,0.13-0.16,0.12,0.06,0.07C669.99,314.4,669.97,314.38,669.95,314.35z"/>
	<path d="M672.11,314.97c-0.67-0.58-1.42-0.69-2.1-0.54C670.53,315.15,671.32,314.97,672.11,314.97z"/>
	<path d="M704.87,317.12c-0.51-0.21-0.92-0.51-1.54-0.62C704.19,316.85,704.65,317.35,704.87,317.12z"/>
	<path d="M703.43,316.41c-0.31-0.1-0.51-0.21-0.41-0.1C702.82,316.3,703.13,316.3,703.43,316.41z"/>
	<path d="M687.82,315.89c0.06,0.02,0.09,0.03,0.11,0.04C688,315.94,687.98,315.94,687.82,315.89z"/>
	<path d="M687.84,315.92c-0.04-0.01-0.08-0.01-0.14-0.01C687.75,315.91,687.8,315.91,687.84,315.92z"/>
	<path d="M687.94,315.93c-0.01,0-0.02,0-0.03,0C687.94,315.93,687.95,315.94,687.94,315.93z"/>
	<path d="M687.86,315.92c-0.01,0-0.01,0-0.02,0C687.84,315.92,687.85,315.92,687.86,315.92z"/>
	<path d="M687.91,315.93c-0.01,0-0.03-0.01-0.05-0.01C687.88,315.92,687.9,315.93,687.91,315.93z"/>
	<path d="M652.49,316.61v-0.31C652.37,316.55,652.36,316.48,652.49,316.61z"/>
	<path d="M698.09,330.48c0.1,0,0.21-0.1,0.31-0.1C697.21,329.98,697.52,329.9,698.09,330.48z"/>
	<path d="M669.23,331.91c0,0.1,0.31,0.21,0.41,0.21c0-0.1,0.1-0.21,0-0.31C668.99,331.16,669.23,331.47,669.23,331.91z"/>
	<path d="M653.62,314.35c0.65-1.63,0.7-1.35,0.51-1.54C653.93,313.32,653.73,313.84,653.62,314.35z"/>
	<path d="M708.06,328.22c0.29,0.29,0.21,0.24,0.21,0.1C708.26,328.22,708.16,328.22,708.06,328.22z"/>
	<path d="M708.27,328.43c0.01,0.05,0.03,0.09,0.09,0.09C708.33,328.49,708.3,328.46,708.27,328.43z"/>
	<path d="M682.69,330.58h-0.1C682.59,330.71,682.56,330.71,682.69,330.58z"/>
	<path d="M683.41,331.4c-0.21-0.21-0.51-0.51-0.72-0.72C682.58,330.78,682.39,330.72,683.41,331.4z"/>
	<path d="M684.02,332.12c1.12,1.12,1.02,0.44-0.72-0.72C683.51,331.61,683.82,331.81,684.02,332.12z"/>
	<path d="M684.95,333.15c0,0,0.1,0,0.21,0C684.7,332.7,684.84,333.04,684.95,333.15z"/>
	<path d="M669.16,336.33c-0.01,0-0.02,0-0.03,0l0.1,0.21c0-0.21,0.02-0.21-0.06-0.21c0-0.03-0.18-0.25-0.66-0.72
		c-0.31-0.31-0.51-0.51-0.82-0.62C668.48,335.78,669.08,336.31,669.16,336.33z"/>
	<path d="M661.55,381.79c-0.06,0.04-0.12,0.07-0.12,0.14C661.47,381.89,661.51,381.84,661.55,381.79z"/>
	<path d="M661.63,381.52c0,0.21-0.16,0.37,0,0.21C661.63,381.73,661.63,381.62,661.63,381.52z"/>
	<path d="M661.02,382.44c0.1-0.1,0.21-0.31,0.31-0.51C661.02,381.93,660.71,381.93,661.02,382.44z"/>
	<path d="M656.39,310.73c0,0.01,0,0.01,0,0.02l0.1-0.21c-0.11,0.11-0.11,0.09-0.1,0.17c-0.05,0.01-0.28,0.21-0.72,0.66
		c-0.84,0.84-0.75,0.68-0.62,0.82C655.92,311.34,656.38,310.8,656.39,310.73z"/>
	<path d="M654.24,313.02c0.31-0.21,0.51-0.51,0.82-0.72C654.91,312.15,654.53,312.44,654.24,313.02z"/>
	<path d="M653.52,314.25C653.21,314.66,653.52,314.45,653.52,314.25L653.52,314.25z"/>
	<path d="M695.53,322.16l-0.21-0.21C695.44,322.2,695.4,322.16,695.53,322.16z"/>
	<path d="M696.14,322.88c-0.84-0.84-0.68-0.75-0.82-0.62C695.63,322.46,695.83,322.67,696.14,322.88z"/>
	<path d="M696.14,322.98c0.27,0.09,0.47,0.28,0.72,0.52C696.86,323.05,696.59,322.89,696.14,322.98z"/>
	<path d="M696.96,323.59c-0.13-0.13-0.1-0.1-0.1,0c0,0.1-0.11-0.1,0.7,0.52C697.51,323.77,697.32,323.56,696.96,323.59z"/>
	<path d="M697.68,324.21c-0.05-0.03-0.08-0.06-0.12-0.09C697.6,324.35,697.54,324.36,697.68,324.21z"/>
	<path d="M693.37,325.03c0.23,0-0.05-0.01,0-0.1l-0.03,0.03c-0.1-0.04-0.12-0.08-0.02,0.02c-0.1,0.1-0.07,0.03,0.03,0.13
		c0-0.03,0.01-0.06,0.01-0.09L693.37,325.03z"/>
	<path d="M669.95,325.65l-0.21-0.1C669.88,325.8,669.82,325.78,669.95,325.65z"/>
	<path d="M705.59,327.81c-0.1,0-0.21,0-0.31-0.1C705.28,327.81,705.39,327.81,705.59,327.81z"/>
	<path d="M233.77,572.86c0.41-0.41,0.21-0.82-0.21-1.13c-0.31-0.21-0.62-0.21-0.92-0.31C231.38,572.68,232.98,573.65,233.77,572.86z
		"/>
	<path d="M610.18,388.5c-0.21,1.23-0.21,1.23,0.62,1.95C611.21,389.63,611.1,388.91,610.18,388.5z"/>
	<path d="M641.09,381.42c-0.47,0.47-0.05,0.98,0.62,1.64C642.65,381.74,641.47,381.04,641.09,381.42z"/>
	<path d="M631.95,172c-0.62-1.54-0.21-3.08-1.54-4.52c-0.31,0.82-0.62,1.13-0.51,1.44c0.1,0.92-0.01,2.06,0.51,2.67
		c1.32,1.55,1.85,3.7,3.8,4.93C634.42,174.47,633.6,172.82,631.95,172z"/>
	<path d="M610.38,76.79c0.21,1.33,0.1,2.88,1.64,4.01c-0.36-10.76-0.39-8.46-0.82-9.76C609.6,71.04,610.19,75.59,610.38,76.79z"/>
	<path d="M613.98,115.21c-0.92,0.21-0.94,0.93-0.82,1.75c0.27,1.85,0.82,2.57,2.46,3.59C614.35,114.81,614.63,115.53,613.98,115.21z
		"/>
	<path d="M653.73,262.9c-0.72-1.44-1.13-1.54-2.88-0.31C651.77,263.31,652.6,263.61,653.73,262.9z"/>
	<path d="M617.26,170.36c-0.91,0.91,0.47,2.26,1.95,1.44C619.01,170.77,618.29,170.26,617.26,170.36z"/>
	<path d="M642.53,63.03c1.09,1.09,0.67,1.09,1.54,0.51C643.15,62.32,643.18,62.38,642.53,63.03z"/>
	<path d="M639.35,55.64c0.23,1.15,0.01,1.54,0.51,1.54c0.55-0.27,0.52-0.6,0-1.64C639.65,55.64,639.55,55.64,639.35,55.64z"/>
	<path d="M617.78,122.19c-0.21-0.43-0.02-0.86-0.92-0.41C617.29,122.64,617.46,122.19,617.78,122.19z"/>
	<path d="M619.63,126.09c0.27,0.13,0.24,0.17,0.1-0.1L619.63,126.09z"/>
	<path d="M489.19,123.63c-0.07,0.01-0.14,0.02-0.22,0.02C489.12,123.75,489.08,123.74,489.19,123.63z"/>
	<path d="M485.49,123.42c-1.13,0.31-2.57-0.31-3.39,1.03c2.29-0.3,4.58-0.6,6.87-0.8C487.87,122.84,486.58,123.13,485.49,123.42z"/>
	<path d="M464.13,129.89c-1.23,0.62-2.57,1.03-3.59,1.95C461.88,131.74,464.13,131.24,464.13,129.89z"/>
	<path d="M478.61,125.68c1.13-0.62,2.57-0.31,3.49-1.34C479.95,124.35,479.95,124.45,478.61,125.68z"/>
	<path d="M489.4,123.83c0.04,0.04,0.04,0.04,0.01,0.01C489.48,123.83,489.47,123.84,489.4,123.83z"/>
	<path d="M489.4,123.83c-0.05-0.04-0.15-0.1-0.31-0.1C489.19,123.78,489.32,123.82,489.4,123.83z"/>
	<path d="M464.23,130c0.81,0,0.52-0.31,0.72-0.51c-0.1,0-0.21,0-0.31,0C464.54,129.69,464.34,129.79,464.23,130z"/>
	<path d="M445.03,139.14c0.1,0,0.21,0,0.31,0C445.34,138.69,445.03,138.72,445.03,139.14z"/>
	<path d="M687.52,38.07l-0.1-0.1C687.45,38.19,687.4,38.19,687.52,38.07z"/>
	<path d="M692.84,45.36c0,0,0.01,0.01,0.01,0.01c0,0,0,0,0,0C692.85,45.36,692.85,45.36,692.84,45.36z"/>
	<path d="M696.04,44.75c-11.43-5.71-8.83-0.15-10.99-1.95c0.14-1.45,2.56-3.08,2.38-4.64c-0.81,0.89-1.89,1.69-2.49,2.79
		c-0.72,1.33-1.85,2.16-3.08,2.77c-0.1,0.1-0.1,0.41-0.21,0.62c0.82,0.1,1.54,0.21,2.57,0.31c-3.15,6.62-5.67,4.88-6.37,7.91
		c0.72,1.54,1.75,2.05,3.18,2.05c0.72,0,1.44,0,1.64-1.23c-4.8-1.8-2.17-0.7,0.62-3.49c1.18-1.18,1.5-2.53,3.49-4.52
		c1.68-2.06,1.87-1.39,3.88-0.72c-4.95,0.85-4.01,1.04-5.13,4c-1.68,3.79-2,2.39,1.95,4.52c0.31-0.72,0.72-1.34,0.92-1.75
		c1.13,0.21,2.05,0.31,2.67,0.41c1.19-0.49,1.15-1.95,2.26-2.23c0,1.5,0,2.99,0,4.28c0.82,0.72,1.44,1.23,2.46,0.51
		C693.05,47.47,697.27,49.04,696.04,44.75z M691.42,49.58c-0.1,0.31-0.41,0.72-0.72,1.34c-3.28-1.82-1.73-1.77-4.11-0.82
		c0-0.3-0.53-0.35,0.62-2.57c0.96-1.84,2.62-1.61,4.62-0.62c0.21,0.1,0.31,0.31,1.03,1.03C688.74,47.11,691.53,48.57,691.42,49.58z
		 M693.52,49.34c0.26-2.09,0.49-1.7,0.87-2.84c-0.81-0.66-1.38-0.99-1.54-1.13c-0.08-0.04-0.17-0.06-0.27-0.09
		c0.21,0.03,0.17,0.01,0.25,0.08c-0.18-0.16,0.3,0,1.76,0.22C694.8,47.09,694.53,48.35,693.52,49.34z"/>
	<path d="M711.65,56.05c-1.23-0.82-2.67-0.92-3.39-2.16c0.1-0.31,0.31-0.72,0.51-1.13c-0.82-0.62-2.16-0.51-2.46-1.75
		c-1.54-0.41-1.54-0.41-1.95-1.85c1.03,0.41,1.54,1.13,1.95,1.85c0.21,0,0.51-0.1,1.23-0.31c-4.83-5.24-5.44-11.61-5.85-18.18
		c-1.29,4.8-0.06,9.4,1.34,16.74C703.33,50.9,707.35,56.05,711.65,56.05z"/>
	<path d="M686.28,46.09c0.08-0.03,0.1-0.01,0.1-0.1L686.28,46.09z"/>
	<path d="M687,45.37c0.09,0,0.1-0.03,0.1-0.1L687,45.37z"/>
	<path d="M706.18,75.98c0.11,0-0.39-0.91-2.02-1.45c0.4,1.1,0.9,1.7,1.96,1.46c0.4,0.61,0.71,1.22,0.91,1.62
		c-1.23,0.92-1.75-0.51-2.98-0.82c0.41,1.64-0.72,3.18,0.21,4.83c1.75-1.13,3.7-0.21,5.44-0.72c0.88,0.69,1.58,1.55,2.72,1.36
		C710.98,79.76,709.07,76.03,706.18,75.98z"/>
	<path d="M712.47,82.34l0.1-0.1C712.41,82.27,712.39,82.22,712.47,82.34z"/>
	<path d="M678.07,44.96c1.17-0.59-0.36,1.39,6.68-9.35c0.31-0.31,0.51-0.82,0.51-1.23c-0.18-1.78,3.79-6.48,3.08-7.19
		c-1.93-0.64-4.3,7.78-8.83,14.17C678.78,42.38,678.17,43.52,678.07,44.96z"/>
	<path d="M671.49,73.51c0.01,0.21,0.31,0.41,0.82,0.92c1.07-3.2-1.41-8.25,4.21-13.25c0.41-0.41,1.23-0.82,1.13-1.64
		c-0.51,0.21-1.13,0.21-1.54,0.31C670.32,63.5,671.4,69.6,671.49,73.51z"/>
	<path d="M713.81,55.23c4.5-4.5-0.14,0.99-1.34-6.88c-1.08-7.11-1.13-3.02-1.13,3.49c-0.82-0.21-1.64-0.51-2.36-0.72
		C710.11,53.17,712.16,54.1,713.81,55.23z"/>
	<path d="M729.93,58.41c-1.64,2.46-1.95,3.18-2.05,5.14c4.6-4.6-1.01,1.67,2.77,3.9c0.92-1.85,0.92-1.85,0.82-2.67
		C731.06,62.72,731.27,60.46,729.93,58.41z"/>
	<path d="M713.19,73.3c0.58,2.03,2.81,6.63,3.7,8.32c0,0.1,0.31,0.1,0.51,0.1c0.21-3.9-0.51-5.44-4.11-9.04
		C713.29,72.89,713.09,73.2,713.19,73.3z"/>
	<path d="M721.1,34.69c0-0.21,0-0.41,0-0.62c-4.77-9.01-9.95-10.32-8.11-8.52C717.56,30.02,718.52,32.75,721.1,34.69z"/>
	<path d="M719.25,47.73c-0.21-0.31-0.31-0.62-0.82-1.64c-0.21,3.39-0.62,6.16,2.46,7.6C720.17,46.81,720.6,47.28,719.25,47.73z"/>
	<path d="M700.97,55.95c-1.54-1.95-2.98-3.8-4.72-5.85C695.68,52.33,697.3,55.95,700.97,55.95z"/>
	<path d="M677.86,40.33c-0.56-2.23,1.35-3.29,4.04-8.98c-0.17,0.05-0.36,0.06-0.44,0.14C679.18,35.01,675.23,39.81,677.86,40.33z"/>
	<path d="M682.07,31.3c-0.03-0.2,0.03-0.28-0.1-0.1C681.87,31.36,681.88,31.41,682.07,31.3z"/>
	<path d="M724.39,59.13c0.82-4.11,0.21-8.11,0-12.84C723.67,50.3,723.56,55.74,724.39,59.13z"/>
	<path d="M699.22,49.37c-0.21-0.21-0.62-0.21-0.92-0.31c0.51,2.36,2.57,3.49,4.52,4.72c0.41,0.21,1.03,0.1,1.85,0.1
		C703.58,52.59,705.06,53.65,699.22,49.37z"/>
	<path d="M663.48,52.86c-0.31,0.21-0.51,0.41-0.82,0.62c2.36-0.1,4.72-0.31,6.47-2.26C668.41,50.74,669.62,50.34,663.48,52.86z"/>
	<polygon points="676.22,43.21 676.22,43.21 676.22,43.21 	"/>
	<path d="M676.33,43.17c-0.04,0.01-0.07,0.03-0.11,0.04C676.33,43.32,676.33,43.37,676.33,43.17z"/>
	<path d="M673.34,47.01c-1.08,1.46-1.38,0.99-0.92,1.44c1.75-0.72,2.67-2.05,3.8-5.24C675.43,43.48,675.37,44.27,673.34,47.01z"/>
	<path d="M715.86,51.43c0.72,1.54,1.85,2.26,3.08,3.18C718.43,52.97,718.43,52.97,715.86,51.43z"/>
	<path d="M727.78,56.15c-0.31,1.44-0.51,2.77-0.82,4.11C728.29,58.51,728.29,58.51,727.78,56.15z"/>
	<path d="M708.98,48.14c-0.1-1.03,0.1-2.16-0.51-3.7C708.47,45.98,708.06,47.22,708.98,48.14z"/>
	<path d="M721.1,34.79c0,0.62,0.21,1.23,1.64,1.75C721.92,35.71,722.02,34.89,721.1,34.79z"/>
	<path d="M726.85,36.74c-0.04-0.03-0.07-0.05-0.11-0.08C726.74,36.92,726.74,36.85,726.85,36.74z"/>
	<path d="M725.41,34.69c-0.09,0.98,0.64,1.49,1.32,1.97C726.76,35.73,726.28,35.07,725.41,34.69z"/>
	<path d="M676.33,43.17c1.02-0.34,1.22-1.22,1.32-2.12C677.07,41.64,676.39,42.14,676.33,43.17z"/>
	<path d="M708.26,22.67l-0.1,0.1c0.1,0.02,0.14,0.05,0.14,0.04c0.21,0.78,0.53,1.61,1.5,1.81c-0.3-0.69-0.5-1.55-1.5-1.81
		C708.31,22.81,708.28,22.77,708.26,22.67z"/>
	<path d="M677.76,59.64c0.51-0.1,1.03-0.21,1.85-0.21C678.58,58.72,678.07,58.82,677.76,59.64z"/>
	<path d="M716.48,55.74c-0.41-0.41-0.18-0.1-0.51-0.1C715.96,56.03,716.37,55.74,716.48,55.74z"/>
	<path d="M709.83,25.04c-0.01,0-0.02,0-0.03-0.01C709.85,25.12,709.85,25.1,709.83,25.04z"/>
	<path d="M709.7,24.72c0.05,0.11,0.11,0.25,0.13,0.32C709.89,25.07,709.87,24.9,709.7,24.72z"/>
	<path d="M709.08,51.02c-0.09-0.09-0.38-0.27-0.21-0.1C708.98,50.91,708.98,51.02,709.08,51.02z"/>
	<path d="M712.61,82.54c0.01,0.03,0.01,0.07-0.03,0.11C712.76,82.65,712.89,82.68,712.61,82.54z"/>
	<path d="M708.36,22.67c-0.1-0.1-0.21-0.1-0.31-0.21C708.06,22.57,708.16,22.67,708.36,22.67z"/>
	<path d="M682.83,30.4c0.06-0.08,0.06-0.06,0.06-0.24C682.89,30.23,682.86,30.31,682.83,30.4z"/>
	<path d="M682.79,30.58c0-0.04,0.02-0.11,0.04-0.17C682.81,30.43,682.79,30.49,682.79,30.58z"/>
	<path d="M682.69,30.47c-0.45-0.09-0.65,0.14-0.63,0.62C682.26,30.84,682.51,30.65,682.69,30.47z"/>
	<path d="M724.69,34.07c-0.06,0.52,0.14,0.71,0.72,0.62C725.32,34.31,725.13,34.03,724.69,34.07z"/>
	<path d="M724.69,33.97l-0.1,0.1C724.71,34.04,724.69,34.14,724.69,33.97z"/>
	<path d="M726.65,36.95c0.31,0.21,0.51,0.41,0.82,0.62C726.63,36.73,726.78,36.81,726.65,36.95z"/>
	<path d="M687.82,38.07c-0.1,0-0.21,0.1-0.21,0.21C687.72,38.18,687.72,38.18,687.82,38.07z"/>
	<path d="M727.36,37.56l0.21,0.1C727.45,37.54,727.49,37.56,727.36,37.56z"/>
	<path d="M677.76,41.02c-0.13,0.04-0.13,0,0,0.13C677.76,41.1,677.76,41.06,677.76,41.02z"/>
	<path d="M677.76,40.33c0,0.17,0,0.42,0,0.69C678.32,40.83,678.05,40.62,677.76,40.33z"/>
	<path d="M698.4,48.76c-0.1-0.1-0.37-0.21-0.07,0.13C698.34,48.85,698.35,48.81,698.4,48.76z"/>
	<path d="M564.58,97.95c6.28,3.87,7.02,3.57-1.95-3.9c-0.41-0.41-1.03-0.51-1.64,0.31C561.91,95.69,563.14,96.92,564.58,97.95z"/>
	<path d="M564.39,107.13c0.12,0.19,0.04,0.21,0.18,0.06C564.52,107.17,564.45,107.15,564.39,107.13z"/>
	<path d="M561.29,105.24c0.78,1.36,2.01,1.53,3.1,1.89C563.79,105.96,563.06,104.95,561.29,105.24z"/>
	<path d="M564.58,107.3c0.13-0.03,0.19,0.06,0.1-0.1L564.58,107.3z"/>
	<path d="M564.72,107.3c0.69,1.85,0.93,2.05,3.45,2.05C567.07,108.46,566.26,107.19,564.72,107.3z"/>
	<path d="M500.28,101.44c-0.67,0.67,1.75,1.54,1.75,0.21C501.41,101.03,500.59,100.93,500.28,101.44z"/>
	<path d="M525.55,134.1c1.96,0.59,2.06-0.41,2.16-0.62C526.8,133.03,527.84,132.96,525.55,134.1z"/>
	<path d="M507.99,102.27c0.26,0.26,0.12,0.29,0.62-0.21C508.23,101.68,507.99,102.16,507.99,102.27z"/>
	<path d="M513.53,101.75c-0.76,0-0.92,0.77,0.21,0.21C513.74,101.85,513.64,101.75,513.53,101.75z"/>
	<path d="M569.1,109.35c-0.31,0-0.72,0.1-1.03,0.1c0.86,0.57,0.68,0.64,1.34,0.31C569.3,109.66,569.2,109.35,569.1,109.35z"/>
	<path d="M531.28,131.44c0.04-0.01,0.08-0.01,0.12-0.01C531.4,131.08,531.45,131.28,531.28,131.44z"/>
	<path d="M531.1,131.43c-0.1,0.1-0.1,0.21-0.21,0.31C531.1,131.64,531.1,131.64,531.1,131.43z"/>
	<path d="M216,250.06c0.11-0.06,0.82-0.72,0.41-1.13c-0.71-1.06-1.75-0.34-1.75,0.31C214.76,249.75,215.48,250.26,216,250.06z"/>
</g>
</svg>
