<?xml version="1.0" encoding="utf-8"?>
<!-- Generator: Adobe Illustrator 19.1.0, SVG Export Plug-In . SVG Version: 6.00 Build 0)  -->
<svg version="1.2" baseProfile="tiny" id="Layer_2" xmlns="http://www.w3.org/2000/svg" xmlns:xlink="http://www.w3.org/1999/xlink"
	 x="0px" y="0px" width="900px" height="600px" viewBox="144 97 900 600" xml:space="preserve">
<g>
	<path d="M892.6,528.1c0.3,0.6,0.7,0.9,1.5,1c3.9-0.8,7.9-2,11.9-3.3c0.5-0.2,1.1-0.3,1.5-0.6c2.4-1.9,5.5-2.4,8.3-3.3
		c10.2-3.3,20.4-6.5,30.9-8.7c8.9-1.9,18-3.4,27-4.5c5.6-0.7,11.2-1.3,16.8-1.4c8.5-0.2,16.2,2.3,23.2,7c2.8,1.9,5.1,4.4,6.9,7.4
		c3.7,6.2,8.3,11.7,12.7,17.4c1.4,1.9,2.9,3.7,4.4,5.7c0.3,6.1-1,11.9-4,17.3c-2,3.5-3.6,7.2-5.5,10.8c-0.3,0.6-0.5,1.2-0.9,1.7
		c-3.4,4.3-6.3,9-10.3,12.9c-1.4,1.4-2.5,3-3.6,4.6c-1.8,2.7-3.8,5.3-5.7,7.9c-2.7,3.7-6,6.5-10.7,7.5c-1.4,1.6-3,2.9-4.8,4
		c-8.9,5.7-17.9,11.3-27.6,15.6c-6.4,2.8-13.1,4.3-20.1,4.9c-4.9,0.5-9.8,0.9-14.6,2.3c-6.3,1.8-12.8,2.3-19.4,2.3
		c-2.9,0-5.7,0.2-8.5,0.9c-5.3,1.3-10.8,2-16.3,2.3c-7,0.4-14.1,0.6-21.1,0.9c-4.7,0.2-9.4,0.6-14.1,0.8c-7.1,0.3-14.1-0.3-21-1.9
		c-1-0.2-2-0.5-3.1-0.5c-5.1-0.3-10.2-0.7-15.2-0.9c-2.9-0.1-5.7-0.5-8.5-1.3c-2.4-0.7-4.8-0.8-7.3-0.3c-3.3,0.7-6.7,1.2-10,1.7
		c-4.5,0.8-9.1,1-13.6,1.2c-5.3,0.3-10.7,0.7-16,1.2c-2.4,0.2-4.7,0-6.9-0.2c-1.1,1.2-0.5,2.7-1.3,4.1c-1,1.6-2.9,2.6-4.7,3.5
		c-5.1,2.5-10.6,3.5-16.3,3.9c-3.4,0.2-6.2-0.7-8.3-3.4c-0.4-0.5-0.9-1-1.2-1.3c-1.1-0.9-2.5-0.4-3.4-1.5c0-0.3-0.1-0.7-0.1-0.9
		c0.3-0.3,0.4-0.6,0.6-0.6c2.7-0.3,5.2,0.2,7.5,1.6c1.5,0.9,3.1,1.5,4.8,1.4c5.8-0.3,11.4-1.1,16.7-3.6c0.3-0.2,0.6-0.4,0.9-0.6
		c0.3-0.6,0.2-1.1,0-1.6c-1.1-2.1-1.6-4.4-2-6.7c-0.2-1-0.2-2.1-0.7-3c-2.9-5-3.7-10.5-3.2-16.3c0-1-1.1-1.5-0.9-2.9
		c1.8-4.4,5.2-8,9-11.4c2.5-0.2,5.1,0,7.7,0.5c1.8,0.3,3.6,0.5,5.4,0.1c0.7-0.1,1.2-0.4,1.7-1.2c-2.3-3.2-4.5-6.6-7.1-9.6
		c-2.1-2.5-4.2-5-6.4-7.4c-1.8-1.9-2.7-4.5-4.7-6.3c-3.4-1.2-7.1-1.2-10.6-1.8c-0.6-0.1-1.3-0.1-2,0c-3.9,0.7-7.8,0.6-11.7,1
		c-1.6,0.2-3.1,0.3-4.6-0.3c-6.1,2.2-12.1,4.3-18.3,6.5c1.1,1.1,2.4,1.2,3.7,1.4s2.6,0.5,3.9,0.7c1.4,0.3,2.8,0.5,4.2,0.8
		c1.2,0.2,2.6-0.2,3.5,0.7c-0.1,1-0.7,1.1-1.1,1.1c-4.8,0-9.7,0.3-14.4-1.1c-1.1-0.3-2.3-0.4-3.5-0.4c-3.7,0-7.2-0.9-10.7-2.2
		c-1.8-0.7-3.7-1.3-5.5-2c-7-2.8-14.3-4-21.5-5.8c-1.2-0.3-2.3-0.4-3.5-0.2c-4.2,0.7-8.5,1.5-12.7,2.2c-1,0.2-2,0.6-2.9,1.2
		c-5.3,3.6-10.6,7.1-15.3,11.6c-1.6,1.5-3.1,3.2-4.1,5.2c-1,1.8-2.1,3.6-3.1,5.5c-1.9,3.4-3.7,6.9-4.5,10.8c-0.2,0.9-0.6,1.7-1,2.9
		c1.8,4.5,3.6,9.2,5.4,13.7c3,2.4,5.8,4.7,8.5,6.8c0.6,0.1,1.2,0.2,1.7,0.2c9.8,0.1,19.6,0.7,29.3,1.5c0.9,0.1,1.8,0.1,2.7,0.1
		c4.8,0,9.6,0.5,14.4,1.4c5.3,0.9,10.6,1.3,16,1.7c3.9,0.3,7.8,0.4,11.7,0.5c0.4,0,0.7-0.1,1.1-0.2c0.7-0.7,0.7-1.5,0.5-2.3
		c-0.7-4.1,0.2-8.1,0.5-12.1c0.2-1.9,0.7-3.9,1-5.8c0.4-2.3,0.5-4.7,0.2-7c-0.1-0.6,0-1.3,0-1.6c0.7-1.3,1.5-1.5,2.5-1.5
		c1,0.1,1.8,0.4,2.3,1.3c0.5,0.9,1,1.8,1.4,2.8c0.3,0.7,0.4,1.5,0.4,2.3c0.2,7.8-0.7,15.4-4.9,22.2c-0.3,0.4-0.4,0.9-0.6,1.4
		c0,0.1,0,0.3,0.1,0.5c0.6,0.1,1.2,0.2,1.8,0.2c2.1,0,4.1,0,6.2,0c0.8-1.1,0.3-2.2,0.4-3.2c0.1-0.9,0.1-1.8,0.2-2.7
		c0.1-1,0.2-2.1,0.3-3.1c0.9-5.9,1.7-11.9,2.6-17.8c0.2-1.2,0.5-2.3,1.9-2.7c1.3-0.1,2,0.7,2.3,1.7s0.4,2.1,0.4,3.1
		c0.2,7.2-0.9,14.3-2.6,21.3c-0.5,2.3-1.5,4.4-2.3,6.6c-0.6,0.7-1.4,0.7-2.2,0.8c-11.4,0.3-22.7,0.4-34.1-0.8
		c-3.8-0.4-7.5-1-11.2-1.7c-2.1-0.4-4.1-0.6-6.2-0.6c-11.7-0.4-23.5-1.5-35.2-2.2c-2.7-0.2-5.1-1.1-7.1-2.9
		c-1.4-1.2-2.7-2.5-4.1-3.9c-2.5-0.8-2.5-0.8-5.4-4.8c-3.7-0.3-7.6-0.7-11.5-1c-6.1-0.4-12.3-0.5-18.4-0.9
		c-7.7-0.5-15.3-1.7-22.8-3.3c-1.9-0.4-3.8-0.7-5.8-0.8c-1.8-0.1-3.6-0.4-5.4-0.8c-6.1-1.3-12-0.7-17.7,1.5
		c-6.6,2.6-13.3,4.7-20.2,6.1c-2.9,0.6-5.5,1.5-8,2.9c-2.4,1.3-4.9,2.4-7.5,3.3c-7.7,2.6-15.3,5.2-23,7.8
		c-5.5,1.9-11.2,2.5-16.8,3.7c-6.5,1.4-13.2,1.9-19.8,2.1c-10.3,0.4-20.6,0.3-31,0.3c-6.4,0.1-12.8-0.9-19.1-2
		c-2.1-0.4-4.1-0.6-6.2,0c-1,0.3-2.1,0.3-3.1,0.3c-3.8,0.1-7.6,0.2-11.4,0.2c-6.9,0.1-13.8,0.4-20.7,1.2c-9.5,1.1-18.9,2.1-28.5,2.7
		c-6.1,0.4-12.3,0.6-18.4,0.7c-2.3,0-4.7,0.5-7,0.7c-4.3,0.4-8.6,0.8-12.9,1c-6.4,0.4-12.6,1.8-18.9,3.2c-2.3,0.5-4.6,1-6.6,1.5
		c-0.9,0.7-0.7,1.5-0.8,2.3c-0.1,1.6-0.7,3-1.7,4.3c-2.3,3.1-4.6,3.9-8.5,2.8c-0.2-0.1-0.5-0.1-0.9-0.2c-9.4,1.5-19.1,1.7-28.9,2.3
		c-0.8,0.7-1.8,1.4-2.6,2.1c-0.4,0.1-0.8,0.2-1.2,0.3c-5.9,0.5-11.6,1.6-17.2,3.6c-3,1.1-6,1.9-9.2,1.7c-2.1-0.1-2.1-0.1-4.2-2.1
		c-3.3,0.3-5.9-1.9-9-3c-1.2-0.4-2.1-1.6-2.9-2.6c-3.7-4.8-6.6-10-7.8-16.1c-0.4-1.9-0.9-3.8-1.3-5.6c0-1.4,1.3-2,1.5-3.3
		c0-0.4,0.1-1,0-1.5c-0.9-4.4-1.4-8.8-1.5-13.2c-0.1-6.6,1.2-12.9,3.1-19.2c3.1-9.8,6.5-19.6,9.9-29.3c0.7-2.1,1.4-4.2,1.1-6.7
		c-0.8-1.3-2.1-2.5-1.8-4.4c0.1-0.7-0.5-1.4-0.8-2.2c-3-7.4-4.6-15.2-5.5-23.2c0-0.3,0.1-0.5,0.1-0.7c0.2-0.9,1.2-1.1,1.7-1.8
		c0-0.3,0.1-0.7,0.1-1.1c-0.1-6.3-0.1-12.5,0.9-18.8c0.4-2.6,1-5.1,1.7-7.6c1.5-4.8,4-9.1,7.7-12.3c0.3-3.2,0.3-3.3,1.9-5.3
		c6.9-8.8,14.5-16.8,23.4-23.6c2-1.5,4.1-2.8,6.1-4.3c1.2-0.8,2.4-1.6,3.2-2.8c-0.6-1.5-1.1-2.9-1.6-4.3c0.3-2,1.2-3.5,2.3-5
		c2.8-3.8,5.6-7.5,8.4-11.3c3.1-4.1,6.9-7.5,10.6-11c1.1-1,2.4-1.4,3.9-1.4c5.9,0.1,11.7-0.5,17.6-1c2.6-0.2,5.2-0.6,7.8-0.9
		c-0.8-2.7-1.7-5.2-1.2-7.8c3.3-1.6,6.5-3.1,9.6-4.6c0.8-0.4,1.6-0.8,2.5-1.1c3-1,5.9-2,9-2.7c4.8-1.1,9.5-2.8,14.4-3.5
		c2.2-0.3,4.3-1,6.3-2.1c1-0.6,2.1-1.1,3.2-1.4c4.3-1.3,8.2-3.3,12.2-5.2c4-1.9,8-3.7,12.3-5.2c1.6-0.5,3.1-1.4,4.5-2.2
		c1.6-0.9,3.2-1.7,5.1-1.9c2.3-0.4,4.5-1.2,6.7-2.1c4.6-1.8,9.2-3.6,13.9-5.2c2.5-0.8,5.1-1.3,7.7-1.6c8.5-0.9,16.7-3.1,24.7-5.9
		c3.6-1.3,7.1-2.7,10.9-3c0.4,0,0.8-0.2,1.1-0.3c6.5-2.5,13.3-3.8,20-5.5c9.6-2.4,19.2-5.1,28.7-7.6c0.5-0.1,1-0.3,1.5-0.4
		c7.8-1.9,15.2-4.5,22.3-8.3c7-3.8,14.7-6.2,22.1-8.9c7-2.6,14-5.1,20.9-7.8c6.7-2.6,13.5-4.7,20.5-6.8c1.3-1.2,2.3-2.6,3.3-4.2
		c2.3-3.5,4.3-7.2,7.3-10.1c0.7-0.7,1.3-1.7,1.8-2.5c3.4-5.4,7.9-9.7,13.4-13c5.9-3.6,12.2-6.5,19.1-7.8c0.5-0.1,1-0.3,1.7-0.5
		c0.3-2-0.8-3.7-1.4-5.5c-0.6-1.9-1.2-3.7-1.9-5.6c-0.7-1.7-1.4-3.4-2.2-5c-0.9-1.7-1.4-3.6-2.7-5c-2.4,0.2-3.3,3.2-6.2,2.6
		c1-1.8,2.8-2.8,3-5.1c-0.7-1.3-2.1-2.2-3.5-3.2c-2.5-1.8-4.7-3.7-5.8-6.7c-4.2-5.8-6.1-12.6-8-19.4c-1.2-4.5-2.7-9-4-13.5
		c-0.4-1.3-0.8-2.5-0.3-3.6c-0.2-0.5-0.2-0.8-0.4-1c-4.2-6-3.9-12.8-2.9-19.6c0.2-1.4,0.6-2.8,0.8-4.2c0.2-1.4,0.4-2.9,1-4.2
		c1.3-2.7,2-5.7,2.9-8.5c2.4-7.1,6-13.6,10.8-19.4c1.8-2.2,3.6-4.3,6.1-6c2.4-1.6,4.5-3.6,6.5-5.6c4.8-4.7,10.4-8.2,16.3-11.4
		c2.2-1.2,4.4-2.3,6.5-3.5c1.2-0.6,2.4-1.1,3.7-1c1.7,0.2,3.4-0.2,5-0.4c6.1-1,12.2-0.8,18.3,0.1c2.7,0.4,5.4,1,8.2,1.5
		c0.7-1.5,1.4-3.1,2.2-4.5c1.6-2.7,3.7-5,6.1-7.1c1-0.9,1.8-1.8,2.5-3c4.7-7.7,18-13.4,28.5-5.3c2.9,2.2,5.4,4.8,7.4,7.4
		c0.4,1.2,0,1.8-0.4,2.4c0.2,0.4,0.4,0.9,0.7,1.3c5.2,7.1,9.7,14.5,13.8,22.3c3.7,6.9,5.7,14.2,6.6,22c0.5,4.5,1,9.1,1.1,13.7
		c0,1.7,0.1,3.4,0,5.1c-0.4,11.4-0.8,22.7-1.3,34.1c-0.3,5.7-0.8,11.4-1.2,17.3c2.7,0.7,5.5,1.5,8.3,2.3c1.7-0.7,3-2,4.3-3.3
		c2.2-2.3,4.8-4.1,7.2-6c4.9-3.8,10.6-5.5,16.6-6.5c1,0.5,1.9,1,3,1.5c5.2-0.5,10.5-0.3,15.9,0c4.8,0.2,9.6,0.8,14.4,1.5
		c2.1,0.3,4,1.1,5.7,2.3c2.3,1.7,4.8,3.2,6.9,5.2c1.9,1.8,3.6,3.8,4.8,6.1c1.2,2.6,2.4,5.2,3.8,7.7c0.4,0.8,0,1.5,0.1,2.5
		c2.1,3.3,4.2,6.9,7.3,9.9c0.9,0.3,1.7,0.5,2.3,0.7c1.4,1.5,2.6,2.9,3.8,4.3c2,2.1,3.2,4.8,4.5,7.3c5.4,10.4,8.4,21.6,10,33.2
		c0.5,3.3,1.4,6.4,2.7,9.4c0.4,1,0.9,1.9,1.6,2.7c5.7,7,10.9,14.3,15.4,22.2c3.7,6.6,7.3,13.3,10.5,20.1c1.4,2.9,2.2,5.8,2.8,8.9
		c1.2,6.7,3,13.2,5.2,19.7c2.7,7.8,5.3,15.6,6.8,23.7c0.9,4.6,1.4,9.3,2.3,13.9c1.3,6.9,3.4,13.7,5.8,20.3c0.5,1.3,1,2.7,1,4.2
		c0,0.9,0.4,1.8,0.7,2.6c0.5,2,1.1,4,1.6,6c0.7,3,1.4,5.8,3.9,7.9c0.6,0.5,0.9,1.3,1.3,2c2.5,4.9,5,9.8,7.5,14.7
		c1.4,2.8,2.2,5.8,3.1,8.8c-0.5,2.6,0.6,4.9,1.7,7.1c2.2,4.4,3.5,9,5,13.6C892.4,524.1,893.2,526,892.6,528.1z M642.1,127.9
		c0.4-0.1,0.7-0.3,0.7-0.8c1.8-0.6,3.6-1.2,5.5-1.7c2.1-0.6,4.3-0.9,6.3,0.2c-7.6,0.5-16.5,5.8-17.2,16.6c0.8,0.8,1.8,0.9,2.8,0.8
		c1.1-3.9,3.3-6.9,6.2-9.5s6.2-4.6,9.6-6.6c-0.6-0.5-1.1-0.9-1.5-1.4c1.3,0.3,2.5,0.5,3.8,0.8c1-0.2,2-0.5,3-0.7c1-0.1,2-0.5,3,0.2
		c-0.1,0.1-0.1,0.3-0.2,0.3c-0.2,0.1-0.4,0.3-0.6,0.4c-5.3,1.4-9.7,4-12.6,8.8c-0.5,0.8-1.1,1.4-1.6,2.2c-0.4,0.7-0.6,1.4-0.9,2.1
		l-0.1,0.1l0.1-0.2c0.4-0.3,0.8-0.6,1.2-1c2.5-2.8,5.3-5,8.9-6.2c0.9-0.3,1.4-1.1,2.6-1.2c1,0.2,2.1,0.4,3.3,0.6
		c3.2,0.3,5.6,1.9,7.7,4.2c2,2.1,3.5,4.6,4.6,7.2c2.5,6.3,5.1,12.6,6.7,19.2c0.5,2.2,1.1,4.3,2.5,5.8c-0.2,1.4-0.3,2.5-0.4,3.7
		c0.3,0,0.5-0.1,0.8-0.1c-0.2-0.5,0.8,0.3,0.3,0.2c0.4,2.3-0.7,4.6-0.2,6.8c0.8-0.1,0.1-1.2,1-1.3c2.1,10.7,1.9,21.6,2,32.4
		c0,10.8-0.3,21.6-1.7,32.3c2.4,2,2.4,2,4.5,2.4c-0.3-5.6-0.7-11.2-1.7-16.8c1-0.9,1.3-2.2,1.3-3.5c0.4-8.7,0.9-17.5,1.3-26.2
		c0.1-3.4,0.2-6.8-0.1-10.2c-0.9-10.6-2.7-21-5.9-31.1c-0.6-2-1.4-3.9-2.4-5.8c-3.4-5.9-6.9-11.7-10.9-17.2
		c-1.8-2.4-3.8-4.6-5.7-6.9c-1-1.2-2.1-2.3-3.4-3.7c-7.1-2.8-14-2-20.5,2.6c-0.5,0.4-1.1,0.7-1.2,1.5
		C642.3,127.2,642,127.4,642.1,127.9c-0.1,0.1-0.2,0.2-0.3,0.2C641.8,128,642,128,642.1,127.9z M993.2,606.9l-0.3,0.1L993.2,606.9
		l0.1-0.3L993.2,606.9z M638.9,130.2c0.6,0.1,0.9-0.2,0.8-0.8c0,0,0.3-0.2,0.1,0.1C639.2,129.4,638.9,129.7,638.9,130.2
		c-0.4,0.1-0.6,0.4-0.8,0.8c-0.6,0.4-0.6,1.1-0.6,1.7c-0.5-0.1-0.8,0.3-0.9,0.7c-0.7,0.3-0.8,0.9-0.7,1.6c-2.1,1.9-2.5,2.5-3.5,6
		c0.4,0.4,0.8,0.6,1.6,0.5c0.8-2.1,1.4-4.3,1.8-6.6c0.7-0.3,0.7-1,0.7-1.6c0.5,0,0.7-0.4,0.9-0.7c0.5-0.5,0.7-1,0.6-1.7
		C638.6,131,638.9,130.8,638.9,130.2z M819.9,561.4c-0.2,0.3-0.5,0.5-0.7,0.8c-0.4,0.1-0.8,0.3-0.8,0.8c-0.6-0.2-1.3-0.3-2.2-0.5
		c-4.3,2.2-8.8,4.4-13.4,6.7c-0.8,0.4-1.5,1.1-2.5,0.8l0.1,0.1c0.5-1.6,2-1.9,3.2-2.6c5-3.1,10.3-5.7,15.6-8.1
		c2.4-1.1,4.6-2.4,6.6-4.2c6.3-5.6,13.1-10.3,20.7-14c0.7-0.4,1.4-0.8,2.6-1.5c-1,0-1.4,0-1.8,0.1c-13.7,4.2-27.6,7.7-41.1,12.6
		c-0.9,0.3-1.7,0.7-2.7,0.5l0.1,0.1c0.2-0.9,1.1-1.1,1.7-1.4c2-0.9,4.1-1.8,6.1-2.6c8.6-3.5,17.5-6.1,26.4-8.6
		c6.8-1.9,13.5-3.9,20.2-5.3c0.9,0.2,1.4,0.7,2.1,0.5c3.2-1,6.4-2.1,9.7-3.1c3.2-1,6.5-1.8,9.8-2.8c3.2-0.9,6.6-1.1,9.6-2.1
		c-3-8-5.8-15.9-8.3-23.9c-0.5-1.5-0.7-3.1-1-4.6c-0.3-1.3-0.6-2.5-1.2-3.7c-2.4-4.5-4.7-9-7.1-13.5c-0.4-0.7-0.6-1.5-1.6-1.9
		c-0.5,0.1-1.1,0.2-1.7,0.4c-6.2,1.4-12.2,3.5-18.6,4.7c-13.3,2.4-26.6,5.3-39.9,8c-8.8,1.8-17.7,3.2-26.8,2.7
		c-0.9-0.1-1.8,0-2.7,0.1c-4.7,0.6-9.3,1.4-14,1.8c-5.7,0.5-11.5,1-17.2,0.8c-8.1-0.2-16.2-0.6-24.3-0.5c-2.9,0-5.7-0.2-8.5-1
		c-1.8-0.5-3.6-0.4-5.6-0.5c-0.2,1.7,0.4,3.2-0.2,4.8c-0.5,1.4-0.5,3-0.1,4.5c2.5,0.9,4.9,1.3,7.4,1.6c6.5,0.7,12.9,1.3,19.4,2
		c-9.8,0.4-19.6,0.4-28.9-2.7c-1.3,0.4-1.9,1.1-2.1,2.3c-0.2,1.3-0.2,2.6,0.3,3.9c0.4,1.1,0.8,2.2,0,3.6c-1.5,0.8-3.1,2.1-5.5,2.2
		c1.3,1.2,2.6,1.9,3.4,3.1c3.1,5,7.1,9.3,11.3,13.5c1.9,0.2,3.4,1.2,5,2.1c5.6,3.3,11.6,6.1,17.6,8.5c4.6,1.9,9.2,3.8,13.7,5.8
		c7.7,3.3,15.3,6.7,22.2,11.4c0.1,0.1,0.4,0,0.9-0.1c-0.6-3.1-1.2-6.2-1.7-9.2c-0.6-3.1-1.5-6.3-1-9.6c0.4,0.7,0.7,1.4,0.9,2.1
		c1,5.2,2.1,10.5,3,15.8c0.3,1.4,0.5,2.8,1.1,4.1l0.1-0.1c-1.4,0.6-1.2,2.6-2.8,3.4c0.2-1.7,1-3.2,0-4.7c-0.4-0.2-0.9-0.5-1.3-0.8
		c-9.4-4.8-18.9-9.2-28.6-13.4c-7.9-3.4-15.7-6.8-23.2-11.1c-0.7-0.4-1.4-0.6-2.2-0.8l-0.1-0.2l0.2,0.1c1.8,2.4,4.2,4.2,6.4,6.3
		c2.6,2.5,5.6,4.6,7.5,7.9c0.3,0.5,0.9,0.9,1.4,1.3c8.7,7.5,17.4,15,26.1,22.5c1.6,1.4,3.1,2.8,4.7,4.2c0.3,0.3,0.5,0.6,0,0.9
		c-0.7,0.1-1.3-0.3-1.8-0.6c-1.4-0.9-2.9-1.8-4.2-2.9c-4.8-3.8-9.3-8-13.8-12.2c-5.2-4.8-10.4-9.5-15.9-13.9
		c-1.4-1.1-2.8-2.3-3.9-3.7c-0.4-0.8-0.1-1.7-0.7-2.3c-1.1-1-2.1-1.9-3.3-2.8c-6-4.8-11.5-10.3-16.2-16.4c-1.2-1.5-2.4-3.1-3.7-4.6
		c-2.5-2.8-5.6-4.1-9.3-4.2c-3.7,0-7.3,0-11,0c-1.9,0-3.6,0.3-5.3,1.2c0,0.4,0,0.8,0.1,1.4c1.7,0.9,3.5,1.5,5.3,2.2
		c6.5,2.4,12.6,5.7,18.2,9.7c4.2,3,7.8,6.5,10.3,11.1c1.1,2,2.6,3.9,4,5.8c4.4,5.7,8.8,11.4,13.2,17c0.6,0.7,1.1,1.4,1.6,2.2
		c0.4,0.8,0.7,1.6,1,2.4c0.9,0.5,1.8,0.2,2.7,0.3c0.8,0.1,1.7,0,2.3,0.3c2,1.1,4.2,1.3,6.3,1.9c1.3,0.3,2.6,0.7,3.4,1.7
		c2.4,3.1,5.6,5.5,8.3,8.3c1,1,2,2.1,2.7,3.3c0.7,1.1,0.9,2.4,1.4,3.6c0.4,0.3,0.7,0.7,1.1,1c2.2,1.7,4.2,3.5,4.9,6.4
		c0.2,0.8,0.7,1.7,2,2.1c1-0.3,2.3-0.6,3.5-0.9c5.8-1.5,11.6-3.1,17.4-4.6c4.4-1.1,8.9-2.2,13.2-3.8c1.3-0.5,2.8-0.7,3.8-1.8
		c0.9-1.4,1.3-2.8,1.2-4.5c-0.1-1.6,0.3-3.1,1-4.5c0.9-1.7,1.8-3.5,2.8-5.1c2.2-3.5,5.1-6.6,7.9-9.7c0.7-0.7,1.7-1.3,1.8-2.5
		c0.5,0,0.8-0.3,0.8-0.8C819.6,562,819.8,561.8,819.9,561.4l0.2-0.1L819.9,561.4z M589.6,151.4c0,0.3,0,0.5,0,0.8
		c-0.1,0.2-0.2,0.5-0.4,0.6c-3.1,1.7-6,3.6-8.5,6.2c-0.1,0.1-0.4-0.1-0.7-0.2c0-1.1,0.9-1.5,1.5-2.1c0.5-0.6,1.1-1.1,1.6-1.7
		c0.7-0.6,1.4-1.2,2-1.8c0.6-0.5,1.1-1.1,1.7-1.6c0.7-0.6,1.3-1.3,2-1.9c0.7-0.6,1.4-1.2,2.1-1.8c0.6-0.5,1.2-1,1.8-1.5
		s1.3-0.9,2.1-2.2c-3.5,1.3-6.7,1.7-9.4,3.2c-4,2.2-7.8,4.6-11.3,7.6c-3.3,2.8-6.5,5.6-9.8,8.3c-1.5,1.3-2.7,2.8-4,4.2
		c-0.6,0.7-1,1.5-1.3,2.4c-1.3,4.8-2.2,9.6-3,14.5c-0.1,0.7,0,1.6,0.1,2.3l-0.2,0.1l0.1-0.2c0.5-0.8,1-1.5,1.4-2.3
		c1.9-3.8,4.1-7.5,6.6-10.9c1.8-2.4,3.6-4.7,6.1-6.4l-0.1-0.1c0,0.6,0,1.1-0.1,1.7h0.1c-1.1,0.2-1.4,1.1-1.9,1.8
		c-4.3,6.3-7.6,13-9.9,20.3c-2.2,7.3-3.2,14.8-3.4,22.3c0,0.1,0.3,0.3,0.5,0.4c0.1-0.1,0.3-0.1,0.3-0.2c0.4-2.6,0.7-5.2,1.2-7.7
		c1.4-7.7,3.6-15.2,6.8-22.4c0.5-1,0.7-2.2,1.9-2.7l-0.1-0.1c-0.2,2.4-1.3,4.5-1.9,6.8c-0.5,1.9-1.2,3.7-1.3,5.7
		c-0.1,0.2-0.2,0.4-0.2,0.2c0,0.2,0-0.1,0.1-0.3c1.2-1.1,1.5-2.7,2.2-4.1c4.7-10.1,11.5-18.6,19.7-25.9c1-0.9,1.9-1.9,3.3-1.8v-0.1
		c-1.7,1.6-3.4,3.2-5,4.9c-5.6,5.9-10.5,12.3-14.2,19.6c-3.5,6.8-5.7,14-7.4,21.4c-0.9,3.8-1.6,7.7-2.4,11.5
		c-0.2,0.7-0.3,1.6-1.3,1.8c-0.5-0.5-1-1.1-1.5-1.6c-1,0.2-1.7,0.8-2.4,1.4c-0.3,0.8,0.3,1.8-0.7,2.6c-1-0.7-2-1.5-3-2.3
		c-1.2-5.2-0.4-10.3-0.1-15.4c0.2,2.9,0.1,5.7,1.6,8.5c0.3-4.8,0.2-9.3,0.9-13.8c0.7-4.4,1.2-8.8,1.9-13.2c0.8-4.4,1.8-8.8,2.8-13.8
		c-2,2.3-3,4.4-3.7,6.6c-2.2,7-4.4,14-5.9,21.1c-1.3,5.9-1.9,11.8-2,17.7c0.6,0.8,1.1,1.4,1.5,2c0.4,0.7,0.7,1.4,1.1,2
		c0,1.4-0.5,2.6-0.2,4c3,10.7,6.4,21.2,11.1,31.3c1.1,2.4,2.7,4.4,5.1,5.8c3,1.7,5.5,3.9,7.4,6.8c0.2,0.3,0.4,0.7,0.7,0.9
		c3.1,3.2,4.9,7.1,6.1,11.3c1.1,4,1.9,8.1,3.3,12c0.3,1,0.5,2,0.8,3c0.3,0.9,0.6,1.7,0.9,2.6c0.3,0.6,0.7,1.1,1.7,1.1
		c1.5-1.4,3.7-1.9,5.8-2.5c3.3-0.9,6.3-2.5,9.3-3.9c0.1-0.5,0.3-0.9,0.3-1.3c0.1-0.5,0.2-1,0.8-1.2c1.7,1.3,1.9,2.8,0.6,4
		c-0.8,0.7-1.8,1.1-2.7,1.5c-2.1,0.9-4.3,1.6-6.5,2.9c1.8,2.8,1.7,6.1,3.2,8.9c1.5,0.4,2.9,0.8,4.4,1.2c4.1-2.1,8.9-2.6,13-5
		c1.4-0.8,3-0.8,4.4,0c0.9,0.7-0.3,1.9,0.8,2.6c9.5-4.5,19-9.1,28.5-13.6c4.2-2,8.3-4.4,12.9-5.7c0.4-0.1,0.7-0.3,1.1-0.5
		c5.4-3.2,10.8-6.4,16.2-9.6c1.3-0.7,2.2-1.8,3.1-3c3-4.1,6.1-8.2,9-12.3c3.2-4.5,6.8-8.6,10.9-12.2c0.2-0.1,0.1-0.4,0.2-0.7
		c-2.7-0.6-5.4-1.1-8-1.9c-7.5-2.3-11.7-7.6-12.6-15.3c-0.5-4.2-1.3-8.3-2.1-12.4c-0.4-1.9-0.7-3.9-0.6-5.8c0-1,0.2-2.1-0.7-3.9
		c-0.1,9.2,0,17.5,0.9,26c-1.1,0.7-1.4,1.8-1.5,3c0,0.6-0.3,1.3-0.5,1.9c0,0.1-0.4,0.1-0.7,0.2c-0.8-1,0.4-2.3-0.5-3.3
		c-0.5-0.2-0.9-0.4-1.4-0.6c-0.3-1.2,0.1-2.4,0.2-3.5c0.6-4.7,1.3-9.3,1.7-14c0.3-3.5,1.6-6.8,1.7-10.3c0-0.5,0.4-1,0.4-1.1
		c-0.1-2.3-0.2-4.2-0.4-6.2c-0.2-3.1-0.4-6.3-0.7-9.4c-0.2-2-0.9-3.7-2.2-5.3c0.8,7.2-0.4,14.4-0.2,21.5c0,1,0.1,2.1-0.4,3.1
		c0,0.1-0.2,0.1-0.4,0.1c-0.8-0.3-0.6-1-0.5-1.6c0.3-2.9,0.1-5.7-0.2-8.6c-0.5-5.2-0.8-10.4-1.1-15.6c-0.1-1.8-0.2-3.6,0.7-5.2
		c-0.4-0.8-0.4-1.5-1.2-1.8c-0.7,1.7-1.3,3.4-2.3,5.8c0.1-3.5,1.4-6,1.1-8.8c-0.7-1.5-1.4-3-2.6-4.1c-1,0.8-0.9,1.8-1.1,2.6
		c-0.8,2.4-1.2,5.1-3.2,6.9l0.1,0.1c0-1.3,0.1-2.6,0.4-3.9c0.7-3.3,1.1-6.7,1.1-9.9c-1.3-2.1-1.3-2-3.2-2.7
		c1.1,4.6,0.6,9.2-0.2,13.7c-1.1,5.9-2.5,11.7-3.8,17.6c-0.1,0.6-0.4,1.3-1,1.6c-0.6-0.7-0.4-1.8-1.3-2.3l0.1,0.1
		c1-2.4,2.4-4.6,2.8-7.2c0.7-4.8,1.5-9.5,1.8-14.3c0.3-3.9,0.3-7.8-1.9-11c0-1,1.1-1,0.9-1.9c-0.5-0.7-0.7-1.7-1.8-1.9
		c-2,3.5-4,7-6,10.5c-0.5,0.8-1,1.5-1.6,2.2c-4.5,4.9-9,9.8-13.5,14.6c-0.4,0.5-1,0.8-1.5,1.1c-0.1,0.1-0.2,0-0.3-0.1
		c-0.6-0.4-0.5-0.9-0.1-1.3c0.9-1.1,1.9-2.1,2.9-3.2c4.7-5,8.9-10.6,13-16.1c0.9-1.3,1.7-2.6,1.5-4.3c0.4-0.2,0.8-0.3,0.8-0.8
		c0.4,0,0.7,0,1.3,0c1.2-1.9,2.5-3.9,3.8-5.8c0.1-0.1,0.4-0.1,0.7-0.2c0.9,0.6-0.3,1.5,0.4,2.2c0.6,0.3,1.4,0.7,2.4,1.2
		c-0.1-0.8-0.1-1.3-0.2-1.8c-0.7-2.5-1.4-5-2.1-7.4c0.6,0.1,0.9,0.5,1.1,1c1.6,3,3.1,6.1,3.2,9.5c0.5,0.7,0.9,1.4,1.4,2
		c0.6,0.6,0.3,1.9,1.4,2.2c0.2-3-1-8.7-3-14.3c-1.8-1.3-1.8-1.3-3.7-1.4c-0.1,0.4-0.2,0.7-0.3,1.1c-1.1-0.2-0.9-1.6-2.4-2
		c-1.9-0.4-4,0.4-6,1.9c-0.2,0.1-0.5,0-0.7,0c-0.6-0.2-0.8-0.7-0.9-1.4c0.7-2.1,2.3-3.3,4.3-4.1c2.3-0.9,4.6-0.9,6.9-0.3
		c4.3,1.1,7.8,3.6,10.5,7.1c2,2.6,3.5,5.5,4.6,8.6c1.5,4.1,2.9,8.1,3.8,12.3c0.1,0.4,0.1,0.8,0.2,1.3c-0.3,0.6-0.6,1.3-0.9,2.1
		c0.5,4.1,1,8.2,1,12.4c0,0.6,0.2,1.3,0.3,1.9c0.5,3.9,1.7,7.6,2.6,11.4c0.1,0.4,0.1,0.8,0.1,1.2c-0.3,0.7-0.7,1.4-1,2.1
		c0.2,2.7,0.2,5.5,0.6,8.2c0.3,2.1,0.6,4.1,0.6,6.2c0.1,5.4,0.9,10.7,1.6,16c0.1,1,0.4,2.1,1.9,2.3c0.4-1.1,0.2-2.3,0.2-3.4
		c-0.2-3.9-0.5-7.8-0.6-11.7c-0.4-10.8-0.6-21.7-1.5-32.5c-0.1-0.9,0-1.9-0.3-2.7c-0.8-1.9-0.9-3.8-1-5.7c-0.2-3.9-1-7.8-1.9-11.6
		c-1.6-6.4-3.6-12.5-6.8-18.3c-1.6-2.9-3.4-5.6-5.7-7.9c-2.4-2.4-5-4.6-8.6-4.5c-0.5-1.4,0.2-1.9,1.2-2.1c0.6-0.1,1.3,0,1.9,0.2
		c1.8,0.5,3.3,1.6,4.7,2.8c2.8,2.6,5.2,5.5,7,8.9c3,5.3,5,10.9,6.5,16.7c0.2,0.6,0.2,1.3,0.8,1.7c0.1,0.8,0.1,1.7,0.2,2.6
		c0.5-1,0.2-1.8-0.3-2.5c0-4.3-1.5-8.4-2.4-12.6c0.5-0.5,1-0.9,1.5-1.3c-1.2-8.2-9-18-17-21.2c-6.1,0.6-9.7,5-13.1,9.2
		c-0.8,0-1.3,0-1.8,0c-1.5,1.6-1.2,3.9-1.8,5.7c-1.5,0-2.8,0-4,0c-0.7-0.6-1.3-1.1-1.8-1.5c-2.8-0.5-5.5-0.9-8.2-1.4
		c-2.3-0.4-4.4-0.1-6.3,1.3c-1.3,0.9-2.6,1.7-4,2.5c-4.2,2.7-8.3,5.4-12.5,8c-1,0.6-1.9,1.5-3.2,1.2l0.1,0.1
		c0.4-1.1,1.4-1.5,2.3-2.1c4.6-3.2,9.2-6.4,13.8-9.6c0.6-0.4,1.4-0.6,1.8-1.6c-1-0.7-2.2-0.7-3.3-0.5c-0.8,0.1-1.4,0.3-2.3,0.1
		c-3.1-0.8-6.2-0.6-9.2,0.5c-3.7,1.4-7.3,2.8-11,4.1c-2.1,0.7-4,1.9-6.2,2.2c0-0.3,0-0.6,0-0.9c0.3,0,0.6,0.1,0.8,0
		c5.3-2.5,10.4-5.3,15.8-7.4l0.1-0.3c-0.1-0.5-0.4-0.7-0.8-0.7c-2,0.2-4.1,0.2-5.7,1.8c-3.8,0.6-6.4,3.2-9.3,5.4
		c-0.4,0.3-0.8,0.6-0.7,1.3C590.5,150.5,590,150.8,589.6,151.4z M943.7,629.4c1.2,0.4,2.3,0,3.4-0.3c4.4-1.2,8.7-2.8,12.8-4.7
		c8.5-3.9,16.5-8.9,24.9-13.1c0.5-0.2,0.9-0.5,1-1.3c-3.9,0.6-7.6,1.9-11.4,2.7c-4,0.8-7.9,1.6-12,2.3c-3.2,2.3-6.5,4.7-9.7,7
		c-0.4,0.8-0.2,1.7-1.6,2.8c-0.5,0.3-1.7,1.1-2.9,1.8C946.9,627.6,945.4,628.6,943.7,629.4c0,0.2-0.1,0.3-0.1,0.3
		S943.7,629.6,943.7,629.4z M533.1,389.7c-1.2-0.3-2.3,0-3.5,0.2c-4.1,0.9-8.2,1.7-12.2,2.8c-13,3.3-26,6.7-39.5,7.6
		c-3.7,0.2-7.2,1.3-10.7,2.3c-2.6,0.7-5.3,1.5-7.9,2.1c-8.8,2-17.7,3.1-26.6,4.6c-3.8,0.6-7.6,2-11.6,1.3
		c-5.3,0.7-10.6,1.4-15.9,2.7c-1.2,2.3-3.3,3.6-5.4,4.9c-4.2,2.6-8.5,5.2-12.7,7.8c-1.5,1-3.1,1.9-4.1,3.5c-0.4,0.6-1.1,1.1-1.8,1.5
		c-6.6,3.7-13.4,7-20.8,8.9c-4.7,1.2-9.3,2.5-14,3.7c-1.8,0.5-3.4,1.2-5,2.2c-3.7,2.4-7.2,5.1-11.2,7.2c-0.3,0.2-0.5,0.6-0.1,1
		c1.1,0.4,2.3,0,3.4-0.2c11.5-2.6,23-4.6,34.6-6.3c1.6-0.2,3.4-0.1,4.7-1.6c0.3-0.3,0.9-0.4,1.4-0.5c9.3-1.8,18.7-3.8,28-5.4
		c11.6-2,23.1-4.1,34.5-7.2c12.2-3.3,24.4-6.7,36.1-11.8c0.6-0.3,1.2-0.7,1.8-0.7c1.9-0.1,3.1-1.2,4.5-2.2c3.6-2.7,7.3-5,11.6-6.4
		c2.2-0.7,4.4-1.6,6.7-2.3c3.4-1.1,6.6-2.3,9.8-3.9c8.5-4.3,16.7-9.2,24.7-14.4C532.4,390.7,533,390.4,533.1,389.7
		c0.3-0.1,0.4-0.2,0.1-0.3C533.3,389.4,533.2,389.6,533.1,389.7z M762.8,453.9c-3.5-0.2-5.5-2.8-7.5-5.1c-2.6,0.3-5,0.8-7.3,1.6
		c-12.9,4.5-26.1,7.2-39.8,7.7c-4.4,0.2-8.6,0-12.7-1.5c-0.5-0.2-1-0.3-1.4,0.3c0.3,0.4,0.6,0.8,0.9,1.2c6.4,6.2,10.7,13.7,14,22
		c1.2,3.1,2.1,6.2,1.9,9.5c-0.1,1-0.1,2.1,0.9,2.9c5.6,0.9,11.3,1.8,17.1,1.6c3.8-0.1,7.6,0.1,11.4,0.2c2.3,0.1,4.7,0.3,7,0.4
		c11,0.4,21.9-0.8,32.9-1.7c6.9-0.6,13.7-1.6,20.5-3c4-0.8,7.9-1.6,11.9-2.3c6.3-1.1,12.6-2,18.9-3c4.4-0.7,8.7-1.7,13.1-2.4
		c6.7-1.2,13.4-2.3,20-3.8c1.5-0.3,3-0.8,4.7-1.2c-0.3-0.8-0.4-1.4-0.7-2c-2.1-4.5-3.7-9.2-5-14c-0.3-1-0.7-2-1-3
		c-4.1-10.9-7.1-22.1-8.9-33.6c-0.3-1.8-0.6-3.6-1.1-5.4c-3.5-10.9-6.8-21.9-9.9-33c-0.1-0.4-0.2-0.8-0.4-1.1c-0.2-0.4,0-1.1-0.8-1
		c-0.1,0.1-0.2,0.2-0.3,0.3c-0.5,0.9-0.9,1.9-1.3,2.8c-4.2,9.3-9.4,18.1-16.1,25.8c-6.3,7.2-13.4,13.5-22.3,17.6
		c-0.6,0.3-1.1,0.7-1.8,1.1c2.5,2.3,5.5,3.5,7.9,5.6c-1.4-0.2-2.8-0.5-4.1-0.9c-1.4-0.4-2.7-0.9-4.1-1.4c-1.3-0.6-2.5-1.3-4-2
		c-6,2.6-11.7,5.8-17.7,8.3c-6.1,2.5-12.4,4.6-18.8,6.7c0.9,2.5,2.7,4.1,3.9,6.1L762.8,453.9z M330.8,399.1c-0.6,0-1.3,0-1.9,0.1
		c-2.4,0.6-4.8,1.1-7.2,1.8c-1.1,0.3-2.2,0.7-3.3,1.2c-3.1,1.4-6.1,2.8-9.2,4.2c-0.2,0.1-0.2,0.4-0.3,0.6c-0.4,0-0.7,0-1.2,0.1
		c0.6,0.6,0.9,0.3,1.1-0.2c1.1,0.1,2.1-0.1,3.1-0.5c2.5-0.8,5-1.5,7.5-2.1c1.1-0.3,2.3-0.5,3.4-0.7c0.5-0.1,1,0,1.2,0.6
		c0,0.1,0,0.3-0.1,0.4c-0.4,0.3-0.8,0.7-1.3,0.8c-7.4,2.2-14.6,4.9-22.2,6.3c-1.7,0.3-3.3,0.8-4.9,1.4c-1.8,0.7-3.7,1.2-5.6,1.6
		c-4.1,0.9-8.2,1.7-12.2,2.8c-3.9,1.1-7.7,2.5-11.6,3.5c-4.3,1.1-8.2,3.3-12.2,4.9c0.8,3,0.8,3,5.4,7.7c1.5,0.2,3.1-0.1,4.5-0.6
		c3.4-1.3,7-2,10.6-2.7c2.1-0.4,4-1,5.9-1.9c3.4-1.6,7-3,10.5-4.4c3.1-1.3,6.3-2.6,8.9-4.8c0.4-0.3,0.8-0.7,1.3-0.9
		c3.8-1.4,7.5-3.1,11.5-3.6c8.1-1.1,16.3-2,24.4-3.6c0.5-0.1,1-0.1,1.4,0.3c0,0.4-0.2,0.8-0.6,0.9c-1.1,0.4-2.2,0.7-3.4,1
		c-6.2,1.4-12.6,2.3-18.9,3.1c-4.3,0.5-8.4,1.9-12.4,3.5c-0.7,0.3-1.4,0.7-2,1.2c-2.9,2.7-6.5,4.3-10.2,5.7
		c-2.1,0.8-4.1,1.6-6.2,2.4c-0.7,0.3-1.5,0.5-2.1,1c-3.1,2.4-6.9,2.9-10.6,3.5c-0.7,0.1-1.3,0.3-1.5,1c1.4,2.3,1.4,2.3,4.3,4.3
		c1.8,0.3,3.6-0.1,5.4-0.4c2.2-0.4,4.3-1,6.5-1.3c2.6-0.3,5.1-0.9,7.6-1.8c5.4-1.9,10.8-3.7,16.3-5.6c1.4-0.5,2.8-0.8,4.2-1
		c7.2-1,14.5-2.2,21.7-2.9c3.7-0.4,6.7-1.9,9.7-3.8c0.8-0.5,1.5-1.1,2.2-1.6c0.2-0.1,0.5-0.1,0.7-0.2c0.4,0.2,0.6,0.5,0.6,1
		c-1.1,2-3,3.1-4.9,4.2c-2.7,1.6-5.4,3.2-8.1,4.7c-1.5,0.8-3,1.8-4,3.1c-2,2.6-4.6,4.2-7.4,5.7c-1.4,0.7-2.7,1.6-4,2.4
		c-1.6,0.9-3.1,1.9-4.6,2.8c-0.7-0.3-1.3-0.5-1.8-0.7c-2.1,0.2-3.3,1.7-4.8,2.7c-1.6,1-3.7,1.1-5.3,2.4c0.7,0.9,1.2,1.6,1.8,2.4
		c0.6,0.7,1.1,1.4,1.6,2c2.2,0.1,4,0.2,5.8,0.2c1,0,2.1-0.2,3.1-0.3c6.7-1,12.9-3.2,18.4-7.3c4.7-3.6,9.9-5.7,15.6-6.8
		c0.9-0.2,1.8-0.4,2.7-0.7c5.3-1.3,10.7-2.5,15.7-4.7c3.6-1.5,7.1-3.3,10.8-5c1-2.2,3-3.5,5-4.7c3.8-2.2,7.7-4.5,11.5-6.8
		c1.3-0.8,2.6-1.7,3.8-2.6c-0.7-1.2-2.1,0.2-2.8-1c1.1-2.3,2.9-3.3,5.3-3.7c7.2-1.1,14.3-2.9,21.7-2.6c1.1,0,2.3-0.3,3.5-0.5
		c1-0.2,2-0.4,3.1-0.6c6.4-1,12.9-2,19.4-2.9c2.2-0.3,4.4-0.4,6.2-2c0.5-0.4,1.2-0.4,1.9-0.5c2-0.5,4.1-0.9,6.1-1.5
		c5-1.4,10.1-2.5,15.3-3.4c9.5-1.6,19-3.4,28.3-5.9c7.8-2.1,15.7-3.9,23.7-5.2c6.7-1,13.4-2,20.1-3.3c9.1-1.7,18.1-3.7,27.2-5.6
		c6.8-1.4,13.4-3.4,19.6-6.5c2-1,4.1-1.7,6.2-2.4c7-2.4,14.1-4.6,21.2-7.1c7.1-2.5,14.2-5.2,21.2-7.8c0.5-1.4,1.3-2.2,2.5-2.6
		c1.1-0.4,2.2-0.9,3.3-1.3c10.2-4.1,20.2-8.5,30-13.4c5.8-2.9,11.7-5.7,17.6-8.6c2.8-1.4,5.7-2.5,8.7-3.5c7.7-2.6,15.2-5.4,22.6-8.8
		c1.9-0.9,3.9-1.5,5.9-2.1c6.7-1.7,13.4-3.5,20.1-5.3c1.1,0.6,2.3,1,3.7,0.9c1.6-0.1,3.1-0.1,4.7,0c2.1,0.1,4.1,0.5,6,1.5
		c0.3,0.2,0.6,0.4,0.5,1.1c-3.6-0.7-7.1,0.4-10.7,0.9c-3.4,0.5-6.7,1-9.9,0.4c-3.4,1.3-6.6,2.4-9.8,3.6c-3.3,1.2-6.6,2.4-9.9,3.7
		c-3.1,1.2-6.4,2.2-9.5,4c1,0.5,1.6,0.9,2.3,1.2c6.5,2.7,12.9,5.7,19.3,8.7c1.3,0.6,2.6,1.2,4,1.7c4.3,1.5,8.4,3.5,12.5,5.6
		c3.1,1.6,6.2,2.6,9.7,2.9c8.6,0.6,17.2,1.2,25.8,1.9c1.2,0.1,2.4-0.1,3.4-0.5c2-0.9,4.1-1.7,5.9-3.1c2.2-1.8,4.5-3.5,6.7-5.4
		c1.4-1.1,2.9-2.2,3.7-4.1c-0.6-1-1.3-1.9-1.9-2.9c-0.7-1.1-1.5-2.1-2.1-3.3c-2.4-5.5-4.5-11.1-5.7-17.1
		c-2.1-10.8-5.7-21.1-11.2-30.8c-1-1.9-2.3-3.4-4-4.7c-3.3-2.4-5.9-5.5-7.8-9.1c-1.9-3.7-3.9-7.4-5.9-11c-0.8-1.4-1.4-2.8-1.7-4
		c-2.6-2.8-5.3-5-8.1-7.2c-2.9-2.3-6.1-3.3-9.7-3.6c-8.2-0.7-16.4-1.4-24.6-2.1c-1.3-0.1-2.6,0-3.9,0.3c-7.7,1.5-14.2,5.1-19.9,10.4
		c-3,2.8-5.9,5.6-8.8,8.4c-3.8,3.7-7.6,7.6-10.2,12.2c-0.8,0.3-1.5,0.6-2.3,1c-0.7,1.3-1.8,2.6-2.2,4c-0.8,2.5-2.4,4.3-4.2,6
		c-1.5,1.4-3.2,2.7-4.9,3.9c-9.6,6.8-20,12.3-30.9,16.8c-0.6,0.1-1.2-0.6-1.8-0.2c-8.5,4.6-17.2,8.5-26,12.2
		c-6.4,2.7-12.6,5.7-19.3,7.4c-3.3,0.8-6.5,1.7-10,1.7c-2.7,0-5.5,0.3-8.2,0.9c-10.3,2.2-20.7,4.4-31,6.6c-1.5,0.3-3,0.8-4.4,1.6
		c-3.8,2.3-8,3.9-12.2,5.3c-8.1,2.8-16.3,5.7-24.2,9.1c-5.1,2.2-10.4,4.2-15.7,6.2c-6.1,2.3-12.2,4.6-18.3,6.9
		c-7.3,2.8-14.5,5.8-22.1,8c-7.3,2.1-14.5,4.2-21.8,6.3c-6.9,2-13.8,4.1-20.8,5.5c-4.6,1-9.1,2.2-13.6,3.8c-2.8,1-5.7,1.9-8.6,2.5
		c-2.1,0.4-4.1,0.9-6.1,1.4c-0.8-0.1-1.5-0.3-2.2-0.4c-7,3.1-14.3,4.5-21.7,5.4c-3.9,0.5-7.7,1.4-11.3,2.9c-1.9,0.8-3.9,1.5-5.9,2.2
		c-2.9,1.1-5.8,2.2-8.7,3.9c2.1,2,4.4-0.4,6.4,0.7c-0.9,0.9-2,1.2-3.2,1.3c-2.1,0.1-3.7,1-5.3,2.2c-1.3,1-2.6,2.2-4.5,2.2
		c-0.2-0.3-0.5-0.6-0.7-0.8c0.2-1.1,1.3-1.3,2-1.9C329,400.8,330.4,400.5,330.8,399.1c0.3-0.1,0.7-0.1,1.1-0.2
		C331.4,398.3,331.1,398.6,330.8,399.1z M333.3,429.8c-1.4-0.6-2.8-0.1-4.2,0.1c-3.5,0.5-7,0.9-10.4,1.6c-2.3,0.4-4.7,0.3-6.9,1.4
		c-6.9,3.4-14.6,3.6-21.7,6.2c-0.1,0-0.3,0-0.4,0.1c-4.7,1-9.4,2-14.4,3.1c-3.8-0.5-5.2-4.1-7-7.2c-3.4,0.4-6.5,1.7-9.9,1.6
		c-1-0.5-2-1-3.1-1.6c-9.9,1.9-19.9,2.4-29.9,2.8c-3.1,3-6.1,5.8-9.1,8.8c-0.8,0.8-1.4,1.9-2.1,2.8c-2.5,3.8-5.1,7.5-8,11.1
		c-0.6,0.7-1.4,1.2-1.5,2.4c3,3.8,4.6,8.4,6.6,12.8c-0.3,0.2-0.5,0.4-0.7,0.6c0,0.6,0.4,0.9,1.1,1.1c0.4-0.2,1-0.5,1.6-0.8
		c0.1,0.5,0.4,0.7,0.8,0.8c0.3,1,1,1.5,2.1,1.6c3.3-1.2,5.9-3.5,8.3-6.1c0.9-0.9,1.4-2.2,2.9-2.5c0.4-0.1,0.7-0.7,1.1-1.1
		c2.6-2.9,5.2-5.9,7.7-8.8c0.9-1.1,1.9-2.1,2.6-2.9c0.2-1.1-1-1.8,0.3-2.5c1,0.4,2.1,0.8,3.4,1.3c2.2-1.5,4.9-1.2,7.4-0.8
		c4.3,0.7,8.6,0.7,12.9,0.8c1.3,0,2.6-0.2,4,0.5c0.4,0.5,0.9,1.1,1.4,1.7c5.3,0.6,10.5,2,15.9,0.8c2.5-0.6,5.1-1.2,7.6-1.9
		c0.6-0.2,1.2-0.4,2-0.2c0.2,0.2,0.4,0.5,0.6,0.9c-1,1.7-3,1.4-4.5,2.4c-0.2,0.7-0.5,1.6-0.7,2.3c-1.8,2-4,3.2-6.3,4.2
		c-4.4,1.8-8.9,3-13.6,3.2c-0.9,0-1.9,0-2.5,0.9c-0.6,3.6,0.4,6.9,2.4,9.9c0.3,0.4,0.6,0.9,0.8,1.4c0.2,0.5,0.8,1.1,0,1.6
		c-2.3-1.1-3.6-3.2-5.3-5c-0.6,0.5-1.1,0.8-1.4,1.1c-0.2,0.2-0.3,0.4-0.5,0.7c1.2,2.2,3.8,3.5,4.6,6c-1.2,1.3-2.3,1-3.2,0.1
		c-1.7-1.6-3.2-3.4-4.2-5.6c-0.3-0.7-0.6-1.5-0.1-2.5c2.1-1.3,3.3-3.6,4.3-6.2c-0.4-0.7-1-1.4-0.6-2.6c1.2-1.9,3-2.8,5.4-2.8
		c3.8,0,7.5-0.9,11.1-2.1c0.6-0.2,1.3-0.2,1.7-1.1c-1.3-1.2-2.7-2.3-4.6-2.6c-5.8-1-11.4-2.7-17.4-2.3c-1.8,0.1-3.6-0.2-5.5-0.3
		c-4.3-0.4-8.5-0.8-12.8-0.1c-0.8,1.1-1.7,2.1-2.5,3.1s-2,1.7-2.4,2.9c3.6,4.3,4.9,9,3.9,14.4c-1.1,5.8-1.6,11.6-2.3,17.5
		c-0.6,4.9-0.8,9.9-1.8,14.8c-0.7,3.5,0.2,6.7,0.8,10c0.1,0.5,0.4,1,0.7,1.4c1.4,1.4,1.8,3.2,2.3,4.9c1.7,6,3.7,12,5.9,17.9
		c3.2,8.5,6.6,17,9.8,25.5c2.7,1.2,5.3,2.5,8,3.6c1.9,0.8,3.7,2,5.3,3.2c1.6,1.2,2.6,2.9,3.1,4.9c0.4,1.8,0.2,3.4-1.4,4.5
		c-0.9,0.6-1.4,1.5-1.8,2.5c-0.9,1.9-1.5,3.9-1.7,6c-0.2,1.9-0.5,3.9-0.8,5.8c-0.4,3-1.6,5.8-3.5,8.2c-0.8,1-1.6,2.1-2.4,3.1
		c-4.2,5-8.3,10-12.5,15.1c-2.7,3.3-4.7,7-6.3,10.8c-2.1,4.9-2.4,10.1-1.6,15.4c0.1,0.6,0.3,1.3,1.1,1.7c1.8-0.3,3.7-0.7,5.6-1.1
		c6.9-1.5,13.8-2.9,20.8-3.8c0.8-0.1,1.7,0,2.3-0.4c1.3-0.9,2.7-0.8,4.2-0.9c1.7-0.1,3.4-0.2,5.1-0.4c2.9-0.3,5.7-0.7,8.6-0.9
		c9.4-0.6,18.8-1.1,28.2-1.6c8.9-0.5,17.7-1,26.6-1.3c7.3-0.2,14.6-0.1,21.9-0.2c1.7,0,3.4,0.2,4.9-0.8c0.9-0.6,2.1-0.2,3.1-0.1
		c4,0.3,8,0.4,12.1,0.3c12-0.2,24-0.3,36,0c7.6,0.2,15.1-0.1,22.7-0.5c4.3-0.2,8.5-0.8,12.7-2.2c7.4-2.6,14.9-4.8,22.3-7.3
		c7-2.4,14.3-4.2,21-7.5c0.8-0.4,1.7-0.5,2.6-0.7c4.2-0.9,8.4-1.8,12.6-2.8c3.8-0.9,7.4-2.4,10.7-4.6c1.1-0.7,2.3-1.2,3.6-1.5
		c4.7-0.9,9.3-1.1,14-0.3c1.7,0.3,3.4,0.6,5,0.6c2.1,0.1,4.2,0.4,6.2,0.9c7.7,1.8,15.4,2.8,23.2,3.4c9,0.8,18,1.1,26.9,2.4
		c0.4,0,0.7-0.1,1.1-0.2c0-1.7-0.9-3-1.3-4.5c-0.3-0.8-0.4-1.8-1.5-2.7c-3.2-0.2-6.8-0.9-10.4-1.8c-0.9-0.2-1.8-0.1-2.7-0.2
		c-0.7-0.1-1.6,0.1-1.8-1.2c2.3-0.5,4.6,0.1,6.9,0.1c2.3,0.1,4.7,0.2,7,0.3c0.3-0.9,0.5-1.7,0.9-2.3c0.5-0.7,1.3-1.2,1.8-1.7
		c0.8-2.7,1.6-5,2.8-7.2c0.2-0.3,0.4-0.7,0.4-1.1c0-3.8,2.4-6.5,4.7-9.2c4-4.7,8.4-9,13.3-12.7c7.8-5.9,7.8-5.9,17.2-7.8
		c4-0.8,8-1.4,12.1-1.1c3,0.2,6,0.6,8.3,3c0.4,0.1,0.9,0.2,1.4,0.3c4.5,0.9,9,1.8,13.2,3.7c3.7,1.6,7.5,3,11.7,3.9
		c0.8-0.5,1.8-1.2,2.9-1.6c7.1-2.6,14.2-5.3,21.3-7.9c0.7-0.3,1.5-0.6,2.3-0.5c3.4,0.1,6.7-1,10.1-0.7c0.2,0,0.4-0.3,0.5-0.4
		c0-0.1,0.1-0.3,0-0.4c-2.4-3.1-4.8-6.2-7.2-9.3c-4.2-5.7-8.9-11-12.4-17.1c-1.3-2.2-3.1-3.9-5-5.5c-2.7-2.3-5.6-4.3-8.6-6.2
		c-5.8-3.6-11.9-6.5-18.1-9.4c-1.9-0.9-3.9-1.2-6.1-1.2c-8.4,0-16.7,0.7-25,1.2c-11.5,0.7-22.9,1.9-34.4,2.8
		c-7.6,0.6-15.1,1.6-22.5,2.7c-1.8,0.3-3.6,0.6-5.3,1.3c-8.7,3.2-17.6,5.8-26.6,8c-3.5,0.9-7,1.9-10.4,3.5c-2.7,1.3-5.6,2-8.6,2.5
		c-6.2,1-12.4,1.8-18.5,3.2c-7.4,1.7-14.2,4.3-20.4,8.6c-1.5,1-3.1,1.9-4.8,2.7c-13.5,6.5-27.6,11.1-42.2,14
		c-4.6,0.9-9.3,1.7-13.8,2.8c-14.5,3.5-28.9,7.1-43.3,10.6c-2.2,0.5-4.3,1-6.5,1.3c-6.3,0.8-12.7,1.5-19,2.3
		c-9.6,1.2-21.6,4.2-30.6,7.6c-1.2,0.5-2.5,0.7-3.8,1c-9,2-18,2.9-27.2,3.3c-4.7,0.2-9.4-0.1-14.1-0.6c-6.2-0.6-12.4-1.8-18.7-1.8
		c-1.2,0-2.3-0.2-3-1.5c0-1.5,0.9-2.1,2.1-2.4c0.9-0.2,1.8-0.1,2.7-0.2c4.5-0.2,8.9,0.7,13.2,1.2c7.7,1,15.3,1.5,23.1,1.1
		c4.6-0.2,9.1-0.8,13.4-2.4c2.3-0.9,4.7-1.5,7.1-2.1c7.1-1.7,14.3-3.1,21.3-5.3c1.6-0.5,3.3-0.7,5-1c5.9-1.1,11.9-1.6,17.9-2.3
		c4.7-0.6,9.4-0.9,14-1.8c6.7-1.3,13.3-2.9,19.8-4.6c14.9-3.9,29.9-7.3,45.2-9.4c6.8-0.9,13.2-2.9,19.3-6.2c4.4-2.3,9-4.3,13.5-6.2
		c3.8-1.7,7.6-3.4,11.3-5.3c3.1-1.6,6.4-2.9,9.8-4c0.7-0.2,1.6-0.2,2.2-0.8c0.4-0.5,0.7-1,1.2-1.7c2.5,0,4.9-0.1,7.3-1
		c4.6-1.7,9.3-2.4,14.1-3.1c3.2-0.4,6.5-1,9.4-2.5c3.4-1.7,7.1-2.7,10.7-3.6c2.2-0.5,4.3-1,6.5-1.6c1.4-0.4,2.8-0.8,4-1.4
		c1.5-0.8,3.1-1.3,4.8-1.7c2.5-0.7,5-1.4,7.5-2.1c7.3-1.9,14.4-4.8,22-5.3c2.1-0.1,4.2-0.4,6.2-0.5c13.1-1.3,26.3-2.1,39.5-2.3
		c2.4,0,4.7-0.2,7-0.3c6.5-0.2,13.1-0.5,19.6,0.2c1.8,0.2,3.6,0,5.4-0.5c7.4-2,14.9-3.8,22.8-3.1c1.7,0.1,3.1-0.3,4.4-1.5
		c-0.2-2-0.4-4.1-0.5-6c0.5-1.6,1.6-2.5,2.9-3.1c0.7-0.3,1.6-0.3,1.9-1.5c-0.5-3-0.6-6.2-1.4-9.4c-0.3-1.3-0.4-2.6-0.4-3.9
		c-0.1-1.5-0.5-2.8-1.1-4.1c-0.9-2-1.8-4-2.7-6.1c-2.2-5-4.5-10-7.6-14.5c-1.6-2.2-2.8-4.7-3.9-7.2c-1.3-3-2.8-5.9-5.5-7.5
		c-0.4-0.8-0.1-1.6-0.9-2c-5.4-0.5-10.8-0.6-16.2-2c-7.4-1.9-14-5.2-19.4-10.5c-5.6-5.5-9.2-12-9.3-20.1c0-1.9-0.6-3.6-1.1-5.4
		c-1.7-6-3.2-12.1-3.8-18.4c-0.3-2.9-0.5-5.7-0.8-8.4c-0.7-0.8-1.4-1.4-1.9-2.2c-1.6-2.5-3.9-4.2-6.1-6c-3-2.3-6.2-4.3-9-7.1
		c-0.8,0.2-1.7,0.3-2.6,0.6c-5.4,1.5-10.6,3.6-15.6,6.2c-6.1,3.2-12.6,4.9-19.6,4.9c-3.4,0-6.7,0.5-10,1.4c-8.7,2.3-17.4,4.6-26.3,6
		c-1.6,0.3-3,0.8-4.3,1.8c-2,1.6-4.2,3.1-6.3,4.7c-6.8,5-14,9.7-21.4,13.7c-4.5,2.4-9.2,4.4-14.2,5.6c-4.4,1-8.5,2.5-12.2,5.1
		c-1.3,0.9-2.5,1.8-4.1,2.3c-3.2,1.1-6.2,2.7-8.7,4.7c-1.3,0.2-2.3,0.3-3.3,0.7c-9.5,4.1-19.3,7.2-29.2,10.1
		c-17.5,5.1-35.3,8.1-53.5,9.4c-1.6,0.1-3.1,0.4-4.5,1.2c-2.4,1.3-5.1,2.1-7.8,2.6c-5,0.9-10,1.8-15,2.7c-9.4,1.8-18.7,3.5-28.1,5.3
		c-1.5,1.9-4,2.5-5.6,4.3c-5,5.5-11.2,9.3-17.4,13.3c-2.8,1.8-5.8,2.9-9.1,3.5c-1.7,0.3-3.3,0.6-5.2,0.9c-0.8,1.8-2.7,2.2-4.4,2.7
		c-4.6,1.4-9.4,2.2-13.7,4.5c-0.3,0.2-0.7,0.3-1.1,0.4c-1.5,0.3-3.1,0.6-4.6,0c-0.6-0.2-1.2-0.6-0.6-1.8c1.7,0.7,3.1-0.4,4.6-1.1
		c3.4-1.6,6.8-3.3,10.7-3.6c1.5-0.1,2.1-1.3,2.8-2c1.8-0.6,3.3-1,4.7-1.6c2.8-1.1,5.6-2.1,8.5-2.9c2.3-0.6,4.4-1.6,6.4-2.8
		c4.2-2.4,7.9-5.4,11.5-8.6c2-1.8,4.5-4.9,5.6-7.1c-2.3,0.5-4.3-1.3-6.5-0.4c-2.1,0.8-4.4,0.1-6.3,1.1c-1.3-0.3-2.5-0.6-3.6-0.9
		c-1.7-0.5-2.9-1.7-3.8-3.2c-0.7-1.2-1.5-2.5-0.8-4c2.3-1.5,4.9-2,7.1-3.4c2.4-1.6,5.1-2.6,7.7-3.7c1.4-0.6,2.8-1.4,4.2-2.1
		c1.4-0.7,2.7-1.7,4.1-2.3C328.8,435.1,331.1,432.6,333.3,429.8v-0.3C333.3,429.6,333.3,429.7,333.3,429.8z M856.1,577.1
		c-1.5-0.5-2.9,0.4-4.4,0.9c-1.3,0.5-2.7,1-4,1.5c-7.8,2.6-15.6,5.1-23.4,7.7c-7.3,2.4-14.6,4.8-22.2,6.3c-1.1,0.2-2.3,0.7-3.4,1
		c-3,1-5.9,2.1-8.9,2.9c-5.1,1.5-10.3,2.8-15.5,4.2c-4.2,1.1-8.3,2.4-12.5,3.4c-1.9,0.5-3.8,1.2-5.8,0.7c-1.4-0.4-2.8-0.2-4.3,0.2
		c-1.1-1.3-2.4-2.2-4.4-1.3c-1.1,1.1-2.3,2.4-3.6,3.6c-1.2,1.1-1.8,2.4-2.2,4c-1.6,6.7-0.1,12.9,3.2,19c-0.1,0.6-0.2,1.4-0.3,2.2
		c0.9,1.9,1.4,4.1,2.9,5.9c2.6-1.5,5.4-1.8,8.3-2c7.8-0.7,15.6-0.9,23.3-2.8c0.5-0.1,1-0.1,1.5-0.2c4.4-0.7,8.8-1.3,13.1-2.1
		c8.5-1.4,17-2.5,25.7-2.6c7.5-0.1,14.8,0.9,22.2,1.6c9.9,1,19.8,1.5,29.7,1.5c9.7,0,19.3-0.5,29-0.9c1.4-0.1,3-0.4,4.3,0
		c2.5,0.8,4.9,0.5,7.3,0c2.1-0.4,4.1-0.6,6.2-0.8c8.5-1,16.7-2.8,24.7-5.9c3.4-1.3,6.7-2.9,9.3-5.6c0.9-0.9,1.9-1.8,3-2.5
		c1-0.7,1.3-1.9,2.2-2.6c1.5-0.6,2.9-1.4,4.4-1.8c4.5-1.3,9-2.5,13.6-3.6c5.6-1.3,11.2-2.5,16.8-3.7c1.9-1.5,3.7-3,5-5
		c2.9-4.4,6.5-8.1,10.1-11.9c0.2-0.2,0.6-0.6,1,0.2c-3.6,4.8-8.4,9-11.2,14.9c2.7-0.5,4.6-1.8,6.2-3.5c2.1-2.2,3.9-4.5,5.7-7
		c2.5-3.4,5-6.7,7.8-10.3c1.1-0.3,2-1.4,2.9-2.5c3.7-4.1,6.7-8.6,8.3-14c1-3.4,2.4-6.7,4.2-9.7c2-3.4,2.3-7.1,2.8-10.6
		c-0.5-0.7-0.7-1.2-1-1.6c-5.2-6.7-10.5-13.3-15.1-20.5c-0.3-0.5-0.8-1-1.3-1.5c-4.6-4.3-9.7-7.9-15.8-9.8c-3.5-1.1-7-1.8-10.8-1.5
		c-5.7,0.4-11.5,0.8-17.1,1.7c-7.2,1.1-14.4,2.2-21.6,3.5c-11.3,2.1-22.4,5-33.5,8c-1.9,0.5-3.7,1.1-5.5,2
		c-8.3,4.1-16.9,6.9-26.1,8.1c-3.7,0.5-7.4,1.4-11.3,0.4c-5.8,2-11.5,4.1-17.4,6.1c-6.7,2.3-12.9,5.6-18.9,9.2
		c-0.6,0.3-1.1,0.7-1.6,1.1c-3.5,2.7-7.1,5.3-10.3,8.4c-5.2,4.8-10.2,9.8-14.5,15.4c-1.6,2.1-3.1,4.2-4.1,6.7
		c-0.8,1.9-1.4,3.9-0.8,6.1c1.3-0.5,2.6-0.9,3.8-1.4c7.9-3.2,16-5.7,24.2-8c6-1.6,12-3.5,18.1-5.2c1.9-0.5,3.3-1.4,4.4-3.1
		c1.8-2.8,4.2-5,6.9-6.9c4.7-3.4,9.5-6.5,14.7-9c1.1-0.5,2.2-0.9,3.1-1.7c2.3-2,5.1-2.6,7.9-3c6.2-0.9,12.4-1.8,18.6-2.8
		c8.4-1.4,16.7-3,25-4.5c1.5-0.3,3.1-0.4,4.7-0.5c0.7,0,1.2,0.3,1.4,1c-0.1,0.8-0.7,1.1-1.4,1.2c-2.2,0.5-4.4,0.8-6.5,1.4
		c-10,2.5-20.1,4.6-30.3,6.1c-4.4,0.6-8.8,1.4-13.1,2.1c-1.1,0.2-2,0.5-2.9,1c-1.9,1.2-3.7,2.4-5.6,3.5c-6.6,4-12.5,8.9-18.8,13.4
		c-0.3,0.2-0.7,0.4-0.9,0.8C860,574.4,857.7,575.2,856.1,577.1z M774.8,438c0.1-0.5,0.1-1.1,0.7-1.6c1.8-1.4,3.8-2.2,6-2.8
		c11.7-3.4,22.1-9.2,31.2-17.3c10.8-9.6,18.9-21.2,25.7-33.8c0.6-1.1,1.1-2.4,1.5-3.6c0.2-0.7,0.4-1.6,0.3-2.3
		c-0.6-3.3-1.1-6.7-2.7-9.7c-2.6-4.8-5.1-9.7-7.5-14.6c-2.5-5-5.4-9.8-8.4-14.6c-0.6-0.9-1-2.1-2.4-2.6c-3.7,4.2-7.9,7.6-13.6,8.4
		c-0.7,0.8-1.2,1.5-1.9,2.4c-5.1,1.6-10.3,3.1-15.9,3.1c-4.6,0-9.1-0.3-13.7-0.6c-4.8-0.3-9.2-1.8-13.3-4.1
		c-3.2-1.7-6.4-3.5-9.8-4.8c-6-2.3-11.7-5.2-17.3-8.3c-4.5-2.4-8.9-4.9-13.4-7.4c-1.3,0.5-2.7,0.7-3.8,1.9c1.1,1.4,2.2,2.7,3.3,4.1
		s2.6,2.4,3.5,4c-0.3,0.2-0.5,0.3-0.5,0.3c-3-2.5-5.9-5-9-7.7c-1.9,0.7-4,1.3-5.9,2.8c0.6,2.4,1.2,4.8,1.9,7.2
		c1.3,4.4,2.1,8.9,4,13.1c2.5,5.4,3.9,11.1,5.1,16.8c1.7,8.2,0.8,16.1-2.7,23.7c-2,4.4-4.5,8.5-7.1,12.6c-0.1,0.2-0.4,0.3-0.6,0.4
		c-0.4-0.2-0.7-0.4-1.1-0.6c-0.9,0.4-1.9,0.8-2.9,1.2c-4.1,1.5-8.2,1.8-12.3,0.3c-4-1.5-7.8-3.5-11.7-5.3c-0.7-0.3-1.3-0.8-2-1.3
		c-1.9-1.4-3.9-2.7-5.7-4.1c-4-3.1-7.9-6.5-11.3-10.3c-2.1-2.3-3.8-5-5-7.9c-2.5-5.6-4.2-11.5-5-17.6c-0.1-0.6,0.1-1.3-0.9-1.9
		c-6.2,2.7-12.8,5.2-19.3,8c0.7,4.5,0.5,8.7-0.3,13c1.1,0.9,1.4,2.3,3,2.8c-0.1-2.1-0.4-4-0.2-5.9s0.1-3.8,0.3-5.5
		c0.7-0.4,1-0.2,1.3,0.1c0.5,0.5,0.5,1.2,0.5,1.8c0.2,4.2,1.1,8.3,2,12.3c1.1,4.6,1.4,9.3,1.3,14c-0.1,4.2,0.4,8.3,1.2,12.4
		c1.6,8.5,5.3,16.1,10.2,23.1c0.9,1.3,2,2.4,3.5,3c2,0.8,3.6,2,5.4,3.1c3.7,2.3,7.5,4.2,11.5,5.8c1.8,0.7,3.7,1.1,5.7,1.4
		c5.1,0.6,10.2,0.4,15.3,0.5c4.5,0,8.9-0.1,13.2-1.5c0.2-0.1,0.5-0.1,0.8-0.1c0.5,0,1.1,0,1.1,0.9c-0.8,1.1-2.2,1.1-3.4,1.4
		c-3.9,0.9-7.9,1.8-12,1.9c-1,0-2.1-0.2-2.8,1c1,1,2.1,1.8,3.6,2.1c1.5,0.2,3,0.7,4.5,1.2c2.9,0.9,5.8,1.3,8.9,1.2
		c5.6-0.2,11.2-0.8,16.7-1.7c8.2-1.4,16.5-2.9,24.4-5.7c1.2-0.4,2.5-0.8,3.8-1C758.8,443.3,766.8,440.9,774.8,438z M250,567.3
		c-1.4-3.3-2.8-6.3-4-9.3c-3.6-9-6.7-18.1-9.6-27.3c-0.7-2.2-1.2-4.5-2.6-6.5c-0.4-0.6-0.6-1.4-0.8-2.2c-2.1-8.7-1.3-17.4,0.6-26
		c1.2-1.8,1.2-4,1.4-6c0.5-5.2,1.2-10.4,2.5-15.3c-0.6-2.8-1.6-5.2-2.6-7.4c-2.1,1.9-4,3.8-6.3,5.9c-1,1.8-0.7,4.9-3.6,6.2
		c-0.7-0.2-1.4-0.5-2.1-0.7c-2.4,1.5-4.6,3.5-7.1,3.9c-2.4-0.2-2.5-2.2-3.5-3.2c-2.3,0.4-4.3,0.3-5.1-2.2c-0.2-1.1,1.1-1.5,1.1-2.6
		c-1.1-1.2-1.3-3.2-2.8-4.3c-12.1,9.6-23.7,19.5-34.6,30.2c0.4,0.4,0.7,0.8,1.1,1.3c-0.4,1.9-1.4,3.6-2.5,5.2
		c-3.6,5.8-5.6,12.1-6.1,18.8c-0.8,8.7-1.3,17.4-1.9,26.5c-0.2,0.3-0.6,0.9-1,1.6c0.5,1.7,1,3.5,1.6,5.2c1.4,3.8,3,7.5,4.5,11.3
		c1.3,3.2,1.8,6.5,0.9,9.9c-0.7,2.4-1.2,4.8-2.1,7.1c-2.3,6.4-4.8,12.7-7.2,19c-1.6,4.4-3,8.9-2.8,13.7c-0.5,0.7-0.9,1.3-1.3,2
		c-0.6,6,0,12,1.2,17.9c0.6,3.1,1.1,6.2-1.5,8.8c0.8,3.3,1.2,6.6,2.8,9.5c2.4,4.4,5.2,8.4,8.6,12.1c2.3,2.5,4.9,3.2,8.1,2.9
		c1-0.1,2.1-0.6,3.1-0.4c1.9,0.5,3.6-0.1,5.4-0.5c6.5-1.4,13-3,19.5-3.3c1.1-0.7,2.1-1.4,3-2.1c0.8-0.1,1.6-0.2,2.3-0.3
		c5.1-0.2,10.2-0.4,15.3-0.7c4.9-0.3,9.9-0.5,14.8-1.5c0.2,0,0.5-0.2,0.8-0.4c0.3-0.6,0.6-1.3,0.9-1.9c-0.4-1.2-0.8-2.3-1.1-3.5
		c-1.9-7.1-1.4-14,1.4-20.7c1.1-2.6,2.6-5.1,4.3-7.4c0.8-1.1,1.7-2.3,2.3-3.6c2.5-5.4,6-10.1,10-14.4c1.9-2.1,3.9-4.2,5.9-6.3
		c1-1.1,1.9-2.2,2.2-3.7c0.4-2.2,0.9-4.4,1-6.6c0.1-2.6,0.7-5.1,1.2-7.4c1.3-1.8,2.5-3.4,3.6-4.9c-0.3-2.1-1.5-3.4-3-4.6
		c-7.7-1.5-13.4-6-18.2-11.9C248.3,566.7,248.9,567.2,250,567.3z M653.3,354c1.4,1.5,1.8,3.3,2.5,5c1.1,2.9,2.3,5.8,3.5,8.7
		c2.9,7.3,7.3,13.5,13,18.9c2.6,2.4,5.3,4.6,8.5,6.3c3.6,1.8,7.2,3.7,10.8,5.5c0.9,0.5,1.9,0.9,2.9,1.3c0.5,0.2,1,0.2,1.5-0.3
		c-1.5-2.9-3.5-5.5-4.5-8.6s-2-6.2-3-9.3c0.3-0.8,0.5-1.5,0.8-2.3c-1.2-5-0.9-10.1-0.9-15.1c0.8,0.1,1.1,0.5,1.2,1.1
		c0.1,1.2,0.2,2.3,0.3,3.5c0.3,2.6,0.7,5.2,0.9,7.8c0.4,4,2.7,7.6,3.1,11.7c0,0.3,0.1,0.5,0.3,0.7c1.3,2.4,2.7,4.8,4,7.2
		c0.8,1.3,1.5,2.7,2.3,3.9c0.5,0,0.8,0,1,0c0.4-0.1,0.8-0.1,1.1-0.2c4.4-1.5,7.2-4.6,9-8.7c1.5-3.4,2.1-6.9,2.5-10.6
		c0.7-8.7-0.4-17.2-2.8-25.5c-0.8-3-1.6-6-2.4-9.1c-0.9-3.9-1.7-7.9-2.7-11.8c-0.3-1.2-0.4-2.6-1.3-3.6c-1.3-0.3-2.3,0.5-3.3,1
		c-6.3,2.6-12.4,5.4-18.7,7.9c-5.9,2.3-11.2,5.7-16.9,8.2c-0.4,0.2-0.7,0.4-1,0.7c-2.1,1.8-4.6,2.9-7.1,4
		C656.4,352.7,655,353.3,653.3,354z M565.1,320.1c2.5-0.4,5.3-0.9,8.1-1.4c4.9-0.9,9.7-2.1,14.7-2.1c1.6,0,3.1,0,4.7,0
		c1.6,0.1,3.1-0.4,4.5-1.1c-0.1-0.5-0.2-1.1-0.1-1.6c0-0.6,0.5-1.2-0.1-1.8c-1-0.9-2.6-0.5-3.7-1.8c-0.1-3.5-2.7-6.1-4.3-9.2
		c-2.4,0.8-4.3,2.5-6.9,1.5c-1.5-1.9-1.3-4.9-3.8-6.3c-0.6,0.2-1.2,0.3-1.8,0.5c-3.1,1-6,2.5-8.9,4c-5.3,2.8-10.3,6.1-15,9.8
		c-2.8,2.1-5.3,4.4-7.5,7.3s-4.8,5.5-6.9,8.5c-0.4,0.5-1.3,0.8-0.9,1.9c1.1-0.3,2.1-0.6,3-1c6.4-2.6,13-4.6,19.8-6.1
		c0.3-0.1,0.6-0.4,0.9-0.6c-0.3-1.5-1.7-2.2-2.3-3.7C561.1,316.9,562.2,319.3,565.1,320.1z M679.4,156.3c-0.4,0.4-0.3,0.9-0.2,1.4
		c2.4,9.4,3.8,18.9,5,28.5c0.9,7.5,1.5,15.1,1.8,22.6c0.1,2.5,0.1,5,1.1,7.4c0.2-4.6,0.2-9.1,0.1-13.7c-0.1-2.6,0.4-5.2-1-7.6
		c-0.3-0.6-0.1-1.5-0.1-2.3c0-2.7,0-5.5-0.1-8.2c0-1-0.1-2.1-0.3-3.1c-0.5-2.6-1-5.1-1.5-7.7c-1-5.4-2.1-10.8-3.8-16
		C680.3,157,680.2,156.3,679.4,156.3z M663.5,153.3c0.8,3.1,1.5,5.6,2.1,8.3c0.6,2.7,1,5.3,1.5,7.9c1,1.1,1.8,2.2,2.6,3.1
		c0.9,1,1.2,2.4,2.9,3.3c-0.7-4.5-1.4-8.6-2.1-12.7C669.9,158.9,667.2,156.1,663.5,153.3z M845.2,636.4c-9.1-1.2-22.8-3-28.9-1.7
		c2.5,0.8,5.1,1.1,7.7,1.2c6.6,0.3,13.2,0.7,19.9,1.1C844.1,637,844.3,636.8,845.2,636.4z M615.1,308.5c-0.9-0.6-1.5-1-2.3-0.7
		c-3.4,1.2-6.9,2.4-10.3,3.6c-0.6,0.2-1.1,0.6-1.6,1.1c-0.6,0.6-0.8,1.3,0.3,2C606.1,313.2,610.7,311.3,615.1,308.5z M627.6,372
		c0-1.1,0-2.3,0-3.4c0-1.2-0.2-2.5-0.3-4c-2.2,0.9-4.4,1.2-6.4,2.7c2.1,1.6,4,3.1,5.9,4.6C627,372,627.3,371.9,627.6,372z
		 M286.5,461.5c-0.9-0.5-1.7-0.4-2.2,0.6C285.3,462.9,286,462.5,286.5,461.5z M813.1,634.7c-0.6-0.5-1.2-0.4-1.9-0.1
		C811.9,635,812.5,635.1,813.1,634.7z M691,164c0.5-0.4,0.4-0.9,0.1-1.3C690.6,163.1,690.8,163.6,691,164z"/>
	<path d="M670.7,636.1c-0.4-0.4-0.9-0.6-1-0.9c-1-4.7-1.6-9.5-0.5-14.3c0.5-2,0.8-4.1,1.3-6.1c0.5-1.6,1.1-3.2,3-3.7
		c1.1,0.1,1.7,0.6,2.1,1.6c0.6,1.6,0.8,3.3,1,5.7c0.7-2.5,1.1-4.2,1.7-6c0.5-1.4,1-2.7,2.8-3c1.2,0.1,2.1,0.9,2.4,2.1
		c0.3,1.3,0.6,2.6,0.5,3.9c-0.2,4.7-0.4,9.4-1.3,14c-0.3,1.4-0.7,2.8-1.4,4c-0.8,1.2-1.7,2.2-3.4,2.5c-2.2-2.9-1.8-6.4-2.6-10.2
		C674.1,629.8,672.8,633.1,670.7,636.1z"/>
	<path d="M687.8,638.7c-0.7-2-1.1-4-1.1-6.1c-0.2-6.5,0.7-13,1.3-19.5c0.2-2.1,1.2-3.1,2.8-3.1c1.4,0,2.4,0.8,3,2.6
		c0.2,0.7,0.5,1.5,0.6,2.3c0.5,6.1,0.6,12.2-1.2,18.2c-0.6,1.9-1.4,3.6-2.8,5.1C689.8,638.7,689.2,639.2,687.8,638.7z"/>
	<path d="M664.2,612.7c1.7,3,1.3,6.6,1.5,10s-0.6,6.7-1.2,9.9c-0.7,0.9-1.4,1-2.4,0.3c-1.1-2.4-2.1-5-2.3-7.9s0.1-5.7,0.2-8.6
		c0.1-1.2,0.4-2.3,1.2-3.3C661.9,612.2,662.8,611.9,664.2,612.7z"/>
	<path d="M214,477.5c0-0.5-0.4-0.7-0.8-0.8c0.1-0.4,0.2-0.7,0.3-1.1c0.6-0.2,1.2-0.5,1.9-0.7c-0.3-3.9,0.7-7.5,1.8-11.3
		c-0.5-1.9-2-3.8-1.4-6.1c1.3,0,1.6,1.4,2.8,1.5c1.4-3,2.9-6.1,4.3-9.2c-0.1-0.7-0.1-1.5-0.2-2.1c1.4-2.4,3.4-3.4,5.8-3.9
		c3.7-0.8,7.3-1.6,11.2-1.6c6.1,0,12.2-1.1,18.3-1.8c0.6-0.1,1.4-0.1,1.8-0.5c1.9-1.9,4.6-1.9,6.7-3.1c0.3-0.2,0.8-0.1,1.2,0.4
		c-1,2-3.5,3.1-3.7,5.7c-9.1,1.2-18,2.8-27,2.7c-3,0-5.9,0.8-9,1.5c-0.5,3.2-2.2,6-3.6,8.9c-2.4,4.9-4.3,10.1-5.9,15.3
		c-0.1,0.5-0.2,1-0.3,1.5c0,0.1,0.1,0.2,0.2,0.4c0.5-0.1,0.9-0.3,1.4-0.4c0.2,2.4-0.9,4.2-3,4.5C215.8,477.5,214.9,477.5,214,477.5z
		"/>
	<path d="M284.2,631.9c4.1-0.9,7.8-2.2,11.7-0.8c3.3-0.8,6.5-2.2,10-1.5c0.2,1-0.5,1.1-1.1,1.2c-1,0.2-2,0.4-3.1,0.5
		c-5.6,0.3-11.1,1.8-16.7,1.1c-0.9-0.1-1.8,0.2-2.7,0.2c-2.1,0.1-4.2,0.2-5.9-0.9c-3.1,1-6,1.3-9,1.1c-0.2,0-0.3-0.4-0.5-0.6
		c0.1-0.5,0.4-1,0.9-1.1c1.1-0.3,2.3-0.6,3.5-0.4c2.8,0.4,5.7,0.5,8.5,0.3C281.4,631,283,631.3,284.2,631.9z"/>
	<path d="M248.3,634.7c0.2-0.9,0.7-1.4,1.5-1.6c0.6-0.2,1.3-0.2,1.9-0.2c4.7,0.2,9.3-0.5,13.7-2.9c-0.4,1.6-0.4,1.6-1.4,2.6
		c-3.8,3.9-8.5,4.8-13.7,4C249.1,636.5,248.4,635.9,248.3,634.7z"/>
	<path d="M544.2,546.6c1.1,0.6,1.4,1.5,1.3,2.6c-0.1,0.9-0.2,1.8-0.6,2.6c-0.9,2-1.8,4-2.8,6c-0.3,0.6-0.8,1-1.6,0.9
		c-0.1-0.2-0.3-0.4-0.6-0.8c0.1-0.4,0.1-0.9,0.4-1.3c0.8-1.4,1.1-2.9,0.8-4.5c-0.2-1.4-0.1-2.9,0.6-4.2
		C542.2,546.9,543,546.3,544.2,546.6z"/>
	<path d="M517.5,566c6-1.5,12.5-1.3,17.1-6.1c0.9,0.7,0.7,1.2,0.4,1.7c-1.1,1.5-2.6,2.5-4.4,3.1c-2.5,0.9-5,1.3-7.7,1.3
		C521.2,565.9,519.4,566,517.5,566z"/>
	<path d="M517.7,620.6c-0.7,0.8-1.6,0.8-2.5,0.8c-2.2,0-4.4,0.1-6.6-0.1c-3.5-0.2-7-0.8-10.5-0.7c4.5,0,9-0.5,13.5-0.9
		c1.7-0.1,3.4,0,5.1,0C517.2,619.6,517.5,620,517.7,620.6z"/>
	<path d="M405.3,605c-0.6,0.9-0.7,1.2-0.9,1.3c-5.4,1.1-10.9,0.7-16.3,1C393.6,605.6,399.2,606,405.3,605z"/>
	<path d="M581.7,613c-1.1,2-2.4,2-3.7,2c-2.4-0.1-4.6-1.1-7-1.2c0.1-0.5,0.1-0.7,0.2-0.7c0.4-0.4,0.9-0.3,1.5-0.2
		C575.5,612.9,578.4,612.9,581.7,613z"/>
	<path d="M478.8,615.7c3.6-0.3,7-0.6,10.5-0.1c-0.1,0.4-0.1,0.6-0.2,1.1C485.7,617.7,482.4,616.8,478.8,615.7z"/>
	<path d="M291.5,474.6c-3.2-2.2-3.4-2.5-4.6-5.4c0.2-0.2,0.4-0.5,0.7-0.9c0.4,0.2,0.8,0.2,1,0.4
		C290.1,470.4,290.8,472.5,291.5,474.6z"/>
	<path d="M367,613.2c1.2-1.5,3-1.7,4.6-2.4c0.9-0.4,1.8-1.3,2.8-0.5c0.5,0.4-0.1,0.9-0.5,1.1C371.8,612.6,369.4,613,367,613.2
		L367,613.2z"/>
	<path d="M464.9,610.9c2.4,0,5-0.9,7.6,1.1C469.5,612.8,467.2,612,464.9,610.9z"/>
	<path d="M320.2,631.6c-1-0.1-2.1-0.1-3.1-0.2c-0.8-0.1-1.5-0.2-2.2-0.3c0-0.8,0.4-1,0.9-1.1c1.6-0.3,3.1,0.1,4.4,0.9
		C320.3,630.8,320.2,631.2,320.2,631.6z"/>
	<path d="M510.8,566.1c-1,1.8-1.3,1.9-4.9,1c0-0.4,0.2-0.8,0.6-0.8C508,566.2,509.4,565.9,510.8,566.1z"/>
	<path d="M455.8,610.3c2.1-0.2,3.5-0.7,5.1,0C459.3,611.9,457.9,611.5,455.8,610.3z"/>
	<path d="M366.9,613.1c-0.4,0.7-0.9,1.1-1.7,0.3C365.8,613,366.4,613,366.9,613.1L366.9,613.1z"/>
	<path d="M558.4,611.1l-0.1,0.2c-0.4,0-0.5-0.1-0.2-0.3C558.2,610.9,558.3,611,558.4,611.1z"/>
	<path d="M401.8,397.9c-1.4,1.1-1.1,3.3-3,3.5c-0.5-0.4-0.7-0.9-0.5-1.4c0.9-2,2.3-3.6,4.2-4.4c3.6-1.5,7.4-2.5,11.3-2
		c0.1,0,0.2,0.2,0.3,0.3c0.3,0.6-0.2,1-0.6,1.3c-1.3,0.8-2.7,1.5-4.3,1.8C406.7,397.2,404.2,398,401.8,397.9z"/>
	<path d="M591.7,366.8c-0.5-0.4-0.8-0.7-0.6-1.7c0.7-1.3,2.4-1.9,3.7-2.9c1.3-0.9,1.8-2.5,2.9-3.5c0.3,0.2,0.5,0.4,0.9,0.6
		c-0.6,2.2-1.2,4.5-3.1,6.1C594.4,366.3,593.3,367.2,591.7,366.8z"/>
	<path d="M428.3,398.7c-3.2,2.1-6,2.8-8.9,3.2c-1.3,0.2-2.6,0-3.1-1.7c1.7-1.5,3.7-0.7,5.5-0.9C423.7,398.9,425.6,398.9,428.3,398.7
		z"/>
	<path d="M355.4,407.9c-0.7,1.2-1.7,1.4-2.7,1.8c-1.3,0.5-2.6,1.2-4,1.2c-0.2,0-0.5-0.2-0.8-0.3c0.1-0.3,0.2-0.8,0.4-0.9
		C350.6,408.5,352.8,407.8,355.4,407.9z"/>
	<path d="M446.4,394.3c1.9-0.9,3.9-0.9,6.5-0.4C450.3,394.5,448.5,395.3,446.4,394.3z"/>
	<path d="M789.4,316c-1.7,0.3-3.2-0.2-4.2-1.6c0.3-0.6,0.6-0.8,1-0.7C787.5,314.2,788.9,314.5,789.4,316L789.4,316z"/>
	<path d="M459.2,391.9c2.1-1.6,2.1-1.6,5-1.1c-0.2,0.1-0.3,0.3-0.5,0.4C462.2,391.4,460.9,391.6,459.2,391.9z"/>
	<path d="M437.6,396.2c-2.6,1.1-2.6,1.1-3.7-0.1C435,395.6,436.1,395.9,437.6,396.2z"/>
	<path d="M778.9,312.1c1.3,0.2,2.1,0.6,2.3,1.6c-1.1,0.7-1.8,0-2.8-0.4C778.6,312.9,778.7,312.5,778.9,312.1z"/>
	<path d="M372,389.1c-1,0.9-1.9,1.5-3.2,1.3C370,389,370,389,372,389.1z"/>
	<path d="M370.4,404.9c-1.4,0.7-2.6,0.9-3.9,0.2C367.8,404.1,369,404.6,370.4,404.9z"/>
	<path d="M359.5,392.3c-1.7,0.4-2.7,0.7-4,0.3C356.7,391.3,357.9,392.3,359.5,392.3z"/>
	<path d="M789.4,316c0.4,0,0.7,0.1,1.2,0.1C790,316.9,789.6,316.7,789.4,316L789.4,316z"/>
	<path d="M941,563.9c0.2,0.4,0.4,0.7,0.5,0.9c-0.1,1.2-0.9,2-1.7,2.6c-6.8,5.7-14.3,10.4-22.8,13.4c-2.3,0.8-4.7,1.5-7.1,2.1
		c-0.7,0.2-1.5,0.5-2.3,0.1c0.1-0.9,0.9-0.8,1.3-0.9c5.1-1.3,9.7-3.7,14.1-6.5c5.7-3.6,11.6-6.9,16.8-11.4
		C940.2,564.1,940.6,564,941,563.9z"/>
	<path d="M885.5,587.1c-0.6,1.3-1.3,1.8-2.1,1.8c-4.3-0.2-8.6,0.7-12.9,0c-3-0.5-5.8-1.2-8.4-2c-0.7-0.6-0.8-1.1-0.6-1.6
		c0.8-0.7,1.7-0.6,2.6-0.4c1.4,0.3,2.8,0.7,4.1,1.2c2.7,0.9,5.6,1.3,8.4,1.7c1.5,0.2,3.1,0.3,4.6-0.4
		C882.6,586.8,883.9,587.2,885.5,587.1z"/>
	<path d="M1008.7,579.8c0.4,1.2-0.5,1.8-1.5,2.2c-2.2,0.9-4.5,1.3-6.9,1.1c-2.5-0.2-4.9-0.6-7.3-0.9c-0.5-0.1-0.9-0.4-1.1-0.9
		c0.3-0.9,1.1-1.1,1.9-1c2.3,0.5,4.7,0.1,7,0c2.1-0.1,4.2-0.2,6.2-0.9C1007.5,579.2,1008.2,579.1,1008.7,579.8z"/>
	<path d="M758.7,607.6c-4.2,2.1-8,2.9-11.7,3.8c-0.8,0.2-1.5-0.1-2-0.8c-0.4-0.7-0.2-1.2,0.3-1.7c0.1-0.1,0.2-0.2,0.3-0.2
		C749.7,608.3,753.8,608,758.7,607.6z"/>
	<path d="M981.2,540.7c-0.3-1,0.2-1.3,0.5-1.7c3.7-3.6,6.8-7.8,10.6-11.2c1.1,0.4,1,1.1,0.6,1.6c-1,1.2-2,2.4-3.1,3.5
		C987.2,535.6,983.8,537.6,981.2,540.7z"/>
	<path d="M975.5,557.8c-1.1-3.7-0.9-7.2,0.4-10.7c0.3-0.7,0.2-0.7,1.8-1.9c0.1,0.2,0.4,0.4,0.4,0.5
		C977.3,549.9,976.4,553.9,975.5,557.8z"/>
	<path d="M760.6,607.2c1.5-0.9,3.1-1.2,4.8-1.1c1.7,0.1,3.4,0.2,5.1,0.4c-2.5-0.2-4.7,1.2-7.2,1.4
		C762.2,608,761.3,607.9,760.6,607.2z"/>
	<path d="M903,585.7c-2.6,1.9-2.9,1.9-7.4,1.6c1.9-1.1,5.2-2.3,6.7-2.3C902.5,585,902.7,585.3,903,585.7z"/>
	<path d="M788.9,602.5c1.4-1.7,1.8-1.7,4.4-0.5C791.5,602.9,791.5,602.9,788.9,602.5z"/>
	<path d="M892.6,586.7c-2.2,1.3-2.2,1.3-4.6,1.1C889.4,586.2,890.5,585.9,892.6,586.7z"/>
	<path d="M852.3,585.5c-1,0-1.7-0.6-2.3-0.9c-0.1-0.7,0-1,0.4-1.2c1.2-0.4,2.3-0.5,2.9,0.9C853.1,585,852.8,585.4,852.3,585.5z"/>
	<path d="M944.4,538.8c-1.1,0.9-2,0.6-2.9,0.6c-0.8,0-1.5,0.1-2.3,0.2C940.8,538.7,940.8,538.7,944.4,538.8z"/>
	<path d="M781.9,604.5c-0.3,0.6-0.7,0.6-1,0.6c-0.2,0-0.4-0.2-0.6-0.4C780.8,603.5,781.3,604.1,781.9,604.5z"/>
	<path d="M656.8,254.5c-3.6-3.2-4.1-4.4-2.7-6.4c2.1,1.2,2.5,4.5,5.9,4.2c1.4-2.1,2.9-4.4,4.3-6.7c0.3-0.5,0.7-1.2,0.8-1.8
		c0.5-4,2.3-7.7,3.2-11.7c0.4-1.7,0.3-3.3-0.1-5c-1.1-4.1-2.9-7.8-5.5-11.1c-0.2-0.3-0.6-0.5-1-0.7c-1.6-0.2-3,0.7-4.5,1
		c-1.4,0.3-2.8,0.4-4.2,1.2c1.4,0.8,2.6,0.7,3.9,0.5c1.4-0.2,2.9-0.1,4.3,0.4c1.6,0.5,2.8,1.3,3.4,3.1c-1.6,0.5-3-0.2-4.4-0.5
		c-2.2-0.5-4.4-0.5-6.6,0.2c-0.8,2.3-1.5,4.6-1.2,7c0.9,0.8,1.7,0.6,2.4,0.4c1.8-0.6,3.6-0.6,5.4-0.8c1.7-0.2,3.1,0.2,3.8,2.2
		c-0.4,3.2-1.6,6.2-4.1,8.1c-0.9,1.3-0.1,2.7-1,3.5c-0.9,0.7-1.9-0.3-2.5,0.4c-2.4-1.3-0.9-3.2-1.1-4.6c-0.7-0.7-1.3,0.2-1.9,0.1
		c-0.6-0.1-1.3-0.1-1.9-0.3c-0.5-0.2-0.9-0.6-1.2-0.9c-0.5-0.5-0.8-1.1-0.8-1.7c0.1-0.6,0.3-1,0.9-1.2c1.2,0.1,2.5,0.3,3.8,0.3
		c1.9,0,3.6,0.6,4.9,2.2c1.3-1.5,1.8-3.1,2.1-5.1c-3.2-0.6-6,0.1-8.9,0.1c-0.5,0.3-1.1,0.7-1.6,1c-0.5-0.1-1-0.2-1.7-0.3
		c-1.1,1.6-2,3.6-3.9,4.6c-1.8,1-3.6,2.1-5.8,1.1c-0.4-1.2,0.3-1.6,1.1-1.8c2.8-0.7,4.9-2.3,6.7-4.5c0.3-0.4,0.6-0.9,0.5-1.5
		c-0.3-0.1-0.6-0.3-1.1-0.4c-1.6,1.7-2.8,3.8-5.3,4.7c-0.7,0.3-1.3-0.5-2.3-0.3c-2.3,1-4.4,3.1-7.2,2.6c-0.6-1-0.3-1.5,0.3-1.9
		c1-0.6,2-1.2,3-1.8c2.7-1.5,5.3-3.3,7.6-5.5c2-1.9,3.8-3.9,4.7-6.6c0.4-1.2,1.2-2.3,1.9-3.4c1.1-1.6,2.5-2.5,4.5-2.9
		c2.5-0.5,5.2-0.5,7.9-1.6c1.1-2.1,1.3-4.8,2.1-7.2c0.8-2.3,1-4.8,1.8-7.4c0.5,0.6,0.7,0.8,0.7,0.9c-0.8,4.8-1.5,9.5-2.3,14.1
		c0.3,1.2,0.9,2,1.4,2.6c0.6,0.2,0.8,0.1,0.9-0.2c0.8-2.7,1.1-5.3,0.5-8.1c-0.2-1.1-0.3-2.3-0.3-3.5c0-0.2,0.2-0.4,0.4-0.6
		c0.6,0,1,0.2,1.1,0.8c0.5,3.1,1.1,6.2,1.5,9.3c0.3,2-0.4,3.9-1.8,5.5c1.3,2.7,2.9,5.2,3.7,8.2c0,5.5-1.2,10.8-3.5,15.9
		c-0.4,1-0.4,2-0.7,3.3c-2.7,2.5-4.3,5.9-5.9,9.5c0.6,2.4,1.5,4.9,1.4,7.5c-0.1,2.5,0.2,5-0.2,7.4c-0.4,2.9-1,5.9-2.7,8.4
		c-1.1,1.6-1.8,3.5-2.7,5.2c-0.3,0.6-0.5,1.2-1.4,1.2c0-0.4-0.2-0.8-0.1-1.1c1.4-3,1.8-6.3,2.9-9.3c2-5.8,1.2-11.6-0.5-17.3
		C657.6,256.4,657.2,255.4,656.8,254.5z M649.6,226.1c0.2-0.7,0.4-1.3,0-1.9C649.3,225.1,649.3,225.1,649.6,226.1z M650.2,222
		l0.1,0.3l0.1-0.3H650.2z"/>
	<path d="M595,172.5c-0.1,1.1-0.8,1.8-1.4,2.7c-2.2,3.4-4.5,6.8-6.8,10.3c-0.5,0.8-1.2,1.7-1.1,2.8l-0.3,0.1l0.2-0.1
		c1.7-1.8,3.4-3.6,5.1-5.4c4.9-5.3,10.2-10.1,15.5-14.9c3.3-3,6.5-6.1,9.8-9.1c1.2-1.1,2.3-2.4,3.8-3.2c1,0.2,1.1,0.8,0.7,1.4
		c-0.4,0.5-0.9,1-1.4,1.4c-3.9,3.5-7.4,7.3-10.8,11.3c-5,5.9-10.1,11.6-15.1,17.5c-6.4,7.4-12.4,15.1-17,23.8
		c-1,1.9-2.5,3.6-3.8,5.4c-0.2,0.3-0.6,0.5-1.3,0.3c-0.7-0.3-0.4-1.1-0.2-1.9c1.3-4.4,2.6-8.7,4.5-12.9c4.6-10.2,10.9-19.3,18-27.9
		C593.8,173.5,594.2,172.8,595,172.5L595,172.5z"/>
	<path d="M627.2,214.1c-1.2-0.1-1.9,0.8-2.7,1.3c-2.5,1.6-5.3,2.9-8.1,3.8c-1.2,0.4-2.5,0.9-3.7,0.1c-0.3-0.6,0-1.1,0.5-1.3
		c1.6-0.8,3.3-1.6,4.9-2.4c6-2.8,10.6-6.4,15.1-11.6c-0.6-0.5-0.8,0.1-1.2,0.4c-0.3,0.2-0.6,0.5-0.9,0.7c-5.7,4.9-12.2,8.4-19.2,11
		c-2.1,0.8-4.2,1.4-6.4,1.5c-0.5,0-0.6,0-2-0.9c0.4-0.6,1.1-0.6,1.6-0.8c12.7-3.3,23.3-10.1,32.6-19.3c5.8-5.7,10.8-12,15.9-18.3
		c0.9-1.1,1.6-2.4,2.9-3.1c0.7,0.3,0.6,0.8,0.2,1.2c-6.5,8-11.7,17-17.9,25.2c-1.9,2.5-3.5,5.2-5.1,7.9c-3.3,5.3-7.4,9.8-12.6,13.2
		c-0.8,0.5-1.6,1.3-2.7,0.9c-0.5-0.7-0.2-1.1,0.2-1.4c1.4-1.2,2.8-2.3,4.2-3.5C624.2,217.3,626.2,216.2,627.2,214.1
		c0.5-0.1,0.7-0.3,0.7-0.9c0.4-0.1,0.7-0.3,0.8-0.7l0.2-0.1l-0.1,0.2c-0.4,0.1-0.7,0.4-0.8,0.8C627.5,213.4,627.1,213.6,627.2,214.1
		z"/>
	<path d="M587.8,215.7c-0.8-0.5-1.4-0.9-2-1.2c-0.8,0.2-1.1,1.3-2,1c-0.4-0.3-0.3-0.7-0.2-1.1c0.2-0.4,0.3-0.7,0.5-1
		c4.6-7.1,8.3-14.8,13-21.8c3.9-5.9,8.1-11.5,12.9-16.7c3.1-3.3,6.2-6.7,9.3-10.1c0.4-0.4,0.8-1.1,1.6-0.7c0.3,0.4,0,0.7-0.2,1
		c-0.6,0.7-1.2,1.4-1.9,2c-8.6,8.9-15.2,19.2-20.7,30.2c-2.4,4.8-4.5,9.7-6.8,14.5C590.2,214.2,590.2,214.2,587.8,215.7z"/>
	<path d="M638,171.7c0.4,1.4-0.4,2.5-1,3.7c-2.3,4.3-5,8.2-7.9,12.1c-5.1,6.8-10.9,13-16.9,19c-3.2,3.2-6.5,6.4-9.8,9.5
		c-1.1,1.1-2.4,2-3.8,2.8c-0.8,0.5-1.7,0.6-2.4-0.5c-0.1-0.8,0.3-1.2,0.8-1.6c8.6-7.2,16.5-15.1,24.2-23.3
		c5.5-5.9,10.4-12.3,14.9-19C636.8,173.4,637.5,172.6,638,171.7L638,171.7z"/>
	<path d="M592.4,252.4c4.2,1.5,8.5,0.4,12.7,2.2c-4.4,0.9-8.4,1.8-12.7,0.8c-5.1,3.4-10.2,6.8-15.1,10c-1.4,0-2.5-0.3-3.5,0.1
		c-1.2-0.8-1.1-1.6-0.5-2.5c0.7-1,1.7-1.6,2.8-2.1c2.2-1.2,4.4-2.3,6.6-3.4C585.8,255.8,589,254.1,592.4,252.4z"/>
	<path d="M616.4,227.7c0.1-1.1,0.7-1.3,1.3-1.6c8.2-3.1,14.3-8.9,19.9-15.4c1.7-2,3.2-4.1,4.8-6.1c0.7-0.9,1.2-2,2.3-2.6
		c-0.1,1.8-1,3.3-1.9,4.7c-4.2,6.6-9.2,12.4-15.5,17c-2.4,1.8-5,3.3-7.9,4.2C618.5,228.2,617.5,228.5,616.4,227.7z"/>
	<path d="M653,198.5c-0.3,0.7-0.5,1.5-0.9,2.1c-3.3,5.9-6.7,11.8-10.8,17.2c-3.1,4.1-6.7,7.6-11.3,10c-1.5,0.8-3.1,1.3-4.8,1.6
		c-0.4,0.1-0.4,0.1-1.4-0.9c0.4-0.6,1-0.8,1.6-1c5.1-1.7,9.2-4.8,12.6-8.8c1.6-1.9,3.1-3.9,4.5-5.9c2.9-4.2,5.7-8.4,8.6-12.6
		C651.7,199.5,651.9,198.4,653,198.5L653,198.5z"/>
	<path d="M606.6,263.4c0,1,0.1,1.3,0,1.5c-2.1,2.7-4.8,4.7-7.4,6.9c-0.5,0.4-1.1,0.8-1.7,0.9c-2.7,0.4-5.3,1.3-8,1
		c-2.7-1.7-1.9-4.7-3.1-6.8c1.1-0.8,1.6-0.1,1.9,0.3c0.7,0.9,1.3,1.9,2,3C596,269.3,601.4,267.1,606.6,263.4z"/>
	<path d="M617,186.7c0.1,0.6-0.1,1-0.4,1.4c-5.2,7.5-10.4,15.1-16.6,21.8c-1.9,2.1-4,4.1-6.4,5.7c-0.8,0.6-1.6,1.2-2.7,1.2
		c-0.4-0.5-0.1-0.9,0.2-1.1c6.8-5.4,12.2-12.1,17.5-19c2.1-2.7,4.1-5.4,6.2-8.1C615.3,187.9,615.8,186.8,617,186.7L617,186.7z"/>
	<path d="M560.3,218.7c0.7-7,6.6-21.8,11.4-28.3c0.5,0.2,0.3,0.6,0.1,0.9c-2.8,5.7-4.9,11.7-6.6,17.9c-0.7,2.4-1.4,4.7-2.2,7.1
		c-0.3,0.9-0.7,1.7-1.2,2.4C561.6,219,561.1,219.3,560.3,218.7z"/>
	<path d="M651.4,207.8c0,0.4,0.1,0.8,0,1.2c-2.1,5.6-4.8,11-8.9,15.4c-1.7,1.8-3.6,3.4-6,4.3c-0.8,0.3-1.7,0.6-2.6-0.1
		c-0.1-1,0.5-1.4,1.2-1.8c5.2-2.9,8.8-7.3,11.8-12.2c1.1-1.8,2.1-3.6,3.3-5.3C650.5,208.7,650.7,208,651.4,207.8L651.4,207.8z"/>
	<path d="M576.2,194.5c-0.3,0.8-0.6,1.7-1.1,2.5c-3.1,5.5-5.5,11.3-7.5,17.2c-0.5,1.4-1,2.7-1.5,4c-0.2,0.5-0.7,0.8-1.3,0.8
		c-0.7-0.8-0.3-1.7,0-2.6c2-6,4.5-11.7,7.8-17.1c0.8-1.3,1.6-2.7,2.5-4C575.3,195,575.7,194.5,576.2,194.5L576.2,194.5z"/>
	<path d="M586.3,202.4c-1.7,4.7-4.4,8.7-7.4,12.7c-0.7,0.9-1.3,1.9-2.6,2.1c-0.1-0.3-0.3-0.6-0.2-0.7c3-4.3,6.1-8.7,9.2-13
		C585.6,203.1,586,202.8,586.3,202.4L586.3,202.4z"/>
	<path d="M669.2,241.8c0.3,0.2,0.8,0.2,0.9,0.5c1.9,3.5,2.3,7.4,3.2,11c-0.6,0.5-0.9,0.1-1-0.2c-1.1-2.9-2.2-5.8-3.3-8.7
		C668.7,243.6,668.3,242.7,669.2,241.8z"/>
	<path d="M640.5,160.8c2.3-2.4,4.9-4.4,7.8-6.2c0.8,1.3-0.2,2.1-0.2,3.2c-1.1,0.9-2.1,1.9-3.7,1.8
		C642.9,159.4,641.9,161,640.5,160.8L640.5,160.8z"/>
	<path d="M642.6,150.9c-0.1,0.2-0.1,0.6-0.2,0.7c-3.5,1.5-7.1,2.8-11.5,3.8c3-2.5,5.9-3.4,8.8-4.4
		C640.6,150.7,641.6,150.3,642.6,150.9z"/>
	<path d="M617,186.7c0.2-1.5,1.1-2.5,2.4-3.1l-0.1-0.1C618.9,184.9,618.4,186.1,617,186.7L617,186.7z"/>
	<path d="M650.7,163.2c-0.3,0.3-0.5,0.5-0.8,0.8c-0.3,0-0.5,0-0.8-0.1l0.1,0.1c-0.1-1.6,0.9-2.6,2.2-3.2l0.1,0.1
		C651.2,161.6,651,162.4,650.7,163.2z"/>
	<path d="M653.8,157.7c-0.3,1.4-0.8,2.6-2.3,3.1l-0.1-0.1C651.7,159.4,652.3,158.2,653.8,157.7L653.8,157.7z"/>
	<path d="M675,260.3c-1.2,0-1.5-0.8-1.6-1.7c0.1-0.1,0.2-0.2,0.3-0.3C674.8,258.8,674.8,258.8,675,260.3L675,260.3z"/>
	<path d="M647.4,165.4c0,1.1-0.7,1.8-1.4,2.4l0.1,0.1C646.1,166.8,646.8,166.2,647.4,165.4L647.4,165.4z"/>
	<path d="M621.6,180.3c0,1.1-0.7,1.8-1.5,2.4l0.1,0.1C620.1,181.7,620.7,181,621.6,180.3L621.6,180.3z"/>
	<path d="M623.9,177.2c0,1.1-0.6,1.8-1.5,2.4l0.1,0.1C622.5,178.6,623.2,177.9,623.9,177.2L623.9,177.2z"/>
	<path d="M625.7,175.8c-0.1-0.8,0.1-1.4,0.9-1.7C626.8,175,626.1,175.2,625.7,175.8L625.7,175.8z"/>
	<path d="M576.2,160.8c0-0.6,0.4-0.8,1-0.9C577.3,160.8,576.8,160.9,576.2,160.8L576.2,160.8z"/>
	<path d="M660.1,187.4c0.1-0.8-0.1-1.7,0.8-2.2v-0.1C660.7,185.9,660.9,186.8,660.1,187.4L660.1,187.4z"/>
	<path d="M676.9,265.3c-0.2-0.3-0.4-0.7,0-1c0.1-0.1,0.6,0.2,0.6,0.3C677.6,265.1,677.4,265.4,676.9,265.3z"/>
	<path d="M661,185.2c0-0.9,0-1.8,0.7-2.5l-0.1-0.1C661.5,183.5,661.6,184.4,661,185.2L661,185.2z"/>
	<polygon points="666.8,187.2 666.8,187.5 666.6,187.5 	"/>
	<path d="M628,156.8c0.5-0.2,1-0.4,1.6-0.6l-0.1-0.1C628.9,156.3,628.4,156.5,628,156.8L628,156.8z"/>
	<path d="M660,187.4c-0.1,0.6-0.1,1.3-0.8,1.5l0.1,0.1c0.2-0.6,0.2-1.2,0.8-1.5L660,187.4z"/>
	<path d="M565.3,180.5c0-0.4,0-0.7,0.1-1.2C566,179.9,565.5,180.1,565.3,180.5L565.3,180.5z"/>
	<path d="M653.1,198.6c-0.1-0.7,0-1.3,0.7-1.7l-0.1-0.1C653.8,197.5,653.6,198,653.1,198.6L653.1,198.6z"/>
	<path d="M588.8,198.4c0.2-0.5,0.5-1,0.7-1.5l-0.1-0.1C589.3,197.4,589.3,198,588.8,198.4L588.8,198.4z"/>
	<path d="M653.8,203.2c-0.1,0.6-0.1,1.2-0.8,1.5l0.1,0.1C653.1,204.1,653,203.4,653.8,203.2L653.8,203.2z"/>
	<path d="M653,204.6c-0.1,0.6-0.1,1.3-0.8,1.6l0.1,0.1c0.1-0.6,0-1.3,0.8-1.6L653,204.6z"/>
	<path d="M652.2,206.2c0,0.6,0,1.4-0.8,1.7l0.1,0.1C651.5,207.2,651.5,206.6,652.2,206.2L652.2,206.2z"/>
	<path d="M591.1,194.5c0.1-0.2,0.1-0.5,0.2-0.7C591.7,194.2,591.2,194.2,591.1,194.5L591.1,194.5z"/>
	<path d="M589.5,152.2c0-0.3,0-0.6,0-0.9c0.6,0,1.1,0,1.7,0C590.9,152.2,590.2,152.2,589.5,152.2z"/>
	<path d="M659.2,188.9c0,0.4,0,0.7-0.1,1.2C658.5,189.5,659.1,189.3,659.2,188.9L659.2,188.9z"/>
	<path d="M665.6,190.6c0.1-0.3,0.2-0.6,0.3-0.9C666.1,190.1,665.7,190.2,665.6,190.6L665.6,190.6z"/>
	<path d="M665.5,190.5c-0.1,0.3-0.2,0.6-0.2,0.9C665,190.9,665.4,190.8,665.5,190.5L665.5,190.5z"/>
	<path d="M576.3,194.6c-0.1-0.7,0.1-1.2,0.7-1.7l-0.1-0.1C576.9,193.5,576.9,194.1,576.3,194.6L576.3,194.6z"/>
	<path d="M674.9,260.4c0.4,0.1,0.6,0.4,0.3,0.9C675.2,260.9,675.1,260.6,674.9,260.4L674.9,260.4z"/>
	<path d="M574.7,162.4c0-0.5,0.2-0.8,0.7-0.8l-0.1-0.1C575.4,162.1,575.2,162.3,574.7,162.4L574.7,162.4z"/>
	<path d="M573.1,164c0-0.5,0.2-0.8,0.8-0.8l-0.1-0.1C573.8,163.7,573.6,163.9,573.1,164L573.1,164z"/>
	<polygon points="600.5,161.6 600.3,161.7 600.5,161.7 	"/>
	<path d="M573.9,163.2c0-0.6,0.3-0.8,0.8-0.8l-0.1-0.1C574.6,162.9,574.4,163.1,573.9,163.2L573.9,163.2z"/>
	<path d="M573,163.9c0,0.5-0.2,0.8-0.8,0.8l0.1,0.1C572.3,164.2,572.6,163.9,573,163.9L573,163.9z"/>
	<polygon points="629.5,156.2 629.6,156 629.5,156.1 	"/>
	<polygon points="627.9,156.8 627.8,157 628,156.8 	"/>
	<polygon points="653.9,157.8 653.9,157.5 653.8,157.7 	"/>
	<polygon points="625.6,158.4 625.7,158.3 625.5,158.3 	"/>
	<polygon points="649.1,158.4 649.2,158.3 649,158.3 	"/>
	<path d="M605.1,158.4c-0.1,0.2-0.2,0.3-0.2,0.3C605,158.7,605.1,158.6,605.1,158.4L605.1,158.4z"/>
	<polygon points="625.5,158.3 625.5,158.6 625.6,158.4 	"/>
	<polygon points="649,158.3 649,158.6 649.1,158.4 	"/>
	<polygon points="602.9,160 603,159.8 602.8,159.9 	"/>
	<polygon points="587.3,161 587.3,160.7 587.2,160.9 	"/>
	<polygon points="602.8,159.9 602.7,160.1 602.9,160 	"/>
	<path d="M576.1,160.7c0.1,0.6-0.2,0.9-0.8,0.8l0.1,0.1C575.5,161.1,575.7,160.8,576.1,160.7L576.1,160.7z"/>
	<polygon points="600.5,161.7 600.6,161.4 600.5,161.6 	"/>
	<path d="M640.4,160.7c0,0.1,0,0.2-0.1,0.3L640.4,160.7L640.4,160.7z"/>
	<polygon points="585.7,181.9 585.8,181.8 585.6,181.9 	"/>
	<path d="M585.6,181.9c-0.3,0.3-0.5,0.5-0.8,0.8v0.1C585.1,182.4,585.4,182.2,585.6,181.9L585.6,181.9z"/>
	<polygon points="584.8,182.6 584.7,182.9 584.8,182.7 	"/>
	<path d="M620.1,182.7c-0.2,0.4-0.4,0.7-0.9,0.8l0.1,0.1c0.1-0.5,0.3-0.8,0.9-0.7L620.1,182.7z"/>
	<polygon points="581.8,186.7 581.9,186.5 581.7,186.6 	"/>
	<path d="M581.7,186.6c-0.3,0.2-0.6,0.5-0.8,0.7v0.1C581.2,187.1,581.5,186.9,581.7,186.6L581.7,186.6z"/>
	<polygon points="580.9,187.3 580.8,187.6 580.9,187.4 	"/>
	<polygon points="579.4,189.8 579.5,189.6 579.3,189.7 	"/>
	<polygon points="579.3,189.7 579.2,189.9 579.4,189.8 	"/>
	<path d="M577,193c0.1-0.1,0.2-0.2,0.2-0.3C577.1,192.8,577,192.8,577,193L577,193z"/>
	<path d="M653.9,203.2c0-0.1,0-0.2,0-0.3V203.2L653.9,203.2z"/>
	<polygon points="591.1,194.4 591,194.6 591.1,194.5 	"/>
	<path d="M589.5,196.9C589.8,196.5,589.5,196.9,589.5,196.9L589.5,196.9z"/>
	<polygon points="586.4,202.4 586.5,202.2 586.3,202.4 	"/>
	<polygon points="588.7,198.3 588.6,198.6 588.8,198.4 	"/>
	<path d="M648.4,164.7c0.1-0.5,0.2-0.8,0.8-0.7l-0.1-0.1C649,164.4,648.8,164.6,648.4,164.7L648.4,164.7z"/>
	<path d="M571.5,165.5c0-0.5,0.2-0.8,0.8-0.8l-0.1-0.1C572.3,165.2,572,165.5,571.5,165.5L571.5,165.5z"/>
	<path d="M648.3,164.6c-0.1,0.5-0.4,0.7-0.9,0.8l0.1,0.1C647.8,165.2,648.1,165,648.3,164.6L648.3,164.6z"/>
	<path d="M571.5,165.5c0,0.5-0.2,0.8-0.8,0.8l0.1,0.1C570.7,165.8,571,165.5,571.5,165.5L571.5,165.5z"/>
	<path d="M569.9,167.1c0.1-0.5,0.3-0.8,0.8-0.8l-0.1-0.1C570.7,166.8,570.5,167.1,569.9,167.1L569.9,167.1z"/>
	<path d="M646,167.8c-0.3,0.3-0.5,0.5-0.8,0.8l0.1,0.1C645.3,168.2,645.6,168,646,167.8L646,167.8z"/>
	<polygon points="569.8,168.7 570.1,168.8 569.9,168.6 	"/>
	<path d="M645.2,168.6c-0.3,0.3-0.5,0.5-0.8,0.8l0.1,0.1C644.6,169,644.8,168.8,645.2,168.6L645.2,168.6z"/>
	<path d="M643.7,170.2c0.1-0.4,0.4-0.6,0.8-0.7l-0.1-0.1C644.2,169.8,644,170,643.7,170.2L643.7,170.2z"/>
	<path d="M643.6,170.1c0,0.1-0.1,0.2-0.1,0.3L643.6,170.1L643.6,170.1z"/>
	<path d="M638.1,171.8C638.4,171.4,637.9,171.9,638.1,171.8L638.1,171.8z"/>
	<path d="M595,172.6c0-0.1,0.1-0.2,0.1-0.3L595,172.6L595,172.6z"/>
	<path d="M624.9,176.5c0-0.5,0.3-0.8,0.8-0.7l-0.1-0.1C625.5,176.1,625.2,176.4,624.9,176.5L624.9,176.5z"/>
	<path d="M624,177.3c0.1-0.4,0.4-0.7,0.9-0.8l-0.1-0.1C624.7,176.9,624.4,177.2,624,177.3L624,177.3z"/>
	<path d="M622.5,179.6c-0.1,0.4-0.4,0.7-0.9,0.7l0.1,0.1C621.8,180,622,179.6,622.5,179.6L622.5,179.6z"/>
	<path d="M738.5,434.4c1.2-1.5,2.6-1.5,4.1-1.6c9.7-0.7,19-2.9,28.1-6.5c4.1-1.6,8.1-3.7,11.9-5.9c0.6-0.3,1.1-0.6,1.6-1.1
		c5.6-5,10.8-10.3,14.1-17.1c1.6-3.2,2.7-6.5,3.5-9.9c0.7-3,0.5-5.9-0.2-8.7c0.2-0.6,0.6-0.8,1-0.9c0.2,0.1,0.5,0.2,0.6,0.4
		c0.3,0.8,0.8,1.7,0.9,2.6c0.8,5.9,0.7,11.7-2.1,17.2c-1.4,2.8-3.2,5.4-4.3,8.3c-0.6,1.6-1.9,2.8-3.3,3.9
		c-12.8,10.4-27,17.6-43.4,20.3c-3.4,0.6-6.8,0.6-10.1,1.1C739.5,436.6,739.1,436.2,738.5,434.4z"/>
	<path d="M719.6,439.8c-1.8,2.3-4.4,2.6-6.7,3.4c-0.6-0.7-0.4-1.1-0.1-1.3C714.9,440.6,717.1,439.6,719.6,439.8L719.6,439.8z"/>
	<path d="M719.6,439.9c0.2-0.3,0.4-0.6,0.9-0.3C720.2,439.7,719.9,439.7,719.6,439.9L719.6,439.9z"/>
	<path d="M205.6,495.1c-3.8,6.8-7.4,13.8-11.7,20.5c-0.4,3.4-1.9,6.6-3.4,9.8c-2,4-3,8.3-3.8,12.7c-0.1,0.5,0,1,0,1.5
		c0.9,0.3,1.2-0.4,1.6-0.8c2-2.1,3.6-4.5,4.9-7.1c3-6,5.9-11.9,8.2-18.2c0.2-0.6,0.3-1.3,0.9-1.7c0.1-0.1,0.2-0.1,0.3-0.1
		c0.1,0.1,0.2,0.2,0.2,0.3c-0.3,1.3-0.6,2.5-1,3.8c-2,6.2-4.6,12.2-7.6,18c-1.1,2.1-2.4,4-4,5.8c-1.1,1.2-2.2,2.6-3.5,3.7
		c-1.3,1.2-1.4,3.1-2.3,4.2c-1.1,0.5-2,0.6-2.8,0c-0.1-0.2-0.3-0.6-0.2-0.7c1.9-2.6,2.3-5.7,2.8-8.8c0.9-5,2.4-9.9,4.9-14.4
		c1.4-2.5,2.8-5,3.2-7.9c0.1-0.9,0.7-1.6,1.2-2.4c3.1-5.6,6.3-11.2,9.4-16.8c1.1-2.1,2.3-4.1,2.9-6.4c-0.1-0.7-0.2-1.3-0.3-1.8
		c0.6-0.7,1.3-0.3,1.9-0.4c0.9-0.7,0.1-2.5,1.8-2.9c0.5,2.6-0.4,5.1-0.7,7.6c-1.5,9.8-2.3,12.4-4.3,16c-0.3-2.5,0.6-4.5,1-6.7
		s0.8-4.3,1.2-6.5C206.1,495.3,205.8,495.2,205.6,495.1z"/>
	<path d="M191,485.1c1,0.7,1.8,1.2,2.4,1.6c0.4,0.9,0.2,1.7-0.1,2.4c-1,2.4-2.1,4.8-3.1,7.2c-1.9,4.4-3.8,8.9-5,13.6
		c-0.3,1.2-0.9,2.2-1.6,3.1c-2,2.5-3.1,5.4-3.9,8.5c-1.2,4.7-2.6,9.3-4.3,13.8c-0.5,1.4-0.6,2.8-0.6,4.2c0,1,0,2.1-0.2,3.1
		c-0.2,1.1-0.7,2.2-0.9,3.1c-0.6,0.6-1.1,0.7-1.8,0.3c-0.2-1.5-0.6-3.2-0.5-4.8c0.3-5.2-0.3-10.4-0.1-15.7c0.1-1.8,0.2-3.6,0.4-5.5
		c0.2-2.2,1.1-4.1,2.8-5.4c2-1.6,3-3.8,3.9-6.1c1.2-3.2,2.8-6.2,4.3-9.2C185.1,494.5,187.8,489.9,191,485.1z M174.4,530.7
		c0.5-1.3,0.9-2,1.1-2.7c0.8-2.5,1.6-5,2.4-7.4c0.7-2.2,1.4-4.6,2.9-6.4c2.1-2.5,3-5.4,4.1-8.3s2.2-5.8,3.4-8.7
		c1.1-2.6,2.3-5.3,3.4-7.9c0.2-0.5,0.6-1.1-0.2-1.8c-4.2,7.3-8.4,14.4-12,21.9c-0.1,0.1-0.1,0.2-0.1,0.4c-0.6,2.3-1.9,4.2-3.8,5.8
		c-1.6,1.3-2.2,3.1-2.3,5.2C173.2,523.8,173.5,526.9,174.4,530.7z"/>
	<path d="M164.7,639.8c-0.2,1.2-0.3,2.3,0.1,3.5c0.8,2.1,1.6,4.1,2.6,6.6c0.8-1.8,0.9-3.3,1-4.8c0-2.8,0.5-5.4,1.6-8
		c1-2.3,1.2-4.8,1.1-7.3c-0.2-4.7-0.5-9.4-0.7-14.1c-0.1-3-0.1-6-0.1-9c0-0.9,0.1-1.9,0.7-2.6c0.3-0.4,0.8-0.6,1.4-0.2
		c0.6,0.6,0.5,1.4,0.4,2.2c-0.4,7.1,0.4,14.1,1,21.1c0.3,3.6,0,7-1.5,10.3c-1.2,2.5-1.6,5.2-1.6,8c0,3.4-0.3,6.8-1,10.1
		c-0.3,1.4-0.3,2.8-0.4,4.3c-0.3,0.2-0.6,0.5-0.9,0.7c-0.8-0.1-1.2-0.6-1.3-1.3c-0.4-2-0.8-4.1-1.3-6.1c-0.7-3.2-1.5-6.3-2.2-9.5
		C163.2,642.1,163.1,640.6,164.7,639.8L164.7,639.8z"/>
	<path d="M184.4,654.3c1.7-6.4,3.5-12.8,5.2-19.2c-0.8-1.5-1.1-3-1.1-4.6c-0.1-5.2-0.8-10.4-1.5-15.6c-0.6-4.1-0.9-8.3-1.4-12.5
		c-0.1-0.5-0.1-1,0.3-1.5c0.7-0.2,0.8,0.4,0.9,0.8c0.5,3.7,1,7.5,1.4,11.3c0.5,3.8,0.9,7.5,1.3,11.3c0.2,1.7,0.2,3.4,0.3,5.1
		c0.1,1.6-0.2,3.1,0.5,4.6c0.2,0.5,0.2,1.3,0.1,1.9c-1.2,5.8-2.6,11.5-4.6,17c-0.2,0.6-0.6,1.1-0.9,1.7
		C184.6,654.5,184.5,654.4,184.4,654.3z"/>
	<path d="M221.1,508.8c-0.4-1.4,0.4-2.5,0.8-3.7c2.4-6.3,4.6-12.7,6.3-19.2c1-3.6,1.9-7.3,2.3-11c0.1-0.5,0.2-1,0.8-1.2
		c0.7,0,0.7,0.6,0.8,1.1c0.1,2.6-0.4,5.2-1.1,7.7c-2.3,9.1-5.3,17.9-9.7,26.2C221.4,508.7,221.2,508.7,221.1,508.8L221.1,508.8z"/>
	<path d="M165.5,638.2c-1.7-5.9-1.2-11.9-0.5-17.8c0.3-2.6,0.9-5.1,1.4-7.7c0.2-0.9,0.3-1.8,1-2.4c0.7-0.1,1,0.2,1,0.8
		c-0.1,0.9-0.2,1.8-0.4,2.7c-1.1,7.1-1.9,14.2-1.5,21.4C166.5,636.1,166.8,637.4,165.5,638.2L165.5,638.2z"/>
	<path d="M220.3,510.4c-0.1,0.6,0,1.3-0.2,1.9c-1,3.1-2.1,6.2-3.6,9.1c-3.1,6-6.3,12-9.5,18c-0.2,0.5-0.6,0.9-0.9,1.3
		c-0.7-0.7-0.1-1.2,0.1-1.7c1.9-4,3.8-8,5.8-12c2.3-4.5,4.6-9.1,6.5-13.8C218.9,512.2,219.1,510.9,220.3,510.4L220.3,510.4z"/>
	<path d="M186.8,585c0.2-8.5,1.9-16.3,5.1-23.8c0.7-1.6,1.2-3.4,3.1-4.6c0,2-1.2,3.3-1.6,4.9c-0.4,1.5-1.1,2.9-1.6,4.4
		c-0.5,1.6-1,3.2-1.4,4.9c-0.4,1.5-0.7,3-1,4.6c-0.4,1.6-0.7,3.3-1,5C188.1,581.7,188.1,583.3,186.8,585z"/>
	<path d="M183.9,656.7c0.4,0.1,0.8,0.3,0.8,0.7c0,0.6-0.1,1.3-0.2,1.9c-1.1,3.6-2.5,7.1-4.1,10.5c-0.4,0.8-0.9,1.5-2,1.2
		C178.2,668.6,178.2,668.6,183.9,656.7z"/>
	<path d="M220.4,510.4c-0.1-0.7-0.1-1.4,0.8-1.6l-0.1-0.1C221.2,509.5,221.2,510.2,220.4,510.4L220.4,510.4z"/>
	<path d="M164.8,639.9c0-0.7,0.1-1.3,0.7-1.7l-0.1-0.1C165.4,638.7,165.2,639.3,164.8,639.9L164.8,639.9z"/>
	<path d="M783.6,521.9c0.4-0.5,0.5-0.8,0.6-0.8c9-1,18-0.9,27-0.4c7.7,0.5,15.4,0.5,23.1,0.8c9.3,0.4,18.5,0.9,27.8,1.3
		c4.6,0.2,9.1,0.4,13.7,0c0.4,0,0.7,0.1,1.1,0.2c0.2,0.7-0.1,1.1-0.6,1.3c-1.3,0.6-2.7,0.9-4.2,0.9c-2.2,0-4.4,0.2-6.7,0.2
		c-12.8,0.1-25.6-0.7-38.4-1.2c-12.9-0.5-25.8-1.4-38.7-2.1C786.8,522.1,785.3,522.2,783.6,521.9z"/>
	<path d="M743.9,534.7c-3,0.2-6-0.2-8.9-0.8c-9.7-1.9-18.9-5-26.7-11.2c-0.5-0.4-1-0.8-1.4-1.3c0.5-0.9,0.9-0.3,1.2-0.1
		c0.2,0.1,0.5,0.3,0.7,0.4c7.7,5.7,16.5,8.7,25.7,10.7c2.7,0.6,5.3,1.1,8,1.6C743,534.2,743.5,534.3,743.9,534.7L743.9,534.7z"/>
	<path d="M734,521.8c9.9,0.5,19.5,0.8,29,1.4c0.2,0.7,0,0.9-0.3,0.9c-0.9,0.1-1.8,0.2-2.7,0.1c-8.4-0.5-16.9-1.1-25.3-1.7
		C734.5,522.5,734.3,522.2,734,521.8z"/>
	<path d="M710.6,511.3c2-0.7,3.8,0.4,5.7,0.7c2.1,0.3,4.1,0.8,6.1,1.1c1.9,0.3,3.9,0.5,5.8,0.8c1.9,0.2,3.8,0.5,5.7,0.9
		c-1.8,0.5-3.7,0.4-5.6,0.1c-1.7-0.3-3.4-0.3-5-0.4c-3.8-0.1-7.5-0.7-11.2-1.7C711.5,512.5,710.6,512.4,710.6,511.3z"/>
	<path d="M735.4,562.9c0.5,0.4,1.1,0.7,1.5,1.1c5.1,5.1,10.2,10.2,15.2,15.4c0.4,0.5,0.8,1,1.2,1.5l0.1-0.1c-1,0.1-1.7-0.6-2.3-1.2
		c-4.9-4.6-9.7-9.2-14.2-14.2C736.2,564.7,735.2,564.1,735.4,562.9L735.4,562.9z"/>
	<path d="M775.7,581.8c1.2,2.9,2.6,5.8,3.2,9c-0.6,0-1,0.1-1,0.1C776.4,588,775.3,585.1,775.7,581.8z"/>
	<path d="M771.8,506.3c-0.6-4.9-0.5-5.4,1-8.1C773.4,501.2,772.2,503.7,771.8,506.3z"/>
	<path d="M695.3,524.5c-2.6-0.7-4.7-2.5-6.8-4c-0.1-0.1-0.1-0.4-0.2-0.7l-0.1,0.1c0.1,0,0.3-0.1,0.4-0.1
		C691.1,520.6,693.5,522.4,695.3,524.5L695.3,524.5z"/>
	<path d="M798.9,585.7c0.1-1.9,1.8-2.6,3.1-4.3C801.4,583.7,801.4,583.7,798.9,585.7L798.9,585.7z"/>
	<path d="M743.8,534.8c1.5,0,3.1,0,4.6,0C746.9,535.4,745.4,535.5,743.8,534.8L743.8,534.8z"/>
	<path d="M800.4,569.9c-0.4,1.1-1.3,1.4-2.4,1.5l0.1,0.1C798.6,570.6,799.3,569.9,800.4,569.9L800.4,569.9z"/>
	<path d="M751,535.8c0.6-0.3,1.2-0.3,1.7,0C752.2,536.2,751.6,536.1,751,535.8z"/>
	<path d="M797.1,587.1c0.1,0.4,0.2,0.7-0.3,0.9C796.5,587.6,796.9,587.4,797.1,587.1L797.1,587.1z"/>
	<path d="M801.9,553.4c-0.2,0.2-0.4,0.6-0.9,0.4c0.4-0.1,0.7-0.2,1-0.3L801.9,553.4z"/>
	<path d="M803.5,552.7c-0.3,0.8-1,0.7-1.7,0.7l0.1,0.1C802.2,552.7,802.9,552.7,803.5,552.7L803.5,552.7z"/>
	<path d="M795.7,556.6c0.4-0.6,1-0.5,1.5-0.7l-0.1-0.1C796.7,556.1,796.2,556.3,795.7,556.6L795.7,556.6z"/>
	<path d="M797.3,556c0-0.1,0.1-0.2,0.1-0.3L797.3,556L797.3,556z"/>
	<path d="M735.4,562.9l-0.2-0.1L735.4,562.9z"/>
	<path d="M753.3,580.9C753.7,581.2,753.3,580.7,753.3,580.9L753.3,580.9z"/>
	<path d="M798,571.5c0,0.1-0.1,0.2-0.1,0.3L798,571.5L798,571.5z"/>
	<path d="M777.6,566.1c0.2,0.1,0.3,0.1,0.2,0.1C777.9,566.3,777.8,566.2,777.6,566.1L777.6,566.1z"/>
	<path d="M795.7,556.6C795.5,556.8,795.5,556.8,795.7,556.6L795.7,556.6z"/>
	<path d="M797.2,587.2c0.1-0.4,0.3-0.7,0.8-0.8l-0.1-0.1C797.9,586.9,797.7,587.2,797.2,587.2L797.2,587.2z"/>
	<path d="M798.8,585.6c-0.1,0.5-0.4,0.8-0.9,0.8l0.1,0.1C798.1,586,798.4,585.7,798.8,585.6L798.8,585.6z"/>
	<polygon points="699.2,527.8 699.4,527.8 699.3,527.7 	"/>
	<path d="M698.4,527c0.3,0.3,0.5,0.5,0.8,0.8l0.1-0.1C699,527.4,698.8,527.2,698.4,527L698.4,527z"/>
	<path d="M697.7,526.1c0.2,0.3,0.5,0.6,0.7,0.9l0.1-0.1C698.3,526.6,698.1,526.3,697.7,526.1L697.7,526.1z"/>
	<polygon points="697.8,526 697.6,526 697.7,526.1 	"/>
	<path d="M695.2,524.6c0.1,0,0.2,0.1,0.3,0.1L695.2,524.6L695.2,524.6z"/>
	<path d="M688.3,519.8c-0.1,0-0.2-0.1-0.3-0.1C688.1,519.4,688.2,519.5,688.3,519.8L688.3,519.8z"/>
	<path d="M751.9,485.4c0.5-1,1.5-0.9,2.4-1.1c5.7-1.3,11.4-2.8,17.3-2.6c0.5,0,1.1,0,1.5-0.2c4.4-1.4,9-1.4,13.5-1.7
		c2-0.1,3.9,0,5.5,1.3c0.1,0.8-0.4,1-0.9,1.1c-3.1,0.6-6.1,1.1-9.2,1.7c0,0.6,0.1,1,0.1,1.6c-1.4,1.4-3.1,1.6-5.5,1
		c-0.2-0.3-0.8-0.8-1.4-1.5c-0.5,0-1.1-0.1-1.8-0.1c-3.9-0.2-7.8-0.9-11.7-0.6c-2.3,0.2-4.7,0.1-6.9,0.9
		C753.9,485.6,752.8,485.6,751.9,485.4L751.9,485.4z"/>
	<path d="M762.7,454c2.3,0.4,3.6,2,4.7,3.7c0.9,1.3,1.6,2.6,3,3.5c1,0.7,1.2,1.9,0.9,3c-0.6,0.2-1,0-1.1-0.3
		c-1.1-2.6-3.3-4.3-5.5-5.9c-0.7-0.5-1.3-1.2-1.8-1.7C762.5,455.4,762.7,454.7,762.7,454L762.7,454z"/>
	<path d="M741.7,478.3c0.2-0.2,0.3-0.5,0.5-0.5c3.7-0.6,7.4-1.2,11.2-1.7c0.2,0,0.5,0.1,0.8,0.2c0,0.9-0.7,1-1.3,1
		C749.1,477.7,745.4,478.4,741.7,478.3L741.7,478.3z"/>
	<path d="M816.1,444.5c-2.2,0-3.5-1.3-4.7-2.9c-0.3-0.4-0.2-1,0.4-1.5C813.8,440.9,815.2,442.4,816.1,444.5L816.1,444.5z"/>
	<path d="M773.4,470.2c-1.3-0.9-1.8-2.1-1.8-3.6c1-0.5,1.3,0.2,1.6,0.7C773.8,468.5,773.7,468.5,773.4,470.2z"/>
	<path d="M751.8,485.3c-1.2,1.1-2.5,0.6-3.8,0.5C749.2,485.3,750.5,485.3,751.8,485.3L751.8,485.3z"/>
	<path d="M824.2,451.8c-0.7-0.4-1.2-0.9-0.9-1.8C824.2,450.6,824.2,450.6,824.2,451.8z"/>
	<path d="M741.6,478.2c-0.2,0.4-0.4,0.8-1,0.2C741,478.4,741.3,478.4,741.6,478.2L741.6,478.2z"/>
	<path d="M816,444.6c0.1,0.1,0.2,0.1,0.3,0.2L816,444.6L816,444.6z"/>
	<polygon points="556.2,314 556.3,314.2 556.1,314.1 	"/>
</g>
</svg>
