<?xml version="1.0" encoding="utf-8"?>
<!-- Generator: Adobe Illustrator 19.1.0, SVG Export Plug-In . SVG Version: 6.00 Build 0)  -->
<svg version="1.2" baseProfile="tiny" id="Layer_2" xmlns="http://www.w3.org/2000/svg" xmlns:xlink="http://www.w3.org/1999/xlink"
	 x="0px" y="0px" width="900px" height="600px" viewBox="144 97 900 600" xml:space="preserve">
<g>
	<path d="M466.8,441.1c-0.9,0.3-1.1-0.9-2.1-0.8c-0.1,1.6-1.2,2.9-0.9,4.7l-0.1,0.2V445c0.5,0.4,1,0.7,1.4,1.1
		c0.1,2-1.6,3.1-2.3,4.7c0.1,2.7-0.6,5.3-0.9,8c-0.8,5.2-0.8,10.4,0.1,15.6c0.4,2.3,0.7,4.7,1.3,6.9c1.7,6.3,4.9,11.9,8.5,17.3
		c0.3,0.4,0.6,0.8,0.7,0.9c2.1,0.9,4,0.8,5.8,1c6.2,0.8,12.4,1.2,18.6,1.5c3.5,0.2,6.9,0.8,10.3,1.3c1.1,0.2,2.2,0.5,3.3,0.8
		c1.5,0.3,2.9,0.7,3.9,1.8c6,0.4,11.8,0.6,17.6,0.5c4.6-0.1,9.2-0.2,13.8-0.1c6.6,0.2,12.8-1.3,18.8-3.9c4-1.8,7.9-3.6,11.7-5.8
		c1.8-1.1,3.6-2.1,5.3-3.5c0.5-0.4,0.9-0.7,1.5-0.8c0.2,0.8-0.3,1-0.6,1.3c-2.1,1.7-4.2,3.5-6.3,5.2c-6.1,4.8-12.8,8-20.4,9.5
		c-5,1-10.1,1.4-15.2,0.3c-1-0.2-2-0.2-3,0c-7.4,1.1-14.9,0.9-22.3,0.4c-3.7-0.3-7.4-1.1-10.9-2.4c-2.5-0.9-5-1.3-7.7-1.2
		c-9.1,0.1-18.1-1.1-27-2.6c-3.3-0.5-6.6-1.1-10-1.3c-1.4-0.1-2.7-0.2-4.1-0.4c-2.9-0.4-5.7-0.3-8.5,0c-4.5,0.6-8.9,0.8-13.4,0.6
		c-1.5-0.1-2.9,0.1-4.4,0.3c-1.8,0.3-3.7,0.1-5.5,0.4c-2.9,0.5-5.9,1.1-8.8,1.6c-2.1,0.4-4.2,0.8-6.3,0.9c-3.6,0.3-7,1.8-10.6,2.1
		c-1,0.1-2,0.3-3,0.3c-7.9,0.5-15.9,1-23.8,1.5c-1.7,0.1-3.4,0.5-5.2,0.7c-5.8,0.7-11.6,1.6-17.4,1.8c-9.6,0.3-19.1-0.4-28.5-2.7
		c-4.9-1.2-9.9-2.2-14.7-4.1c-4.6-1.9-9.2-3.8-13.1-6.9c-0.3-0.2-0.6-0.4-1-0.6c-9.1-4.1-18.6-6.8-28.6-8c-1.6-0.2-3.2-0.5-4.8,0.2
		c-0.6,0.3-1.5,0.1-2.2,0.1c-1.6,0-3.2,0-4.8,0c-3.2,0.1-6.1,0.8-8.6,3.1c0,0.4,0,0.9,0,1.4c-1.3,1.5-3.1,2.4-4.6,3.7
		c-1.4,1.2-2.9,2.3-4.4,3.5s-3.3,2.2-4.7,3.8c2.4,1.3,4.7,2,7.2,2.6c4.1,0.9,8.3,1.4,12.6,1.5c9.2,0.2,18.4,0,27.6-0.2
		c4.7-0.1,9.4-0.4,14.1-0.6c0.8,0,1.7-0.2,2.3,0.4c0.1,0.7-0.3,0.9-0.6,0.9c-0.9,0.1-1.7,0.1-2.6,0.1c-6,0-11.9,0.7-17.8,1.3
		c-0.9,0.1-1.7,0.1-2.6,0.2c-7.1,0.3-14.1,1-20.5,0.6c-1.6,0.2-1.8,1.1-2.5,1.5c-9.4,1.2-18.8,1.5-28.2,0.8
		c-9.2-0.7-18.1-3.2-26.4-7.3c-1.3-0.6-2.6-1.5-3.9-2.2c-4.7-0.1-8.1,0.9-11.5,3.5c3.7,2.6,7.9,3.6,12.1,4.6c4.1,1,8.3,1.5,12.5,2.1
		c0.5-0.3,1-0.6,1.6-0.9c6,0.5,12.1,1.2,18.1,1.5c5,0.3,9.9,0.2,14.9,0.5c6.8,0.5,13.4-0.6,19.9-2c6-1.2,12-2,18.1-2.1
		c1.7,0,3.5-0.2,5.2-0.4c2.5-0.2,4.9-0.4,7.4,0.2s4.7,1.7,6.5,3.5c0.8,0.8,1.5,1.6,2.7,2c2.4,0.7,3.6,2.6,4.3,4.8
		c0.7,2.3,1.1,4.6,0.4,7c-0.3,1.2-0.6,2.4-0.9,3.6c2.5-0.7,3-1,6.2-3.8c1.6-4.4,1-7-2.6-9.8c-1.5-1.1-3.1-2-4.7-2.9
		c-1.7-1-3.6-1.8-5.3-2.7c-0.9-0.5-1.9-0.8-2.4-1.8c0.1-0.8,0.7-1,1.3-0.8c1.5,0.6,3,1.3,4.4,2c2.2,1.1,4.4,2.2,6.6,3.5
		c3,1.7,5.2,4.2,5.9,7.8c0.1,0.6,0.2,1.2,0.9,1.5l-0.1-0.1c-2.3,6.8-6.6,11.8-13,15c-2.3,1.2-4.4,2.5-6.4,4.3c-3,2.6-6.1,5-9.6,7
		c-0.6,0.4-1.2,0.8-2.3,0.4c0.9-1.4,2.1-2.2,3.4-2.9c1.6-0.9,3.1-2,4.3-3.6c-0.8-0.8-1.4-0.1-2,0.1c-6.6,2.3-13.3,2.5-20.2,1.6
		c-4.7-0.6-9.3-1.2-14-1.8c-0.5-0.1-1-0.2-1.4-0.3c-0.3-0.8,0.2-1,0.7-0.9c3.8,0.7,7.6,1.2,11.4,1.5c8.5,0.6,16.8-0.3,24.8-3.5
		c1.2-0.5,2.4-1.3,3.5-2c0.6-0.4,1-1.1,0.5-1.9c-0.6-0.2-0.9,0.2-1.3,0.4c-3.8,2.4-8.1,3.6-12.5,4.5c-6.9,1.3-13.8,0.9-20.8,0.6
		c-0.3,0-0.7-0.2-1-0.4c-0.1,0-0.1-0.2-0.2-0.4c0.3-0.7,1-0.5,1.5-0.5c3.5,0.2,7,0.1,10.4-0.2c4.7-0.3,9.4-1,13.9-2.2
		c2.5-0.7,5-1.6,7.2-2.9c1.5-0.9,2.9-1.9,3.6-3.5c-0.5-3.6-1.1-6.9-4.9-8.9c-2.4,0.3-4.9,0.9-7.3,1.8c-3.3,1.1-6.5,2.3-9.8,3.5
		c-0.6,0.2-1.5,0.3-1.7,1.2c-0.4,0-0.7,0.1-1.1,0.2c0.6,0.6,0.8,0.2,1.1-0.2c0.9,0,1.8,0,3.1,0c-3.8,1.8-10.8,4-14.5,4.5
		c-9,1.3-18,1.7-27.1,1c-1.5-0.1-3-0.3-4.5-0.2c-3.7,0.3-7.4-0.7-11-1c-3.8-0.3-7.6-1.1-11.4-1.8c-3.7-0.6-7.3-1.4-10.9-2.5
		c-5.5-1.7-10.9-3.6-15.3-7.3c-3.7-0.2-6.8-1.7-9.5-3.9c-3.9-3.2-4.7-7.5-3.7-12.1c0.7-3.4,2.5-6.2,5.5-8.3
		c-2.3-2.8-4.5-5.6-6.8-8.4c-3.8-4.7-6.7-9.8-8.2-15.7c-1.7-6.6-2.8-13.3-3.3-20.2c-0.2-3.1-0.1-6.2-1.1-9.2c-0.4-1.3,0-2.7,0.5-4
		c2-5.4,4-10.7,6.1-16c0.4-0.9,0.9-1.8,1.5-2.5c2.9-3.4,5.8-6.8,8.9-10c0.9-1,2.2-1.7,3.4-2.1c5.8-1.9,11.3-4.6,17.2-6
		c1.7-0.4,3.4-0.7,5.1-0.8c2.5-0.2,4.9-0.6,7.3-1.2c1.6-0.4,3.2-0.3,4.7,0.3c1.5,0.6,3,1.1,4.6,1.6c1.8,0.6,3.6,0.8,5.4-0.2
		c0.8-0.4,1.6-0.5,2.5-0.8c1.3-0.4,2.6-0.8,3.9-1.4c4.2-2.1,8.3-4.3,12.5-6.5c0.9-0.1,1.7,0.2,2.6,0.8c1.4,2.1,2,4.6,2.4,7.3
		c1.5,1.3,3.1,1.6,4.8,0.8c1.2-0.6,2.4-0.6,3.8,0.2c0.6,0.8,1.4,1.7,2.2,2.8c3.8-3,6.7-1.3,9.4,1.4c3.5-0.7,6.8-0.9,10,0.2
		c2.5,2.7,3.3,5.9,3.5,9.3c0.1,1.5,0.2,3-0.1,4.5c-0.6,3.2-0.1,6.4-0.7,9.6c2,1.6,4,2.8,6.2,3.5c4.5,1.5,9,2.9,13.6,3.9
		c1.6,0.3,3.2,0.3,4.9-0.7c0.5-0.5,0.5-1.6,1.3-2.3c5.6-5,10.1-10.9,14.9-16.6c5-6,10.1-11.9,16-17.4c0.8-2.5,2.5-4.6,4.5-6.5
		c0.9-0.9,1.8-1.7,2.7-2.5c3-2.4,5.8-4.9,8.4-7.8c4.8-5.2,11-8,17.9-9.1c5.4-0.9,10.9-1,16.3-0.1c0.7,0.1,1.5,0.2,2.2,0.4
		c3.8,1.1,7.2,2.8,8.6,6.9c1.6,0.7,3.1,1.3,4.7,2c3.2-0.5,6.1,0.7,8.3,3.1c1.4,1.5,3.3,2.1,4.5,3.8c0.8-1.1,0.2-1.7-0.3-2.2
		c-3.9-3.7-7.8-7.3-11.6-11.1c-3.4-3.3-6.7-6.7-9.9-10.1c-1.5-1.6-2.9-3.4-4.2-5.2c-6.4-8.8-12.3-18-17.7-27.5c-1.1-2-1.9-3.8-2-6.2
		c-0.1-2.6-1.1-5.1-1.7-7.6c-0.2-1.1-0.3-2.2-0.5-3.3c-0.9-5.8,1.2-10.7,4.6-15.2c1-1.4,2.2-2.7,3.2-3.9c0-1.9-1.1-3.2-1.7-4.9
		c0.6-2.7,0.9-5.7,1-8.5c0.9-1,1.7-1.7,3-2c2,0.8,3.6,1.9,3.3,4.5l0.1-0.1c-1.6-0.2-1.9-2.2-3.5-2.5c-0.1,0.1-0.2,0.1-0.3,0.2
		c-1.7,3.2-2.1,6.5-0.9,10c0.3,1.1,1,2,1.5,3s0.9,2.1,1.3,3.1c0.9,0.6,1.9,1.2,2.7,1.9c2.2,1.7,3.8,3.9,4.9,6.4
		c0.4,0.8,0.5,1.8,1.1,2.3c2.8,2.5,4.8,5.8,7.9,7.8c1.3,0.9,2.6,1.9,4.3,2.3c0.7,3.3,2.7,6.1,3.6,9.3c0.5,1.8,1.5,3.4,2.3,5.1
		c1.2,2.6,2.5,5.1,3.5,7.8c1.4,3.9,2.2,7.9,2.2,12.2c1.5,1.4,1.7,3.4,1.9,5.4c0.4,7.1,1.8,14,3.4,20.9c1.7,7,1.7,14,1.3,21.1
		c-0.2,4.2-0.1,8.4,0.3,12.6c0.1,1.6,0.4,3.2,0.5,4.5c0.9,2.7,3.6,3.2,5.5,5c-3.2,0.5-5.5-0.3-7.9-1.4c-2.4,1-5,1.4-7.6,1.7
		c-8,0.9-16,2.2-23.8,4.4c-4.5,1.3-9.1,2.6-13.6,3.9c-1.9,0.5-3.7,1.3-5.2,2.6c-2.7,0.4-5.3,0.5-7.8-0.7c-0.7-0.3-1.4-0.4-2.2-0.4
		c-2.8,0-5.4-0.8-8.1-1.2c-0.6-0.1-1.3-0.2-1.8-0.5c-3.9-2.2-8.2-1.4-12.4-1.5c-1.5,0-2.9,0.6-4.2,1.3c-2.3,1.2-4.8,2.1-7.3,2.8
		c-3.3,2.9-6.4,6.1-8.7,10.1c-0.5,1-1.1,1.9-1.3,3.1c-0.1,0.8-0.6,1.6-0.9,2.4c-0.2,0.6-0.5,1.1-0.8,1.7c-2.6,5-3.7,10.2-3.1,15.8
		c0.5,3.9,0.9,7.9,1.5,11.8c0.5,3.4,1.7,6.5,3.6,9.3c1.5,2.1,3.1,4.2,4.6,6.3c0.9,1.3,2.1,2,3.6,2.5c6.1,1.8,12.3,3,18.5,4.3
		c1.2,0.3,2.5,0.1,3.7,0.1l-0.1-0.1c0.7,0.7,1.6,0.7,2.4,0.7c7.7,0.6,15.4,0.6,23.1-0.5c2.6-0.4,5.2-0.1,7.6-1.4
		c0.6-0.3,1.5-0.2,2.2-0.2c4.4,0,8.6-0.9,12.9-1.5c0.9-0.1,1.6-0.5,2.2-1.6c-0.9-2.5,0.2-5.5-1.5-8.1c-3,1.1-5.9,1.9-8.7,3.3
		c-6.5,3.1-13.2,5.8-20.3,7.4c-3.4,0.8-6.9,0.5-10.4,1.2c-0.3,0.1-0.7-0.2-1-0.3c-0.1-0.5,0.2-0.9,0.5-0.9
		c6.1-0.7,11.7-3.4,17.4-5.4c3-1.1,6.1-2.1,9.1-3.2c2.6-0.9,5-2.1,7.5-3.3c10.1-4.8,19.8-10.5,30.4-14.1c4.5-1.5,8.9-3,13.4-4.6
		c0.9-0.3,1.9-0.6,2.8-1c5.4-2.7,10.8-5.5,16.3-8.3c0.3-0.2,0.7-0.3,1-0.5c7.5-4.8,14.8-10,21.4-16.2c-0.7-2.1,0-4,0.3-5.9
		c0.3-1.8,1.2-3.5,1-5.6c-2.5-3.3-3.6-7.2-4.6-11.2c-1.5-5.9-3.2-11.8-5.2-17.5c-3.4-9.5-7-18.9-10.8-28.2
		c-6.3-15.4-13.9-30.3-21.6-45c-1.1-2.1-2.3-4.1-3.3-6.3c-1.5-3-2.7-6.1-2.8-9.6c0-0.7-0.4-1.4-0.7-2.3c1.1-2,2-4.1,3.3-6.1
		c3.1-4.6,3.3-9.5,2-14.6c-0.1-0.2,0-0.5-0.1-0.7c1.6-3.1,3.9-5.4,7-6.7c0.9-2.4,1-4.3-0.8-5.9c-1.4-0.6-2.7,0-3.9,0.2
		c-1,1.2-1.2,3-3,3.2l0.1,0.1c-0.2-0.7,0-1.4,0.2-2.1c1.4-4.1,0.4-6.2-2.8-8.1c-1.2-0.3-2.4,0.1-3.6,0.4l0.1,0.1
		c-0.2-0.4-0.5-0.8-0.3-1.4c2.6-1.5,4.5-1.4,6.3,0.4c1.4,1.4,2.4,3.2,3,5.1c1.4,0.7,2.7-0.6,3.8-0.2c0.9,0.3,1.2,0.8,1.6,1.3
		c0.4,0.5,0.7,1,1.5,1.3c1.9-1.3,3.9-1.8,5.9-0.4c1.2,1.5,0.7,3.3,1.8,4.8c4.4-0.6,8.8-0.4,13.3-0.5c8.8-0.1,17.6,0.8,26.4,1.8
		c5.7,0.6,11.4,1.1,17.1,1.1c5.6,0,11.2,0.4,16.8,0.1c3.8-0.2,7.7-0.6,11.5-0.7c4.5-0.1,8.9-0.1,13.4-0.1c1.4,0,2.7-0.1,4.1-0.4
		c6.1-1.6,12.3-3.1,18.5-4.2c7.8-1.5,15.4-3.9,23-6.1c0.5-0.1,0.9-0.4,1.5-0.6c-0.7-3.9-1.3-7.8-1.4-11.7c0.2-0.6,0.7-1.1,1.4-1
		c4.3,0.6,8.7,0.3,13,0.2c5.3,0,10.4,0.5,15.5,1.6c2.3,0.5,4.6,1.1,7,0.4c0.7-0.2,1.5-0.3,2.1-0.6c2.5-1.1,5.1-2,7.6-3
		c3-1.1,5.9-2.6,8.5-4.4c1.9-1.3,3.9-2.7,6-3.7c1.4-0.6,2.5-1.6,3.4-2.8c1.3-1.7,2.9-3,4.7-4.2c1.7-1.1,3.3-2.2,4.8-3.5
		c1.7-1.6,3.9-2.6,6.2-3.7c1.6,0.4,3.3,0.7,5,1.2c2.8,0.8,5.4,2,6.7,4.8c0.3,0.5,0.8,1,1,1.3c0.5,1.6,0.4,2.9,0.1,4.3
		c-1.3,6.3-3,12.6-5.4,18.6c-0.7,1.7-1.6,3.4-2.4,5c-1,2-1.9,4-2.3,6.3c-0.9,4.8-3.2,8.8-6.7,12.2c-2.1,2.1-4.3,4.1-6.5,6.1
		c-1.2,1.1-2.2,2.2-2.9,3.8c-0.9,2.2-2.9,3.8-4.9,5c-3.5,2.1-5.9,5.3-8.4,8.4c-0.9,1.1-1.4,2.3-1.5,3.7c-0.2,2-0.7,3.9-0.5,5.8
		c-0.7,2.2-2.1,4.1-2.4,6.3c-0.1,0.9-0.9,1.7-1.5,2.5c-1.5,2-3.4,3.6-5.3,5.2c-3.6,3.1-6.9,6.5-10.4,9.6c-4,3.6-8.3,7-13.2,9.2
		c-1-0.1-1.5-0.6-1.9-1.3c-2-3.4-4-6.9-5.9-10.3c-0.9-1.7-2.1-3.1-3.6-4.2c-3.5-2.4-6.1-5.5-8.2-9c-2.5-4.2-5.9-7.4-9.8-10
		c-2.7-1.9-4.2-4.1-4.2-7.4c0-0.2-0.2-0.4-0.4-0.8c-0.3,0-0.7-0.1-1,0c-8.5,2.8-17.3,4.5-26,6.5c-6.9,1.6-13.8,3.3-20.6,5
		c-1.1,0.3-2.1,0.7-3.2,1.1c-1.2,0.5-2.2,1-3.6,0.8c-0.7-0.1-1.4,0.3-2.1,0.5c-7.6,2.6-15.3,5.2-22.6,8.5c-4.3,2-8.9,3-13.6,3.6
		c-3,0.4-6,0.7-9.1,1.1c0.4,0.7,1,0.8,1.6,0.9c3.9,0.5,7.9,1.2,11.8,1.6c3.1,0.3,6.1,0.9,9.2,1.7c6.4,1.7,12.6,3.8,18.6,6.6
		c2.5,1.2,5,2.2,7.5,3.3c4.2,1.7,8.1,3.8,11.9,6.1c12.4,7.4,24.1,15.8,34.7,25.7c2.6,2.5,5.2,4.9,8.3,6.9c1.5,1,2.8,2.5,4.1,3.7
		c0.8,0.8,1.4,1.8,2.5,2.2c1.7,0.3,3-1,4.7-1c1.6,0,3.3,0.2,4.8,0c4.9-0.8,9.9-0.9,14.8-1.3c6.3-0.4,12.6-1,18.9-1.7
		c2.3-0.3,4.6-1,6.9-1.5c2.7-0.5,5.4-0.7,8.2-0.7c4.7,0,9.4,0,14.2-0.1c3.6-0.1,7.2,0.3,10.8,0.5c2.4,0.1,4.7,0.3,7.1,0.4
		c4.5,0.1,8.9,0.6,13.4,1.1c3,0.4,5.9,0.6,8.9,0.8c5,0.4,9.9,0.6,14.9,1c8.2,0.6,16.3,1.5,24.3,3.4c2.5,0.6,5.1,1.2,7.7,1.3
		c1.7,0,3.5,0.4,5.1,1c2,0.7,4.1,1,6.2,1.2c3.4,0.5,6.9,0.9,10.2,2c1,0.3,1.9,0.4,2.9,0.3c2.8-0.2,5.7-0.4,8.5-0.6
		c2.8-0.3,5.4,0.3,8,1.3c2.3,0.9,4.6,2,7.1,3c0.3,0.4,0.8,0.9,1.3,1.6c0.3,0.1,0.6,0.3,0.9,0.4c2.8,1,5.6,2.1,8.2,3.5
		c0.7,0.4,1.4,0.6,1.9,1.1c2.1,2.1,4.8,2.4,7.5,2.8c1.6,0.2,3.2,0.3,4.8,0.5c0.9,0.1,1.8,0.1,2.5,0.5c2.3,1.1,4.8,1.2,7.2,1.4
		c4.9,0.4,9.9,1.1,14.8,1.7c3.9,0.4,7.9,0.9,11.9,1.2c6.9,0.4,13.9,0.9,20.8,1.7c4.1,0.5,8.2,0.8,12.2,1.3c4.9,0.7,9.8,1.7,14.6,2.7
		c8.4,1.7,16.8,3.3,25.4,3.8c1,0.1,2,0,3-0.1c4.8-0.4,9.6-0.8,14.5-1.2c1.2-0.1,2.5-0.1,3.7-0.5c2.7-0.8,5.4-0.8,8.1-0.9
		c5.5-0.3,10.8-1.5,16-3.3c0.9-0.3,1.9-0.6,2.7-1.6c-0.8-0.5-1.6-1-2.3-1.6c-1.3-1-2.4-2.2-3.2-3.6c-0.8-1.4-1-2.8,0-4.3
		c3.2-1.9,6.8-2.6,10.4-3.4c0.6-0.1,1.2,0,1.8,0.1c2.2,0.5,4.4,0.2,6.7,0.1c3.3-0.1,6.3-1.1,9.3-2.2c5-1.8,10.1-3.3,15.3-4.8
		c2.5-0.7,4.6-1.8,6.3-3.7c0.8-0.9,1.9-1.6,2.9-2.3c1.5-1.1,3.1-2.1,4.8-3.2c0-2.3,1.3-4.1,2.7-5.8c3.3-4.1,6.3-8.3,9.2-12.7
		c0.7-1.1,1.6-1.9,2.8-2.4c0.6-0.2,1.3-0.5,1.8-0.4c2.9,0.7,6,0.3,8.8,1.4c0.9,0.3,1.9,0.6,2.8,1.6c0.1,3,0.3,6.1,0,9.3
		c-0.5,4.9-1.7,9.8-1,14.8c0.1,0.6,0,1.2-0.1,1.9c-0.5,4.2-1.5,8.4-3.5,12.1c-2,3.6-3.2,7.6-4.6,11.4c-1.3,3.6-2.2,7.4-3.3,11.1
		c-0.2,0.8-0.5,1.7-0.6,2.5c-0.2,1.9-1,3.4-2.6,4.3c-3.6,2-5.8,5.3-8.5,8.1c-0.5,2-0.6,3.8-0.2,5.7c1,5.4-0.6,9.9-3.9,14.2
		c-2.6,3.4-4.7,7.3-7,11c-0.9,1.4-1.8,2.6-2.9,3.8c-1.5,1.5-2.8,3.1-3.6,5.1c-0.7,1.8-1.9,3.5-3.6,4.5c-1.2,0-2-0.6-2.8-1.1
		c-3.5-2.4-7.1-4.5-11.3-5.6c-1.5-0.4-3-1.2-4.3-2.2c-3.6-2.7-7.5-4.8-11.5-6.9c-2.3-1.2-4.5-2.6-6.5-4.3s-4.2-3-6.1-4.9
		c-1.2-1.2-2.9-1.9-4.6-2.3c-1.3-0.3-2.2-1.1-2.5-2.2c-0.2-0.9,0.3-1.4,0.6-1.9c-0.2-0.1-0.4-0.2-0.6-0.2c-10.6,0.5-21.1,1-31.7,1.5
		c-0.4,0-0.7,0-1.1,0.1c-4.1,0.5-8.1,1-12.2,1.1c-5.2,0.2-10.3,1.4-15.5,2c-1.5,0.2-2.9,0.3-4.4,0.1c-0.7-0.1-1.5,0-2.2,0.1
		c-4.4,0.5-8.9,1.1-13.4,1.2c-1.5,0-2.9,0.4-4.4,0.6c-4.1,0.4-8.1,0.9-12.2,1.2c-2.1,0.2-4.2,0.2-6.3,0c-5.8-0.5-11.7-0.5-17.5-0.7
		c-5.6-0.2-11.1-0.8-16.5-2.5c-4.1-1.3-8.4-2.2-12.6-3.4c-4.3-1.2-8.5-2.6-12.6-4.4c-1.1-0.5-2.3-1.1-3.5-1.3
		c-5.9-1.1-11.6-2.6-17.6-3c-3.8-0.2-7.7-0.4-11.5,0.3c-3.7,0.7-7.4,0.9-11.1,1.5c-7,1.1-13.8,3.2-20.5,5.2
		c-5.4,1.6-10.8,2.8-16.3,3.8c-1.2,0.2-2.4,0.5-3.6,1c-2.5,1.1-5.2,1.7-7.8,2.4c-7.6,1.8-15.4,2.6-23.2,3.6
		c-4.1,0.5-8.2,0.6-12.3,0.7c-6.1,0.1-12.2,0.4-18.3,0.5c-5.6,0.1-11.2,0.3-16.8,0.3c-1.6,0-3.2-0.2-4.8-0.4
		c-0.6-0.1-1.2-0.3-1.4-1.1c0.1-0.6,0.5-0.9,1-0.9c0.9-0.1,1.7-0.1,2.6,0c3.6,0.3,7.2-0.1,10.8-0.3c0.4,0,0.7-0.2,1.1-0.4
		c0.8-2,0.8-4.1,0.8-6.2c0.1-4-0.4-7.9-1-11.9c-1.5-11.1-4-22-7-32.8c-2-7.1-5-13.8-8.1-20.4c-0.7-1.5-1.3-3-2-4.4
		c-0.2-0.5-0.6-1.1-0.8-1.6c-5.3,0.1-10.3,0.8-15.3,1.4c-3.4,0.4-6.9,0.8-10.4,1.2c-1.1,0.1-2.2,0.2-3.3,0.4
		c-2.5,0.4-4.9,0.7-7.4-0.2c-0.6-0.2-1.2-0.2-1.8,0.2c0.2,1.4,1.3,2,2.2,2.9c2.7,2.7,5.4,5.5,7.7,8.6c2,2.6,3.8,5.3,5,8.3
		c1.9,4.6,3.7,9.2,5.5,13.9c0.5,1.4,0.5,2.9,0.7,4.3c0.7,4.4,1.6,8.8,0.9,13.3c-0.2,1.4-0.5,2.9-0.8,4.6c-0.9-1-0.6-1.9-0.4-2.6
		c0.6-2.7,0.4-5.4,0-8.1c-0.2-1.1-0.3-2.2-0.4-3.3c-0.3-6.1-2.3-11.6-5.3-16.9c-2.6-4.5-5.2-9.1-8.6-13.1c-1.4-1.6-2.7-3.2-4.2-4.8
		c-3.3-3.5-6.7-7-10-10.5c-1.1-1.2-2.3-2.3-3.5-3.4c-1.3-1.2-2.7-2.1-3.6-3.7c-0.2-0.4-0.7-0.7-1.1-1c-4.3-3.2-8.6-6.4-12.8-9.6
		c-1.9-0.1-3.8-0.2-5.6-0.6c-0.7-0.2-1.5-0.1-2.2,0c-7.5,1.2-14.8,3.3-21.6,6.6c-1.2,0.6-2.4,1.2-3.7,1.8c-0.7,0.3-1.5,0.6-2.1,0.5
		c-2.4-0.5-4.4,0.5-6.4,1.4c-3.2,1.6-6.5,3.2-9.6,5c-5.9,3.4-11.9,6.7-17.5,10.6c-1.8,1.3-3.8,2.4-5.7,3.5c-3.2,1.9-6.4,3.8-9.3,6.2
		c-1,0.9-2.3,1.5-3.4,1.9c0,4.4,1.7,9.1,3.6,12.5C464.1,437.1,466.1,438.7,466.8,441.1L466.8,441.1z M166.9,519.6l0.2,0.1
		L166.9,519.6c-0.6,0,0.1,0.2-0.1-0.2L166.9,519.6z M165.4,517.3c0.1,0.1,0.2,0.2,0.2,0.3C165.6,517.5,165.5,517.4,165.4,517.3
		c-0.2-0.1-0.2-0.4-0.2-0.3C165.2,516.9,165.3,517.1,165.4,517.3z M294.4,539.6c3.5-1.3,6.8-4.1,8.3-7.3
		C299.5,534.5,296.1,536.1,294.4,539.6l-0.1,0.2L294.4,539.6z M425.6,337.6c0.9,0.1,1.7,0.2,2.6,0.4c1.6,0.4,3.1,0.9,4.6,1.5
		c4.6,1.7,9.3,2.7,14.1,3.2c4,0.5,8.2,0.2,12.3-0.3c3.8-0.4,7.7-0.7,11.5-1.2c5.6-0.7,11-1.6,16-4.5c1.7-1,3.6-1.6,5.5-2.4
		c5.8-2.3,11.7-4.1,17.7-5.8c4.9-1.4,9.9-2.5,14.5-4.7c0.3-0.2,0.7-0.3,1-0.4c5.8-1.4,11.5-2.9,17.4-3.8c7.6-1.2,15.1-2.7,22.8-4.7
		c0.6-1.3,1.9-1.7,3.3-1.9c1.5-0.3,3-0.5,4.4-0.9c2.4-0.6,4.6-1.6,6.6-3.4c-3-0.6-5.6,0.2-8.3,0.4c0.1-0.7,0.5-1.1,1-1.2
		c2.5-0.6,5.1-1.2,7.6-1.6c1.4-0.2,2.7-0.4,3.8-1.3c1-1.4,1.8-3,2.8-4.4c1.6-2.4,2.2-5.2,2.5-8.1c0.1-0.7-0.2-1.5-0.5-2.2
		c-0.9-2.2-1.5-4.5-2.1-6.8c-1.4-1.1-2.9-2.2-4.3-3.3c-6.1,2.1-12.1,4.3-18.3,5.6c-4.2,0.9-8.5,1.7-12.8,2.6c-0.2,0-0.4,0.2-0.7,0.3
		c-0.4,0.5-0.5,1.1-1.6,1.6c-3.1,0.2-6.6,0.9-10.2,1.6c-0.7,0.1-1.5,0.1-2.2,0.2c-4.7,0.2-9.4,0.5-14.1,0.7
		c-3.1,0.2-6.2,0.4-9.3,0.5c-4.1,0.2-8.2,0.5-12.3,0c-2.9-0.3-5.7-0.4-8.6-0.2c-7.3,0.5-14.6,0-21.9-0.9c-2.5-0.3-4.9-0.6-7.4-0.8
		c-8-0.7-16.1-0.9-24.2-1c-1.6,0-3.2,0-4.6,0c-3,2.1-3,2.1-5.8,2.3c-0.3-0.7-0.6-1.5-1.8-1.9c-3,1.5-4.6,4.5-6.9,6.7
		c0.2,0.6,0.3,0.9,0.4,1.3s0.3,0.7,0.4,1c1.5,4,1.1,7.8-1.1,11.4c-1,1.6-2.1,3.1-3.1,4.6c-0.6,0.8-1.3,1.5-1.6,2.7
		c0.7,0.8,1.4,1.8,1.6,3.1c0.1,0.6,0.2,1.3,0.8,1.6c1.1,0.7,1.2,1.8,1.5,2.9c1.3,4.1,2.8,8.2,5.8,11.5c-0.4,1.1,0.4,1.9,0.9,2.7
		c4.6,9.2,9.4,18.3,13.7,27.7c2,4.4,4,8.9,5.3,13.5s3,8.9,5,13.2c3.3,7.1,6.3,14.3,8.1,22c0.2,1.1,0.6,2.2,1.9,2.8
		c3.5-4,8.3-6.6,12.7-9.6c1.4-1,2.9-2,4.3-3c7.9-5.6,16.4-10.4,25.3-14.3c7.5-3.3,15.3-6,23.1-8.4c0.8-0.3,1.7-0.6,2.5-0.6
		c1.4,0.1,2.7-0.4,4-0.8c1.2-0.4,2.3-0.7,3.6-0.6c1.9,0.2,3.9-0.4,5.8-0.8c-0.3-0.8-0.9-1.1-1.4-1.4c-2-1.4-4-2.9-6.1-4.3
		c-8.1-5.6-16.4-10.8-25.7-14.3c-3.3-1.2-6.4-2.8-9.2-4.8c-1-0.7-2-1.4-3.2-1.8c-5.2-1.5-10.4-3.3-15.8-4.1
		c-3.8-0.6-7.6-1.2-11.4-1.7c-7.1-1-14-3.3-21.3-3.6c-1.7-0.1-3.4-0.7-5.1-1c-1.7-0.4-3.4-0.8-5.4-1.2c-0.8-0.7-2.1-1.3-3.3-1.8
		C430,340.4,427.8,339.1,425.6,337.6z M216.2,494.9L216.2,494.9c0.9-1.3,2.4-1.7,3.6-2.5c1.8-1.3,3.8-2.4,5.6-3.7
		c2.2-1.6,4.4-3.2,6.6-4.8c0.3-0.2,0.7-0.3,1,0.1c0.1,0.5-0.2,0.9-0.6,1.2c-1.5,1.3-2.8,2.8-4.5,3.9c-4.1,2.6-7.7,5.8-11.3,9.1
		c-0.5,0.5-1.3,0.7-1.3,1.7c1.3,0.3,2.5,1,3.9,0.7c4.3-2.3,9.1-5.8,10.7-8c0.4-0.6,0.9-1.2,0.6-2.1c-0.3-0.1-0.6-0.2-1-0.3l0.1,0.1
		c3.5-3,7.7-5,11.2-8c0.6-0.5,1.6-0.6,2.4,0c0.2,0.1,0.2,0.4,0.3,0.6c-0.5,1-1.6,0.3-2.8,1.1c-2.1,2.6-5.7,3.9-8.9,5.8
		c0,0.9,0,1.8,0,2.6c-2.5,4-6.7,5.8-10.4,8.6c1.2,0.6,2.2,0.9,3.5,0.8c3.2-1.1,6.4-2.4,9.4-4.1c2.3-5.5,6-9.3,11.6-11.5
		c3.6-1.4,7.2-1.7,10.9-1.7c5.7,0.1,11.4,0.8,17,2.1c3.4,0.8,6.8,1.5,9.9,3.2c2.3,1.3,4.6,2.4,7,3.4c0.6,0.2,1.1,0.5,1.7,0.7
		s1.1,1,2,0.5c-0.2-1.2-0.6-2.5-1.6-3.2c-2.7-1.8-3.7-4.6-4.9-7.3c-0.7-1.6-1.5-3.2-1.6-4.9c0-0.6,0-1.3,1-1.3
		c1.9,2.1,1.8,5.3,3.9,7.6c0.1-0.5,0.2-0.9,0.1-1.2c-0.5-3.1-0.2-6.2,0.1-9.3c0.5-5.9,1.9-11.5,5-16.6c0.8-1.3,1.3-2.7,1.7-4.1
		c1.2-3.8,2.8-7.4,5.5-10.5c0.4-0.4,0.9-0.8,0.9-1.5c-0.8-0.7-1.7,0.1-2.7-0.2c1.7-1.5,3.4-2,5.2-1.7c6.1-4.1,9.7-9.6,23.6-23.6
		c0.2-0.2,0.2-0.4,0.3-0.6c-0.1-0.5-0.2-1-0.3-1.6c0.9-1,1.8-2,2.7-3c0.9-1,1.9-2,2.8-3c1-1.1,1.8-2.4,2.7-3.5
		c0.8-1.1,1.7-2.1,2.5-3.2s1.6-2.1,2-4c-1.3,0.8-2.1,1.3-2.9,1.8c-2,1.3-4.1,2.3-6.4,2.8l0.1,0.1c1-1.7,3.1-2.3,4.1-4.3
		c-1-0.1-1.8-0.2-2.5-0.4c-4.3,3-8.2,6.2-11.3,10.4c-2.5,3.4-5.1,6.7-7.7,10c-5.6,7-11,14.1-17.8,20.3c0.1,2-1.3,3-3,3.7
		c-1.6,0.7-3.1,1.6-4.8,2.6c-3.9-0.5-8-0.6-11.4-3.5c-0.9-0.2-1.9-0.4-2.6-0.5c-0.6,0.4-1,0.6-1.5,0.8c-2.9-1.1-5.7-1.9-8.1-3.3
		c-2.1-3.5-2.1-7-1.1-10.6c0.2-0.7,0.3-1.5,0.4-2.2c0.1-3,0.2-6,0.3-8.9c0-1.4-0.3-2.7-1.4-3.7c-1.3-0.3-2.7-0.8-4-0.9
		c-1.1-0.1-2.2,0.2-3.3,0.4c-1.4,0.2-2.7-0.2-3.9-1c-0.9-0.7-1.8-1.3-2.8-1.8c-1.5-0.7-2.8-0.6-4.1,0.2c-0.8,1.4-0.5,2.4,0.2,3.6
		c0.8,1.5,0.9,3-0.5,4.2c-1-0.1-1.4-0.7-1.8-1.3c-0.6-2.9,0.3-6.3-2.1-8.7c-2.3-0.4-4.3,0.1-6.4,0.9c-0.5,1.5-0.7,3.5-3.2,3.6
		c0.2-1,0.4-1.8,0.7-2.6c-0.8-1.7-1-3.5-1.1-5.4c-0.1-1.5-0.5-2.9-1.1-4.3c-0.3-0.7-0.8-1.3-1.9-1.1c-0.6,0.5-1.2,1.3-2,1.9
		c-4.6,3-9.3,5.8-14.5,7.4c-3.3,1-6.6,1-9.8-0.7c-0.8-0.4-1.5-0.8-2.5-1.3c-3.6,2-7.7,2.1-11.8,2.5c-0.6,0.1-1.2,0.2-1.8,0.3
		c-4.6,0.7-8.9,2.3-13.3,3.6c-0.2,0.1-0.4,0.3-0.6,0.4c-0.1,0.7-0.3,1.4-0.4,2c-0.9,0.7-1.7,1.3-2.5,2c0.6,0.7,1.6,1.1,1.2,2.4
		c-3.5,1.5-5.8,4.6-8,7.8c-0.6,0.8-1.1,1.6-1.6,2.5c-3.9,7-6.8,14.3-6.8,23.3c-0.8-2.4-0.5-4.2-0.7-5.8c-0.2-1.7-0.2-3.5,0.2-5.2
		c0.4-1.8,0.8-3.6,1.4-5.4c0.5-1.6,1.2-3.2,1.9-4.8c0.7-1.5,1.4-3,2.5-5.3c-2.9,2.5-4.2,5.2-6.3,7.3c-0.7-0.9,0-1.5,0.3-2.1
		c0.4-0.8,0.9-1.5,1.3-2.3c0.4-0.6,0.8-1.3,1.2-1.9c0.5-0.7,1-1.4,1.6-2.1c0.5-0.6,0.9-1.2,1.4-1.8c0.6-0.7,1.2-1.3,1.7-1.9
		c0.4-0.5,1.2-0.8,1-1.7c-0.3,0.1-0.4,0.1-0.5,0.2c-5.9,4.2-9.2,10-10.3,17c-0.2,1-0.2,2-0.5,2.9c-1,3.9-0.9,7.9-0.3,11.8
		c0.4,2.9,0.9,5.9,1.7,8.8c1.2,4.3,1.3,8.8,2.8,13.1c-0.2,2.3,0.8,4.4,1.6,6.4c2.4,6.1,5.8,11.5,10.1,16.4c0.3,0.3,0.5,0.9,1.3,0.5
		c-2.7-5.1-4.7-10.4-6.3-15.8c-1.7-5.6-3.6-11-4.6-17.1c0.9,0.8,1.1,1.6,1.3,2.4c1.7,4.9,3.3,9.9,5.1,14.8c1.4,4,3,7.9,4.6,11.8
		c0.5,1.1,1.1,2.3,1.7,3.3c0.7,1.1,1.1,2.5,2.3,3.3c1.1-0.2,2.3-0.2,3.4-1c0.1-2.7-0.9-5.4-0.2-8.5c0.4,1.7,0.7,3.1,0.9,4.4
		c0.2,1.3-0.1,2.8,1,3.9c2.4,0.4,9.2,0.4,12.9-0.1c1.2-1.8,2.5-3.7,3.8-5.7c2.4-3.5,4.4-7.2,7.1-10.5l-0.1-0.1
		c0.2,1.6-0.6,2.9-1.3,4.2c-1.9,3.6-3.9,7.2-6.2,10.6c-0.2,0.4-0.7,0.7-0.2,1.4c1-0.1,1.6-0.9,2.3-1.5c0.6-0.6,1.2-1.2,1.8-1.9
		c0.7-0.7,1.3-1.5,1.9-2.3s1.2-1.6,1.8-2.4c0.6-0.8,1.1-1.6,1.7-2.5c0.5-0.7,0.9-1.5,1.4-2.2c0.5-0.9,0.9-1.8,1.3-2.7
		c0.4-0.8,0.3-1.8,1.3-2.4c0.3,1.3-0.5,2.1-0.7,3c-0.2,1.1-0.5,2.2-0.8,3.2c-0.3,0.9-0.6,1.9-1,2.8c-0.4,1-0.9,2-1.4,3
		c-0.4,0.8-0.9,1.6-1.3,2.5c2.7-1.3,4.7-3.4,6.5-5.5c1.9-2.1,3.5-4.4,5.3-6.8c0.7,1.3-0.2,2-0.7,2.8c-0.5,1-1.2,1.9-1.8,2.8
		c-0.5,0.8-1,1.7-1.6,2.5c-0.6,0.9-1.3,1.8-2,2.7c-0.6,0.8-1.3,1.5-2,2.2c-0.7,0.8-1.6,1.4-2,2.5c0.5,0.2,0.9,0.4,1.2,0.4
		c2.2,0.2,4.4,0.3,6.4,0.4c3.8-2.5,3.9-2.6,5-4.4C216.6,495.1,216.4,495,216.2,494.9z M964.9,453.9c2.9-3.8,3.7-8.3,4.1-12.9
		c0.3-3.2-0.7-6.2-4-7.5c-3.5-0.3-6.5,1.1-9.4,2.3c-4.3,1.8-8.8,2.8-13.4,3.1c-2.8,0.2-5.4,0.7-8,1.4c-1.4,0.4-2.9,0.8-4.4,0.8
		c-5.6,0.1-11.2,0.3-16.8,0.5c-1.5,0.1-3-0.1-4.4-0.6c-2.7-1-5.5-1.6-8.3-2c-3-0.4-5.9-0.5-8.9-1.1c-5-1-10-1.9-15.1-2.4
		c-4.7-0.4-9.3-1.6-14.1-1.2c-0.5,0-1,0-1.5-0.1c-3.6-0.4-7.2-0.7-10.7-1.6c-2.5-0.6-5.1-0.8-7.8-0.9c-3.5-0.2-6.9-0.4-10.4-0.8
		c-5.2-0.5-10.4-1.1-15.5-1.9c-2.7-0.4-5.5-0.4-8-1.5c-1.9-0.8-3.8-1.2-5.8-1.3c-4.5-0.3-8.9-1.2-12.8-3.6c-3-1.9-6.2-3.1-9.3-4.6
		c-2.6-1.3-5.1-2.6-7.5-4c-2-1.1-4.2-1.8-6.4-1.7c-3.5,0-7-0.2-10.4,0.4c-2.1,0.4-4.2,0.3-6.3-0.1c-2.4-0.5-4.9-0.6-7.3-1.2
		c-1.4-0.4-3,0-4.3-0.6c-3-1.2-6.1-1.9-9.3-2.1c-1.1-0.1-2.2-0.3-3.3-0.5c-6.5-1.2-12.9-2.4-19.5-3.2c-3.2-0.4-6.4-0.8-9.6-1
		c-6.7-0.5-13.4-0.8-20.1-1.3c-3.6-0.2-7.2-0.7-10.8-0.8c-3.8-0.2-7.7-0.3-11.5-0.7c-3.2-0.3-6.4-0.3-9.7-0.3
		c-3.4,0-6.7,0.3-10.1,0.3c-3.1,0-6.2,0.2-9.3,0.7c-2.1,0.3-4.2,0.5-6.3,0.8c-0.7,0.1-1.5,0.1-2,1c0.2,0.5,0.5,1.1,0.8,1.6
		c1.8,3.1,3.7,6.2,5.4,9.3c3,5.3,5.4,10.9,6.4,17c1.1,6.9,2.2,13.7,2,20.7c-0.1,2.6,0.1,5.3,0.8,7.8c1.3,4.3,1.5,8.8,2,13.2
		c0.3,2.5-0.1,4.9-0.5,7.3c0.9,0.8,1.8,0.5,2.6,0.5c2.6-0.1,5.2-0.2,7.8-0.3c6.8-0.2,13.7-0.5,20.5-0.7c1.1,0,2.2-0.2,3.3-0.4
		c3.1-0.4,6.2-0.7,9.2-1.1c7.1-1,14.3-1.6,21.2-3.9c4.1-1.3,8.2-2.6,12.5-3.3c2.6-0.4,5-1.3,7.5-2.1c9.5-3,19-6,29-6.7
		c2.5-1,5.1-0.6,7.7-0.6c3.7,0,7.4-0.1,11.2,0.3c6.3,0.6,12.5,2.1,18.4,4.5c1.4,0.6,2.8,1,4.2,1.4c8.6,2.5,17.3,4.4,25.9,7.1
		c2.6,0.8,5.3,1.1,8.1,1.1c3.5,0,7,0,10.4,0.3c10.8,0.8,21.6,0.6,32.4-0.7c4.8-0.6,9.6-1.1,14.4-1.7c0.7-0.1,1.5-0.1,2.2,0
		c2.4,0.2,4.7,0,7.1-0.4c6.8-1.1,13.6-1.5,20.4-2c5.3-0.4,10.7-0.6,16-1.1c6.2-0.5,12.4-1.1,18.6-1c2.8,0,5.7-0.2,8.3-0.4
		c1.5-0.6,2.3-1.6,3-2.7c2.5-3.8,5.2-7.5,8.1-11.1c0.2-0.3,0.2-0.7,0.3-1C964.7,454.7,964.9,454.4,964.9,453.9z M639.4,262
		c-2.1,1.5-5.1,1-6.7,3c-0.4,1.4,1.2,1.4,1.1,2.4c-1.3,0.2-2.6,0.5-4.1,0.8c-0.9-0.4-2-0.8-3.1-1.2c-1.2,0.5-2.7,0.4-3.8,1.6
		c1.5,1,3.3,1.8,3.7,3.8c-0.3,0.1-0.5,0.3-0.7,0.4c-3,0.3-5.9,0-8.5-1.8c-0.9-0.6-1.2-0.4-1.9,0.7c0.6,0.6,1.3,1.1,1.9,1.7
		c0.5,0.5,0.9,1.2,1.1,1.9c0.3,0.8,0.1,1.5-0.9,1.6c-3-1.3-5.2-3.7-7.8-5.7c-0.9-0.7-1.9-1.2-3-1.4c-3.7-0.6-7.4-1.1-11.1-1.2
		c-4-0.1-7.9-0.2-11.9-0.3c-0.7,0-1.5-0.3-2.3,0.6c-0.1,1.4-0.2,2.9,0.5,4.8c3,3,5.8,6.7,7.7,11.3c-0.2,1.4,0.1,3,0.9,4.6
		c0.7,1.4,0.9,2.9,0.6,4.4c-1.1,5-2.2,10-5.7,13.9c-2.5,1.6-5.1,3.1-7.6,4.7c-2.7,1.7-5.9,1.7-8.8,2.8c-1,1.7-1.9,3.3-2.8,4.7
		c0.1,1.6,0.5,2.9,1.7,3.8c2.2,1.6,4.1,3.6,6.5,5c1.4,0.8,2.5,2,3.4,3.4c1.5,2.3,3,4.5,4.8,6.6c1.5,1.8,3.1,3.6,5.1,4.8
		c1.7,1.1,3.1,2.4,4.2,4.2c1.8,3.2,4.4,6,5.9,9.4c0.1,0.2,0.4,0.3,0.8,0.5c1.3-0.3,2.4-1.1,3.4-1.9c4.6-3.6,9.1-7.3,13-11.7
		c1.2-1.4,2.7-2.5,3.2-4.5c0.1-0.5,0.7-1,1.1-1.4c1.5-1.5,3-3,4.6-4.3c2-1.6,3.9-3.4,4.6-6c0.1-2.3,0.1-4.5,0.6-6.7
		c0.3-1.5,0.6-2.9,1.6-4.1c2.6-3.1,5.1-6.4,8.9-8.4c1.1-0.6,2.1-1.3,2.8-2.4c3-5,6.9-9.1,11.1-12.9c3.2-2.9,5.3-6.6,6-10.9
		c0.4-2.4,1.3-4.5,2.4-6.6c3.6-7.3,5.9-15,7.8-22.8c0.2-0.9,0.4-1.7,0-2.6c-2.8-3.4-5.3-4.8-10.9-6c-2.2,2.8-5.3,4.7-8.2,6.7
		c-2,1.3-3.9,2.7-5.4,4.5c-1.1,1.2-2.4,2.1-3.8,2.9c-1,0.5-2,1.1-3,1.6C638.9,260.9,639.1,261.4,639.4,262z M950.9,472.9
		c0,1,0.5,1.6,1.2,1.9c2.6,1.1,4.6,2.9,6.7,4.6c3.6,2.7,7.4,5,11.4,7.1c3.1,1.6,6.2,3.2,8.9,5.4c1.9,1.5,4,2.4,6.3,3.1
		c2.1,0.6,4.2,1.5,6.1,2.8c1.3,0.9,2.8,1.5,4.2,2.3c0.5-1.2,1.1-2.1,2-2.9c2.2-1.8,3.9-4.1,5.6-6.5c3.2-4.7,6.4-9.5,9.7-14.1
		c1.9-2.7,3.2-5.6,2.5-9c-0.1-0.7-0.1-1.5-0.2-2.2c-0.4-3.2,0.2-6.1,1.6-9.1c1-0.4,2-0.9,2.7-1.9c1.3-2.1,3.2-3.4,5.3-4.6
		c0.7-0.3,1.3-0.7,1.8-1.5c0.9-5.1,2.8-10.1,4.2-15.3c0.9-3,1.9-5.9,3.3-8.7c1.8-3.5,2.8-7.1,3.9-10.8c0.6-2.2,1-4.3,0.7-6.6
		c-0.2-1.2-0.1-2.5,0-3.7c0.5-4.2,1.1-8.4,1.7-12.5c0.2-1.4,0.4-2.7,0.1-4.1c-3.6-2.4-7.5-2-11.6-1.9c-2.2,3.4-4.8,6.4-7.2,9.5
		c-1.4,1.9-3.2,3.5-4.4,5.5c-0.1,0.2,0,0.5,0,0.7c0.5,0.3,1.3,0.1,1.5,1.1c-1.1,1.7-2.6,3.1-4.4,4.2c-1,0.6-1.9,1.2-2.8,1.9
		c-0.2,0.1-0.2,0.4-0.3,0.6c0.1,0.7,1.2,0.9,0.9,1.8c-1.4,1.2-2.9-0.1-4.2,0.3c-0.8,0.5-1.5,0.9-1.7,1.9c0.3,0.6,0.7,1.3,1,2
		c-2.3,1.8-4.5,0.3-6.5-0.3c-0.3,0.3-0.5,0.5-0.8,0.8c0.8,1,1.9,1.9,2.3,3.2c0.2,0.5,0.3,0.9-0.3,1.4c-2.6-0.5-4.9-2.1-7-3.7
		c-1.4,0.5-2.8,0.9-4,1.3c-0.1,0-0.3,0.1-0.3,0.2c-0.3,0.4,0.5,0.1-0.2,0.5c2.9,1,4.2,3.2,5.2,5.7c0.3,0.6,0.2,1.2-0.8,1.6
		c-2.8-2.3-6.6-3-9.4-5.4c-1.9,0.5-1.9,0.5-2.7,1.5c4.5,2.3,7.8,5.5,8.6,8.2c-4.9-1.5-8.6-4.9-13-7.1c-0.7,0-1.3,0-1.9,0
		c-2.9,0.2-5.7,0.4-8.5-0.6c-0.8-0.3-1.7-0.1-2.6,0c-1.6,0.2-3.2,0.6-4.7,1c-0.7,0.2-1.5,0.2-1.9,1.3c0.4,1.9,1.6,3.4,3,4.8
		c2.1,0.1,3.3,2.1,5.5,2c0.4,1.5,1.5,2.3,2.4,3.3c1.4,1.5,2,3.4,1.9,5.5c-0.2,3-0.5,5.9-1.4,8.8c-1.2,4.2-3,8.2-6.3,11.2
		c-0.9,0.8-1.8,1.7-2.7,2.6c-0.7,0.7-1.3,1.5-1.7,2.4c-0.7,1.5-1.4,2.9-2.3,4.3c-1.2,2-2.9,3.4-5.1,4.1
		C951.7,472.6,951.3,472.8,950.9,472.9z M404.5,398.4c-1.9-2-3.7-3.7-5.4-5.5c-2.3-2.4-5.3-3.2-8.3-3.8c-5.6-1.1-11.2-2.1-17-1.5
		c-3.8,0.4-7.6,1.1-11.4,2c-4.1,1-7.5,3.2-10.5,6.1c-0.4,0.4-0.8,0.9-1.3,1.3c-0.2,0.1-0.5,0.1-0.7,0.1c-0.7-0.2-1-0.7-1-1.5
		c0.3-1.6,1.4-2.8,2.8-3.7c2.7-1.7,5.5-3.5,8.6-4.5c6.8-2.1,13.6-4.1,20.8-3.6c0.2,0,0.5-0.1,0.7-0.2c0-0.1,0-0.2,0-0.3
		c-0.1-0.2-0.3-0.4-0.5-0.5c-3.6-2-7.3-2.9-11.4-2.2c-2.4,0.4-4.9,0.6-7.4,1c-2.8,0.5-5.6,0.8-8.1,2.1c-0.3,0.7-0.5,1.2-0.8,2
		c-2.6,0.4-4.6,2.1-6.6,3.7c-1.8,1.4-3.6,2.6-5.4,4c-0.4,0.3-1.1,0.5-0.8,1.3c1.2,0.1,2.5,0.1,3.7,0.2c0.9,0.1,1.7,0.4,2.1,1.4
		c0,6-3.7,10-7.9,13.5c0.1,0.7,0.2,1.3,0.3,1.8c-0.2,0.3-0.2,0.6-0.4,0.8c-7.4,7.9-14.3,16.2-23,22.8c-0.5,0.4-1.2,0.9-0.3,1.7
		c1.5-1,2.7-2.4,4.3-2.9c1.9-0.6,3.2-1.8,4.7-2.9c6.4-4.6,13.4-7.4,21.2-8.7c3.5-0.6,6.9-0.4,10.3,0.6c2.7,0.8,4.9,2.4,7.1,4
		c2.1,1.5,4,3.2,5.9,4.8c3.3-1,6.3-2,9.5-2.7c6.3-1.6,12.7-2.2,19.1-3c2.7-0.3,5.4-0.5,7.8-1.7c0.2-0.5,0.5-0.8,0.5-1.2
		c0-0.7,0.1-1.5-0.1-2.2c-0.9-5.3-0.9-10.6-0.9-16C404.5,403,404.5,400.8,404.5,398.4z M359.5,331.8c0.8,1.2,1.5,2.1,2,3
		c5.3,9.7,11.9,18.6,17.9,27.9c1.8,2.7,3.7,5.3,5.8,7.6c0.7,0.2,1.3,0.4,1.9,0.5c1.8,3.3,4.4,5.8,7,8.3c2.6,2.4,5.2,5,7.8,7.5
		c0.4,0.3,0.6,0.8,1.2,0.8c0.6-0.5,0.3-1.1,0.2-1.7c-0.3-1.6-0.7-3.1-1-4.7c-1.1-5.3-2.3-10.6-3-16.1c-0.9-7.1-2.5-14.2-5.4-20.8
		c-2.4-5.7-5.3-11.2-6.4-17.2c-0.6-0.3-0.9-0.5-1.2-0.7c-4.2-2.3-8.1-4.8-10.5-9.2c-0.6-1.1-1.3-2-1.8-3.2c-0.6-1.7-1.6-3.1-2.9-4.3
		c-2-1.7-3.9-3.3-5.4-5.8c-2.2,2-4.1,3.8-6.1,5.6c0.5,1.4,0.3,2.5,0.1,3.8c-0.4,2.4-0.8,4.9-0.6,7.4
		C359.1,324.3,359.3,328,359.5,331.8z M459.6,454.5c-0.3,0.2-0.6,0.4-0.9,0.6c-3.5,3.3-7.5,5.8-11.6,8c-1,0.5-2,1-2.9,1.7
		c-4.6,3.4-9.7,6-14.8,8.5c-0.8,0.4-1.7,0.5-2.2,1.5c1.4,7.4,1.3,15.2,2.5,22.8c6.8,0.8,13.3,0,19.9,0.3c6.5,0.3,13.1,0.6,19.7,1.2
		c-0.2-1.5-1.1-2.5-1.7-3.5c-2.4-4.1-4.4-8.3-6.2-12.7s-2.6-9.1-2.9-13.8c-0.2-4.4,0.1-8.7,1.2-12.9
		C459.8,455.7,460.1,455.1,459.6,454.5z M424.7,476.6c-1-0.1-1.6,0.4-2.2,0.7c-2.7,1.2-5.4,2.5-8.2,3.6c-9.1,3.9-18.3,7.8-27.4,11.7
		c-0.7,0.3-1.4,0.5-1.7,1.2c0.3,1.3,0.6,2.5,0.8,3.7c0.3,2.1-1,4-1.1,6c0.5,0.6,1,0.6,1.5,0.6c1.2-0.1,2.5-0.2,3.7-0.2
		c4.6-0.2,9.2-0.4,13.6-2c0.7-0.2,1.5-0.2,2.2-0.4c6.1-1,12.3-2,18.4-3c0.7-0.1,1.5-0.2,2.1-1.2
		C425.3,490.7,426.1,483.5,424.7,476.6z M195.5,525.7c0.4-0.1,0.5-0.2,0.6-0.1c0.4,0.1,0.7,0.2,1,0.4c6.9,2.6,14.1,3.9,21.5,4.2
		c7.2,0.2,14.4-0.5,21.6-1.1c1.9-0.2,3.7-0.4,5.5-0.7c6.8-1.4,13.6-2.9,20.4-4.5c2.3-0.5,4.5-1.3,6.7-2.2c0.9-0.3,1.9-0.6,2.4-1.6
		c-0.3-0.5-0.8-0.6-1.3-0.6c-1.2-0.1-2.5-0.2-3.7-0.2c-3,0-6,0.2-8.9,0.1c-6.1-0.1-12.2-0.3-18.3-0.4c-2.7-0.1-5.5-0.1-8.2-0.3
		c-8.4-0.8-16.8-1.7-25.2-2.5c-1.2-0.1-2.5-0.6-3.7,0.1c-1.1,0.6-2.2,0.5-3.2,0.3c-4.6-1.1-9.3-1.4-14-1.9c-5-0.6-9.8-1.7-14.2-4.1
		c-0.2-0.1-0.5-0.1-0.8-0.1c-0.2,0.3-0.4,0.5-0.5,0.8c1.9,1.9,2.5,2.3,5.4,3.2c5.1,1.6,10.4,2.3,15.7,2.9
		c10.1,1.2,20.3,1.9,30.5,2.4c2.9,0.1,5.7,0.3,8.6,0.5c5.4,0.3,10.7-0.3,16-0.7c1.3-0.1,2.7-0.5,4,0.2c0.3,0.5,0.9,0.9,0.4,1.7
		c-0.8,0.4-1.6,0.3-2.5,0.4c-2.4,0.1-4.7,0.2-7.1,0.4c-5.4,0.5-10.8,1.3-16.3,1.7c-11.5,0.9-23.1,1.3-34.6,1.2c-3.6,0-7.2,0-10.8,0
		c0.5,0.9,1.6,1.1,2.5,1.4c6.4,2.6,13.1,3.9,19.8,5c5,0.9,10.1,1.1,15.2,1.9c5.2,0.8,9.8-0.6,15-2.3c-0.9-0.2-1.2-0.3-1.6-0.3
		c-0.9,0-1.7,0-2.6,0.1c-7.1,0.9-14.1,0.8-21.2-0.3c-4.4-0.6-8.8-1.8-12.9-3.6C196,526.9,195.5,526.7,195.5,525.7z M365.6,433
		c-2.5-1.9-4.6-3.4-6.7-5c-3.2-0.8-6.5-1.7-9.8-2.2c-3-0.5-6-0.5-8.8,0.4c-4.5,1.4-8.7,3.5-12.8,5.9c-0.4,0.2-0.9,0.5-0.5,1.2
		c1.5,0.2,3.2,0.1,4.7,0.6c2.9,1,5.8,1.2,8.7,1.5c2.3,0.2,4.8,0.2,6.8,1.5c2,1.4,4.1,1.5,6.4,1.3c1.5-1.8,3.6-2.2,5.6-2.9
		C361.2,434.8,363.3,434.3,365.6,433z M177.5,522.9c5.5,0.2,11,0.4,16.4,0.4c5.5,0,10.9,0,16.4-0.2c5.3-0.2,10.6-0.6,15.9-0.9
		c-7.2-0.5-14.4-0.5-21.6-1c-7.1-0.5-14.1-1.3-21-2.6c-4.2-0.8-8.2-1.9-11.7-4.5c-0.2-0.1-0.5-0.1-0.7-0.1c-0.6,0.3-0.8,1.3-2,0.9
		c0-2.5,1.5-4.2,2.9-6.2c-1-1.8-0.6-4.1-2-6c-0.3-0.1-0.6-0.2-1-0.2c-0.2,0-0.4,0.2-0.7,0.4c-2.1,6.5-2,12.6,3.3,18
		C174,520.6,175.6,522.1,177.5,522.9z M222.1,512.7c7.9,0.3,15.5,0.8,23-1c-6.5-0.4-12.7-1.9-18.5-4.9c-3.5,0.2-6.6-1.1-10.5-1.7
		c1.4-0.7,2.3-1.1,3.3-1.6c-1.5-0.7-2.6,0.1-4,0.4c-1-0.6-2.2-0.9-3.4-0.7c-3.1,0.4-6.2-0.1-9.3,0c-1.2,0-2.5,0.1-3.7,0.1
		c3.9,1.2,7.9,1.9,11.7,3.3s7.7,2.6,11.1,4.6C222,511.8,222.1,512.1,222.1,512.7z M289.3,525.1c0.7,1.1,1.3,2,1.8,3
		c0.6,1.1,1,2.3,1.2,3.5c0.2,1,0,2.1,1,3.2c0.3-1.5,0.6-2.7,0.8-3.9c0.4-3.2,0.4-6.5-0.8-9.5c-1.5-4.1-4.2-7-9-6.9
		c-0.5,0-1-0.2-1.5-0.3c-2.9-0.5-5.7,0.1-8.4,0.8c-0.6,0.2-1.2,0.4-1.1,1.3c1.1,0.5,2.4,0.2,3.6,0.8c2.6,1.5,5.2,2.9,7.7,4.5
		c1.4,0.9,2.7,1.7,4.4,1.8c1.7,0.1,3.1,1,4.2,2.1c0.4,0.4,0.6,0.8,0,1.1C292.1,526,291.4,524.4,289.3,525.1z M278.1,521.1
		c-2.9,3-6.9,4.4-10.9,5.6c-2.5,0.7-5,1.3-7.6,1.9c-8.1,1.8-16.3,3.1-24.5,4.4c-1.1,0.2-2.3,0.3-3.4,1.2c6.4,0.3,12.6,0.2,18.8,0.2
		c3.3,0,6.3-0.8,9.2-2.4c6.5-3.8,13.4-6.4,20.7-8.1c0.6-0.1,1.2-0.3,1.6-0.8c-0.2-0.7-0.8-0.9-1.3-1.1
		C280,521.6,279.3,521,278.1,521.1z M219.9,511.9c-3-1.9-6.6-3.3-12.7-4.8c-7.8-2-10.9-2.4-13.5-2
		C201,508.9,214.8,512.5,219.9,511.9z M251.2,516.4c5.4,0.2,10.8,0.4,16.4,0.6c1-1.1,2.5-1.2,4-1.2c0.1,0,0.3-0.3,0.5-0.5
		c-0.2-0.3-0.4-0.6-0.7-1C264.5,514.3,257.8,514.6,251.2,516.4z M429,290.2c0.6,0.5,1.1,0.9,2.1,0.6c2-1.8,1.8-4,1-6.3
		c-0.9-0.6-1.6-0.6-2.3-0.2C428.5,286.9,428.5,286.9,429,290.2z M300.7,499.2c-3-4.5-4.8-9-5.9-14.1c-0.1,6.2,0.4,8.4,2.9,13
		C298.4,498.6,299.1,499.1,300.7,499.2z M173.6,504.8c-0.1,0.9-0.1,1.5,0.9,1.8c1.9-1.2,4.1-2.2,6.4-3.2
		C178.4,503.2,175.9,502.9,173.6,504.8z M296.9,529.9c1.2-4.6,1-5.9-1.2-9C296.9,524.1,296.7,526.6,296.9,529.9z"/>
	<path d="M411.4,277.1c0.2,0.4,0.4,0.9,0.6,1.5c-0.3,1.4-1.3,2.5-2.1,3.7c-0.8,1.3-0.4,2.9-0.6,4.2c-1,0.3-1.3-0.2-1.5-0.8
		c-0.5-1.3,0-2.7-0.1-4l0.2-0.1l-0.1,0.2c-2,1.1-2.3,3.4-3.5,5.1c-2.3,1.5-4.2-0.2-6.3-0.8c-0.8-1.5-1.8-2.9-2.9-4.1
		c-0.4-2.1,1-3.7,1-5.1c0.6-1.1,1.3-0.5,2-0.8c0.2-0.3,0.4-0.7,0.6-1.2c1.2-3.3,1.2-3.3,3.6-5.6c1.3-0.4,2.6-0.4,4.2,0
		c2.5,2.4,3.8,5.5,3.1,9.2c0.3,0.2,0.5,0.4,0.8,0.6C410.8,278.4,411.2,277.8,411.4,277.1L411.4,277.1z M401.5,272.2
		c0.3,3-1.3,4.7-3.6,6c-0.4,1.1-0.7,2.1-1,3c0.4,1.6,1.4,2.5,2.4,3.4c1.4,0.6,2.7,1.2,4.1,1.2c0.9-0.7-0.1-1.5,0.3-2.1
		c1.3-2.6,3.7-4.3,4.7-7.1c-1-1.8-1.3-3.8-2.8-5.3C404.2,270.9,402.9,271.1,401.5,272.2z"/>
	<path d="M382.5,283.9c0.1,0.7,0.1,1.5,0.3,2.2c0.6,1.9,0.2,3.7-0.5,5.4c-1.7,4.2-2,4.5-7.5,6.5c-1.9-0.8-3.2-2.4-4.9-3.9
		c0-1.2,0-2.4,0-3.6l-0.1,0.1c0.7,0.7,0.4,2.3,2,2.5c0.9-0.1,1.4-0.8,1.5-1.7c0.1-0.8,0.2-1.7,0.2-2.6c-0.1-2.3,1-3.7,2.8-4.6
		c2.1-0.3,3.6,0.8,4.9,2c1.1-0.5,0.1-2.1,1.5-2.3H382.5z M380.3,290.5c-2.2,1.1-4.4,2.1-6.6,3.2c-0.2,0.1-0.2,0.4-0.3,0.6
		c0.1,0.8,0.8,1.2,1.5,1.7c0.6-0.1,1.3-0.1,2-0.2C378.5,294.3,380.1,293.1,380.3,290.5z M378.8,288.1c-0.4-1-0.9-1.7-2.1-1.9
		c-0.9,1-1.9,1.9-1.3,3.7C376.7,289.6,377.7,289.1,378.8,288.1z"/>
	<path d="M609.1,489c0,1.2-0.8,2.1-1.6,2.8c-7.5,7.6-16.3,11.9-27.3,11c-1.2-0.1-2.5-0.2-3.7-0.3c-0.6-0.1-1.2-0.3-1.3-1.1
		c0.2-0.6,0.7-0.6,1.2-0.6c2.1-0.1,4.2-0.3,6.3-0.4c7.6-0.2,14.2-3.1,20.4-7.2C605.2,491.8,607,490.1,609.1,489L609.1,489z"/>
	<path d="M382.6,284c-0.7-0.5-1.5-1-2-1.7c-0.5-0.5-1-1.4-0.9-2c0.7-2.3-0.4-4.7,0.6-6.9c0.1-0.3,0.4-0.6,0.5-0.9
		c1-0.8,2.2-0.7,3.2-0.9c2.9-0.6,3.2-0.4,5.4,2.1c1-0.2,2.1-0.5,3.2-0.5c0.7,0,1.4,0.4,2.1,0.7c0.4,0.2,0.9,0.5,0.9,1.3
		c-1.3,0.2-2.6-0.5-3.8,0.2c-0.3,0.2-0.6,0.4-0.9,0.6c-0.6,1.1,0.1,2.2-0.1,3.3c-0.2,1.3-0.5,2.4-1.5,3.3c-1.1,1-2.1,2-3.1,2.9
		C384.4,286,383.9,284.1,382.6,284L382.6,284z M385.8,284c0.9-1,1.7-1.9,2.5-2.9c0.6-0.8,1.1-1.8,0.8-2.7c-0.5-2-1-4-2.7-5.5
		c-1.5,0.3-2.9,0.6-4.4,1c-0.3,2.8-0.9,5.4,0.3,8.1C383.6,282.3,384.8,282.9,385.8,284z"/>
	<path d="M476.5,453.1c-0.2,0.2-0.3,0.4-0.6,0.7c1.7,2.8,4.1,5.1,6.3,7.5c2.2,2.5,4.6,4.9,7,7.2s5,4.3,7.3,6.7
		c-0.3,0.7-0.7,0.6-1,0.4c-3.8-3.1-7.7-6.2-11.1-9.9c-5.2-5.7-10-11.6-14.5-17.9c-1-1.3-1.2-2.9-2-4.1c0.5-0.5,0.8-0.4,1.4,0
		C470.7,447.4,473.3,450.5,476.5,453.1L476.5,453.1z"/>
	<path d="M614.4,477.8c0-0.2,0-0.5-0.1-0.7c-1.4-3.7-1.8-7.7-2.5-11.5s-1.9-7.4-3.1-11c-0.4-1.2-1.1-2.3-0.8-3.6h-0.1
		c3.2,5.1,4.9,10.7,5.9,16.5c0.5,2.6,0.5,5.4,1.3,8C615.2,476.2,615.3,477.2,614.4,477.8L614.4,477.8z"/>
	<path d="M332.4,440.9c0.4-0.4,0.6-0.6,0.8-0.9c4.5,0.8,12.5,4.3,15.7,7c-2.3,0-3.8-1.3-5.6-1.8c-1.9-0.6-3.7-1.2-5.6-1.9
		C336,442.6,333.9,442.4,332.4,440.9z"/>
	<path d="M428.1,436.6c-0.9,0.2-1.3,0-1.7-0.5c0-0.3-0.1-0.7,0-1c1-2.7,2.1-5.4,2.7-8.7C430.4,432.7,430.2,433.8,428.1,436.6z"/>
	<path d="M472.7,463.6c-0.2-0.1-0.5-0.2-0.6-0.4c-2.2-3.8-4-7.7-5.3-11.9c-0.1-0.2,0.1-0.5,0.2-0.8c0.3,0.2,0.7,0.4,0.8,0.7
		c1.6,3.5,3.1,7,4.6,10.6C472.7,462.4,472.6,463,472.7,463.6L472.7,463.6z"/>
	<path d="M610,488.3c0-0.2-0.1-0.6,0-0.7c2.2-2.7,3.1-6,3.9-9.3c0.1-0.2,0.3-0.4,0.5-0.5l-0.1-0.1c0.3,3.5,0.1,7-2.1,9.7
		C611.4,488.1,610.7,488.1,610,488.3L610,488.3z"/>
	<path d="M607.4,459.2c-1.6-2.1-4.2-7.6-6.1-12.8C603.6,448.9,607,455.9,607.4,459.2z"/>
	<path d="M417.5,286.8c-0.1,0.5-0.1,1-0.2,1.5c-0.1,0.4-0.2,0.7-0.4,1c-1.4,2.1-6,2-7.4-0.1c-0.2-0.2,0-0.7,0-1
		c1-0.4,1.2,0.6,1.8,0.8c0.7,0.2,1.4,0.3,2.2,0.4c0.7,0,1.5-0.1,1.7-0.1C416.7,288.6,416.6,287.3,417.5,286.8L417.5,286.8z"/>
	<path d="M412.4,329.3c-0.2-0.3-0.6-0.5-0.7-0.8c-0.8-2.2-1.5-4.5-2.6-6.3c0.4-1.1,1.1-1,1.5-0.5c1,1,1.4,2.3,1.6,3.7
		C412.5,326.7,412.5,328,412.4,329.3L412.4,329.3z"/>
	<path d="M441.8,440c-1.7-1.2-0.6-2.4-0.5-3.5c0.1-1.2,0.2-2.4,0.4-3.6c0.7,0,0.8,0.4,0.9,0.9c0.1,1.5,0.3,2.9,0.4,4.4
		C442.9,438.8,442.9,438.8,441.8,440z"/>
	<path d="M429,420.2c1.3,1.6,2,2.8,1.1,4.3C428.7,423,428.7,423,429,420.2z"/>
	<path d="M393,284.7c-0.1-1.1-1.1-2.2-0.3-3.4c0.9-0.2,1.2,0.3,1.5,0.9C394.3,283.3,393.7,284,393,284.7L393,284.7z"/>
	<path d="M332.5,507.6c0.1-0.3,0.3-0.7,0.5-1.2c0.8-0.2,1.8-0.5,2.6-0.7c0.4,0.3,0.6,0.5,0.5,1.1c-1.1,0.8-2.4,0.8-3.8,0.7
		L332.5,507.6z"/>
	<path d="M360.1,492.7c-0.5,1.5-1.3,2.8-3.3,3C358,493.7,358,493.7,360.1,492.7L360.1,492.7z"/>
	<path d="M353.4,450.5c-2.3-0.7-2.3-0.7-2.9-1.8C351.9,448.9,351.9,448.9,353.4,450.5z"/>
	<path d="M523.9,452.3c-0.3-1.4-0.2-2.8,0-4.3C523.9,449.5,523.9,450.9,523.9,452.3z"/>
	<path d="M481.7,456.9c1.4,0.4,2.9,0.7,3.6,2.3l0.1-0.1C483.9,458.8,482.5,458.4,481.7,456.9L481.7,456.9z"/>
	<path d="M503.3,408.4c-1.3-0.9-2.1-2.1-2.2-3.7l-0.1,0.1C502.3,405.7,503,406.9,503.3,408.4L503.3,408.4z"/>
	<path d="M584.4,489.9c-0.2-1,0.4-1.5,1.2-1.9C585.9,489.1,584.8,489.3,584.4,489.9z"/>
	<path d="M414.7,336.5c0.9,1.3,0.9,1.3,0.9,3C414.9,338.6,414.1,337.9,414.7,336.5z"/>
	<path d="M377.4,298.9c1.2,0.3,2,0.8,2.5,1.7C378.4,300.3,378.4,300.3,377.4,298.9z"/>
	<path d="M404.1,290.1c0.6,0.9,0.2,1.3-0.4,1.7C403.1,291.2,403.2,290.7,404.1,290.1z"/>
	<path d="M393.3,290.2c-0.7-0.5-0.9-1.1-0.5-1.8C393.8,288.6,393.8,288.6,393.3,290.2z"/>
	<path d="M522.6,459.1c0.1-1,0.2-1.9,0.3-2.9C523.2,457.2,523.7,458.3,522.6,459.1L522.6,459.1z"/>
	<path d="M592.8,474.1c-0.2-1,0.3-1.8,1-2.6C594,472.9,594,472.9,592.8,474.1L592.8,474.1z"/>
	<path d="M510.8,418.8c-1.1-0.3-1.5-1.1-1.5-2.2l-0.1,0.1C510.1,417.2,510.5,417.9,510.8,418.8L510.8,418.8z"/>
	<path d="M477.1,454c1,0.1,1.8,0.5,2.3,1.4l0.1-0.1C478.4,455.4,477.7,454.8,477.1,454L477.1,454z"/>
	<path d="M506.9,413.8c1,0.4,1.6,1.1,1.5,2.2l0.1-0.1C507.6,415.4,507.2,414.6,506.9,413.8L506.9,413.8z"/>
	<path d="M507,413.7c-0.9-0.5-1.4-1.2-1.5-2.2l-0.1,0.1C506.5,411.9,507,412.6,507,413.7L507,413.7z"/>
	<path d="M522.6,459c0,1.1,0.2,2.2-0.7,3l0.1,0.1C522.1,461.1,521.9,460,522.6,459L522.6,459z"/>
	<path d="M505.5,411.4c-0.9-0.5-1.5-1.2-1.4-2.3l-0.1,0.1C505,409.6,505.5,410.4,505.5,411.4L505.5,411.4z"/>
	<path d="M489.1,481.5c-0.8-0.5-1.4-1.2-1.4-2.3l-0.1,0.1C488.5,479.8,489.1,480.5,489.1,481.5L489.1,481.5z"/>
	<path d="M523.1,444.2c0,0.5,0,1,0,1.6C522.8,445.2,522.7,444.7,523.1,444.2z"/>
	<path d="M380.3,298.1c-0.2-0.6-0.1-1.1,0.7-1.2C381.1,297.7,380.9,298,380.3,298.1L380.3,298.1z"/>
	<path d="M418.2,342.5c-0.4-0.1-0.5-0.4-0.3-0.8C418.2,341.9,418.6,342.1,418.2,342.5z"/>
	<path d="M472.7,463.7c0.9,0.3,1,0.9,0.4,1.6C472.7,464.7,472.7,464.2,472.7,463.7L472.7,463.7z"/>
	<path d="M412.3,329.4c0.6,0.5,0.8,1,0.4,1.8C412.1,330.6,412.4,329.9,412.3,329.4L412.3,329.4z"/>
	<path d="M366.5,294.1c0.3,0.6,0.1,0.9-0.5,0.9c-0.1,0-0.5-0.2-0.5-0.3C365.7,294.3,366,294,366.5,294.1z"/>
	<path d="M394.8,297.8c0.4,0.4,0.5,0.8,0,1.3C394.4,298.7,394.4,298.3,394.8,297.8z"/>
	<path d="M521.9,462.1c-0.1,0.3-0.1,0.6-0.2,1C521.3,462.5,521.7,462.3,521.9,462.1L521.9,462.1z"/>
	<path d="M466.8,441.2c0.1,0.3,0.2,0.5,0.1,0.3C466.9,441.7,466.9,441.4,466.8,441.2L466.8,441.2z"/>
	<path d="M501.1,404.7c-0.8-0.3-0.8-0.9-0.7-1.6l-0.1,0.1C500.9,403.6,501.1,404.1,501.1,404.7L501.1,404.7z"/>
	<path d="M480.9,469.6c0.2,0.5,0.4,1,0.6,1.5l0.1-0.1C481.4,470.5,481.2,470,480.9,469.6L480.9,469.6z"/>
	<path d="M394.1,293.1c0.3,0.3,0.3,0.5,0.1,0.8H394C393.7,293.6,393.8,293.3,394.1,293.1z"/>
	<path d="M483.1,473.3c-0.6-0.3-0.5-0.9-0.6-1.5l-0.1,0.1C482.8,472.3,483,472.8,483.1,473.3L483.1,473.3z"/>
	<path d="M403.8,299.2c0,0.2,0,0.4,0,0.6C403.3,299.7,403.7,299.4,403.8,299.2z"/>
	<path d="M483.9,474.1c0.6,0.4,0.6,0.9,0.6,1.6l0.1-0.1C484.2,475.1,483.9,474.6,483.9,474.1L483.9,474.1z"/>
	<path d="M592.1,475.6c-0.1-0.6-0.3-1.3,0.7-1.5l-0.1-0.1C592.9,474.7,592.6,475.2,592.1,475.6L592.1,475.6z"/>
	<path d="M421.1,348.9l-0.2,0.1c-0.2-0.3-0.1-0.4,0.1-0.4C421,348.7,421,348.8,421.1,348.9z"/>
	<path d="M486.9,478.5c-0.6-0.4-0.7-0.9-0.6-1.6l-0.1,0.1C486.7,477.4,486.9,478,486.9,478.5L486.9,478.5z"/>
	<path d="M491.3,484.5c-0.5-0.4-0.7-0.9-0.6-1.6l-0.1,0.1C491.2,483.4,491.3,484,491.3,484.5L491.3,484.5z"/>
	<path d="M510.7,418.9c0.6,0.4,0.7,1,0.6,1.6l0.1-0.1C511,419.9,510.7,419.4,510.7,418.9L510.7,418.9z"/>
	<path d="M480.1,456.3c0.7-0.2,1.2,0,1.6,0.6l0.1-0.1C481.1,457,480.5,456.8,480.1,456.3L480.1,456.3z"/>
	<path d="M512.2,421.2c0.2,0.5,0.5,1,0.7,1.4l0.1-0.1C512.4,422.2,512.4,421.6,512.2,421.2L512.2,421.2z"/>
	<polygon points="360.2,457.4 359.9,457.3 360.2,457.2 	"/>
	<path d="M485.3,459.2c0.7-0.2,1.3-0.1,1.5,0.7l0.1-0.1C486.2,459.9,485.7,459.9,485.3,459.2L485.3,459.2z"/>
	<path d="M489.8,461.5c0.4,0,0.7,0.1,1.2,0.1C490.4,462.2,490.2,461.8,489.8,461.5L489.8,461.5z"/>
	<path d="M488.4,460.6c-0.6,0-1.3,0.1-1.5-0.8l-0.1,0.1C487.5,459.9,488.1,459.9,488.4,460.6L488.4,460.6z"/>
	<path d="M488.3,460.7c0.6,0,1.3,0,1.5,0.7l0.1-0.1C489.3,461.3,488.6,461.4,488.3,460.7L488.3,460.7z"/>
	<path d="M490.7,482.9c-0.5,0.1-0.8-0.2-0.8-0.7l-0.1,0.1C490.3,482.4,490.5,482.7,490.7,482.9L490.7,482.9z"/>
	<polygon points="403.7,296.3 403.6,296.1 403.8,296.2 	"/>
	<path d="M492,485.3c-0.2-0.3-0.5-0.5-0.7-0.8l-0.1,0.1C491.5,484.8,491.7,485.1,492,485.3L492,485.3z"/>
	<path d="M492,485.3l0.2,0.1L492,485.3z"/>
	<path d="M380.2,298c-0.1,0.2-0.2,0.3-0.3,0.5C379.5,298,379.9,298.1,380.2,298L380.2,298z"/>
	<path d="M360.2,492.8c0.1-0.1,0.1-0.3,0.1-0.3S360.2,492.6,360.2,492.8L360.2,492.8z"/>
	<polygon points="392.9,284.6 392.8,284.8 393,284.7 	"/>
	<path d="M309.4,525.5c0.1-0.2,0.2-0.3,0.3-0.5C310,525.6,309.6,525.5,309.4,525.5L309.4,525.5z"/>
	<path d="M609.9,488.2c-0.1,0.4-0.3,0.7-0.8,0.7l0.1,0.1C609.2,488.5,609.5,488.2,609.9,488.2L609.9,488.2z"/>
	<path d="M508.4,416c0.5-0.1,0.7,0.2,0.8,0.7l0.1-0.1C508.8,416.7,508.6,416.3,508.4,416L508.4,416z"/>
	<path d="M479.4,455.5c0.5,0.1,0.8,0.3,0.7,0.8l0.1-0.1C479.7,456.1,479.4,455.9,479.4,455.5L479.4,455.5z"/>
	<path d="M511.4,420.5c0.5,0,0.7,0.3,0.9,0.7l0.1-0.1C511.9,421.1,511.6,420.7,511.4,420.5L511.4,420.5z"/>
	<path d="M477.2,453.9c-0.4-0.1-0.7-0.4-0.7-0.9l-0.1,0.1C476.8,453.3,477.1,453.6,477.2,453.9L477.2,453.9z"/>
	<polygon points="512.9,422.6 513.1,422.7 513,422.6 	"/>
	<polygon points="607.8,450.9 607.6,450.8 607.7,451 	"/>
	<path d="M489,481.6c0.5,0,0.7,0.3,0.8,0.7l0.1-0.1C489.4,482.2,489.2,481.9,489,481.6L489,481.6z"/>
	<path d="M487.7,479.3c-0.5,0-0.7-0.3-0.8-0.7l-0.1,0.1C487.3,478.6,487.5,478.9,487.7,479.3L487.7,479.3z"/>
	<path d="M486.2,477c-0.5,0.1-0.7-0.2-0.8-0.6l-0.1,0.1C485.8,476.4,486,476.7,486.2,477L486.2,477z"/>
	<path d="M592.1,475.6C591.8,475.9,592.2,475.5,592.1,475.6L592.1,475.6z"/>
	<path d="M484.5,475.7c0.5,0,0.8,0.3,0.8,0.7l0.1-0.1C485.1,476.1,484.9,475.8,484.5,475.7L484.5,475.7z"/>
	<path d="M484,474c-0.3-0.2-0.6-0.5-0.8-0.7l-0.1,0.1C483.3,473.6,483.6,473.9,484,474L484,474z"/>
	<path d="M482.5,471.8c-0.3-0.3-0.6-0.5-0.8-0.8l-0.1,0.1C481.8,471.4,482.1,471.6,482.5,471.8L482.5,471.8z"/>
	<polygon points="481,469.6 480.8,469.5 480.9,469.6 	"/>
	<path d="M500.4,403.1c-0.1,0-0.3,0-0.3,0C500,402.9,500.1,402.9,500.4,403.1L500.4,403.1z"/>
	<path d="M504.1,409.1c-0.5,0.1-0.8-0.2-0.8-0.7l-0.1,0.1C503.8,408.4,504,408.7,504.1,409.1L504.1,409.1z"/>
	<polygon points="421.1,410.4 420.9,410.5 420.7,410.3 420.9,410.1 	"/>
	<path d="M756.9,420.2c-0.2,0-0.5,0.1-0.7,0c-3.4-2.5-7.2-4.2-11.2-5.6c-1.1-0.4-2.4-0.7-3-1.7c0.1-0.6,0.4-0.8,0.7-0.8
		c3.7,0.9,7.3,2.2,10.4,4.5C754.6,417.7,755.8,418.9,756.9,420.2L756.9,420.2z"/>
	<path d="M965,454c-0.6-0.1-0.8,0.2-0.8,0.7c-1.7,1.1-3.6,1.3-5.8,1.4c0.7-1.7,2-2.1,3.1-2.7c1.1-0.7,1.7-1.8,2.3-2.9
		C964.7,451.6,964.9,452.7,965,454z"/>
	<path d="M853,446.5c-1.5,0.2-2.9,0.4-4.4,0.6c-1.9,0.2-3.8,0.3-5.6-0.3c-0.2-0.8,0.3-0.9,0.6-0.9c2.7,0,5.4,0,8.1,0.1
		C852.2,445.9,852.7,446.1,853,446.5L853,446.5z"/>
	<path d="M779.1,462.1c3.8-0.6,7.2-0.8,11.1-0.6c-1.5,0.9-2.6,0.8-3.7,1c-1.2,0.2-2.4,0.3-3.6,0.4
		C781.7,462.9,780.5,463.3,779.1,462.1z"/>
	<path d="M726.2,465.1c-2.9,1.7-6,2.5-9.5,2.8c0.3-0.4,0.4-0.7,0.6-0.8C720.3,466.5,723.1,465,726.2,465.1L726.2,465.1z"/>
	<path d="M955.9,456.5c0.1,0.8-0.3,1-0.6,1.1c-1.7,0.2-3.3,0.2-5.2-0.2C951.6,455.9,952.5,455.8,955.9,456.5z"/>
	<path d="M758,423.8c1-0.5,1.4,0,1.8,0.5c1,1.4,1,1.7,0.7,4.4C758.9,427.3,758.9,427.3,758,423.8z"/>
	<path d="M773.4,425.8c-2.5,0.4-5,1.1-7.4,0.4c-0.1-1,0.4-1.2,0.9-1.1C769.1,425.3,771.3,425.6,773.4,425.8z"/>
	<path d="M799.7,458.8c-0.8,1.2-1.9,1.2-3.7,1.3C798.1,458.8,798.1,458.8,799.7,458.8z"/>
	<path d="M791.3,427.7c1.1,0.3,1.7,1.1,2.2,2c-1-0.3-1.9-0.8-2.4-1.8C791.1,427.9,791.2,427.8,791.3,427.7z"/>
	<path d="M791,428c-1.2-0.3-2-1-3-2.4c1.8,0.4,2.7,1.1,3.2,2.2C791.2,427.8,791.1,427.9,791,428z"/>
	<path d="M859.4,447.3c1.4,0.1,2,0.1,2.7,0.1C861.5,448.5,861.5,448.5,859.4,447.3z"/>
	<path d="M823.1,448.6c-0.2,0.5-0.6,0.7-1.1,0.7c-0.8,0-1.7,0.1-2.5,0.1l0.1,0.1c0.2-0.5,0.6-0.7,1.1-0.7
		C821.5,448.8,822.3,448.7,823.1,448.6L823.1,448.6z"/>
	<path d="M868.3,448.3c1-0.6,1.7-0.3,2.6,0.1C869.9,449.2,869.2,448.8,868.3,448.3z"/>
	<path d="M943.4,457.3c-1.8,0.5-1.8,0.5-3.5,0.1C940.9,456.6,941.9,456.7,943.4,457.3z"/>
	<path d="M737.4,460.6c-0.1,1.1-0.8,1.2-1.9,1.1C735.9,460.8,736.6,460.5,737.4,460.6L737.4,460.6z"/>
	<path d="M819.5,449.5c-0.8,1-1.9,0.6-2.9,0.8l0.1,0.1c0.1-0.5,0.4-0.7,0.9-0.8C818.2,449.5,818.9,449.6,819.5,449.5L819.5,449.5z"
		/>
	<path d="M826.3,448.1c0.6-0.8,1.4-0.9,2.3-0.5C827.8,448.1,827,447.9,826.3,448.1L826.3,448.1z"/>
	<path d="M826.2,448c-0.9,1-2,0.7-3.1,0.7l0.1,0.1C824.1,447.8,825.2,448,826.2,448L826.2,448z"/>
	<path d="M928.6,458.7c-0.3,0.5-0.7,0.5-1.2,0.2c-0.1-0.5,0.3-0.5,0.6-0.5C928.2,458.4,928.4,458.6,928.6,458.7z"/>
	<path d="M726.3,465.2c0.5-0.9,1.4-0.6,2.2-0.8l-0.1-0.1C727.9,465.3,727,465,726.3,465.2L726.3,465.2z"/>
	<path d="M831.5,446.8c-0.3,0.3-0.6,0.2-0.9,0.1c0.2-0.1,0.4-0.1,0.5-0.2C831.2,446.7,831.4,446.8,831.5,446.8z"/>
	<path d="M814.4,451c0.5-1.1,1.4-0.7,2.3-0.7l-0.1-0.1C815.9,450.8,815.1,450.9,814.4,451L814.4,451z"/>
	<path d="M728.5,464.4c0.2-0.1,0.4-0.3,0.3-0.2C728.9,464.2,728.6,464.2,728.5,464.4L728.5,464.4z"/>
	<path d="M852.9,446.6c0.3,0,0.6,0.1,0.4,0.1C853.5,446.7,853.2,446.6,852.9,446.6L852.9,446.6z"/>
	<path d="M814.3,450.9c-0.2,0.3-0.5,0.8-1,0.2C813.7,451.1,814,451.1,814.3,450.9L814.3,450.9z"/>
	<polygon points="935.2,458.8 934.9,458.7 935.2,458.6 	"/>
	<path d="M759.1,434.5c-0.5-0.3-0.9-0.6-0.3-1.2C759.1,433.8,759.1,434.2,759.1,434.5L759.1,434.5z"/>
	<path d="M737.5,460.7c0.4-0.4,0.4-0.4,0.9-0.4C738.2,460.8,737.8,460.7,737.5,460.7L737.5,460.7z"/>
	<polygon points="756.8,420.3 756.9,420.5 756.9,420.2 	"/>
	<path d="M759,434.6c0.1,0,0.3,0,0.3,0.1C759.3,434.9,759.2,434.9,759,434.6L759,434.6z"/>
	<path d="M213.1,475.5c0.4,1.1,1.5,1.6,2.3,2.4c1.7,1.8,3.7,1.9,5.8,0.9c1.3-0.6,2.6-1.5,3.8-2.4c2.6-2.1,5.4-3.4,8.9-3.1
		c0.3,0,0.7-0.2,1-0.3c0.2-0.8-0.3-1.1-0.8-1.4c-1.1-0.5-2.4-0.7-2.8-2.2c0.6-1.4,1.8-1,2.8-0.7c2.3,0.8,3.9,2.2,3.8,4.7
		c-0.7,1.6-2.2,1.7-3.4,2.2c-1.3,0.5-2.6,0.9-3.7,0.4c-2.4,1.2-4.1,2.8-6,4.2c-0.3,0.2-0.4,0.6-0.6,0.8c1,1.7,2.8,0.7,4,1.5
		c0.2,0.9-0.5,1-1,1.1c-1.1,0.1-2.2,0.1-3.4,0.2c-2.8,2.1-5.8,3.6-9.2,5.1c0.4-0.6-0.2,0.1-0.1-0.4c0-0.1,0.1-0.3,0.2-0.3
		c2.5-1.6,5-3.2,7.3-4.8c0.3-0.6,0.1-1.1-0.5-1.5c-1.1,0.3-2.2,0.6-3.6,1c-4.3-2.1-7.6-5.6-10.6-9.1c0.1-1.9,1.5-2.8,2.4-3.9
		c0.8-1.1,2.2-1.6,2.9-2.9c0.9-2.1,0.9-4.4,0.9-7c1.8,0.3,2.5,1.2,3.2,2c0.4,0.9,0.1,1.6-0.3,2.3c-1.4,2.3-2.6,4.8-4.9,6.5
		c-0.4,0.3-0.6,0.8-0.5,1.3l0.1-0.1c-0.8,0.1-1.2,0.6-1.3,1.3c0.2,0.6,0.7,0.9,1.2,1.1l-0.1-0.1c0.5,0.9,1.3,1.4,2.4,1.6
		L213.1,475.5z"/>
	<path d="M192.3,488.3c-0.4-1.3,0.3-2.4,0.8-3.5c1.4-3.3,2.5-6.7,3.1-10.3c0.7-4.5,0.9-8.9-0.6-13.2c-0.3-0.8-0.6-1.6,0-2.6
		c1.9,1,1.5,3.2,2.5,4.7c1-0.3,1-1.1,0.8-1.8c-0.3-1.2-1-2.2-1.8-3.2c-0.9-1.1-1.9-2-3-2.6c0-1.5,1.4-0.8,1.8-1.5
		c-1.2-2.8-1.4-2.9-4.5-5.1c0.4-0.7,1.1-0.6,1.6-0.2c1.9,1.4,3.6,3,4.7,5.2c0.2,0.3,0.3,0.7,0.5,1c0.8,2,1.6,3.9,2.3,5.9
		c0.7,2-0.5,3.9-0.8,5.8c-0.9,5.6-2.1,11.2-4.2,16.6c-0.6,1.4-1.3,2.7-2,4C193.1,487.8,192.8,488.2,192.3,488.3L192.3,488.3z"/>
	<path d="M210.9,471.9c1.2-0.2,1.9-1.1,2.7-1.8c1.5-1.3,3-2.5,4.7-3.5c1.6,0.6,3,1.3,3.6,2.8c1.2-0.4,1.6-1.6,2.3-1.6
		c3.1-0.1,2.8,2.8,4.6,3.5c-0.7,1.4-2.1,1.1-2.8,2.1c-0.6,0.8-1.2,1.6-1.9,2.3c-2.6,2.7-5.9,3-9,0.8c-0.6-0.4-1.1-1.1-1.9-1l0.1,0.1
		c-0.3-1.3-1.2-1.6-2.4-1.6l0.1,0.1c0-0.8,0-1.6,0-2.4L210.9,471.9z M217.8,476.4c3.9-0.4,5.3-1.5,6.3-4.7c-0.9,0-1.4,1-2.5,0.7
		c-1.4-0.6-1.8-2.1-2.5-3.4c-0.1-0.2-0.4-0.2-0.7-0.4c-0.7,0.6-1.8,0.8-1.9,2c0.3,1,0.7,1.9,0.9,2.8c0,0.1-0.3,0.3-0.4,0.5
		c-1-0.3-1-1.7-2.1-1.9c-0.4,0-0.6,0.3-0.7,0.9C215,474.1,216.3,475.2,217.8,476.4z"/>
	<path d="M213.2,424.1c0.2,1,0.4,1.9,0.5,2.8c-0.2,0.4-0.4,0.7-1,0.8c-0.9-2.1-2.3-3.9-3.6-5.9c-1.1-1.5-1.7-3.3-1.9-5.2
		c-0.2-2.1-0.4-4.2-2.3-5.9c2.3,0.1,2.8,0.6,4.8,4.2c1.3,0.4,2.6,0.7,3.8,1.2c0.8,0.3,1.5,0.9,2.2,1.3c1,0.3,1.3-1.1,2.2-0.9
		c0.1,0.2,0.3,0.5,0.2,0.7c-0.5,2.6-2.4,4.5-3.5,6.8C214.1,424.1,213.6,424.1,213.2,424.1c0.3-0.8,0.9-1.6,0.6-2.6
		c-0.9-0.4-1.7-1-2.8-0.3c0.4,0.9,0.8,1.8,1.3,2.6C212.4,423.9,212.9,424,213.2,424.1z"/>
	<path d="M238.8,463.2c1.7-0.2,3.2,0,4.6-0.5c1-0.4,2.1-0.8,3.1-1.2c3.8-1.6,6.6-4.3,8.4-8c0.8-1.8,1.5-3.6,2.4-5.4
		c0.3-0.7,0.5-1.7,1.6-1.9c0.6,0.2,0.7,0.7,0.6,1.2c-0.6,3-1.6,6-3.2,8.6c-3.6,5.8-8.7,9-15.7,8.5
		C239.8,464.4,239.2,464.4,238.8,463.2z"/>
	<path d="M184.8,445.8c1.5,0.2,1.3,2,2.4,2.6c0.5,0,0.9,0.1,1.5,0.1c2,3.2,3.7,6.6,5.5,10c-1,0.4-1.2-0.4-1.6-0.8
		c-0.5-0.5-0.9-1.2-1.4-1.8c-0.4-0.5-0.5-1.1-1.3-1.4c-0.8,0.4-0.3,1.2-0.5,1.8c-0.3,0.7-0.5,1.4-0.8,2.1c-0.3,0.7-0.5,1.4-0.7,2.1
		c-0.3,0.7-0.5,1.4-0.8,2.1c-0.3,0.7-0.5,1.4-0.9,2.1c-0.3,0.6-0.7,1.3-1.2,2.4c-0.1-2.3,0.7-3.9,0.9-5.6c0.1-0.6,0.3-1.2,0.5-1.8
		c1.1-3.6,1.4-7.1-1.9-9.8c0.5-0.8,1.2-0.5,1.8-0.5c0.3,0.3,0.5,0.5,0.8,0.8c0.1,0.3,0.2,0.4,0.2,0.2c0,0-0.2,0-0.3-0.1
		c-0.1-0.4-0.3-0.7-0.8-0.8c0.1-0.8-0.4-1.3-0.8-1.9C185.1,447,184.7,446.5,184.8,445.8L184.8,445.8z"/>
	<path d="M172.9,425c-0.8,2.4-2.6,3.9-3.7,6.2c1.8-0.6,2.5-2.5,4.2-2.5c0.2,0,0.4,0.2,0.9,0.4c-2.3,2.4-4.9,4.5-6.9,7.7
		c-0.3-4.4,0.8-8.2,1.8-11.9c0.3-1.2,0.9-2.3,1.9-3.1c0.4-0.3,0.8-0.6,1.6-0.3C172.7,422.7,172.8,423.9,172.9,425z"/>
	<path d="M199.4,408.8c0.5,0.5,0.5,1,0.4,1.5c-0.4,3-0.2,5.9,0.3,8.9c0.5,2.7,0.3,3.6-0.6,6.3c-0.8-0.9-1-2-1.2-3.1
		c-0.4-1.7-0.5-3.4-1.2-5.1c-0.2-0.5-0.3-1.2-0.2-1.8c0.3-2,0.7-3.9,1.2-5.8C198.3,409.2,198.6,408.8,199.4,408.8z"/>
	<path d="M172.9,492.5c-1,0.3-1.4,0-1.7-0.4c-1-1.5-1.7-3-2.3-4.7c-1.9-4.8-2.7-9.8-3.5-14.8c-0.1-0.7-0.2-1.5,0.3-2.3
		c1.3,1.7,1.1,3.7,1.7,5.5c0.6,1.9,1,3.8,1.5,5.8c0.5,1.8,1,3.6,1.6,5.3C171.2,488.6,172,490.4,172.9,492.5z"/>
	<path d="M177.2,436.7c-3,7.3-5.9,14.5-8.9,21.7c-0.7-0.6-0.2-1.3-0.1-1.8c1.7-5.8,3.3-11.6,6-17.1c0.5-1,1.1-1.9,1.7-2.8
		C176.1,436.4,176.5,436.2,177.2,436.7z"/>
	<path d="M173.7,458.4c0-0.2,0-0.5,0.1-0.7c1.6-3.7,3.2-7.4,3.9-11.5c0.9,0.6,0.5,1.5,0.9,2.1c0.3,0.5,0.8,0.9,1.1,1.4
		c0,3.5-1.4,6.3-3,9.8c-0.9-2.2,0.6-3.5,0.2-4.9c-1.1,0.2-1.1,1.3-1.6,1.9C174.8,457.2,174.6,458.1,173.7,458.4L173.7,458.4z"/>
	<path d="M209.6,467.6c0.3-4.3-0.5-8.2-3.1-11.6c0.6-0.3,0.9-0.5,1.2-0.7c2.9,1.5,3.6,4.2,3.9,7
		C211.9,464.8,211.3,466.1,209.6,467.6z"/>
	<path d="M207.2,468.6c-1.4-1.4-1.5-3-2.2-4.3c-0.7-1.2-1.2-2.4-2-3.6s-1.7-2.4-2.5-3.4c0.2-0.8,0.6-1,1.4-1.1
		C205.4,459.4,207.3,463.3,207.2,468.6z"/>
	<path d="M258.7,461.4c-0.8-0.2-1.1-0.5-1.3-1c0.1-1,0.8-1.5,1.6-1.8c2.6-0.8,5.1-1.6,8-2.4C265.2,458.2,263.5,459.2,258.7,461.4z"
		/>
	<path d="M173.2,433.6c-1.8,2.2-2.9,4.8-4.6,7.6C169.3,436.2,170.6,434.2,173.2,433.6z"/>
	<path d="M191.3,459.8c0.7,4.2-1.2,6.9-2.4,9.8C189.2,466.5,190.2,463.6,191.3,459.8z"/>
	<path d="M183.4,453.1c-2-2.3-2.5-3.4-3-6C182.2,448.4,183,449.9,183.4,453.1L183.4,453.1z"/>
	<path d="M275.3,452.2c-0.7,1.1-1.5,1.9-3,1.6C272.9,452.1,273,452.1,275.3,452.2z"/>
	<path d="M285.8,447.5c-0.1,1-0.6,1-1.3,1C284.6,447.4,285.1,447.4,285.8,447.5z"/>
	<path d="M176.2,487.4c0-0.2,0-0.4,0-0.6h0.1C176.3,487,176.3,487.2,176.2,487.4L176.2,487.4z"/>
	<path d="M182.9,474.1c0-0.2,0-0.5,0-0.7C183.4,473.6,183,473.9,182.9,474.1z"/>
	<path d="M279.3,450.5c0.1-0.4,0.3-0.6,0.7-0.5c0.1,0,0.2,0.4,0.2,0.5C279.9,450.8,279.6,450.8,279.3,450.5z"/>
	<path d="M334,402.5c-0.2,0.8-0.8,0.9-1.5,0.7l0.1,0.1C332.8,402.5,333.3,402.4,334,402.5L334,402.5z"/>
	<polygon points="183.6,471.1 183.7,470.9 183.8,471.2 	"/>
	<path d="M191.6,489.8c-0.1-0.6-0.1-1.3,0.7-1.5l-0.1-0.1C192.3,488.8,192.1,489.4,191.6,489.8L191.6,489.8z"/>
	<path d="M231.9,482.3c0.2-0.1,0.4-0.3,0.5-0.4C232.4,482.4,232,482.1,231.9,482.3L231.9,482.3z"/>
	<path d="M231.8,482.2c-0.1,0.1-0.1,0.2-0.2,0.2c-0.2,0.1-0.4,0.1-0.6,0C231.3,482.5,231.6,482.4,231.8,482.2L231.8,482.2z"/>
	<path d="M183.3,453.2c0.3,0.1,0.5,0.4,0.4,0.9C183.2,453.9,183.4,453.5,183.3,453.2L183.3,453.2z"/>
	<path d="M173.6,458.3c0,0.6-0.2,1.1-0.7,1.5l0.1,0.1C173,459.3,173,458.7,173.6,458.3L173.6,458.3z"/>
	<path d="M216.2,494.9c-0.2,0.1-0.4,0.5-0.8,0.3C215.7,495.2,216,495.1,216.2,494.9L216.2,494.9z"/>
	<polygon points="229.6,490.4 229.5,490.6 229.6,490.5 	"/>
	<polygon points="216.8,490.5 216.7,490.7 216.9,490.6 	"/>
	<polygon points="216.9,490.6 217.1,490.3 216.8,490.5 	"/>
	<path d="M191.6,489.7C191.3,490,191.6,489.8,191.6,489.7L191.6,489.7z"/>
	<path d="M184.9,445.7c-0.1,0-0.2-0.1-0.3-0.2C184.7,445.3,184.8,445.4,184.9,445.7L184.9,445.7z"/>
	<polygon points="202,482.3 202.1,482.2 201.9,482.3 	"/>
	<path d="M332.4,403.2c0.1,0.3,0,0.4-0.3,0.4v-0.2C332.3,403.3,332.4,403.3,332.4,403.2L332.4,403.2z"/>
	<polygon points="172.9,459.9 172.8,460 173,459.9 	"/>
	<path d="M434.4,309.8c-4.5,1.9-8.9,3.5-13.6,4.3c-0.3-0.6-0.2-1,0.1-1.2c0.8-0.4,1.5-0.8,2.4-1c3.2-0.9,6.5-1.7,9.7-2.4
		C433.4,309.2,433.8,309.2,434.4,309.8z"/>
	<path d="M567.3,308.6c-1.8,2.1-1.8,2.1-8.9,1.9C561.7,309.9,564,308.3,567.3,308.6z"/>
	<path d="M443.2,308.5c0.9-1,1.8-0.7,2.6-0.8c2.2-0.3,4.4-0.6,6.6-0.3c-0.3,0.9-1,0.9-1.7,0.9c-2.2,0.2-4.4,0.4-6.6,0.6
		C443.9,308.9,443.7,308.7,443.2,308.5z"/>
	<path d="M550.8,311.2c1-0.9,1.9-1.9,3.5-1.6C553.6,311.1,553.6,311.1,550.8,311.2z"/>
	<path d="M531.4,313.4c0.2-0.6,0.6-0.7,1.1-0.8c0.5,0,0.9,0.1,1,0.8C532.8,314,532.1,313.9,531.4,313.4z"/>
	<path d="M462.8,307.6c0.2-0.4,0.5-0.3,0.8-0.3c0.1,0,0.2,0.1,0.3,0.1c-0.1,0.2-0.2,0.4-0.3,0.5C463.3,308.1,463,308,462.8,307.6z"
		/>
	<path d="M538.8,312.6c0.4-0.3,0.8-0.4,1.2,0.1C539.6,313.1,539.2,313.1,538.8,312.6z"/>
	<path d="M473.2,306.7c0.3-0.2,0.6-0.2,1-0.1C473.9,307.2,473.5,307,473.2,306.7z"/>
	<path d="M425.8,337.6c-0.5,0-1.1,0-1.6,0C424.7,336.8,425.2,336.9,425.8,337.6z"/>
	<path d="M486.4,306c-0.1,0-0.2,0.1-0.3,0.1l-0.1-0.2C486.3,305.7,486.4,305.8,486.4,306z"/>
	<path d="M369.8,314.5c0.7-0.1,1,0.4,1.2,0.9c-0.2,0.3-0.5,0.4-0.8,0.3C369.8,315.4,369.6,315,369.8,314.5L369.8,314.5z"/>
	<path d="M369.8,314.5c-0.9-0.2-0.6-1-0.6-1.5l-0.1,0.1C369.4,313.5,369.9,313.8,369.8,314.5L369.8,314.5z"/>
	<polygon points="368.3,312.1 368.1,312.1 368.2,312.2 	"/>
	<path d="M368.2,312.2c0.3,0.3,0.6,0.5,0.8,0.8l0.1-0.1C368.9,312.7,368.6,312.4,368.2,312.2L368.2,312.2z"/>
</g>
</svg>
