<?xml version="1.0" encoding="utf-8"?>
<!-- Generator: Adobe Illustrator 20.1.0, SVG Export Plug-In . SVG Version: 6.00 Build 0)  -->
<svg version="1.2" baseProfile="tiny" id="Layer_2" xmlns="http://www.w3.org/2000/svg" xmlns:xlink="http://www.w3.org/1999/xlink"
	 x="0px" y="0px" viewBox="0 0 900 600" xml:space="preserve">
<g>
	<path d="M654.2,271.4c-0.4-0.5-0.9-1-1.1-1.6c-1.4-4-2.3-8-2.3-12.3c0-1.9,0-3.8-0.4-5.7c-0.5,1.7-1,3.3-1.7,5.5
		c-0.6-1.8-0.4-3.2-0.3-4.6c0.4-1.7,0.9-3.4,1.1-5.1c0.7-5.4,1.8-10.8,1.9-16.2c0.1-4.5-0.9-9-2.8-13.8c0,1.8-0.1,3,0,4.2
		c0.8,7.5,0.5,15,0.5,22.5c0,0.7-0.1,1.4-0.2,2c-0.1,2.2-0.3,4.3-0.4,6.5c-1-1-0.9-2.2-0.9-3.5c0-4.7,0.1-9.3,0-13.9
		c-0.2-6.1-0.6-12.3-0.8-18.4c-0.1-2.9-1.2-5.6-1.2-8.5c0-1.1-1-2.2-1.6-3.2c-0.8-1.4-1.7-2.8-2.6-4.1c-0.2-0.2-0.7-0.2-1.1-0.2
		c-0.1-0.1-0.2-0.2-0.2-0.2c0.1,0.1,0.2,0.1,0.3,0.2c0,0.3-0.1,0.6,0,0.8c2.4,6,2.3,12.3,1.3,18.6c-1.7,10.6-1.8,21.2-1.3,31.8
		c0.2,4.1,1.1,8.1,2.1,12.2c0.6-0.1,1.1-0.1,1.7-0.2c0.4,2.2,0.7,4.5,1.1,6.7c0.6,2.8,1.3,5.6,2,8.3c0.2,0.8,0.2,1.6,0.3,2.4
		l0.1-0.1c-0.5-0.2-1.1-0.3-1.4-0.7c-1.8-2.4-3.5-4.8-4.4-7.8c-3-9.1-4.4-18.3-4.3-27.9c0.1-8.4,0.9-16.7,2.3-24.9
		c0.5-3.2,0.7-6.5,0.9-9.8c0.1-1.8-0.4-3.5-1.7-4.9c-1.8-2.1-3.5-4.3-5.1-6.4c-0.8-1-1.8-1.7-3.2-1.3c-0.8,0.7-0.3,1.5-0.1,2.3
		c0.8,2.8,1.7,5.5,2.5,8.2c2.2,7.1,2.2,14.3,0.4,21.5c-1.7,6.6-3.6,13.2-6.4,19.5c-1.3,2.9-2.7,5.9-3.5,9.2
		c-0.3,1.2-1.2,2.5-2.2,3.4c-4.5,4.2-9.1,8.3-13.7,12.4c-0.8,0.7-1.8,1.2-2.8,1.6c-3.3,1.4-6.6,2.7-9.9,4c-1.4,0.6-2.9,0.9-4.4,0.8
		c-4.6-0.2-9.3-0.1-13.9-0.7c-4.6-0.6-9.1-1.9-13.5-3.4c-1.9-0.7-3.9-1.3-5.8-1.9c-2.2-0.6-4.1-1.5-5.5-3.4
		c-0.7-0.9-1.5-1.6-2.3-2.4c-1.7-1.9-3.8-2.9-6.4-3.2c-3.9-0.5-7.8-1.2-11.8-0.7c-2.8,0.3-5.7-0.5-8.6,0c-1.2,0.2-2.7-1.3-2.7-2.6
		c0.1-1.9,0.4-3.8,0.7-5.7c0.1-0.7,0.4-1.3,0.6-1.9c-1.3-2.3-3-3.2-5.6-2.7c-1.4,1.7-1.6,3.9-2.1,6c-1.2,5.1-2.3,10.1-3.4,15.2
		c-1.8,8-3.9,16-5.4,24c-1.4,7.8-2.4,15.7-2,23.7c0.1,2.6,0.7,5.1,1,7.7c0.7,5.8,1.5,11.7,2,17.5c0.5,6.1,1,12.3,1.1,18.4
		c0.1,2.8-0.4,5.7-1,8.5c-1.7,7.4-2.7,14.8-3.9,22.2c-0.7,4.5-1.5,8.9-2.1,13.4c-0.4,2.6-0.7,5.2-0.7,7.8c-0.1,6,0.5,12,1.5,18
		c0.5,2.7,0.8,5.4,1.2,8.1c0.1,1.1,0.3,2.2,0.3,3.3c-0.4,9.4,0.3,18.9-2.7,28.1c-0.8,6.2-2.9,12-5.1,17.7c-1.5,4-2.7,8-3.7,12.2
		c-0.4,1.7-0.7,3.5-1,5.2c-1.4,6.9-3.4,13.5-6,20c-2,5.1-3,10.5-3.9,15.9c-0.2,1.5-0.5,3-0.8,4.4c-0.8,4.2-1.4,8.3-1.1,12.6
		c0.1,1.6-0.1,3.3-0.2,4.9c-0.1,0.7-0.4,1.3-0.7,1.9c-0.7,1.2-2.2,1.5-3.2,0.6c-0.9-0.9-1.5-1.9-2.3-2.8c-0.6-0.7-0.7-1.8-1.8-2.1
		c-0.8,2.1-0.8,2.1,1.8,5.9c-1,0.9-1,0.9-3.3,0.3c-1.2,2-2.4,4.1-3.7,6.3c-1.4-0.6-2.6-1.2-3.9-1.7c-1.1,2.6-3,4.4-5.4,5.8
		c-1.5,0.9-3.1,1.8-4.7,2.6c-2.1,1-4.3,1.6-6.8,1.2c-1.2-0.2-2.4,0-3.6,0.2c-9.8,1.9-19.5,4.3-29.4,5.8c-10.6,1.6-21.3,1-31.6-2.5
		c-1.2-0.4-2.2-0.9-3.2-1.8c-0.7-0.7-1.5-1.2-2.3-1.7c-2.5-1.8-5.1-2.2-8.1-1.3c-2.8,0.9-5.9,1.3-8.8,1.8c-3,0.5-5.9,1-8.9,1.5
		c-4.9,0.8-9.8,0.6-14.8,0.3c-4.8-0.3-9.5-0.9-14.3-1.6c-6.4-1-11.9-3.8-16.4-8.9c0.2-0.8,0.2-1.6,0.6-2.3c1.8-3.2,3.1-6.7,5.5-9.6
		c1-1.2,1.6-2.9,2.1-4.4c1.1-3.2,2-6.5,2.9-9.8c0.2-0.8,0.3-1.6,0.4-2.4c0.3-1.6,0.3-3.3,0.8-4.8c1.1-3.2,1.4-6.4,1.5-9.7
		c0.1-2.1,0.5-4.1,1.4-5.9c0.4-0.8,0.7-1.8,0.8-2.7c0.4-2.9,1.7-5.5,3.1-8c1.1-1.9,2-3.9,3.2-5.7c0.5-0.8,1.3-1.3,2.2-2
		c-2-7.8-4-15.8-5.9-23.8c-0.5-2.1-1.1-4.2-1-6.4c0.1-1.4-0.6-3-1.2-4.3c-4.1-8.1-6.8-16.7-9.8-25.2c-1.5-4.1-2.8-8.3-4.3-12.4
		c-3.3-9.4-6.2-19-8.6-28.7c-0.2-0.9-0.3-2-0.8-2.7c-2.4-3.5-2.8-7.7-3.5-11.7c-0.6-3.6-1-7.3-1-11c-0.1-7.8,0-15.6,0.2-23.4
		c0.1-4,0.8-7.9,1.4-11.8c1.5-9.9,3.2-19.7,4.8-29.6c0.8-4.9,0.3-9.8,0.3-14.8c0-0.7-0.3-1.3-0.5-2c-2.4-7.4-5.1-14.7-8.6-21.7
		c-5.6-11.4-11.1-22.9-16.6-34.4c-1.2-2.6-2.6-5.1-4.5-7.4c-0.9-1-1.4-2.3-1.9-3.6c-1-2.5-1.9-5.1-2.8-7.7
		c-5.2-15.6-11.9-30.6-18.9-45.5c-2.7-5.8-5.7-11.5-8.6-17.3c-0.8-1.6-1.9-3-3-4.4c-2.2-2.8-4.5-5.5-6.7-8.3
		c-1.8-2.3-3.4-4.6-5.6-6.5c-1.4-1.3-2.5-2.9-3.4-4.6c-5.2-9.2-9.9-18.6-12.1-29.1c-0.4-1.7-0.8-3.5-0.9-5.3c-0.5-7.6,0-15,2.4-22.3
		c2.2-6.5,4.6-12.9,7.7-19c4.2-8.2,9.8-15.2,16.9-20.9c9-7.2,18.3-13.9,28.7-18.9c4.2-2,8.2-4.4,12.3-6.5c2.7-1.4,5.3-2.8,8.5-2.8
		c0.6,0,1.4-0.2,1.9-0.6c2.6-1.9,5.7-2.7,8.8-3.3c6.2-1.2,12.4-2.5,18.6-3.1c5.8-0.6,11.8-0.5,17.6-0.3c4.6,0.2,9.2,0.9,13.9,1.4
		c1.9,0.2,3.8,0.3,5.7,0.3c5.3,0.2,10.7,0.2,16,0.5c7.6,0.3,14.9,1.9,22.3,3.6c18,4.2,35.6,9.9,52.6,17.2c5.6,2.4,10.9,5.2,15.8,8.7
		c4.8,3.4,9.6,6.8,14.3,10.4c3.5,2.7,6.7,5.6,8.8,9.6c0.8,1.6,2.2,3.1,4.1,4c1.2,0.6,2.1,1.7,3,2.7c2.8,3.2,5.5,6.5,8.1,9.8
		c4.2,5.1,8.2,10.3,12.5,15.3c9.2,10.7,16.5,22.5,22.9,34.9c5.8,11.3,11.6,22.7,19.5,32.8c0.8,1.1,1.4,2.3,2.1,3.5
		c3.4,1.8,6.8,3.5,10.7,5.6c1.6-0.3,3.8-0.4,5.9-1c6.2-1.6,12.5-1.7,18.7-1.8c1.6,0,3.2,0.5,4.8,0.9c2.1,0.6,4.4,0.9,6.2,2.1
		c4,2.5,8.8,3.7,12.3,7.2c2.1,2.1,4.9,3.4,7.4,5.1c1.2,0.8,2.4,1.8,3.5,2.6c-0.1,1.7-1.3,2.5-2.3,2.9c-8,2.7-15,7.3-22.2,11.4
		c-0.8,0.5-1.8,0.6-2.6,0.9l0.1,0.1c1-0.9,1.8-2,2.9-2.8c3.4-2.3,6.9-4.4,10.4-6.7c0.6-0.4,1.3-0.9,2.6-1.8c-5,0.5-8.8,2.2-12.4,4
		c-3.5,1.8-6.8,3.8-9.8,6.4c3.1-4.4,6.8-8.1,12.2-11.3c-3.9,0.2-6.7,1.2-9.4,2.3c-2.8,1.1-5.4,2.5-8.1,3.8c-0.7-0.6-0.1-1,0.3-1.3
		c3.4-2,6.8-4.2,10.4-5.8c6.3-2.9,12.8-4,19.5-1.7c1,0.4,2.1,0.6,3.2,0.9c1.1,0.3,2.1,0.4,3.3-0.4c-0.3-0.4-0.6-0.9-1-1.2
		c-1.9-1.3-3.9-2.6-5.8-3.9c-0.4-0.3-1.1-0.7-1.5-0.6c-2.6,0.5-4.5-1-6.5-2c-11-5.2-21.1-7.7-33-7.6c-1.4,0.9-2.9,2-4.4,2.8
		c-1.6,0.8-3.3,1.4-5.1,2.1c-0.7-1.2-1.2-2.2-1.7-3c-2.4-1-4.7-1.9-6.9-3c-3.2-1.7-6-3.9-7-7.7c-0.1-0.3-0.2-0.5-0.4-0.7
		c-3-5-6.1-10.1-9.1-15.1c-1-0.3-1.5,0.5-2.1,1c-2.5,2.5-4.1,5.2-4.9,8.8c-1.5,6.7-1.7,13.2-1,20c0.5,5.1-0.2,10.1-0.9,15.1
		c-0.4,3.1-1,6.2-2.1,9.2c-0.4,1.1-0.8,2.4-2.3,3c-0.2-0.8-0.3-1.5-0.5-2.3c-0.6-0.1-1.2-0.2-1.8-0.4c-0.2-0.3-0.5-0.5-0.5-0.7
		c0.1-1.2,0.1-2.5,0.3-3.6c0.5-2.5,0.5-4.9,0.1-7.3c-0.2-1.3-0.4-2.7-0.5-4.1c-0.4-3.8-1.3-7.6-2.7-11.2c-0.6-1.5-1.5-2.9-2.5-4.2
		c-4-5.1-8.3-9.9-12.9-14.3c-6.3-6.1-13.9-10.1-21.8-13.7c-6.7-3-13.8-4.5-21.1-4.8c-5.6-0.2-10.6,1.3-14.7,5.2
		c-1.6,1.5-3,3.1-4.5,4.6c-0.3-0.1-0.5-0.2-0.9-0.4c-1.5,3.8-1.5,7.7-1.3,11.6c0.2,4.2,1.5,8,3.2,11.8c1.6,3.7,4.3,6.6,6.8,9.6
		c-0.5,0.7-1,0.6-1.5,0.3c-2-1.1-3.5-2.6-4.8-4.4c-3.8-5.6-5.7-11.8-5.6-18.6c0-3.3,0.2-6.6,1.5-9.7c0.5-1.2,0.7-2.6,2.4-3
		c0.5-0.1,0.8-1,1.2-1.6c3.9-5.3,9.3-7.9,15.9-8.1c7.9-0.2,15.5,1.2,22.8,4.3c3.8,1.6,7.5,3.4,11.1,5.4c5.6,3,10.5,6.9,14.9,11.5
		c5.6,5.9,10.4,12.4,14.7,19.2c0.7,1.1,1.1,2.5,1.7,3.7c0.7,1.3,0,3.3,2,4.1c0.3,0.1,0.3,1,0.4,1.5c0,1.9,0,3.8,0.3,5.8
		c0.3-4.2,0.7-8.3,0.9-12.5c0.2-4,0.1-7.9,0.1-11.9c0-4.4,0.9-8.7,2-12.9c1-3.9,3.1-7,6.7-9c-1.3-3.7-3-7.1-5.1-10.3
		c-9-13.6-18.3-26.9-28.3-39.9c-5.4-7.1-11.1-13.9-16.8-20.7c-2.6-3.1-5.2-6.4-7.8-9.6c-1-1.3-2.2-2.5-2.8-4
		c-0.9-2.2-2.5-3.5-4.2-4.9c-2.3-1.8-4.5-3.5-6.9-4.8c-2.1,0.5-3.4,1.7-4.7,2.8c-5,4.2-10,8.5-15.1,12.7c-6.5,5.4-12.6,11.4-18,17.9
		c-6.6,8-13.8,15.6-20.9,23.2c-1.5,1.6-2.9,3.3-4.2,5c-5.2,7.2-10.4,14.4-15.6,21.6c-1,1.3-1.8,2.7-2.7,4c0.8,1.6,2.2,2.3,3.3,3.2
		c1.7,1.4,3.4,2.7,5,4.1c1.1,0.9,1.3,2,0.7,3.3c-4.1,9.6-3,18.9,1.1,28.2c2.4,5.3,5.7,10,9.2,14.5c4.6,6,10.8,9.6,18.2,11.2
		c2.5,0.5,5.2,0.2,7.8,0c3.3-0.2,6.5-0.8,9.8-1.1c2-0.2,4.1-0.4,6.1,0.4c0.6,0.2,1.4,0.2,2,0.1c4.9-0.8,9.8-1.4,14.7-1.5
		c0.2,0,0.5-0.2,0.9-0.5c-0.3-3-1.4-5.7-2.9-8.3c-2.2-3.5-4.4-6.9-6.6-10.4c-0.5-0.9-1-1.8-1.6-3.1c0.8,0,1.3-0.1,1.5,0
		c0.7,0.6,1.4,1.3,2,2c5,6.4,9.3,13.2,11.8,21c0.3,1,0.6,2.1,0.9,3.2c0.6,2.1,0.6,4.2,0.1,6.4c-1.4,6.5-2.8,13.1-3.4,19.8
		c-0.5,5.3-1.3,10.6-1.8,15.9c-0.5,5-0.9,10.1-1.2,15.1c-0.5,7.5-0.6,15.1-1.3,22.6c-0.5,6.2-0.7,12.3-0.4,18.5
		c0.2,5.5,0.7,10.9,0.9,16.4c0.2,4.5,0.5,9,0.4,13.5c-0.1,4.2-1,8.3-2.6,12.3c-1.2,3-1.6,6.4-2.1,9.6c-0.7,4.6-1.1,9.2-1.5,13.9
		c-0.1,1.1,0,2.2,0,3.3c1,14.8,3.6,29.3,7.4,43.6c2.3,8.6,4.2,17.3,6.6,25.9c1.7,6.3,3.5,12.7,5.7,18.8c2.6,7.3,2.4,14.8,2.1,22.3
		c0,1.2-0.3,2.4-1.3,3.5c-0.5-0.7-1-1.3-1.7-2.1c-2.5,2-5.5,3.5-6.6,6.8c-0.3,0.9-0.9,1.7-1.4,2.5c-2.3,3.7-4.1,7.7-5.4,11.9
		c-0.7,2.4-1.5,4.7-3.1,6.7c-0.7,1-1.2,2.2-1.6,3.3c-1.3,3.2-2.4,6.4-3.8,9.5c-1.3,3-3.2,5.6-6.1,7.6c-0.7-1.6,0.8-2.4,1-3.6
		c-0.3-2.7-0.8-5.4,1.2-7.7c0.1,1.7,0.1,3.4,0.2,5.4c0.6-0.4,1.1-0.5,1.2-0.8c1-1.8,2.1-3.5,2.8-5.4c0.7-1.8,1.8-3.6,1.5-5.8
		c1-0.2,0.6-1.1,0.8-1.6l0.2-0.1l-0.2,0.2c-0.2,0.6-0.5,1.1-0.7,1.7c-1.1,0.1-1.4,1.1-2,1.8c-1.4,1.5-2.1,3.6-3.9,4.9
		c-0.2-1.6,0.7-2.9,1.5-4.2c2.1-3.2,4.2-6.4,6.3-9.6c1.4-2,2.7-4.1,3.5-6.5c0.7-2,1.8-4,3-5.8c1.3-2.1,2.7-4.1,4.1-6.1
		c0.6-0.9,1.4-1.7,2.2-2.4c0.9-0.8,1.9-1.6,2.8-2.4c3.2-2.7,3.7-5.2,2.1-9c-0.4-0.9-0.7-1.8-0.9-2.7c-1.2-6.3-2.4-12.6-3.5-19
		c-0.9-4.7-1.6-9.4-2.6-14.1c-0.4-2-0.9-4-1.6-5.9c-3.3-9.6-6.1-19.3-8.2-29.2c-2-9.4-3.3-18.9-3.7-28.5c-0.2-4.5-0.3-9-0.1-13.5
		c0.2-6.3,1.4-12.5,3.1-18.6c1.6-5.7,2.2-11.5,1.4-17.4c-0.4-2.8-0.3-5.7-0.5-8.6c-0.5-7.1-0.9-14.2-0.6-21.3
		c0.3-6.3,0.8-12.6,1.2-18.8c0.1-1.1,0.2-2.2,0.2-3.3c0.3-6.6,0.5-13.1,1-19.7c0.4-4.8,1.2-9.5,1.8-14.2c0.1-0.9,0.6-2,0.3-2.8
		c-0.6-1.7-0.1-3.2,0.2-4.8c1-5.1,2.1-10.2,2.9-15.3c0.8-4.5,0.4-9-0.6-13.6c-3.3,0-6.6,0.1-9.8,0.4c-2.6,0.3-5.2,0.6-7.7,1
		c-3.4,0.6-6.8,0.7-10.2,0.4c-1.8-0.2-3.5-0.1-5.3,0.2c-7.1,1.4-13.7,0.1-20.4-2.7c-7.3-3.1-11.9-8.5-15.1-15.4
		c-1.7-3.7-3.1-7.6-4.5-11.4c-2.6-7.1-2.8-14.4-0.7-21.7c-0.5-0.6-0.9-1.1-1.4-1.8c0.8-1.6,1.6-3.3,2.5-5.2
		c-0.8-0.6-1.5-1.3-2.3-1.7c-6.7-4-12.1-9.3-16.7-15.6c-1.1-1.5-2.5-2.9-3.9-4.2c-2.7-2.3-5.5-4.5-8.2-6.8c-1.7-1.4-3.8-1.7-5.8-1.7
		c-1.7,0-3.2-0.5-4.8-0.9c-1.2-0.4-2.4-0.7-3.6-0.7c-2.6-0.1-5.2-0.1-7.8-0.2c-0.4,1.1,0.5,1.7,1,2.4c5.6,9.3,11.2,18.5,15.5,28.5
		c4.9,11.5,8.3,23.5,10.8,35.7c1.7,8.3,2.8,16.7,3.3,25.2c0.2,3,0.7,6,1.2,8.9c2.3,13.2,5.2,26.3,5.8,39.8c0.2,4.2,0.1,8.5,0.2,12.7
		c0,1.9-0.1,3.8,0,5.7c0.1,0.9,0.2,2.1,0.7,2.7c1.3,1.5,1.4,3.2,1.7,5c0.6,3.2,1.1,6.5,1.7,10.2c-0.4,0.8-1.6,1.7-1.4,3.4
		c0.2,1.3-0.4,2.7-0.3,4.1c0.4,6.3-1.4,12.2-3.5,18c-1,2.7-2.1,5.3-3.3,8c-0.7,1.7-1.1,3.3-0.9,5.2c0.2,2.2,0.3,4.4,0.3,6.6
		c0,7.4,0.7,14.8,1.4,22.1c1,9.9,2,19.9,2.5,29.9c0.4,7.9,0.5,15.9-0.4,23.8c-0.4,3.5-0.1,7.1,0.3,10.6c0.5,4.9,1.3,9.8,2.2,14.6
		c2.1,11.3,4.3,22.6,5.7,34c0.3,2.3,1,4.5,1.5,6.8c1.5,6.7,3.2,13.3,6,19.6c0.3,0.6,0.6,1.2,1,2.1c0.8-0.4,1.5-0.7,2.2-1
		c1.1-0.5,2.2-1,3.4-1.3c1.3-0.4,2.3,0,3.2,1.1c3.8,4.8,7.7,9.6,11.6,14.3c1.3,1.6,2.7,3.1,4.1,4.6c1.3,1.4,2.6,2.7,3.3,4.6
		c0.3,0.9,1,1.6,1.7,2.3c5.7,5.8,11.7,11.2,18.6,15.4c2.6,1.6,5.1,3.2,7.2,5.5c1.9,2,4.5,2.6,7,3.1c2.7,0.6,5.4,0.9,8.1,0.1
		c0.4-0.1,0.8-0.2,1.2-0.1c0.5,0.1,1.1,0.4,1.3,0.8c0.4,0.7,0,1.4-0.6,1.7c-0.5,0.4-1.2,0.7-1.8,0.7c-3,0.2-6.1,0.1-8.9-1
		c-2.6-1.1-5.2-2.4-7.7-3.8c-2.2-1.2-4.1-2.7-6.3-3.9c-8.6-5.1-15.7-11.9-22.2-19.3c-1-1.1-2-2.2-3.1-3.3c-3.6-3.6-6.8-7.5-9.4-11.9
		c-0.3-0.5-0.5-1-0.9-1.4c-2.4-2.1-3.9-4.9-5.6-7.7c-2.1,0.7-3.6,2.1-5.2,3.4c-1.5,1.2-2.9,2.5-4.5,3.9c0.4,0.5,0.8,1.1,1.3,1.5
		c7,6,12.8,13.1,18.8,20.1c1.2,1.5,2.5,2.9,3.9,4.2c4.1,4.2,8.3,8.4,12.4,12.5c0.8,0.8,1.6,1.5,2.5,2.1c6.2,3.8,12.6,7.2,19.8,8.9
		c0.7,0.2,1.5,0.2,1.9,0.6c1.8,1.5,3.9,1.6,6.1,2.1c2.3,0.6,4.6,0.4,6.9,0.6c1.4-1.6,1.5-3.9,3.1-5.3c0.3-0.3,0.5-1,0.4-1.5
		c-0.1-2.5,0.8-4.8,1.4-7.2c1.1-4.9,1.9-9.9,1.4-15c-0.1-1-0.3-1.7-1-2.5c-0.7-0.7-1-1.9-1.4-2.9c-0.4-0.9-0.6-1.8-1-2.8
		c-0.3,0.4-0.5,0.5-0.6,0.7c-1.3,4.9-4.3,8.5-8.3,11.3c-1,0.7-2.2,1.2-2,2.7c-1.9,1.4-3.9,1.2-5.9,0.5c-1.7-0.5-2.8-1.6-3.3-3.3
		c-0.1-0.4,0.2-0.9,0.4-1.8c1.9,1.6,2.9,3.9,5.4,3.5c2-1.6,3.9-3.1,5.7-4.7c2.2-1.9,4-4.1,5-6.9c0.4-1,0.5-2.1,0.6-2.9
		c-1.1-1.8-3.6-2.2-3.4-5c1.8,1.1,2.9,3.1,5.4,2c0.8-1.5-0.8-3.5,0.6-5.4c0.4,0.4,0.9,0.7,1,1.1c0.8,2.5,1.5,5,2.2,7.5
		c0.3,0.9,0.5,1.8,1,2.7c1.2-6.5,2.7-12.8,2.4-19.4c0.4,6.6,1,13.1-0.4,19.6c-1.1,5-1.6,9.9-1.5,15c0.1,2.6-0.4,5.2-0.8,7.7
		c-0.7,4-1.6,8-3.7,11.6c-2.3,4-2.2,8.1,1,11.8c0.1,0.1,0,0.3,0,0.4c-0.2,1-0.9,1.5-1.8,1.3c-0.6-0.1-1.2-0.7-1.5-1.3
		c-0.7-1.4-0.7-3-0.4-4.4c0.4-1.6-0.1-2.9-1.1-4.4c-1.3,0-2.8,0-4.2-0.1c-1.9-0.1-3.8-0.2-5.5-1.4c-0.6-0.4-1.5-0.7-2.3-0.6
		c-2.1,0.2-4.1-0.5-6-1.1c-4.3-1.4-8.5-3.2-12.1-5.9c-1-0.7-2.1-1.3-3.6-1c-1.1,1-2.3,2.1-3.6,3.1c-1.3,1-2.7,2-4.5,1.7
		c-0.6-0.1-1.2-0.6-1.6-1.1c-0.2-0.3,0-1.1,0.3-1.5c0.7-0.8,1.6-1.5,2.5-2.1c1.3-1,2.7-1.9,4.1-2.9c-2.1-2.8-4.2-5.2-6.8-7.3
		c-2.1,2.1-4.1,4.2-6.2,6.1c-0.9,0.8-2,1.4-3.1,1.8c-1.5,0.6-2.7-0.5-2.6-2.1c0.1-1.2,0.5-2.2,1.3-2.9c1.7-1.6,3.4-3.1,5.2-4.6
		c0.6-0.5,1.4-0.9,2.2-1.4c-0.9-1.7-2.3-2.7-3.6-4.2c-1.8,3.4-3.9,6-6.3,8.4c-1.1,1.1-2.4,1.9-4,1.9c-0.6,0-1.2-0.3-1.9-0.5
		c-0.1-3.2,2.2-4.8,3.9-6.7c1.7-1.9,3.6-3.7,5.6-5.7c-0.6-1.5-2.2-2.3-3.7-3.5c-0.6,0.8-1.2,1.5-1.7,2.3c-2.3,3.4-5.2,6.3-8.4,8.9
		c-1.4,1.1-3,1.9-4.9,1.9c-0.5,0-1-0.3-1.6-0.5c0.4-2.4,1.8-4.1,3.3-5.7c2.7-2.6,5.3-5.1,8-7.7c0.8-0.8,1.6-1.5,2.4-2.2
		c-1.5-3-3.1-4.9-6.1-7.2c-2.2,5.1-6.1,8.7-10,12.3c-1.7,1.6-3.6,2.9-6.1,2.5c-0.8-0.6-0.6-1.3-0.5-2c0.5-1.9,1.5-3.5,2.9-4.9
		c2.6-2.4,5.2-4.8,7.8-7.2c1.2-1.1,2.7-1.9,3.6-3.5c-3.2-3.6-6.8-6.7-10.4-9.6c-0.6,0.1-0.9,0.1-1.1,0.2c-1.4,1.1-2.6,2.5-4.2,3.2
		c-1.5,0.7-2.9,1.5-4.3,2.4c-2.6,1.6-3.9,4.1-5,6.8c-1.6,4.1-3.3,8.1-4.8,12.2c-0.8,2.2-2,3.8-4.3,4.5c-1.4,0.4-2.7,1.3-4.1,1.8
		c-2.5,0.9-5,1.5-7.7,0.8c0-0.5-0.1-1-0.1-1.7c-0.7-0.3-1.4-0.6-2.1-1c-0.7-0.4-1.5-0.9-1.9-1.5c-1-2.2-2.8-3.7-4.1-5.6
		c-0.7-1-1.3-2.1-2-3.1c-0.9-1.5-2.1-2.8-2.8-4.4c-0.7-1.6-0.8-3.4-1.2-5.2c-2.4,2.7-5.4,7.9-6.1,10.3c-0.6,2.2-1.1,4.5-2,6.7
		c-0.7,1.9-0.9,3.7-0.6,5.6c0.4,3,0.2,6-0.7,8.9c-0.7,2.2-0.9,4.6-1.4,6.8c-0.2,1.1-0.4,2.3-1,3.1c-1.8,2.1-2,4.7-2.8,7.2
		c-0.7,2.3-1.4,4.8-3.8,6.1c-0.3,0.2-0.6,0.6-0.8,0.9c-1.3,2.5-2.5,5.1-3.8,7.8c3.3,1.8,6.4,3.6,9.8,4.8c0.6,0.2,1.4,0.4,2,0.2
		c1.3-0.4,2.5-0.1,3.6,0.3c10.8,3.7,21.8,3.2,32.9,1.2c3.9-0.7,7.8-1.3,11.8-1.9c4.1-0.6,7.9,0,11.5,2.1c3.9,2.4,8.3,3.6,12.6,4.8
		c4.7,1.4,9.7,1.2,14.7,0.8c6.8-0.6,13.5-2.1,20.3-3.3c4.6-0.8,9.2-1.5,13.8-2.2c2.3-0.4,4.6-0.6,6.9-1c2-0.3,3.9-1.1,5.8-2.1
		c2.5-1.4,5-2.8,7.7-4.3c0-1.4,0-2.8,0-4.7c2,1.2,3.7,2.2,5.5,3.2c2-1.8,3.1-3.9,3.7-6.3c1-3.7,2-7.4,3.4-11c1.9-4.9,2.6-10,3-15.2
		c0.2-2.2,0.7-4.3,1.5-6.4c0.2-0.5,0.4-1.2,0.8-1.4c2-1.2,2.4-3.3,2.7-5.3c1.4-9.8,4.7-19.1,7.8-28.4c2-5.8,3.8-11.7,4.9-18.2
		c0.5,0.7,1,1,1,1.4c0,1.8,0,3.5-0.1,5.3c-0.1,1.4-0.3,2.7-0.5,4.1c-0.7,0.5-1,1.1-0.1,2.1c0-0.9,0-1.5,0-2.2
		c0.3-0.4,0.7-0.8,0.8-1.2c1-3,1.8-6,2.8-9c0.9-2.6,1.5-5.2,1.9-8c1-7.9,1.7-15.8,2-23.7c0.2-5.4-0.4-10.6-1.3-15.9
		c-1.2-7.5-1.9-15-0.7-22.5c1.6-9.9,2.4-19.8,4.4-29.6c0.9-4.3,1.7-8.6,2.7-12.9c0.5-2.2,0.6-4.3,0.4-6.5
		c-0.6-6.5-1.1-13.1-1.7-19.6c-0.2-2.2-0.5-4.4-0.9-6.5c-0.8-3.5-1.3-7-1.3-10.6c0-6.3-0.2-12.6,0.7-18.9c0.4-2.7,0.5-5.5,0.7-8.2
		c0.7-10.3,3.1-20.3,5.7-30.2c0.9-3.2,1.8-6.3,2.8-9.5c0.9-3,2.1-6,4.1-8.5c-0.3-1.5-0.7-3.1-1.1-4.7c-0.9-0.3-1.1,0.4-1.5,1
		c-0.6,1.1-1.2,2.2-1.8,3.2c-0.4,0.6-0.7,1.4-1.2,1.6c-1.9,0.7-2.4,2.5-3.3,3.9c-2.2,3.6-4.4,7.3-6.7,10.8c-0.9,1.4-1.3,3-1.5,4.6
		c-0.5,4.6-0.8,9.3-1.1,13.9c-0.2,2.9-0.3,5.7-0.3,8.6c0,3.1,0.1,6.3,0.2,9.4c0.3,8.9,0.4,17.8-1.9,26.5c-0.5,1.8-0.4,3.5,0.1,5.3
		c0.4,1.4,0.8,2.9,1.2,4.4c1.8,6.6,2.8,13.4,2.8,20.3c0,3.8,0,7.7-1.5,11.3c-0.4,1-0.4,2.1-0.5,3.2c-0.8,7.1-1.5,14.1-2.2,21.2
		c-0.5,4.9-0.7,9.8-1.1,14.7c-1,12.6-0.7,25.2-0.1,37.8c0,0.1,0,0.3,0,0.4c0.3,8.8,0.7,17.5,1,26.3c0.1,1.5,0.2,3-0.6,4.4
		c-0.5,0.9-1.1,1.1-2.3,0.6c-0.2-0.9-0.5-1.9-0.5-2.9c-0.2-5.7-0.6-11.5-0.4-17.2c0.4-12.7-0.4-25.4-0.1-38.2
		c0.1-3.4,0.4-6.8,1-10.2c0.3-1.5,0.3-3,0.3-4.5c0-8.1,0-16.2,1.1-24.2c0.6-4.5,1.3-8.9,2.2-13.4c0.8-3.8,1-7.5,0.2-11.4
		c-1.2-5.8-2.2-11.6-2.5-17.5c0-0.4-0.1-0.8-0.1-1.2c-2.4-11.2-1.5-22.6-1.4-34c0-5.1,0.4-10.1,0.9-15.2c0.8-7.3,1.4-14.7,4.1-21.7
		c0.7-1.8,1-3.7,2.9-4.8c0.5-0.3,0.7-1.1,1-1.7c3-5.2,5.7-10.6,9.4-15.4c0.7-0.9,1.1-2.2,1.5-3.3c1-3.4,1.8-6.9,2.8-10.3
		c1.8-6.4,2.7-12.8,3.1-19.4c0.2-4.1-0.3-8.2-1.6-12.1c-0.5-1.6-0.9-3.2-1.2-4.8c-0.1-0.4,0.2-0.9,0.3-1.4c1.1,0.1,1.3,0.8,1.5,1.4
		c2,4.7,3.3,9.6,3.9,14.6c0.5,4.3,0.8,8.7,1,13.1c0.2,3.3-0.9,6.5-1.8,9.6c-0.4,1.5-0.9,2.8-0.1,4.3c0.3,0.5,0,1.3-0.2,1.9
		c-0.5,1.4-1.1,2.8-1.7,4.2c-0.5,1.3-0.7,2.6-0.1,4.1c1.6,1.6,3.9,1.6,5.9,2.4c1.4-0.8,2.1-3.1,4.5-2.1c-1.9,3.2-2.5,6.8-3.7,10.1
		c-0.5,1.3-0.9,2.9,0.6,4.2c6.6-1.7,13.3-1.7,19.9-0.8c3.8,0.5,7,2.2,9.2,5.6c0.4,0.6,0.8,1.1,1.1,1.6c0.4,0.2,0.6,0.4,0.8,0.5
		c3.9,0.2,7.4,1.7,11,3.1c5.5,2.1,11.3,3.1,17.2,4c0.6-0.6,1.1-1.5,1.9-1.9c0.8-0.4,1.8-0.5,2.6-0.6c-0.1-0.9-0.1-1.7-0.1-2.4
		c0.5-0.2,0.7-0.5,1-0.5c3.8,0.1,7.2-1.4,10.5-3.2c6.3-3.4,11.8-8,16.4-13.5c0.7-0.8,1.5-1.6,2.2-2.4l-0.1-0.1
		c0.2,1.9-0.9,3.4-1.8,4.9c-2.6,4.1-6.2,7.2-10,10.2c-1,0.8-2.1,1.6-3.9,3c3.9-0.9,6.5-2.7,9.8-4.1c-0.7,1.3-1,2-1.4,2.6
		c-0.4,0-0.9,0-1.2,0.2c-3.2,2.1-6.7,3.6-10.3,5c-0.4,0.1-0.7,0.3-1.1,0.5c-0.2,0.1-0.4,0.3-1.2,0.9c5.5-0.6,9.7-2.3,13.3-5.6
		c0.3-0.2,0.3-0.7,0.5-1c1.8-0.2,2.8-1.6,3.8-2.8c1.6-2,3.1-4.2,4.6-6.3c3.3-4.5,4.8-9.8,6.3-15c1.1-3.7,2-7.4,3.2-11
		c3.2-9.9,3.9-20,1.9-29.4c-0.2-1.2-0.6-2.3-1.2-4.3c-0.6,2-0.4,3.2-0.5,4.5c-0.1,1.2-0.1,2.5-0.2,3.7c-0.1,1.4-0.3,2.7-0.5,4.1
		c-0.2,1.2-0.4,2.4-0.6,3.6c-0.2,1.3-0.4,2.7-0.7,4c-0.2,1.2-0.4,2.4-0.7,3.6c-0.3,1.3-0.5,2.7-0.8,4c-0.2,1.2-0.5,2.4-0.8,3.6
		c-0.3,1.3-0.7,2.6-1.3,3.9c0-0.8-0.1-1.7,0-2.5c1.1-8.4,2.4-16.8,3.4-25.2c0.4-3,0.3-6,0.2-9c-0.1-2.5-0.5-4.9-1.6-7.2
		c-0.3-0.7-0.4-1.5-0.8-2.7c0.9,0.3,1.4,0.5,1.8,0.6l-0.1-0.1c0.3,0.3,0.5,0.6,0.8,0.8c5.4-2.1,9.9-2.1,13.6,0
		c-0.1,0.2-0.3,0.5-0.4,0.5c-1.3,0.2-2.7,0.3-4.3,0.4c1.7,1.4,3.9,1,5.2,2.5l0.1-0.1c-0.7,0-1.4,0.1-2-0.1c-2.4-0.7-4.8-0.8-7.3-0.9
		c-0.9,0-1.8-0.4-2.6-0.6c-0.1,2.5,0.3,3.3,2.6,3.3c2,0,3.7,0.7,5.4,1.6c3.6,1.7,7.1,3.4,10.7,5.2c9.8,4.8,16.9,12.3,21.8,22
		c3,6,5.1,12.3,6.5,18.9c0.3,1.3,0.2,2.7,0.3,4.1l0.1-0.1c-0.3-0.4-0.7-0.8-0.8-1.3c-0.9-3.4-1.5-6.9-2.6-10.3
		c-2.9-9.4-8.1-17.5-15.3-24.2c-3.4-3.3-7.3-6.1-11.8-7.7c-0.1-0.1-0.1-0.2-0.2-0.3c0,0-0.1,0-0.2,0c0.2,0.1,0.3,0.1,0.5,0.2
		c0,0.4,0,0.9,0.2,1.1c4.7,6.7,6.7,14.3,7.9,22.2c1.3,8.3,1.3,16.6,0.8,24.9c-0.1,0.9-0.3,1.9-0.5,2.8c-0.1,0.4-0.4,0.7-0.8,1.3
		c-0.3-1.1-0.5-2-0.7-3c-0.8,5.5,0.1,10.7,1.4,15.8C653.7,269.3,653.9,270.4,654.2,271.4L654.2,271.4z M323.7,126.1
		c0.3,0.3,0.7,0.5,0.8,0.8c1.4,3,2.7,6,4,9c0.3,0.7,0.7,1.4,1.1,2.2c3.6-1.2,6.9-2.3,10.2-3.4c-1-4.4-2.4-7.7-10.5-25.2
		c-0.5,0.3-0.9,0.6-1.3,0.8c-0.7,0.2-1.6-0.2-1.5-0.9c0.2-2.2-1.1-3.6-2.1-5.1c-4-5.7-7.7-11.6-10.7-18c-1.2-2.5-2.6-4.8-4.3-6.9
		c-3.4-4.3-6.6-8.7-9.4-13.4c-4.4-7.4-8.3-15.1-12-22.9c-4-8.5-7.3-17.3-8.3-26.8c-2.6,0.4-4.5,1.6-6.5,2.8
		c-3.6,2.2-7.1,4.7-10.8,6.7c-10.5,5.5-19.9,12.6-29.1,19.8c-5,3.9-9.4,8.4-12.8,13.8c-4.4,6.9-8.3,14.2-11.6,21.7
		c-4.5,9.9-4.6,20.2-2,30.5c4.4,17.3,14.1,31.6,25.7,44.7c0.2,0.2,0.4,0.4,0.6,0.6c0.7,0.7,1.5,1.1,2.5,1.2
		c6.6,0.3,13.1,0.5,19.7-0.4c5.8-0.8,11.5-2.4,17.1-4.1c6.3-2,12.5-4,18.8-5.9c3.9-1.2,7.8-2.3,11.8-3.5c0.9-0.3,1.8-0.5,2.7-0.8
		c2.1-0.7,4.1-1.7,6.2-2.2c4.4-1.1,8.5-3,12.5-5.1c0.7-0.4,1.3-0.9,1.7-1.3c-0.8-3-1.6-5.8-2.3-8.5L323.7,126.1z M329.9,514.5
		c1.2,2,2.2,3.4,3,5c1.2,2.4,2.6,4.8,4.4,6.9c0.6,0.7,1.2,1.5,1.4,2.4c0.4,1.4,1.2,2.1,2.5,2.4c1.2,0.3,2.4,0.6,3.6,0.8
		c5.1,0.7,8.8-1.6,10.5-6.4c0.3-0.8,0.3-1.5,0.1-2.4c-0.2-0.6-0.1-1.4,0.1-2c1.3-4.9,3.5-9.2,7.3-12.6c1.6-1.4,3.4-2.7,5.1-4.1
		c0.6-0.5,1.2-1,2-1.6c-1.1-3.5-2.2-6.9-3.4-10.2c-0.1-0.4-0.3-0.8-0.6-1.1c-1.3-1-1.6-2.5-1.9-4c-2.1-8.4-3.9-16.8-5.3-25.3
		c-1.7-10.3-3.6-20.5-4.8-30.8c-0.5-4.2-1.1-8.4-2-12.6c-0.8-4-1.7-8-1.9-12.1c-0.5-9.3,0-18.6,0.2-27.9c0.1-4.6,0.6-9.3,1-13.9
		c0.4-5.6,0.9-11.2,1.3-16.8c0.4-5.6,0.6-11.2,1.1-16.8c0.3-3.8,0.8-7.6,1.2-11.4c0.1-0.8,0.1-2,0.6-2.3c1.6-1,1.3-2.6,1.6-4
		c0.4-2.4,0.8-4.9,1.2-7.3c0.8-5.3,1.9-10.5,2-15.9c0.1-2.1-0.1-4.1-0.6-6.1c-1.7-5.9-3.3-11.9-4.9-17.8c-0.1-0.4,0-0.8,0-1.2
		c0.4-0.5,0.9-1,1.5-1.6c-0.2-1.6-0.4-3.4-0.6-5.2c-0.6-4.5-1.3-8.9-2-13.4c-1.3-8.5-2.2-17.1-4.1-25.5c-1.9-8-3.7-16-5.7-24
		c-0.5-2.1-0.9-4.2-1-6.4c-0.5-8.5-2.1-16.8-5.6-24.7c-1.2-2.7-2.2-5.6-3.2-8.4c-2-6-4-11.9-6-17.9c-0.2-0.6-0.6-1.2-1-1.8
		c-0.5,0.2-0.9,0.4-1.2,0.6c-3.4,2.7-7.2,4.4-11.4,5.5c-3,0.8-6.1,1.6-9.2,2.3c-3.9,0.9-7.6,2-11.4,3.4c-7.5,2.7-15,5.3-22.5,7.7
		c-11.2,3.5-22.7,4.9-34.4,3c-0.3-0.1-0.7,0.2-1.1,0.3c0.1,0.4,0.1,0.7,0.3,0.9c2.5,2.8,4.2,6,5.1,9.7c0.2,0.7,0.6,1.2,0.9,1.9
		c2.2,4.6,4.5,9.1,6.7,13.7c6,12.5,11.5,25.1,15.7,38.3c1.6,5.1,3.9,9.9,6.7,14.5c3.8,6.2,7,12.7,10,19.3c2.2,4.7,4.5,9.4,6.8,14.1
		c0.9,1.9,1.8,3.7,2.5,5.6c3.1,7.9,5.9,15.9,9.5,23.6c0.6,1.2,1,2.6,1.1,3.9c0.3,3.8,0.3,7.7,0.5,11.5c0.1,1.7-0.2,3.3-1,4.7
		c-0.8,1.5-1.1,3.1-1.4,4.7c-2.3,13.2-3.9,26.5-3.7,40c0.1,7.5-0.1,15.1-0.3,22.6c-0.1,4.3,0.4,8.4,1.3,12.6
		c3.4,14.7,8.3,28.9,14,42.9c5.7,14.1,11.1,28.3,14.8,43.1C327.4,496,329.6,505.1,329.9,514.5z M282.1,17c-0.5,1.5-0.1,2.8,0.4,4.1
		c1.5,4.3,2.8,8.6,4.6,12.7c6.9,15.1,14.8,29.6,23.4,43.8c0.2,0.4,0.4,0.8,0.6,1c1.6,1.4,2.2,3.4,3,5.2c0.8,1.9,1.6,3.8,2.5,5.6
		c2.7,5.1,6,9.8,9.5,14.4c1,1.3,2,2.6,3,4c3.9,1.8,3.9,1.7,8.2,1.1c1.6-0.2,3.3-0.2,4.9-0.2c0.8,0,1.7,0.2,2.3,0.6
		c2.4,1.6,5.1,2,7.7,2.6c2,0.5,3.9,1.2,5.6,2.5c5.4,4,10.6,8.2,15.1,13.3c1.1,1.2,2.2,2.4,2.8,4c0.3,0.7,1.1,1.1,1.6,1.7
		c2.1-3.3,3.9-6.5,6-9.5c3.8-5.4,7.7-10.7,11.5-16c0.9-1.2,1.8-2.4,3.2-3c0.8-0.4,1.5-1.2,2.1-1.9c2.9-3.5,5.8-7,8.6-10.4
		c3.6-4.5,7.3-8.9,10.9-13.4c7.8-9.7,17-17.8,26.9-25.2c3.2-2.4,6.5-4.6,9.7-6.9c0.6-0.4,1.6-0.4,1.7-1.4
		c-5.9-4.6-13.4-9.1-21.2-12.5c-4.6-2-9.3-3.9-14.1-5.6c-13.6-5-27.5-9.1-41.6-12.5c-11.5-2.8-22.8-4.8-38.9-4.4
		c-0.5,0-1.1-0.1-1.6-0.1c-1.8-0.1-3.5-0.3-5.3-0.3c-6.7,0-13.4,0-20.1,0c-1,0-1.9,0-2.9,0.1C302.1,11.5,292,13.2,282.1,17z
		 M383.2,498.6c-0.4-1.1-0.7-2-1-2.9c-1.9-5.1-4-10.2-5.7-15.4c-4.1-13.1-6.1-26.6-7.5-40.3c-0.3-3.4-0.4-6.8-1.9-10
		c-0.4-0.8-0.4-1.9-0.5-2.8c-0.6-6.5-1.2-13.1-1.8-19.6c-0.1-1.1-0.1-2.2-0.2-3.3c-0.2-6.3-0.5-12.6-0.7-18.9
		c-0.3-8.3-0.8-16.7-0.9-25c-0.1-8.5,0.1-17,0.1-25.5c0-2,0.6-4.1-1.1-5.8c-0.3-0.3-0.3-1.1-0.2-1.6c0.6-3.5,1.1-7,2-10.5
		c0.8-2.9,2.1-5.6,3.1-8.5c1.1-3,2-5.9,3-8.9c0.1-6.8,0.3-13.7,0.4-20.5c0-0.5-0.2-1.1-0.3-1.6c-0.7-3.6-1.4-7.2-1.2-11
		c0.1-1.4-0.2-2.7-0.3-4.1c-1.2-9.2-2.4-18.5-3.6-27.7c-1.2-9.4-2.8-18.7-4.7-27.9c-1.7-8-3.6-16-5.3-24.1c-3.2-15-7.5-29.7-13-44
		c-0.4-1-0.9-1.9-1.3-2.8c-3.6,1.5-7,2.9-10.4,4.3c0.5,1.5,1,2.7,1.4,4c2,5.4,4,10.8,5.9,16.2c1.4,4.1,2.7,8.3,4.1,12.5
		c2,6,3.7,12,4.9,18.2c0.5,2.8,0.9,5.7,1.6,8.5c2.1,8.9,4.4,17.8,5.8,26.9c1.9,12.9,3.2,25.8,3.5,38.8c0,2.1,0.4,4.1,0.9,6
		c1.5,5.3,3,10.5,4.3,15.9c0.8,3.3,1.7,6.6,0.1,10c-0.1,0.2-0.1,0.5-0.1,0.8c-0.6,9-3.8,17.4-5.8,26c-0.5,2-1.1,3.9-1.1,6
		c0,1.2-0.2,2.5-0.3,3.7c-0.5,8.7-1.3,17.5-0.8,26.2c0.4,7,0.4,14,0.5,20.9c0,6-0.1,12-0.2,18.1c0,1.4-0.1,2.7-0.1,4.1
		c0,3.4-0.2,6.8,0,10.2c0.8,14.1,3.2,28,6.3,41.8c1.4,6.3,2.6,12.6,3.2,19c0.4,4.4,1.2,8.6,3,12.7c1.7,4,3,8.2,4.5,12.4
		c0.3,0.7,0.6,1.5,1,2.2c1.9-0.4,3.6-0.9,5.4-0.9C379.9,500.5,381.4,499.9,383.2,498.6z M479,533c-2.4,3-3.8,6-4,9.6
		c-0.2,2.7-0.4,5.5-0.8,8.2c-0.2,1.2-0.4,2.5-1.1,3.5c-1.6,2.4-2.2,4.9-2.7,7.8c2.5,1,2.7,4,4.8,5.4c0.3-0.3,0.5-0.6,0.6-0.8
		c1-10.6,1.2-21.2,3.2-31.7C479.2,534.4,479.1,533.9,479,533z M481.5,528.6c2.1-2.9,6.3-19.9,7.2-26.8c-1.9,3.9-3.7,7.4-5.3,10.9
		c-0.4,0.9-1.1,2-0.5,3.1c0.8,1.6,0.3,3.2,0.1,4.8C482.4,523.3,482,525.9,481.5,528.6z M652,242.1c-0.4,2.8-1.4,4.9-0.9,7.5
		C652.6,247.3,652.7,245.1,652,242.1z"/>
	<path d="M683.8,245.3c-0.8-8.4-1.7-14.2-5.7-23.5c-0.6-1.5-1.2-3-1.8-4.5l-0.1,0.1c0.9-0.1,1.1,0.7,1.5,1.2c3.7,5.5,6,11.6,7.6,18
		c2.6,10.4,3.1,21,2.4,31.7c-0.1,1.9-0.6,3.7-1.1,5.6c-0.6-4.4-0.2-8.9-0.8-13.3c-0.9-0.1-1,0.5-1.2,1c-1.2,3.3-2.3,6.7-3.7,10
		c-0.7,1.8-0.7,3.3-0.1,5.1c2,5.6,3,11.3,3.3,17.2c0.1,1.5,0.1,3,0,4.5c-0.1,3.1-0.1,3.1,1.4,5.6c-0.5,0.2-1,0.4-1.5,0.6
		c-0.4,2.1-0.8,4.2-1.2,6.4c-0.1,0.5-0.5,0.9-0.7,1.4l0.1,0.1c0.2-1.9,0.3-3.8,0.5-5.7c0.2-2.1-0.1-3.9-1.4-5.8
		c-3.4-4.6-5-9.9-5.2-15.7c0-1.9,0-3.8,0-5.9c-1.1,0.3-1.1,1.1-1.3,1.8c-1.5,6.3-1.7,12.7-1.3,19.1c0.4,6,1.8,11.8,3.7,17.5
		c0.3,0.9,0.5,1.8,0.8,2.7l0.1-0.1c-0.6-0.2-1.3-0.4-1.9-0.6c0-0.3-0.1-0.7,0-0.4c-0.1-0.3,0,0,0.1,0.3c2.6,7.1,6.1,13.6,12,18.6
		c-1.1,0.6-2.1,0.1-3.1-0.3c-4.9-1.9-9.3-4.6-12.7-8.6c-5.3-6.1-9.7-12.8-13-20.2c-0.3-0.6-0.2-1.3-0.3-2l-0.1,0.1
		c0.7-0.9,0.9-1.8,0-2.6l0.1,0.1c-0.4-2.4-0.9-4.8-1.2-7.3c-1-7.8-1.3-15.5,0.3-23.2c0.3-1.4,0.4-3,1.7-4l-0.1-0.1
		c-0.1,0.9,0,1.9-0.2,2.8c-3.4,15.1-1.1,29.3,6.7,42.7c2,3.4,4.3,6.6,6.7,9.8c1.3,1.7,3,3.1,4.6,4.6c0.3,0.3,0.8,0.5,1.3,0.7
		c0.4-0.9-0.1-1.2-0.3-1.6c-4.6-7.5-6.9-15.7-8.1-24.3c-1-7.5-0.6-15,0.2-22.5c0.2-1.6,0.6-3.2,1.1-5.4c0.6,1.5,0.4,2.5,0.1,3.4
		c-0.6,2.6-0.5,5.1-0.1,7.7c0.8-5.9,2.3-11.5,5.4-16.6c-0.7-1.5-1.4-2.9-2-4.2c0.4-0.6,0.9-0.6,1.4-0.1c0.6,0.7,1.2,1.4,2,2.2
		c0.5-0.9,1-1.6,1.3-2.3c2.8-6.4,5-13,4.6-20.2c0-0.8-0.4-1.5-0.6-2.3L683.8,245.3z M679.1,277.6c-0.3,0.2-0.8,0.4-0.9,0.7
		c-0.4,1.3-0.8,2.6-0.9,3.9c-0.2,5.6,1.2,10.8,3.9,15.7c0.2,0.4,0.7,0.7,1.2,1.3C682.9,293,681.5,283.7,679.1,277.6z"/>
	<path d="M626.3,188.5c0.1-0.4,0.1-0.8,0.2-1.4c-1.2-0.1-2.3-0.1-3.5-0.2l0.1,0.1c-0.1-0.7-0.2-1.3-0.3-1.9c1.1-1.4,2.9-1.1,4.5-2
		c0.2-0.3,0.4-1,0.8-1.5c0.6-0.7,1.2-1.5,1.9-2.1c0.4-0.4,0.9-0.6,1.4-0.7c6.4-2.1,13-3.3,19.7-2.4c1.5,0.2,2.9,0.6,4.4,0.3
		c1.5-0.2,2.9,0.5,4.2,1.3c2.8,1.7,5.4,3.8,7.4,6.4c4,5.2,8.2,10.3,10.9,16.3c2,4.6,4.5,9,6.7,13.5c3.9,7.8,6.1,16.1,7.2,24.7
		c1.3,9.9,1.2,19.9,0,29.8c-0.5,3.8-1,7.6-3.2,10.9l0.1,0.1c0.1-0.9,0.2-1.9,0.4-2.8c0.7-3.2,1.7-6.3,0.6-9.6
		c-0.2-0.7,0-1.6,0.1-2.4c0.9-6.4,1.1-12.7,0.5-19.1c-0.2-2.2-0.6-4.3-0.8-6.4l-0.1,0.1c1.1-0.6,0.9-1.6,0.7-2.5
		c-0.6-4.1-1.6-8-3.1-11.9c-2.5-6.1-5.1-12.2-8.9-17.5c-2.1-3-4.6-5.8-7-8.6c-0.9-1-2.1-1.7-3.2-2.5c-4.3-3-8-6.6-11.1-10.9
		c-0.8-1.1-1.4-2.3-2-3.3c0.4-1.2,1.1-1.1,1.8-1c0.6,0.1,1.3,0.3,2.9,0.6c-1.2-1-1.6-1.5-2.1-1.8c-2.5-1.3-5.2-1.7-8-1.4
		c-4.5,0.4-9,0.9-13.4,1.9c-2.1,0.5-3.9,1.2-5,3.1c-0.3,0.6-0.8,1-1.6,2c3.3-0.4,6.1-0.7,9,0c-1.5,0.1-3,0.3-4.5,0.4
		C631.2,186.5,628.7,187.6,626.3,188.5L626.3,188.5z M677.1,202.6c-0.3-0.3-0.6-0.6-0.9-0.8c-0.2-0.7-0.3-1.6-0.7-2.2
		c-4.3-6.1-9.5-11.2-16-14.9c-0.3-0.2-0.8-0.2-1.2-0.2c-0.1-0.1-0.1-0.2-0.2-0.3c0,0-0.2,0-0.2,0c0.2,0.1,0.3,0.2,0.5,0.2
		c-0.2,0.8,0.3,1.3,0.7,1.7c2.2,2.2,4.4,4.5,6.7,6.5c3.4,3.1,7,6,10.5,9.1c0.3,0.3,0.6,0.6,0.9,0.8l0.1,0.2L677.1,202.6z M690.6,241
		l0.1,0.3l0.1-0.3L690.6,241z"/>
	<path d="M664.9,342.9c-1.8-0.9-2.6-2.7-3.6-4.3c-3.2-4.9-5.7-10.2-7.9-15.7c-2-5-3.5-10.2-4.3-16.3c-0.7,1.3-1.1,1.9-1.5,2.6
		c-0.8,1.7-1.6,3.5-2.5,5.1c-0.7,1.2-1.6,2.2-2.6,3.2c-0.7,0.7-1.6,0.9-2.8,0.6c0.3-1.1,1.4-1.2,1.8-1.9c0.4-0.7,0.8-1.4,1.3-2.1
		l-0.1,0.1c0.8-0.4,0.7-1.1,0.7-1.8c0,0,0.1,0.1,0.1,0.1c-0.3,0-0.6-0.1-0.8-0.1l0.1,0.1c0.2-0.8,0.3-1.6,0.6-2.3
		c0.7-1.7,1.6-3.4,2.3-5.2c0.3-0.7,0.2-1.6,0.4-2.3l-0.1,0.1c1.9-2,2.3-4.6,2.7-7.2c0.4-3,0.7-6,1-9c0.1-0.8,0.2-1.6,1.1-2.8
		c0.3,3.5,0.3,6.3,0.1,9.1c-0.2,2.7-0.4,5.5-0.9,8.2c-0.4,2.4-0.3,4.7,0.3,6.9c2.3,8.8,5.6,17.1,10.8,24.7c0.2,0.3,0.5,0.7,0.8,1.1
		c0.7-1.3-0.1-2-0.4-2.8c-2.2-5-3.8-10.2-5-15.6c-0.3-1.5-0.5-2.9-0.3-4.5c2,8.5,5,16.6,9.5,24.1c4.5,7.6,9.8,14.5,17.4,20.1
		c-1.1,0.1-1.6,0.3-2.1,0.1c-1.5-0.6-3.2-1.2-4.4-2.2c-3.1-2.6-7.3-3.8-9.6-7.4c-0.2-0.3-0.2-0.8-0.3-1.1l-0.1,0.1
		c0.8,0.5,1.7,1.1,2.5,1.6c0,0.6,0.2,0.9,0.9,0.8c0,0.7,0.3,0.9,0.9,0.7c0,0.3-0.4,0.7,0.3,0.6c-0.1-0.2-0.3-0.3-0.4-0.5
		c-0.3-0.3-0.6-0.5-0.9-0.8c0-0.5-0.2-0.9-0.8-0.8c0-1.7-1.1-2.7-2.1-3.7C666.1,341.8,665.3,342.3,664.9,342.9L664.9,342.9z"/>
	<path d="M576.1,198.4c-0.8-4.5-2.9-6.1-7.3-5.6c-1.4,0.2-2.7,0.5-4.1,0.6c-2.6,0.3-5.2,0.2-7.5-1.2c-0.7-0.4-1.5-0.8-2.4,0.1
		c0.6,1,1.4,2,1.9,3c0.2,0.4,0.1,1.1-0.1,1.5c-0.3,0.6-1,0.5-1.4,0.2c-2.3-1.3-3.3-3.4-3-5.8c0.2-1.2,1-2.1,2.2-1.9
		c1.7,0.2,3.5,0.7,5.2,1.1c0.8,0.2,1.6,0.5,2.3,0.5c0.8,0,1.6-0.1,2.4-0.3c1.6-0.3,3.1-0.6,4.7-0.9c0.2-2.2-2.1-2.1-2.7-3.4
		c0.1-0.8,0.7-0.8,1.1-0.6c2.1,1.2,4.3,1.3,6.7,1.1c2.4-0.3,4.9,0,7.4,0.4c-1.3,0.5-2.7,0.6-4,0.7c-1.6,0.2-3.3,0.3-4.9,0.6
		c-0.4,0.1-0.6,0.7-0.9,1c0.3,0.3,0.4,0.4,0.5,0.5c4.2,1.4,4.3,1.4,6.2,5.6c1.1,2.5,1.8,5.1,2.6,7.7c0.3,1.1,0,1.9-1,2.4
		c-1.2,0.6-2.4,1.6-3.7,1.6c-2.9,0.1-4.3,2.1-5.8,4c-0.6,0.8-1.1,1.8-1.6,2.6c-1.4-0.3-1.3-1.5-1.7-2.3c-0.4-0.8-0.1-1.7,0.6-2.2
		c2.1-1.4,4.1-3.2,6.8-3.7c1.5-0.3,2.9-0.9,4.2-2.1c-0.4-0.7-0.7-1.4-1.1-2l0.1,0.1c-0.2-1.3-0.8-2.5-1.7-3.4L576.1,198.4z"/>
	<path d="M583.8,234.8c-0.7,0.4-1-0.2-1.2-0.6c-1-2.2-1.9-4.5-1.7-7.1c0.2-2,0.3-4.1,0.5-6.1c0.2-1.8,0.9-3.2,2.2-4.7
		c2.7-2.9,5-6.1,7.4-9.2c3-3.8,6.6-6.9,10.7-9.4c0.3-0.2,0.7-0.4,1.1-0.6c0.1,0,0.2,0,0.5,0.1c-1.1,1.6-2.6,2.7-4,3.9
		c-4.4,3.7-8.2,8-10.8,13.2c-1.2,2.3-2.2,4.7-2.5,7.3c-0.1,0.8-0.5,1.5-0.8,2.3c0,0.1-0.3,0.1-0.5,0.1c-0.8-0.9-0.3-2-0.2-3
		c0.1-0.9,0.4-1.9,0.6-2.9c-1.8,1.1-2.2,1.5-2,2.8c0.3,1.9,0.9,3.7,1.3,5.5c0.1,0.4,0.3,0.7,0.4,1c-0.8,1-1.6-0.1-2.4,0.2
		C582.1,230.3,582.1,230.3,583.8,234.8z"/>
	<path d="M577.7,201.5c0,1-0.1,2-1.2,2.3c-1.3,0.4-2.6,0.8-4,1c-1.6,0.3-3.2,0.5-4.6,0.8c-1.4-1.3-2.3-2.6-2.2-4.3
		c-0.3-0.1-0.5-0.3-0.8-0.2c-3.2,0.7-3.5,0.4-3.9-2.7c-0.1-0.4-0.2-0.8-0.2-1.2c-0.1-0.4-0.1-0.7-0.1-0.9c1.9-0.6,3.7-1,5.5-1.7
		c3.9-1.4,6.7-0.6,9.2,2.8c0.2,0.3,0.5,0.6,0.8,0.9l-0.1-0.2c0.2,1.3,0.1,2.8,1.7,3.4L577.7,201.5z M572.4,199.5
		c0.1,0.8,0.3,1.4,0.4,2c0.1,0.6,0.5,1,1.1,0.8c0.2-0.1,0.5-0.7,0.4-1c-0.2-0.9-0.5-1.8-0.8-2.7c-0.8-2.2-2-3-4.3-2.8
		c-1.7,0.2-3.1,0.9-4.5,2.1c1.1,0.4,1.9,0.7,2.9,1c0.2,1.6,0.4,3.2,0.6,4.9c1.1-0.3,1.9-0.5,2.6-0.6
		C571.6,201.9,570.9,200.4,572.4,199.5z"/>
	<path d="M553.7,244.7c0.3,2.4,0.7,4.8,0.9,7.2c0.1,1.2,0,2.5-0.2,3.7c-0.5,2.7-2.2,5.2-1.3,8.7c-2.4-2.1-2.2-4.1-2-6
		c-1.7-1.9-3.3-3.7-5.2-5.9c-0.3,0-1.1,0-1.9,0c1.9-2.8,1.9-2.8,7.1-5.3c0.8,1.3-1,1.7-1,3.2c0.1,0.1,0.6,0.4,1,0.7
		c0.3,0.2,0.7,0.5,1,0.4c0.3-0.1,0.6-0.6,0.6-0.9c-0.1-1.2-0.3-2.4-0.3-3.6C552.3,245.9,552.3,244.9,553.7,244.7z"/>
	<path d="M521.7,204.8c-0.4-1.7,0.1-2.6,0.8-3.4c3.5-3.4,7.3-6.1,12.3-6.8c4.4-0.6,8.4,0.3,11.9,3c0.2,0.1,0.2,0.5,0.4,0.9
		c-0.4,0-0.8,0.1-1.1,0c-6.5-2.9-12.7-2.4-18.6,1.7C525.6,201.5,523.9,203.1,521.7,204.8z"/>
	<path d="M562.5,182c0.6-0.3,1.1-0.7,1.7-0.8c2.8-0.6,5.6-1.1,8.5-1.6c2.3-0.4,4.6-0.8,6.8-1.3c4.2-0.9,8.3-1.8,12.4-2.6
		c1-0.2,2.2-0.4,3,1.1c-2.3,0.4-4.4,0.7-6.5,1.2c-2.2,0.5-4.7,0.4-6.5,2.2c-0.4,0.4-1.3,0.5-1.9,0.6c-5.5,0.2-10.9,1.2-16.3,2.1
		c-0.4,0.1-0.8-0.1-1.2-0.1C562.6,182.4,562.6,182.2,562.5,182z"/>
	<path d="M461,567.1c1.2-3.3,2.1-6.8,3.7-9.9c2.3-4.2,3-8.7,3.7-13.3c0.5-3.5,1.1-7,1.7-10.5c0.2-0.9,0.6-1.8,1.1-3.2
		c0.3,0.8,0.6,1.1,0.6,1.4c-1,6.8-2.1,13.5-3.2,20.2c-0.2,1.1-0.4,2.2-1,3.1c-1.3,1.9-2,3.9-2.6,6
		C464.4,563.4,463.3,565.5,461,567.1z"/>
	<path d="M586.5,236.4c-0.3-3.6-0.5-7.3-0.1-11.4c1.9,1.5,0.7,3.6,2,5.1c3-2.9,6-5.8,9.3-8.3c0.1,0.4,0.3,0.5,0.2,0.6
		c-1.1,1.4-2.2,2.7-3.3,4.1c-0.9,1.1-1.7,2.1-2.6,3.2c-1.5,1.8-2.2,3.8-1.4,6.1c0.2,0.5,0.1,1,0.1,2.1c-0.9-0.8-1.5-1.3-2.1-1.8
		C588,236.5,587.5,237.3,586.5,236.4z"/>
	<path d="M668.8,244.6c-0.9-1.2-1.3-1.6-1.6-2.1c-4.1-8-8.2-16.1-12.2-24.2c-1.3-2.7-2.5-5.4-3-9.3c0.7,1.1,1,1.5,1.2,1.9
		c1.8,3.7,3.5,7.4,5.3,11.1c2.4,4.9,5,9.7,7.4,14.6C667.1,238.9,668.2,241.2,668.8,244.6z"/>
	<path d="M595,262.5c-1.3,0-2.7-0.1-4-0.1c-0.1,0-0.2-0.2-0.4-0.4c1.2-1.6,3.2-1.1,4.7-1.8c1.4-0.7,3-1.2,4.5-1.8l-0.1-0.1
		c-0.3,0.9-0.4,1.9-0.9,2.6c-1.9,3-4.1,5.7-6.8,8c-0.6,0.5-1.4,0.8-2.2,1c-0.4,0.1-1-0.1-1.5-0.2c0.6-2.9,2.2-4.7,4.7-5.8
		C593.8,263.6,594.3,262.9,595,262.5c0.2-0.1,0.4-0.1,0.6-0.2c0.1,0,0.2-0.1,0.3-0.2c-0.2-0.1-0.5-0.2-0.6-0.2
		C595.2,262,595.1,262.3,595,262.5z"/>
	<path d="M567.2,178.2c-4.4,0.6-8.6,1.1-13.4,1.8c4.1-3.5,8.5-2,12.6-2.6c0.5-0.8,0.8-2,1.6-2.6c1.1-0.8,2.4-1.3,3.7-1.5
		c5.2-1,10.5-1.7,15.9-0.7c-1.3,0.2-2.5,0.3-3.8,0.5c-1.2,0.1-2.5,0.2-3.7,0.4c-3.1,0.5-6.2,1-9.3,1.7
		C568.7,175.6,568.7,175.8,567.2,178.2z"/>
	<path d="M622.5,203.4c1.4,0.6,1.1,1.6,1.2,2.5c0.2,6-2.4,16.3-5.5,21.8c0.1-1.3,0.1-2,0.3-2.7c1.1-4.9,2.2-9.9,3.2-14.8
		c0.3-1.7,0.3-3.5,0.5-5.3C622.1,204.4,622.3,204,622.5,203.4z"/>
	<path d="M557.9,268.9c-0.3-0.4-0.7-0.6-0.7-0.8c0-0.4,0.1-0.8,0.3-1.1c1.9-2.6,3-5.4,4-8.4c0.7-2.1,1.6-4,3.6-5.9
		c0.1,3.8-1.1,7-2.2,10C562.1,265.2,560.1,267.3,557.9,268.9z"/>
	<path d="M511.4,153c-1.5-1.3-0.9-3-1.1-4.5c-0.2-1.6-0.4-3.2-0.7-4.8c-0.3-1.5-0.7-2.9-1.1-4.3c-0.5-1.5-1.1-3-1.6-4.5
		c0.8-0.5,1.1,0.1,1.4,0.5c1.9,2.2,3,4.9,3.6,7.7C512.5,146.3,512.6,149.7,511.4,153z"/>
	<path d="M603.9,235.2c-0.2,0.4-0.3,0.8-0.5,1c-2.7,2.5-5.4,5-8.1,7.6c-0.1-1.2,0.9-2.4,0.1-3.7c-0.2-0.2,0.4-1,0.7-1.4
		c1.7-2.5,4-4.4,6.9-6.4c-0.3,2-1.9,2.7-2.4,4c0.7,0.8,1.1-0.1,1.7-0.3C602.8,235.8,603.4,235.6,603.9,235.2L603.9,235.2z"/>
	<path d="M608.1,239.4c-0.1,0.4,0,0.9-0.3,1.1c-4.3,4.2-8.3,8.7-13.2,12.2c-0.7,0.5-1.4,0.8-2.2,1.1c-0.1,0.1-0.4-0.2-0.7-0.4
		c0.2-0.3,0.4-0.7,0.7-0.9c4.8-4.1,9.6-8.2,14.4-12.2C607.1,239.8,607.7,239.7,608.1,239.4L608.1,239.4z"/>
	<path d="M650.1,326.3c1.1,7.7,4,14.5,9.4,20.1c-0.6,0.7-1,0.2-1.4-0.1c-2-1.5-3.5-3.5-4.7-5.6C650.9,336.2,649.8,331.4,650.1,326.3
		z"/>
	<path d="M481.9,356.1c-0.6-0.3-0.9-0.4-1-0.6c-1.9-2.9-2.8-6.1-3.9-9.3c-0.1-0.3,0.1-0.8,0.4-1c0.2-0.2,0.8-0.2,1,0
		c1.6,1.4,2.1,3.4,2.8,5.3C481.8,352.1,482.7,353.9,481.9,356.1z"/>
	<path d="M573.3,221c-1.5,0.5-1.8-0.4-2-1.1c-0.8-2.9-0.5-5.7,1.1-8.3c0.7-1.2,1.6-2.2,3.2-2.8c0,0.4,0.1,0.8,0,1
		C573.6,213.2,572.9,216.9,573.3,221z"/>
	<path d="M579.8,223.3c-1.1-0.2-1.6-0.1-1.8-0.3c-0.4-0.4-0.7-0.9-0.8-1.4c-0.9-3.7-0.8-7.3,0.7-10.8c0.2-0.4,0.6-0.8,1.5-1.9
		C578.4,214.1,578.5,218.5,579.8,223.3z"/>
	<path d="M683.7,245.2c0,5.5-1.2,10.8-3.7,15.7c-0.1-2.9,1.3-5.5,1.6-8.3c0.3-2.8,0.5-5.7,0.7-8.6c1.1-0.4,0.7,1.2,1.5,1.3
		L683.7,245.2z"/>
	<path d="M660,270.7c-0.4-3-0.2-5.9-0.1-8.9c0.1-3.1,0.2-6.3-0.6-9.4c-0.2-0.8,0-1.6,0-2.4l-0.1,0.1c1,1.5,1.6,3.2,1.6,5
		c0,4.9-0.1,9.8-0.2,14.7C660.5,270,660.1,270.3,660,270.7L660,270.7z"/>
	<path d="M656.7,300.9c-0.9,0.6-1.1,1.5-1.1,2.5c0,1.6,0,3.2-0.4,4.9c0-2.5,0-5-0.1-7.5c-0.1-2.4-0.4-4.9-0.6-7.3
		c0-0.3,0.2-0.7,0.3-1.1c1.1,0.7,0.8,1.7,0.9,2.6c0.2,1.1,0.2,2.2,0.4,3.2c0.1,0.9,0.4,1.9,0.5,2.8L656.7,300.9z"/>
	<path d="M593.2,242.2c-1-3.3-0.4-5.8,0.7-8.9c0.1,1.8,0.1,3,0.1,4.2C594,238.9,594.4,240.3,593.2,242.2z"/>
	<path d="M455.6,344.7c0.1-1.4,1-1.6,1.7-1.4c1.7,0.3,3.6,0.6,4.6,3.1C459.5,345.9,457.5,345.5,455.6,344.7z"/>
	<path d="M641.5,280.1c0,3.6,0,7.3,0,10.9c-0.1,0-0.2,0-0.2,0c0-3.7,0-7.4,0-11C641.4,280.1,641.5,280.1,641.5,280.1z"/>
	<path d="M601.6,253.4c-1.3,1.8-2.9,3.2-4.8,4.3c-0.9,0.5-1.9,1.1-3.3,0.2C596.5,256.7,598.7,254.4,601.6,253.4L601.6,253.4z"/>
	<path d="M397.3,138.2c-1.4,1.6-2.9,2.9-5.4,3.6c0.2-0.7,0.1-1.2,0.3-1.4C393.7,139.1,395.3,138.3,397.3,138.2z"/>
	<path d="M594.1,218.8c-0.2,0.6-0.3,1.3-0.7,1.8c-1,1.2-2.1,2.4-3.2,3.6C590.4,221.8,590.6,221.5,594.1,218.8L594.1,218.8z"/>
	<path d="M621.2,195c0.1,2.5-0.5,4.8-2.5,6.5l0.1,0.1C619.3,199.3,619.7,196.9,621.2,195L621.2,195z"/>
	<path d="M482.9,369.8c-1.3-0.7-1.6-1.6-0.9-3C483.3,367.6,483.4,368.6,482.9,369.8z"/>
	<path d="M401.4,137c1.1,0,1.9,0,2.8,0C402.9,138.5,402.9,138.5,401.4,137z"/>
	<path d="M675.5,246.8c1.1,1.5,0.6,3.1,0.3,4.7c-0.1-0.8-0.2-1.6-0.3-2.3C675.5,248.3,675.6,247.5,675.5,246.8L675.5,246.8z"/>
	<path d="M491.1,253.1c0.3,1.2,0.7,2.3-0.8,3.3C490,255,490.4,254.1,491.1,253.1z"/>
	<path d="M657.3,303.7c0.3,0.2,0.6,0.4,0.8,0.6c0.3,0.3,0.7,0.6,1,0.9l-0.1-0.1c0,0.9,0,1.8,0,2.6l0.1-0.1
		C657.9,306.6,657.6,305.1,657.3,303.7L657.3,303.7z"/>
	<path d="M522.2,167.1c0.4,0.9,0.6,1.6-0.3,2.1C520.8,168.3,522,167.7,522.2,167.1z"/>
	<path d="M645.3,300.9c-1.7-0.4-1.7-1.8-1.8-3.1l-0.1,0.1c1.1,0.8,1.3,2,1.7,3.1L645.3,300.9z"/>
	<path d="M460.5,353.1c-1.2,0.7-1.6-0.2-2-0.8c-0.1-0.1,0.1-0.5,0.2-0.7c0.1-0.1,0.5-0.1,0.6,0C459.8,352.1,460.1,352.6,460.5,353.1
		z"/>
	<path d="M503.5,127.3c0.5,0.6,1.2,1.2,0.6,2.1C504,128.7,502.9,128.2,503.5,127.3z"/>
	<path d="M521.5,173c0.9,1.1,0.8,2.1,0,3.3C520.7,175.2,520.7,174.2,521.5,173z"/>
	<path d="M623,186.8c-1.8,1.2-1.8,1.2-2.8-0.6c1.2-0.7,1.8,0.9,2.9,0.7L623,186.8z"/>
	<path d="M474.9,340.3c-0.1-0.2,0.1-0.5,0.2-0.7c0.3,0.2,0.7,0.2,0.8,0.5c0.2,0.3,0.2,0.7,0.1,1.1c0,0.1-0.6,0.2-0.7,0.1
		C475.2,341,475,340.6,474.9,340.3z"/>
	<path d="M588.8,239.2c0,0.7,0,1.3,0,2.2C588.3,240.5,588.1,239.9,588.8,239.2z"/>
	<path d="M688.8,236.8c-0.5-0.4-0.9-0.9-0.4-1.8c0.1,0.8,0.2,1.4,0.3,1.9L688.8,236.8z"/>
	<path d="M689.5,239.4c-1-0.6-0.7-1.7-0.8-2.6l-0.1,0.1c1,0.6,0.7,1.7,0.8,2.6L689.5,239.4z"/>
	<path d="M618,250.9c0.1-0.5,0.2-1,0.3-1.7c0.6,0.9,0.3,1.3-0.4,1.6L618,250.9z"/>
	<path d="M682,312.5c0,0.6-0.1,1.3-0.1,2.1c-0.7-0.9-0.5-1.5,0.2-2L682,312.5z"/>
	<path d="M656.6,301c0.2,0.9,0.4,1.8,0.7,2.7l0.1-0.1c-0.7-0.8-0.8-1.7-0.7-2.7L656.6,301z"/>
	<path d="M642.8,295.1c-1-0.2-0.6-0.9-0.4-1.6C642.5,294.1,642.6,294.7,642.8,295.1L642.8,295.1z"/>
	<path d="M643.5,297.7c-1.2-0.6-0.8-1.7-0.7-2.6l-0.1,0.1c0.7,0.7,0.8,1.7,0.7,2.6L643.5,297.7z"/>
	<path d="M678,320.8c0.2,0.1,0.4,0.3,0.5,0.4c0,0.1-0.2,0.3-0.3,0.5c-0.1-0.1-0.2-0.2-0.2-0.3c0-0.2,0-0.5,0.1-0.7L678,320.8z"/>
	<path d="M488.6,244.4c-0.1,0-0.2-0.1-0.2-0.1c0-0.1,0-0.2,0.1-0.4c0.1,0,0.3,0.1,0.3,0.1C488.7,244.2,488.6,244.3,488.6,244.4z"/>
	<polygon points="641.9,186.3 641.9,186.5 641.6,186.4 	"/>
	<path d="M655,273c-0.9-0.2-0.9-0.9-0.8-1.6l-0.1,0.1C655,271.7,654.9,272.5,655,273L655,273z"/>
	<path d="M680.9,316.3c0,0.1,0.1,0.2,0.1,0.3c0,0.1-0.1,0.2-0.2,0.3c0-0.1-0.1-0.2-0.1-0.3C680.8,316.4,680.8,316.3,680.9,316.3z"/>
	<polygon points="464.8,498.9 464.9,499.2 464.7,499.2 	"/>
	<path d="M617.9,250.8c0.1,0.7,0.1,1.4-0.8,1.8l0.1,0.1c0.3-0.6,0.5-1.2,0.8-1.8L617.9,250.8z"/>
	<path d="M618.7,201.5c0,0.3-0.1,0.7-0.1,0.4c-0.1,0.3,0,0,0.2-0.3L618.7,201.5z"/>
	<path d="M640.1,193.4c0.4,0.1,0.8,0.1,1.5,0.2c-0.9,0.5-1.2,0.2-1.4-0.3L640.1,193.4z"/>
	<path d="M642.7,314.2c-0.9-1-0.9-1,0-1.7l-0.1-0.1c0,0.6,0,1.2,0,1.8L642.7,314.2z"/>
	<path d="M676.3,217.3c-0.1-0.3-0.3-0.5-0.2-0.3C676.1,216.8,676.2,217.1,676.3,217.3L676.3,217.3z"/>
	<path d="M482.2,360.9c-0.1,0.2-0.2,0.4-0.3,0.6c-0.1-0.1-0.2-0.2-0.2-0.3c0-0.2,0.2-0.4,0.3-0.6C482,360.7,482.1,360.8,482.2,360.9
		z"/>
	<path d="M431.5,109.5c0.2,0.3,0.3,0.6,0.1,0.2C431.7,110.1,431.7,109.8,431.5,109.5L431.5,109.5z"/>
	<path d="M645.2,301c0.5,0.5,0.9,1.1,0.6,1.9l0.1-0.1c-0.2-0.6-0.4-1.3-0.6-1.9L645.2,301z"/>
	<path d="M643.1,194.7c0-0.1,0.1-0.1,0.1-0.2c0.1,0.1,0.1,0.2,0.2,0.3C643.4,194.7,643.3,194.7,643.1,194.7z"/>
	<polygon points="687.5,232.7 687.5,233.1 687.3,233 	"/>
	<path d="M604,235.3c0.4-0.7,1.1-0.7,1.8-0.7l-0.1-0.1C605.1,234.8,604.5,235,604,235.3L604,235.3z"/>
	<path d="M486.2,238c-0.1,0-0.1,0.1-0.2,0.1c0-0.1-0.1-0.2-0.1-0.3c0.1,0,0.2-0.1,0.4-0.1C486.2,237.8,486.2,237.9,486.2,238z"/>
	<polygon points="672.7,275.6 672.6,275.9 672.6,275.6 	"/>
	<path d="M665.7,343.7c-0.6,0.1-0.8-0.3-0.9-0.8c0,0-0.1,0.1-0.1,0.1c0.6-0.1,0.8,0.3,0.8,0.8L665.7,343.7z"/>
	<path d="M666.6,344.5c-0.6,0.1-0.8-0.2-0.8-0.8l-0.1,0.1c0.3,0.3,0.5,0.5,0.8,0.8L666.6,344.5z"/>
	<path d="M594.9,218c0,0.5-0.3,0.8-0.8,0.8l0.1,0.1C594.4,218.6,594.7,218.3,594.9,218L594.9,218z"/>
	<path d="M626.2,188.4c-0.3,0.3-0.6,0.6-0.8,0.9l0.1,0.1C625.7,189.1,626,188.8,626.2,188.4L626.2,188.4z"/>
	<path d="M595.7,217.2c-0.3,0.3-0.5,0.5-0.8,0.8l0.1,0.1C595.2,217.8,595.5,217.5,595.7,217.2L595.7,217.2z"/>
	<polygon points="603.1,216.4 603,216.6 603.2,216.5 	"/>
	<polygon points="595.8,217.2 595.9,217.1 595.7,217.2 	"/>
	<path d="M603.2,216.5c0.3-0.3,0.6-0.5,0.8-0.8l-0.1-0.1C603.7,215.9,603.4,216.1,603.2,216.5L603.2,216.5z"/>
	<polygon points="604,215.7 604.2,215.5 604,215.6 	"/>
	<path d="M590.8,198.2c0,0.1-0.1,0.2-0.1,0.3C590.8,198.4,590.9,198.4,590.8,198.2L590.8,198.2z"/>
	<polygon points="431.6,109.5 431.4,109.4 431.5,109.5 	"/>
	<polygon points="621.3,195.1 621.5,194.8 621.2,195 	"/>
	<path d="M647.5,281.4c0.1,0,0.2,0,0.3,0C647.7,281.4,647.6,281.4,647.5,281.4L647.5,281.4z"/>
	<path d="M688.7,279.7c-0.2,0.2,0.1,0,0.1,0.1L688.7,279.7z"/>
	<polygon points="654.9,273.1 655.1,273.2 655,273 	"/>
	<polygon points="599.9,258.3 600.1,258.2 599.8,258.2 	"/>
	<polygon points="601.6,253.5 601.7,253.3 601.6,253.4 	"/>
	<polygon points="659.3,250 659,250 659.2,250.1 	"/>
	<path d="M608.1,239.4c0.3-0.3,0.5-0.5,0.8-0.8l-0.1-0.1C608.9,239.1,608.6,239.4,608.1,239.4L608.1,239.4z"/>
	<path d="M609,238.6c0.3-0.3,0.6-0.5,0.8-0.8l-0.1-0.1C609.4,238,609.1,238.3,609,238.6L609,238.6z"/>
	<path d="M609.8,237.8c0.1-0.1,0.1-0.2,0.2-0.3c-0.1,0.1-0.2,0.1-0.3,0.2L609.8,237.8z"/>
	<polygon points="605.8,234.7 605.8,234.4 605.7,234.6 	"/>
	<path d="M344.1,521.8c-0.3,0.2-0.4,0.3-0.5,0.3c-3.6,0-6.5-1.5-8.8-4.3c-0.7-0.9-1.1-1.8-1.1-3c0.1-5.7-1-11.4-1.5-17.1
		c-0.2-1.9-0.5-3.7,0.3-5.6c3.4,3.1,5.2,14.4,4.3,25.1C338.8,519.3,342.4,519,344.1,521.8z"/>
	<path d="M346.5,316.7c2.3,2.7,3.3,5.6,4.2,8.6c0.5,1.7,0.8,3.4-0.2,5.2c-0.4-0.1-1-0.1-1.1-0.3c-1-4.2-2.9-8.2-3.3-12.5
		C346.2,317.5,346.3,317.4,346.5,316.7z"/>
	<path d="M314.8,342c-0.9,4.2-1.8,8.4-2.8,13.2C311,350.4,311.8,346.2,314.8,342z"/>
	<path d="M345.3,270.4c-0.3-3.4,0.8-6,2-8.7c1.4,0.6,1.3,1.6,1.2,2.5C348.3,266.5,347.8,268.7,345.3,270.4z"/>
	<path d="M294.7,251.8c-2.2-2.1-2.6-4.7-3.1-7.3c1.2-0.3,1.3,0.5,1.5,1C294.7,248.8,294.9,249.7,294.7,251.8z"/>
	<path d="M327.9,461.9c0.6,2.4,1.6,4.6,1.4,7.4c-1.6-1.9-1.6-4-1.8-6C327.4,462.8,327.8,462.4,327.9,461.9z"/>
	<path d="M328.8,474.2c1.3,2,1.7,3.5,1.5,5.3C328.9,478.1,328.3,476.6,328.8,474.2z"/>
	<path d="M333.5,489.4c-1.6-1.6-1.3-3-1.5-5C333.6,486.1,333.6,487.5,333.5,489.4z"/>
	<path d="M311.7,367.4c-0.6-1.2-0.7-2.3-0.2-3.5c0.7-0.2,1,0.3,1.1,0.8C312.8,365.5,312.7,365.5,311.7,367.4z"/>
	<path d="M297.7,258.6c1.1,0.6,1.5,1.5,1.8,3.1C298,260.7,297.1,260.1,297.7,258.6z"/>
	<path d="M302.4,267.9c0.2,0.9,0.4,1.9,0.7,3C301.5,270.1,301.5,270.1,302.4,267.9z"/>
	<path d="M313.5,330.1c-0.8-1.4-0.5-2.5,0-3.9C314.1,327.6,314.5,328.7,313.5,330.1z"/>
	<path d="M338.6,306.4c0.2,0.5,0.4,1,0.6,1.5c0,0.1-0.4,0.4-0.6,0.3c-0.6-0.2-0.9-0.6-0.7-1.2C337.9,306.8,338.2,306.7,338.6,306.4z
		"/>
	<path d="M310.5,377.2c0,0.5,0,0.9-0.1,1.4c-0.1,0-0.2,0-0.3,0c0-0.5,0-0.9,0-1.4C310.2,377.2,310.3,377.2,310.5,377.2z"/>
	<path d="M341.4,275.1c0.1,0,0.2,0,0.3,0c0.1,0.1,0,0.2,0.1,0.3c-0.1,0-0.3,0-0.4-0.1C341.4,275.3,341.4,275.2,341.4,275.1z"/>
	<path d="M343.4,312.7c-0.1,0.1-0.2,0.2-0.3,0.3c-0.1-0.2-0.2-0.5-0.3-0.7c0-0.1,0.2-0.2,0.3-0.3
		C343.2,312.2,343.3,312.4,343.4,312.7z"/>
	<path d="M338.8,280c0.2,0.1,0.4,0.3,0.4,0.3c-0.1,0.2-0.2,0.4-0.3,0.5c-0.1-0.1-0.2-0.2-0.2-0.3C338.6,280.4,338.7,280.2,338.8,280
		z"/>
	<path d="M304.4,276.7c0.1,0.2,0.4,0.3,0.4,0.5c0,0.2-0.2,0.4-0.4,0.6c-0.1-0.1-0.3-0.2-0.2-0.3C304.2,277.2,304.3,277,304.4,276.7z
		"/>
	<polygon points="311.1,387.6 311.2,387.8 311,387.8 	"/>
	<path d="M317.5,84.4c1.9-1.9,3.8-3.9,6.2-6.4c0,2.4-1.2,3.6-2.1,4.9c-0.8,1.1-1.8,2-3.2,2.4C318,85.5,317.6,85.2,317.5,84.4z"/>
	<path d="M409.7,64.8c0.1,0.7,0.3,0.9,0.2,1.1c-0.8,2-1.6,3.9-2.5,6.1c-0.4-1.9-0.4-1.9,0.1-3.7C407.9,67.1,408.1,65.7,409.7,64.8z"
		/>
	<path d="M395.7,66.9c-0.8-2.4-0.9-4.7,1.1-7.5C396.4,62.4,396.1,64.7,395.7,66.9z"/>
	<path d="M380.1,72.1c-0.5-1.8-0.3-3.3,0.6-4.8C381.3,69.6,381.3,69.6,380.1,72.1z"/>
	<path d="M405.3,86.6c0-0.6,0.1-1.1,0.1-1.7c0.2,0,0.3,0,0.5,0c0,0.6,0,1.1,0,1.7C405.7,86.6,405.5,86.6,405.3,86.6z"/>
	<path d="M394.2,77.5c0.1,0.8,0.2,1.2,0.2,1.5c0,0.2-0.3,0.3-0.4,0.5c-0.1-0.2-0.3-0.5-0.3-0.7C393.8,78.5,394,78.2,394.2,77.5z"/>
	<path d="M394.8,72.4c-0.1,0.2-0.2,0.5-0.4,0.6c-0.1,0.1-0.5-0.1-0.5-0.2c0-0.2,0.1-0.5,0.3-0.6C394.3,72.1,394.6,72.3,394.8,72.4z"
		/>
	<path d="M326.9,76.3c-0.1,0.1-0.2,0.1-0.3,0.2c0-0.1,0-0.3,0-0.4C326.8,76.2,326.8,76.2,326.9,76.3z"/>
	<path d="M297.6,96.3c-3.2,0.3-6.2-0.8-9.3-1.2c-2.7-0.3-5.4-0.7-8.3-0.3c-0.2,0.8-0.5,1.6-0.5,2.4c0.3,5.3,0.6,10.6,1.1,16
		c0.2,2.9,0.8,5.7,1.2,8.5c0.1,0.4-0.1,0.8-0.2,2.1c-3-10-3.6-19.4-2.7-29.1c-0.9-0.4-1.7-0.6-2.5-1c0.1-0.1,0.2-0.3,0.3-0.3
		c1.2-0.1,2.4,0,3.2-1.1c0.5,1.3,1.8,1.2,2.8,1.4c3,0.5,6,0.7,8.9,1.2c2,0.3,3.9,1,5.9,1.5L297.6,96.3z"/>
	<path d="M321.4,120.2c-1.4-2.5-2.9-4.9-4-7.5c-2.4-5.8-6.2-10.8-9.7-16c-1-1.4-1.8-3-2.8-4.4l-0.1,0.1c1-0.2,1.9-0.1,2.5,0.8
		c2.7,3.9,5.5,7.7,8.2,11.6c0.7,1.1,1.2,2.4,1.7,3.6c1,2.4,2,4.7,2.9,7.1c0.6,1.5,1.5,2.9,1.2,4.7L321.4,120.2z"/>
	<path d="M322.1,122c0.7-0.5,1.4-0.8,2-1.4c0.9-0.8,1.6-1.8,2.9-3.2c-0.1,1.2-0.1,1.7-0.3,2.1c-0.7,1.3-1.5,2.6-2.1,4
		c-0.4,0.8-0.6,1.8-0.9,2.7l0.1-0.1c-1-1.2-1.7-2.5-1.6-4.1L322.1,122z"/>
	<path d="M284.3,78.3c0.1-0.4,0-0.9,0.2-1.1c1-1,2.1-1.9,3.2-2.9l-0.1-0.1c-0.2,0.5-0.2,1.1-0.5,1.4c-0.8,0.9-0.8,1.9-0.4,2.9
		l0.1-0.1c-0.8-0.1-1.7-0.1-2.5-0.2L284.3,78.3z"/>
	<path d="M293.4,68.5c-1.3,1.5-2.4,3.1-4.1,4.1l0.1,0.1c0.9-2.3,1.8-3.2,4.1-4.1L293.4,68.5z"/>
	<path d="M280.2,80.1c2.1-0.1,3.8,0.5,4.8,2.5l0.1-0.1c-1.6-0.8-3.2-1.7-4.8-2.5L280.2,80.1z"/>
	<path d="M301.6,103.3c0.5,0,1,0,1.5,0c0,0.1,0,0.1,0,0.2c-0.5,0-1,0-1.5,0C301.6,103.4,301.6,103.4,301.6,103.3z"/>
	<path d="M293.3,87.5c1.3-0.3,2,0.5,2.5,1.6l0.1-0.1c-1.1-0.1-1.9-0.7-2.5-1.6L293.3,87.5z"/>
	<path d="M281.9,131c0.4,0.5,0.8,0.9,0.2,1.8C282.1,132,282,131.5,281.9,131L281.9,131z"/>
	<path d="M296.5,90c0.6,0.2,1.2,0.4,1.8,0.6l0.1-0.1c-0.6-0.2-1.2-0.4-1.8-0.6L296.5,90z"/>
	<path d="M290.2,84.8c-0.7,0.1-1.4,0.1-1.7-0.8l-0.1,0.1c0.7-0.1,1.3,0.1,1.7,0.7L290.2,84.8z"/>
	<path d="M290.8,85.9c0.8-0.2,1.4-0.1,1.8,0.7l0.1-0.1c-0.7,0.2-1.3,0-1.8-0.7L290.8,85.9z"/>
	<path d="M284.2,78.2c0,0.2,0.1,0.5,0.1,0.7c0,0.1-0.3,0.2-0.5,0.3c0-0.1-0.1-0.3,0-0.4c0.1-0.2,0.3-0.4,0.5-0.5L284.2,78.2z"/>
	<path d="M294.4,67.8c0.1-0.3,0.2-0.6,0.3-1c0.1,0.1,0.2,0.2,0.2,0.3c-0.2,0.2-0.3,0.4-0.5,0.6L294.4,67.8z"/>
	<path d="M278.5,79.2c-0.5-0.3-1-0.6-1.5-0.8l-0.1,0.1c0.6,0.1,1.4-0.2,1.5,0.9L278.5,79.2z"/>
	<path d="M286.6,78.5c0.6,0.1,1.4,0,1.7,0.7l0.1-0.1c-0.6-0.2-1.1-0.5-1.7-0.7L286.6,78.5z"/>
	<path d="M286.7,83.3c-0.5-0.3-1.1-0.6-1.6-0.8l-0.1,0.1c0.7,0,1.6-0.4,1.6,0.8L286.7,83.3z"/>
	<path d="M292.6,81.6c-0.5-0.2-1.1-0.5-1.6-0.7l-0.1,0.1C291.4,81.2,291.9,81.4,292.6,81.6L292.6,81.6z"/>
	<path d="M280.3,80c-0.6-0.3-1.2-0.5-1.7-0.8l-0.1,0.1c0.7,0,1.5-0.3,1.8,0.8L280.3,80z"/>
	<path d="M290.2,79.8c-0.6-0.2-1.2-0.5-1.7-0.7l-0.1,0.1c0.6,0.2,1.2,0.5,1.7,0.7L290.2,79.8z"/>
	<path d="M286.6,83.4c0.7-0.1,1.5-0.2,1.8,0.7l0.1-0.1c-0.6-0.2-1.2-0.5-1.8-0.7L286.6,83.4z"/>
	<path d="M322.2,121.9c-0.3-0.6-0.5-1.2-0.8-1.7l-0.1,0.1c1,0.2,0.7,1.1,0.8,1.7L322.2,121.9z"/>
	<path d="M291,80.8c-0.3-0.3-0.5-0.7-0.8-1l-0.1,0.1c0.3,0.3,0.5,0.7,0.8,1L291,80.8z"/>
	<polygon points="282,130.9 281.8,130.8 281.9,131 	"/>
	<path d="M294.3,67.7c-0.3,0.3-0.6,0.6-0.9,0.8l0.1,0.1c-0.1-0.7,0.2-0.9,0.9-0.8L294.3,67.7z"/>
	<path d="M295.8,84.1c-0.2-0.3-0.4-0.6-0.6-0.9l-0.1,0.1C295.3,83.6,295.5,83.9,295.8,84.1L295.8,84.1z"/>
	<polygon points="295.2,83.2 294.9,83.1 295.1,83.3 	"/>
	<path d="M292.5,81.7c0.1,0,0.2,0.1,0.3,0.1C292.7,81.7,292.6,81.6,292.5,81.7L292.5,81.7z"/>
	<polygon points="293.4,74.1 293.2,74.1 293.3,74.2 	"/>
	<polygon points="299.9,92.4 300.1,92.5 300,92.3 	"/>
	<path d="M293.3,74.2c0.3,0.3,0.6,0.5,0.9,0.8l0.1-0.1c-0.3-0.3-0.6-0.5-0.9-0.8L293.3,74.2z"/>
	<path d="M297.5,96.4c0.5,0.4-0.1-0.2,0.1-0.1L297.5,96.4z"/>
	<path d="M295,75.8c-0.3-0.3-0.5-0.6-0.8-0.9l-0.1,0.1c0.3,0.3,0.5,0.6,0.8,0.9L295,75.8z"/>
	<path d="M294.9,75.9c0.1,0.1,0.3,0.2,0.4,0.3c-0.1,0-0.1,0-0.2-0.1c-0.1-0.1-0.1-0.2-0.1-0.3L294.9,75.9z"/>
	<polygon points="295.7,84.2 296,84.2 295.8,84.1 	"/>
	<path d="M290.1,84.9c0.5,0.1,0.9,0.3,0.7,1l0.1-0.1c-0.5-0.2-0.9-0.4-0.7-1L290.1,84.9z"/>
	<path d="M289.3,72.6c-0.3,0.3-0.6,0.5-0.8,0.8l0.1,0.1c-0.1-0.6,0.2-0.9,0.8-0.8L289.3,72.6z"/>
	<polygon points="298.3,85.6 298.2,85.6 298.3,85.7 	"/>
	<path d="M277,78.3c-0.3-0.3-0.2,0-0.1,0.1L277,78.3z"/>
	<polygon points="298.3,85.7 298.4,85.9 298.3,85.6 	"/>
	<path d="M293.4,87.4c-0.5-0.1-0.9-0.4-0.7-1l-0.1,0.1c0.5,0.1,0.9,0.3,0.7,1L293.4,87.4z"/>
	<path d="M287.7,74.3c0-0.6,0.3-0.9,0.9-0.8l-0.1-0.1C288.4,73.9,288.2,74.2,287.7,74.3L287.7,74.3z"/>
	<path d="M295.8,89.1c0.6,0.1,0.9,0.3,0.7,0.9l0.1-0.1C296.4,89.6,296.1,89.3,295.8,89.1L295.8,89.1z"/>
	<path d="M299.2,91.4c-0.3-0.3-0.5-0.6-0.8-0.9l-0.1,0.1c0.3,0.3,0.5,0.6,0.8,0.9L299.2,91.4z"/>
	<path d="M300,92.3c-0.3-0.3-0.6-0.6-0.8-0.9l-0.1,0.1c0.3,0.3,0.6,0.6,0.8,1L300,92.3z"/>
	<path d="M304.9,92.3C304.6,92,304.9,92.4,304.9,92.3L304.9,92.3z"/>
</g>
</svg>
