<?xml version="1.0" encoding="utf-8"?>
<!-- Generator: Adobe Illustrator 19.1.0, SVG Export Plug-In . SVG Version: 6.00 Build 0)  -->
<svg version="1.2" baseProfile="tiny" id="Layer_2" xmlns="http://www.w3.org/2000/svg" xmlns:xlink="http://www.w3.org/1999/xlink"
	 x="0px" y="0px" width="900px" height="600px" viewBox="144 97 900 600" xml:space="preserve">
<g>
	<path d="M494.9,652.2c0.5,0.8,1.6,1.1,1.7,1.8c0.2,1-0.2,1.3-0.5,1.7c-0.2,0.1-0.5,0.2-0.7,0.2c-3-0.3-6-0.4-9,0
		c-2.5,0.3-5,0-7.3-1c-0.2-1,0.3-1.5,1-1.8c1.1-0.6,2.3-0.8,3.5-0.9c1.4-0.1,2.9-0.2,4.3-0.3c0.7-0.1,1.5,0,2-0.9
		c-3.8,0.1-7.4-1-11.1,0.5c-0.5-0.3-0.4-0.8-0.2-1.2c0.3-1.1,1.2-1.8,1.7-2.5c0-0.6,0.1-1.1-0.3-1.5c-0.7,0.4-1.4,0.9-1.9,1.2
		c-1.8,3.5-2.2,7.1-2.8,10.6c-0.7,4-1.7,8-2.6,12c-0.3,1.7-1.4,3.1-2.1,4.5c-0.8,1.5-1.5,3-1.7,4.7c-0.2,1.4-0.6,2.8-1.5,4
		c0.2,0.8,0.3,1.5,0.5,2.1c0.2,0.7,0.5,1.3,0.8,2c5.9,2.6,11.9,3.8,18.3,2.9c2.7-0.4,5.3,0.2,7.9,0.1c1.3-0.1,2.6,0.1,4-0.7
		c0.3-1.1-0.1-2.5,0.5-3.7s1.2-2.4,1.7-3.6c0.1-0.2,0.2-0.4,0.3-0.6c2.2-3.3,2.4-7,1.6-10.8c-0.2-1.1-0.3-2.1-0.1-3.2
		c0.3-1.8,0.3-3.6,0-5.4c-0.5-2.8-0.3-5.5,0.6-8.6c-1.6-5-3.4-10.2-5-15.3c0.1-0.8,0.5-1.2,1.1-1.3s1.2,0.1,1.6,0.6
		c0.3,0.4,0.6,0.8,0.8,1.2c1.3,3,2.5,6,2.4,9.3c0,0.7,0.2,1.4,0.4,2.1c0.3,1.2,0.6,2.3,1,3.7c-1.3,1.5-1.1,3.5-1.1,5.4
		c0.1,2,0.2,4.1,0.2,6.1c0,1.3,0,2.7-0.6,4c1.2,2.5,0.6,5.3,0.8,8.1c0.1,0.9-0.4,1.9-0.6,2.8c-0.7,2.4-1.4,4.8-2,6.9
		c0.2,0.9,0.7,1.1,1,1.3c0,0.2,0,0.5-0.1,0.7c-1.5,2.6-3.9,3.8-6.9,3.9c-0.7,0-1.4,0-2.2,0c-3.1,0-6.2-0.1-9.4,0.2
		c-4.7,0.4-9.4-0.4-13.7-2.1c-0.8,0.1-1.4,0.8-2.1,0.6c-3.8-2.7-4.8-5.6-3.8-9.9c0.8-3.3,1.7-6.5,3.1-9.6c1.4-3.1,1.7-6.5,2.3-9.8
		c0.4-2.3,0.8-4.5,1.9-6.5c0.5-1,0.7-2.1,0.9-3.1c0.1-0.7,0.2-1.4,0.5-2.1c0.6-1.4,1.5-2.7,1.1-4.1c1.5-1.4,3.4-1.5,4.7-3.1
		c0.3-2.7,1-5.4,3-7.7c0.1-1.3,0.2-2.7,0.2-4c-0.3-6.1,0.1-12.2,0.5-18.4c0.5-7.6,0.7-15.1,1-22.7c0.2-3.5,0.3-7,0.6-10.4
		c0.3-5.1-0.2-10.1-0.3-15.1c-0.1-8.9-0.3-17.8,2.6-26.4c1.7-5.1,3.6-10.2,6.7-14.7c0.6-0.9,0.9-2,0.7-3.1c-0.4-2.5,0.3-4.8,0.9-7.1
		c0.3-1,0.6-2.1,0.9-3.1c1.3-3.9,2.2-7.9,2.1-12c0-3,0.7-6,1.2-8.9c0.3-1.8,0.3-3.6,0.1-5.4c-0.5-5.9-1.1-11.7-0.9-17.6
		c0.2-4.7-0.4-9.4-0.6-14c-0.1-2.3-0.3-4.6-0.3-6.8c0-11.2,1.1-22.3,2.9-33.4c0.3-1.8,0.6-3.6,1.4-5.2c0.4-0.7,0.5-1.6,0.7-2.4
		c1.6-7.9,3.1-15.8,5-23.6c1.4-5.9,2.3-11.8,3.3-17.7c0.8-5,2.6-9.7,4.2-14.5c0.7-2.1,1.4-4.1,1.8-6.2c1.1-5.8,2.9-11.4,4.7-17
		c1-3.2,2.1-6.4,3.2-9.6c0.7-1.8,0.9-3.7,1-5.6c0.3-6.1-0.3-12.1-1.6-17.9c-1.2-4.9-2.5-9.8-4.5-14.4c-3-7.1-5.9-14.2-8.7-21.4
		c-0.9-2.3-1.6-4.8-2.5-7.1c-0.6-1.7-1.2-3.4-1.9-5.1c-2.1-5.2-4.5-10.4-5.5-16c-0.8-4.4-2-8.6-3-13c-1.6-7.5-1.7-15-0.5-22.6
		c0.4-2.4,1.4-4.6,2.9-6.5c1.1-1.4,2.5-2.5,4.3-3.1c3.3-1.1,6.6-2.3,10.1-2.2c1.2,0,2.4,0.3,3.5,0.6c4.6,1.2,8.9,3,13.1,5.1
		c0.8,0.4,1.6,1.1,2.8,0.7c0.9-3.7,0.6-7.5,0-11.4c-2.5-3.7-3.9-7.9-5.3-12.3c-2.3-1-3-3.4-3.8-5.6c-0.8-2.1-1.4-4.3-2.5-6.4
		c-1-2.1-1.3-4.3,0.1-6.5c0.6-0.9,0.9-1.9,1.3-2.7c0-2,0-3.8,0-5.5c0-3.9,0.6-7.7,1.3-11.4c0.2-0.8,0.1-1.7,0.2-2.5
		c0.3-2.6,0.8-5.2,2.3-7.4c0.2-0.3,0.4-0.6,0.5-0.9c1.8-4.2,5.3-6.4,9.3-8c2.1-0.9,4.2-1.7,6.5-1c0.6-1,1-1.9,1.6-2.6
		c0.9-1,1.9-1.8,2.9-2.6c2.1-0.9,4.2-1.1,6.4-1.1c3.1,0,5.7,0.8,7.7,3.7c0.3,1.7,1.4,3.5,0.5,5.4c0.4,1.3,1.3,1.7,2.1,2.3
		c5.4,3.9,7.6,9.4,8,15.8c0.2,4.1,0.1,8.1-0.1,12.2c0,0.8,0.1,1.7,0.2,2.4c1.1,0.4,1.5-0.8,2.3-0.9c0.2,0.1,0.5,0,0.6,0.2
		c2.6,2.7,3.3,7.4,1.2,10.2c-1.1,1.5-1.7,3.1-2.5,5.3c-0.6,0.5-1.5,1.2-2.6,2.1c-0.2-0.1-0.6-0.2-1.1-0.4c-0.4,0.1-0.7,0.5-0.8,0.9
		c-0.3,0.9-0.6,1.8-0.8,2.8c-0.6,2.8-1.1,5.6-2.3,8.3c-0.9,2-1,4.2-1,6.4c0,0.6,0.1,1.2,0.1,1.8c-0.4,5.8,2.1,10.7,5.2,15.4
		c0.6,0.9,1.3,1.7,2.3,2.3c1.7,1.1,3.5,2.1,5.1,3.2c0.9-0.4,0.6-1.1,0.6-1.6c-0.2-1.2-0.4-2.4-0.6-3.5c0.6-1.1,1.2-2.2,1.9-3.4
		c2.1-1,3.8-3,6.4-3.7c0.9-0.9,1.3-2.2,2.5-2.9c1.6-0.5,3.2-0.7,4.9-0.1c1.4-1,3.1,0.3,4.5-0.5c1.1-0.6,0.7-2,1.5-2.8
		c1.1-1,2.6-0.3,4-0.9c0.5-1.9-0.2-4.6,2.6-5.7c0.8-0.1,1.3,0.5,1.7,1.1c0.7,1.2,1.6,2.5,2,3.8c0.5,1.5,1.5,2.7,2.3,3.9
		c0.3,2-0.3,4.1,0.9,5.7c-0.6,2.1-0.9,4.1-0.6,6.2c0.4,3.1-0.3,6-2.4,8.4c-0.2,0.2-0.2,0.6-0.3,0.9c0.2,0.5,0.6,0.6,0.9,0.6
		c3.6,0.2,7.2,0.5,10.8,0.7c1,0.1,1.9,0.1,2.9,0.3c8.1,1.6,16.3,3.3,24.4,4.9c0.6,0.1,1.2,0.3,1.8,0.4c8.3,1.9,8.6,3.2,17,2.5
		c1.4-0.1,2.9,0.2,4.3,0.4c1.3,0.2,2.6,0.2,3.9,0c4.3-0.8,4.6-0.7,8.2,1.7c2.9-0.1,5.8-0.4,8.7-1.6c4.5-1.8,9-3.3,13.8-3.9
		c0.6-0.1,1.2-0.1,2,0.3c0.7,1.2,1.2,2.9,2.3,4.1c2.4,2.7,3.4,6.3,5.7,9.1c0.3,0.4,0.6,0.8,0.7,1.2c0.3,0.9,0.5,1.8,0.7,2.6
		c-0.2,1.2-0.9,1.9-1.5,2.6c-1.7,2.1-5.6,4.7-8.2,5.5c-2.3-0.4-4.2-1.8-6.3-2.5c-0.6-0.5-1.3-1-1.8-1.6s-0.7-1.3,0.1-2
		c2.3,2.4,5,4.3,8.3,4.9c3.4-1.6,4.3-2.2,5.7-3.9c-2.2,0.2-4.4,0.4-6.5,0.6c-3.1,0.3-5-0.8-6.4-3.9c0.9,0.5,1.9,1,2.8,1.5
		c0.8,0.5,1.7,0.8,2.7,0.8c2.5-0.1,5-0.2,7.5-0.4c1-0.1,1.8-0.5,2.2-1.8c-0.3-1.1-0.4-2.4-1.5-3.3c-2.2,1.6-2.2,1.6-5.4,2.1
		c-1.3,0.4-2.1,1.7-3.6,1.9c-1.5-0.5-3.1-1-4.7-1.5c-0.3-0.2-0.5-0.5-0.8-0.7c-0.2-0.2-0.5-0.5-0.7-0.7c0.2-0.3,0.3-0.6,0.6-1.1
		c1.9,1.1,3.7,2.3,5.9,2.6c2-1.3,4.1-2.5,6.7-2.6c-0.5-4.5-2.9-8-4.5-11.7c-1.2-0.5-2.2-0.2-3.3,0c-2.2,0.4-4.4,1.1-6.6,1.8
		c-3.8,1.2-7.5,2.5-11.4,3.1c-2.4,1.4-4.6,0.8-6.6-0.9c-0.2-0.1-0.4-0.2-0.8-0.3c-0.3,0-0.8-0.2-1.3-0.1c-3.5,0.9-6.9,0.5-10.4-0.1
		c-0.6-0.1-1.2-0.1-1.8-0.1c-4.6-0.1-9.1-0.5-13.6-1.5c-6.6-1.5-13.2-2.8-19.8-4.1c-5.4-1.1-10.8-2.6-16.4-2.4
		c-1.2,0-2.4-0.4-3.6-0.4c-1.6-0.1-3.3-0.7-5.1-0.3c-0.5,1.1-1,2.2-1.4,3.3c-0.3,0.9-0.6,1.8-0.9,2.7c-0.1,0.5-0.1,0.9,0.4,1.3
		l-0.1-0.1c-0.1,6,0.7,11.9,2.4,17.4c3.7,1.4,7.2,1.4,10.7,1.3c1.3-0.1,2.6-0.2,4-0.2c3.4-0.1,6.7-0.4,10.1-0.2
		c5.2,0.3,10.3-0.5,15.4-1.3c6.4-1,12.7-2.6,19.2-2.8c3.5-0.1,7-0.3,10.5-0.5c1.5-0.1,3.1,0,4.1,1c1.7,1.7,4,2.7,5.6,4.5
		c2.5,2.9,5.8,4.2,9,5c2.1-0.1,3.4-1.2,4.8-2.2c-0.3-1.1-1.7-1.9-0.7-3.3c0.4,0,0.7,0,1.1,0c-0.2,1.4,0.7,2.2,1.7,2.9
		c1,0.7,2,1.2,3.4,1.5c1.4-0.2,2.9-0.5,4.4-0.8c0.8-1,2-1.3,3-2c1.1-0.7,2-1.6,2.5-2.8c-0.3-0.7-0.5-1.3-0.7-1.8
		c1.1,0.5,1.7,1.3,1.7,2.5c0.9,0.8,1.9,1.5,2.7,2.3c0.3,0.3,0.4,0.9,0.5,1.2c-0.1,0.9-0.5,1.6-1.2,1.8c-1.4,0.4-2.6,1.1-3.9,1.8
		c-1.1,0.5-2.3,0.7-3.5,0.7c-3.5-0.1-7-0.1-10.4-0.3c-1.8-0.1-3.6-0.1-5.2,0.7c-3.6-0.8-6.7-2.3-9.1-5c-2.1-2.4-4.9-3.8-7.6-5.3
		c-1.7-0.4-3.2-0.2-4.8-0.1c-2.8,0.2-5.5,0.5-8.3,0.5c-4.3,0-8.3,1.2-12.5,1.8c-5.2,0.8-10.4,1.8-15.7,2.1
		c-4.9,0.2-9.9,0.4-14.8,0.6c-0.6,0-1.2,0.1-1.8,0.2c-0.9,1.2-0.6,2.6-0.5,3.9c0.2,2.7,0,5.3-0.3,7.9c-0.3,2.9-0.3,5.8-0.1,8.6
		c0.3,4.7,0.7,9.3,1,14c0.1,0.9,0.3,1.6,0.6,2.4c1.2,3.2,1.3,6.6,0.6,9.9c-0.4,1.9-0.7,3.8,0.1,5.7c-0.2,0.7-0.4,1.4-0.7,2
		c-0.6,1.5-0.7,3,0,4.5c0.7,1.6,0.2,3.1-1.1,4.2c-3.8,3.4-7.9,6.2-13,7.4c-2,0.5-3.6,0-4.8-1.5c-1.5-2-3.2-3.9-4.1-6.3
		c-0.3-0.7-0.6-1.3-1.2-2.4c-0.3,3.2,1,5.6,1.3,8.2c-0.3,0.5-0.6,1.1-0.9,1.8c0.9,7.6,4.8,14.3,6.6,21.3
		c5.5,8.2,10.1,16.4,11.5,26.1c0.3,1.8,0.5,3.6,0.8,5.4c0.3,2.7,1.2,5.2,2.5,7.5c0.5,1,0.9,1.9,1.3,2.9c1.5,4.4,3.1,8.8,4.7,13.3
		c0.4,1.2,0.6,2.5,0.6,3.8c0,1.9,0.7,3.8,1,5.7c1.7,8.5,2.9,17.1,4.2,25.6c0.9,5.8,2,11.6,2.5,17.5c0.1,1.7,0.4,3.4,0.4,5
		c0,5.9,0.4,11.8,0.8,17.7c0.8,10.1,1.5,20.1,2.9,30.1c0.1,1,0.3,1.9,0.5,2.8c0.9,4.1,1,8.4,1.2,12.6c0.2,4.3,0.8,8.6,1.6,13.2
		c1.5,1.7,2.3,4.1,2.9,6.6c1,3.6,2.3,7.1,3.9,10.5c2.5,5.2,3.7,10.7,4.9,16.2c1,4.8,1.6,9.7,1.5,14.7c0,4.9,0.4,9.9,0.4,14.8
		c0.1,6.5,0.7,13,1.2,19.4c0.5,7.1,1.1,14.2,1.9,21.2c0.4,3.9,0.4,7.9,0.7,11.4c-0.3,1.1-0.9,1.5-1.5,2c-0.2-0.3-0.4-0.6-0.7-0.9
		c-1.3-2.8-0.4-5.7-0.2-8.5c-1.2-5-1.7-10.2-2-15.3c-0.6-9.8-1.7-19.6-2.6-29.4c-0.3-3.5-0.5-7,0.9-10.1c-0.4-3.6-0.8-7.1-1.2-10.6
		c-0.6-5.3-1.3-10.5-3-15.5c-2.9-8.7-5.8-17.3-9.2-25.8c-0.8-2-1.3-4.1-1.6-6.3c-0.4-3.5-0.7-6.9-0.6-10.4c0-1.1,0-2.2-0.2-3.2
		c-0.4-2.5-0.9-4.9-1.4-7.4c-1.3-6.7-1.8-13.6-2.3-20.4c-0.1-1.5-0.4-2.8-1.4-3.9c0.8-4.8,0.2-9.5-0.3-14.1c0-0.4-0.1-0.7-0.1-1.1
		c-0.2-5.7-1.1-11.2-2.1-16.8c-1.3-7.8-2.6-15.6-4-23.5c-0.1-0.5-0.1-1-0.7-1.2c-0.6-0.2-1.1,0.2-1.6,0.4c-1.9,0.8-3.8,1.6-5.6,2.4
		c-3.7,1.5-7.4,3-11.3,3.5c-5.2,0.6-10.4,2-15.6,2.6c-5,0.6-10,1.3-15.1,1.3c-0.6,0-1.2,0-1.7,0.5c-0.3,1-0.1,2.1,0.1,3.1
		c0.5,2.6,1.2,5.2,2.2,7.6c1.4,3.2,2.8,6.4,4.3,9.5c2.4,4.8,4.8,9.7,7.6,14.3c1.6,2.6,2.5,5.5,3.7,8.2c0.2,0.4,0.5,1,0.4,1.4
		c-0.4,1.8,0.3,3.3,0.8,4.9c1.6,5.4,3.2,10.8,4.8,16.2c1.5,5.1,3,10.1,3.9,15.4c0.4,2.5,1.3,4.6,2.7,6.6c2.4,3.3,4.7,6.7,7,10.1
		c1,1.5,2,3,2.5,4.8c1.9,6.1,3.2,12.3,2.5,18.8c-0.2,2.3-0.2,4.6-0.1,6.8c0.2,3,0.4,6,0.5,9c0.1,2.4,0.7,4.8,1.4,7
		c1.8,5.8,4.6,11.1,7.7,16.2c1.3,2.1,2.3,4.2,3.1,6.5c1.5,4.4,2.9,8.9,4.4,13.4c2.8,8.2,5.3,16.5,6.2,25.3c0.6-0.6,0.1-1.4,1-1.7
		c0.7,3,1.4,6.1,2.1,9c-0.2,0.4-0.4,0.7-0.5,1c0,0,0.2,0.1,0.4,0.3c4.6-0.8,9.3-1.3,14.1-0.9c0.2,0.3,0.4,0.6,0.7,0.9
		c0.5,0.5,1,1,1.4,1.6c0.3,0.4,0.2,0.9-0.4,1.3c-2.1-1-4.2-2.1-6.7-1.9c-2.6,0.3-5.3,0.6-7.6,1.9c-1.4,0.8-2.2,2.2-3.2,3.5
		c-0.2,0.9-0.4,1.8-0.6,2.9c0.4,1.1,0.3,2.5,1.5,3.6c2.5-0.5,5-1.4,7.7-1.1c3,0.3,6,0.6,8.9,1.4c0.7,0.2,1.4,0.5,1.8,1.1
		c0.5,0.9,0,1.6-0.2,2.4c0.8,0.8,1.5,1.6,1,2.9c-0.4,0.6-1,1-1.7,1.1c-4.7,0.6-9.3,1-14,0c-1.2-0.2-2.3-0.6-2.7-2
		c-0.1-0.6,0.3-1,0.7-1.5c3.8-1.1,7.8,0.1,11.9-0.5c-0.3-0.2-0.5-0.3-0.7-0.4c-0.3-0.1-0.7-0.3-1-0.4c-4.2-0.3-8.3-0.7-12.2-1
		c-1.4,1-0.4,2.6-1.5,3.5c-0.3,0.2-0.5,0.5-0.8,0.8c-0.3,4.9-0.7,9.8-1,14.7c-0.1,1.3,0.2,2.6,0.4,3.9c0.6,2.7,0.9,5.4,0.1,8.2
		c-0.4,1.4-0.4,2.8-0.2,4.3c0.8,2,2.5,2.5,4.3,2.7c2-3.9,3.5-4.7,10.1-5.9c0.3-0.6,0.5-1.2,0.8-1.8c0.4-0.1,0.7-0.4,1.1-0.3
		c3.1,0.3,5.7,1.6,8.3,3.2c0.4,0.2,0.4,0.4,0.2,1.7c-2.3-0.4-4.1-2-6.4-2.4c-0.2,0.2-0.5,0.3-0.8,0.6c-0.2,0.2-0.3,0.3-0.6,0.6
		c-3.5,1.1-7.9,0.7-10.6,4.4c2.4,1.2,4.9,0.7,7.2,1.4c5.9-1.9,12.4-1.5,18.5-3.9c0.6-0.4,0.9-1.3,1.2-2.5c-0.4-2.4-0.8-5-1-7.7
		c-0.2-3-1.3-5.9-2.6-8.6c-1.5-3.1-2.3-6.3-2.8-9.9c-1.9-2.1-2.3-5-2.5-7.9c-0.1-0.8-0.1-1.7-0.1-2.5c-0.3-2.4-0.8-4.8-2.8-6.4
		c-0.3-0.2-0.4-0.6-0.5-0.9c0.1-1.1,0.8-1.2,1.5-1c2.1,0.6,3.5,2,4.2,4.1c0.7,2,1,4,1,6c0.2,4.2,1.4,8.3,2,12.4
		c0.1,0.9,0.4,1.9,0.9,2.7c1,1.8,1.6,3.7,2.4,5.6c1.1,2.7,1.9,5.4,1.9,8.4c0,1.4,0.4,2.9,0.6,4.3c0.4,2.2-0.3,4-2.1,5.4
		c-1.1,0.8-2.2,1.5-3.5,1.9c-3.7,1.2-7.5,1.9-11.3,1.9c-2.5,0-5.1,0-7.6,0c-2.7,0.1-5.3-0.6-7.9-0.9c-2.2-0.3-3.7-1.6-4.8-3.7
		c0.2-2.7-0.3-5.5,0.3-8.4c0.3-1.4-0.1-3.1-0.5-4.6c-0.5-2.4-0.5-4.7-0.2-7.2c0.3-2.4,0.4-4.8,0.4-7.2c-0.1-3.2,0.7-6.2,2-9.1
		c0.3-0.5,0.4-1.1,0.7-1.7c-0.5-2.5-1.6-5-1.2-7.9c0.6-1.3,1.7-2.5,2.2-4.4c-0.6-2-1.2-4.3-2-6.6c-1.7-5.1-3.1-10.4-4.6-15.6
		c-0.4-1.3-0.3-2.9-1.7-3.8c-0.4-0.3-0.4-1.1-0.6-1.6c-2.1-8.1-4.7-16.1-7.4-24.1c-0.5-1.5-1.2-2.9-2-4.2
		c-3.1-4.8-5.1-10.1-6.4-15.6c-0.6-2.4-0.8-5-1.1-7.5c-0.7-6.7-1.3-13.4-0.9-20.2c0.2-5.4-0.9-10.5-3.8-15.1
		c-2.7-4.3-5.4-8.5-8.1-12.8c-0.7-1.1-1.3-2.3-1.7-3.6c-0.9-2.4-1.7-4.8-2.4-7.2c-0.6-2.2-2.1-4-2.4-6.3c-0.2-2.1-0.7-4.3-1.3-6.4
		c-1.2-4.4-2.4-8.8-3.7-13.2c-1.4-4.6-3-9.2-3.6-14c-0.2-1.6-1-2.9-1.8-4.3c-3.1-5-5.9-10.2-8.3-15.6c-1.5-3.2-2.7-6.4-3.6-9.8
		c-0.7-2.6-1.2-5.1-1.1-7.8c0.1-1.6-0.3-3.1-0.9-4.6c-1.4-3.6-2.8-7.1-4.1-10.6c0.2-0.7,0.4-1.1,1-1.2c0.8,0,1.3,0.6,1.7,1.2
		c1,1.8,1.7,3.7,2.2,5.7c0.5,2.1,1.4,4.1,2.1,6.2c2.9-0.3,5.8,0.1,8.4-1.2c0.1-0.4,0.2-0.7,0.2-1c3.8-0.3,7.5-1,11.2-1
		c1.2,0,2.4-0.1,3.6,0c4.4,0.4,8.6-0.5,12.8-1.8c5-1.6,10-3.3,14.8-4.9c0.6-1.1,0.3-1.9,0.2-2.7c-1.3-10.3-3.4-20.4-5.6-30.5
		c-0.5-2.5-1.4-4.9-2.3-7.2c-1.8-4.6-3.1-9.4-4.1-14.2c-0.3-1.3-0.6-2.6-0.9-3.9c-2.1-0.9-4.1-0.6-6.1-0.2c-3.4,0.7-6.8,1.4-10,2.9
		c-2.7,1.3-5.7,1.8-8.7,1.9c-2,0.1-4.1,0.3-6.1,0.4c-4.4,0.2-8.9,0.4-13.3-0.3c-1.8-0.2-3.6-0.4-5.4-0.1c-0.8,1.9-0.4,3.8-0.5,5.7
		c-0.2,1.9-0.2,3.8-0.5,5.6c-0.1-1.9-0.3-3.8-0.4-5.8c-0.1-1.9-0.1-3.8-0.1-5.6c-0.9-0.7-1.7-0.7-2.6-0.7c-4.9-0.3-9.8-0.8-14.7-1.6
		c-2.6-0.4-5.2-0.7-7.9-0.7c-2,0.1-3.8-0.6-5.6-1.2c-4.3-1.3-8.7-1.7-13.4-1.8c-2,4.1-2.8,8.6-3.7,13s-1.1,8.8-1.1,13.3
		c0,0.9-1,1-1.5,1.6c-1.9,9.8-3.8,19.6-5.7,29.2c0.4,1,1.1,1.1,1.7,1.4c4.8,2.3,10,3.6,15.1,4.7c1.6,0.4,3.3,0.4,4.9,0.6
		c0.4,0.6,0.8,1.1,1.2,1.7c2.3,0.4,4.7,0.3,7.1,0.3c2.5,0,5.1,0.1,7.6-0.1c2.4-0.1,4.8-0.5,7.2-0.7c2.3-0.2,4.6-1.3,7-0.5
		c0.2,0.9-0.2,1.4-0.7,1.6c-1,0.4-2,0.9-3,1.1c-10.3,2.5-20.5,2.3-30.6-1c-1.9-0.6-3.9-1.2-5.9-1.6c-4.1-1-8-2.5-12-4.5
		c-4.1,11.1-4.9,22.7-5.9,34.5c1,1.2,1,2.8,1.1,4.3c0,1.4,0.1,2.9,0.1,4.3c-0.1,6.9-0.4,13.7-0.5,20.6c-0.1,5.3,0.2,10.6,0.1,15.9
		c-0.1,4.1-0.1,8.2,0.4,12.3c-0.8,1.6-1.1,3.3-1.4,5.1c-0.5,3.4-1.3,6.8-2.5,10.1c-0.4,1.2-0.8,2.5-1.2,3.8c0.8,3.3-0.2,6.4-1.7,9.3
		c-3.7,7.1-6,14.7-8.1,22.5c0.4,1.5,0.5,3.1,0.3,4.8c-0.6,5.2-0.5,10.3,0,15.5c0.8,8.2,0.7,16.3,0,24.5c-0.1,0.6-0.1,1.2-0.1,1.8
		c-0.4,5.9-1,11.7-1.3,17.6c-0.4,6.6-1.1,13.2-1,19.8c0,0.5,0.1,0.9,0.1,1.3c0.9,0.7,1.7,0.4,2.5,0.2c1.7-0.3,3.3-0.8,5-0.9
		c1.9-0.2,3.6,0.2,4.3,2.4c-0.2,0.3-0.3,0.6-0.5,0.9c-0.3,0.1-0.6,0.2-0.7,0.1c-1.6-0.9-3.2-0.9-4.9-0.5c-1.7,0.5-3.5,0.9-5,1.2
		c-1.8,1.3-2.5,3.2-3.6,4.6c-0.3,1.6-0.1,3,0,4.5c1.5,0.1,2.8,0.2,4.1,0.3s2.6,0.3,3.9,0.5c2.5,0.4,5,0.9,7.4,1.4
		c1.5,0.3,1.4,0.4,3,1.8c0.1,0.9-0.4,1.4-1.2,1.4C498.2,652.4,496.5,652,494.9,652.2c-0.7-0.6-1.3-0.5-2.6-0.3
		C493.5,652,494.2,652.1,494.9,652.2z M575.6,143.1c0.3,0,0.8,0.3,0.9-0.3C576,142.7,575.8,142.9,575.6,143.1v0.3V143.1z
		 M563.4,115.9c-0.7,0.2-0.8,0.8-0.7,1.5c-0.9-0.1-0.9,1.3-1.9,1c-0.6-0.9,0.7-1.6,0.4-2.5c1.4-0.9,2.1-2.3,2.9-3.6
		c-0.2-0.7-0.5-1-1.1-1.1c-0.7,1.5-1.7,3-1.7,4.8c-0.5,0.2-1,0.5-1.5,0.7c-0.1-1.1,1-1.8,0.8-2.9c0.2-0.3,0.8-0.5,0.2-1
		c0,0.4-0.1,0.7-0.1,1.1c-0.5,0.2-1.1,0.5-1.6,0.7c-0.1-1.5,1.3-2.5,1.3-4c0-0.5-0.1-0.9-1-0.9c-0.5,1.8-1.1,3.7-1.6,5.6
		c-0.7,0.3-0.8,0.9-0.7,1.5c-0.8,0.2-1.1,0.9-1.4,1.5c-0.8,1.3-1.9,2.1-3.4,2.5c-0.5-0.2-1.1-0.4-1.5-0.6c-0.4-4.6-0.3-5.7,0.6-7.8
		c0.4-0.2,0.8,0.6,0.7,0.6c0.8-1.1,1.1-1.6,1.5-2.1c-0.1,1.1-0.2,2.1-0.2,3.2c0,0.9-0.6,1.8-0.3,2.9c1.3-1.2,1.1-3,2.4-4.2
		c0,0.9,0.1,1.8,0.1,2.6c-0.2,0.2-0.5,0.4-0.3,0.9c0.1-0.4,0.1-0.6,0.2-0.9c2-1.5,2.2-3.7,2.2-5.9c-0.8-0.5-1.5-0.8-2.2-0.5
		c-0.8,0.4-0.8,1.1-1,1.6s-0.6,0.6-1.1,0.6c-0.1-0.7-0.2-1.4-0.3-2c-1-0.7-2-0.9-3.3-0.4c0.6,4.3-0.8,8.5-0.1,12.7
		c-1.1,0.3-1.5-0.9-2.5-0.6c-0.9,0.2-1.8,0.1-2.6,0.1c-1.2-1.3-1.8-2.6-2.4-3.9c-0.6-1.3-1.2-2.6-1.8-4c0.8-1.4,0.6-2.7-0.3-3.8
		c-0.8-0.2-1.1,0-1.5,0.6c0.3,1.4,0.3,3,1.1,4.3s0.9,2.7,0.8,4.1c-0.9,0-1.6-0.5-1.9-1.3c-0.6-1.3-1-2.7-1-4.1
		c0-0.8,0.1-1.7-0.8-2.2c-1,0.2-1.5,1-2,1.8c-0.5,0.1-0.9,0.1-1.3,0.8c-0.5,1.5,0.4,2.6,1.8,4c-0.2-1.1-0.4-1.7-0.5-2.4
		c-0.1-0.8-0.1-1.6-0.2-2.5c1.6,1.8,1.5,4.1,2.1,5.9c-0.3,0.7-0.7,1-1.1,1.2c-1.3-0.6-1.7-2.2-3.2-2.6c-0.1-0.3,0.2-0.8-0.3-1
		c-0.1,0.5,0.2,0.7,0.4,0.9c-0.1,1.2,0.8,1.9,1.4,2.8c0.3,0.4,0.5,0.8-0.2,1.2c-1.6-0.6-2.1-2.6-3.6-3.2c-0.8,0.7-0.1,1.6-0.3,2.4
		c-0.4,0.7-1.4,1-1.4,2s1.3,1.4,1.1,2.3c-0.4,0.5-1.1,0-1.3,0.6c-0.3,1.1,0.9,2,0.6,3c-0.4,0.5-1-0.3-1.3,0.4
		c-0.3,1,0.2,1.9,0.7,2.7c0.6,1,0,2.1,0.6,3c0.7,0.2,0.7-0.7,1.4-0.5c0,1.2,0.6,2.4,0.3,3.7c-0.6,1.1-2,1.5-2.4,3.2
		c-0.3,3.5-0.2,7.5,0.1,11.4c0.1,1.7,0.4,3.3,1.1,4.9c1.3,2.7,2.1,5.6,2.7,8.5c0.7,3.3,2.2,6.3,4,9.2c0.6,1,1.4,2.1,2.3,2.7
		c4,2.6,7.9,5.6,13.5,5.2c1.3-0.4,2.9-0.7,4.5-1.3c3.6-1.3,6.7-3.3,8.6-6.7c0.8-1.4,1.6-2.7,2.1-4.2c1.2-3.5,2.4-7,3-10.7
		c0.4-2.2,0.9-4.5,1.9-6.6c1.4-3.1,1.1-6.1,0.3-9.1c-0.3-0.9-0.5-1.8-0.5-2.8c0-1.7-0.1-3.3-0.2-4.9c-0.6-0.9-1.6-1.3-1.7-2.5
		c0.3-1.1,0.5-2.3,1.8-2.8c0.1,0.3,0.2,0.6,0.4,1.1c0.2-0.2,0.3-0.4,0.5-0.6c-0.5-0.2-0.8-0.3-1.1-0.5c0.1-1,1.4-1.8,0.4-2.9
		c-0.5,0.6-0.6,1.6-1.6,1.8c-0.6-1-0.3-2.1,0-3.1c0.3-0.8,0.6-1.5,0.9-2.3c0.5-1.1,0.5-2.3,0.2-3.5c-0.1-0.5-0.3-0.9-1-0.8
		c-0.2,1.6-0.4,3.3-0.6,5.7c-0.4-1.9-1.3-2.7-1.8-3.6c-0.3-0.9,0.2-1.8-0.4-2.5c-1,0-1,1.3-1.9,1.4c-0.5-0.2-0.5-0.8-0.7-1.1
		c1.5-0.3,1.2-2.3,2.6-2.7c1,0,0.7,1.4,1.6,1.5c0.5-0.4,0.6-0.8,0.7-1.4c-1-1.8-2.2-3.4-4.2-4.2c-0.6,0.4-0.7,0.7-0.5,1.1
		c-0.1,0.1-0.1,0.1-0.2,0.2c0-0.1,0.1-0.2,0.1-0.3c0.2,0.2,0.5,0.4,0.5,0.5c-0.2,1.8,0.5,3.6-0.4,5.4c-0.4-0.2-0.8-0.5-1.2-0.6
		c-0.9-0.2-0.9-0.9-1-1.6C563.4,117,563.4,116.4,563.4,115.9c0-0.2,0.2-0.2,0.2-0.3C563.6,115.6,563.5,115.7,563.4,115.9z
		 M572.1,133.8c0.6-0.2,0.8-0.4,0.1-1C572.2,133.3,572.2,133.6,572.1,133.8c0,0.1,0,0.2-0.1,0.2C572,134,572,133.9,572.1,133.8z
		 M528,157.7L528,157.7L528,157.7c0.1,1.2,0.2,2.5,1.3,3.6C529.5,159.8,529,158.7,528,157.7z M525.9,152.6c0.1,0.1,0.1,0.1,0.2,0.2
		C526,152.7,525.9,152.7,525.9,152.6c0.3-1,0.4-2.2,0.4-3.3c-0.4-0.6-0.7-1.2-1.5-1.1C524.5,149.8,524.2,151.5,525.9,152.6z
		 M575.7,152c-0.6,0.5-1.3,1.1-1.9,1.5c-0.9,0.6-1.2,1.4-1.3,2.4c0.2,0.6,0.5,0.9,1.3,0.8C574.7,155.3,576,153.9,575.7,152
		c0.4-0.3,0.7-0.6,0.3-1.2C575.5,151.1,575.8,151.6,575.7,152z M559.7,105.7c0.1-0.8,1.4-0.4,1.3-1.4c-0.9-1.7-2.6-1.4-4-1.9
		c-3.3-1-6.1-0.1-8.4,2.4c-0.1,0.1,0,0.4,0,0.7c1,0,2.1,0.4,3.2,0c1.1-1,1.9-2.7,4-2.6c-0.1,0.5-0.2,0.9-0.3,1.3
		c-1.3,0.5-1.3,0.5-1.7,1.6c0.8-0.2,1.5-0.7,1.6-1.6c1,0.5-0.2,1.5,0.6,2.1c1,0.5,2,0.1,3.1,0.1c3.1,1.1,3.1,1.1,3.4,0.8
		c0.2-0.7-0.1-1.1-0.8-1.5C561.1,105.7,560.4,105.7,559.7,105.7z M563.4,233.6L563.4,233.6c0.2,2.4,0.6,4.8,0.9,7.1
		c1.8,0.9,3.5,0.6,5.2,0.8c1.5,0.2,2.8-0.3,4.1-1.1c3.6-2.4,5.9-5.9,7.5-9.8c0.2-0.5,0.4-1.1-0.2-1.8c-6.8-0.7-13.7-1-21.3,0.1
		C561.7,230.2,562.4,232,563.4,233.6z M577.8,201c0.4,0.7,1,0.8,1.7,0.2C578.9,201.1,578.3,201.1,577.8,201
		c-0.2-0.6-0.9-0.8-1.4-0.9c-2.1-0.6-3.5-2-4.9-3.5c-3-3.4-5-7.3-6.4-11.5c-0.1-1.3,0.8-2.5,0-3.6c-0.7-1.1,0-2.6-1.2-3.8
		c-2,2.2-4.5,3.3-7,4.3c-0.4,0.2-0.9,0.3-1.3,0.6c-3.3,2-6.5,1.7-9.8,0c-2.4-1.2-4.8-2.3-7.6-3.6c0.8,2.7,1.2,5.1-0.1,7.3
		c1.8,1.3,1.4,3.6,2.9,5.3c3.6,1.3,7.6,2.4,11.3,3.9c5.8,2.3,12,3.5,18.1,4.7C572.8,200.6,575.3,201.3,577.8,201z M602.4,291.2
		c0,0.5,0.2,0.7,0.7,0.7c-0.2,5.2,2.5,8.8,6.2,11.8c5.8-0.5,9.8-4,13.8-6.9c0.9-2.2-0.4-3.6-0.5-5.6c0.7-1.9,1.4-4.1,2.1-6.1
		c-0.2-1.2-0.5-2.2-0.6-3.3c-0.1-1.1-0.1-2.2,0-3.2c0.2-1.7-0.1-3.4-0.8-4.9c-1.4-3.3-2.5-6.8-4.2-9.9c-1-1.9-1.7-4-2.5-6
		c-0.4-1-0.7-2-1.2-3c-1.3-2.7-2.3-5.5-3.2-8.4c-2.6-7.9-4.5-16-5.9-24.1c-0.6-3.7-0.8-7.4-1.1-10.6c1.3-2.9,2.3-5.4,3.6-7.7
		c1.3-2.3,2.9-4.4,4.4-6.6c-0.1-1-0.1-1.9-0.2-2.9c-0.6,0.4-0.3,1.3-1.1,1.5c-0.2-0.2-0.7-0.5-0.6-0.7c0.2-3.5-1.3-6.5-2.2-9.7
		c-0.1-0.2-0.1-0.5-0.2-0.7c-0.2-1.6-1-2.7-2.6-3.5c-0.8-0.1-1.9-0.2-2.8-0.4c-1.4,1.5,0.2,3.7-1.4,5.2c-0.5-0.5-0.9-1-1.5-1.6
		c-1.2,0.1-2.3,0.3-3.4,0.4c-1.8,1.6-1.8,1.6-2.5,1.4c-0.2-0.5-0.4-1-0.7-1.7c-0.6,0-1.3-0.3-2.3,0.3c-0.6,1.1-1.5,2.4-1.7,3.9
		c0.1,0.3,0.2,0.5,0.3,0.7c0.2,0.4,0.2,0.7-0.2,0.9c-1.6,0.6-2-1.2-3-1.8c-2,1.3-3.2,3.2-5.1,4c-0.4,1.2-0.3,2.2,0,3.1
		c1,2.8,0.9,5.7,1.6,8.5c0.3,1.4,0.6,2.8,0.6,4.3c0,1.6,0.5,3.1,1.2,4.5c1.4,2.7,2.7,5.3,4.1,7.9c0.5-0.1,0.9-0.3,1.5,0.2
		c0.5,1.2,0.6,2.6,0.3,4.1c-0.4,0.1-0.7,0.1-1.1,0.2c0,0.3-0.1,0.7,0,1c1.1,5,1.4,10,1,15.1c-0.1,0.8,0,1.7,0,2.5
		c0.3,7.1,0.6,14.2,0.9,21.3c0,0.7,0.2,1.4,0.3,2.1c0.4,3.5,1.7,6.8,2.3,10.2c0.6,3.1,1.7,6,3.3,8.7
		C599.5,288.1,600.5,290,602.4,291.2z M545.3,343.3c1.8,0.6,2.6,2.4,4.3,3.5c1,0.1,2.2,0.4,3.3,0.5c7.2,0.6,14.4,1.3,21.5,1.7
		c3.8,0.2,7.7,0,11.5-0.1c1.1,0,2.1-0.3,3.1-0.5c1.7-1.8,3.2-3.7,5.2-5.1l-0.1-0.1c0.3,0.8-0.1,1.4-0.5,2c-0.6,0.9-1.6,1.7-1.9,3
		c2.8,0.2,5.1-0.9,7.5-1.5c2.3-0.6,4.6-1.2,7-1.6c2.5-0.4,4.9-0.9,7.5-1.4c-0.6-2.4-1.6-4.6-2.7-6.7c-2.3-4.3-4.8-8.6-6.6-13.2
		c-1-2.7-2.1-5.4-3.2-8c-1.1-2.7-1.9-5.5-2.4-8.3c-0.4-2-0.5-4.1,0.3-6c0.3-0.8,0.4-1.6,0.3-2.5c-0.4-2.5-0.5-5-0.1-7.4
		c-0.6-1.2-1.3-2.2-2.3-3c-4.7,0.5-9.3-0.2-13.8-1.6c-1.7-0.5-3.5-0.9-5.3-0.9c-6,0-12-0.1-18,0c-6,0.2-12,0.6-18,0.9
		c-0.8,0-1.7,0.1-2.5,0.1c-2.7-0.1-5.3,0.2-7.9,0.6c-1.6,0.2-3.3,0.5-5,1.3c0.9,2.6,1.6,5.2,1.4,7.8c0,0.5,0.1,1,0.3,1.4
		c2,6.6,1.5,13.3,0.8,20c-0.4,3.9-1.8,7.7-1.9,11.7c0,0.3-0.2,0.4-0.4,0.3c-0.7-0.8,0.1-2-0.7-3c-2,5.2-4,10.3-5.9,15.3
		c0,0.1,0,0.2,0,0.4c0,0.1,0.1,0.2,0.2,0.2c0.7,0.5,1.5,0.3,2.2,0.4c2.4,0.2,4.9,0.1,7.2,0.7c5,1.2,10.2,1.9,15.3,2.3
		c0.6,0.1,1.3,0.5,1.9-0.2C546.7,345.1,545.1,344.6,545.3,343.3z M516.4,227.7L516.4,227.7c0.1-1.1,1.4-1.5,1.7-2.6
		c-0.3-1.2-2.2-1.3-1.8-2.8c0.3-0.1,0.5-0.3,0.7-0.2c5.5,1.8,11.2,2.8,16.8,3.9c4.5,0.9,9,1.6,13.6,1.3c5-0.4,10.1-0.5,15.1-1.2
		c7.1-1,14.2,0.1,21.2,0.3c1.4,0,1.5,0.2,3,1.5c-0.6,1.2-2.1,0.5-2.9,1.6c-0.3,1.5-0.6,3.1-1.3,4.7c-0.7,1.5-1.6,3-2.8,4.2
		c-1.1,1.2-2.4,2.3-3.6,3.4c-0.1,0.5,0.3,1-0.5,1.4c-3.3-0.3-6.9,0.4-10.5,0.5c-2.4,0-4.8,0.1-7.2,0c-4.3-0.2-8.3-1.2-11.9-3.7
		c-2.9-2.1-5.1-4.7-5.8-8.4c-0.1-0.7-0.2-1.4-0.9-2.1c-1.1-0.1-2.3-0.1-3.4-0.2c-1.3-0.1-2.6-0.3-3.7-0.4c-0.8,0.6-0.9,1.3-1.2,2
		c-2.1,5-4.8,9.7-8.3,13.9c-2.6,3.1-5.5,6-10,6.5c2.2,8.1,6.1,15.4,8.5,23c0.7,0.4,1.2,0.7,1.8,1.1c1.2,3.6,1.3,7.6,3,10.9
		c1,0.3,1.7,0.1,2.3-0.1c2.3-0.6,4.7-1,7.1-1.1c3.2-0.1,6.5-0.3,9.7-0.4c5.5-0.3,11-0.3,16.5-1.1c3.8-0.6,7.7-0.1,11.5,0
		c4.2,0,8.4,0.6,12.4,2c1.8,0.6,3.7,1.1,5.6,1.2c1.5,0,3.1,0.1,4.4-1.1c-1-3.3-1.9-6.5-3-9.7c-1.1-3.3-1.4-6.8-2.3-10
		c-2.2-0.6-4.3-0.2-6.3-0.4c-4-0.2-7.9-0.8-11.4-3.1c-1-0.7-2-1.4-2.6-2.4c-0.3-0.5-0.4-1.1,0.2-1.6c0.7-0.1,1.1,0.2,1.6,0.6
		c1.3,1.1,2.8,1.9,4.3,2.6c3.6,1.6,7.4,2,11.2,2.6c0.9,0.1,1.9,0,2.6-0.8c0.3-2.8,0.2-10-0.2-13.3c-0.4-3.7-0.7-7.4-1-11.1
		c-0.1-0.6-0.2-1.3,0-1.8c0.6-1.6,0.2-3.1-0.1-4.6c-0.3-1.8-0.6-3.6-0.8-5.3c-0.3-2.7-1.1-5.2-2.4-7.5c-0.1-0.2-0.4-0.2-0.6-0.3
		c-1.1,0.3-1.2,1.8-2.5,1.9c-0.4-0.1-0.5-0.4-0.6-0.8c0.7-1.1,2.4-1.2,3-2.8c0-1-0.5-2.1,0-3.4c-2.7-2.5-3.2-5.8-3.8-9.2
		c-1.3-0.3-2.6-0.6-3.9-0.8c-6.3-1-12.5-2.4-18.6-4.4c-0.7-0.2-1.4-0.5-2.1-0.6c-4.8-0.5-9.4-2-13.9-3.8c-4.1-1.7-8.5-2.9-11.7-6.1
		c-0.2-0.2-0.6-0.3-1-0.5c-3-1.3-5.9-2.7-8.9-3.9c-1.5-0.6-3.2-1.1-4.9-0.9c-3.7,0.6-7.3,1.3-10.8,2.8c-0.9,0.4-1.9,0.8-2.4,1.6
		c-1.7,2.7-3.5,5.5-2.7,9c0.2,0.9,0.2,1.9,0.2,2.9c0,4.2,0.2,8.4,0.8,12.6c1.1,8.6,2.8,17.1,6.1,25.2c1.4,3.4,2.7,6.9,4.1,10.4
		c0.2,0.6,0.4,1.1,1,1.5c0.9,0,1.6-0.5,2.2-1c1.6-1.2,3.2-2.5,4.6-4.1c3.4-3.7,6.1-8,8.7-12.4c0.7-1.1,1.2-2.3,1.2-3.9
		c-3.1-0.9-6.1-1.7-9.1-2.5C518.6,226.3,517.9,227.7,516.4,227.7z M621.4,263.2c0.5-0.7,0.1-1.4,0.1-2c-0.5-5.6-0.8-11.3,0.3-16.9
		c0.4-2.2,0.4-4.5,0.6-6.8c0-0.7,0.1-1.5-0.7-2.2c-1.6-0.1-3.3-0.2-5.1-0.3c-1.8-0.1-3.4-0.8-5.2-1.3c-0.1,0.5-0.2,0.9-0.1,1.2
		c2.3,8.6,4.7,17.1,8.5,25.2C620.2,261.2,620.3,262.5,621.4,263.2z M542.3,229.4c0,0.3-0.1,0.4,0,0.5c0.1,0.3,0.2,0.7,0.3,1
		c2,4.2,5.4,6.7,9.6,8.2c2.6,0.9,5.4,1.2,8.1,1.5c0.6,0.1,1.2,0.1,1.7-0.5c0-2.4,0-4.9,0-7.3c-1.1-1.3-2.2-2.4-3.2-3.5
		c-0.5-0.2-1-0.4-1.4-0.4C552.4,229,547.3,229.2,542.3,229.4z M607.9,180.4c1.8,1.1,2.3,3.2,2.9,5.3c0.3,1.3,0.8,2.5,1.3,3.7
		c0.1,0.4,0.3,0.9,1.2,0.7c-0.2-2.2-0.4-4.5-0.6-6.5c-0.9-1.4-1.8-2.5-2.1-3.9c-0.3-1.1-0.9-2.3-2.6-3.3
		C608.5,178,607.8,179,607.9,180.4z M544.4,108.6c-1,0-1.4,0.3-1.5,0.8c-0.2,1.2-0.3,2.4-0.3,3.5c0,1.2,0.6,2.3,1.2,3.3
		c0.6,0.9,0.9,2.1,2.2,2.6C546.5,115.1,545.5,111.8,544.4,108.6z M719.4,233.8c-2.2,2.4-5.2,3.4-8.6,4.6c4.1,0.7,7.4-0.3,10.3-2.6
		C721.1,234.8,720.4,234.3,719.4,233.8z M577.2,149.7c0.7-2.9,0.7-2.9-0.1-4.8c-1,0.5-1.5,1.4-1.9,2.4
		C575.7,148,576.3,148.7,577.2,149.7z M528.8,136.7c-1.4-2.3-1.5-2.4-2-2c-0.2,0.6-0.3,1.1,0.3,1.7
		C527.5,136.4,527.9,136.5,528.8,136.7z M546.3,110.9c1.1-0.8,1.4-1.7,1.5-2.7c-0.6-0.4-1-0.3-1.4,0.1
		C546.1,109.1,546.1,109.9,546.3,110.9z M707.3,238.2c-0.9-0.6-1.6-1.2-2.9-0.8C705.2,238.4,706.1,238.7,707.3,238.2z M537.8,187.9
		c0,1.3,0,1.3,1,2.3C538.6,189.2,538.5,188.5,537.8,187.9z M548.5,113.2c0.3-0.3,0.3-0.6,0-0.8c-0.1-0.1-0.5,0.1-0.5,0.2
		C547.9,112.9,548.1,113.2,548.5,113.2z M526.2,146.5c0.3-0.4,0.2-0.6-0.3-0.7l-0.2,0.2C525.9,146.1,526,146.3,526.2,146.5z"/>
	<path d="M535.4,503.2c0.6,1.2,0.4,2.6,0,4c-2,7.9-5.2,15.3-9.2,22.3c-1.2,2.2-1.9,4.4-1.8,6.8c0.1,3.1,0.1,6.3,0.1,9.4
		c0,5,0.2,10.1-0.1,15.1c-0.5,7.8-2.4,15.2-7,21.7c-3.4,4.9-4.9,10.4-5.8,16.1c-0.2,1.4-0.5,2.8-1,4.2c-3.5,9.6-7,19.2-10.6,28.7
		c-0.4,1.1-0.8,2.1-1.5,3.7c-0.4-4.6,0.6-8.4,1.5-12.3c0.1-0.5,0.3-0.9,0.4-1.4c2.8-7.8,5.1-15.8,7.7-23.6c0.9-2.9,1.8-5.7,2.7-8.6
		c1.2-4.2,2.9-8.2,5-11.9c0.9-1.7,1.9-3.3,3.5-4.3c0.9-2.3,1-4.7,1.7-6.8c1.5-4.8,1.4-9.7,1.1-14.7c-0.2-3.4-0.3-6.7-0.4-10.1
		c-0.2-4.4,0.2-8.6,1.4-12.9c0.6-0.4,1.2-0.8,1.9-1.2c1.7-4.3,3.3-8.6,5-13c0.2-0.6,0.5-1.1,0.5-1.7c0.6-5.2,2.3-10.1,3.9-15
		c1.3-3.9,1.9-7.9,2.7-11.9c1.4-7,3.7-13.7,7-20c1.3-2.6,2.4-5.2,3.2-8c3-11.3,6.9-22.3,10.6-33.3c2-5.8,3.2-11.8,3.8-17.9
		c0.1-0.6,0.2-1.2,0.3-2c2.1-0.6,3.5-3.1,6.2-2.5c0.1,1.1-0.5,1.5-1.2,1.7c-1.5,0.5-2.2,1.8-2.9,3.1c-0.4,0.9-0.7,1.9-0.1,2.8
		c0.8,1.1,0.4,2.3,0.2,3.5c-1.3,6.2-3,12.4-5,18.4c-2.6,7.9-5.3,15.7-7.9,23.6c-1.5,4.3-3.5,8.5-5.4,12.6c-1.5,3.2-2.9,6.4-4,9.7
		c-0.5,1.6-1.3,3-0.9,4.9c0.2,1-0.5,2.1-0.7,3.1C539.5,491.5,537.6,497.3,535.4,503.2z"/>
	<path d="M647.2,657.3c0.3-0.8,0.9-1.1,1.4-1.2c4.1-1,8.3-1,12.5-0.7c1,0,1.9,0.3,2.5,1.1c0.3,0.6,0.3,1.2,0,1.7
		c-0.2,0.2-0.3,0.4-0.5,0.5c-4.6,1.3-9.2,1.3-13.8,0.2c-0.6-0.1-1.1-0.5-1.6-0.8C647.5,657.9,647.4,657.6,647.2,657.3z"/>
	<path d="M496,659.5c-0.3,0.7-0.7,1.2-1.3,1.3c-0.5,0.1-1,0.1-1.4,0.1c-4.4-0.3-8.7-0.8-13.2-1.7c0.9-1.9,2.5-2.5,4.1-2.7
		c3.5-0.5,6.9,0,10.2,1C495.2,657.8,495.9,658.4,496,659.5z"/>
	<path d="M485.2,682.5c-3.4,0.6-7.1,1.5-10.2,4.4c0-1.2,0-2.1,0-3.1c2.8-1.7,5.8-2.8,9-3.3c2-0.3,3.8,0.3,5.1,2
		c0.9,1.1,1.8,2.3,2.6,3.4c0.3,0.4,0.4,0.9-0.2,1.4C489.7,685.7,488,683.7,485.2,682.5z"/>
	<path d="M662.2,662.6c-0.4,1.6-0.9,2-1.7,2.1c-3.5,0.2-6.9,0.1-10.1-1.6c-0.3-0.1-0.5-0.5-0.6-0.7c0.1-1,0.8-1.2,1.5-1.3
		c3.4-0.7,6.6-0.3,9.8,0.9C661.6,662.1,662,662.4,662.2,662.6z"/>
	<path d="M479.5,665.6c3-1.9,5.9-2.6,9-2.5c1.3,0,2.6,0.1,3.3,1.5c0.2,0.7,0,1.2-0.7,1.8C487.5,667.2,483.7,666.8,479.5,665.6z"/>
	<path d="M521.6,504.3c0.1-0.3,0-0.7,0.2-1c2.4-3.3,4.8-6.6,6.3-10.4c0-0.1,0.2-0.1,0.3-0.2c0.4,0,0.7,0.1,1,0.8
		c0,0.2,0,0.7-0.1,1.1c-1.1,3.4-3,6.3-5.5,8.7C523.1,503.8,522.5,504.4,521.6,504.3z"/>
	<path d="M659.2,668.4c0,0.7-0.4,1.1-0.9,1.4c-1.4,0.8-3,0.6-4.5,0.4c-1.4-0.2-2.7-0.7-3.5-1.6c0-0.8,0.3-1,0.7-1.1
		c2.1-0.2,4.3-0.3,6.4-0.3C658.1,667.1,658.2,667.3,659.2,668.4z"/>
	<path d="M480,668.2c5-1.2,6.5-0.9,8,1.5c-0.3,1.2-1.2,1.5-2.2,1.3C483.8,670.7,482,669.8,480,668.2z"/>
	<path d="M514.8,505.3c-0.1-0.3-0.8-0.3-0.7-0.9c0.2-0.1,0.4-0.3,0.7-0.3c0.5,0,0.9,0.1,1.4,0.1c1,2.4-1.1,4.8,0.3,7.1
		c-1,1.9-1.1,4.3-3.6,5.8c0.1-1.6,0.8-2.8,1.2-4c0.4-1.1,0.7-2.3,0.6-3.5C514.7,508.4,514.8,507.1,514.8,505.3z"/>
	<path d="M515.7,538.9c0.4-2.4,2-4.3,3.1-6.2c0.8-0.1,1.2,0.3,1.1,0.8C519.2,535.7,518.2,537.9,515.7,538.9z"/>
	<path d="M511.1,548.9c0.7,2.2-0.5,3.5-1.7,5.3C509.2,552,509.7,550.5,511.1,548.9z"/>
	<path d="M577.8,396.7c-1.1,1.1-2.3,2.2-3.4,3.4C575.6,397.6,575.7,397.5,577.8,396.7z"/>
	<path d="M576.3,393.4c0.1,0.9-0.7,1.1-1.1,1.5C574.8,393.9,575.7,393.8,576.3,393.4z"/>
	<path d="M609.8,352.3c-1.1,0.4-2.2,0.4-3.3,0C607.7,352,608.7,351.8,609.8,352.3z"/>
	<path d="M511,523.3c-0.6-0.7-0.4-1.4-0.1-2.2C511.9,521.8,511.9,521.8,511,523.3z"/>
	<path d="M601.7,357.2c-0.5,0.5-1.1,0.6-1.6,0.1C600.6,357,601.2,356.8,601.7,357.2z"/>
	<path d="M551.8,395.3c1.1-0.1,1.7,0.6,2.2,1.3l0.1-0.1C553,396.6,552.4,396,551.8,395.3z"/>
	<path d="M598.1,358c-0.3,0.3-0.6,0.2-0.8,0c0.2-0.1,0.3-0.1,0.5-0.2C597.9,357.9,598,358,598.1,358z"/>
	<path d="M504.5,573c-0.1-0.3-0.2-0.7,0.1-0.9c0.1,0.1,0.2,0.1,0.2,0.2C504.8,572.5,504.9,572.9,504.5,573z"/>
	<path d="M556.9,401.8c0.3,0,0.5,0.1,0.9,0.2C557.3,402.2,557.1,401.9,556.9,401.8z"/>
	<path d="M555.4,401c0.6,0,1.3-0.1,1.4,0.7l0.1-0.1C556.4,401.6,555.7,401.7,555.4,401z"/>
	<path d="M554,400.3c0.6,0,1.2-0.1,1.4,0.7l0.1-0.1C554.9,401,554.3,401,554,400.3z"/>
	<path d="M554.1,400.2c-0.6,0-1.1-0.1-1.4-0.7l-0.1,0.1C553.1,399.7,553.8,399.5,554.1,400.2z"/>
	<polygon points="514.9,539.5 514.9,539.7 515,539.6 	"/>
	<path d="M515.8,538.9c0,0.5-0.3,0.8-0.8,0.6l0.1,0.1C515.1,539.2,515.3,538.9,515.8,538.9z"/>
	<path d="M521.5,504.2c0,0.5-0.3,0.7-0.7,0.8l0.1,0.1C520.8,504.5,521.1,504.3,521.5,504.2C521.6,504.3,521.5,504.2,521.5,504.2z"/>
	<path d="M520.8,505c-0.1,0.1-0.2,0.2-0.2,0.2C520.6,505.1,520.8,505.1,520.8,505z"/>
	<polygon points="512.8,542.5 512.7,542.7 512.9,542.6 	"/>
	<path d="M512.9,542.6c0.2-0.2,0.5-0.5,0.8-0.7v-0.1C513.3,542.1,513.1,542.3,512.9,542.6z"/>
	<polygon points="513.6,541.9 513.7,541.7 513.6,541.8 	"/>
	<path d="M549.7,392.9c-0.4-0.1-0.6-0.3-0.6-0.7H549C549.2,392.6,549.4,392.8,549.7,392.9z"/>
	<polygon points="549.1,392.3 548.9,392.2 549,392.3 	"/>
	<polygon points="556.1,398.9 556.3,399 556.2,398.8 	"/>
	<path d="M552.6,399.5c-0.1,0-0.2-0.1-0.3-0.1C552.4,399.5,552.5,399.6,552.6,399.5z"/>
	<path d="M556.2,398.8c-0.2-0.2-0.5-0.5-0.7-0.7l-0.1,0.1C555.8,398.3,556,398.6,556.2,398.8z"/>
	<path d="M554.7,397.4c0.4,0.1,0.6,0.4,0.7,0.8l0.1-0.1C555.1,398,554.8,397.8,554.7,397.4z"/>
	<path d="M554,396.6c0.2,0.3,0.5,0.5,0.7,0.8l0.1-0.1C554.4,397.3,554.1,397.1,554,396.6z"/>
	<path d="M578.5,396c-0.2,0.2-0.5,0.5-0.7,0.7l0.1,0.1C577.9,396.3,578.2,396.1,578.5,396z"/>
	<path d="M578.6,396c0.1-0.4,0.3-0.6,0.7-0.7l-0.1-0.1C579,395.5,578.8,395.7,578.6,396z"/>
	<path d="M579.3,395.3c0.2-0.3,0.5-0.5,0.7-0.8C579.7,394.7,579.5,395,579.3,395.3z"/>
	<path d="M551.1,394.6c0.5,0,0.7,0.3,0.7,0.8l0.1-0.1C551.6,395,551.4,394.7,551.1,394.6z"/>
	<polygon points="580,394.5 580.1,394.4 579.9,394.5 	"/>
	<path d="M551.2,394.5c-0.4-0.1-0.6-0.3-0.7-0.7l-0.1,0.1C550.8,393.9,551,394.2,551.2,394.5z"/>
	<path d="M550.5,393.7c-0.4-0.1-0.7-0.4-0.7-0.8l-0.1,0.1C549.9,393.3,550.1,393.6,550.5,393.7z"/>
	<path d="M623.7,495.1c0.6-0.1,0.9,0.1,1,0.5s0.2,1,0.1,1.4c-0.7,3.4-1.9,6.6-4.6,9c-0.1,0.1-0.4,0.1-0.8,0.2
		C621.4,502.5,622.9,498.9,623.7,495.1z"/>
	<path d="M624.3,513.8c-1.4-2.2-1.2-4.7-2.5-6.9c0.5-0.3,0.8-0.5,1.2-0.7C625.4,508.4,624.9,511.1,624.3,513.8z"/>
	<path d="M627.7,531.7c-2-1.3-3.3-3.4-4.8-5c0.3-0.7,0.7-0.7,1.1-0.3c1.5,1.3,2.8,2.9,3.6,4.8C627.7,531.2,627.6,531.5,627.7,531.7z
		"/>
	<path d="M624.2,515.7c1.2,1.4,2,2.4,2.9,3.4c-0.5,0.5-1.1,0.3-1.6,0C624.5,518.4,624.5,518.3,624.2,515.7z"/>
	<path d="M634.6,551.5c-0.7-0.7-1.3-1.3-0.8-2.4C634.7,549.8,635.2,550.5,634.6,551.5z"/>
	<path d="M634.1,515.7c-0.2,0.1-0.3,0.3-0.5,0.4C633.6,515.7,634,516,634.1,515.7z"/>
	<path d="M634.2,515.8c0.2-0.6,0.6-0.9,1.4-0.2C634.9,515.7,634.5,515.7,634.2,515.8z"/>
	<path d="M615.1,505.9c0.1,0,0.2-0.1,0.3-0.1c0.3,0.1,0.3,0.2,0.1,0.3c-0.1,0-0.2,0-0.3,0S615.1,506,615.1,505.9z"/>
	<polygon points="631.6,541.2 631.6,540.9 631.7,541 	"/>
	<path d="M632.4,543.5c-0.1,0-0.2,0.1-0.2,0.1c-0.1-0.1-0.1-0.2-0.1-0.3c0.1-0.3,0.2-0.3,0.3-0.1
		C632.5,543.3,632.4,543.4,632.4,543.5z"/>
	<path d="M643.3,614.8C643.3,614.8,643.2,614.8,643.3,614.8c-0.1,0,0-0.1,0-0.2C643.2,614.7,643.3,614.7,643.3,614.8z"/>
	<polygon points="636,558.5 635.9,558.2 636.1,558.3 	"/>
	<path d="M628.4,532.4c0.1,0.1,0.2,0.1,0.3,0.2C628.6,532.8,628.5,532.7,628.4,532.4z"/>
	<path d="M628.5,532.3c-0.5,0-0.7-0.3-0.8-0.7l-0.1,0.1C628.1,531.7,628.3,532,628.5,532.3z"/>
	<path d="M524.5,260c0.1-0.2,0.3-0.3,0.3-0.4c0.9-0.2,1.3,0.2,1.8,0.6c3.4,3,7.3,4.5,11.7,5.1c2.1,0.3,4.3,0.6,6.5,0.7
		c5.6,0.3,10.3-1.9,14.9-4.7c1.3-0.8,2.1-1.9,2.5-3.2c1.1-0.2,1.3,0.3,1.3,1c0,0.9-0.5,1.6-1,2.3c-1.1,1.3-2.5,2.3-4.1,2.9
		c-2,0.8-4,1.5-5.9,2.5c-2.3,1.3-5,1.7-7.7,1.8c-4.6,0.2-9.1-0.5-13.4-2.3c-2.3-1-4.5-2.3-6.1-4.4
		C524.9,261.4,524.4,260.9,524.5,260z"/>
	<path d="M522.6,229.6c-0.4-0.8,0-1.3,0.6-1.7C523.8,228.8,523.1,229.2,522.6,229.6z"/>
	<path d="M512.9,224.1c0.3-0.8,1-0.8,1.8-1.1C514.3,224,514.3,224,512.9,224.1z"/>
	<path d="M512.8,224c0,0.1-0.1,0.2-0.1,0.3C512.8,224.2,512.9,224.2,512.8,224z"/>
	<path d="M516.4,227.7c0,0.5-0.2,0.8-0.8,0.7l0.1,0.1C515.8,228,516.1,227.8,516.4,227.7z"/>
	<path d="M515.7,228.4c0.1,0.3,0,0.5-0.2,0.5c0-0.1,0-0.2,0-0.2C515.5,228.5,515.7,228.5,515.7,228.4z"/>
	<path d="M572.3,332.8c-2.8,0.8-5.1,2.4-7.5,1.7c-0.8-0.5-0.8-1-0.8-1.5c0.7-1.5,2.8-1.3,3.2-3.1
		C569.2,330.7,570.6,331.7,572.3,332.8z"/>
	<path d="M587.2,298.5c-6.9-6.4-8.8-8.5-9.8-10.6c0.3-0.4,0.7-0.3,0.9-0.1c3.3,3,6.1,6.4,8.6,10C587.1,298,587.1,298.3,587.2,298.5z
		"/>
	<path d="M591.9,306.4c0,3.6,1.2,7,0.9,10.8C591.4,312.3,591.1,309.5,591.9,306.4z"/>
	<path d="M552.7,294.2c-0.1-1.2,0.7-2,1.4-2.8c1-1.2,1.7-2.8,3.1-3.6c0.5,0.4,0.4,0.8,0.3,1.1C556.2,291.1,554.5,292.7,552.7,294.2z
		"/>
	<path d="M595.5,341.1c0-1.6,0.8-2.2,1.7-2.9C597.4,339.7,596.8,340.3,595.5,341.1z"/>
	<path d="M537.5,331.6c-0.8,0-0.9-0.4-0.8-1C537.3,330.8,537.4,331.2,537.5,331.6z"/>
	<path d="M599.9,332.9c0,0.1,0.1,0.2,0.1,0.3c-0.1,0.3-0.2,0.3-0.3,0.1c0-0.1,0-0.2,0.1-0.3C599.8,332.9,599.9,332.9,599.9,332.9z"
		/>
	<polygon points="594.4,343.2 594.5,343.2 594.3,343.2 	"/>
	<path d="M545.4,343.2c-0.5,0-0.6-0.3-0.7-0.7l-0.1,0.1C545,342.6,545.3,342.9,545.4,343.2z"/>
	<polygon points="544.7,342.5 544.5,342.4 544.6,342.6 	"/>
	<polygon points="540.3,336.7 540.5,336.9 540.4,336.7 	"/>
	<polygon points="540.4,336.7 540.2,336.6 540.3,336.7 	"/>
	<path d="M537.4,331.7c0.1,0.1,0.2,0.1,0.3,0.2C537.5,332,537.5,332,537.4,331.7z"/>
	<polygon points="587.1,298.5 587.3,298.6 587.2,298.5 	"/>
	<path d="M551.1,295.6c-0.1,0.1-0.2,0.2-0.2,0.3C550.9,295.8,551,295.7,551.1,295.6z"/>
	<path d="M551.8,294.8c-0.1,0.4-0.3,0.6-0.7,0.7l0.1,0.1C551.2,295.3,551.4,295,551.8,294.8z"/>
	<path d="M552.6,294.1c-0.3,0.2-0.5,0.5-0.8,0.7l0.1,0.1C552,294.5,552.2,294.2,552.6,294.1z"/>
	<path d="M603.1,292c0-0.5-0.2-0.8-0.7-0.7c0.3-0.4,0.5-0.7,0.8-1.1c1.6,0.7,1.6,0.7,2.6,2.5c-0.7,0.5-0.9-0.4-1.4-0.5
		C604,292,603.6,291.8,603.1,292z"/>
	<path d="M603,262.5c1.4,0.9,1.5,2.4,2.4,4.1C603.6,265,603.6,265,603,262.5z"/>
	<path d="M594.7,231c-0.8-0.7-1.1-1.5-0.7-2.8C594.4,229.2,595,229.8,594.7,231z"/>
	<path d="M587.9,194.1c0.6,0.2,0.6,0.6,0.5,1.1c-0.1,0.3-0.3,0.3-0.6,0.2c-0.3-0.2-0.5-0.6-0.4-0.9
		C587.5,194.3,587.8,194.2,587.9,194.1z"/>
	<path d="M607.1,186.9c0.5-0.4,1-0.4,1.5-0.1C608.3,188,608.2,188,607.1,186.9z"/>
	<path d="M595.2,188c0.6-0.6,1.3-0.8,2.2-0.5C596.7,188.5,595.8,187.9,595.2,188z"/>
	<path d="M596.2,193.3c-0.3-0.6-0.3-0.9,0-1.1C596.5,192.4,596.4,192.7,596.2,193.3z"/>
	<path d="M603.1,262.4c-0.5-0.4-0.6-0.9-0.5-1.6C603.1,261.4,603,262,603.1,262.4z"/>
	<path d="M599.3,239.9c-0.1,0-0.1,0-0.2,0c0-0.2,0-0.4,0-0.7c0.1,0,0.2,0,0.2,0C599.3,239.5,599.3,239.7,599.3,239.9z"/>
	<path d="M596.9,233.4c0.1,0.2,0.3,0.4,0.3,0.6s-0.2,0.4-0.3,0.6c-0.1-0.2-0.3-0.4-0.3-0.6C596.7,233.8,596.8,233.6,596.9,233.4z"/>
	<path d="M589.7,200.4c0.2,0.3,0.6,0.7,0.1,1.1h-0.2C589.2,201.1,589.3,200.7,589.7,200.4z"/>
	<path d="M609.7,277.5c-0.9-0.2-0.6-0.9-0.7-1.4h-0.1C609.4,276.5,609.6,277,609.7,277.5z"/>
	<path d="M609.6,277.5c0.7,0.2,0.8,0.8,0.7,1.5l0.1-0.1C609.4,278.8,609.5,278.1,609.6,277.5z"/>
	<path d="M595.1,187.9c0,0.1,0,0.3,0,0.3C594.8,188.3,594.8,188.2,595.1,187.9z"/>
	<polygon points="609,276.1 608.8,276 608.9,276.1 	"/>
	<path d="M610.3,279c0.3,0,0.4,0.1,0.3,0.3c0,0-0.2,0-0.2-0.1C610.3,279.2,610.4,279,610.3,279z"/>
	<path d="M565.4,143.1c-1.4-0.3-2.7-0.7-4.6-1.2c1.5,1.8,3.8,1.5,4.7,3.1c-1.3,0.9-2.3-0.5-3.6-0.3c-0.5,0.4-1.1,0.9-1.7,1.4
		c-1.3,0.2-2.4-0.1-3.2-1c-1.1-0.1-1.4,1-2.3,1.1c-0.4,0-0.7-0.2-0.8-0.6c0.2-1,1.3-1.3,1.8-2.1s1-1.7,2.4-2.2
		C560.4,140.9,563.2,141.2,565.4,143.1z"/>
	<path d="M534.6,142.6c1-1.3,2.4-0.8,3.6-0.7c1.8,0.3,3.4,1.2,4.6,2.6c0.3,0.4,0.5,0.8,0.2,1.4c-0.5,0.6-1,0.1-1.5-0.1
		c-0.9,0-1.4,1-2.2,1.1c-1.5,0.1-2.4-0.8-3.2-1.8c-1.1-0.2-1.4,0.8-2.2,1c-0.5,0.2-0.9,0-1.3-0.3c-0.4-0.9,0.7-1.2,0.7-1.9l-0.1,0.1
		c0.4-0.1,0.9,0,1.3-0.2C535,143.5,535,143,534.6,142.6z"/>
	<path d="M559,167.9c-1.1,1-2.2,1-3.2,1c-3.5-0.2-7-0.1-10.4,0.2c-1.3,0.1-2.6,0.1-4.2-1c4.3-0.9,8-2.7,12.1-1.2
		c1.5,0.5,3.2,0.9,4.9,0.4C558.3,167.3,558.5,167.6,559,167.9z"/>
	<path d="M543.3,171.5c2.2,0.4,4.2,0.7,6.3,0.7s4.2,0,6.4-1.9c-0.8,2.3-1.1,2.8-2.3,3.1c-2.4,0.6-4.9,1.3-7.3-0.1
		c-0.9-0.5-2.2-0.2-2.9-1.2C543.5,172,543.5,171.9,543.3,171.5z"/>
	<path d="M551.2,138.7c1.9-1.5,3.9-1.6,5.8-1.8c4.9-0.5,6.7-0.3,9.3,1c-0.2,0.1-0.5,0.3-0.6,0.2c-4-0.8-7.8,0.1-11.7,0.8
		C553.3,139.1,552.5,139.7,551.2,138.7z"/>
	<path d="M531.5,138.1c1.5-1.2,3-1.3,4.4-1.4c2.5,0,5,0.5,7.3,1.6c0.5,0.2,1.1,0.5,0.9,1.5c-1.4,0-2.6-1.1-4-1.3
		c-1.3-0.2-2.6-0.4-3.9-0.5C534.8,138.1,533.4,138.1,531.5,138.1z"/>
	<path d="M554.8,160.4c-1.2,0.1-2.5,0.5-3.5-0.7c0-0.6,0.4-0.8,0.9-1c0.9-0.3,1.4,0.8,2.3,0.7c0.8-0.7,0.1-1.6,0.4-2.4
		C556.2,158.1,556.2,158.3,554.8,160.4z"/>
	<path d="M556.9,116.5c0.8-0.2,0.7-0.9,0.7-1.5c0.5-0.2,1-0.5,1.5-0.7c-0.2,1-0.5,2-0.7,3c-0.4,0.2-0.8,0.4-1.3,0.6
		C557,117.4,556.9,116.9,556.9,116.5z"/>
	<path d="M546.7,160.4c-0.2-0.6,0-0.8,0.3-1.1c0.8-0.3,1.4,0,1.6,0.8C547.9,160.8,547.2,160.6,546.7,160.4z"/>
	<path d="M540.3,118c1,0.2,1.2,1,1.7,1.7C540.9,119.8,540.9,119.8,540.3,118z"/>
	<path d="M533.1,143.9c-0.4-0.1-0.8-0.2-1.3-0.4c0.7-1.2,1.7-1.1,2.7-1l-0.1-0.1c-0.1,0.5-0.5,0.6-0.9,0.8c-0.2,0.1-0.4,0.5-0.6,0.7
		H533.1z"/>
	<path d="M551.9,143.3c0-0.7-0.3-1.6,0.6-2c0.4,0.1,0.5,0.2,0.3,0.5C552.5,142.3,552.2,142.8,551.9,143.3z"/>
	<path d="M537.7,147.9c0.7-0.6,1.4-0.7,2.4,0C539.2,148.5,538.5,148.6,537.7,147.9z"/>
	<path d="M531.5,120.8c0.2,0.2,0.4,0.5,0.6,0.8C531.4,121.8,531.4,121.3,531.5,120.8z"/>
	<path d="M567.3,136.1c-0.5-0.5-0.4-1-0.1-1.6c0.7,0,0.5,0.5,0.6,0.9C567.9,135.7,567.7,136,567.3,136.1z"/>
	<path d="M530.3,122.3c0.1,0.2,0.2,0.5,0.1,0.2C530.4,122.8,530.4,122.5,530.3,122.3z"/>
	<path d="M529.8,127.1c0-0.1-0.1-0.2-0.1-0.3c0-0.3,0.1-0.4,0.3-0.2c0.1,0.1,0.1,0.2,0,0.3C530,127,529.8,127,529.8,127.1z"/>
	<path d="M544.7,157.7c0.1-0.3,0.1-0.7,0.2-1.1C545.4,157.2,545.2,157.5,544.7,157.7z"/>
	<polygon points="550.7,146.7 550.9,146.7 550.8,147 	"/>
	<path d="M559.5,147.2c0.3-0.3,0.5-0.3,0.8,0C560,147.5,559.7,147.5,559.5,147.2z"/>
	<path d="M558.3,117.2c0.3,0,0.6,0,0.8,0c-0.1,0.2-0.1,0.5-0.3,0.5C558.5,117.8,558.4,117.5,558.3,117.2z"/>
	<path d="M559,117.3c0.1-0.5,0.3-0.8,0.8-0.8C559.8,117,559.6,117.3,559,117.3z"/>
	<path d="M545.2,160.2c-0.1,0.1-0.2,0.2-0.2,0.2c-0.1-0.1-0.2-0.2-0.2-0.3c0-0.1,0.1-0.2,0.2-0.2C545.1,160,545.1,160.1,545.2,160.2
		z"/>
	<path d="M550.4,157.6c0,0.1,0,0.2-0.1,0.2C550.3,157.8,550.4,157.8,550.4,157.6z"/>
	<path d="M544.6,157.6c-0.1,0.1-0.1,0.3-0.1,0.3C544.4,157.9,544.5,157.8,544.6,157.6C544.7,157.7,544.6,157.6,544.6,157.6z"/>
	<path d="M550.4,157.7c0.1-0.2,0.1-0.4,0.2-0.5c0.1,0.1,0.2,0.2,0.3,0.3C550.7,157.6,550.5,157.6,550.4,157.7z"/>
	<path d="M530.3,122.3l-0.2-0.1L530.3,122.3z"/>
	<path d="M544.6,145.5c0.3-0.1,0.4,0,0.4,0.3h-0.2C544.7,145.6,544.7,145.5,544.6,145.5z"/>
	<path d="M544.7,145.4c-0.2-0.1-0.3-0.1-0.5-0.2c0.1-0.1,0.2-0.2,0.3-0.3C544.5,145.1,544.5,145.3,544.7,145.4z"/>
	<polygon points="551.9,143.2 551.7,143.4 551.9,143.3 	"/>
	<path d="M708.4,219.6c0.8,0.1,1.6,0.3,2.4,0.4c0.4,0.7,0,1-0.5,1.1c-0.8,0.1-1.1,0.8-1.7,1.3c-1.3,0-2-1.1-3-1.5
		c-1.7,0-2.4,1.7-3.8,1.9c-0.4-0.3-0.6-0.6-0.3-1c0.7-1.1,1.8-1.6,3-1.9c0.6-0.1,1.1-0.2,1.8-0.4c0.1-0.7,0.1-1.3,0.2-1.9l-0.1,0.1
		c0.3,0.1,0.7,0.3,1,0.4c0.9,0,0.8-1.3,1.7-1.5C709.7,217.9,708.9,218.7,708.4,219.6v0.2V219.6z"/>
	<path d="M608.2,214.1c0.2-0.4,0.4-0.8,0.7-1.3c1.7-0.2,3.3-1.1,5.6-0.8C612.5,213.9,610.6,214.6,608.2,214.1L608.2,214.1z"/>
	<path d="M702.1,224.8c0,0.3,0,0.5,0,0.8c-0.4,0-0.7-0.1-1.2-0.1c-1.9,0.9-3.3,2.8-5.8,3.2c1-1.2,3.2-3.2,4.2-3.7
		C700.2,224.6,701.1,224.7,702.1,224.8z"/>
	<path d="M682.5,226.5c2-0.2,3.1-0.1,4.1,0.9C685.2,228.1,684.2,227.4,682.5,226.5z"/>
	<path d="M692,229.7c-1.8,0.2-2.9,0.5-3.6-0.9C689.6,228.2,690.4,228.9,692,229.7z"/>
	<path d="M678.3,225.6c0.5-0.9,1.2-0.9,2.1-0.4C679.7,225.8,678.9,225.5,678.3,225.6z"/>
	<path d="M676.7,225.5c-0.7,0-1.4,0-2.2,0C675.4,224.9,675.4,224.9,676.7,225.5z"/>
	<path d="M670.5,225.1c0.1,0,0.2-0.1,0.3-0.1c0.3,0.1,0.4,0.2,0.1,0.4c-0.1,0-0.2,0-0.3,0C670.6,225.4,670.6,225.2,670.5,225.1z"/>
	<path d="M618.1,212.3c-0.3,0.3-0.5,0.3-0.8,0c-0.2-0.1-0.1-0.3,0.2-0.4C617.7,211.8,618,211.9,618.1,212.3z"/>
	<path d="M676.6,225.6c0.6,0,1.1,0,1.7,0l-0.1-0.1C677.7,226,677.2,226,676.6,225.6z"/>
	<path d="M702.8,225.5c0,0.3,0,0.6,0,0.8c-0.3-0.3-0.6-0.5-0.8-0.8C702.2,225.5,702.5,225.5,702.8,225.5z"/>
	<path d="M706.4,217.6c-0.1-0.1-0.3-0.2-0.3-0.2S706.2,217.5,706.4,217.6z"/>
	<path d="M702.7,226.2c0.3,0,0.6,0,0.8,0c0,0.3,0,0.6,0,0.8C703.2,226.8,703,226.5,702.7,226.2z"/>
	<path d="M563.5,186.8c0.6,1,0.4,1.7-0.5,2.4c-0.5-0.8-0.3-1.5-0.3-2.2C563.1,186.9,563.3,186.8,563.5,186.8z"/>
	<path d="M563.4,233.6c0.5-1.1,0.9-2.2,2.3-2.8c0,1.3-0.6,2.1-1.2,2.7C564,233.5,563.7,233.5,563.4,233.6z"/>
	<path d="M559.8,105.7c-0.3,0.3-0.6,0.6-0.8,0.8C559.3,106.2,559.6,105.9,559.8,105.7z"/>
</g>
</svg>
