<?xml version="1.0" encoding="utf-8"?>
<!-- Generator: Adobe Illustrator 20.0.0, SVG Export Plug-In . SVG Version: 6.00 Build 0)  -->
<svg version="1.2" baseProfile="tiny" id="Layer_2" xmlns="http://www.w3.org/2000/svg" xmlns:xlink="http://www.w3.org/1999/xlink"
	 x="0px" y="0px" viewBox="0 0 900 600" xml:space="preserve">
<g>
	<path d="M238.4,431.6c-0.3,1.7,0.2,3.1,0.6,4.4c1.1,3.2,1.5,6.5,1.5,9.8c0,6.2,0.1,12.4,0,18.6c0,1.2-0.3,2.3-0.6,3.5
		c-0.7,2.6-1.5,5.3-2.3,7.9c-0.5,1.5-0.9,3-1.6,4.3c-1.5,2.9-2.2,6-2.6,9.2c-0.2,1.3-0.4,2.6-0.6,3.9c-0.2,1.5-0.2,2.9,0.3,4.5
		c0.5,1.3,0.3,3.1,0,4.5c-1,4.6-1.4,9.2-1.6,13.8c0,1,0,2.1,0,3.1c1.8,0.7,3.6-0.4,5.3,0.8c0.1,0.6,0.5,1.4,0.5,2.1
		c0.1,2.4,0.7,4.7,1.4,7c0.6,2.1,1.2,4.1,0.9,6.3c-0.1,1.2,0,2.4,0.2,3.6c0.4,3.4,0.7,6.8,0.8,10.3c0.1,1.9,0.8,3.7,1.3,5.5
		c0.2,0.8,0.6,1.5,0.9,2.3c0.4,1.4,0.2,2.3-1,3.1c-3.2,2-6.4,4.1-9.7,6c-2.2,1.2-4.6,2-7.1,2.1c-2.1,0.1-4.3,0.2-6.4,0.6
		c-2.1,0.4-4,1.4-5.7,2.7c-0.7,0.5-1.3,1-2,1.5c-2.3,1.7-4.7,3.3-6.8,5.2c-2.6,2.3-5.6,3.5-9,4c-1.4,0.2-2.8,0.3-4.3,0.4
		c-1.9,0.2-3.8,0.5-5.6,0.9c-4.9,1-9.9,1.3-14.9,0.4c-0.7-0.1-1.4-0.2-2.1-0.2c-2.9,0.2-5.7-0.6-8.4-1.5c-1.5-0.5-2.9-1.1-4.4-1.5
		c-2.6-0.8-3.8-2.9-3.4-5.1c0.3-1.8,0-3.5,0-5.3c-0.1-2.9,0.6-5.7,2-8.2c0.3-0.5,0.7-1,0.9-1.5c0.8-1.8,2-3.2,4-3.7
		c0.6-0.1,1.1-0.5,1.5-0.9c3-2.3,6.2-4.4,8.4-7.6c1.7-2.6,4-4.6,6.5-6.5c1.8-1.3,3.3-3,5-4.5c0.9-3.8,0.3-3.8,5.5-4.6
		c0.9-1.1,1.9-2.4,2.9-3.7c1.3-1.9,2-4,1.6-6.4c-0.2-1.3-0.1-2.6-0.2-3.9c-0.3-3.5,0.9-6.5,3.2-9.1c1.7-0.6,3.7,0.5,5.3-0.9
		c0-0.3,0-0.8,0-1.3c-0.8-7-1.5-13.9-2.3-20.9c-0.1-0.7-0.2-1.4-0.1-2.1c0.5-2.6-0.2-5-0.8-7.4c-1-4.2-2.2-8.3-3.7-12.3
		c-2.3-5.9-4.1-11.9-5-18.2c-0.7-4.6-0.7-9.2-0.1-13.9c0.2-1.8,0.3-3.5-0.3-5.3c-1-2.9-0.4-5.9,0.3-8.8c0.5-2.2,1.3-4.3,2.3-6.3
		c1.4-2.7,2.4-5.7,4.5-8.1c0.3-0.3,0.4-0.8,0.6-1.3c2.4-5.3,5.6-10,9.6-14.1c6.8-7,13.7-13.8,21.2-20.2c1.4-1.2,2.8-2.5,4.1-4
		c5.5-6,11.5-11.4,18.5-15.6c5.9-3.6,11.8-7.1,17.7-10.7c0.7-0.4,1.5-0.6,2.2-0.8c2.7-3.6,5.4-7.1,8.2-10.7
		c-2.8-1.4-3.2-1.5-6.4-1.4c-0.7,0-1.5-0.1-2-0.5c-2.1-1.3-4.1-2.8-6.2-4.2c-0.3-0.2-0.7-0.5-0.7-0.8c-0.5-1.9-2-3.2-2.9-4.8
		c-1-1.6-1.9-3.3-2-5.3c0-0.7-0.2-1.4-0.3-2c-3.6-3.6-6.4-7.8-9.3-11.8c-1.3-1.8-2.7-3.2-4.4-4.6c-2.2-1.8-4.3-3.8-6.2-5.9
		c-3.9-4.3-7.7-8.8-11.4-13.2c-5-6-9-12.6-12.3-19.6c-2.9-6-5.7-12-8-18.3c-1.7-4.7-3.1-9.5-3.6-14.5c-0.1-0.7-0.3-1.4-0.4-2.1
		c-0.2-1.5-0.1-3,0.4-4.5c1.3-3.8,3-7.5,4.9-11.1c0.8-1.5,1.5-2.9,1.9-4.6c0.7-2.6,2.3-4.7,4.1-6.6c2.4-2.5,5.1-4.7,8-6.5
		c2.8-1.8,5.7-3.4,8.6-5.1c2.8-1.6,5.5-3.3,8.2-5c1.6-1,1.6-1.1,3.9-1.5c0.2-0.1,0.4-0.3,0.6-0.4c2.7-4.1,6.3-7.1,10.3-9.7
		c1.9-1.2,3.7-2.6,5.4-4.1c3.1-2.9,6.7-5,10.9-5.7c0.5-0.1,0.9-0.3,1.4-0.3c6.7-1,12.6-4,18.4-7.5c3.7-2.3,7.8-4.1,11.7-6
		c1.1-0.5,2.1-1,3.2-1.5c5.5-2.3,10-5.8,13.6-10.9c0.1-2.9,0-6-0.3-9c-0.1-0.8-0.3-1.7-0.8-2.3c-3.2-4.6-4.8-9.8-6.5-15
		c-0.1-0.3-0.2-0.7-0.4-1.2c-2.3-0.7-3.4-2.6-4.1-4.8c-0.5-1.6-1.3-3.1-1.7-4.7c-0.6-2.1-1.3-4-2.4-5.9c-1.2-1.9-1.5-4-1.5-6.2
		c0-0.7,0.1-1.5,0.4-2.1c0.9-1.9,2-3.8,2.8-5.4c-0.1-3.5-0.4-6.9-0.2-10.2c0.2-4.1,0.9-8.3,1.4-12.4c0.1-0.5,0.3-0.9,0.3-1.4
		c0-3.2,0.7-6.3,1.6-9.4c0.3-1,0.6-1.9,1.2-2.8c0.8-1.2,1.4-2.5,2.1-3.7c1.6-3,3.8-5.5,6.9-7c2.5-1.2,4.9-2.5,7.4-3.5
		c1.5-0.6,3.1-1.3,4.8-0.4c0.4,0.2,1.1-0.1,1.8-0.2c0.3-0.7,0.5-1.3,0.9-1.9c0.5-0.8,1.1-1.5,1.7-2.3c0.1-0.2,0.4-0.3,0.6-0.4
		c4.6-4.8,10.4-4.5,16.3-3.4c2.3,0.4,3.9,2.1,5.4,3.9c0.3,0.3,0.5,0.8,0.6,1.3c0.3,2.1,1.5,4,0.6,6.2c-0.4,1,0.4,1.7,1.2,2.4
		c1.9,1.5,3.7,3,5.5,4.6c2.3,2,3.9,4.5,4.9,7.4c1.3,3.8,2.4,7.7,2.3,11.8c0,1.3,0.2,2.6,0.3,3.9c0.1,1.4,0.4,2.8-0.3,4.2
		c0.6,3.8-0.4,7.8,0.4,11.7c1.5-0.1,1.8-1.7,3.5-2c0.6-0.1,1.2,0.7,1.7,1.5c1.2,1.8,1.7,3.9,1.9,6.1c0.3,3.1-0.2,5.9-2.5,8.2
		c-0.5,0.5-0.9,1.4-1.1,2.2c-0.6,2.1-1.2,4.1-3.2,5.4c-0.5,0.4-0.9,1.1-1.3,1.6c-0.8-0.5-1.5-0.9-2.3-1.3c-1.2,3.1-2,6.2-2.5,9.4
		c-0.2,1.6-0.6,3.3-1.3,4.8c-1.5,3.1-2.1,6.3-2.2,9.7c-0.1,3.2,0.2,6.4,0.2,9.6c0,2.6,1,4.5,3.4,5.8c3,1.6,6,3.4,9.1,5
		c4.5,2.2,9,4.2,13.5,6.4c1.9,0.9,3.7,2.1,5.6,3.2c3.9,2.4,8.2,3.8,12.6,4.7c1.6,0.3,3.3,0.7,4.9,1c0.7,0.2,1.4,0.3,2.1,0.5
		c3.3,1.2,6.7,2.4,10,3.8c3.1,1.3,6,2.8,9,4.2c6,2.8,10.6,7.1,14.8,12.1c0.8,0.9,1.7,1.7,2.3,2.7c3.1,4.3,7.6,6.7,12.1,9.2
		c0.6,0.3,1.3,0.5,2,0.6c7.9,1.3,15.1,4.1,21.8,8.4c3.9,2.6,7.4,5.5,10.8,8.7c0.9,0.8,1.6,1.7,2.3,2.7c2.7,3.5,5.3,7,8,10.5
		c1.9,2.5,3.8,4.8,5.8,7.3c1.1,1.4,2.4,2.6,2.9,4.4c0.3,1,1.2,1.7,1.9,2.6c1.5,1.8,2.9,3.7,4.5,5.7c-0.9,0.3-1.5,0.6-2.3,0.8
		c-0.1,0.7-0.2,1.4-0.2,2.1c0,3-0.6,5.9-1.6,8.7c-0.4,1.1-0.7,2.3-0.6,3.5c0.1,1.8-0.4,3.6-1,5.2c-4.4,11.6-9.8,22.7-17,32.9
		c-2.6,3.7-5.6,7.1-9,10.1c-1.9,1.6-3.5,3.4-4.8,5.7c-1.3,2.3-3,4.3-4.7,6.3c-3.2,4-6.5,7.9-9.7,11.9c-0.6,0.7-1.2,1.6-2,2
		c-1.6,0.7-2.3,2-2.9,3.4c-1.9,4.3-4.4,8.1-7.8,11.4c-0.3,0.3-0.6,0.7-1.1,1.2c0.5,0.5,1,1,1.5,1.4c2.1,1.4,3.9,3.1,5.6,5
		c1,1,2.1,2,3.2,2.8c7.5,5.4,15,10.9,22.6,16.2c10.2,7.1,19.1,15.7,26.8,25.5c3.7,4.7,7.2,9.5,10.6,14.3c1.3,1.8,2.6,3.3,4.3,4.7
		c3.6,2.9,7.1,5.9,10.8,8.8c1.8,1.4,3.7,2.6,5.5,4c0.8,0.6,1.6,1.1,2.1,1.9c1.1,1.7,2.7,2.7,4.5,3.4c2.2,0.9,4.5,1.7,6.7,2.3
		c3.2,1,6.4,1.9,9.4,3.4c0.8,0.4,1.8,0.6,2.7,0.9c6.5,2.3,13.3,3.5,20,5.1c4.5,1.1,8.8,2.9,13,4.9c2.2,1.1,4.3,2.5,6.3,3.9
		c9.5,6.8,18.2,14.5,27.8,21.2c3.2,2.3,6.4,4.6,9.5,7c5,3.9,9.9,7.8,14.3,12.4c2.8,3,6.1,5.3,9.7,7.2c3.7,2,7.3,4.1,10.9,6.1
		c1,0.6,2.1,1.1,2.5,2.4c0.2,0.5,0.8,0.8,1.3,1.1c1.3,0.7,2.6,1.3,3.9,1.8c1.5,0.7,3.1,1.1,4.2,2.6c0.1,0.1,0.2,0.2,0.3,0.2
		c3.8,1.5,7.4,3.9,11.6,4.4c1.6,0.2,3.2,0.7,4.8,1.3c1.9,0.6,3.2,2,4,3.8c0.3,0.7,0.3,1.4-0.5,1.8c-0.2-0.1-0.4-0.2-0.5-0.4
		c-2.3-3.4-3.7-4-7.4-3.2c-0.7,0.1-1.4,0.5-2.1,0.4c-3-0.4-5.3,1-7.4,2.8c-0.6,2.1-0.5,4.1-0.2,6.1c0.4,2.4-0.4,4.2-2.3,5.6
		c-0.8,0.7-1.5,1.4-2.2,2.3c-0.8,1.1-2,2-3.1,2.9c-1,0.8-2.1,1.5-3.2,2.2c1.1,3,2.3,5.9,3.3,8.8c0.6,1.7,0.9,3.5,1.1,5.2
		c0.2,1.8,0.1,3.6-1.3,4.9c1,5.1,0.9,10-0.8,15c1.2,1,2.6,0.4,3.8,0.7c1.2,0.3,2.5,0.7,3.8,1c0.7,2.1-0.3,4.2-0.5,6.5
		c0.5,0.3,1.1,0.8,1.7,1c1.7,0.7,3.4,1,5.2,0.9c4.4-0.1,8.8-0.1,13.1-1.2c2.3-0.6,4.7-0.6,7.1-0.6c3.1,0,6.2,0,9.3,0.1
		c2.2,0,4.2-0.4,6.5-1.2c-0.2-0.6-0.3-1.2-0.6-1.6c-1.8-2.6-4.4-4-7.3-4.8c-1.4-0.4-2.8-0.2-4.2,0.3c-3,1.1-6,2.2-8.9,3.3
		c-0.4,1.2-0.6,2.2-1.8,2.6c-1.8,0.6-3.6,1.3-5.3,2c-0.3,0.1-0.7-0.1-1.3-0.2c0.4-0.5,0.5-0.9,0.9-1.1c1.2-0.6,2.4-1,3.5-1.5
		c0.1-0.6,0.1-1.3,0.4-1.6c0.9-0.9,1.9-1.8,3-2.5c3.1-1.8,6.4-3.1,9.9-3.9c1.1-0.3,2.1-0.2,3.1,0.2c0.9,0.4,1.8,0.5,2.7,0.9
		c3.2,1.5,5.9,3.5,6.7,7.3c0.2,0.1,0.4,0.3,0.6,0.3c0.7,0,1.4-0.1,2.2-0.2c0.1-0.7,0.4-1.4,0.4-2.1c0.1-2.9,0-5.7,0.1-8.6
		c0-1.5-0.4-2.8-1.4-3.9c-1.5-1.8-2.9-3.8-4.3-5.7c-0.3-0.4-0.6-0.9-1-1c-1.7-0.6-2.5-2.1-3.7-3.3c-1.4-1.4-2.3-3-2.9-4.9
		c-0.8-2.6-1.8-5.2-1.7-8c0.1-2.2-1.3-4-2.2-6.1c-2.4,1.5-5.2,1.4-7.8,2.2c0.9,0.1,1.8,0.2,2.6,0.3c1.4,0.2,2.8,0.4,4.2,0.8
		c0.4,0.1,0.8,0.6,0.9,1c0,0.3-0.3,0.9-0.6,1.1c-0.7,0.4-1.5,0.6-2.4,1c0.5,1.2,2.1,1,2.8,2c0.5,0.7,0.4,1.8-0.3,2.2
		c-0.4,0.2-0.9,0.4-1.3,0.5c-1.5,0.2-3.1,0.5-4.6,0.6c-1.3,0.1-2.5,0.5-4.4,1.4c1.9,0.1,3.1,0.1,4.2,0.1c1.9,0,3.8,0.3,5.6,1
		c1,0.4,2,1,2,2.2c0.1,0.9-0.7,1.7-2.2,2c-3,0.7-6.2,0.7-9.2,0.3c-2.2-0.3-3-2.2-1.8-4.3c0.2-0.3,0.5-0.5,0.7-0.8
		c-0.6-0.6-1-0.1-1.5,0.1c-0.5,0.2-1.1,0.6-1.6,0.7c-0.8,0.3-1.6,0.1-2.3-0.6c-0.7-0.8-0.8-1.8-0.2-2.6c0.4-0.6,0.9-1.1,1.5-1.5
		c0.3-0.2,0.6-0.4,0.9-0.6c0.3-0.2,0.6-0.4,1.1-0.7c-1.5-0.5-2.6,0.1-3.7,0.5c-2.2,0.8-3.1,0.5-3.7-1.7c-0.2-0.9-0.8-1.4-1.3-2
		c-0.9-1.1-0.9-2.2,0-3.2c0.5-0.5,1.1-0.9,1.7-1.2c1.2-0.5,2.4-1,3.7-1.3c5.1-1.2,10.3-1.9,15.6-0.9c0.2,0,0.4-0.1,0.9-0.2
		c-0.1-1-0.6-1.9-1.2-2.7c-0.2-0.1-0.4-0.3-0.6-0.3c-5.5-0.8-10.9-0.2-16,2.2c-1.5,0.7-2.9,1.6-4.3,2.5c-0.4,0.2-0.8,0.7-1.2,0.8
		c-0.5,0.1-1.2,0-1.6-0.3c-0.6-0.4-0.7-1.3-0.3-1.9c0.2-0.3,0.4-0.6,0.7-0.8c0.5-0.5,1.1-0.9,1.7-1.3c5.7-3,11.7-4.7,18.2-3.7
		c0.6,0.1,1.2,0.2,1.8,0.2c0.1,0,0.2-0.1,0.3-0.2c-1-3-1.8-4.3-5.7-8.7c0.4-1,1.2-1.2,2-0.8c0.8,0.4,1.7,1,2.2,1.7
		c3.8,5.2,7.7,10.3,10.1,16.3c0.5,1.3,0.8,2.5,0.4,3.8c-0.4,1.2-0.2,2.4,0.2,3.5c1,2.8,2,5.6,4.3,7.7c1.1,1,1.9,2.1,2.1,3.6
		c0.1,0.7,0.7,1.5,1.2,2.1c1.2,1.5,2.6,2.8,3.8,4.3c0.6,0.7,1.2,1.5,1.5,2.4c1.3,4,2.5,8,2.7,12.1c0,0.7,0.1,1.4,0.1,2.1
		c-0.1,2.8-2.2,5.2-5,5.7c-0.5,0.1-1,0-1.4,0.2c-5.5,1.7-11.1,1.4-16.6,1.2c-3.1-0.1-6.2,0.1-9.2,0.5c-4.5,0.6-9,0.8-13.5-0.4
		c-1.6-0.4-3.1-1.2-4.6-1.9c-1-0.5-2-1-3.3-1.7c-0.8-1.9,0.4-4,0.4-6.2c-2.7-1-6,0.7-8.4-1.9c0.5-2.4,1.1-4.7,1.6-7
		c0.7-3.2,0.7-6.3,0-9.5c-0.4-2.2-0.5-4.5-0.7-6.7c-0.1-1.4-0.1-2.9-0.2-4.3c-0.2-2-0.4-4-1.9-5.6c-0.2-0.3-0.4-0.6-0.5-0.9
		c-0.9-2.2-1-3.8,1.4-4.7c0.3-0.1,0.6-0.4,1-0.8c-1.3-1.3-2.8-2.3-4.3-2.9c-1.5-0.6-2.7-1.5-4-2.3c-2.6-1.7-5.2-3.3-7.9-4.9
		c-3.6-2.1-7.3-4-11-6c-2-1-4-2.1-6.3-2.2c-0.7,0-1.4-0.4-2-0.7c-7-3-14.3-5-21.7-7c-11.1-2.9-21.9-6.4-32.2-11.4
		c-0.9-0.4-1.7-0.7-2.6-1.1c-6.6-2.4-13-5.4-19.1-8.7c-5.3-2.9-10.2-6.5-14.2-11.3c-2.5-3-5.9-5.2-9.3-7.2c-0.9-0.5-2-0.7-3.1-0.9
		c-6.8-0.9-13.1-3.5-19.1-6.6c-5.3-2.7-10.6-5.4-15.9-8.1c-1.4-0.7-2.8-1.2-4.3-1.5c-2.2-0.4-4.4-1.2-6.4-2.1
		c-5.8-2.8-11.5-5.6-17.2-8.6c-3.7-1.9-7.4-3.8-11.3-5.2c-6.9-2.3-13.4-5.5-19.8-8.9c-10-5.3-19.8-10.8-29.4-16.8
		c-2.4-1.5-4.8-3.1-7.2-4.7c-5-3.4-10-6.8-15.1-10.2c-0.1-0.1-0.2-0.1-0.3-0.2c-5.8-2.8-11.6-5.5-17.4-8.3c-0.8-0.4-1.6-0.4-2.4-0.2
		c-8.7,2.1-17.2,0.7-25.6-2c-1.9-0.6-3.9-1.1-5.9-1.7c-3.2,4.7-7.9,7.5-12.9,9.8c-5.9,2.6-12,4.6-18,6.7
		c-16,5.6-32.1,11.2-48.1,16.8c-2.9,1-5.9,1.9-9,2.3c-2.3,0.3-4.3,1.2-6.2,2.6c-2.3,1.8-4.8,3.6-7.1,5.4c-2.6,2-5.5,3.2-8.8,3.6
		C239.2,431.2,238.9,431.4,238.4,431.6z M363.3,53.8c0.3-0.1,0.7-0.1,0.9-0.3c0.2-0.2,0.6-0.5,0.1-0.8c-0.1-0.1-0.5,0.1-0.5,0.2
		C363.5,53.3,363.5,53.6,363.3,53.8l0,0.3L363.3,53.8z M369.1,71.1c0.6-0.5,1.6-0.6,1.7-1.7c-1.2-0.1-1.2-0.1-1.6,1.8
		c-0.3,0-0.7,0-1,0.1c-0.1,0-0.1,0.4-0.1,0.6c0.1,0,0.3,0,0.3,0C368.7,71.7,368.9,71.4,369.1,71.1z M385.4,345.9
		c1.3,0.1,2.5,0.2,2.9-1.4c0.2,0,0.5,0.1,0.7-0.1c3-2.4,6.2-4.3,8.8-7.2c0.7-0.8,1.6-1.4,2.5-1.9c0.9-0.5,1.9-1,2.9-1.3
		c2.3-0.7,3.5-2.3,4.1-4.5c0.1-0.3,0.1-0.8,0.3-1c1.4-1.3,1.8-3,2.2-4.8c0.3-1.4,1-2.3,2.3-3c2.2-1.1,4.4-2.3,6.6-3.6
		c0.7-0.4,1.2-1,1.9-1.5c-0.4-0.4-0.6-0.8-0.8-1c-4.1-2.7-8.1-5.3-12.2-8c-0.2-0.1-0.5-0.1-0.7-0.1c-2.3-1.6-4.7-3.2-7-4.8
		c-1.7-1.2-3-2.7-4.1-4.4c-2-3.3-3.1-6.9-3.2-10.8c-0.1-4.3,0.3-8.6,1.2-12.8c0.7-3.6,1.5-7.2,2.1-10.8c0.1-0.5-0.1-1.1-0.1-1.6
		c-0.4,0-0.5-0.1-0.6,0c-0.8,0.3-1.5,0.7-2.3,1c-8.2,3.3-16.7,5.4-25.6,5.5c-1.5,0-3.1,0.3-4.6,0.6c-4.3,0.8-8.6,1.7-13.1,1.9
		c-7.4,0.4-14.7,0.4-22.1-0.1c-6.7-0.5-13.2-1.7-19.5-4.1c-2.7-1-5.2-2.3-7.6-3.8c-0.7-0.4-1.4-1-2.4-0.2c0.2,1,0.4,2,0.7,3
		c0.6,2.3,0.6,4.7,0.5,7.1c-0.1,1.7-0.2,3.3-0.1,5c0.3,7.6,0.1,15.2-1.4,22.7c-0.1,0.4,0,0.9,0,1.4c0.5,0.2,1,0.5,1.4,0.6
		c1.1,0.2,2.1,0.3,3.2,0.4c3,0.4,5.4,1.5,6.6,4.6c0.7,1.9,1.3,3.9,2.4,5.6c1.8,2.7,2.1,6,3.7,8.7c-0.4,0.2-0.6,0.5-0.7,0.5
		c-0.3-0.1-0.7-0.2-0.8-0.5c-0.5-0.9-0.7-2.2-1.5-2.8c-1.2-1-1.7-2.2-2.1-3.6c-0.6-1.9-1.2-3.9-2-5.7c-0.4-1.1-1-2.2-1.6-3.2
		c-0.5-0.8-1.3-1-2.2-0.6c-0.4,0.2-0.8,0.5-1.2,0.8c-0.4,0.3-0.6,1-1.3,0.8c-0.5-1.4,0.9-1.9,1.3-3c-1.7-0.2-3.3-0.4-4.9-0.7
		c-0.7-0.1-1.5-0.1-2.1-0.4c-1.8-1.3-3.8-1.2-5.8-1.1c-0.5,0-0.9-0.1-1.8-0.2c2.4-2.1,5.1-1.4,7.6-1.7c0.2-1.7,0.8-3.3,0.2-5
		c-2.1,0.9-4.1,1.6-6,2.5c-0.6,0.3-1.3,0.8-1.6,1.4c-1,2.1-2.7,2.4-4.7,2.4c-1.3,0-2.6,0-3.9,0c-1.2,0-2.3,0.2-3.1,1.4
		c-0.5,0.8-1.6,0.8-2.2,0.2c-0.9-0.8-1.8-1.6-2.5-2.6c-2.9-3.9-5.7-7.9-8.5-11.9c-0.7-1-1.4-2-2.3-2.7c-2.2-1.8-3.7-4-4.9-6.5
		c-2.5-5.5-5.1-11-7.6-16.5c-0.4-0.9-0.6-2-1.3-2.5c-1.5-1.2-1.9-3-2.5-4.6c-0.9-2.9-1.8-5.9-2.6-8.9c-1.3-4.8-2.6-9.7-4-14.4
		c-0.9-3.2-2.2-6.3-3.8-9.1c-4.6,0.3-4.9,0.3-6.2-0.9c0.7-0.1,1.2-0.4,1.8-0.4c1.1,0,2-0.4,2.9-1.1c2.5-1.8,5.1-3.5,7.7-5.2
		c4-2.6,8-5.2,11.4-8.6c0.4-0.4,0.7-0.8,1.1-1.3c-2.5-1.4-2.5-1.4-3.5-2.8c0.8,0,1.5-0.1,2.1,0c2.9,0.5,5.8,1.1,8.8,1.4
		c2,0.2,4.1,0.4,6-0.1c1.7-0.4,2.8-0.1,3.8,1c1.2,1.3,2.2,2.8,3.4,4.3c0.3-0.7,0.6-1.2,0.8-1.7c1.2-3.7,2.5-7.4,3.7-11.2
		c0.5-1.5,0.7-3,1-4.5c0.6-4.1,1.1-8.2,1.7-12.4c0.8-6.3,2.7-12.3,4.9-18.2c0.4-1.2,1.2-2.3,1-3.8c-1.5-0.4-3-0.9-4.6-1.3
		c1.8-2.1,4-0.3,5.9-0.9c1.2-2.6,2.3-5.2,2.9-8.6c-1.7,1.8-3.6,2.1-5.4,2.7c-1.5,0.5-3,0.9-4.4,1.5c-4.5,1.9-9.1,3.5-14,4
		c-1.2,0.1-2.1,0.6-2.6,1.6c-0.6,1.1-1.6,1.7-2.6,2.3c-2.4,1.4-4.7,2.8-7.1,4.2c-5.1,2.9-9.6,6.7-13.6,10.9
		c-0.7,0.7-1.3,1.4-1.7,1.9c-1.7,0.6-3.2,0.5-4.3,1.5c-2.7,2.4-5.9,4-9,5.8c-2.6,1.5-5.1,3-7.6,4.6c-1.4,0.9-2.8,1.8-4,2.9
		c-0.9,0.9-1.4,2.1-2.1,3.2c-2,3.4-4.1,6.7-6,10.1c-1.8,3.3-3.5,6.8-5.2,10.2c-0.3,0.6-0.5,1.3-0.7,1.9c2,2.5,2.1,2.5,1.8,5.6
		c-0.2,1.6,0,3.1,0.6,4.5c1.9,4.5,3.6,9.1,5.7,13.5c3.1,6.5,6.7,12.9,9.9,19.4c1.9,3.9,4.5,7.2,7.6,10.3c1.5,1.5,3,3.1,4.3,4.8
		c4.8,6.3,9.8,12.6,15.4,18.3c0.7,0.7,1.2,1.5,1.7,2.3c0.9,1.2,1.8,2.5,2.7,3.8c1.8,2.4,3.6,4.7,5.4,7.1c0.5,0.7,1.1,1.7,1.1,2.6
		c0,2.2,1.1,3.8,2.2,5.5c1.9,2.9,4.5,5.1,7.2,7.4c2.3,1.9,4.8,3.1,7.6,3.6c2.3,0.4,4.7,0.8,7.1,0.6c1.6-0.1,3.3,0.2,4.7,0.3
		c1,0.7,1.1,1.8,2.2,2.1c1.3,0.3,2.4,1,2.9,2.4c0.2,0.5,0.9,0.8,1.4,1c0.7,0.4,1.6,0.6,2.3,1c0.4,0.2,0.8,0.7,0.8,1
		c-0.1,0.8,0.3,1.3,0.9,1.8c0.8,0.7,1.7,1.3,2.3,2.2c1.3,1.9,3.1,2.5,5.2,2.5c0.6,0,1.2,0.1,1.7,0.4c0.2,0.1,0.3,0.6,0.3,0.9
		c0,0.2-0.3,0.5-0.4,0.5c-2.1,0-4.3,0-6.1-1.4c-1.6-1.2-3.3-2.3-4.5-4c-1.8-2.5-4.3-4.1-6.9-5.6c-1.6-0.9-3.2-1.7-4.7-2.5
		c-1.8-1-3.8-1.1-6.1-0.8c0.6,1,1,1.8,1.4,2.5c-2.3,1-2.3,1-3.3,3.5c5,1.5,10,3.1,15,4.6c5.2,1.6,10,3.8,14.3,7.1
		c3.9,3,7.3,6.4,10.1,10.5c1.1,1.6,2.2,3.1,3.7,4.3c1.6,1.4,2.7,3.3,3.6,5.3c2,4.5,3.4,9.1,3.6,14.1c0.1,1.3,0.4,2.6,0.5,3.9
		c0.1,3,0.2,5.9,0.2,8.9c0,0.5-0.3,1.2-1.2,1c-0.1-0.8-0.1-1.6-0.2-2.4c-0.3-2.3-0.4-4.8-1-7c-1.2-4.5-2.6-8.9-4.1-13.3
		c-2.1-6.1-5-11.8-10.2-16c-1.1-0.9-2.1-1.9-3.1-2.9c-4.2-4-8.9-7.1-14.3-9.3c-5.4-2.1-10.9-4.1-16.4-6.1c-0.9-0.3-1.8-0.3-3.1-0.6
		c-0.7,0.9-1.4,1.9-2.3,2.7c-0.8,0.8-1.8,1.5-2.8,2.2c-1.2,0.8-2.5,1.4-3.6,2.2c-4.1,2.8-8.2,5.7-12.3,8.6c-2.5,1.8-5.1,3.6-7.5,5.4
		c-0.8,0.6-1.6,1.2-2.1,1.9c-1,1.7-2.5,2.9-3.9,4.1c-2.8,2.4-5.7,4.7-8.5,7c-4.9,3.9-9.6,8.2-14,12.7c-3,3.1-6.1,6-9,9.1
		c-3.6,3.8-7,7.8-10.5,11.7c-1,1.2-1.8,2.5-2.2,4c-0.3,1.3-0.9,2.4-1.5,3.6c-0.6,1.4-1.3,2.8-2,4.2c-1,2.3-1.7,4.7-1.9,7.2
		c-0.1,0.9-0.1,2,0.3,2.8c1.4,2.3,1.2,4.8,0.9,7.3c-0.7,5.8-0.5,11.6,0.8,17.4c0.9,3.9,1.9,7.9,3.2,11.7c3.6,10.5,6.1,21.2,8.1,32.1
		c0.9,5.1,2.1,10.2,0.9,15.6c1.4,0.6,2.8,0.4,4.2,0.6c2.4,0.3,4.3,1.4,5.6,3.4c0.6,0.9,1.2,1.8,1.5,2.8c0.7,1.8,1.2,3.6,1.8,5.5
		c1.2,1.3,2.5,2.7,3.8,4c1.4,1.3,2.8,2.6,4.1,3.8c1.8,0,3.3,0,4.8,0c2.2-1.8,2.3-4.5,3.6-7.2c-1.9,0.5-2.7-0.7-3.3-1.8
		c-0.6,0.1-1.1,0.2-1.6,0.3c-1.5-3.1-1.8-6.4-2.1-9.8c0-0.4-0.2-1,0.8-1.1c0.8,1.9,1.5,3.9,1.9,6c0.1,0.4,0.3,0.9,1,0.7
		c0.1-3.5,0.7-7,0.3-10.6c-0.2-1.4-0.1-2.9,0-4.3c0.5-8.7,1.9-17.3,4.9-25.5c2.8-7.6,3.8-15.5,3.8-23.5c0-7.7-0.9-15.4-3.5-22.8
		c-0.2-0.6-0.4-1.1,0.2-1.8c0.8,0.2,1.7,0.7,2.5,0.6c2.8-0.3,5.7-0.7,8.2-2.2c2.4-1.4,4.6-2.9,6.9-4.4c2.8-1.8,5.5-3.8,8.9-4.2
		c0.6-0.1,1.1-0.4,1.6-0.7c2.4-1,4.8-2.2,7.2-3.1c19.2-6.8,38.3-13.7,57.7-19.7c4.2-1.3,8.4-2.7,12.3-4.6c2.7-1.3,5.2-2.9,7.3-5.1
		c2-2.1,4.4-3.6,7.6-2.5c0.6,0.2,1.2,0.2,1.8,0.3c5.3,1.1,10.5,1.7,15.9,2.1c4.5,0.3,8.9,1.1,13.1,3.1c3.2,1.6,6.5,2.9,9.9,4.3
		c2.4-0.9,4.8-1.9,7.3-2.8c0.7-0.2,1.5-0.7,2-0.4c1.8,0.8,3.3,0,4.7-0.7c2.2-1.2,4.4-2.4,6.4-3.9c5.7-4.5,10.6-9.9,14.5-16.1
		c1.3-2,2.7-3.9,4.2-5.8c1.4-1.8,2.9-3.5,4.2-5.3c1.7-2.4,3.2-5,4.8-7.5c0.3-0.5,0.7-1,0.2-1.8c-1.5,0.4-2.3,1.8-3.4,2.8
		c-1.1,1-2.2,2.2-3.4,3.2c-1.2,1-2.4,1.9-3.7,2.9c-0.2,2.4-1.8,4.3-3,6.3c-1,1.7-2.3,3.3-4.6,3.7c-0.5,0.1-1,0.7-1.5,0.9
		c-0.8,0.4-1.7,0.9-2.6,1.1c-1.8,0.5-3.7,0.9-5.6,1.2c-2.1,0.4-4.2,0.4-6.3,0.1c-0.9-0.9-1.6-1.7-1.5-3.1c0.7-0.3,1.4-0.7,2.1-1
		c1.7-0.6,3.5-0.9,5.1-1.6c3.2-1.3,6-3.3,7.8-6.4c0.2-0.3,0.6-0.8-0.1-1.3c-3.6,1.4-6.9,3.3-10.2,5.4c-2.9,1.8-6,3.4-9,5
		c-0.9,0.5-2,0.6-3,1.1c-1.2,0.5-2.4,0.5-3.4-0.2c-1.8-1.1-3.6-2.1-5.7-2.3c-0.8-3.4-0.1-6.3,2.1-8.4c2.3-2.1,4.6-4.2,7.3-5.7
		c3.8-2.3,7-5.3,9.9-8.6c0.2-0.3,0.8-0.6,0.2-1.3c-0.7,0.3-1.4,0.6-2.2,1c-2.5,1.2-4.9,2.4-7.4,3.6c-1.6,0.8-3.3,1.4-4.2,3.1
		c-0.3,0.5-0.9,0.8-1.4,1.1c-1.2,0.8-2.3,1.6-3.6,2.3c-1.4,0.7-2.8,1.2-4.3,1.7c-0.7,0.2-1.4-0.1-1.9-0.7c-0.5-0.7-0.4-1.5-1.2-2.1
		c-0.6-0.4-0.8-1.3-1.2-2c-1.3,0.1-2.6,0.8-3.8,0.1c-0.2-0.1-0.5-0.1-0.7,0c-2.1,1.1-4.4,0.6-6.6,1.1c-2.9,0.7-5.8,1.2-8.7,1.8
		c-9.7,1.8-19.4,1.8-29.1,0.3c-5.5-0.8-10.6-2.8-15-6.2c-2.6-1.9-5.2-3.7-7.2-6.3c-0.2-0.2-0.6-0.2-1.1-0.3c0.1,1.1,0.2,2,0.3,2.9
		l0.1-0.1c-1.5-0.5-3.2-0.3-4.6-1.2c0.2-1.5,2.1-0.8,2.2-2.3c-1.2-2-2.5-3.9-3.6-6c-1.2-2.5-2.6-4.8-4-7.1c-1.1-1.9-2.6-3.4-4.3-4.7
		c-1.5-1.2-2.9-2.5-4.3-3.8c-0.3-0.3-0.6-0.7,0-1.1c0.1,0,0.3,0,0.3,0c2.6,1.9,5.1,3.8,7.7,5.8c0.3,0.3,0.7,0.7,0.8,1.1
		c0,1.1,0.7,1.7,1.3,2.5c1.9,2.3,3.5,4.8,4.7,7.5c0.8,1.7,1.9,3.2,3.6,4.3c0.9,0.6,1.7,1.3,2.6,1.9c4.1,3.3,8.8,5.6,13.9,6.9
		c10,2.7,20.2,2.8,30.5,1.9c5.2-0.5,10.4-1.3,15.6-1.4c2.3-0.1,4.4-0.7,6.3-2.1c2.4-1.7,4.9-3.4,7.3-5.2c0.9-0.7,1.8-1.6,2.4-2.6
		c3.1-4.8,6.4-9.5,9.2-14.4c2.6-4.5,5.2-9.1,5.8-14.5c0.1-0.9,0.8-1.1,1.5-1.2c0.3,4-0.7,7.7-2.2,11.4c-2.5,6-5.4,11.8-9,17.2
		c-2.1,3.2-4.2,6.3-7.2,8.7c-0.1,0.1-0.2,0.4-0.2,0.6C387.2,344.6,386.3,345.2,385.4,345.9c-0.1,0.2-0.2,0.3-0.4,0.4
		c0.1,0,0.2,0.1,0.3,0.1C385.3,346.3,385.4,346.1,385.4,345.9z M349.2,27.7c-0.2,0.1-0.5,0.1-0.6,0.3c-1.2,2.1-2.5,4.3-3.7,6.5
		c-0.2,0.3-0.1,0.7-0.1,1c-0.6-0.2-1.1,1.2-1.9,0.1c1.2-2.2,2.5-4.5,3.8-6.8c0.8-1.5,1.4-3,1-4.9c-0.5,0.1-1.1,0.1-1.3,0.4
		c-0.3,0.3-0.5,0.8-0.6,1.3c-0.3,3.6-2.2,6.5-3.9,9.5c-1.2,2.1-2.8,3.8-5.1,4.5c-0.9-0.4-1.7-0.7-2.5-1c-0.3-3.4,0.2-6.7,0.5-10
		c0-0.5,0.3-0.9,0.5-1.3c0.1-0.1,0.3-0.1,0.5-0.2c0,1,0.3,1.9,0.7,2.5c0.5-1.5,1-2.9,1.5-4.4c0.3-0.8,0.2-1.6-0.7-2.4
		c-1.1-0.2-2.3-0.4-3.8-0.6c-0.2,0.7-0.7,1.4-0.5,1.7c0.8,1.6,0.4,3.3,0.4,4.9c0,3.7-1.3,7.3-0.3,11c0,0.2-0.4,0.5-0.6,0.7
		c-0.5-0.4-1-0.8-1.4-1.1c-1.7,0-3.3,0-5,0c-2.7-3.3-4-7.4-5.9-10.9c0.4-0.9,0.9-1.5,0.8-2.1c-0.1-1-0.5-2-0.9-3.2
		c-0.9,0.2-1.6,0.4-2.4,0.6c0.2,3.5,1.3,6.5,3.1,9.1c0,0.3-0.1,0.6-0.1,0.8c-0.1,0.3-0.2,0.7-0.3,1.1c0.5,0.7,0.9,1.4,1.4,2.1
		c0.4,0.6,1.2,1.1,1.2,2c-0.3,0.1-0.6,0.2-0.8,0.1c-1.4-1.2-2.4-2.9-4-4c-0.3-0.2-0.5-0.8-0.6-1.2c-0.8-1.9-1.3-3.8-1.2-5.9
		c0-0.9,0-1.9-1.2-2.3c-1.1,0.8-2.2,1.7-3.3,2.6c-1.2,0.9-1.5,1.7-1.2,3c0.4,1.4,1.2,2.5,2.5,3.5c0.3-2.1-1.2-3.9-0.2-6.1
		c1.6,2.5,1.7,5.3,2.6,7.8c-0.6,0.7-1.2,1.4-1.7,2c-1-1.1-1.9-2.1-2.8-3.2c-0.8-1.1-1.4-2.3-2.6-4.2c0.3,3.8,2.4,5.9,3.8,8.2
		c-0.7,0.7-1.2,0.5-1.7,0c-1.1-1.2-2.2-2.5-3.3-3.7c-0.3-0.3-0.6-0.8-1.2-0.5c-1.2,1.2,0.4,2.5-0.1,3.6c-0.1,0.2-0.1,0.3-0.2,0.4
		c-0.2,0.1-0.5,0.2-0.6,0.3c-1.4,1.2-1.5,1.9-0.6,3.3c0.5,0.7,0.9,1.3,1.4,2.1c0.1,0.1-0.2,0.4-0.3,0.6c-0.7,0.2-1.4-1.3-2.2,0.2
		c0.5,1.5,1,3.2,1.6,4.8c-1.4,0.3-1.2-1.5-2.4-1.3c-0.4,1.4,0.3,2.5,0.7,3.7c0.6,1.5,1.5,3,1,4.7c-0.1,0.2,0.5,0.6,0.7,0.9
		c0.8-0.4,0.3-1.6,1.5-1.6c0.2,1.1,0.2,2.3,0.5,3.4c0.4,1.6,0.1,2.7-1.4,3.5c-1.6,1-2.2,2.6-2,4.4c0.1,0.6,0,1.1,0,1.7
		c0,2.6-0.1,5.2,0,7.8c0.1,1.9,0.4,3.8,0.5,5.7c0,1.6,0.4,3,1,4.5c1.7,3.8,3.4,7.6,4.1,11.8c0.8,4.5,2.9,8.5,5,12.5
		c1.1,2.2,2.7,4.3,4.8,5.6c2.5,1.6,5.1,3.1,7.7,4.5c3.1,1.7,6.6,2.6,10,1.9c4.9-1,9.7-2.5,13.6-5.9c1-0.8,1.9-1.8,2.7-2.9
		c2.2-3.1,4-6.4,5-10.2c1.3-4.5,2.7-8.8,3.6-13.4c0.6-3.5,1.5-7,3-10.2c0.4-0.8,0.7-1.9,0.6-2.8c-0.3-3,0.1-6.2-1.3-9.1
		c-0.3-0.5-0.4-1.1-0.3-1.7c0-1.4,0-2.7-0.3-4.1c-0.3-1.5,0-3.1,0.1-4.6c1.9-2,1.9-2,1.5-3.3c-1.3,0.8-1.3,2.1-1.4,3.3
		c-1.5-0.1-2.2-1.2-2.8-2.4c0.6-2.5,2-4.6,3.6-6.4c-0.2-0.9-0.3-1.7-0.6-3c-0.8,1.8-0.9,3.3-2.2,4.2c-1.1-1.5-0.8-2.8-0.3-4.2
		c0.6-1.7,1.3-3.3,1.8-5c0.6-1.9,0.2-3.2-1.4-5.4c-0.7,3-0.1,6-1.8,9.3c0.2-2.7-0.2-4.5-2-5.6c0-1.4,0.8-2.8-0.1-4.1
		c-1.4,0.5-1.3,2.5-3,2.9c-0.1-0.4-0.4-0.7-0.3-0.9c0.7-1.4,1.4-2.7,2.2-4c0.4-0.8,1.6-0.7,2.1,0.1c0.4,0.6,0.1,1.7,1.2,2
		c1-1.4,1-2.7,0-4c-1.5-1.8-2.9-3.7-5.6-4.5c-0.4,0.8-0.7,1.6-1,2.3c-0.2,0.5-0.5,1-0.7,1.5c-1.2,0.5-1.5,1.7-2.2,2.7
		c-0.4,0.6-0.7,1.2-1.2,1.7c-0.4,0.4-0.9,0.2-1.2-0.5c1.3-2.9,3.6-5.3,5.1-8c-0.4-1-0.7-1.8-1.8-1.7c-1.6,3.7-2.6,7.7-6,10.4
		c-0.3-0.4-0.4-0.7-0.6-1C347.4,33.4,348.7,30.8,349.2,27.7c0-0.3,0.2-0.5,0-0.3C349.2,27.1,349.2,27.4,349.2,27.7z M370.5,79.7
		c-0.9,0.2-1.4,0.8-1.5,1.7c-0.2,1.2-0.6,2.4-1.8,2.8c-1.8,0.6-2,2.1-2.5,3.7c0.7,0.5,0.9,1.4,2,1C368.7,86.2,370,83.1,370.5,79.7
		c0.3-0.3,0.9-0.5,1-0.8c0.7-1.4,0.6-4.6-0.4-7c-1.1,1.4-2.3,2.4-2.8,4C370.3,78,370.3,78,370.5,79.7z M340.5,33.9
		c2.3-3.2,3.9-6.6,3.8-10.9c-1.4-0.3-2.6-0.9-3.9-0.1c-0.8,1.2-0.4,3.1-2.2,3.7c0.3,2.8-0.8,5.3-0.4,8.5c1.7-3.1,2-6.3,3.8-8.9
		c-0.1,1.7-0.4,3.3-0.7,4.9C340.8,32.2,340.7,33.1,340.5,33.9C340.6,34,340.3,34.3,340.5,33.9z M345.5,19.7c0.5,0.2,1,0.7,1.6,0.7
		c1.4,0,2.5,0.6,3.5,1.4c0.1,0.1,0.4-0.1,0.6-0.2c0-1.1-0.3-2.1-1.4-2.9C348.4,19.1,346.9,19.4,345.5,19.7c0.7-1.4,2.6-1.2,3.8-2.3
		c-0.9-1.5-2.1-2.3-3.7-2.7c-1-0.3-2.1-0.4-3.1-0.6c-2.1-0.4-4.3-0.5-6.3,0.4c-1.6,0.8-3,1.9-4.4,3c-0.3,0.2-0.4,0.8-0.7,1.4
		c1.8,0.1,3.3,0.2,4.7,0.3c3.7-4,3.7-4.1,5.8-3.7c-2.7,2.3-2.7,2.3-3,3.9c1.4-0.1,1.8-1.9,3.3-1.8l-0.1-0.1c0.1,0.8-1.1,1.4-0.4,2.3
		C342.8,20.4,344.1,20.5,345.5,19.7z M479,300.2c1.2,0.1,1.5-1,2.1-1.7c3.4-4.4,6.9-8.8,10.2-13.3c6.6-9.1,12.3-18.7,17.3-28.7
		c0.9-1.8,1.7-3.7,2.4-5.6c0.5-1.2,0.7-2.5,0.1-3.8c-0.5-1-0.4-2.1-0.2-3.1c0.4-1.7,0.9-3.5,1.2-5.2c0.4-1.7,0.7-3.5,1-5.2
		c0.3-1.9,0-3.7-1.2-5.4c-0.9-1.2-1.8-2.5-2.7-3.8c-2.7-3.6-5.4-7.2-8.2-10.8c-1.2-1.6-2.5-3.2-4-4.5c-3.5-3.2-7.2-6.2-10.8-9.3
		c-5.5-4.8-11.7-8.5-18.2-11.9c-0.6-0.3-1.3-0.8-2-0.7c-1.9,0.2-3.4-0.8-5-1.6c-2.2-1.2-4.3-2.5-6.5-3.8c-0.6-0.3-1.3-0.5-1.9-0.7
		c-0.1-0.1-0.2-0.1-0.2-0.2c0.1,0,0.2,0.1,0.3,0.1c0.2,1.1-0.9,1.5-1.2,2.4c0.5,1.1,1.1,2.1,1.6,3.2c0.2,0.3,0,0.8,0,1.4
		c-2.8-2.1-6-6.4-6.9-9.1c-0.2-0.6-0.5-1.3-1-1.8c-2.6-3-5.2-5.9-7.8-8.8c-0.9-1-2-1.7-3.2-2.3c-2.1-1-4.2-2.2-6.3-3.3
		c-3.4-1.7-6.8-3.5-10.2-5.2c-2.9-1.4-5.8-2.7-8.7-4c-2.5-1.2-5-2.1-7.7-2.6c-2-0.3-3.9-1-5.8-1.6c-1.7-0.6-3.3-1.3-5-1.8
		c-2.6-0.8-5.1-1.7-7.9-2.3c-0.1,0.7-0.3,1.1-0.3,1.5c0.2,4.4,0.3,8.8,0.7,13.2c1.2,11.1,3.5,22.1,6.2,32.9c0.2,0.8,0.4,1.6,0.8,2.4
		c0.9,1.8,1.8,3.6,2.7,5.4c1.5,2.7,3.1,5.4,4.7,8c1.3,2,2.9,3.8,5,5c2.2,1.3,3.9,3,5.8,4.6c0.4,0.3,0.7,0.6,1.1,0.9
		c0.2-0.3,0.4-0.4,0.4-0.6c1-3.7,1.8-7.4,3.6-10.8c0.2-0.3,0.4-0.7,0.3-1c-0.3-1.7,0.6-2.6,1.9-3.4c0.6-0.4,1.1-0.8,1.6-1.1
		c2.9,0,5.4,0.5,7.8,1.5c2.3,0.9,4.7,1.8,7.1,2.4c3,0.8,5.6,2.1,8,4.2c2.9,2.5,6.1,4.6,9.3,6.6c3.2,2,5.8,4.9,9.5,6.1
		c0.2,0.1,0.4,0.3,0.5,0.5c1.1,1.8,3,2.7,4.6,3.9c1,0.8,2.3,1.4,3.1,2.4c1.3,1.5,2.9,2.5,4.6,3.3c1.9,1,3.8,1.9,5.7,2.9
		c0.7,0.4,1.6,0.7,2,1.3c0.9,1.2,2,1.6,3.4,1.7c1.4,0.2,2.8,0.4,4.2,0.5c1.3,0.1,2.6,0.1,3.9,1.2c-0.5,0.3-0.8,0.7-1.1,0.8
		c-1.2,0.1-2.4,0.1-3.6,0.1c-1.5-0.1-2.8,0.2-3.9,1.5c-0.1,0.4-0.2,0.9-0.3,1.3c-0.4,6.4-2.8,12.3-5.9,17.8c-1.9,3.3-4,6.5-5.8,9.8
		c-3.5,6.1-6.9,12.2-10.3,18.4c-0.7,1.2-1.2,2.6-1.6,4c-0.5,2-1.4,3.8-2.4,5.5c-1.3,2.4-3.2,4.4-4.2,7c-0.2,0.5-0.7,0.9-1.1,1.4
		c-2.3,2.5-4.7,5.1-7,7.6c-0.5,0.5-1,0.9-1.5,1.4c-4.3,0.1-8.4-0.2-12.3-1.7c-1.4-0.5-2.7-0.5-4,0.5c-1.3,0.9-2.6,1.7-4.1,2.1
		c-3.5,1.1-6.3,3.3-9.5,4.9c-0.4,1.7-0.7,3.4-1.1,5c0,0.2,0.2,0.4,0.3,0.8c1.6-0.8,3-1.8,4.3-3c1.5-1.5,3.2-2.9,4.7-4.4
		c1.1-1,2.4-1.4,4.2-0.9c-0.6,0.5-1.2,0.7-1.3,1c-0.6,1.4-1.7,2.4-3,3.2c-1.2,0.8-2.3,1.8-3.2,3.2c0.8,0.2,1.4,0.4,2.4,0.7
		c-1.9,0.9-3.5,1.4-4.9,2.3c-3.8,2.7-8,4.7-12.4,6.2c-2.7,1-4.3,3.3-6.4,5c-0.6,2.4-2.6,3.3-4.6,4.1c-1.8,0.8-3.2,2-4.2,3.9
		c0.3,0.4,0.6,1.1,1,1.2c0.5,0.2,1.2,0,1.6-0.2c1.9-1,3.7-2.1,5.5-3.2c0.3-0.2,0.6-0.4,0.8-0.7c0.8-1.6,2.4-2.2,3.9-2.9
		c2-0.9,3.9-1.9,5.8-2.7c2.4-1.1,4.8-2.2,7.2-3.2c0.5-0.2,1.1-0.1,1.6-0.1c0.2,1.2-0.6,1.4-1.1,1.8c-0.8,0.7,0.3,1.6-0.3,2.3
		c-0.2,0.3-0.3,0.6-0.6,0.9c-2.4,3-5,5.9-8.2,7.9c-2.7,1.7-5,4-7.6,5.8c-0.9,0.6-1.6,1.3-1.6,2.6c0,0.7-0.8,1.4-1.2,2.1
		c-0.2,0.3-0.4,0.7-0.6,1.2c2.9,0,4-0.3,5.5-1.4c1-0.7,2-1.3,3-1.9c1.4-0.9,2.9-1.7,4.2-2.6c3.6-2.5,7.2-5.1,10.7-7.7
		c0.9-0.6,1.8-1.2,2.7-1.7c0.3-0.2,0.8-0.1,1.3-0.1c0,0.4,0,0.8-0.1,0.9c-7.2,6.3-15.3,11.4-23.5,16.6c1.1,0.8,1.1,0.8,1.6,0.7
		c4.5-0.9,8.6-2.9,12.4-5.3c4.5-2.8,9.2-4.9,14-7.1c0.2-0.1,0.4,0.1,0.8,0.1c0.3,0.7-0.6,1.2-0.5,1.8c0.5,3.1-1.3,5-3.4,6.6
		c-2.3,1.8-4.7,3.6-7.7,4.4c-0.7,0.2-1.3,0.5-2,0.8c0.3,0.1,0.5,0.3,0.7,0.3c3,0.1,5.9-0.7,8.7-1.6c1.5-0.5,2.8-1.6,4.5-2.1
		c0.4-0.1,0.8-0.5,1.1-0.9c1.3-1.8,2.7-3.5,3-5.9c0.2-2,1.4-3.8,3.3-4.3c2.1-0.6,3.2-2,4.3-3.5c0.5-0.6,0.4-1.5,0.7-2.4
		c2.5-0.4,4.3-2.1,6.5-3.4c1-0.6,1.9-1.4,2.7-2.3c1.7-2,3.5-3.9,5.2-5.8c0.6-0.7,1.5-1.3,1.9-2.1c0.6-1.2,1.6-2,2.4-3.1
		c1.8-2.5,3.6-5,5.4-7.5c-0.1-1.3,0.7-2.2,1.6-3c2.8-2.5,5-5.4,7.2-8.4c1-1.4,1.8-3,3.7-3.7c0.7-0.2,1.1-1.2,1.5-1.8
		c-1.1-2.7,0.3-4.5,1.8-6.5C478.8,299.7,478.9,300,479,300.2c-0.1,0.2-0.3,0.3-0.4,0.4c0,0.1,0.1,0.3,0.2,0.4
		c0.1-0.1,0.1-0.2,0.2-0.3C479,300.6,479,300.4,479,300.2z M696.3,514.1c-0.5-0.3-0.8-0.5-1.1-0.6c-7.4-4.1-14.6-8.5-21.4-13.5
		c-0.6-0.4-1.2-0.8-1.8-1.2c-3.8-2.2-7.5-4.6-10.9-7.5c-0.6-0.5-1.3-1-2.1-1.4c-3.4-2-6.5-4.3-9.6-6.8c-2.9-2.3-5.8-4.6-8.7-6.8
		c-7.2-5.5-14.5-10.9-21.1-17c-2.2-2-4.2-4.2-7.2-5c-0.7-0.2-1.2-0.8-1.8-1.1c-1.6-0.8-3.2-1.6-4.8-2.4c-1.2-0.6-2.4-1-3.6-1.6
		c-3.8-2-7.7-3.8-11.8-5.1c-6.5-2.1-12.7-4.6-18.7-7.8c-1.7-0.9-3.5-1.5-5.4-1.8c-4.1-0.7-8.1-2-12-3.5c-2.7-1-5.2-2.3-7.4-4.2
		c-0.6-0.5-1.3-1.1-2-1.4c-2.2-0.9-4-2.6-5.8-4.1c-3-2.5-6-5.1-8.9-7.7c-2.4-2.2-4.7-4.4-6.9-6.7c-0.8-0.8-1.7-1.7-2.2-2.8
		c-0.6-1.4-1.5-2.4-2.5-3.4c-4.6-4.8-9.2-9.7-13.8-14.5c-3.5-3.6-6.9-7.3-10.6-10.5c-4.5-3.9-9.3-7.4-14.1-11
		c-5.4-4.1-10.9-8-15.9-12.7c-3.8-3.6-7.5-7.3-12.2-9.8c-0.6-0.3-1.2-0.6-1.8-0.9c-0.9,0.6-1.6,1.2-2.4,1.7c-1.3,0.9-2.1,2.1-2,3.6
		c0.1,1.8-0.6,3.3-1.3,4.7c-1.9,4-4.6,7.5-7.4,10.9c-1.5,1.8-2.8,3.8-4.2,5.7c-2.5,3.4-5,7-7.7,10.3c-2.6,3.3-5.7,6-9.1,8.5
		c-4.7,3.3-9.8,5.3-15.6,5.5c-0.5,0-1,0.1-2.3,0.3c1.8,0.9,3,1.4,4.2,1.9c5.5,2.6,11,5.2,16.4,7.8c0.9,0.5,1.9,1,2.5,1.9
		c0.7,0.9,1.6,1.4,2.5,1.9c7,3.7,14.1,7.5,21.1,11.2c8.9,4.6,17.7,9.3,26,14.9c1.7,1.1,3.5,2.1,5.3,2.9c4.8,2.3,9.8,4.4,14.5,6.9
		c7.2,3.9,14.9,6.8,22.4,10.2c4.1,1.9,8.2,3.7,12.3,5.6c0.5,0.2,1.1,0.5,1.6,0.9c2.1,1.7,4.6,2.5,7,3.4c0.9,0.3,1.9,0.5,2.6,1.2
		c1.1,1.1,2.5,1.4,3.8,1.7c2.7,0.6,5.4,1,8.1,1.5c0.8,0.2,1.8,0.3,2.3,0.9c1,1.3,2.5,1.8,3.8,2.6c2.2,1.5,4.3,2.9,6.4,4.5
		c0.6,0.5,1.5,1.2,1.6,1.8c0.1,1.9,1.5,2.6,2.8,3.4c2,1.1,3.9,2.2,6,3.2c4.3,2.1,8.6,4,12.9,6.1c2.6,1.3,5.2,2.9,7.7,4.5
		c1.5,1,3,1.9,4.7,2.5c6.7,2.3,13.4,4.8,20.3,6.9c6.4,1.9,12.9,3.3,19.3,5c4.2,1.1,8.2,2.4,11.8,4.9c0.8,0.5,1.7,0.8,2.6,1.1
		c1.2,0.4,2.5,0.8,3.8,1.1c5.3,1.6,10.2,3.8,14.7,7c3.1,2.1,6.8,3.4,10.2,5c0.1,0,0.2-0.1,0.5-0.3c-0.9-0.8-1.8-1.5-2.7-2.2
		c-0.9-0.7-2-1.4-2.9-2.1c-0.9-0.7-2.1-1-2.6-2.2c4,0.4,9.1,3.9,11.9,7.9c-0.2,0.5-0.4,1.1-0.5,1.6c1.2,1.2,2.2,2.4,3.7,3.1
		c1.6-1.3,3.2-2.6,4.6-3.7c0.4-2.7,0.8-5.2,1.2-7.7c-0.3-0.4-0.7-0.7-0.9-1.1c-0.8-1.3-0.7-2.2,0.4-3.2c0.6-0.6,1.3-1,2-1.5
		C694.4,515.4,695.2,514.9,696.3,514.1z M296.1,293.4c0-7.5,0-14.9,0-22.3c0-0.6-0.1-1.2-0.2-1.8c-0.3-2-1.2-3.9-0.5-5.9
		c0.1-0.4-0.1-0.9-0.3-1.4c-0.8-1.9-1.6-3.7-2.4-5.6c-0.2-0.5-0.7-1-0.8-1.6c-0.1-0.4,0-1,0.3-1.2c0.2-0.2,0.9-0.2,1.2,0
		c1.3,0.9,2.1,2.3,2.7,3.7c0.7,1.6,1.9,2.3,3.5,2.6c1.2,0.2,2.3,0.6,3.4,1c8.5,3.7,17.5,5.3,26.7,5.7c10.6,0.5,21.2,0.5,31.8-0.1
		c1.9-0.1,3.8-0.3,5.7-0.7c5.5-1.1,10.9-2.3,16.4-3.5c4.3-0.9,8.5-2.1,12.2-3.8c0.7-2.9,1.2-5.6,2.1-8.2c2.1-6.2,4.7-12.2,8.1-17.8
		c0.8-1.4,1.7-2.9,2.4-4.4c0.3-0.6,0.6-1.3,0.6-2c0.1-1.8,0-3.5,0-5.6c-1.2,0.4-2.2,0.3-3-0.4c-0.3-0.3-0.8-0.6-1.2-0.6
		c-3.5-0.3-5.5-2.6-7.2-5.2c-1.3-2.1-2.5-4.3-3.6-6.6c-0.9-1.7-1.5-3.5-3.2-4.6c-0.6-0.4-1.1-1.3-1.4-2c-0.9-2-1.9-4.1-2.6-6.2
		c-2.2-6.4-3.4-13.1-4.5-19.8c-1.5-8.8-2.8-17.6-2.4-26.6c0.1-1.7,0-3.3,0-4.8c-2.9-2.7-5.8-3.8-9.3-3.7c0.1,0.9,0.1,1.9,0.2,2.8
		c1.2,7.5,1.6,15.1,1.9,22.7c0.2,5.7,0.2,11.4-0.6,17.1c-0.1,0.8-0.3,1.8,0,2.4c1.2,2.4,0.8,4.6,0,6.9c-2.1,6.1-5.3,11.7-8.6,17.2
		c-0.4,0.7-1,1.6-1.7,1.8c-1.8,0.5-2.6,2-3.7,3.2c-2.5,2.9-5.3,5.5-8.5,7.5c-2.5,1.6-5.3,2.8-8.3,3.1c-3.3,0.3-6.6,0.8-9.8-0.9
		c-0.4-0.2-0.9-0.3-1.4-0.4c-5.7-1-10.9-3.3-15.9-6.1c-3.9-2.1-7.3-4.9-10.2-8.3c-1.3-1.5-2.8-2.9-4.1-4.4c-0.8-0.9-1.5-1.9-2-2.9
		c-1.9-4-3-8.3-3-12.7c-0.1-5.6,0-11.2,0.6-16.7c0.9-8.9,2.7-17.6,6-26c0.4-1,0.7-2,1.2-3.3c-2.8,0.4-5.3,0.7-7.9,1.1
		c-0.2,0-0.4,0.3-0.7,0.6c0.8,4.2-0.1,8.4-1.6,12.5c-3,8.5-5.9,17.1-8.9,25.6c-0.5,1.6-1.1,3.1-0.8,4.9c0.2,0.9,0,2-0.3,2.8
		c-2.6,6.4-3.4,13.4-7.1,19.3c-0.9,1.4-0.8,2.9,0.2,4.4c0.4,0.6,0.9,1.2,1.2,1.8c0.2,0.5,0.4,1.1,0.4,1.7c0.4,5.8,1.5,11.5,3.7,17
		c0.5,1.2,1.1,2.4,1.5,3.6c0.7,2.6,2.3,4.4,4.1,6.1c2.6,2.4,5.6,4.1,8.9,5.1c3.4,1.1,6.8,2,10.3,3c0.3,0.1,0.7,0.1,1.1,0.1
		c2.4,0.2,4.7,0.3,7.1,0.5c1.3,0.1,2.6,0.1,3.9,0.3c0.5,0.1,0.9,0.5,1.5,0.9c-0.7,0.2-1,0.4-1.3,0.5c-5.2,1-10.4,0.6-15.6-0.5
		c-1.7-0.3-3.5-0.8-5.2-1c-5.6-0.6-10.2-3.2-13.6-7.6c-2.2-2.8-4-5.9-5-9.4c-1.1-4-2.2-8.1-2.7-12.2c-1.3-9.2-1.2-7.8-6.1-15.7
		c-0.5-0.8-1.2-1.5-1.6-2c-2.3,0-4.3,0-6.3,0c-2,0-4-0.2-6-0.2c-5.1,7-12.2,11.1-19.3,15.3c0.1,0.4,0.2,0.7,0.4,1
		c4,6.7,6.6,14,8,21.6c0.9,5.1,2.4,9.9,4.6,14.5c2,4.1,3.8,8.2,5.8,12.2c1.4,2.9,2.9,5.7,4.5,8.5c1.4,2.5,2.8,5,4.5,7.2
		c2.4,3.1,5,6,7.6,9c1.3,1.5,3.1,2.7,4.9,3.4c3.2,1.2,7.6,0.3,10.2-2.2c1.1-1,2.2-1.9,3.6-2.2C292.5,294.2,294.3,293.8,296.1,293.4z
		 M442.2,314.8c1.4-1.5,2.8-3,4.2-4.5c4.4-4.9,8.3-10.1,10.6-16.3c3.9-10.8,8.9-21,15.1-30.7c1.9-2.9,3.3-6.1,4.9-9.1
		c0.7-1.4,0.9-2.9,0.9-4.5c0-2,0.2-4,0.3-6c0.1-1.3,0.5-2.6,0-3.8c-4.2-2.6-8.2-5.4-12.4-7.7c-2.7-1.5-5.3-3.1-7.9-4.9
		c-6.8-4.8-13.3-10.1-19.6-15.4c-1-0.8-1.8-1.9-3.4-1.5c-3.8-0.8-7.6-1.7-11.2-3.5c-0.8-0.4-1.7-0.8-2.6-1.1
		c-2.1-0.7-3.4-0.3-4.7,1.4c-0.6,0.9-1.2,1.8-1.5,2.8c-0.8,2.4-1.6,4.7-2.3,7.1c-0.4,1.4-1.2,2.9-0.3,4.4c0.2,0.3-0.1,0.9-0.2,1.4
		c-0.3,1.3-0.6,2.5-1,3.8c-1.4,4.5-2.6,9.1-4.3,13.6c-2,5.6-4.4,11.1-6.6,16.6c-2.6,6.4-4.3,13.1-5.3,20c-1.3,8.6,0.3,16.6,6.8,23
		c0.9,0.9,1.8,1.5,3,1.8c1.4,0.3,2.8,0.8,4,1.4c4,2.2,7.7,4.7,11.1,7.7c1.4,1.2,2.8,2.2,4.4,2.9c1.2-0.4,2.2-1.4,3.6-1.2
		c2.5,0.4,5,1.6,7.7,1.2c0.1,0,0.2,0.1,0.3,0.1C437.9,315.1,440.1,314.6,442.2,314.8z M305.4,140.3c-0.7,2.9-1.3,5.6-2,8.2
		c-0.7,2.5-1.4,5-2,7.6c-2.2,8.9-3.2,18-3.5,27.2c-0.1,3.6,0.2,7.1,0.4,10.7c0.4,4.5,2.2,8.4,5.5,11.7c4.9,4.9,10.5,8.6,16.8,11.2
		c4.4,1.8,8.9,3.3,13.4,5c0.3,0.1,0.7,0,1.4,0c-1.7-4.1-0.1-7.8,1.3-11.4c-0.5-0.8-1-1.5-1.5-2.1c-0.7-1.1-1.5-2.1-2.2-3.3
		c-0.2-0.3-0.1-0.8-0.2-1.4c2.4,0.7,3.2,3,5.1,4.1c1.3-1.7,2.4-3.2,3.6-4.7c0.8-1.1,1.8-1.4,3.2-0.8c-0.7,0.6-1.4,1-1.9,1.6
		c-0.6,0.8-0.9,1.7-1.3,2.5c-1,2.2-2,4.3-3,6.5c-1.3,2.8-1.4,5.7-1.2,8.7c0,0.3,0.3,0.6,0.5,1c1.4,0.2,2.8,0,4.2-0.4
		c3.7-0.9,6.9-2.7,9.6-5.2c3.2-2.9,6.2-5.9,9.3-8.9c0.6-0.6,1.2-1.2,1.5-2c2.2-4.2,4.3-8.5,6.4-12.7c0.1-0.1-0.2-0.3-0.2-0.4
		c-0.5-0.2-0.8,0.5-1.2,0c0.2-3.1,0.4-6.2,0.7-9.3c0.7-7.1,0.8-14.2,0.7-21.4c0-0.7-0.2-1.3-0.4-1.9c-2.7-0.4-4.8,0.4-6.9,1.7
		c-3.6,2.3-7.4,4.2-11.2,6.3c-0.7,0.4-1.4,0.9-2.5,0.1c0.3-0.4,0.5-1,0.9-1.3c1.4-0.9,2.8-1.8,4.2-2.6c3.4-2,6.7-4,10.1-6.1
		c1.7-1.1,3.3-2.3,5.2-2.6c0.7-5.2,0.1-15-1.1-18.4c-2.7-1.9-5.3-3.8-8-5.4c-2.7-1.6-3.3-4.2-3.8-6.9c-0.4-2.1-0.5-4.2-0.8-6.3
		c-0.1-0.5-0.2-1.2-1.2-1.2c-1.6,2.5-4.2,3.9-6.9,5.2c-1.9,0.9-4.1,1.3-5.7,2.9c-0.3,0.3-0.9,0.3-1.3,0.4c-3.9,0.9-7.5,0.7-11-1.6
		c-1.2-0.8-2.5-1.3-3.8-1.9c-1.6-0.8-3.2-1.5-4.8-2.2c-0.5-0.2-0.8-0.9-1.5-0.3c0,2.7,0.2,5.4-0.1,8.1c-0.2,2.1-0.6,4.2-0.4,6.4
		c0,0.4-0.2,0.8-0.3,1.2c-1.3-0.2-1.2-1.2-1.4-1.9c-0.3-0.9,0.3-2.1-0.9-3c-0.8,0.9-1.9,1.7-2.4,2.7c-1.4,2.5-3.7,4-5.9,5.6
		C306.3,139.7,305.7,140.1,305.4,140.3z M172.6,547.2c-1.7,1.2-2.5,2.8-3.5,4.2c-0.6,0.8-1.1,1.6-1.8,2.2c-2.4,1.8-4.8,3.5-7.2,5.2
		c-0.6,0.4-1.1,0.9-1.5,1.5c-2.8,3.7-4.1,8-4.4,12.6c-0.1,1.5,0.4,2.5,1.6,3.2c2.1,1.3,2,1.4,3.1,3.5c1,0.2,2.2,0.4,3.3,0.6
		c1.5,0.2,3.1,0.4,4.6,0.6c0.6,0.1,1.3,0.2,1.6,0.5c1,1.1,2.3,1.1,3.6,1.1c1.9,0,3.8,0,5.7,0c2.6,0,5.2-0.2,7.7-1.4
		c0.6-0.3,1.4-0.3,2.1-0.4c1.7-0.3,3.5-0.6,5.2-1c3.5-0.8,6.7-2.1,9.5-4.7c1.7-1.6,3.7-3,5.6-4.4c1-0.7,2.1-1.3,3.2-1.4
		c1.7-0.1,2.9-0.8,4.2-1.7c1.5-1,3.1-1.6,5-1.6c1.9,0,3.8-0.3,5.7-0.6c1.7-0.2,3.2-0.6,4.3-2.2c0.6-0.8,1.7-1.3,2.6-1.8
		c2.2-1.2,4.4-2.3,6.3-3.6c-0.5-2.3-1.2-4.3-1.4-6.4c-0.4-4.3-0.4-8.5-0.7-12.8c-0.2-2.5-0.3-5-0.7-7.4c-0.5-3-1.1-6-1.7-9.2
		c-0.4,0-0.8,0-1.3,0c0.2,1,0.5,1.9,0.6,2.8c0.1,0.9,0,1.9,0,2.5c0.5,0.7,1.1,1.3,1.2,1.9c0.1,0.6-0.3,1.4-0.7,1.9
		c-0.8,1-1.9,1.3-3.2,1.3c-1.2,0-2.4,0-3.4,0c-2.7,2.3-3.9,2.3-6.1,0c-0.6-0.6-1.1-1.2-1.6-1.9c-1.9-2.6-3.8-5.2-5.7-7.8
		c-0.4-0.6-0.7-1.2-0.9-1.9c-0.9-2.5-2.3-4.6-4-6.7c-4.6-0.5-9.3,0.8-13.7-0.7c-0.9,0.8-1.1,1.7-1.1,2.7c0,1.1,0.1,2.1,0.1,3.2
		c-0.2,3.4-0.9,6.6-3.3,9.2c-0.2,0.2-0.1,0.6-0.2,1.2c1.6,0,3,0,4.4,0c2.5,0.1,4.9,0.7,7.3,1.5c2.5,0.9,4.7,2.3,6.4,4.4
		c0.4,0.5,0.8,1.2,1,1.8c0.1,0.3-0.2,0.8-0.4,1.2c-1.6-0.8-2.9-1.6-4.3-2.2c-3.8-1.4-7.8-2.2-11.8-2.5c-1.7-0.1-3.3,0.1-4.8-1
		c-0.2-0.1-0.7,0.3-1.5,0.7c1.1,0.4,1.7,0.7,2.3,1c2.4,1,4.8,2,7.2,3.2c1.3,0.7,2.5,1.8,3.7,2.8c0.4,0.3,0.5,1,0.9,1.9
		c-2.8,0.4-5.1-0.9-7.7-1c0.5,0.8,1,1.4,1.3,2.1c0.2,0.5,0.3,1,0.4,1.5c-1.4,0.8-2.6,0.4-3.7,0.1c-4.2-1-8.5-1.1-12.7-1.8
		c-0.6-0.1-1.1,0.3-1,1c2,0.8,4.1,1.4,6,2.4c1.5,0.7,2.8,1.8,4,2.9c0.3,0.3,0.5,1.2,0.3,1.6c-0.2,0.4-0.8,0.9-1.3,1
		c-0.8,0.1-1.7,0.1-2.5-0.1c-2.4-0.6-4.8-1.5-7.2-2.1C175.6,549.4,173.8,548.9,172.6,547.2z M326.3,22.9c-1.4-0.4-2.2-0.1-2.3,0.9
		c-0.2,1.8-0.4,3.6-0.4,5.3c0.1,2.6,2.4,6.5,5,8.5c-0.1-0.9-0.1-1.5-0.2-2.2c0-0.7,0-1.4,0-2.1c0-0.8,0.1-1.7-0.1-2.5
		c-0.2-0.7-0.7-1.2-0.9-1.9c-0.2-0.4-0.2-0.9-0.2-1.4C326.9,25.9,326.6,24.4,326.3,22.9z M299.9,77.4c-1,3.8-0.5,5.6,1.8,7.4
		c0-1.8,0-3.6,0-5.7C301.3,78.7,300.7,78.1,299.9,77.4z M331,22.5c-1.5-0.5-2-0.4-2.3,0c-0.5,0.8-0.4,2.4,0.2,3.9
		C330.2,25.3,330.5,23.8,331,22.5z M305.2,62.5c-0.1-0.7-0.1-1.1-0.2-1.4c-0.7-0.8-1.4-1.6-2.1-2.3c-0.1-0.1-0.4,0-0.7,0
		c0,0.8,0,1.6,0,2.4C303.1,61.6,303.9,62,305.2,62.5z M303.8,90.2c0.5,2.1,0.6,4.3,2.1,6.7C306.5,93.8,305.4,91.9,303.8,90.2z
		 M331.8,30c0.1-0.9,0.2-1.5,0.1-2.1c0-0.2-0.4-0.4-0.7-0.7C330.6,28.3,330.6,29.1,331.8,30z M301.3,74.2c-0.2,0.1-0.4,0.2-0.6,0.3
		c0.1,0.3,0.3,0.6,0.4,0.8c0.1,0.1,0.4,0.2,0.5,0.1c0.1-0.1,0.3-0.4,0.2-0.5C301.8,74.6,301.5,74.4,301.3,74.2z M367.8,158.7
		c0.1-0.1,0.2-0.1,0.3-0.2c-0.1-0.1-0.2-0.2-0.2-0.2c-0.1,0.1-0.2,0.2-0.4,0.3C367.6,158.7,367.7,158.7,367.8,158.7z"/>
	<path d="M295.4,310.6c3.5,0.3,6.3,0.5,9.1,0.7c1.2,1.8,2.3,3.7,3.5,5.4c1.3,1.7,2.8,3.2,3.4,5.2c0.7,0.9,2.1,0.3,2.4,1.6
		c-1,1.1-2.2-0.1-3.3,0.1c-0.4,0.8,0.3,1.2,0.5,1.9c0.1,0.6,0.3,1.1,0.6,1.7c0.6,1.2,1.3,2.2,0.6,3.7c-0.2,0.4,0.4,1.3,0.7,1.9
		c0.6,0.9,1.6,1.5,1.4,2.8c-0.6,0.9-1.4,0.7-2.3,0.3c-0.1-0.7-0.2-1.5-0.5-2.3c-0.2-0.7-0.7-1.3-0.8-2c-0.9-4.2-3.3-7.6-5.3-11.1
		c-1.5-2.6-3.3-4.6-5.6-6.3C298.5,313.1,297.3,312,295.4,310.6z M302.7,313.1c0,0.1,0,0.2,0,0.3c0,0.1,0.1,0.1,0.2,0.1
		C302.9,313.4,302.7,313.3,302.7,313.1c-0.2,0-0.3,0-0.3,0C302.5,313.1,302.6,313.1,302.7,313.1z"/>
	<path d="M291.8,322.9c0.4,0.2,0.8,0.3,1.2,0.6c1.8,1.3,3.6,2.7,5.4,4c1.4,1,2.4,2.2,3.3,3.7c0.8,1.4,1.9,2.7,2.9,4
		c0.4,0.5,0.8,0.9,1.1,1.4c0.5,0.6,0.9,1.2,0.2,1.9c-0.5,0.5-1.2,0.4-1.8-0.3c-1-1.3-2.3-2.5-3-4c-1.3-2.8-3.5-4.7-5.6-6.8
		c-1.3-1.3-2.7-2.6-4.1-3.9C291.6,323.3,291.7,323.1,291.8,322.9z"/>
	<path d="M327.6,356.8c0.7-0.2,1.1,0.2,1.5,0.6c5.7,5.4,11.1,11,15.9,17.2c0.6,0.8,1.2,1.7,1.7,2.7c0.2,0.3,0.1,0.9,0.1,1.7
		c-0.7-0.6-1-0.9-1.3-1.2c-4.6-6.3-9.9-12.1-15.2-17.8C329.4,358.9,328.6,357.8,327.6,356.8L327.6,356.8z"/>
	<path d="M335.6,328.2c0.6-1,1-1.6,1.4-2.1c-0.5-2.3-2.2-3.9-3.5-6.1c0.7-0.1,1.2-0.4,1.5-0.3c2.4,1.3,4,3.3,4.5,6
		c0.3,1.8-0.8,3.1-2.5,3.1C336.6,328.9,336.2,328.5,335.6,328.2z"/>
	<path d="M197.7,427c-1.2,0.7-1.8,0.3-2-0.4c-0.6-1.7-1.1-3.4-1.3-5.1c-0.2-2.1-0.1-4.2-0.1-7.1c0.6,1,0.9,1.3,1,1.7
		c0.1,0.7,0.2,1.4,0.1,2.1C195.1,421.3,195.6,424.3,197.7,427z"/>
	<path d="M218.4,426c0.7-3.2,1.9-5.7,2.3-8.6c1.5,0.6,1.3,1.8,1.3,2.8C221.8,422.5,220.9,424.4,218.4,426z"/>
	<path d="M389.4,297.2c0.1,0.9,0.3,1.3,0.2,1.6c-0.9,2.3-1.8,4.6-2.8,6.8c-0.3,0.6-0.5,1.4-1.3,1.5c-0.1-0.1-0.2-0.2-0.2-0.2
		c0-0.5,0-0.9,0.2-1.3c1-2.4,2-4.8,3-7.2C388.6,298.2,388.8,297.9,389.4,297.2z"/>
	<path d="M335.1,290.3c-0.6-4-0.2-7.3,0.8-10.6c0.4,0.2,0.7,0.3,0.7,0.4C336.9,283.4,336.3,286.5,335.1,290.3z"/>
	<path d="M221.6,442.7c0.1,0.2,0.3,0.5,0.2,0.6c-1.3,2.6-2.5,5.4-4.2,8c-0.3-1.9-0.2-2.3,0.7-4.4
		C219.5,444.5,220.1,443.7,221.6,442.7z"/>
	<path d="M352.5,366.8c-2.3-3.5-2.4-6.7-2-10c0.3,0,0.6-0.1,0.7,0c0.2,0.1,0.3,0.4,0.4,0.6C351.9,360.3,352.2,363.2,352.5,366.8z"/>
	<path d="M200.9,403.9c1,0.4,1,1,0.7,1.5c-0.8,1.4-1.9,2.6-3.4,3.4C198.1,406.7,198.3,406.4,200.9,403.9z"/>
	<path d="M268.1,305.9c1.3-2,2.6-2.7,4.1-3c0.2,0,0.6,0.3,0.7,0.6c0.1,0.1,0,0.5-0.1,0.6C271.7,305.1,270.3,305.5,268.1,305.9z"/>
	<path d="M329.8,363.1c-2.4-1.4-4.1-3.5-5.7-5.7l-0.1,0.1c0.1,0,0.3-0.1,0.3-0.1c1.8,0.8,2.8,2.4,4.2,3.7
		C329.1,361.7,329.9,362.2,329.8,363.1L329.8,363.1z"/>
	<path d="M336.5,296.2c0.7,2.6,0.7,2.6-0.6,4c-0.6-1.4-0.7-2.7-0.1-3.9C335.9,296.1,336.3,296.2,336.5,296.2z"/>
	<path d="M382,314.6c0.7-1.7,0.7-1.7,2.7-3C384.1,313.2,383.5,314.3,382,314.6L382,314.6z"/>
	<path d="M330.5,363.9c2,1.3,2.6,2,3.6,4.3l0.1-0.1C332.2,366.8,331.4,365.8,330.5,363.9L330.5,363.9z"/>
	<path d="M237.8,179.4c-0.2,1.4-0.9,1.8-2.1,2.3C236,180.3,236.4,179.7,237.8,179.4z"/>
	<path d="M356.4,379.3c0.2-0.3,0.3-0.5,0.4-0.7c0.2,0.2,0.5,0.4,0.6,0.6c0.1,0.1-0.2,0.4-0.3,0.6
		C356.9,379.6,356.6,379.5,356.4,379.3z"/>
	<path d="M214.4,433.2c-0.4,0.4-0.6,0.7-0.9,1c-0.2-0.2-0.6-0.4-0.6-0.6c-0.1-0.5,0.1-1,0.6-1C213.7,432.6,213.9,433,214.4,433.2z"
		/>
	<path d="M221.7,487.6c0.1,0.1,0.2,0.2,0.2,0.3c-0.1,0.4-0.2,0.8-0.2,1.2c-0.1,0-0.3,0-0.3-0.1c-0.1-0.4-0.2-0.8-0.2-1.2
		C221.1,487.7,221.5,487.7,221.7,487.6z"/>
	<path d="M313.3,344c1.4,0,2.1,0.8,2,2.2l0.1,0C314.7,345.4,314.1,344.6,313.3,344L313.3,344z"/>
	<path d="M233.9,185.5c0.4-0.4,0.7-0.8,1.1-1.3C235.4,185.2,234.8,185.5,233.9,185.5z"/>
	<path d="M223.6,500.2c0.8,1,0.9,1.7,0,2.6C223.6,501.9,223.6,501.2,223.6,500.2z"/>
	<path d="M356.4,375.6c-0.2-0.2-0.5-0.5-0.6-0.7c-0.1-0.1,0.1-0.4,0.2-0.6c0.1,0.1,0.2,0.1,0.2,0.2c0.2,0.3,0.4,0.5,0.5,0.8
		C356.6,375.4,356.5,375.5,356.4,375.6z"/>
	<path d="M335.6,370.2c-1-0.3-1.4-1-1.5-2.1l-0.1,0.1C335,368.5,335.3,369.4,335.6,370.2L335.6,370.2z"/>
	<path d="M369.8,336.8c-0.3,0.5-0.5,1-0.8,1.5c-0.1-0.1-0.2-0.2-0.4-0.3C369,337.6,369.4,337.2,369.8,336.8L369.8,336.8z"/>
	<path d="M375,325.3c-0.2-0.4-0.3-0.7-0.3-0.8c0.2-0.2,0.5-0.4,0.8-0.5c0.1,0,0.3,0.2,0.4,0.3C375.6,324.6,375.4,324.9,375,325.3z"
		/>
	<path d="M215.9,462c-0.8-0.5-0.7-1-0.1-1.5C216.4,460.9,216.4,461.4,215.9,462z"/>
	<path d="M223.3,496.1c-0.1,0.1-0.1,0.2-0.2,0.3c-0.1-0.2-0.2-0.5-0.2-0.7c0,0,0.1-0.1,0.2-0.2C223.2,495.8,223.3,496,223.3,496.1z"
		/>
	<path d="M335.5,370.2c0.1,0.2,0.3,0.3,0.4,0.5c0.1,0.1,0,0.2,0,0.3c-0.1-0.1-0.3-0.1-0.3-0.2C335.6,370.6,335.6,370.4,335.5,370.2
		L335.5,370.2z"/>
	<path d="M216.3,430.3c0-0.2,0-0.5,0.1-0.7c0-0.1,0.1-0.2,0.2-0.2c0.1,0.1,0.2,0.2,0.2,0.2C216.6,429.8,216.4,430,216.3,430.3
		L216.3,430.3z"/>
	<polygon points="369.9,336.9 369.9,336.7 369.8,336.8 	"/>
	<polygon points="315.3,346.1 315.6,346.1 315.4,346.1 	"/>
	<polygon points="321.3,350.2 321.1,350.1 321.2,350.3 	"/>
	<path d="M322,350.9c-0.2-0.3-0.4-0.5-0.7-0.8l-0.1,0.1C321.4,350.5,321.7,350.8,322,350.9L322,350.9z"/>
	<path d="M321.9,351c0.2,0.2,0.5,0.5,0.7,0.7l0.1-0.1C322.5,351.4,322.2,351.2,321.9,351L321.9,351z"/>
	<path d="M323.4,352.4c-0.2-0.2-0.5-0.5-0.7-0.7l-0.1,0.1C323.1,351.8,323.3,352,323.4,352.4L323.4,352.4z"/>
	<path d="M323.3,352.5c0.5,0,0.8,0.2,0.7,0.7l0.1-0.1C323.9,352.9,323.6,352.6,323.3,352.5L323.3,352.5z"/>
	<path d="M324,353.2c0.5,0,0.8,0.2,0.7,0.7l0.1-0.1C324.6,353.6,324.3,353.4,324,353.2L324,353.2z"/>
	<path d="M325.5,354.6c-0.2-0.2-0.5-0.5-0.7-0.7l-0.1,0.1C325.2,353.9,325.5,354.1,325.5,354.6L325.5,354.6z"/>
	<path d="M325.4,354.7c0.6-0.1,0.8,0.1,0.7,0.7c0,0,0.1-0.1,0.1-0.1C326,355.1,325.7,354.8,325.4,354.7L325.4,354.7z"/>
	<polygon points="322.7,356 322.5,355.9 322.6,356.1 	"/>
	<path d="M326.1,355.4c0.6-0.1,0.8,0.1,0.7,0.7l0.1-0.1C326.7,355.8,326.5,355.5,326.1,355.4L326.1,355.4z"/>
	<path d="M323.4,356.7c-0.2-0.2-0.5-0.5-0.7-0.7l-0.1,0.1C323,356.1,323.3,356.3,323.4,356.7L323.4,356.7z"/>
	<path d="M326.8,356.1c0.6-0.1,0.8,0.1,0.7,0.7l0.1-0.1C327.4,356.5,327.2,356.3,326.8,356.1L326.8,356.1z"/>
	<path d="M324.1,357.5c-0.2-0.3-0.5-0.5-0.7-0.8l-0.1,0.1C323.8,356.7,324.1,356.9,324.1,357.5L324.1,357.5z"/>
	<path d="M330.5,363.8c-0.6,0.1-0.7-0.2-0.7-0.7c0,0,0,0,0,0C330.3,363.1,330.5,363.4,330.5,363.8
		C330.5,363.9,330.5,363.8,330.5,363.8z"/>
	<path d="M313.4,343.9c-0.2-0.2-0.5-0.5-0.7-0.7l-0.1,0.1C313.1,343.2,313.4,343.4,313.4,343.9L313.4,343.9z"/>
	<path d="M311.9,342.4c0.2,0.3,0.4,0.5,0.7,0.8l0.1-0.1C312.2,343.1,311.9,342.9,311.9,342.4L311.9,342.4z"/>
	<path d="M381.9,314.6c0,0.1-0.1,0.1-0.1,0.2C381.9,314.7,381.9,314.7,381.9,314.6L381.9,314.6z"/>
	<path d="M216.2,430.2c-0.1,0.2-0.2,0.3-0.2,0.5C215.6,430.2,216,430.3,216.2,430.2L216.2,430.2z"/>
	<polygon points="378.7,319 378.8,319.2 378.6,319.2 	"/>
	<polygon points="210.1,437.8 210.3,437.7 210.3,437.9 	"/>
	<path d="M549.2,438.6c-2.1-1.7-4.3-3.4-6.4-5.1c-1.5-1.2-2.9-2.5-4.3-3.7c-0.4-0.3-0.7-0.7-1-1c-0.4-0.6,0.1-1.6,0.8-1.6
		c0.6,0,1.3,0,1.7,0.3c3.6,2.6,7,5.4,9.2,9.3c0.2,0.4,0.2,0.9,0.3,1.3C549.5,438.2,549.4,438.3,549.2,438.6z"/>
	<path d="M565.7,467.4c1.2,0,2-0.2,2.8,0c3.8,0.9,7.5,1.9,11.4,2.9c-0.2,0.8-0.8,0.6-1.1,0.6c-0.6,0.1-1.2,0-1.8,0
		c-0.5,0-0.9-0.1-1.4-0.1c-3.2-0.4-6.2-1.4-9.2-2.4C566.1,468.3,566.1,468,565.7,467.4z"/>
	<path d="M586.6,447.1c-2.5-0.1-7.2-1.9-10.2-3.8c0.7-0.1,1.1-0.2,1.4-0.1C580.8,444.2,583.9,445,586.6,447.1z"/>
	<path d="M536.3,457.5c2.2,0.2,4.2,0.5,6.3,0.7c-1.4,1.2-1.7,1.3-3.3,1C538.4,459,537,459.2,536.3,457.5z"/>
	<path d="M612.4,486.4c0.7,0.2,1.3,0.3,2,0.5c0.4,0.2,0.8,0.5,1.5,0.9C614.2,488.3,613.3,487.3,612.4,486.4z"/>
	<path d="M584.9,475c0.6-0.4,0.9-0.7,1.3-0.8c0.4,0,0.8,0.3,1.2,0.4c-0.1,0.9-0.7,0.7-1.1,0.7C585.9,475.3,585.6,475.2,584.9,475z"
		/>
	<path d="M555.1,446.7c-0.4-0.1-0.9-0.2-1.1-0.4c-0.3-0.3-0.5-0.7-0.6-1.1c0-0.4,0.8-0.4,1.4,0.2c0.2,0.2,0.4,0.5,0.6,0.8
		C555.3,446.4,555.2,446.5,555.1,446.7z"/>
	<path d="M593.9,477.8c-1.1,0.4-1.7,0.1-2.1-0.8C592.8,476.4,593.3,477,593.9,477.8z"/>
	<path d="M666.3,516.8c0.4,0.4,0.8,0.9,1.5,1.6c-1.2,0-1.5-0.6-1.9-1.1c-0.1-0.1-0.1-0.2-0.1-0.3C665.9,517,666,516.9,666.3,516.8z"
		/>
	<path d="M599.1,479.5c0.5,0.3,1.1,0.6,1.7,1C599.8,481.1,599.4,480.2,599.1,479.5z"/>
	<path d="M551,442.3c-0.3,0.2-0.5,0.3-0.5,0.3c-0.2-0.2-0.3-0.4-0.5-0.6c0.1-0.1,0.2-0.2,0.2-0.2C550.4,441.9,550.7,442.1,551,442.3
		z"/>
	<path d="M605.9,483.4c-0.2,0.1-0.4,0.1-0.5,0.1c-0.1,0-0.1-0.1-0.2-0.2c0.2-0.1,0.4-0.1,0.5-0.1
		C605.7,483.2,605.8,483.4,605.9,483.4z"/>
	<path d="M654.7,510.9c-0.2-0.1-0.4-0.2-0.6-0.2c0.1-0.1,0.2-0.2,0.4-0.3C654.5,510.6,654.6,510.8,654.7,510.9L654.7,510.9z"/>
	<path d="M654.6,511c0.2,0.1,0.3,0.1,0.5,0.2C654.7,511.7,654.8,511.1,654.6,511L654.6,511z"/>
	<path d="M660.4,514.5c-0.2-0.1-0.3-0.1-0.5-0.2c0.1-0.1,0.2-0.2,0.3-0.3C660.3,514.2,660.3,514.4,660.4,514.5L660.4,514.5z"/>
	<path d="M660.4,514.6c0.2,0.1,0.3,0.1,0.5,0.2c-0.1,0.1-0.2,0.2-0.3,0.3C660.5,514.8,660.5,514.7,660.4,514.6L660.4,514.6z"/>
	<path d="M395.7,229.7c0.2,0.2,0.5,0.4,0.6,0.7c0.6,1.9,0.3,3.8-0.2,5.6c-1.2,4.2-2.9,8.3-5.4,11.9c-3.4,4.9-7.9,7.7-13.9,8.1
		c-1.9,0.1-3.7,0.2-5.7-0.1c0.4-0.2,0.7-0.5,1.1-0.6c2.5-1,5.1-2,7.6-3.1c3.6-1.5,6.5-3.8,8.8-7c2.1-2.9,3.9-6,5.2-9.3
		c0.6-1.4,0.7-3,1.1-4.5C394.9,230.9,394.8,230.1,395.7,229.7z"/>
	<path d="M361.7,257.9c-2.4,0.4-4.8,0.8-7.2-0.6c0.2-0.3,0.3-0.6,0.4-0.6c2.2,0.1,4.4,0.3,6.6,0.4c0,0,0.1,0.2,0.1,0.3
		C361.7,257.5,361.7,257.6,361.7,257.9z"/>
	<path d="M322.6,253.5c0.9-1.5,2.3-2.1,4.6-2.8C325.7,252.8,324.3,253.5,322.6,253.5z"/>
	<path d="M329.7,248.5c-0.1,0.3-0.1,0.4-0.2,0.5c-0.4,0.4-0.7,0.9-1.4,0.4c-0.1-0.1-0.2-0.4-0.2-0.6c0.2-0.6,0.7-0.8,1.3-0.6
		C329.4,248.2,329.4,248.3,329.7,248.5z"/>
	<path d="M396.4,179c0.1,0.1,0.4,0.3,0.4,0.5c0.5,2.9,1.1,5.7,1.5,8.6c0,0.2-0.2,0.4-0.4,0.7c-1.8-0.5-2.5-2-3-3.5
		c-0.6-1.7-0.5-3.5-0.2-5.2C395,179.4,395.5,178.9,396.4,179z"/>
	<path d="M390.4,153c-1.5,1.1-3,1-4.5,1.3c-0.7-1.3-0.6-1.6,0.3-1.8C387.6,152.2,389,151.7,390.4,153z"/>
	<path d="M423.3,337.3c1.5-1.6,3.2-2.2,4.6-3.2c0.6,0.5,0.4,0.9,0,1.2c-0.9,0.7-1.9,1.4-2.9,1.9
		C424.7,337.4,424.1,337.3,423.3,337.3z"/>
	<path d="M430.2,332.8c0.8-1,1.9-1.4,3.3-1.8c-0.2,0.5-0.2,0.7-0.4,0.8C432.2,332.2,431.2,332.6,430.2,332.8z"/>
	<path d="M497,239.8c0.3,1.4,0,1.7-1.7,1.6C495.8,240.4,495.8,240.4,497,239.8z"/>
	<path d="M484.7,287.5c-0.4,0.9-0.5,1.3-0.6,1.5c-0.2,0.4-0.5,0.8-1,0.4c-0.5-0.4-0.1-0.8,0.2-1.1
		C483.5,288,483.8,287.9,484.7,287.5z"/>
	<path d="M488.6,280.9c-0.4,0.6-0.8,1.3-1.4,2.2C486.6,281.6,487.3,281.1,488.6,280.9z"/>
	<path d="M433.4,343.4c-0.3-0.2-0.6-0.3-0.6-0.4c-0.1-0.6,0.9-1.2,1.4-1c0.1,0,0.2,0.4,0.1,0.5C434,342.8,433.7,343.1,433.4,343.4z"
		/>
	<path d="M403.4,194.6c-0.3-0.3-0.7-0.6-0.9-1c-0.2-0.3-0.3-0.6-0.5-0.9c0.8-0.5,1,0.2,1.2,0.6C403.3,193.7,403.3,194.2,403.4,194.6
		L403.4,194.6z"/>
	<path d="M403.3,194.7c0.4,0.2,0.8,0.4,1.2,0.6c0.3,0.3,0.6,0.6,1,1.1C404.1,196.1,404.1,196.1,403.3,194.7L403.3,194.7z"/>
	<path d="M479.8,296.6c-0.2-1.3-0.1-2,1.2-2.4C481.3,295.3,480.6,295.8,479.8,296.6z"/>
	<path d="M455.4,190.6c-0.1-0.1-0.3-0.2-0.4-0.4c0.1-0.1,0.3-0.3,0.4-0.3c0,0,0.3,0.1,0.3,0.2C455.6,190.2,455.5,190.4,455.4,190.6z
		"/>
	<path d="M333,169.7c-1.2,0-1.8,0.1-2.3,0c-6.5-1.1-13-2.2-19.6-3.3c-0.4-0.1-0.8-0.4-1.2-0.6c0.3-1,1.1-1,1.8-1
		c1.6,0.1,3.3,0.3,4.9,0.5c4,0.6,7.9,1.3,11.9,2c1.2,0.2,2.3,0.7,3.4,1.1C332.2,168.5,332.3,168.9,333,169.7z"/>
	<path d="M348.5,169.3c-0.3,0.9-0.4,1.3-0.5,1.5c-1.1,1.3-2.6,2-4.2,2.4c-0.9,0.2-1.9,0.3-2.8,0.5c-2.7,0.7-4.6-0.7-6.4-2.3
		c-0.1-0.1-0.2-0.2-0.2-0.3c0-0.3-0.1-0.8,0.1-1c0.2-0.2,0.6-0.5,0.9-0.4c0.8,0.3,1.5,0.6,2.2,1.1c2.1,1.4,4.3,1.3,6.5,0.5
		C345.3,170.8,346.5,170.1,348.5,169.3z"/>
	<path d="M350.1,156c-0.4-0.7-0.8-0.9-0.7-1.2c0.2-2.7,1.5-5.2,2.5-7.7c0.1-0.2,0.6-0.3,0.9-0.2c0.2,0,0.3,0.3,0.4,0.5
		c0.1,0.2,0.1,0.5,0.1,0.7C352.6,150.8,351.9,153.3,350.1,156z"/>
	<path d="M348.4,158c1,2.1,0.9,3.6,0.2,5.1C347.3,162,347.2,161.2,348.4,158z"/>
	<path d="M357.2,135c1.3,1.7,1.3,1.7,0.2,3.4C356.8,137.1,356.8,137.1,357.2,135z"/>
	<path d="M308,162.8c-1.3,0.5-2.6,0.8-3.9-0.6C305.7,161.7,306.9,161.9,308,162.8z"/>
	<path d="M319,145.5c-1.1-0.5-1.5-1.3-1.3-2.5C319.2,143.5,319.2,143.5,319,145.5z"/>
	<path d="M351.4,199.4c-0.1,0.1-0.1,0.2-0.2,0.3c-0.3,0.1-0.5,0.2-0.8,0.3c0-0.2-0.1-0.4,0-0.5c0.2-0.2,0.5-0.3,0.8-0.5
		C351.1,199,351.3,199.3,351.4,199.4z"/>
	<path d="M321.9,149.6c-0.3,0.4-0.4,0.7-0.5,0.6c-0.3-0.1-0.6-0.3-0.8-0.5c-0.1-0.1,0.1-0.3,0.2-0.5
		C321.2,149.3,321.5,149.4,321.9,149.6z"/>
	<path d="M356.6,142.9c0.1,0.1,0.2,0.1,0.3,0.2c0.2,0.4,0.4,0.9-0.1,1.2c-0.1,0-0.2,0-0.3,0c-0.5-0.4-0.4-0.8-0.1-1.2
		C356.4,143,356.5,143,356.6,142.9z"/>
	<path d="M314.4,70.6c-2.3-0.4-3.5,1-5.2,1c0.1-0.3,0.1-0.7,0.3-0.9c4.3-2.7,9.7-2.4,13.6,0.7c0.5,0.4,1,1,1.4,1.6
		c0.4,0.5,0.4,1.1,0,1.6c-0.4,0.6-1,0.5-1.6,0.1c-0.3-0.2-0.6-0.4-0.9-0.6c-0.8,0.6-1.7,1.2-2.6,1.9c-0.9-0.2-1.8-0.3-2.6-0.8
		c-0.8-0.4-1.3-1.3-1.9-1.9c-1.4-0.2-1.9,1.3-3,1.7c-0.9,0-1.8-0.1-2.3-1.4C310.9,72.7,312.4,71.8,314.4,70.6z"/>
	<path d="M356.2,70.4c-3-0.3-5-1.7-7.6-1.3c2.1,1.9,5,1.9,7,3.8c-2.2,1.1-3.7-0.6-5.4-0.7c-2.3,2.9-4.3,3.1-7.2,0.4
		c-0.7,0.6-1.4,1.2-2.1,1.7c-0.7,0.5-1.3,0.2-1.8-0.8c0.4-0.4,1-0.8,1.4-1.3c0.8-0.9,1.5-1.8,2.2-2.8c0.6-0.8,1.3-1.4,2.2-1.6
		C347.6,67.1,353,68.1,356.2,70.4z"/>
	<path d="M346.7,104.2c-0.5,0.6-0.8,1.1-1.1,1.1c-1.1,0.3-2.3,0.5-3.5,0.6c-4.7,0.1-9.5,0.2-14.2,0.2c-1.4,0-2.8-0.1-4.3-0.2
		c-0.4,0-0.8-0.4-1.6-0.8c1-0.4,1.6-0.8,2.2-0.8c1.4,0,2.6-0.2,3.8-0.8c2.9-1.4,6-1.2,9.1-0.6c1.1,0.2,2.1,0.4,3.1,0.7
		c1.6,0.5,3.2,0.7,4.9,0.3C345.5,103.7,346,104,346.7,104.2z"/>
	<path d="M343,109.3c-1.2,1.1-2,2.6-3.8,3c-2.7,0.5-5.3,1.4-8.1,0.5c-1.7-0.5-3.4-1.1-5-1.7c-0.4-0.1-0.7-0.5-1.4-1.1
		c0.8-0.2,1.3-0.5,1.6-0.3c3.3,1.2,6.8,0.9,10.2,0.8c1.7-0.1,3.3-0.3,4.7-1.4C341.7,108.7,342.3,108.7,343,109.3z"/>
	<path d="M356.9,63.4c-6.3-0.9-12.4,0.1-18.4,1.6c-0.6,0.1-1.2,0.3-1.7,0.3c-0.3,0-0.7-0.5-1.1-0.8c0.6-0.5,0.9-0.9,1.3-1
		c1.1-0.4,2.2-0.8,3.4-1c4-0.7,8-0.9,12.1-0.6C354.1,61.9,355.7,62.1,356.9,63.4z"/>
	<path d="M308.3,63.8c1.8-1.7,3.9-1.5,5.8-1.8c3.1-0.4,6.1,0.4,9.1,1.3c1.5,0.5,1.7,0.7,3.1,2.5c-0.5,0.1-1,0.3-1.3,0.1
		c-2.9-1.5-6-2.1-9.3-2.3c-2.1-0.2-4.2-0.4-6.3,0.5C309.2,64.3,308.8,64,308.3,63.8z"/>
	<path d="M352.6,31.8c0.8-0.2,0.7-0.9,0.7-1.5c0.5,0,0.9,0,1.3,0c0.5,0.6,0.1,1.1-0.1,1.7c-0.2,0.5-0.6,1.1-0.1,1.6
		c1.1,1.3,0.1,2.4-0.5,3.7c-0.9-0.3-1.7-0.5-2.6-0.8c0-0.3-0.1-0.6-0.1-0.8C351.7,34.4,352.9,33.3,352.6,31.8z"/>
	<path d="M340.6,89.5c0.4-0.1,0.6-0.2,0.6-0.2c1.2,1.4,1.3,3.3,0.3,4.4c-0.3,0.3-0.8,0.7-1.2,0.7c-1.5-0.3-3.4,0.6-4.5-1.1
		c1.3-1.5,1.7-1.7,3-0.9c0.2,0.1,0.4,0.3,0.5,0.5c0.4,0.4,0.9,0.4,1.2,0.1c0.3-0.3,0.4-0.8,0.5-1.2c0-0.3-0.2-0.7-0.3-1
		C340.7,90.3,340.6,90,340.6,89.5z"/>
	<path d="M332.7,94.3c-1.2,0.2-1.9,0.3-2.5,0.3c-0.3,0-0.8-0.6-0.8-0.9c0-0.4,0.4-0.9,0.8-1C331.2,92.3,331.8,93,332.7,94.3z"/>
	<path d="M321.4,77c-1.9,1.3-3.1,1.1-4.7,0.4C318.1,76.3,319.3,76.5,321.4,77z"/>
	<path d="M357.5,57.5c0.9,1.4,1.2,2.3,0.6,3.4C356.8,60.1,357,59.1,357.5,57.5z"/>
	<path d="M336.5,71.1c-0.3-1.8,0.4-2.8,1.1-3.7c0.8,0.2,0.7,0.6,0.5,1C337.7,69.2,337.2,70,336.5,71.1z"/>
	<path d="M326.2,72.6c0.1,0,0.3-0.1,0.3,0c0.6,0.4,0.9,1.3,0.6,1.7c-0.1,0.1-0.2,0.1-0.3,0.1c-0.5-0.1-1-0.9-0.9-1.6
		C326,72.8,326.2,72.7,326.2,72.6z"/>
	<path d="M327.6,88.7c-0.1,1.8-0.1,1.8-1.1,2.7C326.2,90.3,327,89.8,327.6,88.7z"/>
	<path d="M326.3,92.7c0.7,0.4,1.1,0.6,1.2,0.8c0.2,0.2,0.3,0.8,0.1,0.9c-0.5,0.4-0.8,0-1-0.4C326.6,93.8,326.6,93.5,326.3,92.7z"/>
	<path d="M306.8,48.8c-0.3,0.1-0.5,0.2-0.6,0.2c-0.1-0.3-0.2-0.6-0.3-0.9c0-0.1,0.4-0.2,0.6-0.2C306.5,48.2,306.7,48.5,306.8,48.8z"
		/>
	<path d="M334.9,91c-0.2-0.2-0.5-0.4-0.5-0.4c0.1-0.3,0.3-0.7,0.5-0.8c0.2-0.1,0.5,0.1,0.8,0.1c0,0.2,0,0.4-0.1,0.6
		C335.4,90.7,335.1,90.8,334.9,91z"/>
	<path d="M308.4,39.7c0.4,0.4,0.8,0.8,0.6,1.4C308.5,40.7,308.5,40.7,308.4,39.7L308.4,39.7z"/>
	<path d="M335.3,75.4c-0.1,0-0.1,0.1-0.2,0.1c-0.1-0.2-0.1-0.4-0.1-0.6c0,0,0.2-0.1,0.4-0.2C335.3,75,335.3,75.2,335.3,75.4z"/>
	<path d="M349.1,75.8c-0.7,0.2-1,0.3-1.3,0.3c-0.1,0-0.2-0.2-0.2-0.2c0.1-0.2,0.2-0.4,0.3-0.4C348.1,75.5,348.3,75.6,349.1,75.8z"/>
	<path d="M307,42.6c0.2,0.1,0.3,0.3,0.5,0.4c0.1,0.1,0,0.2,0,0.3c-0.1-0.1-0.4-0.1-0.4-0.2C307,42.9,307,42.7,307,42.6L307,42.6z"/>
	<polygon points="308.5,39.6 308.2,39.6 308.4,39.7 	"/>
	<path d="M307,42.5c-0.1-0.1-0.3-0.1-0.4-0.2c0.1,0,0.2,0,0.2,0C306.9,42.4,306.9,42.5,307,42.5L307,42.5z"/>
	<path d="M157.4,575.2c-0.6-1.6-0.5-2.3,0.5-2.8c1.1-0.5,2.3-0.6,3.5-0.4c4.4,0.7,8.4,2.4,11.8,5.4c0.6,0.5,1.1,1.2,1.5,1.9
		c0.3,0.5,0.2,1.1-0.6,1.6c-2.2-2.1-5-3.2-7.9-4.4C163.4,575.4,160.5,574,157.4,575.2z"/>
	<path d="M180.4,556.2c-0.8,0.8-1.8,0.8-2.6,0.5c-2-0.6-4-1.4-5.9-2.1c-0.4-0.2-0.7-0.6-1-0.9c-0.7-0.9-0.4-2.3,0.7-2.7
		c0.6-0.3,1.4-0.5,2-0.4c2.2,0.4,4.3,1.3,6,2.8C180.2,554.1,180.9,555,180.4,556.2z"/>
	<path d="M342,17.6c0-0.1,0.1-0.2,0.1-0.3C342,17.4,342,17.5,342,17.6L342,17.6z"/>
</g>
</svg>
