<?xml version="1.0" encoding="utf-8"?>
<!-- Generator: Adobe Illustrator 20.0.0, SVG Export Plug-In . SVG Version: 6.00 Build 0)  -->
<svg version="1.2" baseProfile="tiny" id="Layer_2" xmlns="http://www.w3.org/2000/svg" xmlns:xlink="http://www.w3.org/1999/xlink"
	 x="0px" y="0px" viewBox="0 0 900 600" xml:space="preserve">
<g>
	<path d="M431.2,586.8c-0.1-0.6-0.5-1.2-0.3-1.7c0.4-1.7,1-3.3,1.6-5c0.4-1.1,0.8-2.1,1.2-3c0.5-0.3,0.6-0.5,0.8-0.5
		c3.7-0.7,7.5-1.4,11.2-2.1c0.8-0.1,1.6-0.2,2.4-0.3c2.4-0.4,4.8-0.8,5.9-3.5c0.1-0.3,0.5-0.6,0.7-0.6c1.7-0.2,2.5-1.6,3.5-2.6
		c1.3-1.5,2.4-3.1,3.6-4.7c0.3-0.4,0.6-0.7,1-1c3-1.8,5.5-4.2,7.9-6.7c1.4-1.4,2.7-2.7,3.7-4.4c1-1.8,2.7-3.1,4.7-4.1
		c0-7.1,0.2-14.3-0.6-21.5c-0.5-4.5-1.5-8.9-2.7-13.2c-1.1-3.8-2.1-7.6-3.4-11.3c-1.9-5.6-2.8-11.5-3.5-17.3
		c-0.7-5.3-1.3-10.6-1.9-15.9c-0.4-3.2-0.6-6.5-0.9-9.7c-0.4-5.4-0.7-10.9-1-16.4c-1.1-1.7-2.3-3.5-3.4-5.4c-1-1.8-1.9-3.7-2.7-5.6
		c-0.4-1.1-0.6-2.2-0.7-3.4c-0.2-2.4-0.4-4.8-0.5-7.3c0-1.7-0.6-3.1-1.5-4.5c-8-12.4-14.4-25.7-17.7-40.2
		c-1.6-7.1-2.5-14.4-2.7-21.7c-0.2-5.3-0.5-10.6-0.6-16c-0.1-6.5-0.1-13-0.2-19.5c0-1.2-0.2-2.5-0.2-3.7c0-1.1,0.5-2.3,0.5-3.4
		c0.1-5.3,0.1-10.7,0.1-16c0-5.1-0.2-10.2-0.3-15.3c0-0.3-0.1-0.6-0.2-1.3c-0.4,0.6-0.7,0.9-0.9,1.3c-2.1,4.8-3.4,9.8-4.6,14.9
		c-0.5,2.1-0.5,4.1,0.7,6c1,1.6,1,3.2,0.2,5c-1.4,2.9-1.8,6.2-3.4,9.1c-0.1,3.2-1.9,6.2-0.8,9.6c0.7,2.3-0.4,4.6-0.8,6.8
		c-0.1,0.5-0.7,0.9-1.1,1.2c-0.8,0.5-1.6,0.9-2.5,1.3c-1,0.5-2,1.1-3.3,1.8c-2.2,0-4.4-1-6.6-1.9c-6.6-2.6-12.6-6.4-18.9-9.6
		c-4.3-2.2-8.8-4.1-13.3-6.1c-3.4-1.5-6.8-2.9-10-4.9c-1.1-0.7-2.1-1.3-3.5-1.3c-0.6,0-1.3-0.4-1.9-0.8c-1-0.8-1.9-1.7-2.7-2.7
		c-2.6-3.1-4.8-6.5-6.7-10.1c-0.5-0.9-0.9-1.9-0.9-3c0-1.7-0.1-3.5-0.1-5.2c0-1.7,0.6-3.2,2.2-4.1c-0.3,3.3-0.6,6.6-0.9,10
		c1.6,3,3.3,6,5.6,8.7c0.6,0.7,1.2,1.5,2,1.9c2.5,1.3,4.6,3.1,6.8,4.6c2.3,1.6,4.7,3,7.4,3.8c0.6,0.2,1.3,0.2,2,0.2
		c0,0.1,0,0.2,0,0.3c0,0.1,0.1,0.1,0.2,0.1c-0.1-0.1-0.2-0.2-0.3-0.4c-1.1-0.8-2.2-1.7-3.3-2.5c-3-2.3-5.8-4.9-8.2-7.9
		c-0.5-0.6-1.2-1.1-1-2.1l0,0c0.6,0.4,1.2,0.6,1.6,1.1c3.3,3.1,6.8,5.8,10.7,8.1c3,1.8,5.9,3.5,8.9,5.3c0.7,0.4,1.5,0.6,1.8,1.5
		l0.1-0.1c-1.5,0.1-2.5-1-3.7-1.6c-0.9-0.4-1.7-0.8-2.8-0.1c1.9,0.9,4,1.5,5.3,3.1c0.3,0.3,0.8,0.4,1.2,0.6c6.6,3,13.2,6.2,19.5,9.9
		c1.5,0.9,3.2,1.4,4.7,2.1c0.8,0.3,1.5,0.5,2.3,0c0.5-0.2,1.1,0,1.7-0.2c5.1-1.1,6.7-3.1,6.4-7.8c0-0.6-0.2-1.1-0.3-1.7
		c-0.1-0.6-0.2-1.2-0.1-1.7c0.8-2.9,0.8-5.9,1.9-8.8c1.1-2.9,2.1-5.9,3-8.9c0.2-0.7,0.5-1.6-0.4-2.2c-0.2,0.1-0.5,0.1-0.6,0.3
		c-1,1.6-2.6,1.8-4.3,1.7c-1.5-0.1-2.4-0.9-3.1-2c-0.8-1.2-1.8-2.1-3.1-2.5c-0.6-3.8,0.6-7,1.7-10.3c-1.3-2.8-2.6-5.5-4.8-7.8
		c-2.4,0.2-4.5,1-6.6,2c-1.2,0.6-2.2,0.5-3.3-0.3c-1.3,0.6-2.9,0.4-4.1,1.6c1.1,0.6,2.2,1.1,3.1,1.7c1.4,1,2.9,1.9,4.2,3
		c0.7,0.7,1.2,1.6,1.7,2.6c0.3,0.6-0.1,1.1-0.6,1.1c-1.4-1.1-2.6-2.1-4-3c-1.2-0.8-2.6-1.5-3.9-2.2c-2.5-1.3-2.7-1.3-4.7-1.3
		c1.2,0.8,2.3,1.5,3.3,2.2c1.9,1.4,3.6,3,4.6,5.1c0.3,0.7,0.4,1.3-0.4,1.9c-1.1,0.1-1.8-0.9-2.7-1.4c-2.2-1.3-4.1-3.1-6.6-3.8
		l-0.1-0.2l0.2,0.1c0.8,1.3,2.4,2.1,2.5,3.9c-0.7,0.5-1.2,0.4-1.7,0c-1.5-1-3.1-2-4.6-3c-0.1-0.1-0.4,0-0.7,0.1
		c-0.2,0.5,0.2,1.2-0.7,1.4c-0.1,0-0.2,0-0.3,0c-2.5-0.9-4.8-2.3-7.6-1.6c-0.4,0.1-0.9-0.1-1.3-0.3c-0.9-0.5-1.9-0.7-3-0.7
		c-0.8,0-1.6-0.2-2.4-0.5c-2.3-0.7-4.6-1.5-6.9-2.3c-1.7-0.6-3.3-0.9-5.1-0.9c-2.2,0-4.4-0.2-6.6-0.2c-0.1-0.8,0.3-1.4,1.1-1.4
		c1.4,0,2.8,0.1,4.2,0c2.6-0.1,5,0.4,7.4,1.4c0.9,0.3,1.8,0.5,2.6,0.9c3,1.5,6.3,1.4,9.5,1.1c2.6-0.2,5.3-0.4,7.9-0.7
		c0.8-0.1,1.6-0.4,2.3-0.7c1.5-0.7,2.8-1.6,4.3-2.3c2.8-1.4,5.8-2.4,8.7-2.5c1.3-0.8,2.5-1.6,3.7-2.2c0.9-0.5,1.5-1.1,1.9-2
		c0.3-0.6,0.6-1.2,0.9-1.9c2.2-6.1,4.4-12.2,6.4-18.3c1-3.2,1.5-6.5,1.6-9.9c0.2-5.9,0.4-11.8,0.7-17.7c0.1-1.4,0.2-2.8,0.3-4.2
		c0.1-1.7,0.2-3.5,0.3-5.6c-0.8,0.4-1.2,0.7-1.7,0.9c-2.2,1.2-4.4,2.5-6.7,3.7c-1.4,0.7-2.9,0.8-4.3,0.1c-0.7-0.3-1.5-0.6-2.3-0.8
		c-0.6-0.1-1.3,0.1-2.1,0.1c-0.9-1.3-1.8-2.5-2.3-3.9c-0.6-1.6-1.6-3.1-2.3-4.7c-3.2-6.5-2.7-12.5,2.3-18c0.2-0.2,0.3-0.4,0.4-0.5
		c0.1-0.1,0.1-0.2,0.3-0.6c0.4-4.1,0.7-8.4,1.2-12.8c0.3-2.6,0.7-5.3,1.2-7.9c0.5-2.8,1.6-5.3,3-7.7c0.7-1.2,1.4-2.4,1.9-3.7
		c1.4-3.2,2.3-6.5,2-10.1c-0.1-2,0-3.9,0.1-5.9c0.1-1.5,0.2-3,0.7-4.4c0.7-2.2,1-4.5,1.2-6.8c0.3-3.5,1.3-6.8,2.7-10
		c2.3-5.4,6.3-9,11.5-11.5c0.8-0.4,1.8-0.7,2.6-0.7c4.2-0.1,7.9-1.6,11.3-3.8c1.2-0.8,2.3-1.6,3.4-2.4c0.8-0.5,1.6-1,2.4-1.4
		c4.2-2.2,8.3-4.5,11.7-7.9c-0.4-4.1-0.8-8.3-1.2-12.6c-1.9-0.6-4-0.2-6.2-0.8c-1.4-1.1-2.3-2.7-3.1-4.4c-0.6-1.4-1.1-2.8-1.7-4.2
		c-0.8-1.9-1.6-3.9-2.6-5.7c-1.9-3.4-2.8-7.1-3.4-10.9c-0.1-0.5-0.1-0.9-0.1-1.4c0.2-2.2,0.4-4.4,0.6-6.6c0.1-1.4,0.5-2.8,0.4-4.1
		c-0.1-1.2-0.3-2.5-0.7-3.6c-0.9-3-0.4-6,0-8.9c0.4-2.7,1.2-5.4,1.9-8.1c0.1-0.4,0.4-0.9,0.4-1.3c0.3-3,2.1-5.3,3.5-7.8
		c0.4-0.7,1-1.2,1.7-1.7c6.2-4.5,13-7.5,20.8-7.9c1.4-0.1,2.8-0.3,4.2-0.4c1.4-0.1,2.8,0,4.1,0c1.7-1.1,3.4-2.4,5.2-3.2
		c4.1-2,8.2-1.1,12,1c2.7,1.5,3.8,4.3,4.2,7.3c0.6,4.2,1.3,8.5,2.4,12.6c0.3,1.3,0.3,2.8,0.3,4.1c0,1.9,0.3,3.7,0.7,5.5
		c0.6,2.6,1,5.2,1.5,7.8c0.8,4.2,1.6,8.4,3,12.5c1.6,4.8,2.6,9.9,3,14.9c0.4,5-1,9.9-3.1,14.5c-0.6,1.3-1.3,2.5-1.7,3.8
		c-0.6,1.9-0.8,3.9,0.3,5.7c0.4,0.7,0.9,1.3,1.7,1.7c1,0.4,1.9,0.9,2.9,1.3c2.2,0.8,4.3,1.5,6.2,3c1.1,0.9,2.7,1.2,4.1,1.8
		c3.8,1.7,7.7,3.2,11.4,5c3.8,1.8,6.5,4.8,7.9,8.8c0.5,1.5,0.8,3,0.2,4.4c-0.5,1.4-0.4,2.7-0.2,4.1c0.5,4.5,0.5,9-0.1,13.5
		c-0.7,5.7-0.4,11.3,0.7,16.9c1.1,5.1,1.6,10.3,1.3,15.5c0,0.3-0.1,0.7,0,1c1.7,7.8,0.4,15.4-1.5,23c-0.2,1-0.4,2-0.4,3.1
		c0,1.6-0.4,3.2-0.9,4.7c-2.1,5.5-4.7,10.8-7.7,15.9c-0.4,0.6-0.8,1.1-1.2,1.7c-0.3,0.3-0.7,0.6-1,0.9c-3.3,0.6-6.2-1-9.5-1.6
		c0,0.7-0.1,1.4,0,2c1,4.7,2.7,9.1,4.3,13.6c0.7,1.8,1.1,3.8,1.6,5.6c0.2,0.8,0.5,1.5,1,2.2c0.5,0.8,1.1,1.5,1.8,2.2
		c6.9,7.7,10.4,16.7,10.5,26.9c0,3.6-0.8,7.1-2.1,10.5c-2.4,6.4-6,12-10.7,16.9c-1.9,1.9-3.6,3.9-5.4,5.9c-3.9,4.5-8.5,7.8-14.3,9.5
		c-0.7,0.2-1.3,0.5-2,0.7c-3,6.3-7.4,10.9-15,11.4c0.1,0.8,0.1,1.3,0.2,1.9c1.6,5.9,2.3,12.1,3.3,18.1c1.5,9.2,1.6,18.5,1.3,27.7
		c-0.2,6.4-0.4,12.7-0.7,19.1c-0.2,3.9,0.3,7.6,1,11.4c0.1,0.8,0.5,1.6,1,2.2c1,1.1,1.4,2.4,1.6,3.8c0.5,3.3,0.4,6.7,1.3,10
		c0.1,0.5,0.1,1.3-0.1,1.7c-1.2,1.9-0.6,4.1-0.8,6.1c-0.3,1.9-0.5,3.9,0.3,5.8c0,6.4,2.4,12.2,4.8,18c3.2,7.8,4.7,16,4.9,24.4
		c0,1.2,0,2.3,0.1,3.5c0.5,7.8-0.8,15.2-3.2,22.6c-0.8,2.5-1.2,4.9-1.3,7.5c-0.1,8.5-0.4,16.9-0.5,25.4c0,2.3,0.3,4.6,0.5,6.9
		c0.4,3.2,0.8,6.4,1.3,9.8c1,0.3,2,0.6,3.1,0.9c0.2,0.4,0.4,0.7,0.4,1.1c0.1,2.1,0.4,4.1,1.3,6.1c0.2,0.5,0.4,1.1,0.4,1.7
		c-0.1,1.9,0.7,3.3,1.9,4.7c0.8,0.9,1.4,2.1,1.9,3.3c1.1,3.1,2,6.2,3,9.2c0.4,1.1,0.1,2-0.5,2.9c-1.9,2.7-4.4,4.4-7.8,4.7
		c-4.7,0.4-9.5,0.7-14.2,1.2c-1.5,0.1-2.9,0.5-4.4,1c-1.4,0.4-2.8,1-4.2,1.6c-7.5,3.3-15.4,4-23.4,4.2c-3.8,0.1-7.6-0.1-11.5-0.1
		c-6.1,0-11.5-2.3-16.8-5c-0.5-0.3-1-0.7-1.4-1c-0.5-0.4-0.9-0.7-1.5-1.2c0.4-0.5,0.7-0.8,1-1.1c1.4,2.1,3.7,2.6,5.9,3.3
		c1.2,0.4,2.6,0.4,3.7,1c3,1.5,6.2,1.9,9.4,2c3,0.1,6,0,9,0.1c5.5,0.2,10.9-0.3,16.1-1.9c2-0.6,4-1.2,6-1.8c2.4-0.8,4.7-1.8,7.2-2.6
		c1.3-0.4,2.7-0.8,4.1-0.8c3.1,0,6.2-0.5,9.3-0.8c1.4-0.2,2.8-0.3,4.1-0.1c3.7,0.5,6.2-1.2,7.9-4.2c-0.9-3.1-1.7-6.1-2.5-9.2
		c-0.4-1.5-1.1-2.8-2.1-3.9c-0.9-0.9-1.5-2-1.7-3.4c-0.5-3.2-1.1-6.3-1.7-9.6c-0.3-0.1-0.6-0.3-0.9-0.4c-0.6-0.1-1.3,0-1.4,0.7
		c-0.1,0.7,0,1.4,1,1.4c0.3,0,0.6,0.3,0.9,0.5c0,3.3-2.8,4.9-3.9,7.4c-1.6,0.1-2.6-0.7-3.7-1.3c-1.3-0.7-2.6-1.6-4-2.1
		c-1.9-0.7-3.4-1.9-4.7-3.4c-1.6-1.9-3.2-3.7-4.7-5.6c-1.1-1.3-2.4-2.1-4.1-2.5c-1.1,0.8-1.4-1.1-2.3-0.7c-2.2,1.1-2.5,3.5-3.7,5.4
		c0.9,0.5,1.8,0.9,2.5,1.4c2.6,1.6,4.8,3.7,6.4,6.2c0.3,0.5,0.5,1.1-0.2,1.3c-2.8-1.5-5.5-3-8.3-4.5c-0.9-0.5-1.9-0.8-2.9-1.2
		c-0.4-0.1-0.9,0-1,0.8c1.4,0.8,2.9,1.6,4.3,2.6c1.3,1,2.9,1.9,3.3,4c-0.7,0-1.3,0.2-1.8,0c-1.6-0.6-3.2-1.4-4.8-2.1
		c-1.4-0.6-2.8-1.1-4.2-1.6c-0.3-0.1-0.7,0.3-1.3,0.6c1.2,0.7,2.2,1.1,3,1.7c1.4,1,2.7,2.2,3.9,3.4c0.2,0.2,0.2,0.7,0,0.9
		c-0.2,0.2-0.6,0.5-0.9,0.4c-2-0.6-3.9-1.3-5.9-2c-1.2-0.4-2.3-1.2-3.5-1.1c-0.8,0.6-1.6,1.1-1.7,2.2c2.1,0.9,4.4,1.7,5.3,4.1
		c-1.4,0.7-1.5,0.8-2.3,0.4c-1.6-0.7-3.1-1.5-4.7-2.2c-0.2-0.1-0.4,0-0.7,0c-0.2,0.2-0.5,0.4-0.7,0.7c-0.2,0.4-0.4,0.8-0.6,1.2
		c0.7,0.6,1.4,1.1,2,1.6c0,0,0,0.2,0,0.4c-1.8,1.5-3.4-0.3-5.1-0.5c-2.5,2.7-5.8,3.7-9.2,3.7c-3.7,0-6.9,1.7-10.5,1.8
		c-0.7,1.9-1.2,3.7-1.9,5.4C432.7,585.1,432.3,586.2,431.2,586.8z M443.1,111.8c-0.5-0.1-0.7,0.1-0.7,0.6c-0.5,0.2-1.1,0.3-1.6,0.6
		c-3.2,2.1-6.6,3.3-10.5,3c-1.2-0.1-2.3,0.3-3.3,0.8c-4.8,2.7-8.5,6.3-10.3,11.7c-1.2,3.8-2.1,7.6-2.3,11.5c-0.1,3.1,0,6.2-1.6,9.1
		c-0.5,0.9-0.6,2.1,0.1,3c0.9,1.1,0.8,2.1,0.4,3.2c-1.7,5.1-3.3,10.1-5.1,15.1c-0.3,0.8-0.8,1.8-1.4,2.3c-1,0.8-1.4,1.8-1.5,3
		c-0.5,5-1,9.9-1.3,14.9c-0.2,2.1-0.2,4.2-1,6.1c-3.4,3-4.5,5-5.9,11.1c0.7,2.8,1.8,5.5,3.3,8c0.8,1.3,1.6,2.5,2.3,3.9
		c1.3,2.8,3.9,3.2,6.4,3.2c2.3,0,4-2.3,6.4-2.3c0.5,0,1-0.6,1.4-1c1.4-1.3,2.3-2.9,2.6-4.8c-0.7-0.4-1.3-0.8-2.3-1.5
		c0.7-0.4,1.2-0.8,1.7-0.8c3.3,0,6-1.6,8.7-3.1c0.5-0.3,1-0.7,1.3-1.1c0.2-0.3,0.1-0.8,0.1-1.4c-2.2,0.2-4.1,0.6-6,0.7
		c-1.6,0.1-4.1-0.7-5.4-1.4c0.1-0.1,0.1-0.2,0.2-0.3c0.4-0.1,0.9-0.3,1.3-0.2c4.7,1.2,9.2-0.1,13.7-1.2c1.9-0.4,3.5-1.7,5.1-2.8
		c-1.7-1-1.7-1.1-3.3-0.8c-2.4,0.4-4.8,1-7.2,1.4c-1.1,0.2-2.3,0.2-3.4,0c-1.6-0.2-3.2-0.7-4.7-1.1c-0.5-0.1-0.9-0.6-1.5-1
		c0.6-0.4,0.9-0.9,1.3-0.9c2.8-0.5,5.7-1.1,8.6-0.9c1.7,0.1,3.5,0,5.2-0.1c2.8-0.1,5.5-0.3,8.3-0.3c1.4,0,2.1-0.7,2.6-2.3
		c-0.6-0.5-1.3-1-2.1-1.7c-2.3-0.2-4.7-0.4-7.1-0.6c-1.4-0.1-2.7-0.4-4.1-0.4c-2.9-0.1-5.8,0-8.7,0c-0.2,0-0.5,0-0.7-0.1
		c-0.2-0.1-0.4-0.2-1-0.6c0.9-0.1,1.4-0.2,1.8-0.2c2.8,0.1,5.6,0.1,8.3,0.2c3.7,0.1,7.4,0.3,11.1,0.3c0.4,0,0.9-0.5,1.5-0.8
		c-1.3-2.4-3.4-3.3-5.6-2.9c-1.5,0.3-2.7,0-4-0.5c-3.5-1.3-7.1-2.1-10.8-2.4c-0.8-0.1-1.6-0.1-2.4-0.3c-0.1,0-0.2-0.3-0.5-0.6
		c0.8-0.4,1.6-0.7,2.9-1.3c-1.3-0.1-2-0.2-2.6-0.3c-0.8-0.1-1.6-0.2-2.4-0.5c-0.6-0.2-1.1-0.5-1.9-1c0,2.2,0,4,0,5.9
		c0,1.1-0.4,2-1.3,2.7c-2.2,1.9-4.4,3.7-6.7,5.6c-0.4,0.3-0.9,0.8-1.7,0.3c0.5-1.5,2.3-2,3-3.4c-1.4-0.4-2.4,0.9-4,0.6
		c0.8-1.2,1.9-1.4,3-1.7c1.2-0.3,2.4-0.5,3.8-0.8c-0.9-0.5-1.5-1-2.5-1.6c2-0.2,3.8,1.6,5.4-0.7c-0.5-3.4,0.4-7.1-0.3-10.8
		c0.5-0.8,1-1.7,1.5-2.6c0.7-1.1,1.6-1.6,2.9-1.4c0.4,0.1,0.9,0.2,1.3,0.3c0.3-0.5,0.6-0.8,0.9-1.2c-0.3-0.9-0.7-1.7-0.9-2.6
		c-0.1-0.9,0-1.8,0-2.8c0-0.9-0.2-1.8-0.3-2.5c0.4-0.8,1.3-1.1,1.1-2.2c-0.4-1.8,0.5-3.4,1.6-4.8c0.7-0.9,1.5-1.7,2.1-2.4
		c0.6-2.1,1.1-3.9,1.6-5.9c-2.8-3.7-3.7-10.1-1.8-14.8c0,2.2,0,3.9,0,5.7c0,1,0.1,2.1,0.4,3.1c0.2,0.6,0.8,1,1.2,1.4
		c1.5-3.2,3-6.2,4.5-9.2c0.5-1.1,1-2.3,1.4-3.5c1-3.4,2.4-6.5,4.2-9.5c1.9-3.1,3.8-6.1,5.7-9.1c0.3-0.6,0.5-1.2,0.8-1.8
		C442.6,112.1,442.8,111.9,443.1,111.8l0.1-0.2L443.1,111.8z M500.8,86c-0.8,0.3-0.8,0.8-0.3,1.6C500.7,87,500.7,86.5,500.8,86
		c0.1-0.6,0.4-1.1,0.6-1.5c0.2-0.3,0.5-0.5,0.7-0.8c1.5-2.1,1.6-4.5,2.2-6.9c0.1-0.4,0-0.9,0.8-0.8c-0.2,0.9-0.3,1.8-0.5,2.7
		c-0.2,0.9-0.2,1.8-0.4,2.7c-0.2,0.9-0.4,1.8-0.7,2.7c-0.2,0.8-0.9,1.6-0.5,2.9c1.8-2.4,3.1-4.7,3.6-7.3c0.7-3.9,1-7.9,0.1-11.7
		c-1.1-4.8-1.4-9.9-3.6-14.5c-0.2-0.4-0.2-0.9-0.3-1.3c-1-3.9-1.7-7.9-2-12c-0.1-0.6,0.1-1.4-0.8-1.8c-0.8,1.2-1,2.5-0.9,3.9
		c0.1,1,0.2,2.1,0.1,3.1c-0.3,2.4-0.7,4.8-1.3,7.2c-0.5,2-0.9,4-2.6,5.5c-0.9,0.8-1.1,2.3-0.4,3.2c1.3,1.5,1,2.9,0.5,4.5
		c-0.4,1.6-0.6,3.2-0.9,4.8c-0.8,3.9-1.2,7.8-3.7,11.1c0.5,1.6,0.2,3.4,2.2,4c0.3-1.8,0.5-3.5,0.9-5.1c0.9-3.7,2-7.4,3-11.1
		c1.4-5.3,2.3-10.6,3-16c0.1-0.5,0.4-1,0.7-1.9c0.5,0.7,0.8,1,0.9,1.4c0.1,1.4,0.2,2.8,0.1,4.2c-0.4,3.3-1.1,6.6-1.6,9.9
		c-0.2,1.1-0.4,2.3-0.4,3.4c0,3.2-0.8,6.2-2,9.1c-0.8,1.9-1.6,3.9-2.3,5.8c-0.6,1.8-0.4,2.1,1.9,3.4c0.2-0.4,0.5-0.8,0.6-1.2
		c0.2-0.9,0.3-1.8,0.5-2.7c0.3-1.6,0.5-3.2,2.3-4c0.4-0.2,0.7-0.9,0.9-1.4c1.6-5.3,2.3-10.6,0.9-16.1c-0.1-0.2,0.1-0.5,0.2-1.3
		c0.6,1,1,1.6,1.2,2.2c0.7,3.7,1.2,7.3,0.2,11c-0.6,2.3-1.2,4.7-1.8,7.1c-0.2,0.8-0.3,1.6-0.4,2.4C500.8,84.8,500.8,85.4,500.8,86z
		 M436.1,187.4l0.1,0.2L436.1,187.4c-0.6-0.8-1.4-0.7-2.2-0.6c-0.4-1-1.3-0.7-2-0.7l-0.1-0.1l0.2,0.1c0.4,1,1.2,0.8,2,0.7
		C434.5,187.7,435.3,187.5,436.1,187.4z M455.6,17.8c-0.5,0.2-1,0.4-1.5,0.6c-0.5,0.2-0.9,0.5-1.4,0.7c-0.2-0.7,0.9-1.4-0.2-2.1
		c-1.6,1.3-2.1,3.3-3.4,4.9c-0.3-0.6-0.4-1.1-0.6-1.5c0.3,0,0.6,0.1,0.3-0.4c-0.1,0.2-0.2,0.3-0.2,0.5c-1.8,1-2.6,2.9-3.3,4.7
		c-1.7,4.3-2.5,8.9-3.5,13.3c0,0.1,0.1,0.2,0.2,0.3c5.2-0.2,5.4-0.2,7.4,1c-0.7,0.3-1.3,0.8-1.9,0.8c-0.9,0-1.8-0.2-2.7-0.4
		c-1.2-0.2-2.3-0.1-3.2,0.8c0.2,1.4,0.6,2.7,1.5,3.8l-0.1-0.1c0.4,0.7,0.9,0.4,1.5,0.2c1.9-0.6,3.6-0.1,5.2,1.2
		c-1.7,0.8-1.6,2.8-3,3.5c-2,0.4-2.4-1.4-3.4-2.5c-0.1,0.1-0.3,0.2-0.3,0.3c-0.2,1.1-0.4,2.3-0.6,3.4c-1.3,6.2-0.5,12.2,2.1,18
		c1.4,3.2,2.6,6.4,3.9,9.6c0.5,1.3,1.2,2.5,1.9,3.7c0.9,1.5,2.2,2.3,4,2.3c2.2,0,4.3,0.2,6.5,0.3c0.1,0,0.3,0.3,0.4,0.6
		c-0.7,0.3-1.3,0.6-2.1,1c0.4,3.6,0.6,7.1,1,10.5c0.5,3.8,0.5,7.6-0.4,11.4c-0.1,0.4-0.1,1-1,0.9c-0.1-2.8,0.6-5.6,0.1-8.6
		c-0.6,0.4-1,0.6-1.3,0.9c-2,1.8-4.2,3.3-6.6,4.4c-1.5,0.7-2.4,1.7-3.2,3c-1.9,3.2-3.9,6.3-5.8,9.5c-3.5,5.7-7.1,11.4-9.9,17.5
		c-0.4,0.8-0.8,1.7-1.3,2.4c-1.6,2.4-2.6,5.2-3.3,8c-0.2,0.6-0.1,1.3-0.1,2.2c2.8-1.1,5.3-2,7.5-3.8c0.9-0.7,2-1.1,3.2-1.3
		c1-0.2,2.1-0.1,2.8-1c0-0.1,0.1-0.3,0-0.4c-0.1-0.4-0.3-0.9-0.4-1.3c-1.2-5.7-0.9-11.3,2.1-16.5c1.2-2,2.4-4,3.6-5.9
		c2.3-3.5,4.6-7,6.9-10.4c0.7-1.1,1.5-2,2.3-3c0.3-0.4,0.8-0.4,1.3,0.2c-0.4,0.8-0.8,1.6-1.2,2.4c-0.4,0.8-0.8,1.7-1.3,2.5
		c-0.5,0.9-1,1.8-1.5,2.8c-0.4,0.8-1.1,1.4-1.1,2.4c1.5,1.2,3.2,0,4.8,0.4c-1.9,1.5-4.1,1-6.4,1.5c-2.8,4.3-5.8,8.6-7.7,13.4
		c-1.5,3.7-1.2,7.4,0.6,11.1c3.3,0.8,6.5,1.7,9.8,2.5c0.8-1.6,1.6-2.9,2.3-4.3c0.6,0.2,1.2,0.5,1.9,0.1c0.7-0.4,1.4-1.2,2.6-0.6
		c-1.8,1.9-4,3.2-5.6,5.5c2.4,1.5,4.7,3,7.2,4.5c2.4-1.3,4.9-2.5,7.3-3.9c2-1.2,3.8-2.7,5.6-4.1c2.3-1.9,3.8-4.2,4.4-7.3
		c0.9-4.9,2.5-9.6,4.4-14.3c0.8-2,1.6-4.1,2.3-6.2c0.1-0.4,0.1-0.8,0.2-1.5c-3.4,0.9-6.3,2.2-9.3,3.4c-1.8,0.7-3.7,1.4-5.5,2
		c-0.3,0.1-0.8,0.5-1.1-0.3c5.4-3,11.1-5.2,16.7-6.8c6.2-12,8.1-15.2,10.7-17.4c0.1,0.6,0.2,1,0.1,1.3c-0.6,1.4-1.3,2.7-2,4.1
		c-2.9,5.5-5.4,11.3-7.4,17.2c-1.8,5.4-3.8,10.7-6.2,15.9c-0.4,0.8-0.8,1.7-0.8,2.6c-0.1,1.4-0.6,2.4-1.2,3.6
		c-2.1,3.7-4.8,6.8-8.4,9.1c-2.1,1.3-4.2,2.4-6.3,3.6c-0.6,0.3-1.4,0.4-1.5,1.3c0,0.1,0,0.3,0.1,0.3c5,6.2,10,12.4,15,18.7
		c1,1.3,2.2,2.6,2.5,4.1c0.4,2.1,1.7,2.9,3.4,3.4c1.2,0.4,2.4,0.9,3.4,1.3c5.2-2.2,9.3-5.4,12.8-10.3c0,1.1,0.3,1.8,0,2.1
		c-0.7,1.3-1.5,2.6-2.5,3.7c-1.5,1.8-3.4,3.2-5.3,4.4c-0.5,0.3-1.3,0.4-1.3,1.4c1.7,0.4,3.4,0.6,5,1.1c1.5,0.4,2.9,0.6,4.5,0.5
		c3.6-0.1,7.2-0.1,10.8-0.2c0.3,0,0.7-0.1,1.2-0.3c-3.1-4.6-3.7-9.7-4.5-14.9c-0.3-2.3-0.5-4.6-0.8-6.9c-0.8-0.6-1.4-1.2-2.2-1.7
		c-4.6-2.9-7.6-7.1-9.7-11.9c-0.7-1.6-1.4-3.2-2-4.8c-1.4-3.8-2.1-7.8-2-11.9c0.1-3.7,0.5-7.4,1.3-11c1.8-8,4.3-15.6,9.4-22.2
		c-3-2.3-5.9-4.5-8.8-6.8c-1.1-0.9-2.3-1.7-3-2.9c-2.2-3.8-4-7.8-4.1-12.4c0-1.3,0-2.5-0.1-3.8c0-0.3-0.2-0.5-0.4-0.9
		c-0.6,0.5-1,0.8-1.5,1.2l0.1,0.1c0.9-3.2,1.8-6.4,2.6-9.5c0.9,0.2,1.7,0.4,2.4,0.5c1.1-1,2.2-1.9,3.2-2.9c2.8-2.6,4-5.9,4.3-9.5
		c0.1-1.4,0-2.8-1.4-3.6c-0.4-0.4-0.7-1-1.2-1.1c-0.4-0.1-1.1,0.3-1.5,0.6c-0.6,0.5-1,1.2-1.5,1.9c0,0-0.1,0.1-0.1,0.1
		c0-0.1,0-0.2,0.1-0.2c0.6-0.2,1.4-0.3,1.8-0.7c0.8-0.7,1.6-0.6,2.5-0.6c0.2,1.4,0.4,2.8,0.6,4.3c-0.3,0-0.5,0-0.5,0
		c-0.6-0.7-1.1-1.4-1.8-2.2c-0.4,0.4-0.7,0.6-0.9,0.9c0.2,1.2,2.3,1.6,1.3,3.1c-1.2,0.2-1.7-1.3-3-0.9c0.4,1.1,0.7,2.1,1.1,3.1
		c-0.7,0.7-1.3,1.4-1.8,1.9c0.6,1.4-0.1,2-1.1,2.4c-1-1-1.3-2.1-0.4-3.1c1.1-1.1,1.4-2.3,1.1-3.8c-0.1-0.6,0.1-1.3,0.1-1.9
		c-1.6-0.2-3,0.2-4.4,0.8c-0.3,0.1-0.8-0.2-1.3-0.4c1.7-1.2,1.8-1.2,1.9-2.6c0.4-0.4,1.5,0,1.5-1.1c-1.1-0.1-2.3-0.2-3.4-0.4
		c-0.6-0.1-1-0.6-0.3-1.4c2.3,1.1,4.6-0.1,6.9-0.5c-1.3-0.2-2.5-0.2-3.8-0.2c-1.7,0-3.2-0.6-4.5-1.6c-0.3-0.2-0.8-0.5-0.1-1.1
		c2.6,1.5,5.6,1.8,8.6,1.7c1.5,0,3,0,4.4,0.8c0.1,0.1,0.4-0.1,0.8-0.2c-0.2-0.9,0.7-1.8,0.4-2.9c-0.4-0.1-0.7-0.2-1-0.1
		c-2.2,0.1-4.4,0.4-6.6,0.5c-2.6,0-5.1-0.2-7.5-1.1c-0.8-0.3-2-0.5-2-1.8c1.1,0.2,2.3,0.3,3.3,0.7c2.8,1.2,5.6,1.1,8.5,1.1
		c1.3,0,2.5,0,3.8,0.1c1.5,0.1,1.9-0.4,1.7-2.1c0-0.4-0.1-0.8-0.2-1.2c-0.3,0.1-0.6,0.1-0.7,0.2c-3.1,2.2-6.5,2.8-10.2,1.8
		c-0.8-0.2-1.6-0.4-2.4-0.5c-2-0.2-3.8-1-5.3-2.3c-0.1-0.1-0.1-0.4-0.1-0.6c0.6,0,1.1-0.1,1.9-0.1c-1.3-1.3-2.3-2.4-3.4-3.6
		c-0.1-0.1,0.1-0.3,0.1-0.6c0.9,0.4,1.8,0.9,2.7,1.3c0.2-0.5,0.3-0.8,0.5-1.2c0.7,0,1.5,0.2,2.3,0.1c0.8-0.1,1.8,0,2.7-0.8
		c-1.6-1.2-3.9-0.2-5.4-2.1c1.6,0.2,3,0.4,4.3,0.6c1.3,0.1,2.5,0.2,3.8,0.2c1.3,0,2.6,0,3.9,0c-1.1,0.8-2.3,1.1-3.5,1.5
		c-1.1,0.4-2.4,0.4-3.4,1.6c1.7,0.4,3.2,0.2,4.7,0.2c1.3,0,1.4-1.5,2.5-1.6c0.1,0,0.2,0,0.3,0c-0.5,0.7-0.6,1.3,0.2,2.2
		c-3.4,0.6-6.7,1.1-10.1,1.7c2.9,0.9,5.7,1,9.2,1.1c-0.9,0.6-1.2,0.9-1.6,1c-0.9,0.1-1.8,0-2.7-0.1c-1.1-0.1-2.2-0.1-3.3-0.2
		c4.2,2.2,8.2,1.7,12-0.8c1.2-0.8,1.6-1.8,0.9-3.2c-0.8,0.4-1.6,0.8-2.4,1.2c0,0-0.2-0.2-0.2-0.2c0.9-1,1.7-2,2.7-3.2
		c-0.1-0.6-0.2-1.3-0.3-2.2c-1.6,1-3,1.8-4.4,2.6c0.3-0.5,0.6-0.9,0.9-1.4c0.7-0.8,1.5-1.4,2.1-2.3c1.1-1.4,1-2.7-0.3-4.2
		c-0.8,0.5-1.5,1.1-2.3,1.4c-0.8,0.4-1.7,0.6-2.6,0.7c-0.9,0.1-1.8,0-2.8,0.1c-1.2,0.1-2.3,0.3-3.4,0.5c-0.4,0.1-0.9,0.3-1.3,0.4
		c0,0.1,0.1,0.2,0.1,0.3c2,0.1,4.1,0.2,6.8,0.4c-1.1,0.4-1.4,0.7-1.8,0.7c-1.3,0-2.5,0-3.8-0.2c-2.2-0.3-4.3-0.8-6.5-0.2
		c-0.2,0-0.4-0.1-0.8-0.2c0.4-1.2,1.3-1.6,2.3-1.7c3.2-0.3,6.4-1,9.6-0.9c0.9,0,1.8,0,2.7,0c1-0.8,1.9-1.6,2.7-2.4
		c0.2-0.1,0.2-0.4,0.3-0.6c-1.5-2.6-1.7-2.8-4.4-4.7c-0.2,0.3-0.5,0.7-0.7,1.2c-0.5,1.6-1.9,2.2-3.3,2.8c-1.1,0.4-2.2,0.7-3.3,1.2
		c-0.8,0.4-1.6,0.9-2.4,1.3l0.1-0.1c-1.9,0.1-3.6,1.1-5.8,0.4c0.3-0.8-0.1-1.3-0.8-1.8c-0.7-0.4-1.2-1-1.7-1.5
		c1.7,0.7,3.3,1.4,5.1,2.1c1.7-0.5,3.6-1,5.4-1.5c0.7-0.2,1.2-0.6,1.3-1.4c2.8,0,3.1-0.2,5.3-3.4c-1.2,0.5-2.2,0.9-3.1,1.3
		c0,0,0.1,0.1,0.1,0.1c0.6-0.8,1.1-1.6,1.8-2.6c-0.5-0.2-1-0.5-1.4-0.7c-1,0.6-1.9,1.2-2.7,1.8c-0.9,0.6-1.7,1.2-2.6,1.6
		c-0.9,0.4-1.9,0.6-3,1c1.7,0.1,3.3,0.1,4.9,0.2c0.4,0,0.7,0.5,1,0.7c-1.6,0.3-3.2,0.4-4.6,1c-1.5,0.6-2.6,0.4-3.8-0.4
		c-0.4-0.3-0.8-0.5-1.1-0.7c-0.9,0.1-1.7,0.1-2.5,0.2c1.5-1.7,3.8-1.3,5.6-2.5c0.8-0.6,2.2-0.3,3.7-0.5c0.8-1.1,2.6-1.6,3.6-3
		c-1-1.1-2.1-1.3-3.3-0.8c-2.6,1.2-5.5,1.6-8.2,2.7c-2.2,0.9-4.3,2.3-6.9,1.7c-0.5-0.1-1.1,0.3-1.6,0.6c-1,0.5-2,1.2-3,1.7
		c-0.5,0.3-1.1,0.7-1.5,0.6c-1.7-0.5-2.8,0.4-3.9,1.3c-0.7-0.4-1.1-0.6-1.8-1c1-0.8,1.9-1.4,2.8-2.1c1.3-1,2.4-2.2,4-2.7
		c0.3-0.1,0.5-0.7,0.8-1c0.1,0,0.3-0.2,0.1,0.1c-0.7,0.1-1.5,0.2-2.2,0.3c0.8-0.9,1.8-1.6,2.8-2.1c1-0.5,2-0.9,3.4-1.5
		c-4.3-0.4-9.1,1.6-11.6,4.6c-0.1,0.1,0,0.4,0,0.6c0.2,0,0.4,0.1,0.7,0.1c0,0-0.1-0.1-0.1-0.1c0.1,0.3,0.1,0.6,0.2,0.8
		C456.1,17.3,455.8,17.6,455.6,17.8z M489.7,13C489.7,13,489.7,12.9,489.7,13c0.3,0.2,0.6,0.6,1,0.8c1.1,0.6,2.4,1,3.3,1.8
		c1,0.9,1.6,2.2,2.4,3.4c0.3,0.5,0.6,1,0.9,1.5c0.2,0.3,0.6,0.5,1,0.8c0.2-0.5,0.3-0.7,0.3-0.9c-0.4-2.3-0.8-4.5-1.4-6.7
		c-0.4-1.4-1.1-2.8-1.9-4.1c-1.2-1.9-3.1-3-5.2-2.9c-2.1,0-3.7,1.3-5.2,3c1.1,0.8,2-0.5,2.8,0.1c-0.3,0.5-0.7,1.1-1.1,1.8
		C487.7,12,488.7,12.5,489.7,13z M464.6,167.9c1,0.8,2,1.5,3,2.3c3,2.5,6.8,4.3,10.4,4.8c0-0.1,0-0.2-0.1-0.3
		c-5.1-8.4-11.1-16.2-17-24.1c-0.2-0.3-0.5-0.4-0.8-0.7c-4.6-3.5-9.8-5.5-15.5-6.5c-0.4-0.1-0.9-0.1-1.4,0.1
		c-2.9,0.8-5.9,1.3-8.4,3.1c-1.2,0.9-2.5,1.7-3.9,2.1c-1.4,0.5-2.4,1.3-3.2,2.5c-0.8,1.4-1.6,2.8-1.9,4.6c4.2,0.2,8.4,0.4,12.5,0.5
		c0.5,0,0.9-0.2,0.8-0.9c-0.7,0-1.3,0-2,0c-1.9,0-3.7-0.4-5.4-1.1c-1-0.4-1.7-1.2-1.9-2.3c-0.1-0.4,0.2-0.9,0.5-1.2
		c0.3-0.3,0.8-0.4,1.3-0.5c2.1-0.5,4.2-1.2,6-2.5c1.1-0.8,2.5-1.1,3.4-1.5c2.4,1.2,4.5,2.3,6.6,3.2c3,1.3,5.8,2.8,7.7,5.6
		c0.4,0.7,1.2,1.1,1.7,1.7c0.8,0.9,1.6,1.7,2.2,2.7c1.4,2.2,2.7,4.6,4,6.8c-1-0.8-2.1-1.4-3-2.3c-2.2-2.4-4.2-5-6.2-7.5
		c-0.9-1.1-1.5-2.4-2.6-3.2c-1-0.9-2.4-1.3-3.7-1.9c-2.3-1.2-4.7-2.5-7.1-3.8c-0.8,0.5-1.6,1-2.4,1.5c-0.7,0.4-1.4,0.8-2.2,1.1
		c-0.9,0.4-1.8,0.6-2.6,0.9c-0.8,0.3-1.8,0.2-2.5,1.2c2.5,2.1,5.1,2.1,7.8,1.2c0.1,0.1,0.2,0.1,0.3,0.2c1.5,1.6,3.1,3,5.4,1.3
		c0.1-0.1,0.2-0.1,0.3-0.1c1.4,0.1,2.7,0.3,4.1,0.4c0.1,0.7-0.2,1.1-0.7,1c-1.8-0.5-3.5-0.1-5.1,0.4c-2.8,0.9-5.7,0.8-8.6,0.8
		c-2.1,0-4.1-0.1-6.2-0.5c-3.2-0.6-4.9,0.3-6,3.3c-0.6,1.5,0.1,2.8,1.7,3.2c1.8,0.5,3.6,0.6,5.4-0.3c0.4-0.2,0.8-0.2,1.5-0.4
		c-0.3,0.6-0.3,0.9-0.6,1.1c-1.1,0.8-2.3,1.2-3.6,0.5c-1.3-0.7-2.5-0.4-3.6,0.2c-0.5,0.3-1,0.6-1.5,1c-0.2,1-0.4,2-0.5,3
		c-0.1,0.7-0.1,1.4,1,2c1.9-1.3,3.9-0.7,5.9,0.4c0.4,0.2,0.8,0.2,1.5,0.4c-2.7,1.1-5.4-0.6-7.7,1.1c-0.1,0.8-0.3,1.6-0.3,2.4
		c-0.1,1.8,0.9,2.9,2.6,3.1c0.9,0.1,1.9,0,2.8,0.1c1,0.1,2,0.2,2.9,1.5c-2.2-0.3-4.1-1-6.2-0.5c-0.2,0.6-0.6,1.2-0.7,1.9
		c-0.1,0.6,0.1,1.3,0.2,1.9c1.7,0.3,3.1,0.7,4.6,0.8c3,0.3,5.9,1,8.7,2.1c1,0.4,2,0.8,3,0.9c4.1,0.3,8.3,0.9,12.4-0.1
		c1.5-0.4,3-0.5,4.5-0.6c2.4-0.1,4.8-0.2,7,1.4c1,0.7,2.4,0.9,3.6,1.2c0.6,0.2,1.3,0.3,2.2,0.5c-0.6,0.5-1,0.9-1.4,1.2
		c13.2,9,27.1,16.6,41.1,24.1c1.9,1,3.9,1.6,5.9,1.9c3.2,0.5,6.4,0.8,9.4,2.4c0.8,0.4,1.8,0.5,2.7,0c0.6-0.3,1.3-0.5,2-0.7
		c0.3-0.7,0.7-1.4,1.1-2.1c1.9-3.7,3.9-7.4,5.7-11.2c0.7-1.4,1.1-3,1.4-4.6c0.9-4.4,1.6-8.9,2.4-13.3c0.2-1.4,0.3-2.7,0.2-4.1
		c-0.5-5.3-0.8-10.6-1.2-15.9c-0.3-4.4-0.4-8.8-1-13.2c-0.6-5.1-0.6-10.2-0.5-15.3c0-0.6,0-1.3-0.1-2.1c-1,1.2-1.8,2.2-2.6,3.1
		c-0.3,0.4-0.8,0.5-1.2-0.1c0.6-1.1,1.3-2.1,1.8-3.3c0.5-1.2,0.7-2.4,1-3.7c0.1-0.2,0.2-0.5,0.4-0.6c0.7-0.4,0.8-1.1,0.7-1.8
		c-0.3-3.8-0.6-7.6-1.1-11.4c-0.6-4.1-2.7-7.3-6.5-9.3c-3.3-1.7-6.5-3.6-10-4.8c-1.7-0.6-3.4-1.4-5.1-2.2c-3-1.5-5.9-3.2-8.9-4.7
		c-0.6-0.3-1.2-0.5-1.9-0.8c-0.6,1.1-1.2,1.9-1.7,2.9c-3.7,7.9-5.9,16.3-7.1,25c-1,7.4,0.7,14.5,3.3,21.4c1.6,4.4,4.5,7.5,8.4,9.9
		c0.4,0.2,0.8,0.3,1.3,0.5c0.6-5.4,1.2-10.7,1.7-15.9c-1.9-2.4-2.2-3.3-2.4-7.2c1,1.1,1.3,2.3,1.6,3.5c0.4,1.4,0.8,2.6,2,3.2
		c-0.2,4.8-0.5,9.4-0.7,14.1c-0.2,4.7,0.4,9.2,1.2,13.8c0.8,4.5,1.3,9.2,3.1,13.5c2.8,0.2,5.7,0.2,8.2,3.1c-1.2-0.4-1.6-0.5-1.9-0.7
		c-1.2-0.5-2.3-0.8-3.7-0.4c-0.7,0.2-1.6,0.1-2.4,0.1c-3.4,0.1-6.7,0-10.1,0.4c-3.2,0.4-6.2-0.1-9.2-0.9c-5.9-1.7-11.8-3.5-17.5-5.7
		c-2.4-0.9-4.6-2.1-6.9-3.4c-2-1.1-3.8-2.7-5.3-4.4C464.9,169.3,464.4,168.7,464.6,167.9z M465.3,437.8c0.2,0.2,0.5,0.5,0.7,0.7
		c0.4,1.4,0.8,2.8,0.6,4.4c-0.1,1.1,0,2.3,0.2,3.5c1.1,5.6,1.8,11.2,2.3,16.9c0.5,5.4,1.2,10.8,1.8,16.2c0.4,4,0.9,8.1,1.9,12
		c2.1,8.1,4.2,16.1,6.3,24.2c1.4,5.5,2.7,11,1.7,16.8c-0.1,0.4,0,0.9,0.1,1.4c0.4,3.9,0.4,7.9-0.1,11.8c-0.1,0.7,0,1.4,0,2.1
		c1.4,0.6,2.8,1.2,4.1,1.9c0.6,0.3,1.3,0.7,1.6,1.2c1.7,3.1,4.4,5.3,6.9,7.7c1,0.9,2.1,1.8,3.5,1.8c2.1-3.4,2.1-3.7,1.9-7
		c-0.1-1.4-0.1-2.8-0.1-4.2c0-0.3-0.2-0.9,0.8-1c0.2,0.5,0.5,0.9,0.6,1.5c0.3,3,1.5,5.9,0.6,9c-0.8,0.9-1.5,1.8-2.4,2.8
		c0.6,0.3,1,0.6,1.3,0.7c2.7-1.1,3.8-3,3.1-5.7c-0.1-0.6-0.4-1.1-0.5-1.6c-0.2-0.6-0.5-1.3-0.6-1.9c-0.2-1.8-0.4-3.7-0.6-5.5
		c-0.6-4-0.9-8-0.8-12.1c0.3-7.2,0.4-14.4,0.4-21.5c0-3.7,0.2-7.4,0.8-11.1c0.6-3.5,1.2-7.1,1.8-10.6c0.8-5,1.4-10.1,1.7-15.2
		c0.2-3.3-0.1-6.5-1.1-9.6c-2.5-8.4-4.9-16.9-7.5-25.3c-0.9-2.7-1.3-5.4-1.3-8.2c0-4.1,0-8.1,0.2-12.2c0.1-2.7-0.2-5.3-1-7.9
		c-1.5-5.5-3-11-2.7-16.7c0-0.6-0.1-1.2-0.1-1.7c-0.4-8-0.8-16-1.1-23.9c-0.1-3.6,0-7.2-0.2-10.8c-0.3-6.6-0.8-13.2-1.3-19.8
		c-0.3-4.3-0.9-8.5-1.3-12.8c-0.1-1-0.3-1.8-1.2-2.3c-0.4-0.2-0.5-0.8,0.2-1.2c0.4,0.1,1,0.2,1.5,0.4c1.8,0.8,3.6,0.6,5.3-0.3
		c1.9-1,3.6-2.1,5-3.7c0.9-1,1.8-2.1,2.7-3.2c0.3-0.4,0.9-0.8,0.5-1.4c-2-0.3-4-0.3-5.8-1c-2-0.7-4-1-6-1.7c-2-0.7-3.9-1.5-5.5-2.9
		c-0.3-0.2-0.9-0.5-0.3-1.1c0.6,0.3,1.2,0.6,1.8,0.9c7.5,4,15.1,4.1,22.7,0.8c3.8-1.6,7.1-3.9,10-6.8c1.4-1.4,2.8-2.8,4.1-4.3
		c5.1-6.1,9.3-12.7,11.8-20.3c1.3-4,2-8.2,1.4-12.3c-1.3-9.2-5.4-17.1-11.8-23.9c-1.4-1.5-2.9-2.9-4-4.8c-0.3-0.6-1.3-0.9-1.9-1.2
		c-0.1-0.1-0.4,0.1-0.8,0.3c0,0.9,0,1.8,0,3.2c-0.8-1.1-1.2-1.7-1.9-2.6c0,1.2,0,2,0,2.8c0.1,2.9,0.3,5.8,0.3,8.7
		c0.2,8.7-1.8,17-5.6,24.9c-2.1,4.5-4.8,8.7-7.5,12.9c-0.6,1-1.2,1.9-1.6,3.1c-1.2,3.6-3.8,6-7.1,7.7c-0.6,0.3-1.3,0.5-1.9,0.8
		c-2.4,1.4-5,1.6-7.7,1c-5.5-1.2-10.4-3.9-14.9-7.1c-1.2-0.9-2.4-1.9-3.3-3.1c-1.8-2.4-3.5-4.9-5.1-7.4c-0.9-1.4-1.5-2.9-2.1-4.4
		c-0.8-2.3-1.5-4.6-2.2-6.9c-0.3-0.9-0.6-1.7-0.9-2.5c-0.3,0.1-0.4,0.1-0.5,0.1c-0.1,0-0.2,0.1-0.3,0.2c-3.2,2.5-6.4,5-9.6,7.5
		c-0.5,0.4-1.1,0.8-1.7,1.2c-0.1,0.1-0.2,0.1-0.3,0.1c-0.1,0-0.1-0.1-0.3-0.3c3.6-4.1,8.5-6.7,12.2-10.5c-0.3-3.9-2-10.8-3.2-12.9
		c-3.2,1-6.2,2.2-8.9,3.5c-2.4,4.2-3.9,8.3-5.2,12.5c-0.2,0.8-0.6,1.5-1,2.2c-0.5,0.9-0.7,1.9-0.7,3c0.2,3.6,0.3,7.2,0.5,10.8
		c0.4,6.2,1,12.5,0.4,18.7c-0.2,2.2-0.2,4.4-0.3,6.6c0,0.5,0.2,1.1,0.3,1.6c10.3-0.9,16-0.1,24.3,1.5c9.6,1.9,18.7,5.1,23.1,8.3
		c-1.3,0.3-2.4-0.4-3.4-0.8c-4-1.5-8.1-2.8-12.3-3.8c-3.1-0.7-6.1-1.3-9.2-2c-6.7-1.5-13.5-2-20.4-1.7c-0.8,0-1.5,0.2-2.4,0.4
		c0,1.2,0,2.2,0,3.2c0.3,5.9,0.5,11.8,0.8,17.7c0.2,5.7,0.5,11.3,0.7,17c0.2,5.9,0.6,11.8,1.4,17.7c0.5,3.6,1.2,7.1,2.4,10.5
		c2.3,6.6,4.9,13,8.3,19.1c2.8,5.1,5.2,10.4,7.4,15.7c0.5,1.2,0.7,2.4,0.7,3.7c0.1,4,0.2,8.1,2,11.9
		C462.3,433.8,463.3,436.1,465.3,437.8z M488.8,298.8c1.3-0.6,2.3-1.1,3.4-1.6c3.1-1.3,5.5-3.4,7.2-6.3c1.3-2.2,2.6-4.4,3.8-6.6
		c3.9-7.4,7.3-15,9-23.3c1.7-8,1.9-16.1,2-24.2c0-1.5-0.4-3-1.1-4.3c-2.9-5.3-5.8-10.6-8.6-15.9c-1.1-2-2.6-3.4-4.6-4.5
		c-11.1-5.8-21.9-12-32-19.5c-1.1-0.8-2.3-1.5-3.6-2.3c-0.1,0.6-0.3,0.9-0.2,1.2c1.3,5,0.4,9.9-1.2,14.7c-1.6,5.1-3.3,10.1-4,15.5
		c-0.1,0.9-0.5,1.8-0.9,2.6c-1.9,3.9-3.8,7.7-5.6,11.6c-0.3,0.6-0.4,1.3-0.4,2c0.1,4.2,0.5,8.3,1.8,12.3c2.3,7,4.2,14.2,6.1,21.4
		c1.4,5.6,3.7,10.9,6.7,16c1.3,2.2,2.9,3.9,5.1,5.1c4.3,2.5,9,4.3,13.8,5.6C486.6,298.4,487.8,298.6,488.8,298.8z M427.8,291.7
		c2.7-9,6.1-17.6,9.7-26.1c2-4.6,4-9.1,5.6-13.8c0.9-2.4,2.2-4.6,2.2-7.2c0-0.4,0.3-0.9,0.5-1.3c1.1-2.1,2.1-4.1,3.2-6.2
		c2.5-4.5,5.1-8.8,6.6-13.7c1.5-4.9,3-9.7,4.4-14.6c1.8-5.9,2.1-12.1,2.1-18.2c0-0.4-0.1-0.9-0.2-1.4c-3.4-1.5-6.7-1.3-10.3-0.6
		c-0.1,1.1-0.1,2.2-0.2,3.2c-0.3,2.1-0.6,4.1-0.9,6.2c-0.1,0.4-0.2,1-1,1c0.3-2.6,0.6-5.1,0.8-7.6c0.1-0.7,0.2-1.4-0.5-2
		c-2.2-0.1-4.6-0.2-7.1-0.3c0.7,0.9,1.2,1.7,1.8,2.5c-0.4,0.9-0.8,1.6-1.2,2.4c0.7,0.5,1.3,1,1.9,1.4c-0.3,1-0.5,1.7-0.8,2.5
		c-0.4,1.1-1.1,1.7-2.3,1.7c-1.2,0-2.3,0-3.5,0c-0.1,0-0.3,0.2-0.4,0.3c0.5,0.7,0.9,1.3,1.4,2c-0.3,0.5-0.5,1-0.8,1.2
		c-2.4,1.7-5,2.8-7.9,3.5c-0.2,1-0.3,1.8-0.5,2.9c-1.4,0.9-2.9,1.8-4.3,2.7c-1.5,0.9-3.1,1.5-4.5,2.8c0.1,4.4,0.2,8.8,0.4,13.2
		c0.5,10.3-0.9,20.3-3.1,30.3c-1.3,5.7-3.4,11.1-5.5,16.4c-0.3,0.8-0.6,1.7-1,2.7c1.7,0.2,3.2,0.6,4.1,2c1.3,2,2.6,4.1,3.8,6.2
		c0.8,1.4,0.7,2.8,0.1,4.3c-1,2.5-1.6,5.1-1.2,7.7c0.7,0.8,1.3,1.5,2,2.2c0.5,0.5,1.1,0.9,1.7,1.2c1.5,0.7,2.1,0.5,3.3-1.2
		c-0.8-1.4-0.6-2.9-0.4-4.4c0.4-2.9,0.5-5.9,2.1-8.5C427.8,288.5,427.8,290.1,427.8,291.7z M517.3,219.5c-4-1.6-9-3-11-3.1
		c4.3,6.2,8,12.6,10.4,19.5c0.9,0.2,1.6,0.4,2.2,0.6c0.6,0.2,1.1,0.8,2,0.3C519.2,231.2,518.2,225.4,517.3,219.5z M450.5,240.5
		c-0.4,0.6-0.7,1-0.9,1.4c-1.7,3.9-3.3,7.9-4.9,11.8c-0.1,0.4-0.1,0.8-0.1,1.5c2.7-1,5.2-1.7,7.6-2.9
		C451.7,248.3,451.1,244.6,450.5,240.5z M418.2,182.6c0.9-0.1,1.6-0.1,2.3-0.2c0.6-0.9,1-1.7,1.5-2.5c-0.6-2-1.8-3.3-3.4-4.2
		c-1.7,0.6-2.2,2-2.9,3.4C416.6,180.3,417.4,181.4,418.2,182.6z M466.7,13.5c1.5-0.6,3-1.2,4.5-1.7c0.4-0.2,1.1-0.5,1.3-0.3
		c1.4,1.1,3.2-0.1,4.6,0.8c1,0.6,2,0.2,3-0.1c0.6-0.1,1.3-0.3,1.3-1.2C477.2,9.2,470.6,10.2,466.7,13.5z M487.7,6.1
		c-3.5-0.9-4.1-0.6-5.8,3c0.5,0,1,0.2,1.2,0.1C484.6,8.2,486,7.2,487.7,6.1z M421.8,200.2c3.4,1.6,6.3,1.5,9.7,0
		C428.1,199.3,425.2,199.7,421.8,200.2z M502.9,93.4c-0.1-1.5-0.2-2.2-0.3-3.4c-0.8,0.8-1.3,1.3-1.9,1.9
		C501.4,92.3,501.8,92.6,502.9,93.4z M491.9,63.8c1.1-1.3,1.1-1.3,0.8-2.4C492.3,62.1,491.3,62.7,491.9,63.8z M480.2,8.9
		c0.3-0.3,0.6-0.6,0.8-0.9c0,0-0.2-0.3-0.3-0.4c-0.3,0.2-0.7,0.5-1,0.7C479.9,8.4,480,8.6,480.2,8.9z M483.7,32.3
		c-0.3-0.2-0.5-0.4-0.8-0.5c-0.4-0.1-0.9,0-1.4,0C482.1,32.7,482.7,33,483.7,32.3z M490.3,72.7c-0.2-0.1-0.3-0.1-0.5-0.2
		c-0.2,0.5-0.4,1-0.5,1.6c0,0.1,0.1,0.2,0.2,0.3c0.1,0,0.3,0,0.3-0.1C489.9,73.7,490.1,73.2,490.3,72.7z M489.2,67.2
		c0,0,0.1,0,0.1,0c0-0.3,0.1-0.6,0.1-0.8c-0.1,0-0.1,0-0.2,0C489.3,66.6,489.2,66.9,489.2,67.2z M392.1,288.1
		c0.2,0.1,0.3,0.3,0.5,0.4c0,0,0.1-0.1,0.2-0.2c-0.2-0.1-0.4-0.2-0.6-0.4C392.1,288,392.1,288,392.1,288.1z M472.2,14.7
		c0.1,0,0.2,0.1,0.2,0.1c0,0,0.1-0.1,0.1-0.1c-0.1,0-0.2,0-0.2,0C472.2,14.6,472.2,14.6,472.2,14.7z M474.6,14
		c-0.1-0.1-0.1-0.1-0.2-0.2c-0.1,0-0.2,0-0.3,0c0.1,0.1,0.1,0.2,0.2,0.2C474.4,14.1,474.5,14,474.6,14z"/>
	<path d="M524.4,250.8c0.3,1.3,0.6,2.7,1,4c1.1,3.8,1.9,7.6,1.9,11.6c0,1.5-0.1,3-0.4,4.5c-0.7-1.4-0.9-3-1.1-4.5
		c-0.6-6.6-2.2-13-4.1-19.3c-0.7-2.3-1.8-4.5-2.7-6.8c0.5-0.4,0.7,0.3,0.9,0.5c1.8,2.7,3.5,5.5,5.2,8.2c0.7,1.1,1.3,2.1,2,3.2
		l-0.1-0.1c0.2,1.1,0.4,2.1,0.6,3.2c-0.1,0-0.2,0.1-0.3,0.1c-0.6-1.2-1.2-2.4-1.9-3.5C525.2,251.4,525.1,250.7,524.4,250.8
		c-0.1-0.2-0.1-0.5-0.1-0.2C524.2,250.3,524.3,250.6,524.4,250.8z"/>
	<path d="M472,421c-5.2,0.5-10.3-3.5-12.6-9.4c0.4,0.1,0.8,0.1,0.9,0.2c0.5,0.6,1,1.3,1.5,1.9c2.2,2.7,4.8,5,8.1,6.2
		C470.6,420.2,471.3,420.7,472,421z"/>
	<path d="M527.2,252.2c0-0.3,0.1-0.7,0.1-1c1.4,0.8,1.4,0.8,1.9,1.6c2.7,4.6,4.6,9.5,4.9,14.9c-0.2-0.6-0.5-1.1-0.7-1.7
		c-1.1-4-2.4-7.9-4.4-11.6c-0.5-0.9-0.7-2-1.9-2.3L527.2,252.2z"/>
	<path d="M446.7,310.4c0.9-1.1,2.1-1.2,3.2-1.5c3.5-0.7,7-1.7,11.3-1.9c-2.7,1.7-5,1.8-7.3,2.3C451.6,309.9,449.3,310.7,446.7,310.4
		z"/>
	<path d="M486.7,487.8c-2.7-3.5-3.7-9.1-2.8-14.1c0.9,1.6,0.4,3.1,0.6,4.6c0.3,1.6,0.5,3.2,0.9,4.8
		C485.7,484.5,486.3,485.8,486.7,487.8z"/>
	<path d="M483.2,319.9c-0.3,0.1-0.5,0.2-0.5,0.2c-0.4-0.2-0.8-0.4-1.1-0.7c-2.4-2.7-4.7-5.3-7.4-8.3
		C476.6,312.1,476.6,312.1,483.2,319.9z"/>
	<path d="M476.5,464.8c-0.6-0.6-1-0.8-0.9-0.9c0.2-1.2,0.4-2.5,0.7-3.7c0.2-1,0.4-2,1.6-2.8C477.9,460.1,477,462.2,476.5,464.8z"/>
	<path d="M455.6,339.7c-0.4-0.4-0.9-0.7-1.2-1.2c-1.2-2.1-1.6-4.4-2-7.2C453.5,332.7,455.1,337.3,455.6,339.7L455.6,339.7z"/>
	<path d="M466,438.6c-0.2-0.2-0.5-0.5-0.7-0.7c0.2-0.2,0.5-0.4,0.9-0.8c1.3,0.9,2.6,1.9,3.9,3.2C468.2,440.4,467.4,438.9,466,438.6z
		"/>
	<path d="M441.7,307.1c1-1.8,1.7-2.2,4.2-2.8l-0.1-0.1C444.8,305.7,443.3,306.5,441.7,307.1C441.6,307.1,441.7,307.1,441.7,307.1z"
		/>
	<path d="M463.3,301.2c-1.5-1-1.5-1-2-2.4c0.1-0.1,0.2-0.2,0.2-0.2C462.4,299.1,463,299.7,463.3,301.2z"/>
	<path d="M442.4,284.9c-0.4,1.4-1.5,2.2-2.3,3.2c-0.7-0.3-0.5-0.7-0.2-1.1c0.7-0.9,1.1-2,2.4-2.3L442.4,284.9z"/>
	<path d="M475.8,302.7c-0.3,0.2-0.6,0.5-0.8,0.5c-0.2,0-0.5-0.4-0.5-0.6c0-0.1,0.4-0.5,0.6-0.5C475.2,302.1,475.4,302.4,475.8,302.7
		z"/>
	<path d="M497.1,537.7c0.9,0.4,0.8,1.1,0.5,1.9C497.2,539,496.6,538.5,497.1,537.7z"/>
	<path d="M459.5,343.7c0.1,0.3,0.3,0.6,0.4,0.9c0,0.1-0.2,0.3-0.3,0.5c0,0-0.3,0-0.3-0.1c-0.1-0.4-0.2-0.8-0.3-1.2
		C459.2,343.7,459.3,343.7,459.5,343.7z"/>
	<path d="M466.8,354.4c0.2-0.3,0.3-0.4,0.4-0.6c0.3,0.2,0.6,0.5,0.9,0.7c-0.2,0.1-0.5,0.4-0.7,0.4
		C467.2,354.9,467,354.6,466.8,354.4z"/>
	<path d="M487.9,495.3c0.7,0.6,0.7,0.6,0.7,1.4C487.8,496.1,487.8,496.1,487.9,495.3z"/>
	<path d="M475.9,423c-0.7,0.4-1.1,0-1.4-0.6c0-0.1,0.2-0.4,0.3-0.4C475.4,422,475.9,422.3,475.9,423z"/>
	<path d="M480.4,452.9c-0.1,0.3-0.1,0.6-0.2,0.9c-0.1,0.2-0.3,0.2-0.5,0.3c0-0.2-0.2-0.4-0.1-0.6c0.1-0.3,0.4-0.5,0.6-0.8
		C480.2,452.8,480.3,452.9,480.4,452.9z"/>
	<path d="M497.2,533.8c-0.1,0-0.2,0.1-0.2,0.1c-0.1-0.2-0.1-0.4-0.2-0.6c0.1,0,0.3-0.1,0.4-0.1C497.2,533.4,497.2,533.6,497.2,533.8
		z"/>
	<path d="M482.4,448.4c0.1,0.6,0.2,0.8,0.2,1c0,0.2-0.2,0.3-0.3,0.5c-0.1-0.2-0.2-0.4-0.2-0.6C482,449.1,482.2,448.9,482.4,448.4z"
		/>
	<path d="M469.4,431.3c-0.2,0-0.4,0.2-0.6,0.1c-0.2-0.1-0.2-0.3-0.4-0.5c0.2,0,0.4-0.2,0.6-0.1C469.2,430.9,469.2,431.1,469.4,431.3
		z"/>
	<path d="M479.1,424.1c-0.1,0.2-0.3,0.3-0.4,0.5c-0.2-0.2-0.5-0.4-0.7-0.6c0,0,0.2-0.3,0.3-0.4C478.6,423.7,478.8,423.9,479.1,424.1
		z"/>
	<path d="M468.2,305.5c-0.6,0.1-1,0-1.3-1C467.5,305.1,467.8,305.3,468.2,305.5C468.1,305.6,468.2,305.5,468.2,305.5z"/>
	<path d="M463.3,349.6c0.2,0.1,0.4,0.1,0.5,0.3c0,0.2-0.1,0.4-0.2,0.6c-0.2-0.1-0.4-0.2-0.5-0.3C463.1,350,463.2,349.8,463.3,349.6z
		"/>
	<path d="M447.2,303.6c-0.2,0.7-0.7,0.8-1.4,0.7l0.1,0.1C446,303.5,446.7,303.6,447.2,303.6L447.2,303.6z"/>
	<path d="M447.2,303.6c0.2-0.7,0.8-0.7,1.4-0.7l-0.1-0.1C448.4,303.7,447.7,303.5,447.2,303.6L447.2,303.6z"/>
	<path d="M448.6,302.9c0.4-0.2,0.9-0.5,1.3-0.7l-0.1-0.1C449.7,302.9,449.1,302.8,448.6,302.9L448.6,302.9z"/>
	<path d="M449.9,302.2c0.2-0.1,0.3-0.2,0.5-0.3c0.1,0,0.2,0,0.3-0.1c-0.1,0.1-0.2,0.2-0.3,0.3C450.3,302.1,450.1,302.1,449.9,302.2
		L449.9,302.2z"/>
	<path d="M453.4,300.8c-0.2,0.2-0.4,0.3-0.3,0.2C452.9,301,453.2,300.9,453.4,300.8L453.4,300.8z"/>
	<path d="M453.4,300.8c0.2-0.1,0.5-0.2,0.4-0.2C453.9,300.6,453.6,300.7,453.4,300.8L453.4,300.8z"/>
	<path d="M479.4,306.2c-0.2-0.1-0.3-0.2-0.5-0.2c0.1-0.1,0.2-0.2,0.2-0.2c0.2,0,0.3,0.1,0.5,0.2C479.6,306,479.5,306.1,479.4,306.2z
		"/>
	<polygon points="472.3,441 472.1,440.9 472.4,440.9 	"/>
	<path d="M476.2,441.6c0,0.1,0,0.2,0,0.2c-0.2,0-0.4,0-0.6,0.1c0-0.1,0-0.3,0-0.4C475.8,441.5,476,441.5,476.2,441.6z"/>
	<path d="M486.6,489.6c0.1,0.2,0.2,0.4,0.2,0.6c0,0.1-0.1,0.1-0.2,0.2c-0.1-0.2-0.1-0.4-0.2-0.6
		C486.3,489.8,486.5,489.7,486.6,489.6z"/>
	<path d="M491.3,502.1c0,0.1-0.1,0.2-0.1,0.2c-0.1-0.1-0.1-0.2-0.2-0.3C491.1,502.1,491.2,502.1,491.3,502.1z"/>
	<path d="M498.8,543.4c-0.2-0.2-0.4-0.4-0.6-0.6c0,0,0.1-0.2,0.1-0.3c0.1,0.1,0.3,0.2,0.3,0.3C498.7,543.1,498.7,543.3,498.8,543.4
		L498.8,543.4z"/>
	<path d="M498.7,543.5c0.1,0.2,0.3,0.3,0.4,0.5c0,0.1,0,0.2,0,0.3c-0.1-0.1-0.3-0.1-0.3-0.2C498.7,543.8,498.8,543.6,498.7,543.5
		C498.8,543.4,498.7,543.5,498.7,543.5z"/>
	<path d="M455.5,339.8c0.1,0,0.2,0,0.3,0.1C455.7,339.8,455.6,339.8,455.5,339.8L455.5,339.8z"/>
	<path d="M443.8,283.5c0.1-0.1,0.2-0.2,0.3-0.3c0,0.1,0,0.1-0.1,0.2C443.9,283.4,443.8,283.4,443.8,283.5L443.8,283.5z"/>
	<path d="M443.1,284.2c0-0.5,0.3-0.7,0.7-0.7l-0.1-0.1C443.8,283.9,443.6,284.1,443.1,284.2L443.1,284.2z"/>
	<path d="M443,284.1c0.1,0.5-0.1,0.7-0.6,0.8l-0.1-0.1C442.3,284.3,442.6,284.1,443,284.1L443,284.1z"/>
	<path d="M468.1,305.6c0.1,0.1,0.1,0.2,0.2,0.4c0-0.1-0.1-0.1-0.1-0.2C468.2,305.7,468.2,305.6,468.1,305.6L468.1,305.6z"/>
	<path d="M441.1,307.9c-0.2-0.6,0.1-0.8,0.6-0.8c0,0-0.1-0.1-0.1-0.1C441.4,307.3,441.2,307.5,441.1,307.9L441.1,307.9z"/>
	<polygon points="441,307.8 440.9,307.9 441.1,307.9 	"/>
	<path d="M460.4,42.7c0,0.3,0,0.7,0,1.2c1.1-0.1,2.3-0.2,3.4-0.1c1.2,0.1,2.4,0.3,3.6,0.4l-0.1-0.1c0.5,0.3,1,0.5,1.5,0.8
		c0,0-0.1-0.1-0.1-0.1c-0.1,0.3-0.1,0.6-0.2,1c-0.8-0.2-1.5-0.4-2.3-0.6c-1.2,3.8-2,4-5.6,2c0.1-0.4,0.2-0.9,0.3-1.3
		c-1-0.9-1.1,1-2.1,0.4c0.1-0.6,0.2-1.2,0.3-1.9c0.1-0.6,0.1-1.1,0.2-1.7C459.8,42.9,460.1,42.9,460.4,42.7
		C460.4,42.8,460.4,42.7,460.4,42.7z"/>
	<path d="M446.7,69.4c0.1-0.3,0.2-0.5,0.2-0.5c1.9-1.1,6.1-2.1,7.9-1.5c2.1,0.7,4.1,0.7,6.1,0.2c0.4-0.1,0.9,0.1,1.2,0.2
		c0.3,0.7,0,1.1-0.4,1.2c-1.8,0.5-3.5,0.8-5.4,0.6c-2.7-0.3-5.5-0.7-8.2,0.3c-0.3,0.1-0.6-0.1-1-0.1
		C446.9,69.7,446.9,69.6,446.7,69.4z"/>
	<path d="M450.9,61.5c-1.4-0.1-2.2-0.2-3.1-0.3c-0.4-1.2-0.8-2.3-1.2-3.3c1.6-4.4,3.8-8.4,4.8-13.1c-0.5-1.1-1.1-2.4-1.6-3.6
		c0.4-0.6,0.8-0.4,1.1,0c1.2,1.5,1.5,3.2,1.1,5.2c-0.6,2.7-1.5,5.3-2.8,7.8c-0.6,1.2-1.2,2.5-1.9,3.8
		C448.3,59.2,449.4,60.1,450.9,61.5z"/>
	<path d="M471.7,39.9c-0.7,0.3-1.3,0.1-1.9-0.4c-2.3-1.7-4.9-1.7-7.5-1c-1.9,0.5-3.8,1-5.7,1.5c-0.5,0.1-1-0.1-2-0.2
		c0.6-0.6,0.9-1,1.3-1.1c2.3-0.7,4.6-1.4,7-1.9c2.1-0.4,4.2,0,6.1,0.7C470.1,37.9,470.9,38.9,471.7,39.9L471.7,39.9z"/>
	<path d="M457.3,73.1c-3,2.1-5.9,1.7-9.1,0.1c0.4-0.3,0.6-0.6,0.8-0.6c2.6-0.1,5.3-0.1,7.9-0.1C456.9,72.5,457,72.7,457.3,73.1z"/>
	<path d="M475.7,80.4c-2.6,2.2-5.8,3-9.1,3.7c-0.4,0.1-0.8-0.1-1.3-0.1c0.3-0.4,0.4-0.6,0.6-0.7C469.3,82.6,472.3,80.7,475.7,80.4
		L475.7,80.4z"/>
	<path d="M451.2,60.3c2-1.5,3.3-0.1,4.9,0.3c0.3-0.2,0.6-0.5,1-0.7c0.2-0.1,0.4-0.1,0.6-0.1c0,0.2,0.2,0.5,0.1,0.6
		c-0.5,0.4-1,1.1-1.6,1.1C454.6,61.7,453,61.6,451.2,60.3z"/>
	<path d="M471.5,108.1c-0.6,3.5-1.5,5.6-3.2,6.8c-0.1-0.3-0.3-0.7-0.2-1C468.9,111.9,469.7,109.7,471.5,108.1L471.5,108.1z"/>
	<path d="M481.2,22.7c2.1-0.4,4.3-0.8,6.4-1.1c0.9-0.2,1.8-0.2,2.7-0.4c0,0-0.1-0.1-0.1-0.1c-0.2,0.2-0.4,0.6-0.7,0.7
		c-2,0.5-4,1-6.1,1.4C482.7,23.4,481.9,23.3,481.2,22.7L481.2,22.7z"/>
	<path d="M467.4,44.2c-0.5-1.2-2-0.9-2.9-1.9c1.9-0.3,3.3,0.6,4.9,1.5c-0.2,0.4-0.4,0.7-0.6,1l0.1,0.1c-0.3-0.7-0.9-0.7-1.5-0.8
		L467.4,44.2z"/>
	<path d="M456.2,16.4c0.6-0.8,1.4-1.4,2.4-1.5c0.4,0.5,0.2,0.9-0.2,1.2C457.7,16.5,457,16.5,456.2,16.4L456.2,16.4z"/>
	<path d="M467.1,118.1c0.7,2.1,0.6,2.1-0.7,3.8C465.9,120.7,466.7,119.8,467.1,118.1z"/>
	<path d="M502.7,162.5c0.9,1.4,0.5,2.2,0,3c-0.2,0-0.4,0-0.4,0C501.9,164.7,502.2,163.9,502.7,162.5z"/>
	<path d="M452.8,19.1c0,0.5-0.1,0.9-0.1,1.4c-0.4,0.1-0.7,0.2-1.1,0.2C451.5,19.7,452,19.3,452.8,19.1z"/>
	<path d="M452.5,64.2c-0.1,0.2-0.1,0.4-0.3,0.5c-0.1,0.1-0.3-0.1-0.5-0.2c0.1-0.2,0.1-0.4,0.3-0.5C452.1,64,452.4,64.1,452.5,64.2z"
		/>
	<path d="M445.3,43.6c0.4-0.7,1.1-0.6,2.4-0.5C446.4,43.3,445.8,43.4,445.3,43.6L445.3,43.6z"/>
	<path d="M460.4,42.8c0.4-0.7,1-0.6,1.6-0.1C461.5,42.7,460.9,42.7,460.4,42.8L460.4,42.8z"/>
	<path d="M479.8,96.5c-0.1,0-0.1,0-0.2,0c0.1-0.2,0.1-0.3,0.2-0.5c0,0,0.2,0,0.2,0.1C480,96.2,479.9,96.4,479.8,96.5z"/>
	<path d="M474.3,104c0,0.3,0,0.7-0.1,1c0,0.2-0.3,0.2-0.5,0.3c-0.1-0.3-0.2-0.6-0.1-0.8C473.7,104.3,474.1,104.2,474.3,104
		L474.3,104z"/>
	<path d="M477.1,99.8c-0.1,0.4-0.2,0.8-0.3,1.2c0,0.1-0.3,0.1-0.3,0.1c-0.1-0.1-0.3-0.4-0.2-0.5C476.4,100.1,476.6,99.7,477.1,99.8
		L477.1,99.8z"/>
	<path d="M460.5,113.8c0-0.5,0.1-0.9,0.2-1.8C461.1,113,461,113.4,460.5,113.8L460.5,113.8z"/>
	<path d="M460.4,113.7c0,0.2,0,0.4,0,0.6c0,0.1-0.1,0.2-0.2,0.3c-0.1-0.2-0.3-0.4-0.2-0.5C460.1,113.9,460.3,113.9,460.4,113.7
		L460.4,113.7z"/>
	<path d="M443.8,44.2c0.5-0.2,1-0.4,1.5-0.5c0,0-0.1-0.1-0.1-0.1C444.8,44,444.3,44.3,443.8,44.2C443.7,44.1,443.8,44.2,443.8,44.2z
		"/>
	<polygon points="475,16.7 475.2,16.7 475,16.8 	"/>
	<path d="M454.1,20.6c0.3-0.5,0.5-1,0.8-1.5C454.9,19.7,454.9,20.3,454.1,20.6z"/>
	<path d="M452.9,20.6c0.5,0,0.9-0.1,1.4-0.1C453.8,21.3,453.4,21.1,452.9,20.6z"/>
	<path d="M490.3,21.3c0.2-0.1,0.4-0.3,0.2-0.1C490.8,21.1,490.5,21.1,490.3,21.3C490.3,21.2,490.3,21.3,490.3,21.3z"/>
	<polygon points="479.2,76.8 479.3,76.7 479.1,76.7 	"/>
	<path d="M477.2,99.9c0.1-0.1,0.2-0.2,0.3-0.3c0,0.1,0,0.2,0,0.2C477.3,99.8,477.2,99.8,477.2,99.9L477.2,99.9z"/>
	<path d="M479.1,76.7c-0.2,0.2-0.5,0.5-0.7,0.7c0,0,0.1,0.1,0.1,0.1C478.8,77.3,479,77.1,479.1,76.7
		C479.2,76.8,479.1,76.7,479.1,76.7z"/>
	<path d="M477.8,78.3c0.2-0.2,0.5-0.5,0.7-0.7l-0.1-0.1C478.5,78,478.3,78.3,477.8,78.3C477.8,78.2,477.8,78.3,477.8,78.3z"/>
	<path d="M477.2,79c0-0.5,0.2-0.7,0.7-0.7l-0.1-0.1C477.9,78.8,477.6,79,477.2,79C477.1,78.9,477.2,79,477.2,79z"/>
	<path d="M474.4,104c0-0.1,0.1-0.2,0.1-0.3C474.4,103.8,474.4,103.9,474.4,104C474.3,104,474.4,104,474.4,104z"/>
	<path d="M476.5,79.7c0-0.5,0.2-0.7,0.7-0.7c0,0-0.1-0.1-0.1-0.1C477.1,79.4,476.9,79.7,476.5,79.7L476.5,79.7z"/>
	<path d="M456.2,17.8c0-0.3,0-0.6,0-0.8C456.9,17.3,456.7,17.6,456.2,17.8z"/>
	<path d="M475.8,80.5c0.2-0.3,0.5-0.5,0.7-0.8c0,0-0.1-0.1-0.1-0.1C476.2,79.9,475.9,80.1,475.8,80.5
		C475.7,80.4,475.8,80.5,475.8,80.5z"/>
	<path d="M471.5,108.2C471.9,107.8,471.4,108.2,471.5,108.2L471.5,108.2z"/>
	<path d="M454.8,19.2c0.3-0.3,0.5-0.5,0.8-0.8C455.4,18.7,455.1,18.9,454.8,19.2z"/>
	<path d="M473,19.1c0,0.3,0,0.6,0,0.8C472.6,19.6,472.3,19.4,473,19.1z"/>
	<path d="M471.6,40C471.9,40.2,471.5,39.8,471.6,40L471.6,40z"/>
	<path d="M455.5,17.7c0.3,0,0.5,0,0.8,0c-0.3,0.3-0.5,0.5-0.8,0.8C455.5,18.3,455.5,18,455.5,17.7z"/>
	<path d="M443.7,44.1c-0.2,0.3-0.5,0.5-0.7,0.8c0,0,0.1,0.1,0.1,0.1C443.3,44.7,443.5,44.4,443.7,44.1
		C443.8,44.2,443.7,44.1,443.7,44.1z"/>
	<polygon points="484.7,70.5 484.7,70.7 484.8,70.6 	"/>
	<path d="M530,198.8c-2.2,1.9-4.2,2.3-6.6,1.5C524.9,199.2,527.9,198.5,530,198.8z"/>
	<path d="M505.7,107.5c1.3-1.7,3.2-2,5.1-2.6c0.2-0.1,0.5,0.2,0.9,0.4C508.8,106.9,507.7,107.3,505.7,107.5L505.7,107.5z"/>
	<path d="M434.9,164.9c0.1-0.1,0.2-0.2,0.3-0.2c1.3,0.4,2.6,0.9,4.1,1.4C436.6,166.7,436.3,166.6,434.9,164.9z"/>
	<path d="M528.5,188.7c-0.4,0.2-0.7,0.4-0.9,0.3c-0.2-0.1-0.3-0.4-0.5-0.7c0.2-0.1,0.4-0.3,0.5-0.3
		C527.9,188.2,528.1,188.4,528.5,188.7z"/>
	<path d="M477.9,194.4c0.4,0.2,0.8,0.3,1.1,0.6c0.1,0.1,0.1,0.3,0.2,0.5C478.5,195.3,478,195.1,477.9,194.4
		C478,194.3,477.9,194.4,477.9,194.4z"/>
	<path d="M529.9,146.3c-0.2,0.2-0.4,0.4-0.7,0.6c-0.1,0-0.3-0.2-0.4-0.3c0.2-0.2,0.4-0.4,0.6-0.6
		C529.5,145.8,529.7,146.1,529.9,146.3z"/>
	<path d="M437.2,173.1c-0.2,0.2-0.4,0.5-0.5,0.4c-0.3-0.1-0.5-0.2-0.8-0.3c0.1-0.1,0.2-0.2,0.3-0.2C436.4,173,436.7,173,437.2,173.1
		z"/>
	<path d="M441.8,167.1c-0.2-0.1-0.4-0.2-0.6-0.2c0.1-0.1,0.2-0.2,0.3-0.2c0.2,0,0.4,0.2,0.6,0.2C442,167,441.9,167.1,441.8,167.1z"
		/>
	<polygon points="444.4,167.5 444.4,167.7 444.2,167.6 	"/>
	<path d="M532.7,142.8c-0.1,0.2-0.2,0.4-0.3,0.5c-0.1-0.1-0.2-0.2-0.2-0.2c0-0.2,0.2-0.4,0.2-0.6
		C532.5,142.6,532.6,142.7,532.7,142.8z"/>
	<path d="M500.5,108.5c0.1,0,0.2-0.1,0.3-0.1c0,0.1,0.1,0.2,0.1,0.3c-0.1,0-0.2,0-0.3,0C500.5,108.7,500.5,108.5,500.5,108.5z"/>
	<path d="M519.3,199.7c-0.2,0.1-0.4,0.2-0.6,0.2c-0.1,0-0.2-0.2-0.2-0.2c0.2-0.1,0.4-0.2,0.6-0.2
		C519.1,199.5,519.2,199.7,519.3,199.7z"/>
	<path d="M478,194.3c-0.3,0-0.6-0.1-0.7-0.1C477.4,194.2,477.7,194.3,478,194.3L478,194.3z"/>
	<path d="M513.8,199c-0.1,0.1-0.1,0.2-0.2,0.1c-0.1,0-0.1-0.1-0.2-0.2c0.1-0.1,0.1-0.2,0.2-0.1C513.7,198.8,513.8,199,513.8,199z"/>
	<path d="M505.6,107.4c-0.1,0.1-0.1,0.2-0.2,0.4c0-0.1,0-0.1,0-0.2C505.5,107.5,505.6,107.5,505.6,107.4
		C505.7,107.5,505.6,107.4,505.6,107.4z"/>
	<path d="M463.9,167.3c0.3,0.3,0.5,0.5,0.8,0.8C464.4,167.8,464.1,167.5,463.9,167.3z"/>
	<polygon points="446.2,168.2 446.2,168.4 446,168.4 	"/>
	<path d="M463.2,166.5c0.3,0.3,0.5,0.5,0.8,0.8C463.7,167.1,463.4,166.8,463.2,166.5z"/>
	<path d="M525,185.8c-0.1,0.1-0.2,0.2-0.2,0.2c-0.1,0-0.1-0.1-0.2-0.2c0.1-0.1,0.2-0.2,0.2-0.2C524.9,185.6,524.9,185.7,525,185.8z"
		/>
	<path d="M474.7,283.5c-2.1-2.2-3.8-4.8-5-7.9C471.6,277.3,473.5,280.3,474.7,283.5z"/>
	<path d="M464.1,260c0-0.4,0-0.8,0-1.2c0.1,0,0.2,0,0.2,0c0,0.4,0,0.8,0,1.2C464.3,260,464.2,260,464.1,260z"/>
	<path d="M466,264c0.1,0.2,0.2,0.4,0.1,0.2C466.2,264.4,466.2,264.2,466,264L466,264z"/>
	<polygon points="466.1,263.9 465.9,263.9 466,264 	"/>
	<path d="M448.9,202.5c0.6,1.2,0.3,1.9-0.8,2.9c0.1-0.8,0.2-1.2,0.3-1.6C448.5,203.4,448.7,203.1,448.9,202.5z"/>
	<path d="M429.5,272.9c-0.6-1,0.1-1.3,0.5-1.8C430.8,272.1,430.1,272.4,429.5,272.9z"/>
	<path d="M428.2,280.6c0,0.5,0,1,0,1.5c-0.1,0-0.1,0-0.2,0c0-0.5-0.1-1-0.1-1.5C428,280.6,428.1,280.6,428.2,280.6z"/>
	<path d="M447.5,211.2c-0.2,0.1-0.3,0.2-0.5,0.4c-0.1-0.3-0.1-0.5-0.2-0.8c0.2,0,0.4-0.2,0.5-0.1C447.4,210.8,447.4,211,447.5,211.2
		z"/>
	<path d="M432,264.4c-0.1,0.5-0.2,0.9-0.2,1.4c-0.1,0-0.2,0-0.3,0c0-0.5,0-1,0-1.5C431.6,264.3,431.8,264.4,432,264.4z"/>
	<path d="M429,276.4c-0.1,0.4-0.2,0.7-0.2,1.1c0-0.1-0.1-0.2-0.1-0.3c0-0.3,0.1-0.6,0.1-0.9C428.8,276.3,428.9,276.3,429,276.4z"/>
	<path d="M393.6,316.2c-4.9-4.1-9.7-8.2-14.6-12.3c-6.1-5.2-12.4-10-19.5-13.7c-0.9-0.5-1.7-1.1-2.5-1.7c0.3-0.8,0.8-0.6,1.2-0.4
		c4.6,2.3,9,4.8,13,8c5.9,4.7,11.7,9.5,17.4,14.3c1.6,1.3,3,2.9,4.4,4.4C393.4,315.1,393.8,315.6,393.6,316.2L393.6,316.2z"/>
	<path d="M397.8,320.3c0.3,0,0.7,0,1,0.1c2.4,1.2,4.9,1.9,7.6,2.1c1.2,0.1,1.2,0.2,1.5,1.9c1.8,0.9,3.6,1.8,5.5,2.7
		c1.7,0.9,3.7,1.2,5.4,2.4c-0.3,0.5-0.5,0.7-0.8,1.2c-1.4-0.6-2.8-1.1-4.1-1.8c-1.3-0.7-2.6-1.5-3.9-2.2c-2.9-1.6-5.6-3.6-9-4.3
		c-1-0.2-1.9-0.9-2.8-1.4C398.1,321,398,320.5,397.8,320.3C397.9,320.3,397.8,320.3,397.8,320.3z"/>
	<path d="M391.6,319.5c-1,0-1.8-0.4-2.1-1.4l-0.1,0.1C390.5,318.2,391.2,318.6,391.6,319.5L391.6,319.5z"/>
	<path d="M397.9,320.3c-1.1,0.1-1.7-0.5-2.1-1.3l-0.1,0.1C396.7,319,397.4,319.4,397.9,320.3L397.9,320.3z"/>
	<path d="M391.5,319.6c0.1,0,0.2,0.1,0.3,0.1C391.8,319.7,391.7,319.6,391.5,319.6L391.5,319.6z"/>
	<path d="M365.9,301.4c-0.1-0.1-0.3-0.1-0.4-0.2c0.1,0,0.2,0,0.2,0C365.8,301.3,365.8,301.4,365.9,301.4L365.9,301.4z"/>
	<path d="M366.6,302.2c-0.5,0-0.7-0.2-0.6-0.8l-0.1,0.1C366.3,301.6,366.6,301.7,366.6,302.2L366.6,302.2z"/>
	<path d="M393.5,316.2c0.1,0,0.2,0,0.3,0C393.7,316.2,393.6,316.2,393.5,316.2L393.5,316.2z"/>
	<polygon points="395.1,318.1 394.9,318.1 395,318.2 	"/>
	<path d="M395,318.2c0.2,0.3,0.5,0.5,0.7,0.8c0,0,0.1-0.1,0.1-0.1C395.6,318.7,395.3,318.4,395,318.2L395,318.2z"/>
	<path d="M412.4,206.3c2.4,0,3.6,1.7,4.6,3.5c0.2,0.4,0,1,0,1.8C414.7,210.2,413.5,208.3,412.4,206.3L412.4,206.3z"/>
	<path d="M412.8,195.8c1.2,1.2,1,2.3,1.5,3.5C412.6,198.4,412.6,198.4,412.8,195.8z"/>
	<path d="M424.8,194.5c0.4,1,0.2,1.9-0.1,2.9C423.8,195.9,423.8,195.9,424.8,194.5z"/>
	<path d="M412.6,194.3c0.4-0.5,0.8-1.1,1.4-1.9C414.4,193.7,413.8,194.2,412.6,194.3z"/>
	<path d="M421.7,205.2c-0.5-1-0.3-1.6,0.8-2C422.8,204.2,422.4,204.8,421.7,205.2z"/>
	<path d="M411.7,203.5c0.2,1,0.4,1.9,0.6,2.9l0.1-0.1C411.1,205,411.1,204.9,411.7,203.5L411.7,203.5z"/>
	<path d="M411.8,203.6c0-0.2,0-0.5,0.1-0.7c0-0.1,0.1-0.1,0.3-0.1C412,203,411.9,203.3,411.8,203.6L411.8,203.6z"/>
	<path d="M489.7,13c-0.2-1.4,0.9-1.6,2-2.1C491.1,12.1,491.1,12.1,489.7,13L489.7,13z"/>
	<path d="M495.3,33.2c-0.5,0.4-1,0.8-1.6,1.3c-0.1-1.4,0.7-1.4,1.4-1.5C495.1,33,495.3,33.2,495.3,33.2z"/>
	<path d="M486.9,17c-0.1,0.1-0.2,0.2-0.3,0.3c0-0.1,0.1-0.2,0.1-0.2C486.7,17.1,486.8,17.1,486.9,17C486.9,17.1,486.9,17,486.9,17z"
		/>
</g>
</svg>
