<?xml version="1.0" encoding="utf-8"?>
<!-- Generator: Adobe Illustrator 19.1.0, SVG Export Plug-In . SVG Version: 6.00 Build 0)  -->
<svg version="1.2" baseProfile="tiny" id="Layer_2" xmlns="http://www.w3.org/2000/svg" xmlns:xlink="http://www.w3.org/1999/xlink"
	 x="0px" y="0px" width="900px" height="600px" viewBox="144 97 900 600" xml:space="preserve">
<g>
	<path d="M547.5,365.5c0.3,1.3,1.1,2.3,1,3.8c-0.1,0.8,0.4,1.6,0.8,2.4c0.9,1.9,1.5,3.8,1.8,5.9c0.4,3,0.9,6,0.8,9
		c-0.1,6.3,1,12.5,1.8,18.7c0.3,2.6,0.8,5.2,1.1,7.5c0.8,0.9,1.4,1.4,2.2,2.2c4-1,8.3-1.8,12.5-2.3c4.1-0.5,8.2-2.2,12.4-1.4
		c0.2,0.9-0.3,1.3-0.9,1.4c-4.2,1-8.5,2-12.7,2.9c-2.6,0.6-5.2,1-7.8,1.5c-1.2,0.2-2.4,0.5-3.3,1.5c-0.5,1.7,0,3.5,0.1,5.3
		c0.6,6.4,1.6,12.7,3,18.9c1.9,8.6,3.4,17.3,4.9,26c0.2,1.1,0.4,2.2,0.7,3.2c2,5.9,4.1,11.9,7,17.4c1.1,2,2,4.1,3.1,6.2
		c1.2,2.2,2.5,4.4,5,5.5l-0.1-0.1c0.3,0.3,0.6,0.6,0.8,0.8l-0.1-0.1c-0.2,0.6-0.6,0.7-1.1,0.5c-1.3-0.6-2.5-1.5-3.4-2.6
		c-0.4-0.4-0.7-1-1.6-1.4c0.7,4.3,1.2,8.2,1.9,12.4c0.4,0.8,1.4,1.5,1.8,2.7c0.7,2.1,1.8,4,3,5.8c0.8,1.3,1.2,2.6,1.3,4.1
		c0.5,6.9,1.1,13.7,1.3,20.6c0,1.7,0,3.4,0.8,5c0.2,0.4,0.2,0.9,0.3,1.4c1.2,9.7,2.8,19.4,4.5,29c1,5.7,1.9,11.4,2.5,17.2
		c0.6,6.2,1.8,12.4,1.9,18.7c0,6.3,0,12.6,0.1,18.8c0,0.6,0.1,1.3-0.1,1.8c-0.8,1.9-0.7,3.9-1,6c4.3,4.9,9.7,8.2,15.8,10.3
		c3-1,4.6-3.5,6.4-5.7c0.4-1.9,0.6-3.9,1.5-5.6c-1.2-4.8-0.9-9.6-0.7-14.5c0-0.8,0-1.7-0.1-2.5c-0.7-6-0.7-12.1-0.9-18.1
		c-0.1-4,0.1-8,0.2-12c0-1.7,0.1-3.4-0.1-5.1c-0.3-3.6-0.3-7.2,0.3-11c0.4-0.3,0.8-0.7,1.3-1c0.5-0.6,0.5-1.3,0.6-2
		c0.4-5.3,0.9-10.6,1.3-15.9c0.1-1.7,0-3.3-0.2-5c-0.6-4.8-1.8-9.5-2.7-14.2c-0.7-3.8-1.4-7.6-2.9-11.2c-0.3-0.7-0.5-1.7-0.3-2.5
		c0.5-2,0.1-4.1,0.4-6.1c0.1-0.7,0.1-1.5-0.1-2.2c-1-4.8-1.3-9.6-1.2-14.4c0-1.6-0.2-3.1-1-4.5c-0.2-0.4-0.4-0.9-0.6-1.3
		c-2.4-5.8-4.9-11.5-7.8-17.1c-2.2-4.3-3.5-9-5-13.6c-3-9.7-5.8-19.4-8.2-29.3c-1.2-4.9-2.7-9.8-3.9-14.7c-1-4.1-1.8-8.3-2.7-12.4
		c-0.3-1.3-0.6-2.6-0.9-3.9c-0.9-4-1.9-8-2.7-12c-0.2-0.9-0.2-1.9,0.3-2.8c0.6-0.2,0.8,0.2,1,0.6c0.4,0.9,0.7,1.8,1,2.7
		c-0.2,0.7-0.3,1.4-0.5,2.1c1.6,4.5,3.2,9.1,4.4,13.6c1,0.3,1-0.4,1.2-0.8c0.8-1.6,2.1-2.6,3.7-3.3c2.9-1.2,5.8-2.3,8.7-3.5
		c0.2-0.1,0.5-0.2,0.7-0.2c4.2,0,8-1.9,11.8-3.1c5.2-1.6,10.2-3.5,15.2-5.2c0.3-0.6,0.4-1,0.6-1.3c0.4-0.1,0.5,0.4,0.9,0.6
		c3-0.5,5.9-1.9,9.2-2.6c0.3-1.3,0.7-2.6,0.9-3.9c1.3-11.4,0.6-22.6-3-33.6c-0.9-2.8-2-5.4-3.5-7.9c-0.7-1.3-1.4-2.5-1.3-3.8
		c-4.8-6.1-10.2-11-18.8-16.9c-1.4,0.9-2.9,1.9-4.4,2.9c-7.6,4.7-15.5,8.9-23.3,13.2c-2.3,1.3-4.6,2.6-6.9,4
		c-2.4,1.4-4.8,2.7-7.5,3.7c-2.2,0.8-4.1,1.9-6.1,3.1c-2.8,1.6-5.7,3.1-8.6,4.6c-1.3,0.7-2.6,1.2-4,1.7c-2.2,0.7-4.4,1.2-6.3,2.2
		c-1-0.2-1.6-0.6-1.7-1.4c-0.2-0.8-0.6-1.3-1.1-1.8c-1.1-1.1-1.6-2.6-3-3.6c-0.4,4.8-0.3,8.8,0.4,12.8c0.2,1.2,0.2,2.4,0.2,3.6
		c-0.1,5.3,0.2,10.6,0.6,15.9c0,0.6,0.1,1.2,0,1.8c-0.7,2.8-1.2,5.7-2.6,8.9c0.1-3.3,0.2-6,0.9-8.6c0.6-2.5-0.1-5-0.2-7.6
		c0-1.6-0.2-3.1-0.3-4.7c-0.1-1.4-0.2-2.9-0.3-4.3c-0.3-4.3-0.8-8.7-1-13c-0.1-2.2,0-4.3-0.1-6.5c0-0.7,0.7-0.9,1-1.4
		c0-0.3,0-0.5-0.1-0.7c-0.5-1.7-1.3-3.4-1.6-5.2c-1.3-6.6-3.9-12.7-6.6-18.8c-0.9-2-1.7-4-2.4-6c-0.4-1.2-1-2.2-1.7-3.2
		c-1.8-2.6-3.5-5.2-5.4-7.7c-1.6-2.2-2.5-4.7-3.1-7.2c-0.2-0.7-0.4-1.3-0.7-2c-2-3.5-3-7.4-3.3-11.4c-0.1-1-0.2-2,0.1-2.9
		c0.4-1.5,0.1-2.8-0.5-4.3c-2.4-0.5-4.9-0.9-7.3-1.8c-1.8-0.7-3.6-1.4-5.4-2.1c-0.9-0.4-1.6-1.1-2.1-1.9c-3.2-5.2-4.8-10.8-4.3-16.9
		c0.1-1.2,0.2-2.4,0.8-3.5c1.8-3.5,3.6-7.1,5.5-10.6c0.5-1.1,1.2-2.1,1.6-3.3c1.2-4,2.7-8,4.4-11.9c-0.9-3.1-1.2-6.2-0.2-9.3
		c0.1-0.3,0.2-0.7,0.2-1.1c-0.6-2.2,0.4-3.9,1.8-5.3c3.6-3.6,6.4-7.9,9.5-12.2c-1.2-2.7-2.5-5.5-3.8-8.3c-1.2-2.8-2.2-5.6-3.9-8.1
		c-1.7-2.6-3.2-5.4-4.3-8.1c-1.2-0.6-2.2-0.3-3,0.1c-1.7,0.8-3.4,1.2-5.2,1.5c-2.4,0.5-3.6,0.3-6.3-0.8c-2.7-2.8-3-6.2-2-9.6
		c-0.6-1.5-2.6-1.4-2.7-3c-0.1-1,0.6-1.8,0.8-2.9c-1.6-2-0.9-4.5-1.2-6.9c-0.7-0.9-2.3-0.8-2.9-2.5c0.1-2.2,1.5-4.4,2.1-6.8
		c-0.2-1.1-1.2-2-1.1-2.9c0.5-1.7,2-0.8,2.5-1.7c0-0.3-0.2-0.6-0.6-0.7c-0.8-0.3-1.7,0.1-2.6-0.8c-0.7-0.8-0.1-1.9,0.1-2.9
		c0.5-1.8,0.6-3.6,0.5-5.4c-0.2-3.7,0.6-7.2,1.5-10.7c0.4-1.5,1.2-2.9,2.2-4.1c2.8-3.3,5.9-6,10-7.6c2.7-1.1,5.3-2.4,7.9-3.5
		c3.1-1.3,6.2-2.6,9.4-3.8c1.9-0.7,3.8-0.7,5.7-0.4c3.5,0.4,6.9,0.9,10.4,1.4c1,0.1,1.9,0.4,2.8,0.7c2.4,0.7,4.4,1.9,5.9,3.9
		c1,1.3,1.7,2.9,3.3,4c2.1-1,4.3-1.2,6.6-0.7c0.3,0.4,0,0.6-0.1,0.9c5.5,4.4,7.4,7.5,7.1,12.2c-1.8-5.5-3.9-10.4-10-11.6
		c-0.9,0.1-1.4,0.4-1.8,0.9c0.5,1,1.1,1.8,1.9,2.5l-0.1-0.1c0.4,1,0.9,2,1.3,3c1.1,2.5,2,5.1,2.5,7.9c0.3,2.3,0.8,4.5,1.1,6.8
		c0.7,4.6,0.2,9.1-2,13.3c-0.8,1.5-0.9,2.9-0.9,4.5c0.1,4.1,0.8,8.1,1.3,12.2c0.8-3.9-0.2-8.1,1.5-12.7c0.1,1.8,0.2,2.8,0.1,3.8
		c-0.1,3.1,0.2,6.3,0.9,9.3c0.8,3.1,1.8,6.2,4.4,8.4c0,0.6,0.2,1.1,0.6,1.6l0.1,0.1l-0.2-0.1c-0.1-0.6-0.1-1.2-0.6-1.5
		c-0.3-0.8-0.5-1.6-0.8-2.4c-2.1-4.9-2.5-10-2.5-15.2c0-0.2,0.1-0.5,0.2-0.7c0-0.1,0.2-0.2,0.2-0.2c0.7-0.1,0.7,0.5,0.8,0.9
		c0.4,2.6,0.9,5.2,1.2,7.8c0.8,5.3,3.2,10.1,5.2,14.9c0.3,0.6,0.8,1.1,1.8,0.9c-0.4-0.9-0.8-1.7-1.2-2.5c-2.3-4.7-3.8-9.6-4.8-14.7
		c-0.4-2.1-0.4-4.3-0.2-6.5c0-0.5,0.3-0.9,0.4-1.3c0.7-0.1,1,0.2,1.1,0.7c0.1,1.1,0.1,2.2,0.2,3.2c0,0.5,0.2,0.9,0.7,1.1
		c0,0.8,0.1,1.5,0.1,2.5c0.5-1,0.3-1.7-0.2-2.4c0.1-7.2,1.4-14.2,3.1-21.1c1.3-5.5,0.4-10.5-2.3-15.3c-2.8-4.9-6.3-9.4-10.4-13.4
		c-2.2-0.6-4.3,0.1-6.4-0.1c-0.2-0.9,0.2-1.1,0.7-1.2c1.9-0.6,3.8-0.6,5.7-0.4c0.8,0.1,1.6,0.6,2.3,1c3.6,2.2,6.3,5.2,8.2,9
		c1,2.1,1.8,4.2,2.2,6.5c0.2,0.8,0.3,1.7,0.7,2.4c2.3,3.6,2.2,7.6,1.6,11.6c-0.4,2.5-0.8,5-1.2,7.5c-1.1,6.8-1.4,13.7,0.1,20.5
		c0.5,2.5,0.9,5,0.7,7.6c-0.1,1.9,0.7,3.5,1.6,5.1c-0.2,0.3-0.4,0.6-0.6,1c0.1,0,0.2,0.1,0.4,0.1c2.8,1,5.6,2.2,8.6,2.5
		c0.4,0,0.7,0.2,1,0.3c6.2,2.5,12.3,4.9,18.1,8.2c2,1.1,3.9,2.3,5.6,3.8c0.5,0.5,1.1,0.9,1.8,1.3c7.6,4.3,14.8,9.5,23.2,12.5
		c1.8,0.6,3.6,1.5,5.3,2.3c1.7,0.9,3.4,1.9,5.1,2.8c0,0.3,0,0.5,0,0.8c0.2,0.7,0.9,1,1.6,1.2c3,1.3,5.7,3.2,8.2,5.2
		c4.1,3.2,8.5,5.9,13.4,7.8c3.1,1.2,5.6,3.3,8.4,5c1.4,0.8,1.9,2.2,2,3.7c0.3,6.1,2.2,11.8,3.6,17.7c1.9,7.8,3.3,15.6,4.3,23.5
		c0.2,1.2,0.2,2.4,1.1,3.4c0.4,0.5,0.5,1.3,0.6,2c0.9,6.7,1.8,13.4,2.8,20.1c0.4,2.9,1,5.7,1.7,8.5c0.2,0.8,0.7,1.5,1.1,2.2
		c1.1,2,2.2,4,3.5,6.2c0.9,0.4,1.9,0.9,3.2,1.5c2.6-0.6,5.6-0.3,8.3-1.1c3.7,2.2,5.9,5.5,7.6,9.1c1.1,2.5,0.8,5.2-0.4,7.7
		c-0.6,1.3-1.4,2.5-2.1,3.8c-1.3,0.8-2.6,1.7-4,2.5c0,2.3,0,4.6,0,6.9c-1.4,2.5-1.4,2.5-1.1,5.9c-1.2,1.8-3,2.9-4.8,3.7
		c-0.8,1.1-0.7,2.1-0.4,3c0.6,1.6,0.2,3.2-0.6,4.5c-2.3,3.6-2.6,7.7-3.2,11.7c-0.1,0.5-0.2,0.9-0.3,1.2c-1.1,0.9-2.2,0.7-3.3,0.8
		c-1,0.1-1.9,0.1-2.8,0.2c-0.9,0.8-0.9,1.8-1.1,2.7c-1,5.2-1.7,10.5-3.2,15.6c-1.1,3.8-2.2,7.6-3.4,11.5c-2.1,6.9-2.9,13.9-3,21.1
		c0,1.5-0.3,2.8-0.6,4.2c-0.6,2.4-1,5-1.3,7.5c-0.8,7.1-2.2,14.1-3.5,21.1c-1.4,7.7-3.7,15.2-5.5,22.9c-0.5,2-1.3,3.8-2.3,5.6
		c-1.8,3.3-3.7,6.5-4.6,10.2c-0.2,0.9-0.7,1.6-1.3,2.2c-4,3.9-8.6,7.1-13.8,9.1c-1.3,0.5-2.9,0.4-4.2,0.9c-2.1,0.7-4.2,0.9-6.6,0.6
		c-0.8-0.8-1.9-1.4-3.1-2c-1.6-0.9-3.1-1.9-4.5-3c-1.6-1.3-3-2.8-3.9-4.7c-0.3-0.7-0.6-1.6-1.8-1.8c-0.2,1.8,0,3.6,0.2,5.3
		c0.2,1.8,0.1,3.6,0,5.4c0,2.6-0.4,5.2,0.3,7.8c1.1,4,2,8,2.8,12c1,5,2.5,9.8,2.6,15c0,1,0.3,1.9,0.4,2.9c0.4,2.4,0.5,4.8,0.2,7.2
		c-0.2,1.9-0.2,3.9-0.3,5.8c-0.2,3.7-0.5,7.5-1.1,11.2c-0.3,1.9-0.4,3.8-0.6,5.8c-1.2,9.6-1.6,19.2-0.6,28.9
		c0.2,2.2,0.1,4.3,0.2,6.5c0.1,1.7,0.3,3.4,0.5,5c0.2,1.2,0.2,2.4-0.1,3.6c-0.6,3-0.3,6-0.2,9c0,0.5,0.3,0.9,0.4,1.4
		c3.2,0.8,4.6,3.7,7.2,5.3c0.1,0.5,0.2,1,0.1,1.5c-0.4,2.1,0,4,0.8,6c1,2.5,2.1,4.9,3.3,7.2c1.1,2.1,2.3,4.3,1.8,6.8
		c2.5,2.5,4.2,5.2,5.4,8.5c-0.4,3.3-2.5,5.1-5.2,6.2c-1.1,0.3-1.6-0.4-2.3-0.4c-3.6,0.2-6.6,2.2-10,2.9c-4.6,1-9.3,1.7-14,1.2
		c-2.7-0.3-5.3,0-7.9,0.2c-0.9,0.1-1.8,0.5-2.7,0.8c-2.3,0.8-4.5,1.7-6.8,2.5c-0.8,0.3-1.6,0.5-2.3,0.9c-2,1.2-4.2,1.7-6.5,2.1
		c-5.8,0.8-11.7,1.8-17.5,2.6c-2.9,0.4-5.7,0.7-8.6,0.9c-1.4,0.1-2.9-0.1-4.3-0.3c-4.9-0.5-8.1-6.5-6.6-10.9c0.3-1,0.4-1.8,0.3-2.8
		c-0.2-2.4,0.8-4.2,3.1-5.2c1.4-0.6,2.9-1.2,4.3-1.8c3.9-1.7,7.7-3.9,11.8-5.3c2.4-0.8,4.2-2.8,5.6-5c1-1.7,2.3-3,3.7-4.4
		c3.8-3.8,7.6-7.8,11.4-11.6c1.1-1.1,1.8-2.5,2.5-4.1c0.9-0.5,1.8-1,2.3-1.3c1.5-0.3,2.2,0.6,3.2,0.6c0.2-0.2,0.5-0.3,0.5-0.5
		c0.2-0.6,0.1-1.3,0.4-1.8c1.3-2.5,1.2-5.1,1.1-7.8c-0.1-7.1,0.1-14.3-0.7-21.4c-0.5-4.9-1.2-9.8-1.8-14.7c-1-7.9-2.5-15.7-4.2-23.5
		c-0.7-3.3-1.4-6.6-2.2-9.9c-0.6-2.5-1-5-1.2-7.5c-0.6-6.6-1.3-13.2-1.8-19.8c-0.3-4.3-0.4-8.7-0.6-12.8c-4.5-7.5-6.6-15.6-8.3-24
		c0.4-0.6,0.7-1.2,1.1-1.9c-2-3.7-4-7.4-6-11.1c-0.3-0.6-0.7-1.3-1-1.9c-1.7-4.8-3.5-9.5-5-14.4c-1-3.1-1.5-6.3-2.1-9.5
		c-0.9-4.6-1.8-9.2-2.6-13.9c-0.8-4.1-1.5-8.3-2.2-12.7c-5.2-1-10.5-2.1-15.6-4.1c-1.1-1.4-2.2-2.9-2.2-4.8c0-0.8-0.5-1.3-0.7-2
		c-0.7-2.4-1.4-4.9-2.1-7.3c-0.1-0.4,0.1-0.7,0.7-0.9c1.6,2.3,2.5,4.9,2.6,7.6c0.1,2.6,1,4.6,2.6,6.5c2.5,0.5,5,1.1,7.4,1.6
		c1.3,0.3,1.6,0.2,3.5-0.8c-0.5-1.8-2.1-2.1-3.6-2.4c-0.9-0.2-1.9,0-2.8,0c-0.2-0.2-0.4-0.4-0.4-0.5c0-0.2,0.1-0.5,0.2-0.7
		c-0.7-1.1-2.3-0.7-3.1-1.6c0.1-1.2,1.4-0.7,2.1-1.5c-0.4-2.2-2.3-4-2.2-6.6c0.1-2.3-0.1-4.6,0.5-6.7c-1.4-2.7-1.4-2.7-1.4-5
		c0.9,1.7,1.6,3.2,2.4,4.8c-0.2,1.8-0.1,3.7,0.5,5.6c0.5,1.3,0.2,2.9,0.3,4.7c0.2,0.1,0.5,0.5,0.8,0.7c1,0,1.5-0.5,2-1.4
		c-0.7-5.7,0.1-11.5,1.9-17.4c0.3-0.2,0.8-0.5,1.3-0.9c0.7-1.4,0.5-2.8,0.4-4.3c-0.3-4-0.6-7.9-0.3-11.9c0.3-2.9-0.5-5.7-1.7-8.4
		c-0.9-1.9-1.7-3.8-1.5-5.8c-0.7-2.1-3-3.7-2-6.4c1.4,1.2,1.7,3.1,3.4,3.8L547.5,365.5z M502.6,113.2l0.2-0.1L502.6,113.2
		c-0.2,0.4-0.4,0.6-0.7,0.9l-0.2,0.1l0.1-0.2C502.1,113.8,502.4,113.5,502.6,113.2z M491.8,114.8c-0.5,0-0.8,0.2-0.7,0.7
		c-1.9,0.6-3.2,2-4.3,3.6c0,3.2-1.3,6.1-1.4,9.2c-0.1,3.2-0.2,6.5-0.9,9.5c0.8,0.8,1.9,0.9,2.5,1.9c0.1,1,0.2,2.1,0.3,3.2
		c-1.3,2.8-2.6,5.7-3.8,8.5c-0.1,0.2,0,0.5,0,0.8c0.8,0.9,1.8,1,2.9,0.8c0.7-0.3,0.8-1.2,1.7-1.4c1.1-0.3,1.9,0.9,3,0.7
		c0.5-0.2,0.9-0.5,1.2-0.6c0.5,0.2,0.6,0.4,0.5,0.9c-1.2,1.2-3,1.1-4.7,1.5c-0.4,1.8-0.7,3.5-1.2,5.4c1.8,0.2,3.3-0.4,4.8-0.5
		c1.6-0.1,3.3-0.4,4.9-0.2c0,0.4,0.1,0.7,0,0.8c-0.1,0.2-0.3,0.4-0.5,0.5c-0.9,0.2-1.9,0.4-2.8,0.6c-1.1,0.2-2.2,0.2-3.2,0.4
		c-1.2,0.3-2.3,0.7-2.5,2.2c0.2,0.6,0.6,1.1,1.5,1.2c1.1,0,2.3-0.9,3.9-0.3c0.5,0.2,1,0.7,1.3,1.4c-0.8,1.5-2.7,0.7-3.7,1.6
		c-0.2,1.1-0.4,2-0.5,3c0,2-0.1,4.1,1.6,5.6c3.2-0.5,6.3-1.2,9.4-1.2c1.2,0,2.4-0.3,3.5-0.7c3-1.2,6-2.4,9.1-3.6
		c0.4-0.2,0.9-0.8,1.5-0.1c-2,2.3-5.2,3-7.6,4.9c0.4,1.5,0.7,2.9,1,4.1c4.1,5.7,6.7,12,8.9,18.4c0.8,2.5,0.8,5.1,0.9,7.9
		c-0.7-0.3-1.1-0.5-1.6-0.7c-0.3,0.5-0.6,1-0.9,1.4c0.3,0.7,0.4,1.2,0.3,1.8c-0.1,3.2-1.1,6.2-2.1,9.1c-1.2,3.6-2.4,7.1-2.6,10.9
		c0,0.4-0.1,0.7-0.2,1.1c-1.2,2.7-0.6,5.4,0.3,8.4c1.4-1.6,1.3-3.6,2.1-5.1s1.6-3.1,3.1-4.7c-0.1,2-0.9,3.3-1.3,4.8
		c-0.3,1.3-0.9,2.5-0.5,3.9l-0.2,0.1l0.2-0.2c0.7,0.2,1.2-0.2,1.6-0.6c0.8-0.8,1.5-1.6,2.2-2.4c3.2-3.8,6.4-7.5,9.5-11.4
		c0.8-1,1.6-2.1,2.2-3.3c2.9-6,6.5-11.5,9.8-17.3c0.7-1.1,1.4-2.3,1.8-3.5c1.1-3.1,2.8-5.9,4.7-8.5c1.3-1.9,2.9-3.7,3.7-5.8
		c0.8-2.2,2.1-3.7,4-4.9c0.5-0.3,1.1-0.6,0.7-1.5c-2.5-0.5-5.1-1.1-7.7-1.6c-2.8-0.6-5.1-2.1-6.7-4.6c-0.7-1.1-1.5-2.2-2.2-3.3
		c-1.9-3.2-3.6-6.7-1-10.4c-0.2-0.7-0.4-1.3-0.6-2c-0.2-0.7,0.4-1.4-0.2-2.2c-1.2-0.1-2.5,0.6-3.6,0.1c-1.2,0.8-1.5,2.3-3.1,2.6
		c-0.6-0.2-1.4-0.4-2.2-0.6l0.1,0.1c0.2-0.8-0.8-1.8,0.2-2.4c1-0.2,1.3,1,2.1,0.7c1.2-1.4,2.4-2.7,3.5-4c0.7-0.6,1.6-1.1,2-2
		c0.1-0.1-0.1-0.4-0.2-0.6c-0.8-0.1-1.3,0.3-1.7,1c0,0.6,0,1.2,0,1.7c-1.2,0.3-2.3,0.6-3.5,0.8c-0.6,0.1-1.2-0.3-1.6-0.8
		c-0.4-0.9-0.7-1.9-0.5-2.9c0.5-0.8,1.4-1.1,1.6-2c-0.3-0.8-1-1.4-0.8-2.3c0.9-2.3,3-3.6,4.2-6.2c-2.3,0.6-3,2.5-4.3,3.6
		c-0.6,0.6-1.7,0.1-2.1,0.9c0.2,0.8,1.2-0.1,1.4,0.7c-1.6,0.7-1.7,0.8-2.7,0.4c-0.7-0.2-1.4-0.4-1.8-1.2c0.1-0.3,0.2-0.7,0.3-1.2
		c-0.4-0.3-1-0.6-1.3-1.1c-0.7-1.4-1.4-2.8-1.9-4.2c-0.4-1.3-1-2.2-2.1-2.8c-0.5-0.3-0.9-0.6-2.1-1.4c4.9,0.9,9.1,1.4,14.1,1.7
		c-3.5,0.9-6.2,0.4-8.9,0.6c0.2,1,0.9,1.1,1.6,1.4c0.8,0.3,1.6,0.6,2.3,1c0.5,0.3,1.3,0.2,1.4,1c-1.4,0.5-2.6-0.9-4.4-0.5
		c2,1.4,4,1.8,6,2c1.3-1,2.6-1.9,3.8-2.9c1.1,0.3,2,0.5,3,0.8c4.1-2.1,7.4-5.1,9.5-9.2c0.3-0.6,0.4-1.4,1.1-1.8
		c-0.2,2.7-1.6,4.8-3.3,6.7c-1.4,1.5-2.9,2.9-4.7,4c-0.6,0.4-1.3,0.6-1.5,1.5c0.6,1.4,0.9,3,1.8,4.3c0.9,1.5,0.7,3.2,0.9,4.7
		c0.6,0.6,1.2,0.8,2,0.8c2.4-2.7,4.8-5.5,7.3-8.3c0.5-3.1,0-6.2-0.9-9.2c-0.4-1.4-0.2-3.2-1.7-4.3c-0.1-0.6-0.1-1.2-0.2-1.8
		c-2.4-1.8-2.5-5.4-5.4-7c-2.3,0.4-4.5,1.3-7.5,1.5c2-1.2,3.7-1.7,5.4-2.1c0.6-0.2,1.1-0.3,1.3-1c-0.3-0.8-0.7-1.5-1.6-1.8l0.1,0.1
		c-0.7-2.6-2.5-4-5.3-4.6c-3.9,0.5-7.9,1-11.9,2c-3.3,0.8-6.5,1.6-9.8,2.5l0.1,0.1c1.9-1.8,4.5-2.2,6.9-2.8
		c3.2-0.9,6.4-1.8,10.4-1.8c-3.9-1.9-7.2-0.8-10.8-0.7c1.6-2.2,4.1-1.2,5.8-2.5c-1.7-0.2-3.4-0.4-5-0.7c-2-0.3-3.8-0.1-5.7,0.6
		c-1,0.4-2,0.7-3,1.1c-3.2,1.3-6.4,2.8-10.1,5.1c4.3-0.6,7.1-3,10.6-3.2c0.4,0.5,0.6,0.9,0.9,1.3c-0.7-0.1-1.2,0-1.4,0.7
		c-0.3,0.1-0.5,0.1-0.4,0.1c-0.2,0.1,0.1,0,0.3-0.2c0.5-0.2,1.2-0.1,1.4-0.7c0.7,0,1.4,0,2.2,0l-0.1-0.1c-0.5,1.1-1.7,1.3-2.6,1.8
		c-2.3,1.3-4.7,2.5-6.8,4.1c-0.4,0.3-0.7,0.6-0.5,1.3c1.6,0.6,3.2-1,4.9-0.2c-2.5,1.6-3,1.7-7.3,2c-1.1-0.2-0.5-1.2-1.4-1.3
		c-0.3,0.4-0.7,0.9-1.1,1.3c-0.3,0.3-0.3,1.3-1.3,0.7c0.3-1.5,0.6-3,0.9-4.5c0.1,0,0.3-0.2,0.1,0.1c-1.9,0.2-3,1.8-4.5,2.8
		c-0.5,0-1,0-1.6,0s-0.8,1.1-1.6,0.7c0.2-0.5,0.3-1,0.5-1.4C491.5,115.4,491.8,115.2,491.8,114.8c0.5,0,0.8-0.2,0.7-0.8
		c0.9,0.1,1.5-0.2,1.6-1.2c-0.8,0.1-1.3,0.5-1.5,1.3C492,114,491.7,114.2,491.8,114.8z M543.8,145c0.5,0.3,1.3,0.3,1.7,0.9
		c-1.6,0.8-2.7,2.2-3.9,3.4c-0.5,0.5-0.6,1.3-0.2,2c1.5-0.3,1.9-1.7,2.7-2.6c0.7-0.8,1.4-1.6,1.3-2.8c1-0.9,1.2-2.2,1.8-3.4
		c0.1-0.1-0.1-0.4-0.2-0.9C546,142.9,545,144,543.8,145c0,0.2,0,0.3,0,0.4C543.8,145.4,543.8,145.2,543.8,145z M512.8,210.4
		c-2.2,1.7-3.8,4-5.3,6.3c0.5,2.3-0.2,4.5-0.2,7.2c0.5-0.7,0.9-1,1.1-1.4c1.4-3.6,2.9-7.1,4.3-10.7
		C512.7,211.3,512.7,210.8,512.8,210.4c0.2-0.1,0.7,0,0.3-0.5C513,210.1,512.9,210.3,512.8,210.4z M541,158.9
		c0.7,0.3,0.7,0.8,0.8,1.4c0.3,1.9-0.7,3.4-1.3,5.2c1.2,1.9,2.3,3.9,3.4,5.8c0.1,0.1,0.2,0.2,0.1,0.2c0.1,0-0.1,0-0.2-0.1
		c0.3-1.3,0-2.6-0.2-3.9c-0.1-1-0.2-1.9,0-2.8c0.6-3.1,0.4-6.2,0.4-9.3c0-0.5,0-0.9-0.6-1.3c-1.4,0.6-2.2,2-2.9,3.3
		c0.2,0.6,0.4,1.2,0.6,1.7c-0.3,0.1-0.7,0.2-1.2,0.3c-0.3,1.2-0.4,2.5,0,3.7c0.6-0.1,0.9-0.4,1-0.9C541.3,161,541,159.9,541,158.9z
		 M556.9,179.9c-1.9,0.3-2.9,1.6-3.7,3.1c-1.7,3.1-3.5,6-5.5,8.9c-1.3,1.8-2.3,3.7-3,5.8c-2.9,8.4-7.8,15.8-12.6,23.1
		c-0.5,0.7-1.1,1.3-1.6,2c-2.3,2.8-4.7,5.5-6.8,8.4c-3,4.1-6.6,7.6-11.1,10.4c-1.6-0.4-2.8-1.5-3.2-3c-0.8-2.8-1.3-5.7-0.1-8.5
		c0.3-0.8,0.6-1.6,0.8-2.4c0.1-0.4,0.2-1-0.8-1c-1.5,3.6-3,7.2-4.5,10.9c-1.3,3.1-2.4,6.3-4.1,9.2c-2.2,3.8-3.9,7.7-4.9,12
		c-0.5,2-0.5,3.8-0.1,5.7c0.6,2.9,1.8,5.5,3.6,7.9c1.3,1.7,2.8,2.9,4.9,3.4c3.3,0.8,6.5,1.7,9.6,2.5c1.9,1.4,1,3.8,2.4,5.2
		c0.8,0.3,1.4,0,2.1-0.2c4.8-1.7,9.5-3.5,14-5.8c8.5-4.3,17.3-8.1,26.4-10.8c3.6-1.1,7.1-2.3,10.7-3.3c4.1-1.1,8.4-1,12.6-1.4
		c1.2-0.1,2.4,0.2,3.7-0.6c0.4-3.8,0.7-7.6,0.6-11.5c-0.3-7.6,0.2-15.2,1-22.8c0-0.3-0.1-0.5,0.2-0.6c-1.4,0.4-1.6,1.2-2.1,1.7
		c-2.8,3.2-6.1,5.8-10,7.7c-2.4,1.1-5.2,1.1-7.2,3c-3,0.5-6.1,1.2-9,0.2c-6.2-2-10.3-6.1-11.7-12.6c-0.6-2.8-1-5.7-1.5-8.5
		c-0.3-2-0.6-4.1-0.8-6.1c-0.4-5.7,0.5-11.1,3.2-16.1c0.4-0.7,0.8-1.5,1.1-2.3c1.6-4.2,3.9-8,6.6-11.6c0.4-0.6,1-1.1,1-1.9
		c0.2-0.1,0.3-0.2,0.5-0.3c-0.1-0.1-0.2-0.2-0.3-0.3C557.2,179.6,557.1,179.8,556.9,179.9z M697.7,339.5L697.7,339.5
		c0.4,0.6,0,1.7,1.2,2c1.3-1.2,2.6-2.5,3.3-4.4c-0.1-0.8-0.2-1.7-0.4-2.8c-2.6-1.3-5-3-7.1-4.9c-1.4-1.2-2.8-2.3-4.1-3.6
		c-1.3-1.3-3.6-1.4-4.5-3.2c-1.7-0.5-2.4-1.9-3.1-3.3c-0.9-1.7-1.8-3.4-2.7-5.1c-0.4-0.7-0.8-1.5-1-2.3c-0.7-3.2-1.6-6.3-1.9-9.6
		c-0.3-3-0.8-6-1.1-9c-0.5-4.5-1.8-8.7-2.6-13.1c-1.4-7.5-2.5-15-4.2-22.4c-1.5-6.2-3-12.4-4-18.8c-0.2-1.4-0.4-2.9-1.4-4.3
		c-2.1-1.3-4.1-3.1-6.6-4.1c-5.6-2.3-10.7-5.6-15.7-8.9c-6.2-4.1-12.6-7.6-19.1-11.1c-0.7-0.4-1.6-0.7-2.1-1.3
		c-0.9-0.9-2-1.4-3.1-1.9c-3.2-1.5-6.1-3.3-9.1-5.2c-3.9-2.5-7.8-4.9-11.8-7.1c-3.9-2.2-7.9-4.1-12-6c-2.7-1.3-5.3-2.8-8.3-3.5
		c-4.8-1.2-9.5-2.9-14-4.8c-0.7-0.3-1.5-0.9-2.6-0.5c-3.4,3.6-5.9,7.9-7.8,12.7c-0.5,1.3-1,2.7-1.6,4c-2.1,4.6-3,9.4-2.8,14.4
		c0.1,3.6,0.5,7.2,1.1,10.8c0.4,2.2,0.6,4.6,1.9,6.6c3.3,5.3,8.2,8.1,14.3,8.5c1.8,0.1,3.6-0.3,5.3-1.1c2.2-1.2,4.5-2.4,6.6-3.7
		c2.7-1.7,5.2-3.6,7.2-6c0.5-0.5,1.1-1,0.7-2c-2.7-1.6-5.7-2.9-8.7-4c-2.5,2-2.5,2-5.4,2.5c0.1-1,1-1.2,1.5-1.8
		c0.4-0.5,1.1-0.9,0.9-1.8c-2.5-1.7-5.9-1.9-8.1-4.4c0.8-0.7,1.3-0.3,1.9-0.1c5.8,2.1,11.5,4.4,17.1,7c1.2,0.6,2.3,1.3,3.8,1.1
		c0.7,1.2,1.9,1.8,3,2.4c5.8,3.1,11.9,5.2,17.9,7.9c1.4,0.6,2.9,1.2,4.2,2.1c3.9,2.5,8,4.4,12.3,6c4.6,1.7,9.4,3.1,12.9,7
		c0.2,0.2,0.7,0.3,1,0.5c2.3,1.4,3.7,3.4,4.5,5.9c2.9,9.8,7.5,18.8,12.4,27.7c0.6,1.2,1.4,2.3,2.2,3.3c2.7,3.3,4.7,7,5.8,11.1
		c0.2,0.7,0.5,1.4,0.8,2c3.2,6.8,4.9,14.1,7.1,21.2c0.1,0.2,0,0.5,0,0.8c-0.4,0.5-0.9,1-1.5,1.7c0,1.4,0,2.8,0,4.2
		c0,2.3,0,4.6-0.5,6.9c-0.9,4.9,0.8,9.1,3.7,12.8c1.8,2.3,3.5,4.6,4.7,7.2c1.3,2.6,3,4.9,4.8,7.2c0.3,0.4,0.7,0.7,1.3,0.6
		c0.2-0.1,0.6-0.3,0.8-0.5c0.3-0.3,0.5-0.8,0.7-1.1c-0.9-3.2-0.9-3.2-2.6-5.2c-0.5-0.6-1-1.1-1.2-1.8c-0.9-2.9-1.7-5.9-1.9-9.3
		c1.7,0.6,3,1.5,3.8,2.8c0.6,1,1.4,1.7,2.3,2.2c0.6,0.4,1.1,0.9,1.5,1.6c0.1,0.3,0.4,0.3,0.6,0.1c0.3-0.5,0.6-1,1.6-0.8
		c1.5,2.3,1,5.6,3.4,7.6c1.1-0.2,2-0.7,2.4-1.6c0-3.3,0-6.4,0-9.4c0.2-1,1.5-1.1,1.4-2.1c-0.1-1.2-0.1-2.4,0-3.6
		C696.9,340,697.1,339.6,697.7,339.5z M631,512.7L631,512.7c0.2,0.3-0.1,0.9,0.7,1.2c2.6-0.5,5.5-0.7,8.5-0.8c4.1-3,8.8-5.3,12.1-9
		c0.4-1.6,0.7-2.9,1.2-4.2c0.5-1.4,1.1-2.7,1.7-4c2-4.1,3.8-8.4,4.6-12.9c0.1-0.8,0.4-1.6,0.6-2.5c1.7-6.7,3.5-13.3,4.3-20.2
		c1-8.1,2.2-16.3,3.3-24.4c0.5-3.9,0.9-7.9,1.6-11.8c0.5-2.6,1-5.2,1.3-7.9c0.2-1.8,0.4-3.6,1.4-5.2c0.4-0.6,0.5-1.4,0.7-2
		c1.3-4,2.5-8.1,3.8-12.1c0.6-1.7,1-3.5,1.3-5.3c1.2-6.7,1.7-13.6,3.7-20.2c-1.2-1.3-1.6-3-2.4-4.3c-3.7-1-10.3-1.2-13.8-0.5
		c-1,3-0.4,6.1-0.1,9.1c-0.6,0.3-1,0.5-1.5,0.8c-0.3,0.9-0.6,2-0.8,2.9c-2,1.6-4.3,2.5-6.5,3.3c-0.7,1-0.9,2.1-1.2,3.1
		c-0.8,3.8-2,7.5-3.1,11.1c-1.1,3.7-2.5,7.3-3.3,11.1c-0.6,2.7-1.2,5.4-2.2,8c-1.3,3.4-2.5,6.8-3.8,10.2c-0.3,0.8-0.4,1.8-1,2.3
		c-1.2,1-1.3,2.3-1.5,3.6c-0.7,4.5-1.5,9.1-1.7,13.6c-0.3,4.9-0.1,9.9,0,14.8c0,1.4,0.4,2.9,0.5,4.3c0.1,0.9,0.6,1.9-0.1,2.9
		c-0.2-0.4-0.4-0.6-0.5-0.9c-1.3-4.8-1.4-9.8-1.2-14.7c0.9-2.1,0.4-4.3,0.4-6.4c0-2.9,0.1-5.8,0.1-8.7c0-1.6,0.4-3.1,1.1-4
		c0.9-13.6,0.3-26.7-1.6-39.9c-3.4,0.9-6.6,1.8-9.4,3.8c-0.7-0.3-1.4-0.2-2.1,0.1c-1.9,0.8-3.8,1.5-5.8,2.2
		c-6.3,2.4-12.6,4.8-19.3,6c-0.6,0.1-1.2,0.3-1.7,0.5c-3,1.3-6,2.6-8.9,3.9c-1.9,0.9-3.5,2.1-4.2,4.5c0.6,2.5,1.2,5.2,1.8,7.9
		c2.1,8.3,3.7,16.7,6.2,24.9c2.3,7.6,4.8,15.2,7.2,22.8c1.9,6,3.8,11.9,6.9,17.5c3.2,5.9,5.4,12.4,9.5,17.9c0.7,2.1,2.3,3.4,3.9,4.6
		c1.8,1.4,3.8,2.6,5.7,3.9c0.5,0.3,1,0.7,1.7,0.5C630.1,514,629.7,512.4,631,512.7z M667.3,334.4c0.3-2.1,0.7-4.1,0.9-6.2
		c0.2-3.1,0.2-6.3,0.3-9.4c0.1-1.1,0-2.1-0.3-3.2c-1.5-4.6-2.8-9.2-4.7-13.7c-1.1-2.4-1.9-5-2.8-7.4c-0.4-1.1-0.9-2.3-1.6-3.2
		c-3.2-4.4-5.9-9.1-9-13.6c-3.6-5.3-5.9-11-7.6-17.1c-0.4-1.6-0.9-3.3-1.4-4.9c-0.6-1.9-1.6-3.5-3.4-4.6c-0.7-0.4-1.4-1-1.9-1.7
		c-1.1-1.4-2.5-2.2-4.1-2.9c-2.9-1.2-5.8-2.4-8.7-3.6c-3.5-1.4-6.9-3-10-5c-1.6-1-3.4-1.9-5.1-2.6c-5.5-2.4-11.1-4.7-16.5-7.4
		c-0.6-0.3-1.2-0.8-2-0.6c-0.4,0.5-0.3,1.2-0.4,1.8c-0.1,3.7-0.2,7.5-0.2,11.2c0,4.3-0.2,8.7-0.5,13c-0.1,2.2,0,4.3-0.4,6.5
		c-0.2,1.2-0.3,2.4,0.1,3.6c0.2,0.6,0.2,1.2,0.2,1.8c-0.1,2.8-0.3,5.5-0.3,8.3c0,3.6-0.5,7.2,0.1,10.8c0.2,1.4-0.2,2.6-0.3,3.8
		c1.1,5.2,3.4,9.7,5.6,14.2c1.1,2.2,2.6,4.1,4.4,5.6c1.3,1.1,2.7,2.1,3.8,3.3c1.5,1.8,3.1,3.3,5,4.7c1.9,1.4,3.4,3.4,5.5,4.7
		c1.6,1,2.8,2.2,3.4,3.9c3.6,2.2,6.9,4.3,9.9,7s5.9,5.4,8.1,8.7c2.3,3.3,3.3,7.2,5.2,10.7c4.1-3,4.1-3,6.4-3.4
		c0.8-0.9,1.7-1.8,2.6-2.8c3.6-0.5,7.1-1.3,10.5-1.1c2.9-2.1,4.3-4.9,5.9-7.5C665,335.7,666,335.2,667.3,334.4z M543.9,357
		c1.3-0.5,2.2-1,3.1-1.2c5.2-1.3,9.9-3.8,14.5-6.4c2.8-1.6,5.7-3.1,8.8-4.2c2.9-1,9.1-4.7,10.9-6.1c0.9-1-0.4-1.8,0.3-2.6
		c0.8,0.4,1,1.4,2.2,1.5c8-4.1,16.2-8.3,24.4-12.5c0.9-0.5,1.9-0.9,2.6-2.1c-1.4-1.5-2.8-3-4.2-4.4c-3.6-3.4-7.2-6.8-11-9.9
		c-2.9-2.4-5.2-5.3-6.3-9.1c-0.7-2.3-1.7-4.5-2.6-6.7c-1.2-2.9-1.6-5.8-0.5-8.7c-0.6-2.8-0.7-5.6-0.7-8.4c0-3,0-6,0-9.1
		c0-0.7,0.1-1.5-0.8-2c-2.8,0.2-5.6,0.4-8.5,0.5c-2.7,0.1-5.3,0.5-7.8,1.3c-1.9,0.5-3.7,1.1-5.5,1.7c-7.4,2.5-15,4.7-22,8.1
		c-7.2,3.5-14.5,6.5-22.3,8.6c-0.9,0.2-1.9,0.5-2.5,1.4c-0.3,1-0.1,1.9,0.1,2.9c0.5,2.6,1.1,5.2,1.7,7.8c1.2,4.8,2.8,9.5,6,13.4
		c0.6,0.8,1.1,1.6,1.7,2.4c1.6,2.3,3.2,4.6,3.9,7.3c0.2,0.8,0.7,1.5,1.1,2.3c3.2,6.4,5.9,13,7.6,19.9
		C539.1,347.6,541.6,352.1,543.9,357z M635.3,673.1c-0.8-2.1-1.6-4-3.3-5.5c-0.9-0.8-1.6-1.9-1.5-3.2c0.1-2.2-0.8-4-1.7-5.8
		c-1-2.1-1.9-4.2-3-6.2c-1-1.9-1.4-3.8-1.5-5.9c-0.1-0.8,0.3-1.7-0.2-2.6c-1.4-1-2.4-2.8-4.2-3.8c-0.4,1-0.8,1.7-1,2.5
		c-0.2,0.6-0.1,1.2-0.1,1.8c0,1.1-0.2,2.2-0.7,3.1c-1.8,3.4-4.4,6-8.2,7.6c-7-2.2-12.8-6.6-18.2-11.3c-1.6-0.3-2.5,1-3.6,1
		s-1.9,0.3-2.5,1.1c-0.6,0.7-1.5,1.3-1.3,2.4c1.2,0.6,2.4,1.2,3.6,1.8c1.8,0.9,3,2.4,3.5,4.4c0.1,0.6,0.4,1.2-0.5,1.6
		c-3.3-1.2-6.1-3.2-8.9-5.2c-2.2,1.4-2.2,1.4-3.3,3.2c2.5,1.4,5.8,1.8,6.9,5.1c-0.2,0.2-0.2,0.4-0.3,0.4c-0.3,0.1-0.7,0.3-1,0.3
		c-3.2,0.1-5.9-0.9-8.1-3.3c-0.2-0.2-0.4-0.3-1,0.1c-0.4,0.4-1.3,0.8-1.5,1.9c1.6,1.1,3.7,1.9,3.8,4.3c-2.6,1.2-5.1,0.1-8-0.1
		c1.1,1.7,3.2,2.1,3.5,3.9c-1.9,1.1-2.6,1-5.9-0.9c-1.6,1.1-3,2.5-4.9,3s-3.5,1.5-5.3,2.4c-2.3,1.1-4.6,2.1-6.9,3.2
		c-1.3,0.6-2.7,1-3.8,2c-1.9,4.4-1.9,8.2,0.1,12.3c1.9,1,3.9,1.6,6.3,1.3c1.3-1.3,3-1.4,4.9-1.5c8-0.3,15.9-0.9,23.7-2.2
		c0.8-0.1,1.7-0.4,2.4-0.8c1.4-0.8,2.9-1.2,4.4-1.5c2.3-0.5,4.4-1.3,6.5-2.3c2.7-1.2,7.6-1.8,10.6-1.4c5.7,0.7,11.4,0.4,16.8-1.6
		c4.1-1.5,8.2-2.7,12.4-3.7C634.7,674.8,635.1,674.2,635.3,673.1z M639.3,353.4c1.4,5.1,2.7,10.4,2.6,15.9c2.5,0,3.4,1.9,4.7,3.5
		c1.5,1.8,2.2,3.7,1.8,5.8c1.2,1.8,2,3.7,3.9,4.9c2.4-3.2,6.5-3.3,9.1-5.5c1.2-2.9,1.8-5.7,1.8-8.7c0-1.3,0.1-2.6,0.7-3.9
		c1.3-1,2.7-1.7,4.3-1.7c3,0,6,0.1,9,0.2c1.5,0,2.9,0.3,4.2,1.4c0.6,3,3.4,5.5,2.8,9.2c-0.6,0.5-1.2,1-1.7,1.4
		c-0.3,1.4-0.8,2.5-0.6,3.8c1.6,0.3,3,0.3,4.5-0.4c-0.3-2.5,0.7-4.8,0.8-7.2c0.1-2.6,2.5-4.5,2.5-7.4c-0.7-2.1-0.9-4.5,0.3-6.6
		c-0.7-1.7-1.3-3.3-1.9-4.9c-1-0.7-2.2-1.2-2.9-2.5c-0.5-0.9-1.4-1.5-2.6-1.8c0.4,2.8,0.4,2.8,1.4,4.1c1.1,1.3,1.9,2.8,2.6,4.3
		c0.6,1.2,0.9,2.5,0.4,4c-0.8,1.3-1.8,2.3-3.5,2.6c-0.4-0.2-0.7-0.4-1-0.6c-3.1-2.8-5.3-6.2-7.1-9.9c-0.9-2-1.9-3.9-3.5-5.4
		c-0.8-0.8-1.5-1.9-1.9-3c-1-2.6-2.4-5-2.8-7.8c0-0.2-0.3-0.3-0.5-0.5c-1.6,0.2-2.1,1.4-2.7,2.6c-1.4,2.9-3.7,5-5.6,6.9
		c-3.5,0-6.6,0.6-9.7,0.3c-1.5,1.7-3,3.3-5,4.5C642.3,351.2,640.5,351.5,639.3,353.4z M642.1,371.7c-0.2,3.3-0.5,6.3-0.6,9.3
		c-0.3,6-0.8,12-0.5,18.1c0.4,7.3,0.8,14.7,0.4,22.1c-0.1,1.7,0,3.4,0,5.5c0.8-3.5,1.8-6.6,3-9.6c0.7-1.8,1.4-3.6,1.8-5.5
		c1.7-6.9,3.7-13.7,6.2-20.4c0.7-1.8,1.4-3.6,1.5-5.6c-1.2-0.2-2.2-0.4-3.3-0.6c-2.1-2.8-4.7-5.3-4.6-9.1
		C644.8,374.4,643.8,372.9,642.1,371.7z M554.5,429.8c-0.1-7-1.6-13.7-2.6-20.5c-0.4-2.5-0.9-5-1.4-7.4c0-0.1-0.1-0.2-0.2-0.3
		c-0.1,0-0.2,0-0.6,0.1c-0.6,1.7-1,3.7-1.9,5.1c-0.4,2,0.7,3.6,0.3,5c-0.5,2-0.2,3.8,0,5.7c-0.9,0.9-1.7,1.8-2.5,2.7
		c-0.1,0.1-0.1,0.2-0.2,0.4c0.1,0.4,0.1,0.9,0.2,1.3c1.5,1,2.8,2.2,4.6,2.8c1.5,0.4,2.9,1.4,3,3.2c0,0.7-0.8,1.2-0.3,2
		C553.2,430,553.6,430.1,554.5,429.8z M545.5,151.2c0,0.9,0,1.6,0,2.3c0,3.1,0.1,6.2-0.1,9.4c-0.2,3.9,1.1,7.3,2.7,10.5
		c1,0.6,1.8,1,2.8,0.1c-0.1-0.7-0.1-1.5-0.4-2.1c-1-2.5-1.4-5.1-2.1-7.6c-1-3.7-1.9-7.5-1.9-11.3
		C546.5,152.1,546.6,151.6,545.5,151.2z M692.2,324.4c1.7,1.5,3.4,2.8,4.8,4.4c1.7,2,3.9,2.9,6.4,4c0.1-4.9-3.4-7.1-6.3-9.9
		C695.6,323.8,693.8,323.2,692.2,324.4z M537.2,141.6c-1.3-0.3-1.8-2.3-3.4-2.9c-0.6,0.4-0.9,0.6-0.8,1.2c0.7,0.8,2.1,0.8,2.5,1.9
		c0,0.5-0.4,0.8-1.1,1c-0.9-0.3-2-0.6-3.3-1.1c0.4,1.2,1.8,1.2,1.9,2.5c-0.7,1.2-2.1,2.1-2.6,3.6c-0.2,0.5-0.3,0.9,0.3,1.2
		c0.9,0,1.6-0.4,2.1-1.2c0.4-0.7,0.3-1.7,1.3-2c0.9-0.3,1-1.7,2-1.9c0.5,0.1,0.7,0.8,1.3,0.4C537.7,143.7,537.7,142.9,537.2,141.6z
		 M556.2,175.3c-0.8-1.3-1.4-2.5-2-3.5c-0.7-1.1-0.9-2.5-2.2-3.7c0.3,2.3,0.8,4.1,1.5,5.8C554.3,174.6,554.8,175.4,556.2,175.3z
		 M533.8,152.3c2.9,0.2,3.5-2.4,5.1-3.3c0.2-0.9,0.5-1.6-0.5-2.5C537.7,149.1,535.5,150.3,533.8,152.3z M528.3,138.3
		c-1.8-0.3-3-0.5-4.1-0.6C525.2,138.7,526.2,139.8,528.3,138.3z M538.6,152.2c0,0.2-0.1,0.3-0.1,0.5
		C538.5,152.6,538.5,152.4,538.6,152.2z"/>
	<path d="M604.9,540.6c0.8-1.2,1.9-1,2.3-1.9c0.4-0.7,0.6-1.6,1.6-1.9c0.3,0.4,0.3,0.9,0.1,1.4c-0.5,1.1-0.9,2.2-1.5,3.3
		c-1.2,1.9-1.8,3.9-2,6.1c-0.1,1.2-0.4,2.4-0.7,3.6c-0.9-0.4-0.7-1.3-1.1-1.9C604.1,546.3,604.5,543.4,604.9,540.6z"/>
	<path d="M535.7,411.6c-0.3-0.2-0.6-0.3-0.8-0.5c0.1-4.8,1.3-9.9,2.9-12.5c0.6,0.1,0.9,0.4,0.8,1c-0.4,1.8-0.9,3.5-1.3,5.3
		C536.7,407.1,536.2,409.4,535.7,411.6z"/>
	<path d="M580.9,501.1c0.2-0.4,0.4-0.8,0.7-1.4c3,0.7,5.4,2.3,7.5,4.4c-0.6,0.7-1.1,0.4-1.6,0.2c-2-0.8-3.9-1.7-5.9-2.6l0.1,0.1
		C581.4,501.6,581.1,501.3,580.9,501.1L580.9,501.1z"/>
	<path d="M606.8,646.3c-0.9-0.1-1.3-0.6-1.1-1.8c1.4-1.9,3.6-2.7,5.7-3.6c0.5,0.4,0.7,0.9,0.3,1.3c-0.6,0.7-1.3,1.4-2.1,2
		C608.8,645.1,608,646,606.8,646.3z"/>
	<path d="M558.5,374.2c-0.5,0.1-0.9-0.1-1.3-0.4c-2.4-1.8-4.8-3.7-7-5.9c-0.2-0.2-0.3-0.6-0.5-0.9l-0.1,0.1c1.3-0.1,1.8,1,2.6,1.6
		c1.4,1.1,2.7,2.4,4.3,2.8C557.4,372.4,558.2,373.2,558.5,374.2L558.5,374.2z"/>
	<path d="M572.9,388.8c3.2,0.7,5,1.9,5.6,3.9c-0.3,0.3-0.7,0.1-0.9-0.1C576.1,391.4,574,390.7,572.9,388.8L572.9,388.8z"/>
	<path d="M553.6,141.2c0-3.2,0-6.4,0-9.6C554.1,134.8,554,138.1,553.6,141.2z"/>
	<path d="M596.3,490.2c0.7,2.1,0.8,4.1-0.5,5.8c-1,0.1-1.2-0.5-1-1.1C595.2,493.3,595.8,491.8,596.3,490.2z"/>
	<path d="M587.5,364.9c0.1-0.2,0.1-0.5,0.2-0.6c2-1.5,4.1-2.8,6.5-3.8c0.2,0.8-0.3,0.9-0.6,1.1c-1.5,1-3,1.9-4.5,2.8
		C588.6,364.7,588.1,365,587.5,364.9L587.5,364.9z"/>
	<path d="M602.2,561.3c-0.4-2.2-0.4-3.8,0.8-5.1c0.8,0.1,1,0.6,0.9,1C603.5,558.5,603.6,559.8,602.2,561.3z"/>
	<path d="M608.4,335c-1.3-1-2.7-1.9-4-2.8c0.2-0.9,0.7-1,1.3-0.7C607.1,332.1,608.1,333.3,608.4,335z"/>
	<path d="M565,390.2c2.2-0.3,4.2,0.3,6.5,1.7C567.9,391.7,567.5,391.6,565,390.2L565,390.2z"/>
	<path d="M604.6,574.1c-0.9-1.3-1.1-2.4-0.8-3.7c0.8-0.2,1,0.2,1.2,0.6C605.2,572,605,572.9,604.6,574.1z"/>
	<path d="M574.1,395.4c1.6-0.2,2.9-0.3,4.2,0.7c-0.2,0.3-0.3,0.5-0.5,0.5C576.2,396.6,576.2,396.6,574.1,395.4z"/>
	<path d="M584.5,376.4c-0.9,2.7-0.9,2.7-2.3,3.4C582.7,377.8,582.7,377.8,584.5,376.4L584.5,376.4z"/>
	<path d="M589.2,521.4c0.5-0.1,0.8,0.2,1,0.5c0.1,1.1-0.4,2-0.8,2.9c-0.7,0-0.8-0.4-0.8-0.9C588.7,523.2,588.4,522.3,589.2,521.4z"
		/>
	<path d="M583.9,510c-0.9,1.3-1.6,1.1-2.3,0.5c-0.3-0.5-0.2-0.9,0.2-1.2C582.7,509,583.1,509.8,583.9,510z"/>
	<path d="M549,118.4c1.5,1,2.1,2.5,2.2,4.3l0.1-0.1C550.3,121.4,549.4,120,549,118.4L549,118.4z"/>
	<path d="M611,635c0.6,0.6,0.9,1.3,0.8,2.2C610.9,636.7,610.9,636.7,611,635z"/>
	<path d="M581,377.2c0.2-1.3,1-2.3,2.1-2.9l-0.1-0.1C582.9,375.5,582,376.4,581,377.2L581,377.2z"/>
	<path d="M598.3,484.4c-0.4-1.2,0.1-1.8,0.3-2.7C599.1,483.1,599.1,483.1,598.3,484.4z"/>
	<path d="M606.7,578.3c-0.6-0.2-0.9-0.6-0.9-1.3C607,576.7,607,576.7,606.7,578.3z"/>
	<path d="M581.2,390.5c-0.5-1.1-0.2-1.8,0-2.7C581.8,388.7,581.7,389.5,581.2,390.5z"/>
	<path d="M623.8,372c-1-1-0.6-2.3-0.8-3.5l-0.1,0.1c0.5,0.2,0.7,0.6,0.7,1.1C623.6,370.4,623.6,371.2,623.8,372L623.8,372z"/>
	<path d="M623.7,372.1c0.9,0.9,0.7,1.9,0.2,3C623.9,374,623.8,373,623.7,372.1L623.7,372.1z"/>
	<path d="M549.1,118.4c-1-0.4-1.4-1.2-1.4-2.2l-0.1,0.1C548.4,116.7,548.9,117.4,549.1,118.4L549.1,118.4z"/>
	<path d="M625.2,379.2c-0.8-0.6-0.9-1.3-0.5-2.2C625.2,377.8,625,378.6,625.2,379.2L625.2,379.2z"/>
	<path d="M565.1,390.1c-1-0.1-2.1,0.2-2.9-0.7l-0.1,0.1C563.1,389.7,564.2,389.2,565.1,390.1L565.1,390.1z"/>
	<path d="M587.4,364.8c-0.1,0.9-0.7,0.9-1.4,1C586.2,365,586.8,364.8,587.4,364.8L587.4,364.8z"/>
	<path d="M552.6,127.2c1,0.5,0.8,1.2,0.4,2.5C552.8,128.5,552.7,127.8,552.6,127.2L552.6,127.2z"/>
	<path d="M552.6,127.1c-0.7-0.9-0.7-1.9-0.7-3l-0.1,0.1C552.9,125.1,552.6,126.2,552.6,127.1L552.6,127.1z"/>
	<path d="M593,507.9c-0.6-0.2-0.7-0.8-0.8-1.3C593.3,506.8,593.3,506.8,593,507.9z"/>
	<path d="M571.6,395c-0.2,0-0.5,0-0.7,0C571.1,394.6,571.4,394.9,571.6,395z"/>
	<path d="M623,368.5c-0.5-0.4-0.6-1-0.5-1.7C623.3,367.3,622.8,368,623,368.5L623,368.5z"/>
	<path d="M625.8,381.6c0.5,0.4,0.8,0.8,0.3,1.7C626,382.5,626,382,625.8,381.6L625.8,381.6z"/>
	<path d="M625.1,379.3c0.8,0.6,0.6,1.5,0.7,2.3l0.1-0.1C625,380.9,625.3,380,625.1,379.3L625.1,379.3z"/>
	<path d="M611,629.8c0.3,0.3,0.3,0.5,0,0.8C610.7,630.3,610.6,630,611,629.8z"/>
	<path d="M552,124.2c-0.8-0.2-0.7-0.9-0.7-1.5l-0.1,0.1C552,123,551.8,123.6,552,124.2L552,124.2z"/>
	<path d="M610.4,624.1c0,0.1,0.1,0.2,0.1,0.3c-0.1,0.3-0.2,0.4-0.4,0.1c0-0.1,0-0.2,0-0.3L610.4,624.1z"/>
	<path d="M610.3,620.8l-0.2-0.1c0-0.1,0-0.2,0.1-0.3l0.2,0.1C610.4,620.6,610.3,620.7,610.3,620.8z"/>
	<path d="M591.9,517.1c0-0.4-0.2-0.8,0.3-1.1C592.6,516.5,592.1,516.8,591.9,517.1L591.9,517.1z"/>
	<path d="M558.5,374.2c0.3,0.1,0.5,0.3,0.5,0.8C558.4,374.9,558.5,374.5,558.5,374.2L558.5,374.2z"/>
	<path d="M547.6,365.6c0-0.5,0.1-1.1,0.1-1.6l-0.1,0.1c0.4,0.5,0.6,1,0.5,1.6l0.1-0.1c-0.3,0-0.5,0-0.8,0H547.6z"/>
	<path d="M562.2,389.4c-0.3,0-0.7-0.1-1.1-0.1C561.6,388.8,561.8,389.2,562.2,389.4L562.2,389.4z"/>
	<polygon points="573,388.8 572.8,388.6 572.9,388.8 	"/>
	<polygon points="580.1,377.8 580.1,378 580.2,377.9 	"/>
	<path d="M546.1,115.5c0.1-0.2,0.2-0.3,0.3-0.5c0.1,0.2,0.2,0.3,0.3,0.5l0.1-0.1C546.6,115.4,546.3,115.4,546.1,115.5L546.1,115.5z"
		/>
	<path d="M591.8,517c-0.1,0.1-0.2,0.2-0.2,0.2S591.8,517.2,591.8,517L591.8,517z"/>
	<path d="M594.3,511.4l0.2,0.2c-0.1,0.3-0.3,0.3-0.4,0L594.3,511.4z"/>
	<path d="M546.8,115.5c0.5,0,0.7,0.3,0.8,0.7l0.1-0.1C547.2,116.1,547,115.9,546.8,115.5L546.8,115.5z"/>
	<polygon points="590.7,504.6 590.6,504.3 590.9,504.3 	"/>
	<polygon points="562.7,378 563,378 562.8,377.9 	"/>
	<path d="M580.2,377.9c0.2-0.4,0.4-0.7,0.8-0.7l-0.1-0.1C580.8,377.5,580.6,377.8,580.2,377.9L580.2,377.9z"/>
	<path d="M562.8,377.9c-0.3-0.1-0.4-0.2-0.3-0.4l0.2,0.1C562.8,377.7,562.7,377.8,562.8,377.9L562.8,377.9z"/>
	<path d="M584.6,376.5c0-0.5,0.2-0.7,0.7-0.7l-0.1-0.1C585.2,376.1,585,376.4,584.6,376.5L584.6,376.5z"/>
	<path d="M586,375c-0.1,0.4-0.3,0.6-0.7,0.7l0.1,0.1C585.3,375.3,585.6,375,586,375L586,375z"/>
	<polygon points="586.1,375.1 586.1,374.8 586,375 	"/>
	<path d="M583.8,373.5c0,0.5-0.3,0.7-0.8,0.7l0.1,0.1C583.2,373.9,583.4,373.6,583.8,373.5L583.8,373.5z"/>
	<path d="M583.9,373.6c0-0.4,0.3-0.7,0.7-0.7l-0.1-0.1C584.5,373.2,584.2,373.5,583.9,373.6L583.9,373.6z"/>
	<path d="M584.6,372.9c0-0.4,0.3-0.7,0.7-0.7l-0.1-0.1C585.2,372.5,584.9,372.7,584.6,372.9L584.6,372.9z"/>
	<path d="M585.3,372.2c0.1-0.4,0.3-0.7,0.7-0.7l-0.1-0.1C585.7,371.6,585.5,371.8,585.3,372.2L585.3,372.2z"/>
	<path d="M586.1,371.5c0-0.4,0.2-0.7,0.7-0.7l-0.1-0.1C586.5,370.9,586.2,371.1,586.1,371.5L586.1,371.5z"/>
	<path d="M587.4,369.9c-0.2,0.2-0.5,0.5-0.7,0.7l0.1,0.1C586.9,370.3,587.1,370.1,587.4,369.9L587.4,369.9z"/>
	<path d="M587.5,370c0.1-0.4,0.3-0.7,0.7-0.7l-0.1-0.1C587.9,369.4,587.7,369.7,587.5,370L587.5,370z"/>
	<path d="M588.2,369.3c0.1-0.4,0.3-0.7,0.7-0.8l-0.1-0.1C588.6,368.7,588.4,368.9,588.2,369.3L588.2,369.3z"/>
	<path d="M589.6,367.7c-0.2,0.2-0.5,0.5-0.7,0.7l0.1,0.1C589.2,368.3,589.4,368,589.6,367.7L589.6,367.7z"/>
	<path d="M590.3,367c-0.2,0.2-0.5,0.5-0.7,0.7l0.1,0.1C589.9,367.5,590.1,367.3,590.3,367L590.3,367z"/>
	<path d="M590.4,367.1c0.2-0.3,0.5-0.5,0.7-0.8l-0.1-0.1C590.8,366.5,590.5,366.7,590.4,367.1L590.4,367.1z"/>
	<path d="M549.8,367c-0.4,0-0.7-0.3-0.7-0.7l-0.1,0.1C549.5,366.3,549.7,366.5,549.8,367L549.8,367z"/>
	<polygon points="591.1,366.3 591.2,366.2 591,366.3 	"/>
	<path d="M548.2,365.6c0.5,0,0.8,0.2,0.8,0.7l0.1-0.1C548.8,366,548.5,365.8,548.2,365.6L548.2,365.6z"/>
	<polygon points="593.2,364.9 593.1,365 593.3,364.9 	"/>
	<path d="M593.3,364.9c0.2-0.3,0.5-0.5,0.7-0.8l-0.1-0.1C593.7,364.4,593.5,364.6,593.3,364.9L593.3,364.9z"/>
	<path d="M594,364.2c0.2-0.3,0.5-0.5,0.7-0.8h-0.1C594.4,363.6,594.2,363.9,594,364.2L594,364.2z"/>
	<polygon points="547.7,364 547.5,364 547.7,364.1 	"/>
	<polygon points="594.7,363.4 594.8,363.3 594.6,363.4 	"/>
	<path d="M652.1,475.4c0.6,2.3-0.3,4.2-1.2,6c-0.5,1-0.8,2.3-2.1,2.7c-0.1-0.2-0.3-0.5-0.3-0.6C649.7,480.8,650.9,478.1,652.1,475.4
		z"/>
	<path d="M633.1,491c1.1,0.8,2.1,1.5,3.2,2.3c1.1,0.8,2.1,1.5,3.1,2.2c0.1,0.5-0.2,0.8-0.7,1.1C636,495.7,634.2,493.7,633.1,491
		L633.1,491z"/>
	<path d="M636.6,504.4c1.9,1.5,1.9,1.9,1.3,6.5C636.3,508.9,636.7,506.9,636.6,504.4z"/>
	<path d="M653.6,470c-0.4-1.7,0.5-3.1,0.9-4.6c0.9,1.3,0.5,2.5,0.2,3.8C654.6,469.6,654.3,469.9,653.6,470z"/>
	<path d="M656,453.4c0.3,1.3,0.4,2.5-0.1,3.9C655.4,456,655.4,456,656,453.4z"/>
	<path d="M641.2,477.8c-1.1-0.5-0.4-1.3-0.3-2C641,476.5,641,477.2,641.2,477.8L641.2,477.8z"/>
	<path d="M641.9,480c-0.8-0.6-0.6-1.4-0.7-2.2l-0.1,0.1C641.8,478.5,641.7,479.3,641.9,480L641.9,480z"/>
	<path d="M627.8,479.8c0.4-0.2,0.6-0.1,0.6,0.3c0,0.2-0.3,0.2-0.5,0C627.9,480,627.9,479.9,627.8,479.8z"/>
	<path d="M630.9,485.2c0.4,0.3,0.8,0.7,1.4,1.1C630.9,486.5,631.1,485.8,630.9,485.2L630.9,485.2z"/>
	<path d="M625.9,475c-0.3-0.1-0.6-0.2-0.4-0.6C625.9,474.4,625.8,474.8,625.9,475L625.9,475z"/>
	<path d="M641.8,480.1c0.4,0.2,0.8,0.4,0.3,0.9C642,480.6,641.9,480.3,641.8,480.1L641.8,480.1z"/>
	<path d="M625.8,475c0.2,0.1,0.3,0.2,0.5,0.2C625.8,475.7,626,475.2,625.8,475L625.8,475z"/>
	<path d="M631,485.1c-0.1,0-0.3-0.1-0.3-0.1C630.7,484.8,630.8,484.8,631,485.1L631,485.1z"/>
	<polygon points="631,512.7 631.1,512.5 630.9,512.7 	"/>
	<path d="M633.2,490.9c-0.3,0.1-0.6-0.1-0.6-0.2C633.1,490.1,633,490.8,633.2,490.9L633.2,490.9z"/>
	<path d="M693.6,349.4c-0.5-0.4-0.7-0.6-1-0.8c0-2.6,0-2.6,1.1-4.7c0.6,0,0.8,0.3,0.9,0.8C694.9,346.3,694.4,347.7,693.6,349.4z"/>
	<path d="M559.1,190.3c-0.6,2.4-1.4,3.9-2.3,5.3c-1,0-1.3-0.4-1.1-1.1C556.1,192.9,556.6,192.3,559.1,190.3z"/>
	<path d="M660.2,243c-0.3-2.2-0.9-3.9-0.7-5.7c1.6,0.4,1.3,1.7,1.6,2.7C661.4,240.8,661.5,241.8,660.2,243z"/>
	<path d="M697.7,339.5c-0.2-1.2-0.5-2.3-0.7-3.5c0-0.3,0.1-0.7,0.2-1c0.1-0.2,0.3-0.3,0.6-0.5c0.5,0.4,1,0.9,1.6,1.3
		c0.2,0.9-0.9,0.9-1,1.6C698.3,338.2,698.3,339,697.7,339.5L697.7,339.5z"/>
	<path d="M556.8,201.4c0.8,1.3,1.6,2.5,2.3,3.6c-0.2,0.6-0.4,0.9-1,0.9C556.5,204.9,557,203,556.8,201.4z"/>
	<path d="M669.2,306.1c-1.1-1.6-1.1-1.6-1.3-4.7C668.5,302.4,668.9,303.9,669.2,306.1z"/>
	<path d="M617.3,213.9c-1.3-0.2-2-1.1-2.5-2.3c0.2-0.3,0.3-0.6,0.5-0.9C616.8,211.4,616.9,212.8,617.3,213.9L617.3,213.9z"/>
	<path d="M692.3,332.3c0.7,0.1,1,0.1,1.3,0.3c0.4,0.2,0.8,0.4,1,1c-0.1,0.8-0.7,0.8-1.3,0.5C692.8,333.7,692.4,333.3,692.3,332.3z"
		/>
	<path d="M658.4,236.9c-1.2-0.1-1.7-0.7-2.2-1.5c0.1-0.3,0.3-0.6,0.4-0.9C657.8,234.9,658.1,235.7,658.4,236.9z"/>
	<path d="M670.7,311.3c-1.5-1.1-1.5-2.1-1.2-3.4C670.3,308.8,670.6,309.6,670.7,311.3z"/>
	<path d="M688.3,329.2c-0.9-0.1-1.9-0.1-2.5-1.1c0.3-0.1,0.6-0.3,0.9-0.3c0.3,0,0.7,0.1,1.2,0.2c0.1,0.4,0.2,0.8,0.4,1.3
		L688.3,329.2z"/>
	<path d="M688.2,329.3c0.7,0.3,1.7,0.1,2,1.1c-1.3,0.5-1.3,0.5-1.9-1.2L688.2,329.3z"/>
	<path d="M622.7,221.5c1.2,0.6,0.6,1.1,0.3,1.7C622.1,222.7,622.2,222.2,622.7,221.5z"/>
	<path d="M620.4,218.9c-0.7-0.2-1-0.5-0.8-1c0.1-0.3,0.5-0.5,0.8-0.3C620.9,217.9,620.8,218.3,620.4,218.9z"/>
	<path d="M690.3,341.9c-1.2,0.4-1.5,0.3-1.6-0.6C689.5,340.9,690.1,341,690.3,341.9z"/>
	<path d="M566,228.9c0.3-0.2,0.5-0.3,0.8-0.5c0,0.2,0.2,0.4,0.1,0.5C566.7,229.2,566.3,229.1,566,228.9z"/>
	<path d="M684.2,326.2c-0.4-0.1-0.6-0.4-0.7-0.8C684.4,325.2,684.5,325.5,684.2,326.2z"/>
	<path d="M667.5,296.8c0.3,0.2,0.3,0.5,0.1,0.8h-0.2C667.2,297.3,667.1,297,667.5,296.8z"/>
	<path d="M686.6,339.1c-0.1,0.1-0.3,0.3-0.4,0.3c-0.2,0-0.3-0.2-0.5-0.3l0.3-0.2C686.3,338.9,686.4,339,686.6,339.1z"/>
	<path d="M617.2,214c0.2,0.2,0.3,0.5,0.6,0.9C617.1,214.7,617.3,214.2,617.2,214L617.2,214z"/>
	<path d="M543.7,292.8c1.2,0.3,2.5,0.6,3.7,0.9c1.2,0.2,2.4,0.4,3.6,0.5c1.3,0.2,2.6,0.2,3.9,0.6c1.1,0.3,2.4,0.3,3.5,1.7
		c-4-0.3-7.5-0.8-11.1-1.7C546,294.4,544.6,294.2,543.7,292.8z"/>
	<path d="M549.8,339c-1.6,1.1-2.7,1.5-3.6,2.4c-0.6,0.6-1.4,0.9-2.3,1c-0.8,0-1.4-0.2-1.6-1.1c0.2-1.3,1.4-1.8,2.1-2.6
		C546.2,338.3,547.7,338.6,549.8,339z"/>
	<path d="M570.6,268.8c0.7,1.9,0,2.7-0.9,3.6C569.4,271.2,569.9,270.3,570.6,268.8z"/>
	<path d="M575.2,282.2c0.1-1.1-0.1-2.4,1-3.6C576.6,280.2,576.1,281.2,575.2,282.2L575.2,282.2z"/>
	<path d="M561.4,298.9c-0.9-0.1-1.1-0.8-1.2-1.5C561.3,297.3,561.4,298,561.4,298.9L561.4,298.9z"/>
	<path d="M561.4,298.9c0.8,0.1,1.1,0.6,1.1,1.4C561.6,300.2,561.3,299.6,561.4,298.9L561.4,298.9z"/>
	<path d="M563.4,301.9c1.5,0.1,1.7,0.6,2,0.9C564.6,303.4,564.5,302.5,563.4,301.9z"/>
	<path d="M579.7,332.7c-1.2-0.4-0.9-1.1-0.9-1.8C579.7,331.4,579.8,332,579.7,332.7z"/>
	<path d="M536.1,287.9c-0.9,0.3-1.6-0.1-2.1-0.8c0.2-0.4,0.4-0.5,0.6-0.3C535.1,287.1,535.6,287.5,536.1,287.9L536.1,287.9z"/>
	<path d="M567.5,277.8c0.1,0.6-0.2,0.7-0.7,0.8C566.7,278.1,567,277.9,567.5,277.8z"/>
	<path d="M579.2,329.2c-0.5-0.1-0.7-0.4-0.7-0.9C579.3,328.2,579.3,328.2,579.2,329.2z"/>
	<path d="M573.3,286.7c0-0.1-0.1-0.2,0-0.3l0.2-0.1C573.5,286.6,573.5,286.7,573.3,286.7z"/>
	<path d="M578.3,326.1c-0.3-0.3-0.3-0.5,0.1-0.7C578.6,325.7,578.7,325.9,578.3,326.1z"/>
	<polygon points="572,289.8 571.8,289.9 571.8,289.6 	"/>
	<path d="M536,287.9C536.2,288.1,536,287.8,536,287.9L536,287.9z"/>
	<polygon points="575.1,282.1 575,282.3 575.2,282.2 	"/>
	<polygon points="564.1,282.1 564.1,282.3 564.2,282.2 	"/>
	<path d="M564.9,281.4c0,0.6-0.2,0.8-0.8,0.7l0.1,0.1C564.3,281.8,564.5,281.5,564.9,281.4L564.9,281.4z"/>
	<path d="M565,281.5c0.1-0.2,0.2-0.4,0.3-0.5C565.7,281.5,565.2,281.4,565,281.5L565,281.5z"/>
	<path d="M510.2,126.8c0-1.1,1.2-1.4,1.1-2.5c0.5,0,1,0.1,1.5,0.1c-0.1,0.4-0.2,0.7-0.3,1.2c3.3,0.5,6.4,0,9.6-0.4
		c3.1-0.4,6.2-0.7,9.8-1.1c-0.9,0.5-0.2,0-0.3,0.4c0,0.1-0.2,0.2-0.3,0.2c-1.1,0.3-2.1,0.6-3.2,0.8c-3.7,0.6-7.4,1.2-11.2,1.8
		c3.8,1.2,4.7,1.2,12.5,0.8c-0.2,0.6-0.8,0.5-1.3,0.7c-0.4,0.2-0.9,0.3-1.4,0.4c-3.7,0.4-7.5,0.5-11.1-0.7
		C513.8,127.8,512,127.3,510.2,126.8z"/>
	<path d="M495.9,141.6c-0.9-0.5-1.5-0.8-1.7-1.6c0.4-1.8,0.4-1.8,2-3.4c2.5-0.2,4.9,0.4,7.4,1.5c-0.6,0.6-1.2,0.4-1.7,0.4
		c-0.6,0-1.1-0.4-1.5-0.2c-1.1,0.6-0.2,1.2-0.3,1.6C499.7,140.7,499,141,495.9,141.6z"/>
	<path d="M531,198.9c-0.3,1-1.2,1.5-1.9,2.1c-2.6,2.4-5.1,4.7-7,7.7c-0.3,0.5-0.7,1-1.6,1.1c0.1-1,0.2-2,0.3-2.9
		c0.3-0.4,0.4-0.7,0.7-0.9c2.8-2.8,5.8-5.4,9.3-7.3L531,198.9z"/>
	<path d="M490.6,136c2.6-4.4,5.5-5.6,11.3-5c-0.1,1-1,1-1.5,1c-3.2,0-5.7,1.5-8,3.6C492,136,491.5,136.5,490.6,136z"/>
	<path d="M533.6,132.3c3.4-3.4,7-6.6,9.7-10.7c0.8,0.6,0.2,1.1,0,1.5c-2.1,3.8-5.1,6.6-8.7,9C534.4,132.2,534,132.2,533.6,132.3z"/>
	<path d="M538.2,111.9c-1,0.5-2,0.7-3.1,0.5c0.1-0.3,0.2-0.7,0.3-1c-1.4-0.6-2.8-1.1-4.4-1.3c2-0.5,3.8-0.1,5.4,1
		C537.1,111.5,537.6,111.9,538.2,111.9L538.2,111.9z"/>
	<path d="M527.9,155.2c0.2,1,0.1,1.9-0.4,2.8c-0.8,1.2-1.2,1.6-2.8,2.4C525.8,157,526,156.7,527.9,155.2L527.9,155.2z"/>
	<path d="M542.5,190.1c-1.7,2.1-3.7,3.8-6.5,4.3l0.1,0.1c1.4-1.9,3.4-3.1,5.4-4.3C541.8,190.1,542.2,190.2,542.5,190.1L542.5,190.1z
		"/>
	<path d="M530.8,198.7c1.4-1.8,3-3.5,5.3-4.2l-0.1-0.1c-1.3,1.9-3,3.4-5,4.5L530.8,198.7z"/>
	<path d="M521.7,171.7c-0.2-2.7-0.2-2.7,0.8-3.5C522.9,169.4,522.3,170.3,521.7,171.7z"/>
	<path d="M521.9,180.7c-0.5-0.6-0.5-1.2-0.1-1.8C522.5,179.5,522.2,180.1,521.9,180.7z"/>
	<path d="M509.3,123.9c-0.3,0.3-0.6,0.2-1,0C508.7,123.5,509,123.6,509.3,123.9z"/>
	<path d="M511.2,117.6c-0.2,0.8-0.8,0.8-1.4,0.7l0.1,0.1C510.2,117.8,510.8,117.7,511.2,117.6L511.2,117.6z"/>
	<path d="M521.9,186c0.3,0.3,0.2,0.6,0,0.9C521.6,186.6,521.5,186.3,521.9,186z"/>
	<path d="M509.1,119.1c-0.3,0.2-0.5,0.4-0.9,0.7C508.4,119,508.9,119.3,509.1,119.1L509.1,119.1z"/>
	<path d="M513.5,108.3c0.2-0.5,0.5-0.5,0.9-0.2C514.1,108.1,513.8,108.1,513.5,108.3L513.5,108.3z"/>
	<path d="M512.8,117c-0.4,0.4-0.9,0.6-1.6,0.6l0.1,0.1C511.7,117,512.3,117.1,512.8,117L512.8,117z"/>
	<path d="M511.3,111.8c-0.3,0.6-0.9,0.5-1.5,0.7v0.1C510.3,112.1,510.9,112,511.3,111.8L511.3,111.8z"/>
	<path d="M509.8,118.3c0.1,0.5-0.2,0.7-0.7,0.8l0.1,0.1C509.2,118.7,509.5,118.5,509.8,118.3L509.8,118.3z"/>
	<polygon points="513.6,116.2 513.7,116.1 513.5,116.1 	"/>
	<path d="M512.9,117.1c0-0.5,0.3-0.7,0.7-0.8l-0.1-0.1C513.3,116.4,513,116.7,512.9,117.1L512.9,117.1z"/>
	<polygon points="509.9,112.5 509.8,112.7 509.9,112.6 	"/>
	<path d="M542.6,190.2c0.1-0.1,0.2-0.2,0.2-0.4v0.2C542.7,190.1,542.6,190.1,542.6,190.2L542.6,190.2z"/>
	<path d="M518.3,270.1c0.3-0.1,0.6-0.4,0.9-0.4c0.8,0,1.7,0.1,2.5,0.3c7.2,1.4,13.8-0.3,20.2-3.6c1.5-0.8,2.9-1.7,4.2-2.5
		c0.4-0.9,0.6-1.7,1.1-2.4c0.8-1.3,1.8-2.5,2.7-3.7c0.8,0.2,0.7,0.7,0.6,1.1c-0.2,0.9-0.7,1.8-0.1,2.7c-2.7,2.5-5.2,4.9-8.1,6.9
		c-6.2,4.4-13.1,5.7-20.6,4.2c-0.9-0.2-1.8-0.6-2.7-1C518.5,271.4,518.2,270.9,518.3,270.1z"/>
	<path d="M544.7,139.4c-0.1,0.9-0.7,1.6-1.4,2.2l0.1,0.1C543.4,140.6,543.7,139.8,544.7,139.4L544.7,139.4z"/>
	<path d="M546.2,136.5c0-0.5-0.1-1,0.3-1.5C546.9,135.7,546.6,136.1,546.2,136.5L546.2,136.5z"/>
	<path d="M544.8,139.5c0-0.6-0.1-1.2,0.7-1.5l-0.1-0.1C545.4,138.5,545.3,139.1,544.8,139.5L544.8,139.5z"/>
	<path d="M545.5,138c0-0.6,0-1.3,0.7-1.5l-0.1-0.1C546,137,546.1,137.7,545.5,138L545.5,138z"/>
	<path d="M542.7,142.4c0-0.4,0.3-0.6,0.7-0.7l-0.1-0.1C543.1,141.8,542.8,142.1,542.7,142.4L542.7,142.4z"/>
	<polygon points="542.6,142.3 542.4,142.4 542.7,142.4 	"/>
</g>
</svg>
