<?xml version="1.0" encoding="utf-8"?>
<!-- Generator: Adobe Illustrator 19.1.0, SVG Export Plug-In . SVG Version: 6.00 Build 0)  -->
<svg version="1.2" baseProfile="tiny" id="Layer_2" xmlns="http://www.w3.org/2000/svg" xmlns:xlink="http://www.w3.org/1999/xlink"
	 x="0px" y="0px" width="900px" height="600px" viewBox="144 97 900 600" xml:space="preserve">
<g>
	<path d="M478.6,126.6c0.3,0.1,0.7,0.2,1,0.2c0.6,0.8,0,1.4-0.2,2c-1.8,4.9-2.9,10-3.9,15.1c-1.6,9.1-1.6,18.3-0.9,27.5
		c0.5,6.9,1.1,13.8,1.4,20.7c0.2,6,0.6,12.1,0.3,18.1c0,0.2,0.1,0.4,0.2,0.7c0.7,0.1,0.5-0.5,0.6-0.9c1.2-5.2,1.6-10.5,2.1-15.8
		c0.1-1,0.1-2,0.5-2.8c0.8-1.7,0.9-3.5,1-5.3c0.3-4.2,0.6-8.5,0.9-12.7c0-0.3,0.1-0.6,0.3-1.1c1.4,9.8-1.3,38.1-4.3,46.2
		c-0.5,0.3-1,0.5-1.5,0.8c-1.4,2.7-1.8,5.8-4,8c0,0-0.2-0.1-0.5-0.2c0.9-2.2,1.7-4.4,2.6-6.7c-0.2-1.2-0.8-2.4-0.6-3.8
		c0.7-4.2,0-8.4-0.4-12.7c-0.6-6.7-1.3-13.5-1.9-20.2c-0.6-7.2-1-14.5-1.1-21.8c-0.1-5.1,0.1-10.2,0.7-15.2
		c0.4-4.2,0.7-8.4,1.5-12.6c0.3-1.3,0.6-2.6,1.2-3.8c1.1-2,2.1-4.1,3.3-6c1.6-2.6,3.6-4.8,6.2-6.5c3.1-2.1,6.3-4,10.1-5
		c2.7,1.4,5.2,3,7.4,5.1c0.9,0.8,1.3,1.7,1.2,2.9c-0.4,0-0.9-0.1-1.3,0.3c-0.1,0.5,0,0.8,0.6,0.8c0.5-0.3,0.6-0.7,0.6-1.2
		c0.8-0.3,1.6-0.6,2.7-0.9c1.5-2.5,3.9-4.5,6.5-6.3c2.7-1.8,5.2-4,8.3-5.1c1.2-0.5,2.5-1,3.8-1.3c4.9-1.1,9.8-1.8,14.8-1.8
		c2.9,0,5.8-0.2,9.2-0.4c4,1.5,8.2,3.5,12.5,5.6c1,0.5,1.8,1.3,2.5,2c1.6,1.6,3.1,3.4,4.8,4.9c1.2,1.1,1.9,2.5,2.4,4
		c0.7,2.1,1.3,4.2,1.9,6.2c0.7,2.4,1.4,4.9,1.5,7.5c0.1,1.5,0.2,2.9,0.4,4.3c0.5,2.7,0.3,5.3-1,7.8c-0.5,1-0.8,2-0.8,3.1
		c0.8,5.6,3.7,10.3,5.6,15.5c-0.9,3-3.9,2.1-6.1,3.2c-1.5,1.3-0.3,3.1-0.4,4.7c-0.2,1.2-1.7,1.4-2.2,2.4c0.9,3.4,0.9,3.4-1.6,6.6
		c0,2.2,0.3,4.5-0.8,6.8c-2.8,2.5-6.2,2.2-9.6,1.9c-2.3-0.2-4.5-0.6-6.9-0.9c-4,5.2-6.3,11.1-9.2,17c2.1,1.1,3.9,1.6,5.8,2
		c1.4,0.3,2.8,0.8,4.1,1.4c4.7,2.3,9.4,4.4,14.4,6c0.1,0,0.2,0,0.3,0.1c3.7,2,7.8,2.5,11.9,2.8c1.1,0.1,2.1,0.3,3.1,0.5
		c3.5-0.7,6.8-1.4,9.9-2c0.9-0.7,0.8-1.4,0.8-2.1c0-1.1,0-2.2,0-3.3c0-35.1,0-70.3,0-105.4c0-1.2,0-2.4,0.1-3.6
		c0-0.6,0.1-1.2,0.7-1.6c0.8-0.1,1.2,0.4,1.2,1c0.1,1.3,0.2,2.7,0.2,4c0,35.3,0,70.5,0,105.8c0,1.4-0.1,2.9,0.3,4.4
		c1.7,0.2,3.2-0.4,4.7-0.8c2.5-0.6,5-0.8,7.6-0.5c5.2,0.5,10.4-0.1,15.6-0.3c6.2-0.3,12.3-1,18.5-1.6c3.6-0.3,7.3-0.2,11-0.3
		c1.7-3,2.5-6.3,3-9.6c0.5-3,0.8-6,1.3-9c0.3-1.6,1-3.2,1.5-4.8c0.5-1.4,0.7-2.7,0.8-4.2c0.2-4,1.1-7.9,2.5-11.6
		c0.2-0.5,0.4-1.2,1.1-1.4c0.2,2-0.4,3.8-1.1,5.7c-0.4,1-0.7,2-0.2,3.1c0.7-0.4,0.4-1.5,1.3-1.6c-0.1,2.1-0.2,4.1-0.3,6.2
		c0,0.5-0.3,0.9-1,0.9c-0.1-1.1-0.3-2.2-0.5-3.8c-0.7,3.3-1.1,6.1-1.9,8.7c-1.1,3.4-1.7,6.8-2.1,10.3c-0.3,3-0.8,6-1.8,8.9
		c-0.2,0.7-0.6,1.3-0.3,2.3c1.4,0.3,2.9,0.7,4.4,1.1c0.3,0.5,0.5,0.9,0.7,1.4c-3.1-0.1-6.2-1-9.4-0.7c-2.9,0.2-5.8,0.1-8.7,0.6
		c-6.1,1.1-12.2,1.8-18.4,2.1c-3.1,0.1-6.3,0.1-9.4,0.6c-1.2,0.2-2.4,0-3.6-0.1c-2.2-0.3-4.4-0.6-6.5-0.2c-4.6,0.9-9.2,1.8-13.9,2.8
		c-0.3,0.1-0.6,0.1-0.7,0.6c3.4,0.4,6.8,0.4,10.1,0.3c1.8-0.1,3.6-0.3,5.4-0.1c5,0.4,9.9,0.1,14.9-0.1c2.2-0.1,4.4-0.1,6.4-0.9
		c5.9-2.1,11.9-3,18.1-3.3c4.6-0.3,9.2-0.6,13.8-0.8c0.6,0,1.2,0,1.6-0.6c1.9,0,3.8-0.3,5.7-0.9c1.1-2.2,2.4-4.3,2.3-6.8
		c-0.2-3.7,0.2-7.5-0.4-11.2c-0.3-2.1-0.1-4.2,1-5.9c1.5-2.2,1.6-4.4,1.3-6.8c-0.6-0.5-0.8-1.3-1.9-1.1c-0.5,2.9-2.4,5.5-2.2,8.6
		c0,0.8-0.4,1.7-0.8,2.3c-1.3,1.7-1.6,3.7-1.6,5.7c0,1.1-0.3,2-1.3,2.8c-0.2-0.4-0.4-0.7-0.3-0.8c0.7-3,0.9-6.2,2.3-9.1
		c0.3-0.5,0.5-1.2,0.5-1.7c0-1.6,0.5-3.1,1-4.6c0.4-1.1,0.6-2.3,0.7-3.5c0.3-3.1,0.9-6.2,1.6-9.3c0.3-1.4,0.4-2.9,0.6-4.3
		c0-0.5,0-1-0.8-1.2c-1.2,1.5-1.5,3.4-1.7,5.3c-0.3,2.2-1.1,4.2-2,6.1c-0.2,0.4-0.5,0.8-1.1,0.8c0.3-1.3,0.5-2.6,0.9-3.9
		c0.9-3,1-6.2,2.4-9.1c0.2-0.5,0.2-1.2,0.2-1.8c0-0.5-0.4-0.9-1.1-1c-0.2,1.4-0.5,2.8-0.7,4.2c-0.2,1.6-0.6,3.1-1.7,4.3
		c0-1-0.1-2,0.1-2.9c0.4-2,0.7-4,0.6-5.7c0.6-1.4,1.3-1.9,2.5-1.7c1.7,1.5,2.5,3.7,3.5,5.7c0.7,1.3,0.4,3.1,0,4.6s-0.9,3-1.3,4.5
		c-0.2,0.8-0.3,1.7-0.4,2.5c1,1.6,2.7,2.5,3.6,4.6c0.3,1.4,0.5,3.2,0,5.2c-0.5,0.7-1.1,1.6-1.8,2.6c-0.2,1.3-0.3,2.8-0.9,4.1
		c1.2,3.1,0.5,6.3,0.7,9.4c0.3,3.1-0.6,5.9-1.6,9c15,0.9,29.7-0.2,44.1-3.6c1.1-2.3,1.3-4.8,0.7-7.1c-0.6-2.3-0.1-4.6-0.6-6.9
		c-0.1-0.4,0.1-1,0.2-1.4c0.5-3.2,1.1-6.4,1.7-9.6c0.2-0.8,0.5-1.6,0.7-2.3c1.2-0.9,1.8,0.4,2.5,0.6c0.8-0.4,0.9-1.2,1-1.9
		c0.8-4.2,2.3-8.1,3.2-12.3c0.8-3.6,2.2-7.2,3.5-10.7c0.6-1.5,0.6-3.1,0.8-4.5c0.6-0.8,1.2-1.4,2.2-1.2c2.1,2.7,2.6,4.4,3.4,12.9
		c2.2,1.9,2.8,4.5,2.7,7.3c-0.1,3.1-0.4,6.3-0.8,9.4c-0.2,1.6-0.3,3.1,0.3,4.6c0.6,1.6,0.8,3.3,0.9,5c0.1,3.6,0.3,7.3,0.1,10.9
		c-0.1,2.1-0.3,4.1-0.9,6.1c-0.5,1.5-0.8,3-0.7,4.6c0.1,2.5-0.8,4.8-2.7,6.5c-2.6,2.4-5.3,4.5-9,5.2c-1.9,0.3-3.7,1.2-5.6,1.6
		c-5.6,1.2-10.6,4-15.9,6c-3.8,1.5-7.7,3-11.6,4.2c-2.1,0.6-4.1,1.4-6.1,2.3c-6.1,2.8-12.4,4.7-18.9,6.4c-4.9,1.3-9.9,2.2-14.9,3.1
		c-4.1,0.8-8.4,0.9-12.6,1.2c-2.2,0.1-4.4-0.2-6.4-1.1c-1.2-0.5-2.3-0.7-3.5-0.6c-6.3,0.4-12.6,0-18.9,0c-3.2,0-6.3,0-9.4,0.1
		c-0.6,0-1.2-0.1-1.7,0.3c-0.6,0.6-0.4,1.4-0.5,2.1c0,1,0,1.9,0,2.9c0,74.8,0,149.5,0,224.3c0,1.5,0,2.9,0,4.3
		c0.3,0.5,0.5,1,0.8,1.3c1.6,2.2,2.1,4.7,1.5,7.2c-0.4,1.6-0.3,3.1-0.1,4.7c0.4,3.4,0.6,6.8,0.2,10.1c-0.2,1.7-0.5,3.3-1.1,4.9
		c-0.8,2.1-1,4.4-0.6,6.8c0.8,4.3,1,8.7,1.8,12.9c1.3,7.4,1.4,14.9,1.5,22.4c0.1,8.6,0.7,17.2,1,25.8c0.1,2.8,0.2,5.6,0.2,8.4
		c0,2.9,0.2,5.8,0.9,8.6c1.5,6.5,3.3,12.9,5.2,19.3c0.2,0.7,0.5,1.3,0.8,2.1c0.8,0.2,1.6,0.5,2.4,0.6c10.6,1.8,21.2,3.6,31.9,5.4
		c9.1,1.5,18.1,3.1,27.2,4.6c6,1,11.9,2,17.9,3c1.3,0.2,2.6,0.2,4,0c1.2-0.2,2.4-0.2,3.7-0.3c-0.7,0.9-1.7,0.2-2.4,1.2
		c21.4,3.8,42.7,7.3,64.1,10.9c21.4,3.7,42.7,7.3,64.1,10.9c21.4,3.6,42.7,7.2,64.1,10.8c1,1.2,0.8,2.2-0.5,3.3
		c-8.8-1.3-17.5-2.9-26.4-4.4c-8.8-1.5-17.7-3-26.5-4.4c-8.8-1.5-17.7-3-26.5-4.5s-17.7-3-26.5-4.5s-17.7-3-26.5-4.5
		s-17.7-3-26.5-4.5s-17.7-3-26.5-4.4c-8.8-1.5-17.7-3-26.5-4.4c-8.8-1.5-17.7-2.9-26.5-4.5c-19.7-3.5-24.1-4.2-26.4-3.9
		c0,0.8,0.3,1.5,1,1.8c3.6,1.4,5.3,4.4,6.3,7.7c0.9,1.3,2.1,2,3.3,2.6c2,1.1,4.1,2.1,6.2,3c2.3,1,4.6,2.2,6.7,3.7
		c2.1,1.5,4.3,2.7,6.4,4c5,1.5,10.2,0.4,15.2,1c2.8,1.4,4.4,4.1,6,6.6c0.6,1,0.5,2,0.1,3.1c-0.6,1.9-2.3,3.1-3.4,4.7
		c-0.1,0.1-0.3,0.2-0.3,0.2s0.1-0.2,0.2-0.3c0.9,0.3,1.6-0.3,2.4-0.6c2.7-1.3,5.4-2.7,8.1-4.1c0.9-0.4,1.6-1.1,2.7-1l-0.1-0.1
		c0,0.6-0.4,0.9-0.8,1.1c-6.4,3.3-12.8,6.8-19.5,9.6c-0.2,0.1-0.5,0.1-0.8,0.2c-0.7,0.2-1.3-0.4-2.1-0.5c-0.3,0.1-0.6,0.1-1,0.2
		c-0.9,0.3-1.8,0.6-2.7,1c-4,1.6-8,2.5-12.3,2.5c-3.6,0-7.2,0.4-10.8,0.6c-4.3,0.2-8.4-0.4-12.6-1.2c-2-0.4-4-0.7-6.1-1.1
		c-0.9,0.3-1.8,0.7-2.8,1s-2.1,0.7-3.1,0.9c-6.8,0.8-13.7,1.3-20.6,0c-2.7-0.5-5.4-1.3-8.2-1.2c-2-1.1-3.7-2.3-4.7-4.4
		c-0.3-0.7-0.4-1.4,0.2-2.1c0.3,0,0.6,0,1,0c1.1,2.9,3.4,3.9,6.2,4.3c3,0.4,6,0.7,9,1.1c4,0.6,8,0.5,12,0.1c1.3-0.1,2.8-0.1,3.9-0.6
		c3.7-1.7,7.6-1.2,11.4-0.8c1.7,0.2,3.4,0.3,5.1,0.4c1.1,0,2.1,0.2,3.2,0.4c2.5,0.5,5,0.9,7.6,0.7c3.6-0.2,7.2-0.5,10.9-0.6
		c2.4-0.1,4.8-0.5,7.1-1.3c3.3-1.2,6.6-2.3,9.9-3.5c2.8-1,5.3-2.4,7.6-4c1.7-4.3-1-6.6-3.6-9.2c-2.4,0-4.8,0.1-7.2,0
		c-1.6-0.1-3,0.4-4.4,1.2c-3.2-1-5.7-2.8-8.3-4.5c-0.8-0.1-1.1,1-1.8,0.7c-1.9-0.6-2.1-2.3-2.5-3.7c-1-0.8-2.2-1-3.2-1.4
		c-0.7,0.9-0.6,2.2-1.8,2.5c-2.3-0.6-0.9-2.9-1.7-4.3c-0.6-0.4-1.3-0.8-2-1.2c-1.3,0.6-1.7,2.7-3.6,2.1c-0.9-0.6-1-1.5-1-2.5
		c0-0.9,1-1.8,0-2.6c-1.4,0-1.3,1.7-2.4,2.1c-1.1-0.2-2.3,0.5-3.5,0c-0.4-0.4-0.6-0.8-0.3-1.6c1.2-1.4,3.2-2.6,3.5-4.9
		c-0.4-1-0.9-1.8-1.8-2.3c-2.5-1.6-5.1-3.3-7.5-4.9c-1,0-1.9,0.1-2.9,0.8c0.5,0.8,0.5,1.7,1.5,2c0.8,0.1,0.7-1,1.4-1
		c0.9,0.7,1,1.8,1.3,3c-2.2,5.2-6.1,8.8-11,11.4c-1.9,1-4.1,1.5-6.3,1.4c-1.2,0-2.4-0.2-3.5-0.9c-3.1-2.1-6-4.4-7.7-8
		c-0.6,0-1-0.6-1.9-0.2c-1,1.9-2.4,3.9-2.7,6.4c0.1,0.5,0.1,1,0.3,1.4c0.6,1.7,0.2,3.2-0.2,4.9c-0.9,3.5-2,7-3.7,10.2
		c-0.1,0.2-0.2,0.4-0.2,0.7c-0.7,2.9-2.5,4.9-4.9,6.5c0-0.7,0-1.4,0-2.3c1.6-1.6,2.3-3.7,3.2-5.9c1.5-3.8,2.8-7.7,4-11.9
		c-0.3-1.8-0.8-3.8-0.6-5.9c0.1-1.5,0.4-2.9,1.8-3.8c1.4-1,1.4-3.1,3.1-3.7c0.1-1.3,0.1-2.4,0.2-3.7c-2.9-7.1-5.3-14.6-7.5-22.1
		c-0.9-3-2.1-5.9-3.3-8.8c-2.2-5.5-4-11.2-5.8-16.8c-0.5-1.6-1.1-3.2-1.8-4.7c-1.8-3.7-3.3-7.5-4.3-11.6c-0.4-1.6-1-3.2-1.4-4.9
		c-1.6-5.5-2.2-11.1-2-16.9c0.1-1.4,0.2-2.9,0.7-4.3c0.7-1.9,0.8-3.8,1-5.7c0.6-7.4,0.4-14.8,0.5-22.1c0-1.5-0.5-2.8-1.1-4.1
		c-2.2-2.4-5.1-3.8-7.6-5.7c-2.4-1.9-4.4-4.2-7.1-5.5c-3.2-1.6-6.5-3.3-9.7-4.9c-3.5-1.7-7.1-3.2-10.5-4.9c-5-2.5-9.9-5.1-14.7-7.8
		c-3.8-2.1-7.5-4.3-10.8-7.4c-1.4,0.9-1.8,2.4-2.4,3.7c-0.9,1.8-1.6,3.7-3.3,5.1c-0.7,0.6-1.1,1.6-1.5,2.4
		c-1.9,3.4-3.8,6.8-5.6,10.2c-2.3,4.3-4.9,8.3-8.1,12c-6.1,7.1-12.3,14-19.6,19.8c-0.9,0.8-1.8,1.6-2.7,2.4l0.1,0.1
		c-0.3-0.4-0.6-0.5-0.9,0l0.1-0.1c-1.5,0-2.4,0.8-3.1,2.1c-2.2,4.3-5.6,7.6-9,10.8c-0.2,0.2-0.3,0.4-0.5,0.5c-3.2,1-5,3.7-7.3,5.8
		c-2.1,2-4.2,4-6.7,5.6c-1.6,1.1-3,2.5-3.9,4.2c-0.6,1.2-1.4,2.3-2.3,3.3c-2.9,3.3-5.2,7-7.7,10.6c-2.3,3.3-4.7,6.5-7,9.7
		c-1.9,2.6-4,5.1-5.7,8c-0.7,1.1-1.5,2.2-2.4,3.2c-4.4,4.8-8.6,9.8-13.5,14.2c-1.1,1-2.1,1.9-2.7,3.3c-0.6,1.3-1.6,2.4-2.5,3.6
		c-4.9,6-9.4,12.3-14.1,18.5c-1.8,2.4-3.7,4.8-5.6,7.1c-0.4,0.6-1.1,1-1.2,1.8c0,0.9,0.6,1.5,0.9,2.4c0.8,0.7,1.9,1,2.6,1.9
		c2.6,3.4,5.8,6.1,8.9,9c1.4,1.3,3,2.5,3.5,4.4c0.8,0.3,1.5,0.6,2.2,0.8c3.7,1.1,6.8,3.2,9.5,5.9c0.6,0.6,1.2,1.2,1.8,1.8
		c1.2,1.1,2.6,1.9,4.2,2c3.6,0.2,7.2,0.9,10.8,0.6c0.5,0,1-0.2,1.4,0c2.3,0.7,4.6,0.4,6.8,0.1c3-0.4,6-0.5,9-0.5l-0.1-0.1
		c-0.5,0.7-1.3,0.6-2,0.7c-2.9,0.3-5.7,0.6-8.6,0.9c-0.5,0.1-1,0.1-1.3,0.8c0.4,0.8,0.8,1.8,1.2,2.8c0.8,2.2,0.8,4.2-0.7,6.1
		c-1,1.3-1.7,2.8-2.8,4.7c1.7-0.5,2.8-0.8,3.9-1.1c9.2-2.9,18.4-5.8,27.6-8.7c2.5-0.8,5.1-1.4,7.7-2.1c1.2-0.3,2.3-0.6,3.6-0.4
		l-0.1-0.1c-0.2,0.5-0.7,0.6-1.1,0.8c-13.8,3.7-27.2,8.7-40.9,12.6c-1.2,0.3-2.3,0.7-3.2,1.6c-3.3,3.1-7.4,4.5-11.7,5.4
		c-1.7,0.3-3.3,0.6-5,0.9c-6.7,1.3-13.5,0.9-20.3,0.4c-4.1-0.3-8.2-0.7-12.3-1.1c-0.4,0-0.7,0-1.1-0.1c-5.5-1.2-10.8,0.1-16.2,1.1
		c-2.1,0.4-4.3,0.8-6.4,1c-2.5,0.3-5,0-7.5-0.7c-3.6-1.1-7.3-1.8-10.9-2.8c-1.4-0.4-2.7-1-4.1-1.6c-0.7-0.3-1.2-0.8-1.3-1.6
		c0-1.2,1.2-1,1.8-1.5c2-2.5,3.1-5.2,2.8-8.4c-0.1-0.8,0.2-1.7,0.4-2.6c2.2-2.1,2.9-4.8,3.1-7.8c0.1-2.3,0.4-4.6,1.3-6.7
		c0.4-1.1,0.4-2.4,0.6-3.6c0.3-1.4,0.6-2.8,1.3-4.1c0.4-0.8,0.9-1.4,1.9-2c2,0.2,4.1-0.5,6.2,0.2c1.2-1.8,2.2-3.5,3.7-5.1
		c1.4-1.5,2.3-3.4,3-5.3c1.5-3.7,2.9-7.4,4.4-11.2c2-5.2,4.4-10.2,6.8-15.3c0.7-1.4,1.3-2.9,1.8-4.3c1.6-4.7,3.1-9.4,4.6-14.2
		c1.2-3.7,2.8-7.2,4.6-10.6c1.3-2.5,2.6-4.9,4.1-7.3c3.2-4.9,6-9.9,8.7-15.1c1.7-3.2,4.2-5.9,6.6-8.7c0.3-0.4,0.7-0.7,1.1-0.8
		c1.1-0.2,1.6-1.1,2.2-1.8c3.7-4.4,7.9-8.2,12.4-11.7c4-3.2,7.9-6.4,11.8-9.7c0.4-0.3,0.7-0.7,1-1.1c0.2-0.7,0.5-1.4,0.6-2.1
		c1.8-7.1,5.8-13,10.6-18.4c0.7-0.8,1.7-1.5,2.1-2.5c0.9-2.5,2.8-4.5,3.6-7c3.4-10.4,7.4-20.5,12.6-30.1c2.2-4.2,4.1-8.5,5.9-12.8
		c2.1-4.9,4.1-9.8,6.9-14.4c0.4-0.6,0.7-1.3,0.8-2c0.1-1,0.9-1.3,1.5-2c0.3-1.7,0.6-3.5,0.8-5.3c-0.2-0.8-1-0.9-1.6-1.3
		c-2.5-1.7-4.3-4-5.5-6.6s-2.2-5.4-3.1-8.1c-1.4-4.4-1.2-8.9-0.5-13.3c1-6.4,3.1-12.4,5.9-18.2c1-2.1,2.3-4,3.7-5.8
		c0.7-0.8,1.4-1.6,1.6-2.8c0.1-0.6,0.8-1.2,1.3-1.7c2.8-2.7,5.7-5.3,8.7-7.7c1.8-1.4,3.5-3,5.2-4.6c1.3-1.1,2.4-2.4,3.8-3.4
		c2.5-1.7,4.4-4.1,7-5.7c0.3-0.2,0.5-0.5,0.7-0.8c2.5-3.6,5.6-6.7,8.2-10.2c2.3-3.2,3.9-6.9,4.7-10.9c0.2-0.8,0.1-1.7,0-2.5
		c-0.9-4.9-1-9.9-1.3-14.8c-0.2-2.8-0.6-5.5-1.2-8.2c-1.5-6-2.9-12-3.7-18.1c-0.4-2.6-0.5-5.3-0.8-7.9c-0.1-1.1-0.3-2.2-0.5-3.2
		c-1.5-6.1-2.6-12.3-3.1-18.6c-0.4-5.5,0.2-10.9,1.5-16.2c0.6-2.5,0.8-5,1.2-7.4c-0.2-0.9-1-0.8-1.3-1.3c-0.1-0.4-0.1-0.7-0.2-1.1
		c0.1,0,0.2,0,0.3,0l0.1-0.2c-0.2-0.1-0.3,0-0.4,0.3c-1.3,0.9-1.7,2.3-2.5,3.5c-1,1.5-1.7,3.2-3,4.3c-0.6,0.1-0.8-0.1-1-0.4
		c0-1.1,0.7-2,1.2-2.9c3.5-6.8,7-13.6,9.5-20.8c3.4-9.9,5.4-20.1,6.1-30.5c0.6-7.8,0-15.5-0.5-23.2c-0.1-1.6-0.2-3.1-0.3-4.7
		l-0.1,0.1c1,1.7,1.1,3.6,1.5,5.5c1.6,6.6,1.7,13.4,1.7,20.1c-0.1,9.7-1.5,19.2-4.2,28.5c-0.2,0.8-0.2,1.7-0.3,2.5
		c-0.4,0.2-0.8,0.4-0.2,1c0.1-0.4,0.1-0.7,0.1-1.1c1-0.8,1.2-2.1,1.5-3.2c2.6-7.6,4.2-15.4,4.6-23.4c0.3-6.8,0.5-13.5,0.6-20.4
		c0.7,0.8,0.3,1.7,0.4,2.5c0.1,2.1,0.3,4.1,0.7,6.1c0.4,2.2,0.5,4.6,0.8,6.9c0.1-2.8,0.2-5.5,0.2-8.3c0-6.2,0-12.4,0-18.5
		c0-3.2,0.2-6.3,1.4-9.3c0.8-2.1,1.2-4.4,1.9-6.6c0.6-1.8,1.3-3.6,3.2-4.5c0-0.7,0-1.2,0-1.6c0-0.2-0.3-0.3-0.4-0.5
		c-0.2,0.1-0.5,0-0.7,0.2c-3.4,4.2-5.6,9.1-7.3,14.1c-0.3,0.8-0.5,1.7-0.4,2.5c0.4,2.5-0.1,4.8-0.3,7.2c-0.2,2.7-0.3,5.3-0.2,8
		c0.1,3.1-0.1,6.3-0.4,9.4c-0.1-6.4-0.2-12.9-0.3-19.3c-0.3-0.6-0.6-1.1-0.9-1.6c0-0.3,0-0.5,0-0.8c0.5-3.9,1.5-7.6,2.6-11.3
		c0.6-2.2,1.7-4.3,2.8-6.3c1.1-1.8,2.2-3.5,4.1-4.6c-2.2-3.5-5.2-5.2-9.2-4.8c0.2-1,1-1.1,1.6-1.2c2.3-0.5,4.3,0.3,6.1,1.6
		c0.8,0.6,1.4,1.6,2.9,1.8c-1.8-2.5-3-5-5.1-7c-0.9-0.2-1.9-0.5-2.9-0.8c-3.9,1.6-6.8,4.2-8.6,8c-2,4.2-3.2,8.6-3.9,13.1
		c0.4,0.4,0.7,0.8,1.1,1.3c0,0.6,0,1.3-0.1,2c-1.2,7.4-1.6,14.9-1.4,22.4c0.1,5.2,0.2,10.4,0.2,15.6c0,0.7,0,1.5,0.1,2.2
		c0.1,1.2,0.2,2.4,0.1,3.6c-0.1,1.4-0.4,2.7-0.9,4.1c-0.1-2.1-0.1-4.1-0.2-6.2c-0.1-1.6-0.1-3.1-0.2-4.7c-0.3-5.4-0.8-10.9-1-16.3
		c-0.2-5.3,0.3-10.6,0.7-16c0.2-1.8,0.4-3.6,0.4-5.4c0.1-5.7,1.3-11,3.6-16.2c0.1-0.3,0.3-0.7,0.4-1c0-0.1,0-0.2-0.1-0.5
		c-1,0.3-1.5,1.1-2.2,1.7C479.7,125.1,478.9,125.7,478.6,126.6c-0.8,0.3-1.3,1-1.7,1.8c-1.2,2.2-2.4,4.5-3,7c-0.5,2.1-1,4.3,0.1,6.6
		c0.2-0.7,0.4-1.3,0.5-1.8c0.9-4.3,2-8.5,4-12.4C478.6,127.4,478.5,127,478.6,126.6z M562.2,115.8c0-0.5-0.2-0.8-0.7-0.7
		c-1-2.2-1.8-2.9-4.4-3.6c-0.2-0.9-0.9-0.7-1.5-0.7c0.1-0.3,0-0.4-0.3-0.5c0.1,0.1,0.2,0.3,0.4,0.4c0,0.3,0,0.5,0,0.8
		c-1.4,0-1.6-1.2-2.1-2c-4.4-1.6-8.7-2.2-13.3-1.7c-1.1,0.1-2.2,0.3-3.2,0.4c-2.5,0.3-5,0.7-7.5,1c-4.2,0.6-8.4,1.1-12.2,3.1
		c-2.6,1.4-5.5,2.5-7.5,4.9c-0.1,0.1-0.2,0.2-0.2,0.2s0-0.1,0.1-0.2c0.6-0.1,1.2,0,1.8-0.2c5.4-2.1,11.2-3.2,16.8-4.5
		c0.6-0.1,1.3-0.4,2.1,0.3c-3.8,1.1-7.5,2.1-11.2,3.2c-3.3,0.9-6.5,1.9-9.6,3.4c-3.2,1.5-5.7,3.6-7.3,6.6c-0.5,0.2-1,0.4-1.4,0.5
		c0.1,1,0.4,1.8,1.2,2.2c1.3,0.6,2.1,1.6,3,2.6c3,2.9,6.4,5.1,9.6,7.7c0.6,0.5,1.6,0.7,1.6,1.8l0.1-0.1c-1.8-0.1-3-1.4-4.4-2.3
		c-0.8-0.5-1.6-1.1-2.4-1.6c-0.7-0.5-1.4-1.2-2.8-1.6c1.7,2.6,3.4,4.4,5.4,5.9c1.8,1.4,3.7,2.7,5.5,4l0.1-0.1
		c-0.6-0.1-1.2-0.1-1.8-0.2c-0.6-0.1-1.2-0.3-1.7-0.5c-0.7-0.3-1.3-0.6-2-0.9c-0.5-0.3-1-0.6-1.6-0.9c-0.4-0.2-0.8-0.9-1.5-0.2
		c1.6,2.1,3.3,4.1,5.3,5.8c0.4,0.4,1,0.7,1,1.4l0.1-0.1c-0.2,0-0.5,0.1-0.7,0c-3.2-1.8-6-4.2-8.2-7.1c-1.5-2-2.7-4.3-3-6.9
		c-0.2-1.3-0.4-2.6-0.6-3.9c-0.1-0.6-0.3-1.1-1.3-1.1c-0.6,2.4-1.5,4.8-0.4,7.4c0.3,0.6,0.2,1.4,0.2,2.2c-0.1,3.2,0.1,6.3,0.3,9.4
		c0.4,5,2,9.7,3.8,14.2c4.9,2.4,7.4,6.3,8.3,11.4c-0.4,2.2-1.2,4.4-0.1,6.7c0.3,0.6,0.1,1.5-0.2,2.1c-0.5,1.2-1.1,2.4-1.7,3.6
		c-1,1.8-2.1,3.6-2.9,5.4c-0.8,1.7-1.6,3.2-3,4.5c-0.8,0.7-1.3,1.7-2.1,2.5c-0.8,0.9-1.6,1.6-3,3c2.7-0.6,4.7-0.9,6.7-1.5
		c2.4-0.6,4.8-0.8,7.2-0.4c5.3,0.9,10.3,2.5,15.3,3.9c0.4,0.7,0.8,1.2,1.1,1.7c0.1,0.1,0.2,0.1,0.4,0.2c2.3-0.1,4.6,0.9,7.2,0.6
		c0.8-3.2,1.3-6.4,2.8-9.4c1.4-2.9,2.5-6,4.1-8.5c2.3-1.4,4.5-1.3,6.6-0.7c2.6,0.8,5.3,0.8,7.9,1.2c1.1,0.2,2.2,0.1,3-0.6
		c1.6-2.1,0.8-4.5,1.1-6.7c0.8-1.2,1.6-2.2,2.2-3.4c0.6-1.1,0.4-2.1-0.3-2.7c-1.5-0.7-2.4,0.5-3.4,0.4c-0.7-0.1-1.5-0.2-1.5-1.2
		c0.2-0.5,0.5-0.8,1.1-0.9c1.1-0.1,2.2-0.1,3.3-0.1c1,0,1.9-0.3,2.6-1.1c0.5-1.4,0-2.8-0.2-4.3c-0.8-0.5-2.3-0.3-2.2-2
		c2.4,0.2,4.7-0.5,7.1-0.6c0.9,0,1.9-0.3,2.2-1.4c-2.2-3.2-3.8-6.5-5.1-10.1c-1.3-3.5-1.3-6.9,0.9-10c0.1-0.2,0.2-0.4,0.2-0.7
		c-0.4-1.8-1.1-3.5-1-5.3c0.1-4.7-0.9-9.1-2.2-13.6c-0.1-0.2-0.3-0.4-0.4-0.6c-1.3,0.2-1.6-1.2-2.5-1.7c-0.5,0.1-0.9,0.2-1.4,0.4
		c-2.6-3.8-3.9-5.2-7.4-7.4c-4.4-2.9-9.2-4.9-14.8-5.8c4.9-0.2,6.3-0.1,9.3,1.1c1.6,0.6,3.1,1.4,4.6,2.1c0.8,0.3,1.4,1,2.3,0.8
		c0.1,0.1,0.1,0.2,0.2,0.3c0,0-0.1-0.1-0.3-0.2c-0.1-0.7-0.8-1.1-1.2-1.6c-0.4-0.4-0.9-0.7-1-1.4c0.5,0,1,0,1.6,0
		c1.1,1.6,2.6,2.8,4.4,3.6C561.5,115.5,561.8,115.8,562.2,115.8c0.1,0.4,0.4,0.6,0.9,0.6v0.2l-0.1-0.1
		C562.8,116.2,562.6,115.9,562.2,115.8z M712.6,190.5c1.1-0.8,1.3-1.9,1.5-3c-0.2-0.7-0.4-1.3-1.3-1.5
		C712.8,187.6,712.8,189.1,712.6,190.5c-0.1,0.4-0.6,0.5-0.1,1.1C712.6,191.2,712.6,190.9,712.6,190.5z M479.4,227
		c4.4-4.4,7.9-9.4,10.9-14.9c0.9-1.6,1.5-3.3,1.6-5.1c0.3-3.6,0.7-7.2,1-10.8c0.1-1.3,0.2-2.7-0.2-4.6c-1.4,8.8-3.7,16.8-7.4,24.3
		c-1.5,2.9-3.1,5.7-4.9,8.5C479.9,225.2,479.2,226,479.4,227l-0.2,0.1L479.4,227z M448.1,427.7L448.1,427.7c0.4,0.6,1.2,1.1,1.3,2.2
		c0.1,1.7-1,3.3-1.4,5.1c1.2,0.9,2.5,1,3.8,1.3c9,2.5,18,5,26.6,8.6c2.7,1.1,5.2,2.6,7.9,3.7c2.4,1,4.6,2.2,6.6,3.7
		c1.9,1.4,4,2.7,6,3.7c0.9-0.4,1.1-1.1,1.4-1.8c2.3-4.9,4.6-9.9,6.9-14.8c2.1-4.6,3.8-9.4,5.2-14.3c0.8-2.9,1.7-5.8,2.5-8.7
		c2.3-8.1,5.7-15.7,10.8-22.4c0.6-0.8,1.1-1.6,1.6-2.4c0.4-0.6,0.9-1.2,0.5-2.2c-5.9-5.7-12.1-11.5-20.2-14.5c-1,0.8-1,2.2-2.2,2.6
		l0.1,0.1c-0.5-1.2,0.9-2.3,0.4-3.5c-2.1-1.5-4.5-2.4-7-3c-5.6-1.3-11-3.2-16.8-4c0.4-0.4,0.7-0.6,1-0.8c-2.6-0.8-5-1.5-7.4-2.3
		c-2.1-0.6-4.2-1.1-6.4-1.1c-1.7,0-3.4-0.3-4.8-1.2c-4.5,2.9-8.5,6.1-11.9,10.1c-3.4,4.1-6.9,8.1-9.6,12.7c-1.2,2.1-2.3,4.3-3,6.6
		c-1.1,3.2-1.7,6.6-2.1,9.9c-0.2,2.2-0.9,4.6,0.6,6.7c0.2,0.3,0.1,0.7,0.1,1.1c0.2,1.3,0.3,2.6,0.5,4c0.7,4.6,2.6,8.5,5.9,11.8
		C446.2,425.5,447.1,426.6,448.1,427.7z M563,507.6c-1.4-0.2-1.9-1.8-3.2-2.2c-0.5,2.6,1.3,4.8,1.5,7.5c-0.8,0.8-0.7,2-0.8,3.2
		c-0.3,6-0.5,12.1-1.8,18c-1.2,5.9-1.1,11.8,0,17.7c1,5.6,2.5,11.1,4.2,16.5c0.2,0.7,0.4,1.4,1.1,1.8c1.1,0.8,1.6,2.1,2,3.4
		c0.5,1.5,1,3,1.5,4.5c2.6,8.6,5.3,17.1,8.9,25.3c1.2,2.9,2.4,5.8,3.6,9c-0.5,1.1-0.2,2.3,0.3,3.6c1.4,3.6,2.7,7.3,3.8,10.5
		c-0.2,1.9-1.2,3.2-0.1,4.8c1.2,0.5,2.6,1,3.9,1.6c0.7,0.4,0.9,1.1,0.3,1.9c-0.4,0.2-0.9,0.3-1.6,0.6c1.4,1.5,2.7,2.8,4.1,4.2
		c0.5,0.2,0.9,0.3,1.4,0.5c4.4,1.4,8.4,0.6,11.8-2.5c1.9-1.7,3.6-3.6,4.9-5.8c-0.2-0.4-0.3-0.7-0.5-1c-2.7-4.3-5.2-8.7-6.3-13.7
		c-0.3-1.2-0.7-2.3-1.1-3.5c-2-6.5-4.1-12.9-4.8-19.7c-0.4-3.8-1.1-7.7-1.1-11.6c0-3.3-0.1-6.5-0.1-9.8c0-1.4-0.2-2.6-0.7-3.4
		c0.3-14,0.3-27.6-2.5-41.5c-0.1-0.1-0.9-0.5-0.9-1.3c0-6.4,0.6-12.8,1.8-19.1c0.2-0.8,1.2-0.9,1.5-2c0-0.3,0.2-0.9,0.1-1.5
		c-1-4.5-1.3-9.1-1.4-13.7c0-1.1-0.1-2.2-0.7-3.1c-2.4-3.8-5-7.5-8.3-10.5c-4.2-3.8-8.3-7.8-11.8-12.3c-4.3-5.6-8.9-10.8-14-15.7
		c-9.2-8.8-18.9-17-29-24.7c-0.4-0.3-0.9-0.9-1.5-0.6c-3.7,6.5-9.4,10.7-15.6,14.2c-0.8,1.7-1.5,3.3-2.2,4.8c-1.4,3-2.9,5.9-4,8.9
		c-1.7,4.6-3.8,8.9-6.4,13c-0.4,0.7-1.1,1.3-1,2.1c0.2,0.8,0.7,1.1,1.2,1.5c1.9,1.3,3.8,2.6,5.8,3.7c7.2,4,14.2,8.3,21.7,11.7
		c0.5,0.2,1.1,0.5,1.6,0.9c1.1,1,2.5,1.5,3.8,2.1c3.6,1.6,7.3,3.3,10.7,5.3c2,1.2,4,2.3,5.6,4c1.3,1.3,2.7,2.4,4.3,3.4
		c1.9,1.2,3.9,2.4,5.2,4.3c0.8,0.2,1.5,0.4,2.2,0.6C561.3,504.8,562.8,505.8,563,507.6L563,507.6z M491,227c-0.7,0.4-0.8,1.2-1,1.9
		c-2.9,7.9-3.8,16-3.2,24.3c0.1,1.1,0.3,2.2,0.7,3.2c1.8,5.1,4.4,9.7,8.5,13.3c4.2,3.7,9,6.1,14.4,7.4c4.6,1.2,9.3,1.6,14,2
		c3.8,0.3,7.5,0.1,10.9-1.5c4.3-3.6,6.9-8.1,8.9-13.1c1.9-4.7,3.5-9.6,4.6-14.5c0.2-0.7,0.6-1.4-0.1-2.3c-4.9-0.6-9.9-1.9-14.9-3
		c-1,3.7-2.2,5.3-5.7,7.5c0.4-2.7,3.2-4.4,3.3-7.5c-1.7-0.3-3.2-0.1-4.8-0.1s-3.1,0-4.7,0c-1.5,0-3.1-0.1-4.7-0.1
		c0.2-0.6,0.5-0.8,0.8-0.9c3.4-0.4,6.7-1.3,10.1-1.4c1.4,0,2.9,0,4.3,0.2c2.4,0.4,4.7,0.9,7.1,1.4c4.7,0.9,9.4,2.5,14.3,2
		c0.3,0,0.7,0.1,1.1,0.2c3.9,0.8,7.9,1.1,11.9,1.5c3.1,0.3,6.3,0.6,9.4,1c1.5,0.2,2.9,0.4,4.3,0.2c5.9-0.8,11.9-0.5,17.8-1
		c1.8-0.2,3.6,0,5.4,0.1c1.5,0.1,2.9,0.2,4.4,0.2c4.7,0.1,9.4,0.1,14.2,0.2c1.2,0,2.4,0.2,3.6,0.3c3,0.4,5.9,1.3,9,1
		c3-0.3,6-0.5,9-0.9c7.9-1.1,15.6-3.1,23.3-5.3c8.4-2.4,16.4-5.9,24.6-8.8c6-2.1,11.8-5,17.7-7.5c0.4-0.2,0.9-0.5,1.3-0.5
		c3,0,5.6-1.5,8.4-2.2c4-1.1,6.7-3.7,8.9-6.9c0.1-2.2,0.7-4.2,1.2-6.2c0.7-2.7,1.5-5.4,1.4-8.2c-0.2-4.7-0.3-9.5-1.3-14.1
		c-0.7-3-0.6-6,0.2-9c0.8-2.8,0.8-5.5-0.3-8.3c-0.8,0.7-1,1.6-1.2,2.6c-1.1,4.3-2,8.7-2.8,13.1c-0.2,1.4-0.5,2.9-0.8,4.3
		c-0.1,0.6-0.5,1.1-1.5,0.6c0.6-7.7,2.6-15.1,5.2-22.3c-1-1.7-0.3-3.8-1.1-5.7c-0.8,0.3-1,0.8-1.1,1.4c-0.2,2.4-0.5,4.8-0.7,7.2
		c-0.1,1.6-0.2,3.2-1,4.6c-1.1,1.7-1.4,3.6-1.9,5.4c-0.3,1.1-0.6,2.1-1,3.1l-0.3,0.1c-0.5-0.1-0.5-0.5-0.4-0.8
		c0.5-2.1,0.9-4.3,1.6-6.3c1.5-4,1.6-8,1.5-12.2c-0.7,0.2-0.7,0.7-0.7,1.2c-0.2,2.3-0.9,4.5-1.8,6.6c-0.8,2-1.4,4.1-1.8,6.3
		c-0.2,1.2-0.5,2.4-0.8,3.6c-1.9,1.2-2.2,3.3-3,5.2c-0.8,2-0.8,4.2-2.1,6.1c-0.9-0.3-0.2-1.5-1.1-1.7c-1,1.5-0.8,3.2-1,4.6
		c1.3,4.5,1.7,8.8,0.4,12.9c-1.7,2.1-3.9,2.8-6.2,3.2c-4.4,0.8-8.8,1.5-13.2,2.2c-1.8,0.3-3.5,0.8-5.4,0.8c-4.8,0-9.7,0.1-14.5,0.2
		c-0.7,0-1.5,0-2.2,0.1c-2.4,0.3-4.8,0.7-7.2,0.8c-6.4,0.4-12.8,0.7-19.2,1c-6.5,0.3-13,1.1-19.2,3.3c-2.5,0.9-5.2,1.2-7.8,1.7
		c-0.7,0.1-1.5,0.3-2.2,0c-1.8-0.6-3.6-0.3-5.4-0.3c-1.1,0-2.2,0.1-3.3-0.1c-2.9-0.4-5.8-0.3-8.7,0c-4.5,0.5-8.9,0-13.4-0.8
		s-8.9-2.2-13.5-2.7c-0.8-0.1-1.6-0.4-2.4-0.8c-0.8-0.5-1.8-0.8-2.7-1.1c-5.3-1.7-10.5-3.8-15.5-6.3c-1-0.5-2-1-3-1.2
		c-3.8-0.9-7.5-1.9-11.3-2.4s-7.6-1.9-11.5-0.4c-5.5,0.5-10.7,2-15.9,3.7c-0.6,0.2-1.2,0.8-2.1,0.2c1.8-1.5,4-2.3,6.1-3.2
		c1-0.4,2.2-0.2,2.9-1.3c0.2-0.2,0.6,0.2,0.7-0.3c-0.2,0.1-0.4,0.3-0.6,0.4c-2.5-0.3-5-0.1-7.5,0.5c-0.9,0.2-1.9,0.4-2.7,1.1
		c-3.8,3.1-7.8,6.1-10.5,10.3c-0.7,3.4-1.3,6.7-2.9,10.2C491.1,228.9,491,227.9,491,227C490.9,227,491.3,226.7,491,227z
		 M443.4,527.5c0.8-1,1.9-1.4,2.9-2c2.8-1.7,5.6-3.3,8.5-5c1.7-1,3.1-2.3,4.4-3.8c3.5-4.2,7.1-8.3,10.6-12.5
		c4.3-5.1,8.1-10.5,11.2-16.5c2.7-5.2,5.7-10.1,8.7-15.1c2.3-4,4.7-7.9,7.1-11.9c0.4-0.6,0.9-1.2,0.7-2c-0.2-0.2-0.3-0.4-0.5-0.5
		c-4.7-2.8-9.1-6.1-14.2-7.9c-1.1-0.4-2.2-1-3.3-1.6c-3.4-1.7-6.8-3.2-10.3-4.4c-5.3-1.8-10.6-3.5-15.9-5.2c-2.2-0.7-4.4-1.4-6.3-2
		c-0.9,0.4-1,1-1.3,1.6c-1.1,2.6-2.3,5.1-3.3,7.7c-4.3,10.8-8.7,21.5-14.1,31.9c-0.3,0.6-0.6,1.4-1.1,1.8c-1.4,1-1.8,2.5-2.4,4
		c-2.6,6.2-4.7,12.7-8.2,18.5c-2.4,3.9-4.6,8-7.8,11.4c-1.6,1.6-2.7,3.4-3.5,5.4c-0.8,1.9-1.5,3.8-2.1,5.8c-0.4,1-0.7,2.1-0.9,2.3
		c-11.8,9.4-23.1,18.4-32.6,29.1c0.1,2.5-1.1,4.4-2.3,6.2c-2.5,4-5.1,7.9-7.6,12c-2,3.3-4,6.6-5.9,10c-0.4,0.7-0.9,1.5-1,2.3
		c-0.1,2.4-1.1,4.4-1.9,6.6c-1.5,4.1-3.1,8.2-4.6,12.2c-1.9,5.1-3.6,10.3-6.3,15.1c-2.3,4.2-3.7,8.7-5.7,13c-0.4,1,0.1,1.9-0.6,3.2
		c-2.1,2.8-3.4,6.5-5.2,9.8c-0.7,0.3-1.2,0.5-1.7,0.7c-0.6,1.3-1.2,2.5-1.7,3.6c0.2,1.9,1.7,2.8,2.7,3.9c1,1.2,1.6,2.7,3.3,3.6
		c4.5-1.8,9.3-3,13.4-5.4c0.3-2,0.5-3.7,0.9-5.3c0.5-2.2,1.4-4.1,3.5-5.3c0.4-0.2,0.8-0.6,1.1-0.9c3-3.3,6.3-6.3,8.6-10.3
		c0.6-1,1.4-1.9,2.1-2.9c3.8-5.5,8.2-10.5,11.4-16.4c2.1-3.9,5.1-7,8.2-10c1.2-1.2,2.5-2.3,3.7-3.5c5.6-5.8,11.6-11.4,15.5-18.6
		c0.4-0.7,1-1.4,1.5-2.1c3-4.1,6-8.2,8.9-12.4c2.6-3.8,5.4-7.4,7.7-11.5c0.1-0.2,0.3-0.4,0.5-0.5c0.6-0.2,1.1-0.4,1.8-0.6
		c0.8-2,2.3-3.3,4-4.5c1.6-1.1,3.2-2.2,4.6-3.5c4.5-4.2,9-8.4,13.8-12.4c1.2-1,2.2-2.3,3.1-3.5c0.5-0.6,1.2-1.2,1.2-2.1
		C445.5,526.8,444.7,527.9,443.4,527.5z M563.9,291.8c-0.6,3.5-1.3,6.6-1.5,9.7c-0.6,6.7-0.8,13.5-2,20.2c-0.4,2.4-1,4.4-2.5,6.3
		c-2.8,3.5-4.3,7.8-6.5,11.7c-0.2,0.3-0.2,0.7-0.3,1c-0.8,4.2-2.5,8.1-3.9,12.1c-0.5,1.5-1.1,3-1.4,4.5c-0.6,3.4-1.7,6.6-2.9,9.7
		c-3.9,10.3-9,20.1-15.5,29.1c-1.6,2.1-3.2,4.3-4.2,6.8c0.2,2.1-0.9,4-1.4,6c-0.1,0.3-0.1,0.7-0.1,0.9c0.3,1,1.3,1.3,1.5,2.7
		c0,0.4,0,1.2,0,2.2c2.9,2.8,5.6,6,8.8,8.5c4.7,3.5,9,7.3,13.5,11c6.7,5.6,12.8,11.8,18.6,18.6c1.4,0.1,2.4,1.2,3.3,2.3
		c2.3,2.8,4.5,5.7,7,8.4c3,3.3,6.3,6.4,9.4,9.6c1.7,1.8,3.7,3.5,4.6,6c0.2,0.7,0.8,1.6,2.1,1.2c0-1.4,0-2.8,0-4.3
		c0-73.6,0-147.3,0-220.9c0-1,0-1.9,0-2.9c0-0.6,0-1.2-0.8-1.7c-2.4,0.1-5.1,0.3-7.7,0.5c-1.2,0.1-2.4,0.1-3.6,0.1
		c-2.2-0.1-4.3-0.4-6.5-0.5c-0.1,0-0.2,0.1-0.3,0.2s-0.1,0.2-0.2,0.4c0.2,0.3,0.5,0.7,0.8,1.1c0.4,0.5,0.8,0.9,1.1,1.4
		c5.3,7.4,7,15.3,3.7,24c-1.1,2.8-2.4,5.5-3.5,8C570.1,288.1,567.5,290.7,563.9,291.8z M467,359.7c0.3,0.5,0.8,0.4,1.3,0.4
		c2.8,0,5.5,0.6,8.2,1.4c4.5,1.3,9.1,2.5,13.7,3.7c2.1,0.5,4.1,1.3,5.7,2.7c4.2,0.6,7.9,1.8,11.4,4c0.6,0.4,1.3,0.7,1.9,1
		c4.8,2.1,9.2,4.9,13.2,8.3c0.6,0.5,1.1,1.3,2,1.2c0.6-0.2,0.3-1.2,1.2-1.1c-0.1,0.7-0.3,1.4-0.4,2.2c0.7,0.7,1.3,1.5,2,2.1
		c0.7,0.7,1.3,1.7,2.3,2c0.4-0.3,0.6-0.4,0.7-0.6c3.9-6.7,7.5-13.6,10.1-20.9c2.2-6.1,4.2-12.4,6.1-18.6c1.4-4.4,2.9-8.7,4.7-12.9
		c1.3-3,3-5.8,4.5-8.7c0.8-1.6,1.9-3.1,3.2-4.2c0.2-2.4,0.3-4.7,0.4-7c0.1-2.3,0.6-4.5,0.1-6.8c-0.9-0.3-1.7-0.6-2.5-0.8
		c-5.6-1.3-11.2-1.8-16.9-2.2c-6.5-0.4-13.1-0.6-19.6-0.9c-3.6-0.2-7.2-0.7-10.8-1c-4-0.3-7.9-1-11.9-0.7c-3.1,0.2-6.3,0.4-9.4,0.7
		c-0.2,0-0.4,0.3-0.7,0.5c-0.1,7.8,1.1,15.6,1.8,23.4c-0.3,0.9-0.6,1.8-0.9,2.8c-1.7,5.2-3.8,10.2-7.7,14.2
		c-0.7,0.8-1.4,1.7-1.9,2.6c-1.3,2.4-3.1,4.3-5,6.1c-2.3,2.1-4.4,4.4-6.6,6.7C467,359.4,467,359.6,467,359.7z M486.8,299.8
		c2-0.2,3.6-0.4,5.3-0.5c2.8-0.3,5.5-0.7,8.3-0.7c2.9,0,5.8,0.3,8.7,0.6c6,0.7,12,1.1,18.1,1.3c7.5,0.3,15,1,22.4,2.2
		c3.1,0.5,6.2,1.1,9.1,2.5c0.3,0.1,0.7,0.1,1.2,0.1c0.3-4.6,0.4-9.2,1.2-13.9c1.7-1.1,3.4-2.2,5.1-3.3c2.5-1.7,4.9-3.5,6.4-6.3
		c0.3-0.5,0.7-0.9,1.1-1.4c1.3-4.6,1.3-9.2,0.9-13.8c-0.3-3.5-1.5-6.8-3.8-9.6c-1.7-2.2-3.7-4.1-5-6.7c-4.8-0.8-9.4-2.2-14.2-2
		c-2.1,11.7-2.4,13.4-4.3,16.6c-2.9,5-6.4,9.7-11.1,13.4c-2.8,1-5.9,2-9,2.4c-7.9,0.9-15.7,0.2-23.2-3c-9.2-3.9-15.5-10.6-18.5-20.2
		c-0.7-2.4-1.5-4.9-0.8-7.5c0.4-1.6,0.4-3.1,0.4-4.7c0-4.4-0.1-8.7,0.7-13c1.4-7.4,4.2-14.2,10-19.3c2.6-2.3,5.5-4.4,8-6.3
		c4.9-0.8,9.5-1.4,14.1-1.4c1.7,0,3.4,0.2,4.5,1.2c1.6,0,2.9,0,4.2,0c-3.9-1.4-7.9-2.4-11.9-3.2c-1.8-0.3-3.6-0.2-5.4,0.2
		c-4,0.9-8,2.1-12.1,2.1c-0.8,0-1.6,0.3-2.4,0.4c-2,8.6-7,15.1-13.1,21c0.2,2-0.6,3.8-1.1,5.7c-1.3,4.8-2.5,9.6-2.5,14.6
		c0,5.7,0.8,11.3,1.7,16.9c0.8,5.3,2.2,10.4,2.8,15.7c0.3,2.4,0.7,4.8,1,7.2C483.9,291.5,486,295.2,486.8,299.8z M309,683.9
		c1.1,0.7,2.3,0.9,3.5,1.2c2.9,0.5,5.8,0.7,8.5,1.7c4.2,1.6,8.4,1,12.5,0.4c1.4-0.2,2.8-0.7,4.2-1c4.3-1,8.6-1.4,13-1.3
		c1.3,0,2.7,0.1,3.9,0.8c1.3,0.7,2.8,0.8,4.2,0.8c3.1,0.1,6.3,0.1,9.4,0.4c5,0.5,9.9,0.4,14.8-0.3c3.6-0.5,7.2-1.1,10.7-2.2
		c1.4-0.4,2.8-0.7,3.6-2.1c0.3-0.5,1-0.6,1.4-1c1.8-1.5,3.5-2.9,5.2-4.5c1-1,2.1-2,2.5-3.6c0.1-1.4-0.5-2.8-0.8-4.1
		c-1-0.5-1.8-1-2.7-1.5c-1.9-0.1-3.9-0.6-5.8-0.3c-2.3,0.3-4.6-0.1-6.9-0.2c-2.3-0.1-3.9-1.2-5.3-2.7c-0.8-0.9-1.5-1.9-3-2.7
		c-0.5,0.7-1,1.5-1.7,2.1c-0.4,0.4-1.1,1-1.8,0.2c-0.2-1.7,0.9-3,1.4-4.5c-0.5-0.4-0.8-1-1.6-0.8c-1.1,1.3-1.7,3.4-3.8,3.7
		c-0.2-0.3-0.3-0.4-0.3-0.5c-0.3-1.7,1-3.2,0.9-5.1c-1.2-0.5-2.4-1.3-3.9-1.3c-2,2.2-3.7,4.8-7.4,4.5c0.6-3.3,3.5-4.7,5-7.1
		c-1-1.2-1.9-2.2-3-2.9c-2,3.8-4.1,7.3-9,7.9c0.5-2.7,0.7-3.3,2.7-5.4c1.5-1.6,2.8-3.3,3.5-5.3c-1.8-2.1-3.7-3.9-5.2-6.1
		c-0.5-0.7-1.3-1.4-2.4-1.4c-0.6,0.5-1.2,1.1-1.9,1.6c-3.3,2.2-4.8,5.3-4.9,9.2c0,0.8-0.3,1.7-0.4,2.5c-0.2,1-0.6,1.8-1.4,2.5
		c-5.4,2.7-10.8,5.4-17.1,6.1c-1.2-1.6-2.3-3.1-3.6-4.6c-1.8-2-3.3-4.1-3.5-6.7c-1-0.9-1.8-1.5-3-1.4c-1.1,1.3-1.4,2.8-1.8,4.3
		c-0.5,2.1-0.5,4.3-2,6.1c-0.6,0.8-0.5,2.1-0.6,3.2c-0.1,1.1-0.1,2.2-0.2,3.3c-0.2,1.8-0.5,3.7-1.8,5c-1.4,1.4-1.7,3.1-1.6,5
		c0.1,2.5-0.3,4.8-2,6.8C309.3,682.9,309.2,683.4,309,683.9z M498.9,136.9c-1.5,2.3-2,5.1-2.5,7.8c-0.6,3.5-1.3,7.1-0.8,10.8
		c1.2,10.1,1.6,20.2,1.1,30.4c-0.2,5.1-0.5,10.1-1.3,15.2c-0.2,1-0.8,2.1-0.3,3.1c0.6,0.2,1-0.1,1.3-0.4c1.6-1.5,3.1-3,4.6-4.6
		c0.7-0.8,1.5-1.6,2-2.6c1.4-2.8,3.3-5.4,5.1-7.9c0.8-1.1,1.4-2.3,1.7-3.6c0.7-3,1.2-5.9,1.3-9c0.1-2.2-0.2-4.3-1.5-6.3
		c-0.8-0.6-1.8-1-2.4-2c-1.5-2.5-3.2-4.8-4.8-7.2c-2.8-4.4-4.4-9.1-3.9-14.4C498.6,143.2,498.7,140,498.9,136.9z M520.1,414.8
		c-2.4,6.7-4.7,13-7.2,20.1c1.8-1.7,3.1-2.7,4.1-4c2.6-3.3,5.5-6.4,8.6-9.4c-0.2-0.8-0.4-1.6-0.6-2.3
		C523.7,417.4,521.8,416.5,520.1,414.8z M724.7,156.2c-0.2,1.8-0.4,2.8-0.5,3.9c0,0.4,0.1,1,0.8,0.9
		C725.7,158.6,725.7,158.3,724.7,156.2z M606.1,622.8c-0.1,0.9,0.2,1.3,1,1.4c0.2-0.2,0.5-0.4,0.7-0.6
		C607.5,622.8,607,622.7,606.1,622.8z M724.7,162.7c0,0.1-0.1,0.2-0.1,0.3c0.1,0.2,0.2,0.1,0.2-0.2L724.7,162.7z M656,667.3
		L656,667.3l-0.3-0.1L656,667.3z"/>
	<path d="M689.4,275c-0.1,0.6-0.1,1.2-0.3,1.8c-2.4,5.3-4.8,10.6-7.2,15.9c-0.2,0.5-0.4,1.1-1.2,1.3l0.1,0.1
		c-0.2-0.6-0.1-1.2,0.2-1.7c2.6-5.6,5.3-11.2,8-16.8C689,275.2,689.3,275.2,689.4,275L689.4,275z"/>
	<path d="M683,647.5c-4,1.2-8.1,1.6-12.3,1.7C674.6,647.9,678.8,647.8,683,647.5z"/>
	<path d="M488.9,129c0-0.3-0.1-0.8,0-1c1.1-1.6,2.5-2.8,4.6-2.8c0.3,0,0.7,0.1,0.8,0.6c0,0.1,0,0.2-0.1,0.5
		C492.1,126.3,490.6,127.7,488.9,129L488.9,129z"/>
	<path d="M484.2,148.3c-0.2,0-0.4-0.1-0.6-0.1c-0.1-0.2-0.3-0.4-0.3-0.6c0.2-2.3,0.4-4.7,0.7-7.5
		C484.7,143.7,484.7,145.9,484.2,148.3z"/>
	<path d="M683.2,410.1c0-3.1,0-6.2,0-9.2h0.2c0,3.1,0,6.2,0,9.2H683.2z"/>
	<path d="M440.2,662.2c2.6-0.4,5.2-0.5,7.8,0C445.4,662.2,442.8,662.2,440.2,662.2z"/>
	<path d="M717.9,251c0.5-0.8,0.7-1.8,1.7-2.5c0.4,0.9-0.4,1.6-0.4,2.3c0,0.7,0,1.5-0.1,2.2c0,0.8-0.1,1.7-0.2,2.5
		c0,0.2-0.2,0.4-0.4,0.6l0.1,0.1c0-1.2,0.1-2.3,0.1-3.5C718.7,251.9,718.5,251.3,717.9,251L717.9,251z"/>
	<path d="M483.3,200.6c-0.5-2.5,0.8-4.3,0.6-6.2C484.4,196.5,484.4,196.5,483.3,200.6z"/>
	<path d="M684.9,429c-0.4-2.1-0.5-4.2,0-6.3C684.9,424.8,684.9,426.9,684.9,429z"/>
	<path d="M683.9,420.2c0-2,0-4,0-6.1l0.2-0.1c0,0.2,0.1,0.4,0.1,0.6c0,1.8,0,3.6,0,5.4C684.1,420.1,684,420.2,683.9,420.2z"/>
	<path d="M437.6,663c-1.8,0-3.5,0-5.3,0C434.1,662.5,435.8,662.5,437.6,663z"/>
	<path d="M628.4,271.3c0.5-2,0.7-4.1,2.3-5.7l-0.1-0.1C630.2,267.6,629.8,269.6,628.4,271.3L628.4,271.3z"/>
	<path d="M707.6,278.6c0.3-1.8,0-3.6,1-5.2c0.1-0.2,0.4-0.3,0.5-0.4l-0.1-0.1c0.1,0.3,0.2,0.6,0.4,1.1
		C708.5,275.3,708.5,277.1,707.6,278.6L707.6,278.6z"/>
	<path d="M632.8,260.5c0.5-2.8,0.8-3.5,2.2-5l-0.1-0.1C634.6,257.3,634.3,259.1,632.8,260.5L632.8,260.5z"/>
	<path d="M632.7,260.4c-0.1,2-0.9,3.7-2.2,5.1l0.1,0.1C630.8,263.4,631.3,262.2,632.7,260.4L632.7,260.4z"/>
	<path d="M685.3,435.5c0-1.3,0-2.6,0-3.9h0.2c0,0.4,0.1,0.8,0.1,1.2c0,0.9,0,1.8,0,2.7C685.5,435.5,685.4,435.5,685.3,435.5z"/>
	<path d="M689.9,475.8c0,1.3,0,2.6,0,4h-0.1C689.8,478.4,689.8,477.1,689.9,475.8L689.9,475.8z"/>
	<path d="M677.2,643.7c0.4-0.5,0.9-0.6,1.5-0.6c1.4-0.1,2.8-0.1,4.1-0.2l-0.1-0.1c-0.5,0.6-1.2,0.7-1.9,0.7
		C679.7,643.5,678.4,643.5,677.2,643.7L677.2,643.7z"/>
	<path d="M682.9,642.8c1.6-0.9,3.4-0.7,5.1-0.4C686.3,642.9,684.5,642.8,682.9,642.8L682.9,642.8z"/>
	<path d="M429.8,663.6c-1.4,0-2.8,0-4.1,0v-0.2c1.4,0,2.8,0,4.1,0V663.6z"/>
	<path d="M677.1,643.6c-1.3,0.9-2.7,0.5-4.1,0.5C674.4,643.5,675.8,643.7,677.1,643.6L677.1,643.6z"/>
	<path d="M483.5,134.9c0,1.1,0,2.2,0,3.3c-0.1,0-0.2,0-0.3,0c0-1.1,0-2.3,0-3.4C483.3,134.8,483.4,134.9,483.5,134.9z"/>
	<path d="M416.1,671.2c0.8-1.1,1.7-2.1,2.9-2.9l-0.1-0.1C418.7,670,417.7,670.9,416.1,671.2L416.1,671.2z"/>
	<path d="M688.2,457.3c0-1.1,0-2.1,0-3.3C688.8,455.1,688.5,456.1,688.2,457.3z"/>
	<path d="M419,664.7c1.4-1,2.9-0.6,4.4-0.5C421.9,664.7,420.4,664.6,419,664.7L419,664.7z"/>
	<path d="M686.3,441.5c-0.4-1-0.3-1.9-0.1-2.9C686.4,439.5,686.4,440.4,686.3,441.5z"/>
	<path d="M690.6,483.1c0,0.8,0,1.7,0,2.5h-0.2c0-0.4-0.1-0.8-0.1-1.3c0-0.4,0-0.8,0.1-1.3L690.6,483.1z"/>
	<path d="M689.5,275.1c-0.2-1.5,0.6-2.6,1.4-3.6l-0.1-0.1C691,272.8,690.5,274,689.5,275.1L689.5,275.1z"/>
	<path d="M457.6,665.9c-0.1,0-0.7,0-1.5,0.1C456.8,665.2,457.5,665.9,457.6,665.9z"/>
	<path d="M648.8,256.8c0-1.2-0.2-2.5,0.7-3.6l-0.1-0.1c0,0.8-0.1,1.6-0.1,2.5C649.3,256.1,649.2,256.6,648.8,256.8L648.8,256.8z"/>
	<path d="M692.4,624.4c0.8-0.3,1.5-0.3,2.4,0C693.8,624.4,693.2,624.4,692.4,624.4z"/>
	<path d="M687.5,451.6c0-0.7,0-1.4,0-2.5C688,450.2,687.8,450.9,687.5,451.6z"/>
	<path d="M687,446.5c-0.4-0.6-0.3-1.3-0.1-2.3C687.1,445.1,687.2,445.8,687,446.5z"/>
	<path d="M452.5,661.2c-0.6,0.7-1.3,0.2-2.1,0.6C451.1,660.8,451.8,661.6,452.5,661.2z"/>
	<path d="M694.4,631.6c0.5-0.2,1.1-0.3,1.6,0.1C695.5,631.8,695,631.9,694.4,631.6z"/>
	<path d="M709.2,272.9c0.1-1-0.4-2.1,0.8-2.9l-0.1-0.1C709.6,270.9,709.8,272,709.2,272.9L709.2,272.9z"/>
	<path d="M648.7,256.8c0,0.5-0.1,1.1-0.1,1.5c-0.6,0.4-0.9,0.1-1.3-0.1l0.1,0.1C647.7,257.7,647.9,256.9,648.7,256.8L648.7,256.8z"
		/>
	<path d="M484.6,192.1c0-0.4,0-0.8,0.1-1.3h0.1c0,0.4,0,0.8,0,1.3H484.6z"/>
	<path d="M486.6,153.6c-0.5-0.7-0.6-1.4-0.1-2.2C486.5,152.2,486.5,152.9,486.6,153.6L486.6,153.6z"/>
	<path d="M683.7,649.5c0.2-1.1,1.2-1.2,2-1.6l-0.1-0.1C685.5,648.9,684.6,649.2,683.7,649.5L683.7,649.5z"/>
	<path d="M707.5,278.5c-0.1,1,0.3,2.1-0.7,2.9l0.1,0.1C707.1,280.5,706.9,279.4,707.5,278.5L707.5,278.5z"/>
	<path d="M689.8,490.2c0-0.5,0-0.9,0-1.4h0.1C689.9,489.3,689.9,489.7,689.8,490.2L689.8,490.2z"/>
	<path d="M415.3,671.9c-0.4,0.9-1.2,1.4-2.2,1.4l0.1,0.1C413.8,672.6,414.4,672,415.3,671.9L415.3,671.9z"/>
	<path d="M683.7,649.4c-0.5,0.8-1.3,1.3-2.2,1.5l0.1,0.1C681.9,649.8,682.6,649.4,683.7,649.4L683.7,649.4z"/>
	<path d="M681.5,650.8c-0.5,0.9-1.2,1.4-2.3,1.4l0.1,0.1C679.8,651.5,680.5,650.8,681.5,650.8L681.5,650.8z"/>
	<path d="M628.3,271.2c0,0.5,0,1.1-0.1,1.8C627.6,272.2,628.1,271.8,628.3,271.2L628.3,271.2z"/>
	<path d="M461,665c0.4,0,0.7,0,1.1,0C461.7,665.2,461.4,665.2,461,665z"/>
	<path d="M706.8,281.4c0,0.6-0.1,1.1-0.1,1.8C706.1,282.4,706.7,282,706.8,281.4L706.8,281.4z"/>
	<path d="M687.2,625.1c0.3,0,0.4-0.1,0.6-0.1l0.2,0.1C687.8,625.1,687.5,625.1,687.2,625.1z"/>
	<path d="M699.7,623.7C699.4,623.7,699.1,623.7,699.7,623.7C699.2,623.6,699.4,623.6,699.7,623.7z"/>
	<path d="M709.9,270.1c0-0.6,0-1.1,0-1.9C710.6,269,710,269.5,709.9,270.1L709.9,270.1z"/>
	<path d="M469.8,663.7c-0.2,0-0.4,0-0.6,0v-0.1C469.4,663.6,469.6,663.6,469.8,663.7L469.8,663.7z"/>
	<path d="M666.8,649.7C666.4,649.7,666.6,649.7,666.8,649.7C666.6,649.7,666.4,649.7,666.8,649.7z"/>
	<path d="M447.4,668.3c0.4-0.7,1-0.8,1.7-0.4C448.5,668.5,447.9,668.3,447.4,668.3L447.4,668.3z"/>
	<path d="M680.1,295.4c0-0.6-0.2-1.3,0.7-1.5l-0.1-0.1C680.7,294.5,680.6,295,680.1,295.4L680.1,295.4z"/>
	<polygon points="705.9,285 705.9,285.3 705.8,285.2 	"/>
	<path d="M637.9,275c0.5-0.2,1-0.4,1.5-0.6l-0.1-0.1C638.9,274.8,638.3,274.8,637.9,275L637.9,275z"/>
	<polygon points="627.4,274.9 627.3,275.2 627.2,274.9 	"/>
	<path d="M419,668.3c0.1-0.3,0.2-0.6,0.3-1C419.7,668,419.6,668.2,419,668.3L419,668.3z"/>
	<path d="M641.5,272.1c0.4-0.4,0.9-0.6,1.5-0.6l-0.1-0.1C642.5,271.9,642,271.9,641.5,272.1L641.5,272.1z"/>
	<path d="M651.6,309.2c-0.4,0.4-0.9,0.6-1.5,0.6l0.1,0.1c0.4-0.5,0.9-0.6,1.5-0.6L651.6,309.2z"/>
	<path d="M698.9,309.9c-0.2,0.5-0.5,0.9-0.7,1.4l0.1,0.1C698.4,310.8,698.5,310.3,698.9,309.9L698.9,309.9z"/>
	<path d="M648.7,311.4c-0.5,0.2-1,0.4-1.5,0.6l0.1,0.1C647.8,311.8,648.3,311.6,648.7,311.4L648.7,311.4z"/>
	<path d="M429.2,666.8c0.5-0.2,1-0.4,1.5-0.6l-0.1-0.1C430.3,666.7,429.7,666.7,429.2,666.8L429.2,666.8z"/>
	<path d="M699.5,308.4c-0.1,0.6-0.2,1.1-0.7,1.5l0.1,0.1C699.2,309.5,699.4,309,699.5,308.4L699.5,308.4z"/>
	<path d="M660.4,320.8c0.4-0.5,0.9-0.6,1.5-0.6l-0.1-0.1C661.4,320.5,660.9,320.7,660.4,320.8L660.4,320.8z"/>
	<path d="M659.6,321.5c-0.3,0.5-0.9,0.6-1.4,0.6l0.1,0.1C658.6,321.7,659.1,321.7,659.6,321.5L659.6,321.5z"/>
	<path d="M657.4,323c-0.5,0.2-1,0.4-1.4,0.6l0.1,0.1C656.4,323.1,657,323.2,657.4,323L657.4,323z"/>
	<path d="M655.3,306.3c-0.4,0.4-0.9,0.6-1.5,0.6l0.1,0.1C654.3,306.4,654.8,306.4,655.3,306.3L655.3,306.3z"/>
	<path d="M701.8,304.8c-0.2,0.5-0.5,0.9-0.7,1.4l0.1,0.1C701.3,305.7,701.4,305.2,701.8,304.8L701.8,304.8z"/>
	<path d="M701.9,304.9c0.1-0.6,0.3-1.1,0.7-1.5l-0.1-0.1C702.3,303.9,702.3,304.5,701.9,304.9L701.9,304.9z"/>
	<path d="M702.6,303.4c0.1-0.3,0.2-0.5,0.3-0.8C703.1,303.1,702.7,303.2,702.6,303.4L702.6,303.4z"/>
	<path d="M713.3,261.1c0,0.6,0.1,1.2-0.6,1.5l0.1,0.1C713,262.2,713.2,261.7,713.3,261.1L713.3,261.1z"/>
	<path d="M653.2,645.1c0.2-0.9,0.9-0.8,1.5-0.6l-0.1-0.1C654.2,644.9,653.7,645.1,653.2,645.1L653.2,645.1z"/>
	<path d="M685.7,647.9c0.3-0.1,0.6-0.3,1-0.5C686.4,648.1,686,647.7,685.7,647.9L685.7,647.9z"/>
	<path d="M649.5,253.3c0.1-0.3,0.1-0.7,0.2-1.1C650.2,252.8,649.9,253,649.5,253.3L649.5,253.3z"/>
	<polygon points="719.6,246.8 719.6,246.5 719.7,246.6 	"/>
	<path d="M706.8,235c-0.2,0.5-0.4,0.9-0.6,1.4v0.1C706.5,236,706.7,235.5,706.8,235L706.8,235z"/>
	<path d="M426.3,669c0.3-0.6,0.9-0.6,1.5-0.6l-0.1-0.1C427.3,668.7,426.8,668.9,426.3,669L426.3,669z"/>
	<polygon points="472.9,662.8 472.9,662.9 472.6,662.9 	"/>
	<path d="M692.7,266.9l0.1,0.1c0,0.1,0,0.2-0.1,0.3l-0.1-0.1C692.6,267.1,692.7,267,692.7,266.9z"/>
	<path d="M711.3,265.6c-0.1,0.3-0.2,0.6-0.3,0.9c-0.2-0.6,0.1-0.7,0.4-0.8L711.3,265.6z"/>
	<path d="M712.1,264.1c0.1-0.6,0.1-1.1,0.7-1.5l-0.1-0.1C712.6,263.1,712.5,263.7,712.1,264.1L712.1,264.1z"/>
	<polygon points="465.4,664.2 465.7,664.2 465.6,664.4 	"/>
	<path d="M712,264c-0.2,0.5-0.5,1-0.7,1.6l0.1,0.1C711.4,265.1,711.3,264.4,712,264L712,264z"/>
	<path d="M691.7,269.9c0.1-0.3,0.1-0.6,0.2-1C692.4,269.4,692,269.6,691.7,269.9L691.7,269.9z"/>
	<path d="M691.6,269.8c0,0.6,0.1,1.3-0.7,1.5l0.1,0.1C691,270.8,691,270.2,691.6,269.8L691.6,269.8z"/>
	<polygon points="431.4,665.4 431.5,665.2 431.3,665.3 	"/>
	<path d="M679.2,652.2c0.1,0.5-0.2,0.7-0.7,0.8l0.1,0.1C678.6,652.6,678.9,652.4,679.2,652.2L679.2,652.2z"/>
	<path d="M677.9,653.8c0-0.5,0.3-0.7,0.7-0.7l-0.1-0.1C678.5,653.4,678.2,653.7,677.9,653.8L677.9,653.8z"/>
	<path d="M677.8,653.7c-0.1,0.4-0.3,0.6-0.7,0.7l0.1,0.1C677.2,654.1,677.5,653.8,677.8,653.7L677.8,653.7z"/>
	<path d="M412.6,674.1c0-0.4,0.3-0.6,0.7-0.8l-0.1-0.1C413.1,673.7,412.9,674,412.6,674.1L412.6,674.1z"/>
	<path d="M677.1,654.4c-0.2,0.2-0.5,0.5-0.7,0.7l0.1,0.1C676.5,654.8,676.8,654.6,677.1,654.4L677.1,654.4z"/>
	<path d="M676.4,655.2c-0.1,0.1-0.1,0.2-0.2,0.3L676.4,655.2L676.4,655.2z"/>
	<path d="M677.1,657.4c0.1-0.1,0.1-0.2,0.2-0.3C677.5,657.3,677.4,657.3,677.1,657.4L677.1,657.4z"/>
	<path d="M428.4,667.5c-0.2,0.3-0.5,0.5-0.7,0.8l0.1,0.1C427.8,668,428.1,667.7,428.4,667.5L428.4,667.5z"/>
	<path d="M428.5,667.6c0.2-0.3,0.5-0.5,0.7-0.8l-0.1-0.1C429.1,667.2,428.8,667.4,428.5,667.6L428.5,667.6z"/>
	<path d="M424.2,670.5c0-0.1,0.1-0.3,0.1-0.3C424.6,670.2,424.5,670.3,424.2,670.5L424.2,670.5z"/>
	<polygon points="412.5,674.1 412.4,674.2 412.6,674.1 	"/>
	<path d="M654.7,644.4c0.1-0.2,0.1-0.3,0.1-0.3S654.7,644.2,654.7,644.4L654.7,644.4z"/>
	<path d="M453.2,524.3c-0.1,0.1-0.2,0.3-0.4,0.4c-0.1-0.1-0.2-0.3-0.4-0.4l-0.1,0.1C452.7,524.4,453,524.4,453.2,524.3L453.2,524.3z
		"/>
	<path d="M415.4,672c0-0.5,0.3-0.7,0.7-0.8l-0.1-0.1C416.1,671.7,415.8,671.9,415.4,672L415.4,672z"/>
	<path d="M431.3,665.3c-0.3,0.3-0.5,0.5-0.8,0.8l0.1,0.1C430.9,665.9,431.2,665.7,431.3,665.3L431.3,665.3z"/>
	<path d="M653.1,645c0,0.3-0.1,0.4-0.3,0.3l0.1-0.2C652.9,645.1,653,645.1,653.1,645L653.1,645z"/>
	<path d="M426.2,668.9c-0.1,0.1-0.2,0.3-0.2,0.3C426.1,669.2,426.2,669.1,426.2,668.9L426.2,668.9z"/>
	<path d="M424.1,670.4C423.8,670.8,424.1,670.5,424.1,670.4L424.1,670.4z"/>
	<path d="M714.1,254.6c0,0.4-0.2,0.7-0.7,0.7l0.1,0.1C713.7,255.1,713.9,254.9,714.1,254.6L714.1,254.6z"/>
	<polygon points="635,255.5 635,255.2 634.9,255.4 	"/>
	<path d="M714.8,253.9c-0.1,0.4-0.3,0.6-0.7,0.7l0.1,0.1C714.4,254.4,714.6,254.2,714.8,253.9L714.8,253.9z"/>
	<path d="M715.6,253.2c-0.1,0.4-0.4,0.6-0.8,0.7l0.1,0.1C715.1,253.7,715.4,253.5,715.6,253.2L715.6,253.2z"/>
	<path d="M715.7,253.3c0.1-0.4,0.3-0.6,0.7-0.7l-0.1-0.1C716,252.7,715.8,252.9,715.7,253.3L715.7,253.3z"/>
	<path d="M716.4,252.5c0.2-0.2,0.5-0.5,0.7-0.7l-0.1-0.1C716.8,252,716.5,252.2,716.4,252.5L716.4,252.5z"/>
	<path d="M717.8,250.9c-0.3,0.3-0.5,0.5-0.8,0.8l0.1,0.1C717.3,251.5,717.6,251.3,717.8,250.9L717.8,250.9z"/>
	<path d="M706.2,236.4l-0.1,0.2L706.2,236.4z"/>
	<path d="M706.9,235.1c0.1-0.1,0.1-0.2,0.2-0.3L706.9,235.1L706.9,235.1z"/>
	<path d="M714.8,259.7c0,0.4-0.2,0.7-0.7,0.7l0.1,0.1C714.4,260.2,714.7,260,714.8,259.7L714.8,259.7z"/>
	<path d="M709,259.6c0,0.4-0.2,0.7-0.7,0.7l0.1,0.1C708.6,260.2,708.8,260,709,259.6L709,259.6z"/>
	<path d="M644.4,260.5C644.7,260.1,644.4,260.4,644.4,260.5L644.4,260.5z"/>
	<path d="M715.5,259c0,0.5-0.3,0.7-0.8,0.7l0.1,0.1C715.1,259.5,715.4,259.3,715.5,259L715.5,259z"/>
	<path d="M709.7,258.9c0,0.5-0.3,0.7-0.7,0.7l0.1,0.1C709.3,259.5,709.5,259.2,709.7,258.9L709.7,258.9z"/>
	<polygon points="646.5,259 646.4,259.2 646.6,259.1 	"/>
	<path d="M715.6,259c0.2-0.2,0.5-0.5,0.7-0.7l-0.1-0.1C716.2,258.7,716,258.9,715.6,259L715.6,259z"/>
	<path d="M710.4,258.2c0,0.5-0.3,0.7-0.8,0.7l0.1,0.1C710,258.8,710.3,258.5,710.4,258.2L710.4,258.2z"/>
	<path d="M646.6,259.1c0.2-0.3,0.5-0.6,0.7-0.9l-0.1-0.1C647,258.5,646.8,258.8,646.6,259.1L646.6,259.1z"/>
	<path d="M716.4,258.3c0.2-0.2,0.5-0.5,0.7-0.7l-0.1-0.1C717,257.9,716.7,258.2,716.4,258.3L716.4,258.3z"/>
	<path d="M710.5,258.3c0.2-0.3,0.5-0.5,0.7-0.8l-0.1-0.1C711.1,257.9,710.9,258.2,710.5,258.3L710.5,258.3z"/>
	<path d="M717.1,257.6c0.1-0.3,0.3-0.6,0.7-0.7l-0.1-0.1C717.7,257.2,717.4,257.4,717.1,257.6L717.1,257.6z"/>
	<path d="M711.9,256.8c0,0.5-0.3,0.7-0.8,0.7l0.1,0.1C711.5,257.3,711.7,257.1,711.9,256.8L711.9,256.8z"/>
	<path d="M717.8,256.9c0.1-0.4,0.4-0.7,0.8-0.7l-0.1-0.1C718.3,256.3,718,256.6,717.8,256.9L717.8,256.9z"/>
	<path d="M712,256.9c0.2-0.2,0.5-0.5,0.7-0.7l-0.1-0.1C712.6,256.5,712.3,256.7,712,256.9L712,256.9z"/>
	<path d="M713.4,255.3c-0.1,0.4-0.3,0.7-0.8,0.8l0.1,0.1C713,255.9,713.2,255.6,713.4,255.3L713.4,255.3z"/>
	<path d="M488.8,128.9l-0.2,0.2C488.7,129,488.8,129,488.8,128.9L488.8,128.9z"/>
	<path d="M664.1,317.9c0.2-0.2,0.5-0.4,0.7-0.6l-0.1-0.1C664.5,317.4,664.2,317.6,664.1,317.9L664.1,317.9z"/>
	<polygon points="664.8,317.3 664.8,317.1 664.7,317.2 	"/>
	<polygon points="646.5,312.8 646.4,312.9 646.6,312.9 	"/>
	<path d="M647.2,311.9c-0.3,0.3-0.5,0.6-0.8,0.8l0.1,0.1C646.8,312.6,647.1,312.3,647.2,311.9L647.2,311.9z"/>
	<polygon points="698.2,311.3 698,311.5 698.3,311.3 	"/>
	<path d="M649.4,310.6c-0.2,0.3-0.5,0.5-0.7,0.8l0.1,0.1C648.9,311.1,649.1,310.8,649.4,310.6L649.4,310.6z"/>
	<path d="M650.1,309.8c-0.1,0.4-0.4,0.7-0.7,0.8l0.1,0.1C649.7,310.4,650,310.1,650.1,309.8L650.1,309.8z"/>
	<path d="M652.3,308.4c-0.2,0.3-0.5,0.5-0.7,0.8l0.1,0.1C651.7,308.8,652,308.6,652.3,308.4L652.3,308.4z"/>
	<path d="M699.6,308.5C699.9,308.1,699.5,308.5,699.6,308.5L699.6,308.5z"/>
	<path d="M653,307.7c-0.2,0.2-0.5,0.5-0.7,0.8l0.1,0.1C652.5,308.1,652.7,307.9,653,307.7L653,307.7z"/>
	<path d="M653.1,307.8c0.3-0.3,0.5-0.5,0.8-0.8l-0.1-0.1C653.7,307.3,653.5,307.6,653.1,307.8L653.1,307.8z"/>
	<path d="M701.1,306.2c0,0.1-0.1,0.2-0.1,0.3L701.1,306.2L701.1,306.2z"/>
	<path d="M655.4,306.4c0-0.4,0.2-0.7,0.7-0.8l-0.1-0.1C655.8,305.8,655.5,306,655.4,306.4L655.4,306.4z"/>
	<path d="M656.7,304.8c-0.2,0.3-0.5,0.5-0.7,0.8l0.1,0.1C656.1,305.2,656.4,305,656.7,304.8L656.7,304.8z"/>
	<path d="M657.4,304c-0.1,0.4-0.4,0.6-0.7,0.8l0.1,0.1C657,304.6,657.2,304.4,657.4,304L657.4,304z"/>
	<path d="M658.1,303.3c-0.1,0.4-0.4,0.6-0.7,0.7l0.1,0.1C657.7,303.9,657.9,303.6,658.1,303.3L658.1,303.3z"/>
	<polygon points="663.3,337.5 663.1,337.7 663.3,337.6 	"/>
	<polygon points="663.3,337.6 663.4,337.4 663.3,337.5 	"/>
	<polygon points="656,323.6 655.9,323.8 656.1,323.7 	"/>
	<path d="M657.5,323.1c0.2-0.3,0.5-0.6,0.7-0.8l-0.1-0.1C657.9,322.4,657.7,322.7,657.5,323.1L657.5,323.1z"/>
	<path d="M660.3,320.7c-0.1,0.4-0.4,0.7-0.7,0.8l0.1,0.1C659.9,321.3,660.2,321.1,660.3,320.7L660.3,320.7z"/>
	<path d="M661.9,320.2c0-0.4,0.2-0.7,0.7-0.8l-0.1-0.1C662.3,319.6,662.1,319.8,661.9,320.2L661.9,320.2z"/>
	<path d="M663.2,318.6c-0.2,0.2-0.5,0.5-0.7,0.7l0.1,0.1C662.8,319.2,663.1,318.9,663.2,318.6L663.2,318.6z"/>
	<path d="M664,317.8c-0.3,0.3-0.5,0.5-0.8,0.8l0.1,0.1C663.5,318.4,663.8,318.1,664,317.8L664,317.8z"/>
	<polygon points="645.9,268.4 646,268.3 645.8,268.3 	"/>
	<path d="M703.9,264.8l-0.1,0.1L703.9,264.8z"/>
	<polygon points="639.2,264.8 639.2,265 639.3,264.9 	"/>
	<path d="M704.6,264c-0.2,0.2-0.5,0.5-0.7,0.7l0.1,0.1C704.2,264.6,704.4,264.3,704.6,264L704.6,264z"/>
	<path d="M639.3,264.9c0.2-0.3,0.5-0.5,0.7-0.8l-0.1-0.1C639.7,264.3,639.5,264.6,639.3,264.9L639.3,264.9z"/>
	<path d="M705.3,263.3c-0.1,0.4-0.4,0.6-0.7,0.7l0.1,0.1C704.9,263.9,705.2,263.6,705.3,263.3L705.3,263.3z"/>
	<path d="M640.6,263.3c-0.2,0.2-0.5,0.5-0.7,0.7l0.1,0.1C640.2,263.9,640.5,263.6,640.6,263.3L640.6,263.3z"/>
	<path d="M705.4,263.4c0.2-0.2,0.5-0.5,0.7-0.7l-0.1-0.1C706,263,705.7,263.2,705.4,263.4L705.4,263.4z"/>
	<polygon points="640.7,263.4 640.8,263.3 640.6,263.3 	"/>
	<path d="M706.2,262.7c0.2-0.2,0.5-0.5,0.7-0.7l-0.1-0.1C706.7,262.3,706.5,262.5,706.2,262.7L706.2,262.7z"/>
	<polygon points="642.9,261.9 642.8,262.1 643,262 	"/>
	<path d="M706.9,261.9c0.2-0.3,0.5-0.5,0.7-0.8l-0.1-0.1C707.5,261.5,707.2,261.8,706.9,261.9L706.9,261.9z"/>
	<path d="M643,262c0.1-0.4,0.3-0.7,0.7-0.8l-0.1-0.1C643.4,261.4,643.1,261.7,643,262L643,262z"/>
	<path d="M713.4,261.2c0.3-0.2,0.5-0.5,0.8-0.7l-0.1-0.1C714,260.8,713.8,261.1,713.4,261.2L713.4,261.2z"/>
	<path d="M708.3,260.3c-0.1,0.5-0.3,0.7-0.8,0.8l0.1,0.1C707.8,260.9,708.1,260.7,708.3,260.3L708.3,260.3z"/>
	<path d="M643.7,261.3c0.3-0.3,0.5-0.5,0.8-0.8l-0.1-0.1C644.1,260.6,643.9,260.9,643.7,261.3L643.7,261.3z"/>
	<path d="M658.2,303.4c0.2-0.3,0.5-0.5,0.7-0.8l-0.1-0.1C658.7,303,658.5,303.2,658.2,303.4L658.2,303.4z"/>
	<path d="M659.5,301.8c-0.1,0.4-0.4,0.6-0.7,0.7l0.1,0.1C659.1,302.4,659.4,302.2,659.5,301.8L659.5,301.8z"/>
	<path d="M660.3,301.1c-0.2,0.2-0.5,0.5-0.8,0.7l0.1,0.1C659.8,301.7,660.1,301.4,660.3,301.1L660.3,301.1z"/>
	<polygon points="660.3,301.2 660.5,301.1 660.3,301.1 	"/>
	<polygon points="680,295.3 679.9,295.4 680.1,295.4 	"/>
	<polygon points="704.7,277.9 704.6,278.1 704.7,278 	"/>
	<path d="M704.7,278c0.4-0.2,0.1,0.4,0.2-0.1C704.9,277.7,704.7,277.7,704.7,278L704.7,278z"/>
	<path d="M636.3,276.4C636.1,276.7,636.3,276.6,636.3,276.4L636.3,276.4z"/>
	<path d="M636.4,276.5c0.2-0.3,0.5-0.5,0.7-0.8l-0.1-0.1C636.8,275.9,636.6,276.2,636.4,276.5L636.4,276.5z"/>
	<path d="M637.1,275.8c0.3-0.3,0.5-0.5,0.8-0.8l-0.1-0.1C637.7,275.3,637.4,275.5,637.1,275.8L637.1,275.8z"/>
	<path d="M639.9,273.5c-0.2,0.3-0.5,0.5-0.7,0.8l0.1,0.1C639.4,274,639.6,273.7,639.9,273.5L639.9,273.5z"/>
	<path d="M640.6,272.8c0,0.4-0.3,0.6-0.7,0.8l0.1,0.1C640.3,273.3,640.5,273.1,640.6,272.8L640.6,272.8z"/>
	<path d="M640.7,272.8c0.3-0.3,0.5-0.5,0.8-0.8l-0.1-0.1C641.4,272.4,641.1,272.7,640.7,272.8L640.7,272.8z"/>
	<path d="M643.6,270.6c-0.2,0.2-0.5,0.5-0.7,0.7l0.1,0.1C643.1,271.1,643.3,270.8,643.6,270.6L643.6,270.6z"/>
	<path d="M643.7,270.7c0.2-0.3,0.5-0.5,0.7-0.8l-0.1-0.1C644.1,270.1,643.9,270.4,643.7,270.7L643.7,270.7z"/>
	<path d="M644.4,270c0.2-0.3,0.4-0.5,0.7-0.8l-0.1-0.1C645,269.6,644.7,269.7,644.4,270L644.4,270z"/>
	<path d="M645.8,268.3c-0.3,0.3-0.5,0.5-0.8,0.8l0.1,0.1C645.3,268.9,645.6,268.7,645.8,268.3L645.8,268.3z"/>
	<path d="M395.9,563.7c-0.3-1,0.3-1.6,0.8-2.3c1.3-2,2.7-4,3.9-6.1c1.4-2.3,2.7-4.6,3.3-7.2c0.1-0.4,0.3-0.6,0.7-0.7
		c0.4,0.2,0.4,0.6,0.3,0.9c-0.3,1-0.5,2.1-0.9,3.1C402,555.9,399.4,560.1,395.9,563.7L395.9,563.7z"/>
	<path d="M331.1,651.9c0.7,1.2,1.8,1.8,2.1,3c0.1,0.8-0.2,1.3-1.1,1.5c-1.4-0.5-1.9-1.8-2.5-3c0.3-1.4,0.5-2.8,0.9-4.2
		c0.2-0.6,0.5-1.5,1.7-0.9C332.3,649.6,331.6,650.7,331.1,651.9z"/>
	<path d="M415,520.3c-0.6,1.9-1.8,3.2-3.1,4.4c-1,1-1.9,2.2-3.4,2.5c-0.2,0-0.4-0.1-0.6-0.2C409.4,524.7,412.6,521.6,415,520.3z"/>
	<path d="M421.2,547.6c1.6-1.5,2.9-3.1,3.8-5.1c0.6-1.3,1.5-2.5,2.9-3.1c0.4,0.2,0.5,0.6,0.2,0.9c-0.9,1.3-1.8,2.6-2.7,3.8
		c-0.8,1.2-1.9,2.2-3,3.1C422,547.5,421.6,547.6,421.2,547.6L421.2,547.6z"/>
	<path d="M403.8,530.6c-1.6,1.6-3.5,2.6-6.2,3.3c0.9-1.3,2.1-2.2,4.3-3.4C402.4,530.2,403,530,403.8,530.6z"/>
	<path d="M430.7,536.7c0.8-2.8,2.6-4.9,4.7-7c0.1,0.5,0.3,0.8,0.2,0.9C434.3,532.9,432.7,535,430.7,536.7L430.7,536.7z"/>
	<path d="M345.1,640.8c0.1-1.9,0.1-1.9,2.5-5.6c0.3,2-0.5,3.4-1.2,4.8C346.1,640.5,345.8,641,345.1,640.8z"/>
	<path d="M423.6,500.5c-0.1,1.4-0.6,2.4-1.4,3.2c-0.9,0-1-0.6-0.9-1.2C421.6,501.5,422.1,500.6,423.6,500.5z"/>
	<path d="M437.7,526.6c2.1-1.1,2.9-1.2,4.3-0.7C440.4,526.8,440,526.9,437.7,526.6z"/>
	<path d="M353.3,625.9c-0.4,1.9-0.9,2.9-2.1,3.3C351.3,627.7,351.3,627.7,353.3,625.9z"/>
	<path d="M390,570.8c-0.6,1.9-1.4,2.6-3.1,3.7C387.8,572.8,388.4,571.8,390,570.8z"/>
	<path d="M420.1,508.7c0.5,1.2,0,2-0.8,3.1C418.8,510.4,419.1,509.5,420.1,508.7z"/>
	<path d="M368.1,591.2c0.5-0.8,1.1-1.5,1.9-1.9c0.8,0.3,0.3,0.8,0.1,1C369.6,590.9,369,591.5,368.1,591.2L368.1,591.2z"/>
	<path d="M332.6,645.7c-0.1-1.2,0.3-1.8,1.4-2.1C333.9,645,333.9,645,332.6,645.7z"/>
	<path d="M417.5,515.6c0,0.9-0.5,1.5-1.3,1.9C416.5,516.4,416.5,516.4,417.5,515.6L417.5,515.6z"/>
	<path d="M405.6,541.8c0.3,0.7,0.4,1.3-0.1,1.9C405.1,543.1,405.1,543.1,405.6,541.8z"/>
	<path d="M336.6,637.9c0.1,1-0.3,1.3-0.9,1.5C335,638.5,335.7,638.3,336.6,637.9z"/>
	<path d="M378.8,582.7c0.3-0.4,0.5-0.9,1.1-0.6C379.7,582.7,379.5,583.2,378.8,582.7z"/>
	<path d="M426.3,492.4c0.1-0.3,0.1-0.6,0.2-1C427,491.9,426.8,492.2,426.3,492.4L426.3,492.4z"/>
	<path d="M358.5,618c0,0.1,0,0.3-0.1,0.3c-0.2,0.1-0.3,0-0.3-0.3c0-0.1,0.1-0.2,0.2-0.3C358.4,617.8,358.5,617.9,358.5,618z"/>
	<path d="M355,622.5c0.1,0.4,0.1,0.8-0.2,1.2C354.2,623.1,354.4,622.8,355,622.5L355,622.5z"/>
	<path d="M395.1,564.4c0.1-0.4,0.3-0.7,0.8-0.7l-0.1-0.1C395.5,563.8,395.3,564.1,395.1,564.4L395.1,564.4z"/>
	<polygon points="430.7,536.6 430.6,536.8 430.7,536.7 	"/>
	<path d="M421.1,547.5c0,0.1,0,0.2,0,0.3V547.5L421.1,547.5z"/>
	<polygon points="363.1,596.4 363,596.5 363.1,596.5 	"/>
	<path d="M417.6,515.7c0-0.2,0.1-0.4,0.1-0.5C418.3,515.6,417.7,515.5,417.6,515.7L417.6,515.7z"/>
	<path d="M363.1,596.5c0-0.1,0-0.2,0-0.3V596.5L363.1,596.5z"/>
	<polygon points="368,591.1 368,591.4 368.1,591.2 	"/>
	<path d="M355.1,622.5c0.1-0.1,0.2-0.2,0.3-0.3l-0.1,0.2C355.2,622.5,355.1,622.4,355.1,622.5L355.1,622.5z"/>
	<polygon points="426.3,492.3 426.2,492.4 426.3,492.4 	"/>
	<polygon points="392,568 392,568.1 392.1,568 	"/>
	<path d="M392.8,567.3c-0.3,0.2-0.5,0.4-0.8,0.7l0.1,0.1C392.4,567.8,392.7,567.6,392.8,567.3L392.8,567.3z"/>
	<path d="M392.9,567.4L392.9,567.4L392.9,567.4z"/>
	<polygon points="394.2,565 394.1,565.3 394.3,565.1 	"/>
	<path d="M394.3,565.1c0.3-0.2,0.5-0.5,0.8-0.8l-0.1-0.1C394.7,564.5,394.5,564.8,394.3,565.1L394.3,565.1z"/>
	<path d="M573.7,237.3c1.9-1.3,3.8-1.2,5.5-1.4c1.7-0.3,2.6-2.2,4.3-2c0.3,0.6,0.1,0.9-0.2,1.1c-1.5,0.8-2.9,1.7-4.4,2.4
		C577.4,238,575.8,238.7,573.7,237.3z"/>
	<path d="M639.2,237.3c-0.4,2.8-1.3,3.4-4,3.3C635.9,238.8,637.5,238.3,639.2,237.3z"/>
	<path d="M716.4,221.2c1.2-1.5,2.2-3.2,3.9-4.1c0.5,0.5,0.5,1,0.2,1.4C719.4,219.8,718.1,220.9,716.4,221.2L716.4,221.2z"/>
	<path d="M625.8,230.9c0.9-1.6,2.5-1.3,4-1.7c-0.7,1.5-0.9,1.8-2,2.1C627.1,231.6,626.4,231.7,625.8,230.9z"/>
	<path d="M628.7,241.3c-0.2-0.6,0-0.9,0.3-1.1c0.5-0.1,0.9,0,1.4,0.3s1,0.5,1.8,0.9C630.6,242.3,629.6,242,628.7,241.3z"/>
	<path d="M709.4,224.6c1-1.4,1.9-2,2.9-2.5c0.8,0.3,0.8,0.7,0.4,1.1C712,224,710.9,224.3,709.4,224.6z"/>
	<path d="M712,213c1.6-0.2,2.9,0.3,4.7,0.4C714.1,214.4,713.5,214.4,712,213z"/>
	<path d="M632.1,228.7c0.8-1.5,0.8-1.5,3.2-1.5C634.4,228.1,633.6,228.6,632.1,228.7z"/>
	<path d="M704.9,226.6c0.3-0.4,0.6-0.7,1.1-0.8C705.9,226.7,705.9,226.7,704.9,226.6z"/>
	<path d="M494.6,248.3c0.3,0.2,0.5,0.4,0.3,0.7c-0.1,0.1-0.4,0.1-0.5,0.1c-0.2-0.1-0.3-0.4-0.3-0.5S494.4,248.4,494.6,248.3z"/>
	<path d="M523.2,259.5c0.6,0.4,0.6,0.8-0.1,1.1C522.7,260.2,522.8,259.8,523.2,259.5z"/>
	<path d="M491.3,239c0.6,0.4,0.7,0.8,0.2,1.3C490.9,239.9,490.8,239.5,491.3,239z"/>
	<path d="M526.5,255.5l0.3,0.1c-0.1,0.1-0.2,0.2-0.4,0.3l-0.1-0.2L526.5,255.5z"/>
	<path d="M492.7,245.6c-0.3-0.3-0.4-0.6-0.1-0.9c0.2-0.2,0.4-0.1,0.5,0.2C493.2,245.2,493.1,245.5,492.7,245.6z"/>
	<path d="M591.1,230.2c0.1,0,0.2-0.1,0.3-0.1c0.3,0.1,0.3,0.2,0.1,0.4l-0.3-0.1L591.1,230.2z"/>
	<polygon points="715.6,221.9 715.4,222.1 715.7,222 	"/>
	<path d="M715.7,222c-0.1-0.5,0.2-0.7,0.7-0.8l-0.1-0.1C716.3,221.6,716,221.8,715.7,222L715.7,222z"/>
	<path d="M582.9,564c-1.3-4.8-2-9.6-1.9-14.4c0.8-0.3,1,0.2,1.2,0.5c0.2,0.4,0.3,0.9,0.3,1.4c0.4,3.9,0.7,7.7,1,11.6
		C583.6,563.5,583.5,563.8,582.9,564z"/>
	<path d="M587.9,630.8c-0.8-1.4-0.9-2.7-0.8-4.2c1.5,0.7,1.4,2.3,2.5,3.6c2.2,1.2,4.8,2.5,5.9,5.2c-0.2,0.6-0.4,0.8-1,0.9
		C592.2,634.6,590.5,632,587.9,630.8z"/>
	<path d="M585.6,495.7c0.6-3.2,1.1-6.3,1.7-9.5c0-0.2,0.3-0.3,0.5-0.5c0.1-0.1,0.2,0,0.5-0.1C589,489.5,587.7,492.7,585.6,495.7z"/>
	<path d="M554.9,494.6c2.2-0.3,3.9,0.7,5.7,1.8C558.5,496.5,556.7,495.7,554.9,494.6L554.9,494.6z"/>
	<path d="M543.3,489.5c2.7,0.3,2.7,0.3,5.1,2C546.2,491.5,544.7,490.7,543.3,489.5L543.3,489.5z"/>
	<path d="M576.1,530.9c-1.3-0.6-1.5-2-2.2-2.9c0.4-0.7,0.8-0.8,1.2-0.3C575.8,528.6,576.4,529.7,576.1,530.9L576.1,530.9z"/>
	<path d="M567.1,513.7c-1.3-0.3-1.8-0.9-1.7-1.9C566.3,511.8,566.3,511.8,567.1,513.7z"/>
	<path d="M586.7,624.7c-1.4-0.6-1.3-1.4-1-2.4C586.6,622.7,586.8,623.4,586.7,624.7z"/>
	<path d="M579.8,540.3c-1-0.4-1.1-1.3-1.3-2.4C579.9,538.5,579.7,539.4,579.8,540.3L579.8,540.3z"/>
	<path d="M570.5,520.5c0.4-0.5,0.7-0.3,0.9,0.1c0.1,0.1-0.1,0.4-0.1,0.6C571,521,570.8,520.7,570.5,520.5z"/>
	<path d="M552.8,493.8c0.7,0.2,1.7-0.3,2.1,0.8l0.1-0.1C554.3,494.4,553.4,494.5,552.8,493.8L552.8,493.8z"/>
	<path d="M552.9,493.8c-0.3-0.1-0.5-0.1-0.9-0.2C552.5,493.3,552.6,493.6,552.9,493.8L552.9,493.8z"/>
	<path d="M543.4,489.4c-0.4,0-0.7-0.1-1.1-0.1C542.8,488.7,543.1,489,543.4,489.4L543.4,489.4z"/>
	<path d="M584.4,618.6c-0.3-0.3-0.4-0.6,0-0.8C584.7,618,584.8,618.3,584.4,618.6z"/>
	<path d="M579.7,540.3c0.2,0.2,0.5,0.4,0.2,0.9C579.8,540.8,579.8,540.5,579.7,540.3L579.7,540.3z"/>
	<path d="M576,530.9c0.1,0,0.3,0.1,0.3,0.1C576.3,531.3,576.2,531.2,576,530.9L576,530.9z"/>
	<polygon points="562.9,507.7 563.1,507.8 563,507.6 	"/>
	<polygon points="582.6,498.9 582.5,499 582.7,499 	"/>
	<path d="M583.3,498.2c0.1,0.6-0.3,0.7-0.7,0.7l0.1,0.1C582.5,498.4,582.8,498.2,583.3,498.2L583.3,498.2z"/>
	<path d="M583.3,498.2c-0.1-0.3,0.1-0.6,0.2-0.5C584.1,498.1,583.7,498.2,583.3,498.2L583.3,498.2z"/>
	<path d="M466.7,432.5c-3.9,0.7-7.3-0.8-11-1.5c0.3-0.3,0.4-0.6,0.5-0.6c3.3,0.5,6.7,0.9,10,1.4
		C466.4,431.8,466.5,432.2,466.7,432.5z"/>
	<path d="M448.1,427.7c0.2-0.9,0.7-1.6,1.5-1.8c1.6-0.6,3.1-1,5.1-1.1C451.9,426.7,450.2,427.4,448.1,427.7L448.1,427.7z"/>
	<path d="M460,427.3c-1.7,0.4-3.1,0.5-4.7,0.2C457.1,426.8,457.1,426.8,460,427.3z"/>
	<path d="M482.2,438.5c0.2,1.2-0.4,2.2-1.3,3.6C481,440.4,481.3,439.4,482.2,438.5L482.2,438.5z"/>
	<path d="M483.7,435.6c0.2-0.9,0.6-1.7,1.5-2.1l-0.1-0.1C485.1,434.5,484.8,435.3,483.7,435.6L483.7,435.6z"/>
	<path d="M505.5,377.4c0,0.3,0.1,0.6-0.3,0.8C505,377.8,505.2,377.6,505.5,377.4L505.5,377.4z"/>
	<path d="M483,437.1c0-0.6,0.1-1.1,0.7-1.5l-0.1-0.1C483.7,436.2,483.8,436.9,483,437.1L483,437.1z"/>
	<path d="M486.5,431.2c0,0.6-0.1,1.1-0.6,1.5l0.1,0.1C485.9,432.2,486,431.7,486.5,431.2L486.5,431.2z"/>
	<path d="M482.9,437c0.1,0.6,0.1,1.3-0.7,1.5l0.1,0.1C482.3,438,482.3,437.4,482.9,437L482.9,437z"/>
	<path d="M485.2,433.5c0.1-0.5,0.3-0.8,0.8-0.7l-0.1-0.1C485.8,433.2,485.6,433.5,485.2,433.5L485.2,433.5z"/>
	<path d="M486.6,431.3c0.1-0.4,0.3-0.7,0.8-0.6l-0.1-0.1C487.2,431,487,431.2,486.6,431.3L486.6,431.3z"/>
	<polygon points="487.4,430.7 487.5,430.5 487.4,430.6 	"/>
	<path d="M520.8,156.4c0.1,0.2,0.1,0.5,0.2,0.7c1.5,2.3,2.5,4.7,2.1,7.5c1.7,0.2,1.3-2.1,3.2-1.9c0.2,0,0.3,0.5,0.2,1
		c-0.5,1.9-1.5,3.2-3.8,3.2c-1.5-1.6-1.3-3.6-1.5-5.5c-0.7-1.5-1.7-2.9-2.7-4.1c-1.6,0-0.9,1.6-1.8,2.2c-0.8-0.9-0.1-2.1-0.5-3
		c-1-2.2-2.7-4.1-2.5-6.7h-0.1c1.1,1.9,2.1,3.7,3.1,5.5c0.8,0,1-0.5,0.9-1c-0.1-0.8-0.6-1.6-0.2-2.5c1.7-2.6,4.1-4.6,6.5-6.4
		c2,0.4,2.7,2.1,4.1,3l-0.1-0.1c0.1,0.8,0.7,1.2,1.5,1.4c1.2,0.3,2.5,0.6,3.7,0.9c-0.2,1.1-0.8,1.6-1.7,1.9
		c-1.8-0.5-3.1-2.1-4.8-2.8l0.1,0.1c-0.1-0.5-0.3-0.8-0.8-0.8l0.1,0.1c0-0.5-0.3-0.8-0.8-0.8l0.1,0.1c-0.1-0.6-0.4-1.1-1.2-1
		c-0.1,0.3-0.2,0.6-0.3,1l0.1-0.1c-0.5,0.1-0.7,0.4-0.8,0.8l0.1-0.1c-0.4,0.1-0.7,0.4-0.8,0.8l0.1-0.1c-0.3,0.3-0.5,0.5-0.8,0.8
		l0.1-0.1c-0.3,0.3-0.6,0.6-0.8,0.8l0.1-0.1c-1.3,0.6-1.5,1.8-1.2,3c0.2,0.8,0.5,1.6,1.2,2.2L520.8,156.4z"/>
	<path d="M536.7,137c0.9,0,1.2,0.9,1.7,1.4l-0.2,0.1l0.1-0.2c0.5,0,1,0,1.5,0.1l-0.1-0.1c-0.1,0.7-0.6,1-1.2,1.2
		c-1.6,0.6-3.2,1.2-4.8,1.6c-0.7,0.2-1.5,0.2-2.1,0c-4-1-8-1.9-11.8-3.5c-1.3-0.6-2.6-1.3-3.9-2c-0.4-0.2-0.8-0.5-0.8-1.1l-0.1,0.1
		c1.2-0.2,2,0.6,3,1.1c3.8,1.7,7.7,2.8,11.9,2.7c1.7,0,3.3-0.6,5.1-0.8c-0.1,0.6-0.2,1.1-0.3,1.5c-0.9-0.1-1.9-0.1-2.7,0.6
		c0.3,0.3,0.5,0.6,0.6,0.6c0.8-0.1,1.7-0.2,2-1.2c1.2-0.3,2.1-0.7,2.2-2.1L536.7,137z"/>
	<path d="M526.6,149.9c0.2,1.4,1.4,2.2,1.8,3.5c-0.1,1.3-1,2-2,2.7c0.4,0.7,1,1.2,0.9,2c-0.2,1.5-1.9,1.3-2.6,2.7
		c-1.2-1.9-2.2-3.5-3.9-4.4l0.1,0.1c-0.4-1.7-0.3-3.5,0-5.2l-0.2,0.2c0.3-0.3,0.6-0.6,0.8-0.8l-0.1,0.1c0.3-0.3,0.5-0.5,0.8-0.8
		l-0.1,0.1c0.3-0.3,0.5-0.5,0.8-0.8l-0.1,0.1c0.3-0.3,0.5-0.5,0.8-0.8l0.1-0.1c0.5-0.3,1-0.2,1.5,0l-0.1-0.1
		c0.3,0.3,0.6,0.6,0.8,0.8l-0.1-0.1C525.9,149.6,526.1,149.9,526.6,149.9L526.6,149.9z M524.4,152.2c-0.3-0.5,0.8-0.9,0.2-1.5
		c-1-0.1-1.4,0.6-1.6,1.4c-1.3,0.6-1.6,1-1.3,2c0.4,1.5,1.3,2.5,2.8,3l0.1,0.2l-0.2-0.1c0.1-0.7-0.2-1.4,0.5-2.2
		c0.6-0.3,1.3-0.8,2.1-1.2c0-0.7-0.3-1.2-0.9-1.5C525.5,152.3,525,152.2,524.4,152.2z"/>
	<path d="M558.6,150.7c0.6-1.6,2.1-1.9,3.4-2.3c1.7-0.6,3.5-0.6,5.3-0.6l-0.1-0.1c0.1,0.5-0.1,1-0.5,1.2c-0.5,0.3-1.1,0.5-1.7,0.8
		c-0.8,1.2-0.8,3-2.1,3.9c0.1,0.7,0.1,1.2,0.2,2c-2.3-0.6-3.9-1.9-5.3-3.6l-0.1,0.1c0.8,0.1,1.5,0.1,2.2,0.2
		c0.5-0.4,0.6-0.9,0.5-1.5C559.9,150.8,559.2,150.7,558.6,150.7L558.6,150.7z"/>
	<path d="M541,182.6c-0.4,0.2-0.6,0.5-0.7,0.5c-2.9-0.7-5.5-1.9-7.6-3.9c-2.8-2.7-4.1-5.9-3.7-9.8c0-0.3,0.1-0.7,0.5-0.8
		c0.4,0.1,0.4,0.4,0.5,0.8c0.3,5.2,2.8,8.9,7.4,11.2C538.6,181,540,181.4,541,182.6z"/>
	<path d="M515.4,163c-1.7-1.3-2.6-2.8-3.5-4.4c-1.3-2.3-2.9-4.5-4.5-6.6c-1.3-1.7-2.5-3.6-3.7-5.4c-0.3-0.5-0.7-1-0.3-1.6
		c0.2,0,0.5,0,0.6,0.1c1.6,2.2,2.7,4.8,5.2,6.3c0.3,0.2,0.5,0.6,0.6,0.9c2,3.3,3.9,6.6,5.9,10C515.6,162.4,515.5,162.6,515.4,163z"
		/>
	<path d="M541.8,131.7c0.5,0,1,0.1,1.5,0.1l-0.1-0.1c-0.3,0.6-0.7,1.2-1.2,2.2c-1,0.5-2.4,1.1-3.8,1.8c-0.6,0.3-1.4,0.5-1.6,1.3
		l0.1-0.1c-0.3-0.1-0.7-0.3-1-0.4c0.1-1.2,1.7-1.2,2.1-2.2c-2.5-0.9-4.9-1.9-7.5-3.7c3.2,0.3,5.6,1.7,8.4,1.8
		c0.8-0.4,1.8-0.8,2.8-1.2C541.6,131.4,541.7,131.6,541.8,131.7c-0.2,0.4-0.4,0.6-0.7,0.9l-0.1,0.1v-0.2
		C541.3,132.2,541.6,131.9,541.8,131.7z"/>
	<path d="M555.7,121.6c0.4,0.8,1.4,1.3,1,2.4c-0.2,0-0.4,0.1-0.4,0c-1.3-1.4-2.6-2.8-4.1-4.5c2.8-0.5,4.9,0.7,7.2,1.3
		c1.2,0.4,1.4,0.7,2.7,2.3c-0.8,0.7-1.8,0.4-2.5,0.4C558,123.4,557.3,121.7,555.7,121.6l-0.1-0.2L555.7,121.6z"/>
	<path d="M528,116.8c-5.2,1.2-10.5,1.9-16,4.2c0.9-1.9,2.2-2.1,3.2-2.5C519.4,117.1,523.6,116.3,528,116.8z"/>
	<path d="M557.9,142.3c4.1-1.2,7.7-2,11.4,0.1c0.1,0.7-0.2,1-0.8,0.8c-2-0.5-4-0.4-6.1-0.2C561,143.2,559.6,143,557.9,142.3z"/>
	<path d="M539,124.5c0.4,0,0.7,0,1.1,0.1c1.4,0.5,2.9,1.1,4.4,1.6c-1.1,0.4-1.9,0.7-2.9,1.1c-2.1-0.3-4-1.1-6-2.6
		c0.8-0.1,1.4-0.2,2-0.2l-0.1-0.1C538,125.6,538.5,124.9,539,124.5L539,124.5z"/>
	<path d="M539.7,120.2c4,0.9,7.8,2.4,11.2,4.9c0.1,0.1,0.2,0.4,0.2,0.6c-0.2,0.1-0.5,0.2-0.6,0.2c-3.5-1.7-6.9-3.4-10.4-5.1
		C539.9,120.6,539.9,120.3,539.7,120.2L539.7,120.2z"/>
	<path d="M528,148.5c0.4-0.3,0.8-0.7,1.2-0.7c2.5,0,4.9-0.7,7-1.7c0.7,0.6,0.4,1.1,0.1,1.4c-1.7,1.5-3.7,2.1-6,1.6
		C529.5,148.9,528.8,148.3,528,148.5L528,148.5z"/>
	<path d="M536.5,142.4c-2.2,2.4-4.7,3.4-8,3.3c0.6-0.5-0.1,0,0.1-0.4c0-0.1,0.1-0.3,0.2-0.3c2.6-0.5,4.6-2.4,7.1-3.2
		C536.1,141.8,536.2,142,536.5,142.4z"/>
	<path d="M504.7,154.4c0.8,0,0.9,0.7,1.2,1.2c1.3,2.2,2.7,4.2,4.6,5.9c-0.3,0.5-0.6,0.5-0.9,0.3
		C507.2,159.8,505.5,157.4,504.7,154.4L504.7,154.4z"/>
	<path d="M512,162.4c0.2,0.1,0.5,0.1,0.6,0.2c1.2,1.9,2.5,3.8,3.7,5.8c0.3,0.5,0.4,1.1-0.1,1.7C514.7,167.5,512.5,165.4,512,162.4
		L512,162.4z"/>
	<path d="M549.6,120.6c1.6,0.3,3.1,0.7,3.9,2.2c-0.3,0.5-0.4,0.5-0.7,0.3C551.8,122.3,550.7,121.5,549.6,120.6z"/>
	<path d="M507.8,123.2c0.6,0,1.2-0.1,1.8-0.1c1,0,1.9,0.1,2.9,0.4c-1.5,0.1-3,0.1-4.6,0.2C507.9,123.6,507.9,123.4,507.8,123.2z"/>
	<path d="M539.8,129.6c1.1-1,2.3-1.6,3.9-1.7C542.2,129.4,542.2,129.4,539.8,129.6L539.8,129.6z"/>
	<path d="M530.3,134c1.2-0.1,2.2,0.2,3.4,1.3C532.1,135.1,531,135,530.3,134L530.3,134z"/>
	<path d="M557.9,152.1c-0.6,0-1.1,0-2.1,0c0.8-1.4,1.8-1.4,2.8-1.4l-0.1-0.1c0.1,0.7-0.6,1-0.8,1.5H557.9z"/>
	<path d="M540.4,137.6c0.5-0.6,0.5-1.5,1.5-1.8C541.6,137,541.6,137,540.4,137.6L540.4,137.6z"/>
	<path d="M515.7,149.3c0.7-0.1,1,0.3,1.4,0.9C516.1,150.2,515.7,149.9,515.7,149.3L515.7,149.3z"/>
	<path d="M517.8,144.9c0.3,0.1,0.6,0.1,1,0.2C518.3,145.6,518.1,145.1,517.8,144.9L517.8,144.9z"/>
	<path d="M537.1,119l-0.1,0.1c-0.3,0-0.4-0.1-0.2-0.2L537.1,119z"/>
	<path d="M503.4,151.3c-0.3-0.2-0.8-0.3-0.4-0.9C503.2,150.8,503.2,151.1,503.4,151.3L503.4,151.3z"/>
	<polygon points="532.5,111.7 532.5,111.9 532.2,111.8 	"/>
	<path d="M539.8,120.1c-0.4,0-0.7-0.1-1.4-0.1C539.2,119.4,539.5,119.7,539.8,120.1L539.8,120.1z"/>
	<path d="M517.9,141.1c-0.6-0.1-1.2,0.1-1.5-0.7l-0.1,0.1C517,140.5,517.5,140.7,517.9,141.1L517.9,141.1z"/>
	<path d="M515.1,134.6c-0.6,0-1.1-0.2-1.5-0.6v0.1C514.1,134.1,514.7,134.1,515.1,134.6L515.1,134.6z"/>
	<path d="M503.3,151.4c0.7,0.3,0.8,0.8,0.7,1.5l0.1-0.1C503.2,152.6,503.4,151.9,503.3,151.4L503.3,151.4z"/>
	<path d="M536.9,122.9c-0.2,0-0.5-0.1-0.7-0.1C536.5,122.5,536.6,123,536.9,122.9L536.9,122.9z"/>
	<path d="M530.3,133.9c-0.3,0-0.7-0.1-1.1-0.1C529.8,133.2,530,133.6,530.3,133.9L530.3,133.9z"/>
	<path d="M537.5,124.6c0-0.3,0-0.5,0-0.8l-0.1,0.1c0.6-0.1,1.3-0.2,1.5,0.6l0.1-0.1c-0.5,0-1,0-1.6,0L537.5,124.6z"/>
	<path d="M504.8,154.3c-0.8-0.2-0.8-0.8-0.7-1.5l-0.1,0.1C504.9,153.1,504.9,153.7,504.8,154.3L504.8,154.3z"/>
	<path d="M512.1,162.3c-0.3-0.2-0.6-0.4-0.5-0.9C512.2,161.5,512,162,512.1,162.3L512.1,162.3z"/>
	<path d="M543.3,131.8c0.2-0.5,0.5-0.6,0.9-0.2C543.9,131.6,543.6,131.7,543.3,131.8L543.3,131.8z"/>
	<path d="M539.7,129.5c-0.2,0.2-0.3,0.6-0.8,0.3C539.2,129.8,539.5,129.7,539.7,129.5L539.7,129.5z"/>
	<path d="M540.3,137.5c0.1,0.6-0.2,0.8-0.7,0.8l0.1,0.1C539.7,137.9,540,137.7,540.3,137.5L540.3,137.5z"/>
	<polygon points="513.6,134 513.4,133.8 513.5,134 	"/>
	<path d="M536.8,123c0.4,0.2,0.7,0.3,0.7,0.9l0.1-0.1C537.1,123.7,536.8,123.4,536.8,123L536.8,123z"/>
	<polygon points="513.7,149.9 513.4,149.8 513.6,149.9 	"/>
	<path d="M567.4,147.8c0.1-0.2,0.2-0.4,0.3-0.5C568.1,147.8,567.6,147.7,567.4,147.8L567.4,147.8z"/>
	<polygon points="517.9,141.2 518,141.3 517.9,141.1 	"/>
	<path d="M526.9,365c0.4,2.4,0.1,6.3-0.6,8.7c-0.2-0.1-0.5-0.1-0.6-0.3c-0.9-1.7-0.4-3.5-0.1-5.2C525.8,367.1,525.7,365.8,526.9,365
		z"/>
	<path d="M549.2,327.3c1.2-1.8,2.9-3.1,4.4-4.6c0.5,0.3,0.6,0.6,0.3,0.9C552.6,325.2,551.3,326.8,549.2,327.3L549.2,327.3z"/>
	<path d="M526.9,360.7c0.2,0.6,0.3,0.9,0.3,1.2c0,0.2-0.2,0.4-0.3,0.6C525.9,362,526.3,361.5,526.9,360.7z"/>
	<path d="M540.5,334.7c0.1-0.7,0.5-0.9,1.2-0.6C541.5,334.9,540.9,334.6,540.5,334.7L540.5,334.7z"/>
	<path d="M540.4,334.6c-0.5,0.4-0.5,0.4-1.1,0.2C539.8,334.7,540.1,334.7,540.4,334.6L540.4,334.6z"/>
	<path d="M527.7,353.8c0,0.2,0,0.4,0.1,0.6C527.3,354.3,527.6,354,527.7,353.8z"/>
	<polygon points="549.1,327.2 549,327.4 549.2,327.3 	"/>
	<path d="M552.2,284.4c2.1,0.6,4.3,1.2,6.4,1.8c0.6,0.2,0.9,0.7,0.5,1.6c-3,0.5-4.7-2.2-7.3-2.7C552,284.9,552.1,284.6,552.2,284.4z
		"/>
	<path d="M383.1,664.3c0.6,0.3,0.8,0.5,0.8,0.9c-0.3,0.7-0.6,1.2-1.5,1C382,665.4,382.7,665,383.1,664.3z"/>
	<path d="M660,205.1c0.1,0.5,0.2,0.9-0.1,1.3C659.3,206,659.3,206,660,205.1z"/>
	<polygon points="521.2,417.3 521.1,417.1 521.3,417.1 	"/>
	<path d="M522.9,152.1c0.5,0,1,0,1.6,0C524,153.2,523.5,152.4,522.9,152.1z"/>
</g>
</svg>
