<?xml version="1.0" encoding="utf-8"?>
<!-- Generator: Adobe Illustrator 23.0.1, SVG Export Plug-In . SVG Version: 6.00 Build 0)  -->
<svg version="1.2" baseProfile="tiny" id="Layer_1" xmlns="http://www.w3.org/2000/svg" xmlns:xlink="http://www.w3.org/1999/xlink"
	 x="0px" y="0px" viewBox="0 0 900 600" xml:space="preserve">
<g>
	<path d="M779.84,561.82c-1.4-3.64,1.34-296.27-1.34-296.27c-1.91,0-1.24-15.63-1.24,297.82c-1.27,0.85-24.38,3.18-40.03,5.07
		c-25.72,3.1-26.83,4.51-28.76-0.52c-7.78-15.56,7.17,13.64-7.86-15.72c-1.81-3.53-3.62-3.64-3.41-5.9
		c0.73-8.01,2.12-6.43,2.69-13.34c0.63-7.65,3.24-12.47,4.97-17.48c12.74-37.08,10.78-30.79,12.83-60.52
		c1.01-14.72,7.29-22.13,2.79-29.48c-0.31-0.41-0.62-1.03-0.72-1.55c-0.21-1.66-1.22-3.01-1.97-4.45
		c-8.73-16.87-5.23-19.54-11.48-31.97c-9.06-18.01-18.42-25-19.97-27.52c-2.43-3.97-7.02-7.23-13.03-13.24
		c-9.5-9.5-7.89-11.55-15.31-25.03c-0.96-1.74-1.47-3.63-1.14-5.38c0.58-3.01,0.36-6.1,0.41-9.1c0.18-10.25,2.2-9.73,3.31-16.76
		c1.66-10.49,4.75-13.57,4.14-18.41c-0.09-0.72,0.12-0.09,1.86-11.79c0.44-2.94-0.2-2.58-0.83-3.21c-1.24,2.28-0.83,4.86-2.07,7.24
		c-8.87-4.44-6.81-1.39-13.45-2.07c-14.17-1.45-34.01,1.99-47.59,5.9c-3.59,1.03-3.77,1.65-4.24,0.21
		c-1.82-5.57-3.9-6.85-5.28-10.24c-7.35-18.05-13.41-25.04-15.31-38.79c-0.1-0.72-0.42-1.56-0.21-2.07c0.79-1.88,0-3.41-0.83-4.97
		c-5.95-11.13-5.63-10.45-5.69-10.86c-0.1-2.17-1.34-3.62-3-4.97c1.07-7.52-5.73-21.81-4.86-30.83c1.02-10.54-1.66,6.85-2.17-39.1
		c-0.05-4.4-1.16-0.73-1.97-6.21c-3.37-22.93-3.27,0.31-9.41-51.72c-0.73-6.21-0.93-18.82,0.1-20.9c0.72,0.1,1.34,0.21,2.07,0.31
		c-0.62-2.17-2.48-3-3.72-4.24c-0.82-2.86-1.61-4.63-0.72-7.34c0.56-1.72,0.3-5.97,0.62-7.66c1.16-6.09-1.55-8.73,0.83-18.52
		c1.76,3.88,1.14,5.27,1.14,11.48c0,2.28,0.72,4.55,1.03,6.83c0.31-0.21,0.62-0.31,0.72-0.41c1-3-0.9-4.27-0.93-5.59
		c-0.23-9.31,0.99-7.2-0.52-12.83c-0.37-1.39-0.62-2.71,0.83-3.1c2.42,10.9,1.99,6.55,3,16.14c0.11,1.05,0.12,4.11,1.45,3
		c-1.73-20.78-4.7-20.7-3.52-23.07c0.9-2.25,2.55-1.73,2.59,0.31c0.09,5.5,1.78,6.85,2.38,13.45c0.73,8.09,0.1,10.58,1.97,9.52
		c0-0.72,0.1-1.66,0.1-2.59c0-1.03-0.21-2.07-0.31-3.1c-1.55-15.5-1.72-3.28-2.69-17.79c0.58,0.38,1.07,0.59,1.46,0.87
		c0.29-2.13-1.77-3.35-2.6-3.35c-5.32,0-3.41,1.85-5.9,6.83c-4.53,9.07-2.11,26.14-3.1,30.1c-1.86,5.59,2.53,7.68,1.24,17.38
		c-0.76,9.9,0.77,23.26,2.9,32.79c1.65,7.39,0.39,9.94,3,18.41c6.37,20.71,0.93,16.21,6,21.52c0,32.26,2.41,29.81,1.97,39.62
		c-0.3,6.51,1.46,11.88,3.21,19.03c1.73,7.07-0.09,11.76,4.03,17.17c2.37,3.11,4.06,6.81,6.1,10.24c0.73,1.24,1.05,2.48,1.14,3.93
		c0.95,15.91,9.17,27.92,9.21,28.03c1.44,4.72,3.54,9.14,9.83,21c2.89,5.45,1.9,11.03,1.34,22.86c-0.19,4.17-1.02,4.45-5.28,14.79
		c-0.85,2.06-1.14,4.34-2.9,5.9c-0.1,0.1-7.76,14.15-9.21,20.48c-3.67,16.13,0.88,24.89,0.93,27.83c0.13,7.96,7.84,18.9,12.62,24.72
		c5.09,6.2,3.73,9.75,15.93,27.21c11.81,16.9,13.16,16.37,14.69,18.83c5.91,9.51,6.88,10.87,7.14,13.24
		c1.22,11.13,1.66,12.66-0.62,16.14c-11.64,17.75-16.02,25.67-11.59,65.9c3.25,29.48,4.25,16.87,2.28,36.62
		c-4.12,0.16-3.03,0.38-9,27.52c-0.11,0.52,0.1,1.14,1.14,0.93c6.74-19.38,3.59-27.91,7.66-26.9c1.08,1.43,0.36,1.91-1.03,3.31
		c0.83,2.17,2.38,3.21,4.34,4.03c6-2.9,9.93-7.76,13.03-13.34c2.69-0.83,5.28-0.93,7.86,0.31c0.52,3.21,0.93,6.31,1.34,9.41
		c-3.91,0.6-6.58,0.89-8.9,2.79c-2.2,1.81-2.17,2.54-1.66,3.31c1.76,1.76,1.97-2.26,11.48-4.03c0.62-0.12,1.03,0.21,1.03,1.03
		c-0.6,0.13-4.15,0.63-6.21,1.86c-2.57,1.28-2.13,5.17,0.72,4.76c0.35-0.05,2.96-0.87,4.97-1.76c3.36-1.49,2.49-1.93,4.45,0.41
		c-1.47,1.17-2.13,0.55-6.31,2.38c-1.63,0.71-1.29,2.9,0.41,2.9c3.01,0,1.22-0.15,1.97,1.34c1.03,0.77,2.69-0.19,7.66-1.76
		c5.95,5.38,8.1,7.61,14.07,9.31c1.16,5.81,2.42,3.56-2.79,7.03c-3.49-1.96-6.94,3.56-16.86,2.17c-6.94-0.97-11.71,0.2-15.21-2.79
		c-1.14-1.14-3-1.55-4.14-2.59c-3.61-3.3-7.21,2.79-17.17-1.14c-0.52-0.2-0.93-0.72-1.76-0.1c-0.1,0.93,0.42,1.65,1.24,2.17
		c3.22,2.04,5.09,1.14,9.93,1.14c3.61,0,2.93-0.86,5.28-1.45c2.9,2.18,8.01,7.37,17.9,7.14c6.49-0.15,10.72,0.2,14.69-1.03
		c2.55-0.51,1.96,1.19,4.66-0.31c5.26-2.92,5.85-3.81,7.97-4.03c1.66-2.79-0.83-4.76-1.24-7.24c4.55,0.93,8.79,1.14,12.93-0.52
		c6.17,5.57,14.45,8.16,21.41,7.55c7.14-0.62,13.55-3.52,20.07-6.1c2.85-7.14-0.7-11.4-2.59-11.59c-2.48-0.41-4.45-1.97-6.72-2.9
		c-7.68,0,47.3-6.08,61.34-7.86c9.01-1.14-11.16-2.91,36,1.55c53.77,5.09,54.93,5.72,54.93,4.03
		C869.53,569.36,795.34,564.2,779.84,561.82z M679.6,356.79c16.87,16.72,24.24,31.31,31.03,50.38c4.34,12.2,4.78,10.37,8.38,20.9
		c2.11,6.17-4.81,26.49-3.21,29.69c0.74,1.85,0.11-3.61-1.86,22.76c-0.31,4.14-2.72,6.07-7.86,24.41
		c-2.54,9.06-5.78,11.96-8.28,28.97c-1.51,6.55-2.77,7.61-3.1,12.52c0,0.31-0.1,0.62-0.31,1.24c-0.62,0.1-1.14,0.21-1.34,0.1
		c-3.72-0.34-7.26,3.97-8.59,7.34c-0.82,2.07-2.35,3.65-3.93,5.28c-0.81,0.84-1.86,0.93-3.1,0.52c-3.42-6.83,0.42-0.39,0.83-14.9
		c1.45-51.3,0.92-66.14,1.45-67.65c11.41-32.79,15.93-22.12,7.03-41.69c-5.07-11.14-9.26-11.45-25.55-25.14
		c-11.41-7.6-12.05-16.66-18.62-38.79c-1.13-2.84-0.71-3.84,0.31-4.86c4.89-4.89,11.23-7.88,22.55-11.9
		c5.08-1.8,7.88,0.79,10.65-0.21C677.44,355.27,678.56,355.76,679.6,356.79z M589.08,312.1c1.82-2.07,5.6-11.91,6.41-14.07
		c3.63-9.6,6.09-13.57,4.14-23.79c-0.35-3.19-1.33-2.84,1.45-3.72c7.75-2.47,26.95-5.25,32.48-5.59
		c26.09-1.61,21.91-1.76,29.48,2.28c0,4.66,0.09,6.8-2.38,13.45c-1.53,4.11-1.63,9.03-2.79,11.9c-3.6,8.85-3.46,20.75-2.69,24.31
		c0.11,0.52-0.21,1.14-0.31,1.76c-13.97,3.49-38.77-2.43-52.86-5.28C594.03,311.73,587.39,313.79,589.08,312.1z M596.33,384.31
		c-17.81-24.6-14.61-20.34-15-28.55c-0.58-12.21-1.47-25.82,6.83-40.76c5.45-2.11,9.86-0.41,30,2.79c0.11,0.02,14.66,5.3,27.93,3.93
		c1.31,0,6.03-0.3,9.31-0.41c1.5,2.19,0.08,1.1,6.31,13.55c-1.55,0.78-5.15-0.28-6.21,0.93c2.07,0,4.14,0,6.83,0.1
		c6.3,7.88,5.2,8.65,11.48,14.79c6.18,6.05,0.76-3.39-26.38,12c-2.59,1.47-3.92,3.55-6.21,3.93c-2.69-7.17-0.41-6.47-0.41-16.76
		c-4,1.43-1.55,6.23-3,12.52c-2.38-0.21-4.76-0.32-7.03-0.52c-19.52-1.68-38.07,16.43-34.14,19.86
		C597.35,382.35,597.05,383.37,596.33,384.31z M639.77,542.48c-0.08,1.38-0.72,10.43-0.72,11.28c-5.69,1.75-2.63,0.02-9.52,9.1
		c-1.34,1.76-3.31,2.9-5.28,3.93c-1.03,0.41-1.86,0.1-2.69-1.14c2.91-2.02,1.5-3.35,2.07-4.76c1.73-5.81,0.11-7.41-1.86-22.14
		c-0.37-2.76-2.27-19.53-2.38-19.97c-2.46-10.23,0.02-18-1.55-20.59c-0.54-0.88-0.48-10.3,2.07-19.45
		c0.78-2.8,1.76-4.58,10.55-19.03c2.87-4.72,2.8-8.14,2.48-16.03c-0.26-6.47-4.16-7.3-5.17-11.69c-0.7-3.06-14.38-21.03-16.45-23.69
		c-11.42-14.68-14.7-20.23-12.1-28.86c2.61-8.68,24.59-19.84,39.1-15c8.32,32.25,6.64,24.5,14.17,42.52
		c2.75,6.57,4.73,14.34,8.28,27.62c1.18,4.42-0.33,3.66,1.66,8.48c1.64,4-2.95,15.11-4.66,18.62c-4.39,9.04-3.92,15.17-5.38,7.86
		c-0.1-0.52-0.41-0.93-0.83-1.97c-0.62,3-0.32,5.49,0.62,7.76c1.51,3.65,0.69,4.92,0.21,9.21c-1.16,10.28-2.98,11.74-5.38,19.65
		C644.78,511.57,641.77,509.64,639.77,542.48z M660.46,580.03c1.14-0.52,2.17-0.62,3.31-0.41
		C664.5,582.28,661.6,582.76,660.46,580.03z M664.08,576.82c-4.77,0.6-6.37,1.18-7.34,0.21c-6.41-5.65-1.8-1.63-8.59-11.69
		c-3.64-5.39-0.47-8.02-3-10.76c-0.61-0.15-2.53-0.21-3.1-0.31c-2.56-32.48,7.54-43.9,11.07-66c1.31-8.21,1.3-12.22,2.17-14.59
		c3.66-9.9,3.36-10.02,4.86-10.55c0.77-2.57-0.01,0.5,3.83-16.03c0.79-3.38,0.74-1.89-0.31-5.38c-1.29-4.29-0.26-15.34-5.28-28.55
		c-0.34-0.34,0.29-1.56,1.24-0.62c15.62,15.45,16.52,6.78,28.97,33.41c1.16,2.47,1.05,4.77-0.31,7.03
		c-1.43,2.39-2.28,5.07-4.34,7.14c-0.3,0.3-8.5,18.19-6.72,22.14c0.47,0.78-1.03,9.78,0.1,20.38c1.28,11.97-3.09,50.99-3.1,51.1
		c-0.1,1-0.3,1.8-1.25,2.22c-0.09-0.41-0.1-0.99-0.4-1.19c-0.93-0.62-1.97-0.52-3,0.31c0.74,4.45-2.51,6.94-2.79,10.24
		c-0.32,3.72-1.86,7.03-2.28,10.66C664.5,576.2,664.29,576.41,664.08,576.82z M723.67,586.23c-4.86,2.9-9.84,4.69-15.21,5.69
		c-2.7,0.5-2.53-0.54-7.55-1.24c-17.88-2.49-13.07-7.76-18-5.38c-3.08,1.49-6.41,1.03-9.72,1.03c-0.53,0-0.33,0.18-7.97-4.14
		c2.19-4.59,0.56-7.91,1.66-10.03c1.01-1.98,1.14-4.03,1.66-6.1c0.52-1.66,1.12-3.32,1.76-4.97c1.94-5.01-0.06-5.12,2.6-5.07
		c0.1,0-0.26,1.77,0.82,3c1.81,1.81-0.17,4.14,6.41,4.14c2.28-3.1,5.28-5.69,6.93-9.21c0.1-0.31,0.31-0.62,0.52-0.93
		c1.96-3.33,3.69-4.79,10.03-3.21c1.03,2.17,2.07,4.34,2.9,6.93c-6.27,0.7-8.36,0.58-12.41,5.38c-0.43,0.51-0.31,0.72,0.21,2.38
		c2.32-0.58,4.93-4.81,13.34-5.17c0.62,0.21,1.03,0.83,0.93,1.76c-4.96-1.07-12.03,2.42-12.31,7.14c0,0.41,0.31,0.83,0.52,1.45
		c7.19-5.75,5.48-4.26,12.83-7.14c3.09,6.18,1.79,0.35-6.21,3.62c-3.91,1.3-3.85,6.32,0.1,4.34c2.69-1.14,5.48-2.38,8.28-3.52
		c1.36,1.36-2.24,1.58-5.59,3.52c-2.67,1.54-1.74,3.68-0.52,3.52c3.07-0.41,2.93-0.8,5.59-2.07c3.22-1.54,2.28-1.75,5.79,1.45
		c-2.5,0.63-5.08,0.91-6,2.07c-0.99,0.74-1.48,5.46,8.59-0.41C726.51,580.29,723.28,577.34,723.67,586.23z"/>
	<path d="M395.64,569.89c-2.18-0.2-85.17-7.6-87.52-8.69c0-283.38,0.09-293.52,0.1-293.62c-0.02-3.19-2.38-3.2-2.38,0.03
		c0,0.1,0.33,294.69,0.21,295.44c-0.97,0.97-33.91,4.48-63.72,7.86c-5.01,0.57-4.9-2.91-6.72-6.52
		c-7.11-14.04-7.64-14.51-8.69-15.52c-0.74-0.71-1.56-1.66-1.34-2.79c0.4-2.07,0.51-4.25,1.24-6.21c2.21-5.89,1.07-10.17,4.24-18.31
		c13.59-34.94,14.6-42.53,14.9-66c0.05-3.98,1.09-4.9,2.48-13.76c0.81-5.14,4.14-10.24,0.41-16.24c-0.31-0.41-0.62-1.03-0.72-1.55
		c-0.21-1.66-1.22-3.01-1.97-4.45c-8.43-16.14-5.3-19.74-11.79-32.59c-13.2-26.12-33.43-36.5-41.07-51.21
		c-11.42-22-7.94-12.05-7.66-30.1c0.15-9.64,2.16-7.96,3.31-15.41c1.58-10.28,4.94-13.97,4.03-18c-0.16-0.69,0.64-3.39,1.03-6.31
		c1.29-9.47,0.87-9.23,0.81-9.15c0.02-0.04,0.11-0.23,0.33-0.88c-2.23,0.64-0.95,1.62-2.9,7.45c-11.06-4.55-4.94-1.33-13.34-2.07
		c-16.07-1.41-39.01,2.64-51.31,7.03c-4.24-9.9-1.51-1.23-11.83-24.69c11.34,1.18,25.34-9.5,23.21-25.27
		c-2.47-18.29-12.47-23.32-11.07-24.72c0.62-0.41,1.24-0.72,1.97-1.14c9.11,10.94,13.07,21.19,25.65,27.52
		c10.02,5.04,21.33,8.68,28.55,0.1c2.19-2.6-2.63-10.62-2.49-12.13c2.23,1.78,6.32,7.2,6.32,7.69c-0.17,1.6,0.3,2.36,5.17,7.55
		c6.71,7.15,9.25,15.67,10.76,19.45c1.53,4.6-8.35,12.87-8.87,15.1c1.57,0.03,2.59-1.06,3.8-1.97c1.43-1.25,1.7-2.98,3.83-1.45
		c11.4,8.2,20.22,5.96,22.55,6.83c2.79,1.04,5.79,0.72,8.69,0.72c0.83,0,1.55-0.41,2.38-0.72c1.24-24.9,3.11-3.78,2.79-38.9
		c-0.1-10.9-4.13-31.81-2.9-35.59c1.44-4.42,0.22-5.65,0.31-10.76c0.18-9.94-3-8.63-3-22.45c0-2.83-2.14-2.53-3.31-3.31
		c-1.15-4.58-0.35-5.34-3.21-5.17c-1.14,0-0.72,0.41-1.97-2.07c-4.09-0.88-3.56,1.3-5.07,3.31c-2.09,2.47-1.36,3.91-2.48,13.97
		c-1.14,0.21-1.97,0.62-2.38,1.76c-1.99,5.59-0.25,9.22,1.14,14.69c1.26,4.94,2.51,3.36,5.38,10.14c4.52,10.7-0.56,34.45-3.62,40.45
		c-2.65,5.2,1.44,6.33-6.1,1.34c-8.13-5.37-10.98-10.05-16.24-15.31c2.64,9.22,23.77,23.75,29.79,29.17
		c0.35-1.05,1.77,0.88-6.93-9.21c0.1-1.66,0.41-3.52,1.34-5.38c1.74-3.47,2.19-6.95,4.86-21.52c0.46-2.51,0.01-12.56-0.21-15.1
		c-0.23-2.79-1.39-5.36-2.28-8.07c-0.44-1.34-1.34-2.38-2.48-3.31c-2.87-2.05-2.58-4.5-3.52-16.03c0-0.52,0.1-0.93,0.21-1.45
		c1.55,0.52,2.28,1.45,2.59,2.79c1.74,7.52-0.24,6.68,5.38,11.17c3.2-0.64,1.36-1.6-3.1-5.79c-0.52-2.9-0.41-6.31-2.59-9
		c1.16-5.12,0.51-12.4,2.48-14.38c1.75,3.5-1.38,13.02,2.07,17.79c0.17-0.25,0.66-0.75,0.31-1.86c-1.42-4.53-0.61-9.1-0.93-13.65
		c-0.33-4.74-0.54-5.01,0.52-5.28c3.84-1.28,2.81,17.38,3.21,19.97c0.41-1.14,0.72-1.45,0.72-1.86c-0.31-4.66,0.44-9.42-0.21-14.07
		c-0.1-0.72-0.41-1.76,0.93-1.97c0.21,0.21,0.52,0.41,0.52,0.72c1.64,17.2,0.04,16.17,2.48,18c1.14-4.45-1.03-8.79,0.1-12.93
		c0.86-0.29,1.14,0.44,1.14,1.34c-0.62,2.9,0.52,5.79,0.52,8.69c0,1.9,4.7,6.62,2.07,23.07c-0.62,3.86,1.72,13.31,1.86,33.52
		c0.18,25.01,0.42,24.14,0.1,25.24c-1.54,5.33-1.53,11.16-2.17,15c-5.79,1.26-4.97-0.43-18.52-3.21c-3.88-0.8-8.11-2.19-12.93-4.86
		c1.95-3.58,3.28-5.87,2.9-9.62c-0.74-7.31-2.83-14.64-8.69-19.86c-8.06-7.18-10.48-14.22-22.86-23.07
		c4.28-1.53,11.45,2.4,14.17,5.79c6.91,8.6,6.42,8.48,7.45,8.69c-2.15-10.41-9.73-16.24-14.38-16.24c-12.82,0-11.15,0.86-16.14-2.28
		c-0.79-0.49-1.68-0.69-2.57-0.53c0.88,3.21,15.56,7.56,21.6,23.49c-2.17,2.07-4.55,3.84-7.34,4.86c-3.39,1.24-3.86-0.52-4.86-3.52
		c-0.93-0.41-1.45,0.83-2.38,0.21c-0.52-0.41-1.24-0.41-1.86-0.62c-1.06,1.49,2.33,1.62,3.62,4.03c-3.28,0.52-7.69-1.62-15.1-4.76
		c-5.51-2.33-11.4-6.65-17.07-16.24c20.53,1.77,17.07,1.38,18.93,2.17c5.99,2.56,4.84,3.92,9.1-2.17c-0.93,0.21-1.45,0.1-1.76,0.31
		c-0.88,0.44-1.75,2.8-4.86,1.24c-10.39-3.97-16.91-1.97-20.69-3.1c-3.32-1.25-1.96,0.13-9.31-8.9c4.24-8.28,5.69-17.07,4.03-26.48
		c0.72-0.41,1.34-0.83,2.07-1.24c-0.21-0.21-0.41-0.41-0.52-0.41c-1.44,0.52-2.37-0.91-3.6-0.93c-3.31-4.16-4.53-5.13-4.78-8.9
		c-0.09-0.58,0-1.15,0.52-1.47c0,0.76,0,1.44,0,2.3c1.24,0,1.14-1.14,1.76-1.55c1.81,0.52-0.64,1.61,0,2.9
		c0.93,0.41,1.24-0.83,2.28-0.83c-0.1,0.83-0.31,1.55-0.41,2.38c3.42,3.8,1.54,5.92,3.52,1.97c-1.45-1.55-2.48-3.21-2.07-5.59
		c1.74-1.22,6.45,2.79,1.76-2.69c0.72-0.62,2.17,0,2.59-1.34c-0.93-0.83-1.76,0.21-2.59,0.1c-0.83-0.1-1.66,0-3,0
		c2.48-1.14,4.97-1.03,6.52-3.1c-0.39-1.16-1.03-0.11,1.86-3c0,0.03,0,0.06,0,0.1c0.41-0.21,0.31-0.52,0-0.83c0,0.52,0,0.24,0,0.72
		c-2.8,0-0.94,0.83-3.72,0.52c-0.41,1.03-1.24,0.72-2.07,0.72c-4.32,1.73-3.52-0.09-7.03,1.86c4.21,0,0.94,0.35,10.37-0.89
		c-0.79,2.36-9.69,3.15-11.09,3.36c0.02,0.61,0.19,1.39-0.1,1.87c-2.19,4.61,1.61,5.26,1.97,10.86c0.65,10.19,3.51,16.16,1.63,17.42
		c-0.07-0.54-1.14-7.37-2.04-8.21c0.08,2.02-0.25,1.79-1.04,2.59c1.42,18.51-4.86-12.85-2.48-27.1c1.1,0.5,0.96,1.85,2.05,2.13
		c-0.31-3.26-0.39-1.38-0.39-5.44c2.79,1.34,5.48,1.34,8.28,1.34c0.52-1.14,1.34-0.72,2.17-0.72c0.41-1.03,1.34-0.52,2.07-0.72
		c1.76-0.7,1.34-0.76,2.48-2.48c-2.25-0.56,0.11-1.16-0.38-2.38c-1.4,0-1.17,0.29-1.17-1.14c-1.45,0.31-3,0.72-4.45,0.1
		c0.89-1.09,2.52-0.78,3.39-1.74c0,0,0.05-0.02,0.23-0.02l-0.1-0.1c-0.06,0.1-0.12,0.12-0.12,0.12c-2.65,0.21-5.37,0.69-8.02,1.27
		c1.42,0.51,1.06,0.58,4.31,1.4c0.21,0.1,0.31,0.31,0.62,0.52c-5.73,1.27-5.09-0.53-5.26,0.63c-2.06-2.67-3.07-1-0.66-0.65
		c0.72,0.72,0.74,0.54,0.54,1.37c2.17,0.1,4.34,0.31,7.34,0.52c-1.24,0.37-2.93,0.93-6.21,1.66c0.72,1.03,1.55,0.2,2.28,0.31
		c0.69,0.1,1.48,0.01,2.28,0c-3.21,2.38-6.31,1.45-9.41-0.1c-0.83-0.41-1.14-1.34-0.62-2.38c0.93,0.52,1.97,1.03,3.1,1.55
		c0.23-1.87-4.25-1.42-3.31-4.86c6.63,2.21-1.86-0.51,0.62-4.24c0.65,0.09,1.21,0.11,1.77,0.19c-0.48-0.58-0.87-1.17-1.36-1.84
		c3.11-4.27,1.9-3.19,3.62-3.62c0.72-0.83,0.83-0.83,1.34,0c0.97-0.65,1.36,0.09-0.1-1.86c1.19-1.59,3.71,1.41,2.28-1.45
		c1.56-2.27,5.79,0.72,3.21-1.86c0.1-0.1,0.21-0.41,0.31-0.41c0.72-0.22,4.66-1.38,5.38-1.03c1.26,0.61,2.82-0.01,3.96,0.98
		c-3.01-0.59-5.54,1.5-8.72,1.5c0.1,0.1,0.1,0.31,0.21,0.31c6.89,1.38,6.19,1.28,6.25,1.16c4.79,2.02,3.52,0,6.48,1.32
		c1.56,0.7,3,1.76,4.86,1.14c1.45,1.03,2.9,0.1,4.24,0c0-1.39-0.26-0.96,1.31-1.22c-0.16-0.47-0.77-0.79-0.18-1.57
		c2.79,1.72,2.5,4.48,3.41,2.17c2.54,1.82,3.65,4,7.34,14.48c-5.5,0.73-5.09,0.49-6.24,1.88c4.12,0.56,3.57-1.26,6.65-0.33
		c0.41,1.34-0.41,2.38-0.62,3.41c-0.84,0.37-1.33,0.3-1.81-0.17c0.29-0.11,0.21-0.07-0.01-0.01c-0.13-0.13-0.24-0.23-0.05-0.04
		c-4.2,2.1-3.53,0.82-1.03,4.55c1.76,0.31,1.97-1.34,2.9-2.07c4.27,8.53,0.89,16.77-1.55,25.97c-1.5,5.66-4.03,5.05-9.62,5.79
		c-1.72,6.01-0.06,12.88,1.43,14.37c1.27-1.62,0.21-8.76,0.85-13.85c8.3-0.83,6.04-0.81,10.55-14.07c2.08-6.12,1.4-9.59,0.31-14.79
		c-1.56-7.45,0.7-5.96-1.03-12.41c-1.25-4.65-4.72-13.66-8.28-15.52c-7.27-3.81-14.48-5.48-24.41-3.93
		c-3.69-2.3-6.36-3.53-11.28-1.76c-3.29,1.19-5.16,3.62-5.38,7.03c-0.2,3.1-0.32,6.31,0.1,9.41c1.8,13.2-2.79,20.04-0.21,27.52
		c0.2,0.59,0.95,14.23,3.72,17.69c-0.09-0.36,0.75,0.54,0.83,0.83c0.72,1.86,1.24,3.83,1.97,5.79c-0.21,0.41-0.52,0.93-0.72,1.45
		c-1.2,4.39-5.57,4.4-7.76,5.9c-4.41,3.01-6.68-0.59-15.31,2.69c-3.91,1.49-10.8,5.43-13.45,8.69c-2.58,3.17-9.12,12.07-9.83,16.45
		c-0.63,3.91-2.21,3.06-18.1,18.31c-0.62-1.14-1.14-2.07-1.76-2.9c-3.78-5.94-2.05-6.7-4.55-12.41c-4.16-9.51-5.28-11.08-5.28-12.93
		c0-2.95-2.38-8.43-3.43-20.47c-2.9,1.17,1.98,17.65,1.88,19.02c-0.4,5.6,2.84,10.3,5.79,17.9c2.09,5.38,2.38,7.28,4.34,10.34
		c1.75,2.72,1.14,3.32,2.59,8.38c0.21,0.41,0.72,0.83,1.14,1.34c1.97-2.07,0.31-4.14,0.21-6c3.18-1.19,5.28-3.93,13.97-12.41
		c3.93-3.83,3.95-4.38,5.9-8.28c9.11-15.52,9.37-16.1,11.69-17.28c9.9-5.04,11.78-7.04,18.1-6.83c4.94,0.16,6.38-0.8,10.24-1.45
		c5.22,6.64,9.73,17.5,10.24,31.03c0.29,7.66-7.89,14.63-15.41,15.93c-1.01,0.17-3.55,0.68-4.93,1.6c-0.11-0.28-0.57-2.14-0.13-1.71
		c-1.48-1.85-0.29,1.2-4.86-9.62c-0.65-1.96-0.97-1.28,4.76-7.34c1.93,1.23,2.48,1.95,5.79,3.52c0.93,0.44,1.51-0.56,1.03-1.03
		c-0.93-0.62-2.38-0.31-2.79-1.76c-0.41-1.45-2.07-0.83-2.9-1.66c-1.09-1.09-1.97-4.34-7.97-7.76c-0.69-0.35-1.27,0.25-3.41,1.03
		c1.66,1.03,3.49,0.85,4.55,2.28c1.01,1.36,2.59,2.28,3.72,4.03c-1.89,1.58-5.62,4.4-5.69,7.03c-0.09,3.54-4.24,7.04-7.03,9.21
		c-28.26,21.83-26.75,15.82-29.17,19.34c-0.1,0.21-0.62,0.32-0.93,0.41c-10.45,3.3-16.04,5.69-19.76,3.83
		c-2.07-4.66-4.29-9.23-6.31-13.97c-3.09-7.24-1.81-11.49-2.48-13.34c-1.35-3.73,0.11-14.78-0.31-21.41
		c-1.22-19.25-0.06-22.67-3.1-25.86c-1.42-1.49-3.97-20.24-3.93-23.17c0.07-5.1-0.87-8.58-1.97-14.59c0-5.28,1.45,3.88,3.72,6.72
		c0.29-0.49,0.58-0.88,0.79-1.19c1.75,1.43,0.14,2.86-0.06,4.29c1.08,2.89,0.87,2.21,3.62,2.48c-3.82-14.33,1.04-2.44-5.17-21.31
		c-1.05-3.18-1.95-2.36-3.83-1.55c0,0.62-0.21,1.14-0.1,1.55c0.91,5.47-1.27,3.64-0.41,10.03c0.1,1.34,1.89,8.19,1.76,11.48
		c-0.36,9.27,2.77,16.86,2.38,18.62c-1.23,5.46,2.53,7.21,2.9,13.45c1.06,18.23,1.54,18.66,1.14,24.93
		c-1.63,25.22,5.22,29.96,8.69,41.79c0.3,1.04,0.41,2.28,1.55,3.1c6.54,0.93,8.9-0.89,19.03-3.93c11.02-3.3,8.78-4.11,10.97-4.66
		c6.04-1.96,10.49-6.12,18.93-12.72c4.06-3.17,8.17-6.31,10.34-11.69c2.16,4.32,3.8,12.58,12.41,27.93
		c6.07,10.81,3.83,15.26,3.41,27c-0.16,4.45-1.06,5.31-5.17,14.79c-0.94,2.17-1.14,4.55-3.1,6.21c-0.21,0.1-0.21,0.41-0.31,0.62
		c-7.08,13.92-12.7,23.61-9.21,41.48c2.11,10.81,1.3,10.54,3.62,15.31c6,12.34,11.16,15.3,13.66,21.21
		c5.51,13.05,17.7,30.29,25.76,38.79c2.06,2.57,3.5,5.38,6.41,10.03c2.17,3.46,1.65,2.76,2.79,15c0.88,9.49-16.58,17.33-14.69,48.52
		c3.21,52.95,6.57,38.03,4.14,59.9c-1.89,0.94-3.23,0.73-3.83,3.72c-0.02,0.11-4.01,20.75-5.17,23.17c-0.2,0.42-0.21,1.14-0.21,1.66
		c0,0.4,0.72,0.41,0.83,0.31c1.18-1.18,0.97-3.12,1.97-5.17c4.02-8.28,2.68-28.05,6.72-19.97c-0.07,0.05-1.79,1.1-1.86,1.14
		c1.24,2.9,1.34,3,4.55,4.45c5.69-2.9,9.62-7.55,12.72-13.24c2.48-0.93,5.07-0.93,7.86,0.21c0.52,3.21,0.93,6.31,1.45,9.52
		c-1.66,0.41-3.42,0.58-5.07,1.03c-2.34,0.64-7.1,3.28-5.59,5.17c1.6,2,2.61-2.4,11.79-4.03c0.52,0,0.83,0.31,0.83,1.03
		c-3.67,0.73-9.74,2.41-7.76,5.59c0.91,1.82,2.94,0.8,4.03,0.41c7.09-2.49,5.26-3.17,7.45-0.62c-4.69,1.76-4.1,1.33-5.48,1.86
		c-2.64,1.01-1.92,2.96-0.83,3.21c0.72,0.21,1.55,0.21,2.28,0.31c0.52,2.6,0.65,2.2,8.07-0.41c3.93,4.03,8.17,7.86,13.86,9.31
		c0.52,1.66,1.14,3.1,0.83,4.86c-6.49,4.33-2.81,0.37-8.07,2.59c-8.4,3.53-13.7,1.34-17.59,1.34c-2.59,0-6.2-0.02-8.59-1.24
		c-5.51-2.82-6.58-5.56-9.1-4.55c-0.93,0.31-1.76,0.82-2.69,0.83c-3.93,0.05-7.97,0.83-11.69-1.24c-0.31-0.21-0.83,0-1.24,0
		c0.82,4.72,8.81,3.62,13.76,3.31c0.41-0.1,0.83-0.41,1.24-0.62c1.77-0.71,1.52-1.06,2.79,0.21c3.31,2.69,6.73,5.06,11.07,5.79
		c3.62,0.61,15.1,0.52,18.62-0.21c1.45-0.21,2.92-1.07,4.45-0.1c1.1,0.7,7.05-4.25,9.31-4.45c3.05-0.27,0.11-5.31-0.83-7.55
		c4.76,0.93,9,1.14,13.03-0.52c2.78,1.85,7.24,6.8,18.31,7.55c7.6,0.52,16.68-3.3,23.69-6.41c1.01-5.05,1.55-5.7-0.93-10.03
		c-0.71-1.25-2.07-1.34-3.31-1.55c-0.11-0.04-3.95-1.54-6-3c0.12-0.01,42.01-5.09,60.83-7.24c8.74-1-4.8-2.56,21.31-0.1
		c72.15,6.79,62.81,6.12,68.9,6.52C397.57,572.34,398.17,570.12,395.64,569.89z M130.09,149.27c3.42,2.73,1.26,0.23-1.41,1.78
		C128.83,150.32,129.23,149.75,130.09,149.27z M138.06,138.83c0.53-1.32,1.28-1.15,1.87-1.13
		C139.46,137.98,138.96,138.28,138.06,138.83z M137.23,141.41c-0.18,0.18,0.05,0.37-0.71,0.41
		C137.01,141.54,136.6,141.41,137.23,141.41z M153.37,122.34c-0.88-0.4-1.31-0.12,0-0.54C153.37,122,153.37,122.16,153.37,122.34z
		 M160.3,125.17c-0.17,0-0.34,0-0.52,0C159.78,124.52,159.64,124.52,160.3,125.17z M159.68,124.55c-0.18,0-0.39,0-0.62,0
		C159.26,124.14,159.47,124.24,159.68,124.55z M158.33,122.38c0.21,0.1,0.31,0.1,0.52,0.21c-0.48,0.24-0.41,0.66-0.41-0.1
		c-0.62,0-1.24,0.1-1.86,0.21c0,0.1,0,0.21,0,0.31c3.56,0.59,0.77-0.06,3.07,2.24c-0.09,0.2-0.19,0.44-0.28,0.44
		c-0.31,0-0.72,0.1-0.93-0.1c-6.33-3.96-4.75-2.8-4.14-3.41c-0.34-0.34,0.06,0.14-4.86-2.48
		C151.59,119.53,158.33,120.23,158.33,122.38z M149.43,121.03c-0.85,0.66-1.36,0.37-1.83,0
		C148.14,121.03,148.71,121.03,149.43,121.03z M137.12,118.86c0.81-0.27,0.93-0.51,1.24,0.1
		C137.88,119.45,137.57,118.86,137.12,118.86c-0.52,1.56,0.65,2.06-4.76-1.03C134.43,116.58,135.78,117.93,137.12,118.86z
		 M126.57,121.34c2.64-4.79,8.07-2.24,8.07-0.52c-1.91,0-2.05-0.67-1.24,1.34c-0.72,0.72-1.45,1.24-2.48,1.03
		c0,0.83-0.62,1.45-1.24,1.86c-1.83,0.56-1.78,1.5-4.76,7.14C124.62,128.91,125.03,124.14,126.57,121.34z M131.43,182.58
		c0-0.28-0.05-0.26,0.21,0C131.54,182.58,131.43,182.58,131.43,182.58z M132.68,175.03c-0.52-2.17-1.34-3.72-0.72-5.59
		C132.68,171.1,133.3,172.76,132.68,175.03z M132.78,161.86c0,2.66,0.1,2.62-0.31,2.62C131.69,162.15,131.32,162.82,132.78,161.86z
		 M130.71,160.24c0.31,2.59,0.62,4.66,1.03,7.34C130.09,163.76,129.99,163.34,130.71,160.24z M130.09,178.76
		c1.1,0,0.96,1.99,1.23,3.41C130.28,181.26,129.89,180.15,130.09,178.76z M34.09,141.93c3.12,9.68,3.94,12.01,3.24,14.44
		c-2.62-5.66-0.71-3.24-3.55-10.1c-0.64-1.54-0.52-3.1-0.72-5.17C33.68,141.62,33.99,141.72,34.09,141.93z M208.09,357
		c25.09,25,27.7,44.66,35.59,61.86c0.46,1,4.03,9.35,4.03,10.45c-1.37,21.89-5.24,24.82-3.52,29.07c0.33,0.82-0.11,2.07-0.21,3.1
		c-1.77,18.25-1.28,19.61-3.21,24.31c-4.66,11.35-5.51,17.85-9.41,27.62c-4.77,11.93-4.5,20.26-6.62,25.86
		c-0.89,2.35-1.56,6.13-1.97,8.59c-3.01,0.5-3.68-0.44-6.72,2.38c-3.61,3.35-1.98,4.8-7.24,10.24c-0.81,0.84-0.83,0.83-3,0.83
		c-0.52-1.03-1.14-2.17-1.86-3.31c4.35-6.87,1.93-34.53,4.03-48.83c0.41-2.79-0.41-0.21-0.41-7.97c0-21.69-0.31-20.79,0.83-23.79
		c3.03-8.01,3.44-11.31,8.28-20.17c3.1-5.68,3.12-6.71,2.59-9.52c-1.56-8.24-7.92-18.69-10.03-20.28
		c-30.55-25.92-26.32-16-34.14-41.69c-4.77-15.7-4.5-14.72-4.76-16.24c2.93-4.49,7.12-6.74,12.1-8.9
		c11.22-4.86,13.34-6.16,19.45-4.66C204.9,356.7,205.44,354.35,208.09,357z M121.3,304.03c5.55-14.62,9.26-17.11,6.1-32.9
		c22.75-6.87,47.55-6.78,53.38-7.34c4.14-0.4,7.55,1.03,10.66,3.41c0.31,3.41-0.2,8.28-1.34,11.07c-3.43,8.38-2.06,10.32-3.62,13.86
		c-4.65,10.55-2.9,21.84-2.9,26.28c-7.13,2.38-14.81,1.29-22.45,0.41c-14.79-1.69-15.95-2.74-21.1-3.83
		C111.88,309.07,115.86,318.35,121.3,304.03z M124.61,384.31c-9.08-12.11-8.76-10.43-14.48-21.41c-0.79-1.51-1.67-21.69,0.41-31.86
		c1.14-5.58,3.31-10.86,5.69-16.03c3.41-1.14,6.92-1.1,10.03-0.62c32.11,4.93,14.94,4.47,38.59,7.55c5.08,0.66,10.03-0.21,15.1-0.1
		c1.03,0.1,2.07-0.31,3.31-0.52c2.36,3.54,1.86,5.04,6.21,12.83c0.21,0.21,0.21,0.62,0.31,1.03c-2.28,0.62-4.76-0.41-7.14,1.14
		c8.72-0.34,7.76-1.71,11.48,4.55c2.46,4.15,5.56,7.68,9.1,11.07c0.11,0.1,0.21,0.41,0.31,0.62c-0.6,1.39-2.41-1.01-9.72,1.55
		c-29.19,10.23-21.95,18.11-26.17,7.55c1.34-3.72,0.21-7.55,1.66-11.38c-1.55,0.1-2.28,0.52-2.48,1.55
		c-1.5,7.51,0.79,6.19-1.03,10.76c-15.55-2.59-33.58,2.93-41.9,17.9C124.4,381.72,126.06,382.65,124.61,384.31z M167.33,553.54
		c-5.51,1.7-2.38-0.38-9.21,8.9c-1.36,1.85-3.31,3-5.28,4.03c-1.03,0.62-2.07,0.1-2.79-1.03c2.45-1.58,2.59-9.2,2.59-12.1
		c0-0.1-5.62-37.76-5.69-41.69c-0.19-11.01,0.49-11.95-0.72-13.86c-0.25-0.39-0.45-10.07,1.86-18.72c1.4-5.24,8.49-16.03,9.72-17.79
		c4.87-6.95,5.35-19.48,0.41-25.55c-2.49-3.07-1.09-2.56-2.79-5.28c-14.85-23.74-9.68-14.2-22.55-31.76
		c-8.67-11.83-7.07-20.2-2.07-24.41c10.2-8.58,22.93-13.28,35.9-10.24c11.77,49.71,8.27,18.06,22.34,70.14
		c1.1,4.06-0.21,3.87,1.34,7.45c2.07,4.76-2.07,14.66-4.24,19.34c-1.61,3.48-4.03,10.8-4.34,11.59c-1.24-1.55-0.72-3.31-1.45-4.97
		c-0.31,0.52-0.62,0.72-0.62,1.03c0,7.55,2.39,6.8,1.76,11.28c-1.82,12.95-1.24,9.94-2.69,14.48c-0.03,0.1-4.27,12.69-4.45,12.93
		c-5.26,7.24-5.23,28.14-5.48,29.48C167.68,543.04,167.88,551.36,167.33,553.54z M191.64,581.99c-2.07-0.83-2.07-0.83-2.48-2.17
		c1.14-0.1,2.07-0.21,3.31-0.31C192.47,580.2,192.8,580.45,191.64,581.99z M186.05,578.48c-2.42-2.23-4.76-3.83-4.97-4.45
		c-1.55-3.41-3.87-6.39-5.59-9.72c-1.68-3.27-0.2-6.89-1.86-9c-0.93-0.1-1.97-0.21-3.1-0.41c-1.53-6.11,0.57-22.01,0.93-26.48
		c0.65-8.08,8.52-30.21,9.52-36.62c1.6-10.24,1.66-15.21,2.59-17.38c3.67-10.08,3.48-10.28,4.97-11.07c0.6-0.32,1.1-3.02,1.24-3.62
		c3.1-13.19,3.56-14.54,2.59-16.45c-2.1-4.09-0.06-14.42-5.07-28.24c-0.31-0.72-0.93-1.34-0.41-2.48c0.52,0.21,1.14,0.31,1.45,0.62
		c7.88,7.98,17.8,11.72,22.76,21.52c6.7,13.24,8.09,14.25,5.79,18.21c-1.49,2.56-2.48,5.59-4.66,7.76
		c-0.11,0.11-8.12,18.1-6.41,21.52c0.03,0.05-0.41,11.98-0.31,15.72c0.18,6.64,2.23,10.55-1.97,49.03
		c-1.44,13.18-0.14,6.82-4.03,8.38c-0.83-0.1-1.66,0.62-1.45,1.24c0.62,2.28-0.61,4.14-1.45,6c-2.08,4.63-2.37,11.1-3.93,15
		C190.61,577.85,188.43,578.17,186.05,578.48z M251.85,579.2c0.52,2.38,0.41,4.86,0.1,7.34c-4.76,2.9-9.96,4.62-15.41,5.69
		c-1.94,0.38-1.7-0.52-6.72-1.24c-4.2-0.61-13.57-2.52-15.62-6.21c-6.31,1.4-2.27,1.76-12.21,1.76c-0.95,0-1.73-0.69-7.86-4.03
		c0.64-1.91,0.93-4.45,0.93-5.79c0-4.57,4.37-15.06,5.17-20.69c0.52,0.41,0.93,0.52,1.14,1.24c3.19,6.84,2.08,6.05,7.24,6.52
		c2.28-3.21,5.28-5.69,6.93-9.31c0.1-0.31,0.31-0.62,0.52-0.93c2.07-3.52,3.73-4.27,7.86-3.62c2.81,0.44,1.72-0.72,5.17,7.34
		c-0.93,0.1-1.66,0.19-2.48,0.21c-7.62,0.14-12.41,6.12-9.41,7.45c6.71-4.24,4.72-3.7,12.93-5.48c3.29,4.11-2.16-1.55-9.62,5.48
		c-1.33,1.26-2.17,2.79-1.34,4.97c5.1-2.55,0.14-2.24,12.93-7.03c0.52,0.83,1.03,1.76,1.66,2.9c-11.54-1.78-12.21,5.97-9.31,5.48
		c1.22-0.2,10.03-3.99,10.14-4.03c0,1.41,0.11,0.93-1.97,1.97c-3.38,1.41-4.58,1.71-5.28,3.1c-0.39,0.98,0.1,2.35,1.34,2.07
		c2.37-0.53,5.44-2.26,7.34-3.21c1.45,0.52,2.28,1.66,3.52,2.59c-1.76,0.41-3.31,0.72-4.86,1.24c-2.23,0.74-2.09,3.02-0.72,3.21
		c2.33,0.31,6.4-1.33,7.97-2.9C245.33,576.61,248.54,577.85,251.85,579.2z"/>
	<path d="M308.22,267.58c0,0.01,0,0.02,0,0.03C308.23,267.6,308.22,267.58,308.22,267.58z"/>
	<path d="M308.23,267.62C308.23,267.62,308.23,267.62,308.23,267.62C308.23,267.62,308.23,267.62,308.23,267.62z"/>
	<path d="M598.28,139.43l0.01,0.02C598.4,139.34,598.46,139.29,598.28,139.43z"/>
	<path d="M599.02,131.69l0.1-0.1C599.01,131.64,599.02,131.58,599.02,131.69z"/>
	<path d="M598.5,177.2l0.1-0.1C598.49,176.99,598.5,176.92,598.5,177.2z"/>
	<path d="M629.22,123.31c0.17-0.04,0.13-0.03,0.1-0.1L629.22,123.31z"/>
	<path d="M604.81,121.03l-0.1,0.1C604.83,121.06,604.8,121.05,604.81,121.03z"/>
	<path d="M637.91,142.24c0-0.13,0.09-0.05-0.1-0.1L637.91,142.24z"/>
	<path d="M162.68,193.76c0.12-0.03,0.15,0.04,0.1-0.1L162.68,193.76z"/>
	<path d="M127.09,148.45c0.12-0.04,0.1,0.05,0.1-0.1L127.09,148.45z"/>
	<path d="M128.64,170.17l-0.1,0.1C128.7,170.44,128.64,170.4,128.64,170.17z"/>
	<path d="M49.92,189.41c0,0.04,0.06,0.83,0.1,0.83C50.02,189.51,49.92,189.41,49.92,189.41z"/>
	<path d="M164.54,126.83l0.1-0.1C164.59,126.67,164.61,126.65,164.54,126.83z"/>
	<path d="M134.85,124.45l0.1-0.1C134.82,124.41,134.82,124.38,134.85,124.45z"/>
	<path d="M161.85,125.17l0.1-0.1C161.79,125.11,161.8,125.04,161.85,125.17z"/>
	<path d="M162.47,193.55c0,0-0.01-0.01-0.02-0.01C162.35,193.67,162.32,193.7,162.47,193.55z"/>
	<path d="M127.19,148.14l0.1-0.1C127.16,148,127.15,147.93,127.19,148.14z"/>
	<path d="M141.47,137.58l-0.1-0.1C141.42,137.6,141.34,137.58,141.47,137.58z"/>
	<path d="M131.02,136.03l-0.1,0.1C131.1,136.09,131.27,136.1,131.02,136.03z"/>
	<path d="M128.64,132.1l0.1-0.1C128.48,131.96,128.55,131.98,128.64,132.1z"/>
	<path d="M557.64,4.03c2.28,1.86,2.64,4.45,2.59,7.24c-0.1,5.5,3.27,13.85,3.62,18.93c0,0.1,0.21,0.31,0.41,0.41
		c1.93-0.72-1.66-1.89,2.79-8.9c2.23,0.99-1.44,3.9,0.72,11.59c0.42,2.1,0.42,0.84-5.9,11.17c-1.77,2.89-1.92,4.6-0.1,16.14
		c4.07,25.81,8.56,29.46,10.34,38.28c2.54,12.53,2.75,16.67,5,17.12c0.83-7.87-3.55-15.18-3.55-18.47c0-4.61-3.74-7.5-7.86-25.45
		c-3.03-13.2-1.41-6.06-3.72-20.38c-0.51-3.17,0.04-4.48,6.1-13.34c2.93-4.29-0.14-5.76,0.62-14.38c0.12-1.34,0.41-2.69-0.31-4.24
		c-0.52,0.1-1.24,0.1-1.55,0.41c-1.69,1.45-1.71,3.37-2.9,3.1c-3.35-18.02-2.57-12.49-3.62-17.17
		C559.74,3.48,556.81,3.21,557.64,4.03z"/>
	<path d="M557.53,3.54c0-0.01,0-0.01,0-0.02c0.24-0.24,0,0.04,0-0.1C557.39,3.56,557.41,3.5,557.53,3.54z"/>
	<path d="M577.39,116.07c-0.34-0.13-0.28-0.03-0.31,0.31l0.12-0.12c0.82,5.88-1.08-1.92,3.5,14.09
		c4.14,14.47,3.11,52.51,20.69,63.41c0.99,4.19,4.84,17.51,5.9,30.72c0.64,8-7.68,15.21-15,16.55c-1.67,0.31-3.25,0.69-4.76,1.45
		c10.49,0.58,13.8-3.92,18.41-8.9c5.56-5.99,4.81-11.18,3.93-18.83c0-0.62-0.31-1.45-0.72-1.86c-0.83-0.72-0.83-1.55-1.03-2.48
		c-1.95-12.33-2.79-10.24-2.79-12.62c-0.83-0.41-1.24-1.24-1.45-2.07c-0.72-0.31-0.62-0.93-0.52-1.55c0.21,0.52,0.31,1.03,0.52,1.55
		c4.23,1.27,11.71,26,40.24,28.55c3.52,0.32,6.41-0.62,9.1-2.69c2.69-2.07,3.42-3.18,2.48-7.34c-1.73-7.69-12.34-18.05,12.1,8.07
		c7.24,7.73,9.52,22.38,0,31.65c-1.35,1.32-2,2.79-0.21,2.79c1.71-2.08,4.96-6.38,5.07-6.41c5-1.63,8.14-20.86-6.52-34.45
		c-1.99-1.84-3.72-3.83-5.59-5.69c0.31-0.62,0.62-1.03,0.72-1.45c0.56-1.68-0.6-9.41-0.83-10.76c-0.99-5.71,13.23-41.55,8.69-65.17
		c-0.33-1.16,0.83-5.88,1.45-12.52c0.58-6.27-1.6-6.43-1.66-9.83c-0.34-22.56,2-5.73-0.72-25.45c-0.46-3.35-1.23-1.95-1.55-5.69
		c-1.59-18.3-1.84-18.56-2.48-20.17c0.83-3.21,1.26-6.4,2.79-9.41c1.33-2.61-1.82-15.71-1.55-21c0.18-3.47-2.17-9.61-2.69-11.17
		c-1.2-2.81-0.14-1.68-2.69-3.72c-0.19-1.02-0.72-3.88-1.66-4.34c-2.47-0.95-1.42-4.6-4.34-3.72c-3.18,0.95-1.89,3.32-3.41,4.03
		c-3.32,1.56-2.69,5.27-2.69,10.66c0,3.52-2.65,4.7-2.38,9.31c0.35,6.02-1.68,12.69,2.17,16.55c6.94,6.94-1.16,20.79-1.34,51.83
		c-0.03,5.71-1.78,15.18,1.34,24.72c1.68,3.91-0.87,1.25-2.38,15.1c-1.66-2.66-2.06-5.01-3.93-9.1
		c-4.48-9.81-18.04-11.86-28.76-10.24c-1.86-0.83-3.41-1.65-5.07-2.17c-5.9-1.85-11.75,2.17-12.1,8.17
		c-0.68,11.41,1.69,13.25-0.31,24.41c-0.39,2.17-1.18,8.1-0.21,10.45c1.14,2.76,0.95,14.91,3.53,17.48c0-0.11-4.53-30.72-1.36-30.72
		c0.62,1.03,1.34,2.07,2.07,3.21c-0.99,2.46-1.67,4.26,0,6.72c2.45,3.61,1.07,4.37,1.55,6.31c2.48,16.66,2.63,13.94,2.28,16.03
		c-1.97-2.62-1.46-4.15-4.86-19.45c-0.41,4.76,1.45,9,2.07,13.45c-0.93,0.1-1.03,0.62-1.03,1.24c0.31,4.03,0.72,7.97,2.79,11.48
		c-0.52,1.14-0.93,2.17-1.86,3c-4.45-5.17-7.88-10.69-10.76-16.65c-2.52-5.22-0.01-2.35-1.97-14.79
		c-5.34-34.02-2.69-18.36-9.1-40.34C577.06,116.17,577.29,116.17,577.39,116.07z M650.12,124.65c-0.96-4.83-3.32-7.87-2.69-19.65
		c0.61-11.35,4.55-19.29,4.55-42c0-9.71,0.05-13.73-2.9-17.28c-2.74-3.31-2-6.2-1.34-19.24c0.1-0.21,0.21-0.41,0.31-0.93
		c2.17,1.55,2.59,3.62,2.59,6.31c0,7.41-0.66,4.19,3.31,10.14c1.03,1.34,1.76,3,3,4.55c0.84-1.68,1.52-0.43-5.17-9.21
		c0-10.6,0.78-7.61-3-12.52c0.53-8.4-0.05-13.33,3.31-12.72c1.4,3.39,0.86,16.25,1.45,21c0,0.42,1.24,0.54,1.24-0.62
		c-0.31-2.79-0.09-5.59-0.72-8.38c-0.4-1.76-0.39-3.52-0.31-5.28c0.43-8.96-1.94-9.33,0.31-10.55c2.22,2.83,2.59,4.65,2.59,6.83
		c-0.18,2.96,0.43,15.7,1.86,16.65c0.97-3.89-1.07-5.32-0.41-14.9c0-0.54,1.24-1.01,1.24,0.83c0.31,4.45,1.5,8.79,1.55,13.24
		c0,0.31,0.1,0.72,0.31,0.93c1.63,1.63,1.03-1.23,1.03-4.55c0-1.55-1.14-3.1-0.52-4.76c0.21,0.1,0.41,0.1,0.41,0.21
		c2.33,5.08,0.74,8.06,1.03,9.83c1.84,7.37,0.65,5.91,1.24,11.79c1.12,6.99-1.81,6.31-1.45,13.76c0.87,18.12,1.11,19.64,3.1,30.72
		c1.36,7.54,0.41,16.49,1.76,28.34c0.42,3.68-0.79,9.37-1.03,11.79c-0.39,3.79,1.94,9.37-1.34,30.72
		c-0.99,6.41-8.41,37.29-7.34,38.9c2.07,2.69,1.14,5.9,1.45,8.79c1.25,5.01-4.43-3.2-7.97-5.28c-2.54,0.85-0.3,1.07-7.86-2.9
		c-1.86-0.98-0.22-1.22-7.76-5.28c0.21-4.76,0.1-9.31,1.34-13.97c1.03-0.41,2.07-0.93,3.21-1.34c2.97-3.61,2.51-7.92,4.76-12.21
		c0.62,1.45,1.14,2.59,1.97,4.34c0.83-4.57-1.2-6.64-0.52-11.59c0.41-3-0.62-5.79-1.14-9C647.76,146.07,646.13,139.03,650.12,124.65
		z M645.26,146.27c0,0.24,0.03,0.21-0.1,0.21L645.26,146.27z M621.15,121.45c-0.88,0.78-1.39,0.55-1.79,0
		C619.86,121.45,620.37,121.45,621.15,121.45z M618.84,121.27c-4.67-0.74-9.04,3.47-9.68,0.18
		C612.41,120.16,615.59,119.94,618.84,121.27z M609.36,118.55c0.12,0.24,0.19,0.29,0.62,0.72c-0.16,0-0.31,0.06-0.31-0.31
		C609.13,118.69,608.92,118.99,609.36,118.55z M607.6,118.14c1.51,1.09,1.48,0.29,0.72,1.76c-1.67-0.59-3.24-1.18-4.81-1.77
		C604.82,117.11,606.21,117.13,607.6,118.14z M596.64,131.17c-0.62-3.21-0.11-7.35,1.24-9.72c1.24-2.18,3.1-3,5.48-3.21
		c0.1-0.07-0.2-0.3,2.59,1.86c0,0.87-0.71,0.76-1.15,0.98c-0.2,1.58-0.33,1.81-1.99,2.01c-0.26,0-0.54-0.66-1.21,0.01
		c0.86,0,0.59,0,1.16,0C599.72,127,600.81,122.81,596.64,131.17z M602.22,152.58c1.34,1.14-0.93,1.86,0,3
		c4.09-1.51,0.95-0.59,1.76,1.45c0.62,1.14,1.55,2.07,2.59,3.52c0.1-1.03,0.52-2.07,0.21-2.28c-1.17-1.07-1.16-2.68-1.91-3.9
		c0.57-2.22,2.65-0.63,4.6-0.76c-4.92-5.74-0.99-1.56,0.21-4.55c-2.23,0.22-3.22,0.61-5.48,0.1c4.39-1.1,5.34-1.24,6.52-3.21
		c-2.97,1.11-3.2,1.5-7.45,2.28c-4.42,0.81-4.34,1.41-4.97-4.86c4.76,1.36,2.8,1.22,7.72,1.14c-0.44,1.29-2.65,0.07-6.06,1.34
		c0.62,0.31,0.93,0.52,1.14,0.52c5.39-0.65,7.09-0.14,11.38-3c-0.8-1.65-1.18-0.26,1.14-2.59c-0.62-0.21-1.03-0.31-1.55-0.41
		c3.85-5.51,1.16-2.2-0.21-3c-0.93-0.93-2.69,0.62-4.45-0.31c0.45-0.19,3.14-1.37,3.72-2.07c-0.59,0.07,0.18,0.09-9.31,1.45
		c1.45,1.16,4.25,0.7,5.28,2.07c-2.07,0.83-4.03,0.52-6-0.52c1.76,2.2-0.56,1.62,8.59,2.28c-2.48,0.72-4.24,1.14-6.1,1.66
		c0.41,1.03,1.14,0.2,1.76,0.31c0.52,0.1,1.14,0,2.07,0c-3.41,2.28-6.31,1.03-9.1-0.31c-0.42-0.14-1.2-1.79-0.01-2.5
		c-2.02-4,0.99-2.37-0.3-4.94c-0.5-1.2-0.12-2.21,1.03-2.83c0-0.71-0.11-1.53,0.41-2.23c2.52-3.39,1.29-2.59,3.21-2.59
		c0.06-0.37,0.02,0.05,0.79,0.59c-0.05-0.02-0.1-0.04-0.16-0.06c0.1,0.62,0.31,1.15,0.93,1.34c10.88,3.49,10.52,2.95,11.04,0.25
		c-2.89,0.97-5.58,1.15-8.16-0.74c1.77,0.1,3.54,0.3,5.5,0.5c0.41-0.21,1.03-0.83,1.76-1.14c3.11-0.89,4.02,0.33-1.45-1.66
		c-1.34-0.62-2.69-0.52-4.03,0.1c0.31,0.31,0.62,0.72,0.83,1.03c-2.8,1.13-4.49,2.13-6.99-0.37c0.16-0.57,0.72-0.49,1.18-0.54
		c0,0.01,0.01,0.03,0.01,0.07l0.1-0.1c-0.07,0.02-0.09,0.02-0.1,0.02c-0.34-2.95,0.78-1.23,5.08,0.2c-0.52-1.45-2.28-1.45-3.1-2.59
		c0.91-1.52,2.43-0.66,3.66-0.92c0.12,0.13,0.22,0.3,0.37,0.3c8.84,1.77,9.66,2.37,11.17,1.97c1.43-0.38,3.74,2.26,6.21,1.55
		c0.52-0.1,1.24,0.41,1.97,0.52c0.41,0,0.83-0.21,1.24-0.31c-0.9-2.25-0.31-0.93-1.76-1.66c-4-2.29-4.55-2.44-4.55-3
		c0.92-0.92-2.07-1.14-3-2.38c3.41,0.52,6.72,0.21,9.41,3.21c-0.55,0.09-0.86,0.19-1.21,0.28c0.59,1.49,0.56,1.32,0.5,1.38
		c0,0.91-0.29,0.72,1.45,0.72c0.28-0.66,0.48-0.46,0.67-0.1c-0.66,0-0.47-0.21-0.16,1.03c0.19-0.37,0.36-0.65,0.47-0.93
		c0.65,0,0.43,0.35,0.67-2.28c1.96,3.27,0.98,1.64,3.1,3.41c0.78,0,0.22-0.61,1.45,0c2.33,2.12,2.13,2.74,6.62,13.65
		c-4.31,0.43-5.94,0.63-6.19,1.99c3.71,0.67,3.07-1.18,6.19-0.33c0.31,1.34,0,2.48-0.83,3.72c-1.55,0.1-3.31-0.41-4.66,1.34
		c0.72,0.93,1.45,1.86,2.07,2.69c1.76,0.31,1.97-1.34,3-1.97c2.17,5.69,2.54,11.26,0.83,17.07c-4.39,14.91-2.55,13.13-12,14.48
		c-0.19,1.35-2.09,4.17,0.72,13.34c0.41,1.35,1.23,2.29,2.38,3c3.28,2.02,6.21,4.64,9.31,6.93c4.46,3.29,8.79,9.41,10.55,14.59
		c-1.66,2.17-5.48,4.76-7.97,5.38c-3.44,0.86-3.61-2.54-3.93-3.83c-2.69,0.38-1.72,0.34-4.86-0.52c0.45,1.58,1,1.23,4.55,4.14
		c-0.1,0.01-2.17,0.61-5.07-0.52c-10-3.89-17.41-6.4-22.97-14.17c-4.2-5.88-5.25-6-2.59-6c23.09,1.88,13.18,1.09,21.52,4.14
		c1.52,0.56,1.71-0.38,4.45-3.52c-0.41-0.93-1.13-0.82-1.45-0.41c-2.78,3.56-4.62,0.59-11.28-0.52
		c-18.12-3.02-13.66,2.86-22.97-10.86c1.32-4.91,5.95-11.28,3.52-25.86c0.5-0.69,0.99-0.53,1.58-0.43
		c-0.02,0.01-0.03,0.03-0.05,0.11l0.1-0.1c-0.01,0-0.02,0-0.03-0.01c0.19-0.37,0.37-0.75,0.57-1.12c-2.9-0.26-1.73-0.17-6-2.52
		C600.23,154.85,598.9,156.38,602.22,152.58z M600.36,150.52c2.17-1.3,0.43-1.42,2.79,0C602.44,151.23,602.93,150.88,600.36,150.52
		c0,0.72,0,1.55,0,3.1C599.64,152.07,599.95,151.34,600.36,150.52z M609.57,143.17c-1.46,1.26-1.56,1.33-3.19,1.26
		C607.44,144.03,608.5,143.55,609.57,143.17z M608.64,141.83c0.28-0.28,0.34,0,0.52,0C608.88,142.1,608.82,141.83,608.64,141.83z
		 M609.67,138.62c0.29-0.15,0.39-0.53,1.03-0.21C610.15,138.97,610.28,138.62,609.67,138.62z M611.74,142.46c0,0.09,0,0.18,0,0.3
		C611.37,142.53,611.58,142.52,611.74,142.46z M635.22,181.76c-0.99-0.37-0.48-1.09,0.1-1.97
		C635.83,179.79,635.57,180.55,635.22,181.76z M604.5,164.07c-0.93-0.52-0.93-0.52-0.83-1.86
		C604.81,162.72,604.6,163.34,604.5,164.07z M602.22,165.62c-0.77-5.4-0.91-4.51,0.33-4.71c0.2,4.57-0.06,4.85,0.22,5.35
		C602.55,166,602.22,165.8,602.22,165.62z M602.84,166.37c0.56,1.07,0.32,2.27,0.41,3.38c1.14,0.93,0.83,2.17,0.62,3.41
		c-0.72-1.14-0.52-2.28-0.62-3.41C602.65,168.63,602.74,167.3,602.84,166.37z M601.91,179.58c-0.27-0.54-0.47-0.19-0.1-0.93
		C601.81,178.82,601.91,178.56,601.91,179.58c1.03,0.72,1.24,1.76,1.55,3.31C602.12,181.76,601.81,180.72,601.91,179.58z
		 M601.6,189.93c0,0.24,0.03,0.21-0.1,0.21L601.6,189.93z"/>
	<path d="M610.81,583.75c-1.14,0-2.07,0-3,0c-91.82,11.69-95.87,9.85-93.41,12.31c3.02,1.08,2.35,1.07,21.21-1.24
		C616.9,584.84,611.04,586.31,610.81,583.75z"/>
	<path d="M139.3,583.96c-1.1-0.46-96.53,11.1-96.93,11.28c1.91,2.55,8.29,1.15,22.03-0.52C147.51,584.61,139.3,585.82,139.3,583.96z
		"/>
	<path d="M34.3,139.55c0.41-0.62,0.83-1.34,1.24-1.97c1.24,1.14,1.33,1.14,1.45,1.97c0.53,3.89,3.18,7.99,3.83,13.03
		c0.25,1.99,1.17,6.2,2.48,8.17c2.44-0.81-0.91-2.77-1.03-9.62c0-0.01-2.27-6.82-2.69-8.28c-0.1-0.62,0-1.14,0.93-1.14
		c1.14,2.9,2.37,5.8,3.52,8.69c1.87,4.72,2.87,12.34,3.52,12.83c1.96,1.14,0.81,4.18,3.41,5.48c-0.72-2.59-0.96-4.55-0.72-6.72
		c0.19-1.76,0.62-2.28,2.9-3.62c0.41,1.03,0.28,2.07,0.31,3.1c0.21,8.41,0.84,9.2-0.21,12.21c-3.34,9.62-4.82,12.27-3.21,15.83
		c0-0.76,1.3-0.59,1.45-2.07c0.44-4.43,3.06-9.95,3.83-12.72c1.1-3.99,0.21-4.46-0.21-9.62c-0.17-2.07,0.09-4.86-0.41-7.03
		c-0.8-3.43-4.73-0.51-6,3.31c-1.86-7.76-4.24-14.59-7.14-21.21c-0.93-0.31-1.66-0.41-2.48-0.62
		C36.35,131.43,31.27,138.88,34.3,139.55z"/>
	<path d="M614.22,251.07c3.09,3.17,6.75,4.67,11.48,4.24c3.31-0.3,6.72-0.31,9.62-2.9c-21.04,2.63-21.7-7.67-25.24-10.03
		C608.87,244.2,612.55,249.35,614.22,251.07z"/>
	<path d="M595.08,205.76c-1.52-9.33-1.04-7.74-2.28-8.48C592.11,203.56,595.85,210.47,595.08,205.76z"/>
	<path d="M656.53,581.99c-0.31-0.41-0.41-0.83-0.72-0.83c-1.93-0.41-5.76,0.72-5.17,2.48C651.23,584.83,654.67,584.29,656.53,581.99
		z"/>
	<path d="M185.02,581.89c-0.41-0.93-1.03-1.23-1.76-1.03c-1.65,0.44-3.52,0.62-4.34,2.38c0.07,0.1,0.42,0.93,1.03,0.93
		C182.02,584.17,183.78,583.44,185.02,581.89z"/>
	<path d="M551.95,36.41c0.73,1.24,0.83,3.1,2.48,3.93C554.63,34.46,550.48,33.94,551.95,36.41z"/>
	<path d="M103.3,231.51c0.61-0.64,1.34-1.34,0.52-2.59c-1.34,1.66-3.31,2.69-4.76,4.76C101.13,233.79,102.24,232.63,103.3,231.51z"
		/>
	<path d="M638.43,254.07c1.55-0.31,1.97-0.83,2.59-2.59C635.55,252.47,636.64,254.58,638.43,254.07z"/>
	<path d="M47.07,172.69c-1.02,0.27-1.52,1.14-1.91,2.03c-0.41,1.14-0.1,2.79,0.72,4.66c0.83-1.24-0.09-2.27,0.1-3.31
		C46.2,174.88,46.67,173.79,47.07,172.69z"/>
	<path d="M47.13,172.55c-0.16,0.39,0.24-0.15,0.04,0.05L47.13,172.55z"/>
	<path d="M48.47,168.52c-0.51,1.61-1.69,2.54-1.26,4.03C48.67,170.59,48.68,170.54,48.47,168.52z"/>
	<path d="M562.19,118.03c0.52-0.93,0.72-1.76,0.1-2.9C560.95,117.62,560.95,117.62,562.19,118.03z"/>
	<path d="M554.95,48.21c-0.21,2.07-0.31,3.41,0.31,4.76C555.46,51.62,555.98,50.28,554.95,48.21z"/>
	<path d="M595.81,211.55c-0.41,0.93-0.31,1.76,0.62,2.38C596.95,212.38,596.95,212.38,595.81,211.55z"/>
	<path d="M576.88,201.83c0.83-1.55,0.52-2.79-0.1-3.93C576.36,199.24,576.36,200.38,576.88,201.83z"/>
	<path d="M555.88,54.93c-0.93,1.34-0.93,1.34,0,2.48C555.88,56.59,555.88,55.86,555.88,54.93z"/>
	<path d="M555.67,62.79c0,1.34,0,2.38,0,3.31C556.4,65.07,556.6,64.14,555.67,62.79z"/>
	<path d="M124.92,200.89c1.97,0.62,1.97,0.62,2.9,0.21C126.88,200.58,125.95,200.38,124.92,200.89z"/>
	<path d="M612.26,238.55c-0.52-0.21-0.83-0.41-1.14-0.41c-0.66-0.11-1.04,0.62-0.1,1.55C611.33,239.48,611.53,239.17,612.26,238.55z
		"/>
	<path d="M38.64,169.14c-0.1-1.55-0.21-2.28-0.31-3.62C37.82,166.96,37.71,167.69,38.64,169.14z"/>
	<path d="M660.88,254.17c-0.6,0.6,1.18,1.41,2.07,0.52c-0.21-0.31-0.21-0.41-0.21-0.41C662.12,253.96,661.5,253.45,660.88,254.17z"
		/>
	<path d="M120.57,199.65c-0.72-0.83-1.24-1.34-2.38-0.93C118.81,199.55,119.33,200.17,120.57,199.65z"/>
	<path d="M114.47,198.62c-0.52-0.31-1.03-0.52-1.45-0.72C113.12,198.93,113.64,199.45,114.47,198.62z"/>
	<path d="M95.13,237c-0.11-0.11-0.18-0.34-0.62,0.1C94.5,237.59,95,237.26,95.13,237z"/>
	<path d="M598.7,179.07c0.52-0.93,0.21-1.34-0.31-1.66C598.6,177.83,598.6,178.34,598.7,179.07z"/>
	<path d="M562.71,32.9c0.1-0.21,0.31-0.41,0.52-0.62C562.71,32.53,562.25,32.44,562.71,32.9z"/>
	<path d="M596.53,218.48c0.1,0.21,0.1,0.41,0.21,0.62c0.19-0.19,0.35-0.03,0-0.72C596.64,218.48,596.53,218.58,596.53,218.48z"/>
	<path d="M597.26,223.65v0.31C597.52,223.7,597.53,223.79,597.26,223.65z"/>
	<path d="M646.08,248.89c0.18,0.18,0.01,0.31,0.41,0.31C646.5,248.52,646.28,248.89,646.08,248.89z"/>
	<path d="M563.53,31.86c-0.1,0.21-0.21,0.31-0.31,0.52C563.53,32.28,563.95,32.48,563.53,31.86z"/>
	<path d="M560.12,34.14v-0.1C559.87,34.03,559.84,34,560.12,34.14z"/>
	<path d="M593.12,192.41l-0.1,0.21C593.28,192.62,593.25,192.67,593.12,192.41z"/>
	<path d="M700.19,476.17c0.86-3.9,1.46-12.9-1.86-14.9c-0.45,2.69,0.89,1.74,1.03,10.66C699.38,473.27,699.57,474.61,700.19,476.17z
		"/>
	<path d="M712.5,431.89c-0.32-1.96-0.93-2.79-2.69-3.21c-0.1,2.28-0.1,4.55,0.83,6.72C712.6,434.17,712.8,433.75,712.5,431.89z"/>
	<path d="M678.15,554.79c0.52-0.62,1.03-0.93,1.03-1.24c0.31-2.48,0.52-4.86-0.31-7.24C678.46,548.99,678.05,551.68,678.15,554.79z"
		/>
	<path d="M680.43,543.61c0.41-1.86,0.41-1.86,0-3.31C679.19,541.96,679.19,542.06,680.43,543.61z"/>
	<path d="M681.67,535.23c-0.68,0-0.52,0.48-0.52,2.28c0.21,0,0.41,0.1,0.62,0C681.93,536.59,682.42,535.23,681.67,535.23z"/>
	<path d="M682.6,531.2c0.52-0.72,0.52-1.34-0.1-2.07C681.88,529.86,681.98,530.58,682.6,531.2z"/>
	<path d="M699.77,480.1c0,0.31,0.21,0.62,0.31,1.24c0.6-1.5,0.18-1.39,0-2.48C699.98,479.48,699.77,479.79,699.77,480.1z"/>
	<path d="M683.32,524.06c-0.28,0.56-0.28,0.44,0,0.72C683.69,524.06,683.32,524.25,683.32,524.06z"/>
	<path d="M700.08,485.99c0.1-0.21,0.1-0.31,0.1-0.52c-0.1,0.1-0.21,0.1-0.21,0.1C699.98,485.68,700.08,485.79,700.08,485.99z"/>
	<path d="M696.77,495.92c-0.27,0-0.23-0.05-0.1,0.21L696.77,495.92z"/>
	<path d="M633.77,465.82c-3.83,4.66-5.07,7.66-5.38,11.48C630.12,474.58,632.56,470.08,633.77,465.82z"/>
	<path d="M653.53,443.48c-0.33-0.94-1.66-0.81-1.66,0.21c-0.1,1.66-0.41,3.31,1.14,4.97C654.05,446.68,654.12,445.14,653.53,443.48z
		"/>
	<path d="M626.95,484.34c0.83-0.93,1.03-1.76,0.52-2.69C626.43,482.27,626.43,483.1,626.95,484.34z"/>
	<path d="M625.6,491.06c0.93-0.52,0.72-1.24,0.52-1.97C624.98,489.72,625.29,490.34,625.6,491.06z"/>
	<path d="M623.84,528.2c0.49,0.37,0.47,0.36,1.55-0.72C624.24,527.25,624.21,526.73,623.84,528.2z"/>
	<path d="M654.15,430.03c-0.72,0.72-0.93,1.45-0.21,2.79C654.05,431.48,654.15,430.75,654.15,430.03z"/>
	<path d="M651.36,436.75c-0.65,0.33-0.52-0.02-0.52,1.55C651.67,437.89,651.79,437.1,651.36,436.75z"/>
	<path d="M623.95,545.06c0,1.6-0.09,1.34,0.31,1.34C623.96,544.93,624.4,545.06,623.95,545.06z"/>
	<path d="M624.05,539.58c0.1-0.1,0.43-0.17,0-1.03C624.05,538.86,624.05,539.17,624.05,539.58z"/>
	<path d="M646.7,456.72c0.21,0.21,0.41,0.52,0.83,1.14C647.28,456.06,647.5,456.72,646.7,456.72z"/>
	<path d="M624.46,494.99c-0.71,0.89-0.75,0.75-0.41,1.76C624.33,496.75,624.46,497.02,624.46,494.99z"/>
	<path d="M624.36,532.55c0,0.26-0.07,0.21,0.31,0.21c-0.1-0.1-0.1-0.21-0.1-0.31C624.57,532.44,624.46,532.55,624.36,532.55z"/>
	<path d="M649.81,461.79c0-0.64-0.28-0.69-0.41-0.83C648.96,461.4,649.42,461.6,649.81,461.79z"/>
	<path d="M650.01,461.99c0-0.1-0.1-0.1-0.21-0.1C649.91,461.89,650.01,461.99,650.01,461.99z"/>
	<path d="M599.12,372.93c-0.66-1.48-3.4-5.82-4.97-6.1c0.62,2.38,2.69,3.72,3.93,5.59C598.19,372.62,598.5,372.62,599.12,372.93z"/>
	<path d="M644.12,325.55c-1.14,2.07-1.14,2.07-0.93,5.48C643.69,330.69,643.8,331.65,644.12,325.55z"/>
	<path d="M628.7,342.82l0.1-0.1C628.45,342.68,628.36,342.58,628.7,342.82z"/>
	<path d="M646.29,341.27c4.32-2.99,4.15-2.78,3.72-3.21c-1.66,0.52-3.21,1.14-4.14,2.9C646.19,341.06,646.29,341.17,646.29,341.27z"
		/>
	<path d="M651.88,332.27c1.66-0.21,3.31-0.52,5.69-0.93C655.08,330.62,653.43,331.34,651.88,332.27z"/>
	<path d="M620.97,340.04c1.79,1.09,5.15,2.26,7.51,2.63c-2.2-1.63-4.7-2.51-7.47-2.63c0.1,0-1.29-1.24-5.35-1.03
		C617.6,339.71,619.24,340.41,620.97,340.04z"/>
	<path d="M613.91,335.38c-3.8,0-3.31-0.08-3.31,0.21C614.41,335.58,613.91,335.67,613.91,335.38z"/>
	<path d="M618.05,336.41c0-0.1,0-0.21,0.1-0.31C614.84,336.1,615.99,336.41,618.05,336.41z"/>
	<path d="M642.57,337.75c-0.28,0-0.21-0.32-0.21,2.28C642.64,340.03,642.57,340.36,642.57,337.75z"/>
	<path d="M640.7,347.27c0.31-0.72,0.52-1.45,0.72-2.17C640.7,345.93,640.7,345.93,640.7,347.27z"/>
	<path d="M586.71,344.89c0.28,0,0.21,0.19,0.21-1.24C586.4,343.65,586.71,343.41,586.71,344.89z"/>
	<path d="M621.67,336.72c-1.99,0-1.99,0.31,0,0.31C621.67,337.03,621.67,336.93,621.67,336.72z"/>
	<path d="M608.95,334.86c-1.9-0.38-1.46-0.1-1.97-0.1C607.75,335.14,607.9,334.97,608.95,334.86z"/>
	<path d="M588.57,320.38c0.52-0.52,0.83-0.93,0.1-1.76C588.67,319.34,588.57,319.86,588.57,320.38z"/>
	<path d="M587.86,322.35c0.68-0.52,0.6-1.29,0.6-2.08C587.79,320.75,587.92,321.58,587.86,322.35z"/>
	<path d="M587.12,324.41l0.1,0.1C587.27,324.23,587.22,324.34,587.12,324.41z"/>
	<path d="M587.23,324.32c0.67-0.5,0.61-1.21,0.61-1.98C586.99,322.91,587.26,323.64,587.23,324.32z"/>
	<path d="M587.02,326.27c0-0.62,0.1-1.24,0.1-1.76C586.6,325.03,586.29,325.44,587.02,326.27z"/>
	<path d="M636.15,350.06c0.41,0,0.41-1.03,0-1.03C635.74,349.03,635.74,350.06,636.15,350.06z"/>
	<path d="M586.08,328.03v0.21C586.21,327.98,586.22,328.03,586.08,328.03z"/>
	<path d="M632.74,344.89c-0.26,0-0.21-0.06-0.21,0.31C633.09,345.2,632.74,345.22,632.74,344.89z"/>
	<path d="M641.53,344.79c0,0.08,0,0.2,0,0.31C641.53,344.79,641.64,344.58,641.53,344.79z"/>
	<path d="M655.5,335.79c-0.07,0.03-0.83,0.21-0.83,0.21C655.13,336.45,655.28,336,655.5,335.79z"/>
	<path d="M594.15,366.62c-0.12-0.12-0.33-0.22,0.01,0.11C594.15,366.7,594.15,366.66,594.15,366.62z"/>
	<path d="M594.26,366.82c-0.03-0.03-0.06-0.06-0.09-0.09C594.17,366.78,594.19,366.82,594.26,366.82z"/>
	<path d="M628.81,343.13c0,0.1,0.1,0.1,0.21,0.1C628.73,342.95,628.81,343,628.81,343.13z"/>
	<path d="M628.7,342.93c0.03,0.03,0.06,0.06,0.09,0.09C628.79,342.97,628.77,342.93,628.7,342.93z"/>
	<path d="M624.88,309.82c0,0.1,0.52,0.31,0.93,0.72c1.42-2.02,1.94-8.17-1.24-10.34C624.57,304.22,625.42,306.45,624.88,309.82z"/>
	<path d="M648.57,304.34c-2.9-1.76-3.83-1.34-6.52,1.66c0.52,0.52,1.03,1.14,1.76,1.86C644.74,305.79,646.5,305.27,648.57,304.34z"
		/>
	<path d="M614.64,272.89c0.31,0.21,0.83,0.31,1.14-0.31c-0.93-1.14-1.86-2.38-3.1-4.14C612.52,269.06,611.52,270.4,614.64,272.89z"
		/>
	<path d="M658.6,275.17c-0.41,1.76-1.24,2.9,0.21,4.45C659.5,275.78,659.53,277.02,658.6,275.17z"/>
	<path d="M625.81,297.31c0-0.83,0-1.66,0-2.48c-1.14,0-1.25,0.73-1.14,1.34C624.77,296.69,624.67,297.51,625.81,297.31z"/>
	<path d="M610.7,280.24c1.19,0.79,1.09,0.54,1.45,0c-1.19-0.6-1.05-0.81-1.55-0.31C610.6,280.03,610.6,280.24,610.7,280.24z"/>
	<path d="M228.68,475.34c1.22-3.16,1.26-12.75-1.97-13.76C228.23,467.68,227.63,474.82,228.68,475.34z"/>
	<path d="M241.09,432.2c-0.33-1.55-0.62-3.1-2.59-3.93c-0.21,2.69-0.41,4.97,0.93,7.24C241.3,433.65,241.38,433.55,241.09,432.2z"/>
	<path d="M206.85,548.89c0,3.48,0.08,2-0.31,5.48c0.31-0.1,0.62-0.1,0.72-0.21C209.41,551.75,206.85,540.17,206.85,548.89z"/>
	<path d="M208.81,543.82c0.41-1.34,0.52-2.48,0.31-3.83C207.88,541.55,207.88,541.55,208.81,543.82z"/>
	<path d="M210.68,529.03c-0.26,1.05-0.23,2.59,0.93,1.86c-0.1-0.52-0.21-1.14-0.31-1.76C211.09,529.13,210.78,529.13,210.68,529.03z
		"/>
	<path d="M210.16,538.34c0.31-2.07,0.31-2.07-0.31-3C209.23,536.17,209.43,536.99,210.16,538.34z"/>
	<path d="M228.36,481.03c0.41,0,0.31,0.28,0.31-1.86C228.26,479.17,228.36,478.88,228.36,481.03z"/>
	<path d="M211.71,524.17c0.1,0.1,0.1,0.21,0.1,0.31c0,0,0.1-0.1,0.21-0.1C211.89,524.25,212.01,524.17,211.71,524.17z"/>
	<path d="M228.36,486.1c0.24-0.24,0.21,0.09,0.21-0.41C228.02,485.68,228.36,485.91,228.36,486.1z"/>
	<path d="M225.68,496.03c-0.21,0-0.77-0.25-0.41,0.1C225.36,496.13,225.47,496.03,225.68,496.03z"/>
	<path d="M156.88,476.89c0.41-0.21,0.73-0.31,0.83-0.52c5.29-10.8,5.1-9.26,4.14-11.17C156.56,474.31,157.18,474.25,156.88,476.89z"
		/>
	<path d="M180.57,443.48c-0.41,1.66-0.72,3.41,1.14,5.38C183.33,444,181.52,441.59,180.57,443.48z"/>
	<path d="M156.06,483.93c0-0.72,0-1.45,0-2.38C154.81,482.68,154.81,482.68,156.06,483.93z"/>
	<path d="M182.33,429.82c-0.32,0.65-0.41-0.51-0.41,2.28C182.76,431.68,183.26,430.75,182.33,429.82z"/>
	<path d="M152.85,495.41c-0.65,0.65-0.95,0.39-0.1,1.24C153.24,495.91,153.48,496.04,152.85,495.41z"/>
	<path d="M179.64,438.3c0.67-0.67,0.31-1.25,0.21-1.55c-0.66,0.22-1.03,0.43-0.72,1.34C179.12,438.2,179.64,438.3,179.64,438.3z"/>
	<path d="M152.23,527.89c0,0.57,1.04,1.01,1.24,0c0-0.21-0.21-0.52-0.41-1.03C152.75,527.37,152.43,527.58,152.23,527.89z"/>
	<path d="M178.4,462.2c0.41-0.72,0-1.03-0.52-1.34C177.37,461.48,178.09,461.79,178.4,462.2z"/>
	<path d="M152.23,546.41c0.28,0,0.21,0.2,0.21-1.34C152.16,545.06,152.23,544.85,152.23,546.41z"/>
	<path d="M154.19,491.06c0.83-0.72,0.62-1.24,0-2.69C154.19,489.72,154.19,490.34,154.19,491.06z"/>
	<path d="M152.43,539.48c0.13-0.26,0.16-0.18-0.1-0.31L152.43,539.48z"/>
	<path d="M175.81,456.82c0-0.1-0.21-0.21-0.31-0.31c0,0.48-0.31,0.42,0.1,0.83C175.61,457.13,175.81,457.03,175.81,456.82z"/>
	<path d="M153.06,532.44c0,0.1-0.1,0.1-0.21,0.21C153.37,532.65,153.32,532.7,153.06,532.44z"/>
	<path d="M154.61,341.27c-9.24-2.81-9.34-2.84-10.45-2.38c0.95,0.31,10.05,3.21,11.38,3.21
		C155.23,341.89,154.92,341.48,154.61,341.27z"/>
	<path d="M127.71,372.82c-1.2-2.41-1.07-1.78-5.17-6.83c-0.15,1.05-0.2,1.02,4.03,6.41C126.68,372.51,126.99,372.51,127.71,372.82z"
		/>
	<path d="M174.57,341.27c1.55-1.03,2.9-1.97,4.97-3.41C175.61,339,175.09,339.41,174.57,341.27z"/>
	<path d="M180.26,332.17c1.5,0,3.67-0.61,5.38-1.03C183.37,330.62,181.81,331.44,180.26,332.17z"/>
	<path d="M172.19,331.65c0-0.55,0.39-3.48-0.21-6.62c-0.56,4.18-0.21,3.28-0.21,6.52C171.88,331.55,172.09,331.55,172.19,331.65z"/>
	<path d="M142.19,335.38c-2.96,0-2.59-0.07-2.59,0.21C142.57,335.58,142.19,335.65,142.19,335.38z"/>
	<path d="M169.92,344.69c-0.72,0.72-1.14,1.45-0.72,2.48C169.61,346.34,170.02,345.62,169.92,344.69z"/>
	<path d="M146.43,336.1c-2.26,0-1.97-0.07-1.97,0.21C146.73,336.31,146.43,336.38,146.43,336.1z"/>
	<path d="M170.85,338.17c-0.28-0.28-0.21,0.17-0.21,1.86C170.92,340.03,170.85,340.31,170.85,338.17z"/>
	<path d="M165.06,349.96c-0.65-0.97-0.37-0.97-0.93-0.41C164.93,350.35,164.85,350.16,165.06,349.96z"/>
	<path d="M114.99,343.44c0.17,0,0.21-0.39,0.21-1.24C115.02,342.2,114.99,342.59,114.99,343.44z"/>
	<path d="M149.95,337.03c0-0.1,0-0.21,0-0.31c-1.6,0-1.45-0.39-1.45,0.21C148.92,337.03,149.43,337.03,149.95,337.03z"/>
	<path d="M115.19,327.82c0.1-1.24,0.1-1.86,0.21-2.59C114.68,325.86,114.78,326.58,115.19,327.82z"/>
	<path d="M117.47,319.03c-0.01,0.05-0.01,0.1-0.02,0.17C117.61,319.12,117.6,319.16,117.47,319.03z"/>
	<path d="M116.85,321.1c0.66-0.57,0.55-1.3,0.6-1.9C116.68,319.55,116.94,320.42,116.85,321.1z"/>
	<path d="M116.12,323.17c0.67-0.58,0.63-1.32,0.62-2.01C115.95,321.6,116.12,322.48,116.12,323.17z"/>
	<path d="M116.75,321c0,0.05,0,0.11,0,0.17C116.87,321.08,116.88,321.13,116.75,321z"/>
	<path d="M135.88,334.65v0.21C136.88,334.86,136.55,334.65,135.88,334.65z"/>
	<path d="M115.4,325.24c0.02,0.02,0.08,0.08,0.1,0.1C115.5,325.07,115.5,325.17,115.4,325.24z"/>
	<path d="M115.49,325.15c0.61-0.52,0.53-1.3,0.53-2.09C115.27,323.63,115.46,324.46,115.49,325.15z"/>
	<path d="M161.54,345.72c0-0.1,0.1-0.21,0.1-0.31C161.32,345.08,161.19,345.72,161.54,345.72z"/>
	<path d="M157.24,343c-0.04,0.01-0.18-0.01-0.36-0.07C157.14,343.01,157.31,343.09,157.24,343z"/>
	<path d="M157.19,342.93c0.03,0.03,0.04,0.05,0.05,0.07C157.28,342.99,157.28,342.97,157.19,342.93z"/>
	<path d="M155.43,342.2c0.05,0,0.09,0,0.14,0C155.53,342.07,155.54,342.09,155.43,342.2z"/>
	<path d="M156.99,342.82c-0.2-0.67-0.74-0.63-1.41-0.62C155.82,342.81,156.4,342.82,156.99,342.82z"/>
	<path d="M117.57,318.72c0.02-0.02,0.03-0.02,0.04-0.03C117.61,318.65,117.61,318.64,117.57,318.72z"/>
	<path d="M117.61,318.69c-0.01,0.06-0.04,0.22-0.04,0.34C117.67,318.75,117.75,318.58,117.61,318.69z"/>
	<path d="M138.68,243.62c5.1,16.6,24.97,11.41,25.24,9c-13.19,0-15.52,2.17-24.83-10.24c-0.31,0.21-0.52,0.21-0.21,0.31
		C138.78,243,138.58,243.31,138.68,243.62z"/>
	<path d="M169.92,251.17c-2.07,0.52-3.41,0.93-4.55,1.86C166.61,254.79,167.95,254.38,169.92,251.17z"/>
	<path d="M191.54,254.38c-0.83-0.41-1.55-1.03-2.59,0.1C190.09,255.1,190.81,255.41,191.54,254.38z"/>
	<path d="M140.02,239.48c0.8-1.33-1.28-2.53-0.62,0.1C139.4,239.8,139.92,239.59,140.02,239.48z"/>
	<path d="M175.09,248.89c0,0-0.1-0.1-0.31-0.21c-0.1,0.21-0.21,0.31-0.21,0.52C174.74,249.38,174.75,249.58,175.09,248.89z"/>
	<path d="M155.12,308.69c0.62-3.1,0.41-6-1.86-9.31c-0.71,2.95,0.31,2.05,0.31,10.86C154.92,310.44,155.02,309.41,155.12,308.69z"/>
	<path d="M173.95,305.69c0.72-0.62,2.07-0.41,2.69-1.86c-2.9-1.34-4.55,0.1-6.21,2.17C172.67,308.68,171.68,307.95,173.95,305.69z"
		/>
	<path d="M144.16,273c-0.83-1.66-1.76-3-3.1-4.14C140.88,271.44,141.36,272.37,144.16,273z"/>
	<path d="M187.5,275.48c-1.34,1.34-1.24,2.48-0.62,4.14C188.02,278.17,188.02,277.03,187.5,275.48z"/>
	<path d="M153.57,294.82c-0.31,1.24-0.31,1.24,0.1,3C154.81,295.76,154.81,295.76,153.57,294.82z"/>
	<path d="M140.75,280.65c-0.55-0.73-0.29-0.93-1.34-0.93c-0.1,0-0.21,0.21-0.21,0.21C140.23,280.96,139.38,280.65,140.75,280.65z"/>
	<path d="M653.53,120.93c0.68-2.04,1.5-3.7,0-3.52c-0.62,1.45-2.59,2.48-2.17,4.66C652.5,122.17,653.12,121.65,653.53,120.93z"/>
	<path d="M651.67,185.38c-1.14,0.57-0.46,0.48-0.21,1.24C652.45,185.96,652.06,186.56,651.67,185.38z"/>
	<path d="M658.29,67.45c0,0.62,0,1.24,0.1,2.07C659.22,68.69,659.12,68.07,658.29,67.45z"/>
	<path d="M654.98,111.1c-0.52,0.41-0.93,0.72-1.45,1.03C654.77,112.45,654.77,112.45,654.98,111.1z"/>
	<path d="M658.91,62.28c-0.21,0-0.52-0.21-0.72-0.21c-0.1,0-0.31,0.41-0.21,0.52C658.88,63.03,658.59,63.25,658.91,62.28z"/>
	<path d="M658.6,56.17c-0.72,0.72-0.35,0.54-0.1,1.03C659.06,56.64,658.91,56.79,658.6,56.17z"/>
	<path d="M655.81,107.17c-0.14,0.27-0.17,0.24,0.1,0.1L655.81,107.17z"/>
	<path d="M630.77,148.03c-1.23-3.08-0.94-2.79-1.34-2.79c-0.52,0.21-0.62,1.13-1.55,1.03c-1.14-0.11-2.28,0.1-3.41,0.21
		c-1.47,0.73-1.39,0.43-1.97,1.86c0.93-0.21,1.55-0.41,2.17-0.52c1.66,2.69,1.86,2.79,4.45,1.14
		C629.12,147.56,628.38,147.35,630.77,148.03z"/>
	<path d="M623.12,147.1l-0.1,0.1C623.08,147.17,623.08,147.19,623.12,147.1z"/>
	<path d="M636.57,164.38c-5.18,1.91-6.31,0.12-6.31,1.66c0.31,0.21,0.52,0.52,0.83,0.52c1.14,0,2.28,0.22,3.41,0
		c8.9-1.7,7.57,0.17,8.38-1.45c-0.72-0.21-1.24-0.62-1.86-0.72C639.46,164.27,637.91,163.96,636.57,164.38z"/>
	<path d="M620.53,143.48c5.56-3.87,8.54-0.19,12.83-1.45c-0.31-0.31-0.62-0.72-0.83-0.72c-4.05-0.35-11.54-1.73-12.21,2.28
		C620.33,143.48,620.53,143.58,620.53,143.48z"/>
	<path d="M615.26,128.79c-0.04,0.17-0.05,0.16,0.1,0.1L615.26,128.79z"/>
	<path d="M612.26,132.41c-9.34,0-8.79,0-9.41,0.62c1.89,0.01,3.8,0.1,5.9,0.1c-2.43,2.08-3.59,1.58,5.59,0.31
		C613.19,132.83,612.77,132.41,612.26,132.41z"/>
	<path d="M602.64,133.03c0.05,0.05,0.05,0.05,0.1,0.1C602.87,133.01,602.91,133.03,602.64,133.03z"/>
	<path d="M641.43,168.31c-2.28,0.21-4.34,0.41-6.83,0.72C636.43,170.72,639.36,170.79,641.43,168.31z"/>
	<path d="M611.22,169.14c-0.21-1.86-0.93-3.52-1.86-4.97c-0.52,0-0.93,0-1.24,0C609.87,166.93,609.07,166.98,611.22,169.14z"/>
	<path d="M628.6,178.65c-1.56-0.57-5.41-0.98-6.83-1.24C623.84,179.07,626.22,178.86,628.6,178.65z"/>
	<path d="M609.57,131.17c-2.07,0-3.93-1.24-6.93-0.41C605.53,130.86,607.39,132,609.57,131.17z"/>
	<path d="M633.26,159.21c2.69,0.72,3.31,0.52,4.45-1.03C635.95,157.65,634.81,159.52,633.26,159.21z"/>
	<path d="M639.88,153.31c0-1.34-0.27-1.06-2.79-5.48C637.08,150.15,638.37,151.78,639.88,153.31z"/>
	<path d="M639.88,153.52l0.1-0.1C639.85,153.28,639.88,153.26,639.88,153.52z"/>
	<path d="M637.81,142.03c-1.55,1.66-1.45,1.66-1.14,3.93C637.19,144.31,637.81,143.27,637.81,142.03z"/>
	<path d="M641.43,157.03c-0.93,0.31-1.66,0.83-1.97,1.97C641.22,158.79,641.22,158.79,641.43,157.03z"/>
	<path d="M634.81,198.93c1.01-1.01-1.94-3.75-0.52-0.21C634.39,198.83,634.6,198.83,634.81,198.93z"/>
	<path d="M606.88,134.48c-0.83,0.1-1.76,0.1-2.79,0.1C605.02,135,606.05,135.31,606.88,134.48z"/>
	<path d="M614.02,179.38c-0.1-0.72,0-1.66-0.83-2.28C613.29,177.93,612.98,178.86,614.02,179.38z"/>
	<path d="M601.08,132.72c-0.62-0.72-1.03-1.24-1.97-1.03C599.33,132.52,599.95,132.93,601.08,132.72z"/>
	<path d="M599.19,136.47c-0.06-0.47-0.34-0.64-0.8-0.64c0,0.57,0.27,0.79,0.72,0.82c0.47,0.86,1.41,1.07,2.17,1.36
		C601,137.03,600.24,136.52,599.19,136.47z"/>
	<path d="M641.33,155.32c-0.42-0.69-0.59-1.51-1.45-1.8C640.17,154.28,640.46,155.05,641.33,155.32z"/>
	<path d="M641.53,155.38c-0.17-0.02-0.31-0.16-0.1,0.1L641.53,155.38z"/>
	<path d="M634.19,125.38c-0.41,0-0.93-0.1-1.34-0.1C633.77,126.31,633.77,126.31,634.19,125.38z"/>
	<path d="M614.12,180.83c0.31-0.52,0.21-0.93-0.21-1.34C614.02,179.89,614.02,180.41,614.12,180.83z"/>
	<path d="M616.19,128.58c-0.49-0.25-0.43-0.48-0.83,0.31C615.56,128.5,615.79,128.98,616.19,128.58z"/>
	<path d="M641.53,155.48l-0.1,0.1C641.56,155.76,641.49,155.73,641.53,155.48z"/>
	<path d="M641.43,157.14c0.47-0.57,0.34-1.04,0.08-1.44C641.44,156.17,641.43,156.69,641.43,157.14z"/>
	<path d="M621.31,177.23c0.07,0.02-0.09,0.08,0.47,0.08C621.62,177.31,621.46,177.26,621.31,177.23z"/>
	<path d="M624.77,145.55c0.02,0,0.02,0,0.03,0.01C624.87,145.51,624.89,145.49,624.77,145.55z"/>
	<path d="M624.8,145.56c-0.05,0.04-0.14,0.11-0.24,0.2C624.75,145.66,624.93,145.57,624.8,145.56z"/>
	<path d="M623.12,146.48c1.5-0.36,1.34,0.38,1.34-0.71C623.87,145.84,623.31,145.69,623.12,146.48z"/>
	<path d="M624.46,145.77c0.03,0,0.07-0.01,0.1-0.01C624.46,145.65,624.46,145.66,624.46,145.77z"/>
	<path d="M624.46,146.48l0.1-0.1C624.44,146.38,624.46,146.35,624.46,146.48z"/>
	<path d="M623.12,146.48l-0.1-0.1C623.02,146.5,622.99,146.48,623.12,146.48z"/>
	<path d="M622.29,147c0.15,0.15,0.24,0.1,0.83,0.1c-0.09-0.18-0.1-0.37-0.1-0.62C622.25,146.48,622.49,146.79,622.29,147z"/>
	<path d="M636.98,147.31c0-0.21-0.21-0.21-0.31-0.31c0,0.1-0.1,0.31-0.1,0.31c0.21,0.21,0.41,0.31,0.62,0.52
		C637.08,147.62,637.19,147.41,636.98,147.31z"/>
	<path d="M602.43,133.24c0.1,0,0.21-0.1,0.21-0.21C602.53,133.14,602.53,133.24,602.43,133.24z"/>
	<path d="M620.22,143.48c-0.14,0.27-0.17,0.24,0.1,0.1L620.22,143.48z"/>
	<path d="M618.15,175.24c0.21,0.31,0.41,0.52,0.72,0.72c-0.21-0.31-0.41-0.52-0.62-0.83C618,175.14,618.01,175.1,618.15,175.24z"/>
	<path d="M619.08,176.17c-0.1-0.1-0.21-0.1-0.31-0.1C618.88,176.07,618.98,176.17,619.08,176.17z"/>
	<path d="M604.7,120.83c0-0.1-0.1-0.1-0.21-0.1C604.79,121.01,604.7,120.96,604.7,120.83z"/>
	<path d="M604.81,121.03c-0.03-0.03-0.06-0.06-0.09-0.09C604.73,120.99,604.75,121.03,604.81,121.03z"/>
	<path d="M600.57,140.79c-0.04,0-0.08-0.02-0.12-0.02C600.48,140.92,600.43,140.93,600.57,140.79z"/>
	<path d="M598.39,139.45c0.3,0.89,1.08,1.21,2.05,1.32C600.29,139.64,599.39,139.45,598.39,139.45z"/>
	<path d="M600.46,140.89c0.31,0,0.52,0.21,0.31,0C600.69,140.89,600.58,140.89,600.46,140.89z"/>
	<path d="M624.46,122.58c0.41-0.1,0.72-0.31,1.55-0.41C624.15,121.64,624.46,121.58,624.46,122.58z"/>
	<path d="M628.26,122.7c0.31,0.34,0.76,0.49,1.27,0.4C629.03,123.02,628.66,122.86,628.26,122.7z"/>
	<path d="M627.88,122.38c0.1,0.2,0.05,0.21,0.38,0.32C628.02,122.42,628.13,122.51,627.88,122.38z"/>
	<path d="M603.98,126.1c0.52,0.21,0.93,0.41,1.45,0.62C605.02,126.41,604.5,126.21,603.98,126.1z"/>
	<path d="M151.3,147.1l-0.1,0.1C151.32,147.16,151.26,147.21,151.3,147.1z"/>
	<path d="M158.02,147.72c0.1,0.31,0.21,0.62,0.31,0.83c1.34-1.03,0.41-2.17,0.1-3.72c-1.69,1.06-2.05,1.66-5.74,1.66
		c-0.31,0.66-0.93,0.55-1.42,0.7c-0.41,1.7-0.69,1.16,1.78,0.74c1.44,2.2,2.44,3.45,5.28,0.62
		C157.46,147.68,157.39,148.35,158.02,147.72z"/>
	<path d="M159.26,166.65c3.49,0.87,6.98-1.5,11.17-0.62c0.1,0,0.31-0.52,0.62-0.83c-1.76-1.14-3.72-0.74-5.48-0.93
		c-1.03-0.11-2.17,0.62-3.31,1.03c-1.14,0.41-2.48-0.52-3.72,0.41C158.95,166.03,159.16,166.45,159.26,166.65z"/>
	<path d="M139.09,125.58c-1.24,0-0.83,1.03-1.14,1.66c-0.61,0.4-1.72-0.08-2.05,0.89c-0.2-0.17-0.32-0.25-0.12-0.06
		c-1.39,0-3.52,0.35-3.52-1.45c-0.41,0-0.93,0-1.45,0c1.3,2.42,2.05,1.9,9.52,4.14c1.03,0.31,2.07,0.21,3-0.41c0-0.57,0-1.06,0-1.61
		c-2.54,1.24-5.08,1.25-7.34-0.54c8.64,1.01,2.28,1.05,9.31-1.06C140.35,125.59,140.34,125.58,139.09,125.58z"/>
	<path d="M161.95,142.14c-0.62-0.52-0.72-0.72-0.93-0.83c-2.96-0.42-11.73-1.97-12.1,2.17C154.4,139.9,156.83,142.99,161.95,142.14z
		"/>
	<path d="M143.43,128.69l-0.1-0.1C143.33,128.76,143.3,128.73,143.43,128.69z"/>
	<path d="M130.92,132.93l0.1,0.1C131.21,132.92,131.3,132.93,130.92,132.93z"/>
	<path d="M140.54,132.31c-9.67,0-8.41,0.02-9.35,0.63c9.24,0.06,5.33,0.58,6.77,0.82c1.34,0,2.69,0.31,4.34-0.62
		C141.47,132.72,141.06,132.31,140.54,132.31z"/>
	<path d="M170.23,168.31c-2.48,0.21-4.55,0.21-6.83,0.83C165.03,171.13,169.02,170.13,170.23,168.31z"/>
	<path d="M140.02,169.76c-0.1-2.28-1.14-3.93-2.59-6.1C137.23,166.65,138.78,168.1,140.02,169.76z"/>
	<path d="M151.09,177.93c0.58,0.19,2.15,1.45,5.79,0.72c0-0.25,0.62-0.19-5.69-1.24C151.19,177.52,151.09,177.72,151.09,177.93z"/>
	<path d="M137.95,131.17c-2.07-0.21-4.03-1.14-6.93-0.62C133.81,130.86,135.78,131.9,137.95,131.17z"/>
	<path d="M166.19,149.17c-0.31-1.03-0.62-2.07-0.93-3.31c0.09-1.18,1.02-2.27,0.77-3.61C164.24,145.17,164.26,146.42,166.19,149.17z
		"/>
	<path d="M166.03,142.25c0.06-0.12,0.08-0.14,0.13-0.2C165.99,142.03,165.95,141.99,166.03,142.25z"/>
	<path d="M167.74,159.31c0.62-0.1,1.24-0.31,1.97-0.41c0.7-3.13,0.4-2.5-0.21-3.1C170.35,157.49,167.9,157.42,167.74,159.31z"/>
	<path d="M161.85,158.89c0-0.1-0.1-0.1-0.21-0.1c0.28,0.28,0.35,0.31,0.21,0.31c0.21,0.1,0.31,0.52,0.41,0.52
		c1.86,0.31,1.97,0.21,4.03-1.14C165.8,157,161.94,159.62,161.85,158.89z"/>
	<path d="M168.99,154.03c-0.4-1.2-0.71-2.59-2.13-3.24C167.1,152.16,167.8,153.24,168.99,154.03z"/>
	<path d="M166.86,150.79c-0.01-0.09-0.03-0.19-0.11-0.22C166.71,150.74,166.69,150.73,166.86,150.79z"/>
	<path d="M142.5,180.62c0.41-1.55-0.21-2.59-0.72-3.72C141.26,178.34,142.19,179.17,142.5,180.62z"/>
	<path d="M163.71,198.83c-0.21-0.62-0.41-1.24-0.62-1.86C162.37,198.62,162.37,198.62,163.71,198.83z"/>
	<path d="M134.95,134.38c-0.83,0.1-1.66,0.21-2.59,0.41C133.19,134.79,134.23,135.52,134.95,134.38z"/>
	<path d="M135.06,134.38c0.9-0.1,2,0.47,2.72-0.63C136.81,133.67,135.93,133.79,135.06,134.38z"/>
	<path d="M128.75,132.41c0.09,0.74,0.77,0.57,1.27,0.6C129.79,132.52,129.31,132.41,128.75,132.41z"/>
	<path d="M130.02,133.01c0.12,0.24,0.78,0.08,0.9,0.02C130.28,133.03,130.17,133.04,130.02,133.01z"/>
	<path d="M136.92,125.58c-0.2-0.09-0.29-0.2-0.39-0.29C136.62,125.4,136.67,125.58,136.92,125.58z"/>
	<path d="M135.19,124.63c0.22,0.8,0.77,0.84,1.33,0.66C136.74,125.22,136.3,124.47,135.19,124.63z"/>
	<path d="M135.06,124.65c0.16-0.04,0.15,0.03,0.1-0.1L135.06,124.65z"/>
	<path d="M144.78,128.69c-0.72-0.62-0.93-0.1-1.24,0.1C143.75,128.69,144.16,128.69,144.78,128.69z"/>
	<path d="M169.06,154.3c0.19,0.47,0.37,0.92,0.55,1.39C169.51,155.21,169.67,154.57,169.06,154.3z"/>
	<path d="M168.88,154.24c0.16,0.05,0.24,0.13,0.1-0.1L168.88,154.24z"/>
	<path d="M166.61,162c-0.1-0.1-0.1-0.21-0.1-0.31c0,0.21-0.1,0.31-0.1,0.41C166.5,162.1,166.5,162,166.61,162z"/>
	<path d="M148.4,176.69c-0.41-0.21-0.83-0.41-1.45-0.52C148.46,176.93,148.3,176.79,148.4,176.69z"/>
	<path d="M148.4,176.79c0.21,0.1,0.41,0.1,0.62,0.21C148.81,176.89,148.61,176.79,148.4,176.79z"/>
	<path d="M170.6,144.9c-0.01,0.01-0.02,0.01-0.06,0.03C170.67,144.89,170.66,144.88,170.6,144.9z"/>
	<path d="M153.26,145.65c0.1,0,0.21-0.21,0.31-0.31c-0.1,0-0.21,0-0.31,0C152.55,145.73,153.07,145.65,153.26,145.65z"/>
	<path d="M152.64,145.65l0.1,0.1C153.04,145.64,152.75,145.65,152.64,145.65z"/>
	<path d="M151.36,146.45c0.19-0.1,0.16-0.07-0.17-0.07c0.12,0.12,0.11,0.08,0.11,0.19c0.03-0.02,0.06-0.06,0.09-0.08L151.36,146.45z
		"/>
	<path d="M152.64,146.38c0,0.13,0,0.1,0.05,0.1C152.78,146.35,152.75,146.38,152.64,146.38z"/>
	<path d="M151.49,146.38c1.38,0,1.15,0.16,1.15-0.62C152.29,145.93,151.87,146.18,151.49,146.38z"/>
	<path d="M166.09,149.27c-0.1,0.5,0.01,1.08,0.65,1.3C166.89,150.03,166.75,149.56,166.09,149.27z"/>
	<path d="M164.54,126.83c0.05,0,0.12,0.02,0.21,0.05C164.73,126.83,164.7,126.83,164.54,126.83z"/>
	<path d="M164.74,126.93c0.1,0,0.1,0,0.21,0C164.8,126.93,164.74,126.82,164.74,126.93z"/>
	<path d="M139.46,135.11c-0.03,0.02-0.06,0.05-0.06,0.09C139.42,135.18,139.44,135.15,139.46,135.11z"/>
	<path d="M139.46,135.11c0.04-0.03,0.09-0.06,0.15-0.12C139.61,134.59,139.55,134.92,139.46,135.11z"/>
	<path d="M142.4,136.76c-0.1,0.21-0.1,0.31-0.21,0.52C142.3,137.17,142.92,137.27,142.4,136.76z"/>
	<path d="M142.09,137.17c-0.28,0.09-0.55,0.29-0.6,0.7C141.9,137.82,142.09,137.54,142.09,137.17z"/>
	<path d="M162.57,125.9c-0.18-0.18-0.4-0.34-0.6-0.52C162,125.68,162.15,125.9,162.57,125.9z"/>
	<path d="M161.95,125.17l-0.1,0.1C162.03,125.46,161.95,125.37,161.95,125.17z"/>
	<path d="M162.57,125.9v0.1C162.72,126.15,162.7,126.15,162.57,125.9z"/>
	<path d="M151.3,146.56c-0.62,0.49-0.45,0.26,0.1,0.54C151.32,146.95,151.3,146.77,151.3,146.56z"/>
	<path d="M139.92,169.76c0.1,0,0.1,0.1,0.21,0.1C140.02,169.76,140.02,169.76,139.92,169.76z"/>
	<path d="M146.33,175.24l-0.1-0.1C146.23,175.39,146.19,175.38,146.33,175.24z"/>
	<path d="M146.23,175.34c0.21,0.31,0.52,0.52,0.72,0.83C147.1,176.02,146.81,175.63,146.23,175.34z"/>
	<path d="M229.61,179.89c0.93-2.48,0.93-2.48,0.62-4.24C229.3,176.89,228.57,177.93,229.61,179.89z"/>
	<path d="M228.47,245.17c-0.41,0.82-0.81-0.09,0.31,1.03C229.2,245.78,229.41,246.11,228.47,245.17z"/>
	<path d="M230.74,189.93c0-0.1-0.1-0.21-0.1-0.31c-0.1,0.1-0.21,0-0.31,0.1C230.33,190.28,230.3,189.93,230.74,189.93z"/>
	<path d="M127.19,159.52c-0.31,0.41-0.51,0.52-0.52,0.72c-0.05,3.62,0.62,6.93,2.17,10.14C128.85,166.76,127.4,163.34,127.19,159.52
		z"/>
	<path d="M130.5,122.69c-0.1-0.1-0.31,0.1-0.52,0.21c0.13,0,0.31,0.21,1.03,0.21C130.71,123.1,130.61,122.79,130.5,122.69z"/>
</g>
</svg>
