<?xml version="1.0" encoding="UTF-8"?>
<!-- Generator: Adobe Illustrator 20.0.0, SVG Export Plug-In . SVG Version: 6.00 Build 0)  -->
<svg fill="#fff" version="1.2" baseProfile="tiny" id="Layer_2" xmlns="http://www.w3.org/2000/svg" xmlns:xlink="http://www.w3.org/1999/xlink" x="0px" y="0px" viewBox="0 0 900 600" xml:space="preserve">
<g>
	<path d="M457.3,548.7c-2,0.2-4,0.4-6.1,0.6c-1.1,0.1-2.1-0.3-2.1-0.9c0.1-0.9,0.7-1.3,1.4-1.4c2.5-0.5,4.9-0.9,7.4-1.2   c1.9-0.2,3.8,0,5.7,0c0.5-0.9-0.2-1.3-0.5-1.9c-0.2-0.5-0.6-1-1-1.7c-4,0.6-8.1,0.8-12,2c-1,0.3-2.1,0.6-3.1,0.8   c-0.4,0.1-1-0.3-1.2-0.6c-0.2-0.3-0.1-0.9,0-1.3c0.4-0.9,1.2-1.5,2.2-1.7c1.7-0.5,3.5-1,5.2-1.2c2.3-0.3,4.5-0.2,7-0.3   c-0.3-1.2-0.7-2.4-0.9-3.7c-0.3-1.1,0.2-2.4-0.8-3.7c-3.7,0.1-7.6-0.5-11.5-0.2c-1.4,1.2-2.1,2.8-2.9,4.2c-0.9,1.6-2.5,2.5-3.8,3.8   c-1.1,1.1-2.4,2.2-4,3.4c-0.1-2.5,2.2-2.8,2.8-4.7c-0.3-0.3-0.8-0.6-1.4-1.1c0.1-0.9,0.3-1.9,0.5-3.2c-0.4,0-1.1-0.3-1.2-0.1   c-1.2,1.3-2.4,2.7-1.8,4.7c0.1,0.4,0,0.9-0.1,1.4c-0.5,2.9-0.6,5.7,0,8.6c0.2,1.1,0,2.1-0.4,3.2c-0.9,2.7-1.5,5.6-1.4,8.5   c0.1,2.7-0.3,5.2-2.3,7.3c-0.1,0.2-0.2,0.4-0.3,0.8c0.5,0.9,1.5,1,2.3,1.3c0.9,0.3,1.9,0.5,2.8,0.7c2.2,0.5,2.2,0.5,3.3,2.9   c1.7,0,3.5,0,5.3,0c1.5,0,2.5-0.5,3-2c0-0.2,0.4-0.2,0.6-0.4c0.7,0.1,0.6,0.7,0.6,1.1c0,0.8-0.1,1.7-0.1,2.5   c-0.1,1.4-0.2,2.8,0.3,4.3c0.4,1.1,0.3,2.3,0.4,3.8c-1.6-0.3-1.6-2.1-3-2.3c0-1.8,0-3.4,0-5.3c-0.9-0.1-1.7-0.1-2.5-0.2   c-3-0.3-6-0.5-8.6-2.3c-0.7-0.5-1.6-0.5-2.4-0.8c-1.6-0.6-3.1-1.2-4.1-2.8c1.7-2.4,2.5-4.9,2.7-7.9c0.1-3.3,1-6.6,1.6-9.9   c0.1-0.8,0.3-1.6,0.3-2.5c0-2.9-0.1-5.8,0.7-8.6c0.1-0.4,0.2-1.1,0-1.4c-1-1.7-0.2-3,0.6-4.4c0.4-0.7,0.8-1.5,1.3-2.3   c0.8,0.1,1.6,0.1,2.3,0.2c2.7-4.1,2.9-8.8,3.7-13.4c0.3-1.8,0.4-3.6,0.8-5.3c1.8-9,1.9-18.1,2.1-27.2c0.1-4.2-0.3-8.4-1-12.5   c-1.2-7.3-1-14.6-0.3-21.9c0-0.4,0-0.7,0.1-1.1c1.6-5.3,1.6-10.9,2.6-16.3c0.5-2.5,0.7-5,1.2-7.5c0.3-1.8,0.4-3.5-0.2-5.3   c-1.3-4.5-1.9-9.2-2.2-13.8c-0.3-5.9-0.2-11.8-0.2-17.6c0-0.5,0-1,0.1-1.4c1.1-6.4,1.1-12.9,1.1-19.4c0-0.4,0-0.7,0-1.1   c0.8-4.8,0.2-9.6-0.1-14.3c-0.2-4.3-0.4-8.6-0.5-12.9c-0.2-6.1-0.5-12.2-0.7-18.3c-0.1-1.7,0-3.4,0-5c0-1.2,0-2.3-0.5-3.5   c-0.3,1.1-0.7,2.2-1,3.4c-2.8,10.3-5.6,20.6-8.5,30.9c-0.6,2.3-1.3,4.6-2,6.9c-1.5,4.9-3.4,9.8-5.9,14.3c-0.8,1.5-1.5,3-1.8,4.7   c-0.2,1.2-0.7,2.3-1.1,3.4c-1.9,5.2-3,10.6-3.7,16.1c-1.2,8.4-2.5,16.8-5.5,24.9c-0.3,0.9-0.5,1.8-0.8,2.8   c-1.1,4.8-3.1,9.3-5.4,13.7c-0.5,0.8-0.9,1.7-1.6,2.4c-2.7,2.7-3.3,6-3.3,9.6c0,3.5,0.1,7,0.2,10.4c0.1,4.2,0.1,8.4-0.6,12.6   c-0.2,1.4-0.4,2.9-0.7,4.3c-1.9,7-3.4,14.2-5.9,21.1c-0.6,1.6-1.1,3.2-1.8,4.7c-3.9,8.5-6,17.4-7.6,26.5c-1.1,5.7-2.4,11.2-3.6,17   c0.5,0.3,1.2,0.8,2.1,1.3c0.4,3,0.9,6,1.4,9.1c0.3,2.1,0.7,4.3,1,6.4c0.3,2.3,1,4.4,2.1,6.5c0.4,0.7,0.9,1.6,0.9,2.3   c-0.1,2.8,1.3,5.1,2.3,7.5c0.2,0.5,0.4,1.1,0.7,1.6c-2.9,2.5-10.7,5.8-17,7.1c-0.3,0.6-0.7,1.3-0.9,2.1c-0.3,1.3-0.3,2.6-0.5,3.9   c-0.2,1.3-0.6,2.5-1,4c-1.9,0.3-3.9,0.6-5.9,0.9c-6.2,1.1-12.3,2-18.6,1.6c-2.6-0.2-5.3-0.4-7.9-0.8c-2-0.3-4-0.9-5.7-2   c-0.6-0.4-1-0.9-1.5-1.3c0.5-1.2,1.1-2.3,1.4-3.4c0.3-1.1,0.3-2.4,0.5-3.6c0.4-3.6,0.2-7.2,1.1-10.3c3.4-3.5,6.5-6.8,10-10.4   c4.3-10.7,6-13.5,11.4-18.6c0.1-0.5,0.1-1.2,0.2-1.9c0.2-1.3,0.4-2.6,0.9-3.9c1.1-3.2,2.1-4,5.6-5.1c0.1-0.6,0.3-1.3,0.2-1.9   c-0.5-5.9-1.2-11.7-1.7-17.6c-0.3-3.1-0.2-6.2,0.4-9.3c0.3-1.4,0.3-2.9,0.3-4.3c0-7.3,0-14.6,0-22c0-5.9,0.3-11.8,1.3-17.6   c0.8-4.7,1.9-9.4,2.9-14.1c1.6-7.3,3.4-14.5,5.8-21.5c1.4-4.2,3.1-8.3,4.8-12.4c0.3-0.7,0.4-1.6,1.5-1.8c0.5,0.6,0.1,1.1,0,1.7   c-3.4,12.6-6.9,25.2-10.1,37.9c-1.1,4.4-1.9,8.9-2.8,13.4c-0.3,1.8-0.4,3.6-0.5,5.4c-0.1,2-0.2,4-0.8,6c-0.4,1.1-0.3,2.4-0.3,3.6   c0.1,3,0.3,6,0.3,9c0,2.9-0.1,5.8-0.1,8.6c0,1.6,0,3.1,0,4.7c0.1,3.2,0.1,6.5,0.2,9.7c0,1,0.1,2-0.3,2.8c-0.8,2-0.6,4-0.4,6   c0.5,4.4,1,8.8,1.5,13.2c0,0.1,0.2,0.2,0.4,0.5c3.4-0.1,7.2-0.6,10.6,1.1c0.7,1.7,0.4,3.9,2.4,5c1.5-3.4,2.2-7.1,3-10.7   c1.1-5.4,2.1-10.8,3.2-16.2c0.6-2.9,1.2-5.9,2.1-8.7c1.9-5.9,4.1-11.8,6-17.7c1.5-4.7,3.3-9.3,4.3-14.1c0.9-4.1,1.4-8.3,0.9-12.5   c-0.7-5.5-0.6-11,0.7-16.5c0.3-1.3,0.7-2.7,0-4.3c-3.2,1.9-4.4,5.3-7.1,8.4c0.8-5,3.7-7.6,6.7-10.1c0.6,0.2,1,0.3,1.5,0.4   c0.2-0.2,0.3-0.3,0.4-0.5c1.1-2.3,2.2-4.5,3.3-6.8c4.6-9.1,7.6-18.6,9.6-28.6c1.2-6,2.4-12,3.6-18c0.5-2.6,1-5.2,2.5-7.5   c0.6-0.9,0.9-2,1.1-3c0.6-4.2,2.2-8.1,3.6-12c2.7-7.1,4.9-14.3,6.8-21.6c2.7-10.1,6.1-20,9.7-29.7c0.3-0.8,0.5-1.6,0.8-2.4   c-1.9-2.3-4.9-3.4-5.7-6.4c0-0.2,0.2-0.4,0.3-0.7c1.3,0.8,2.5,1.9,3.3,3.2c1,1.5,2.2,2.4,4,2.9c0.1,0.8,0.1,1.5,0.1,2.2   c0.3,5.4,0.5,10.8,1,16.2c0.6,6.5,0.7,12.9,0.7,19.4c0,4.2,0,8.4-0.1,12.6c0,2.6,0.1,5.3-0.6,7.9c-0.2,0.7-0.1,1.4-0.1,2.1   c-0.1,4.6-0.2,9.1-0.3,13.7c0,1,0.1,1.9,0.1,2.9c0.3,3.9,0.6,7.9,0.8,11.8c0,0.6,0.2,1.3,0,1.8c-0.9,2.8-0.7,5.7-0.7,8.5   c-0.1,2.7,0.4,5.5,0.8,8.2c0.2,1.5,0.7,3,1,4.6c0.3,1.3,0.5,2.6,0.6,3.9c0.1,0.9,0.3,1.9-0.8,2.5c-0.4,0.2-0.4,1.1-0.4,1.7   c-0.7,4.9-1.3,9.7-2,14.6c-0.3,2.5-0.5,5-0.9,7.5c-1.1,7.2-0.9,14.4,0.4,21.5c1.4,7.4,1.3,14.8,0.6,22.2c-0.1,1.6-0.2,3.1-0.2,4.7   c-0.1,5.5-0.8,11-1.6,16.5c-0.2,1.2-0.5,2.4-1,3.4c-0.5,1.3-0.6,2.5-0.7,4c0.7-0.5,1.2-0.9,2.1-1.5c-0.1,1.1-0.2,1.8-0.3,2.5   c-0.5,2-1.1,3.9-1.7,5.9c-0.3,1-0.5,1.9-1.6,2.6c-1.3,0.7-0.8,2.3-1,4c0.7-0.5,1.1-0.7,1.3-1c1-1.5,1.9-3,2.9-4.6   c0.7-1.1,1.6-1.7,2.9-1.8c2.5-0.1,5-0.3,7.5-0.5c1.3-0.1,2.6-0.3,3.9-0.4c0.8-3.8,1.7-7.4,2.4-11.1c1.5-7.7,4.1-15,6.6-22.4   c3.6-10.5,7.8-20.9,9.6-32c1.3-8.3,2.1-16.7,1.3-25.1c-0.6-6-0.3-12-0.3-18c0-1.5,0.3-3.1-0.4-4.6c-0.3-0.6,0-1.4,0.1-2.1   c2-8.5,3-17.2,3.9-26c0.3-3.4,1-6.6,2.6-9.6c1-1.9,1.4-4.1,2.1-6.1c2.3-6.7,4.7-13.3,6.9-20.1c3.5-10.8,5.5-21.9,6.4-33.1   c0.1-1.5,0.8-3,0.1-4.8c-0.9,0.3-1.7,0.5-2.4,0.8c-7.8,2.8-15.7,5.3-23.7,7.3c-3.5,0.9-7.1,1.1-10.7,0.9c-4.8-0.2-9.6-0.7-14.2-2   c-0.1-0.7,0.4-0.9,0.9-0.8c1.7,0.2,3.3,0.4,5,0.6c5.9,0.8,11.7,0.8,17.5-0.4c2.5-0.5,4.8-1.4,7.3-2c6.2-1.8,12.5-3.5,18.7-5.3   c0.7-0.2,1.3-0.5,2.2-0.8c0.7-10.5,1.4-20.9,2.9-31.2c0-0.2-0.2-0.4-0.4-0.8c-0.3,0.4-0.7,0.7-0.9,1.1c-0.2,0.6-0.2,1.2-0.3,1.8   c0,1.3-0.2,2.6-1.2,3.6c-0.5,0.6-0.6,1.5-0.9,2.3c-0.2,0.6-0.6,1.1-1.3,1c-0.7-0.1-0.8-0.8-0.9-1.4c-0.1-0.8-0.3-1.7-0.2-2.5   c0.2-4.8,0.5-9.6,2.2-14.2c0.2-0.4,0.1-0.9,0.2-1.4c0.1,0,0.2,0,0.3-0.1c0,0,0-0.1,0-0.2c-0.1,0.1-0.2,0.3-0.2,0.4   c-1.4,0-2.1,1.1-2.6,2.1c-1.8,3.7-3.5,7.3-5.2,11c-0.4,0.8-0.9,1.4-1.7,1.8c-1.3,0.6-2.6,1.2-4.1,1.9c-0.2-0.9-0.5-1.8-0.7-2.7   c-1.3-0.2-2.6,1.6-3.9,0.1c-0.1-0.2-0.2-0.5-0.2-0.7c0.6-3.3,1.2-6.6,1.9-9.9c0.3-1.5,0.7-3,1.2-4.5c0.8-2.3,2.1-4.3,4.2-5.6   c0.8-0.5,1.5-1.1,2.6-2c-2-0.3-3.5-0.4-5-0.6c-2.4,1.8-4.1,4.1-6.1,6.2c-0.5,0.5-0.4,1.5-0.6,2.4c-2.4,1.3-5,1.8-7.9,0.7   c0.9-2.7,2.1-5,3.6-7.1c2.5-3.4,5.1-6.7,7.6-10.1c3-1,6.1-1.1,9.2-0.6c1.6,0.2,3,0.4,4.6-0.2c0.8-0.4,1.9-0.3,3-0.4   c-0.2-0.5-0.3-0.9-0.5-1.3c-2.4-4.5-4.9-9.1-7.4-13.6c-1-1.9-2.1-3.8-3.2-5.6c-2.5-4.1-5.2-8.1-7.7-12.1c-1.5-2.3-2.7-4.8-3.1-7.6   c-0.3-1.9-0.3-3.8-0.3-5.7c-0.1-2.9-0.4-5.7,0.8-8.3c-0.4-0.9-1-1-1.6-0.8c-1.4,0.3-2.8,0.3-4.3,0.2c-1.3-0.2-2.6,0.1-3.9,0.1   c-2.1,0-4.3,0-6.4-0.1c-2.9-0.2-5.7-0.6-8.6-0.9c-6.6-0.6-13.1-1.2-19.7-1.8c-7.8-0.7-15.5-1.9-23.1-3.3c-2-0.4-4-0.7-6-1.1   c-0.5-0.1-0.9,0-1.3,0c-0.7,0.6-0.3,1.2-0.1,1.7c0.8,2.1,1.7,4.2,2.4,6.4c0.9,2.5,1.5,5,1.3,7.7c-0.1,1.2,0.1,2.4,0.4,3.6   c1.3,5.2,0.8,10.3-0.7,15.3c-1.7,5.8-3.6,11.5-7,16.5c-0.3,0.4-0.5,0.8-0.7,1.3c-1.3,3.7-2.6,7.4-4,11.2c-0.1,0.2,0,0.5,0,0.9   c0.5,0.3,1.1,0.8,1.7,1.1c4.4,2,9,3.3,13.8,3.9c4.9,0.6,9.8,0.9,14.7,1.4c10,1,20.1,1.2,30.1,2.8c5.5,0.8,11,0.3,16.5-0.1   c0.7-0.1,0.7-0.1,1.8,0.8c-0.2,0.3-0.4,0.7-0.7,0.7c-1.3,0.2-2.6,0.6-3.9,0.5c-3.4-0.1-6.7-0.5-10.1,0c-0.4,0.1-0.9-0.1-1.4-0.2   c-0.9-0.1-1.9-0.3-2.8-0.2c-7.3,0.2-14.6-0.2-21.9-0.8c-7.9-0.6-15.8-1.1-23.6-2.5c-4.7-0.8-9-2.3-13.1-4.8   c-0.4-0.2-0.8-0.4-1.2-0.6c-1.2,0.4-1.1,1.3-1.3,2.1c-3.6,12-6.4,24.1-7.6,36.6c-0.3,3.6-0.7,7.2-1,10.7c-0.1,0.8,0,1.7,0,2.7   c0.7,0.4,1.3,0.8,2.1,1.2c8.1,4,16.7,6,25.5,7.2c6.2,0.9,12.4,1.4,18.6,2c1.1,0.1,2.2,0,3.2-0.1c1.6-0.1,3.1-0.1,4.9,0.6   c-2.1,0.7-4.1,1.2-6.1,1.3c-5.5,0.3-11,0.1-16.5-0.8c-6.5-1-13-2.1-19.3-4.4c-3.3-1.2-6.4-2.6-9.6-4c-0.9-0.4-1.7-0.7-2.7-1.1   c-0.1,0.7-0.3,1.1-0.3,1.6c-0.3,5.8-0.5,11.5-0.7,17.3c-0.1,2.9-0.3,5.7-0.4,8.6c-0.1,3.5-0.4,7-0.2,10.4   c0.5,8.6,1.1,17.2,1.7,25.9c0.3,4.9,0.6,9.8,0.9,14.7c0.1,1.3,0.3,2.7-0.9,3.7c-0.4,2.4-0.8,4.7-1.1,7.1c-0.2,1.2,0.2,2.5-0.2,3.6   c-0.8,2.3-1.1,4.6-1.1,7c0,0.8-0.4,1.6-0.7,2.9c-0.4-1.1-0.7-1.7-0.8-2.5c-0.1-1.3-0.2-2.7,0-4c0.8-5.6,1-11.3,3-16.6   c0.4-0.9,0.4-1.9,0.2-2.8c-1.1-5.4-1.5-10.9-1.9-16.4c-0.4-5.1-0.9-10.3-1.1-15.4c-0.2-4.8-0.1-9.6,0-14.4c0.1-3.5,0.1-7,0.5-10.4   c0.9-7.1,0.2-14.1,0.3-21.2c0.1-5.6,0.5-11.3,1.2-16.9c1.2-9.5,3.1-18.9,5.7-28.2c1.1-3.8,2.6-7.5,3.9-11.2   c0.8-2.3,1.8-4.5,2.5-6.8c1.7-5.6,3.9-11,6.7-16.3c2.3-4.5,3.4-9.5,4-14.5c0-0.2,0-0.5,0-0.7c-1.1-5.4-1.2-11-3.1-16.2   c-0.6-1.6-0.9-3.2-1.3-5.1c-1.1,1.4-1.3,2.9-1.9,4.3c-0.6,1.4-1.5,2.7-1.4,4.4c0.1,1.7-1.3,2.7-2.6,3.6c-0.8,0.6-1.6,1.3-2.3,1.8   c-0.1,2.6-0.2,4.9-0.4,7.1c-0.1,1.2-0.3,2.4-0.6,3.5c-0.9,3-1.4,6.1-1.3,9.2c0,0.8-0.1,1.7-0.2,2.6c-1.3,0.6-2.6,1.1-3.8,1.6   c-2.2-0.2-4.2-0.3-6.2-0.5c-2.3-0.2-4.5-0.4-6.8-0.8c-2.2-0.4-4.4-1.2-6.2-2.9c-0.6-4.3-0.1-8.5,0.6-12.9c-2.9-0.8-4.2-3.2-5.6-5.4   c-1.4-2.1-2.5-4.4-3.6-6.6c-1.6-3.3-1.4-6.7-0.4-10.2c0-0.1,0.3-0.2,0.5-0.3c-0.1,2.3-0.1,4.5-0.2,6.7c0,1,0.2,1.8,0.8,2.7   c1.6,2.4,3.2,4.8,4.7,7c1.7,0.2,1.7,0.2,3-0.4c-0.3-1.9-0.6-3.8-2-5.5c-2-2.5-3.4-5.5-4.2-8.7c-0.4-1.5-0.3-3.1-0.2-4.6   c0-0.7,0.4-1.4,1.6-1.2c-0.1,1-1.4,1.8-0.4,2.9c0.8-0.5,1.5-0.9,2.2-1.4c-0.1-1.7-0.4-3.4-0.4-5c0-1.7,0.7-2.4,2.4-2.5   c0.6,0,1.2,0,1.8,0c0.6,0,1.2-0.1,1.8-0.1c1.3-1.5,1.2-3.5,2.3-5.2c0.9-0.5,2.1-0.9,4-0.7c-0.9,0.8-1.6,1.3-2.1,1.9   c-0.6,0.7-1.1,1.5-1.6,2.4c-0.4,0.8-0.7,1.7-1.2,2.7c-1.9,0-3.8-0.4-5.8,0.1c-0.8,1.8-0.5,3.5,0,5.3c0.3,0.9,0.7,1.8,1.2,2.6   c1.2,1.9,2.5,3.8,3.8,5.6c1.2,1.6,1.2,1.6,4.1,2c0.8-1.5,0.9-3.1-0.1-4.6c-0.6-1-1.3-2-1.9-3.1c-0.3-0.5-0.2-1.1-0.3-1.7l-0.1,0.1   c0.3-0.1,0.7-0.1,1.1-0.2c0.5-1.5,0.9-3,1.5-5c0.1-0.7-1.4-1.5-0.9-3c1.4,0.3,1.5,1.9,2.8,2.4c0.5-0.2,1.1-0.4,2-0.7   c-0.1-0.7-0.2-1.4-0.3-2.1c-0.3-1.2-1.2-2.3-1.1-3.7c1-0.5,1.2,0.7,1.8,0.8c0-0.2,0.2-0.4,0.1-0.6c-0.8-3.9-0.9-7.8-0.9-11.8   c0.1-6.4,1.2-12.6,3-18.8c1-3.3,1.7-6.7,2.5-10.1c0.2-1,0.2-2.1,0.1-3.2c-0.4-4.7-0.8-9.3-0.4-14c0.3-3.6,1.3-7.1,2.9-10.3   c0.7-1.5,1.5-3,3-4c0.7-0.5,1.1-1.2,1.6-1.9c1.6-2.1,3.6-3.5,6.1-4.3c3.1-1.1,6.1-2.1,9.5-1.6c1.4,0.2,2.9-0.2,4.3-0.3   c5.5-0.6,10.9-1.3,16.4-2c1-0.1,1.9-0.2,2.9-0.3c1.8-0.2,3.2-0.9,4.3-2.3c0.4-0.5,0.8-1,1.2-1.3c2.4-1.9,3.1-4.4,3-7.3   c0-1.2-0.2-2.4-0.1-3.6c0.1-1.9-0.6-3.4-1.4-5c-1.6-3.2-2.7-6.6-4.2-10.4c-1.7-0.7-2.4-2.5-3.2-4.5c-1-2.7-1.7-5.5-3.1-8   c-1-2-1.4-4.4,0.2-6.5c0.4-0.6,0.5-1.4,0.9-1.9c0.6-0.9,0.6-1.8,0.6-2.7c-0.5-5.3,0.2-10.5,1.2-15.7c0.2-0.8,0.1-1.7,0.2-2.5   c0.3-2.7,0.7-5.4,2.4-7.7c0.1-0.2,0.3-0.4,0.4-0.6c2.3-5.8,7.4-7.9,12.7-9.6c1.1-0.3,2.3,0,3.6,0c0.8-1.5,1.6-2.9,2.9-4   c1.2-1.1,2.5-1.9,4.1-2c2-0.2,4.1-0.3,6.1-0.2c1.5,0.1,2.8,0.7,3.9,1.6c2.1,1.7,2.9,4.1,2.5,6.7c-0.2,1.1,0.1,1.8,0.9,2.5   c1.1,0.9,2.2,1.8,3.3,2.8c2.5,2.2,4.1,5,4.9,8.2c1.1,4.3,1.6,8.7,0.9,13.1c0,0.1,0,0.2,0,0.4c0.5,2,0,4,0,6.1   c0,0.6,0.1,1.2,0.2,1.9c1.2,0.2,1.5-1.2,2.8-1.2c0.3,0.3,1,0.7,1.3,1.3c1.6,3.5,2.3,7.1-0.5,10.4c-0.4,0.4-0.8,1-0.9,1.5   c-0.3,2.2-1.7,3.6-3.4,5.2c-0.4-0.2-0.9-0.4-1.5-0.6c-0.1,0.2-0.3,0.3-0.4,0.5c-0.2,0.3-0.3,0.6-0.4,1c-0.5,2.1-0.9,4.2-1.4,6.3   c-0.6,2.1-1.5,4-2,6.1c-1,4.1-1.2,11,0.6,15.9c1.2,3.4,3.4,6.1,6.4,8c3.9,2.5,8.1,4.7,12.2,7c2.2,1.2,4.6,1.9,7.1,2.4   c2.9,0.6,5.8,1.3,8.7,2.2c3.1,0.9,5.6,2.7,7.7,5.1c1.9,2.2,3.4,4.7,4.5,7.3c2.6,6.4,5.3,12.9,7.9,19.3c1,2.5,2.6,4.6,4.2,6.7   c3.3,4.1,6.7,8.1,10.2,12.1c4.5,5.2,8.5,10.8,11.2,17.1c1.3,3,2.4,6,3.3,9.1c1,3.1,2.1,6.1,3.8,8.9c0.4,0.6,0.8,1.2,1,1.9   c1,3.4,2.1,6.9,3,10.4c0.2,0.8,0,1.7-0.2,2.5c-0.3,1.2-0.7,2.3-1.2,3.4c-2.4,5.4-4.7,10.8-7.2,16.1c-2.5,5.5-5.8,10.5-9.7,15.1   c-4,4.7-7.6,9.9-10.2,15.6c-0.7,1.5-1.4,3-2.8,4.2c-0.3,0.2-0.5,0.5-0.7,0.8c-4,6-10.1,7.7-16.7,8.3c-1.2,0.1-2.4-0.2-3.6-0.3   c-3.9-0.3-7.2,2.5-7.5,6.5c-0.2,2.9-0.6,5.7-0.7,8.6c-0.3,5.5-0.5,11-0.7,16.5c-0.4,9.4-1,18.9-2.5,28.2c-2,12.2-5.8,23.7-10.8,35   c-1.8,4.1-3.5,8.2-5.3,12.2c-0.9,2-1.4,4.1-1.6,6.2c-0.3,3.5-0.5,6.9-0.7,10.4c-0.4,6-1.2,11.9-2.4,17.8c-0.2,1.1-0.5,2.1-0.5,3.2   c0,4-0.1,7.9,0.1,11.9c0.1,2.4,0.4,4.8,1,7.1c2.3,9.4,1.5,18.6-1,27.7c-1.1,4.1-2,8.1-3.2,12.2c-1,3.3-2.1,6.6-3.3,9.9   c-2.3,6.3-4.7,12.6-6.4,19.1c-0.4,1.5-0.9,2.9-1.8,4.3c-0.7,0.9-0.9,2.2-1.1,3.4c-0.8,3.8-1.4,7.5-2.2,11.3c-0.2,1.2-0.5,2.3-1,3.4   c-0.6,1.4-0.7,2.7-0.1,4.2c0.3,0.7,0.3,1.4,0.4,2.1c0.4,4.9,2.4,8.9,6.3,12c0.6,0.5,1.2,1.2,1.4,2c0.5,1.5,1.4,2.8,2.4,4   c2.2,2.4,4,5.1,5.4,8c0.5,1.2,1.3,2,2.5,2.5c1.7,0.7,2.4,2,3,3.7c1.5,4.2,2.4,8.5,2.1,13c-0.1,1,0.1,2.1,0.2,3.2   c-1.1,1.3-2.6,1.6-4.1,2c-2.3,0.5-4.7,1-7.1,1.2c-4.6,0.5-9.3,1-14,0.4c-3.1-0.4-6.2-1.6-8.9-3.7c3.9,0.6,7.3,1.3,10.8,1.5   c3.7,0.2,7.4,0,11.2-0.2c3.6-0.2,7.2-0.5,10.5-1.5c0.2-0.3,0.5-0.5,0.5-0.7c-0.3-4.4-0.6-8.8-1.8-13.1c-0.5-1.8-1.3-3.1-2.9-3.9   c-2.3-1.1-3.7-2.9-4.8-5.1c-0.8-1.6-1.8-3.1-2.8-4.6c-1.6-2.1-3.3-4.1-4.3-6.6c-0.1-0.4-0.7-0.6-0.9-0.8c-2.5,0.2-4.7,0.3-7,0.6   c-0.7,0.1-1.3,0.4-2,0.6L457.3,548.7z M481.7,44.6c-0.2,0.2-0.5,0.5-0.7,0.7c-0.1,0-0.2,0-0.3,0.1c0,0-0.1,0.1-0.1,0.2   c0.1-0.1,0.2-0.2,0.3-0.3C481.1,45,481.4,44.8,481.7,44.6c0.2-0.2,0.8,0,0.2-0.6C481.9,44.2,481.8,44.4,481.7,44.6z M430.6,47.4   c-0.1,0-0.1-0.1-0.2-0.1C430.5,47.3,430.6,47.3,430.6,47.4c0,0.2-0.2,0.6,0.4,0.4C430.8,47.7,430.7,47.6,430.6,47.4z M477.4,32.3   c0.1-0.2,0.2-0.3,0.3-0.5c0,0-0.1-0.1-0.1-0.2C477.6,31.9,477.5,32.1,477.4,32.3l-0.1,0.1C477.3,32.4,477.4,32.3,477.4,32.3z    M468.7,16.5c-0.7,0.2-0.8,0.8-0.7,1.4c-0.6,0.4-1.2,0.8-2.2,1.3c0.5-2.9,2.8-4.4,3.8-7.1c-0.3-0.3-0.6-0.6-1-1   c-0.9,1.3-1.5,2.3-2.2,3.2c-0.1-0.5-0.1-1.1-0.2-1.6c-0.1,0-0.2,0-0.3,0c-0.1,0.5-0.1,1-0.2,1.6c-1.7,0.6-2.1,2-2.2,3.6   c-0.4,0.1-0.8,0.3-1.5,0.5c0.3-1,0.5-1.8,0.7-2.7c0.7-0.3,0.8-0.9,0.7-1.5c1.6-0.8,1.8-2.3,2-3.8c0-0.5-0.4-0.8-1.1-0.5   c-0.6,1.3-0.8,2.8-0.7,4.4c-0.9,0.2-0.8,0.9-0.7,1.5c-1.2,0.3-1.4,1.5-2,2.3c-1,1.4-1.9,2.8-3.9,3.1c-0.5-0.2-1.2-0.5-1.8-0.8   c0.1-2.7,0.2-5.1,0.5-7.8c0.5,0.5,0.8,0.7,1.1,1c0.4-0.4,0.2-1.3,1.2-1.1c0.6,1.5-0.8,3.2,0.1,4.8c1.3-1.2,1-3.2,2.6-4.7   c-0.3,1.6-0.4,2.7-0.7,4.5c1.7-2.4,2.7-4.4,2.8-6.7c0-0.3-0.1-0.7-0.2-1.2c-0.8-0.2-1.6-0.3-2.4-0.5c-0.5,1-0.9,1.8-1.5,3.1   c-0.4-1.3-0.6-2.1-0.8-2.9c-1.2-0.3-2.2-0.8-3.2,0c0.1,1.4,0.2,2.8,0.2,4.2c-0.2,2.9-0.5,5.7-0.7,8.5c-0.7-0.1-1.4-0.3-2.2-0.4   c-0.9-0.1-1.9-0.1-2.8-0.1c-0.7-1.1-1.4-2.1-1.9-3.2c-1-2.2-2.7-4.3-1.8-7c0.1-0.2-0.1-0.5-0.2-0.7c-0.3-1.1-0.8-1.2-2.1-0.5   c0.1,0.6,0.2,1.2,0.3,1.8c0.1,0.7,0.3,1.4,0.5,2.1c0.2,0.6,0.6,1.1,0.7,1.6c0.2,0.7,0.3,1.4,0.5,2c0.2,0.6,0.4,1.1,0.7,1.6   c0.2,0.6,1.2,0.9,0.6,1.9c-0.6-0.7-1.1-1.5-1.7-1.9c-1.8-1.2-2.2-3-2.5-5c-0.1-0.7,0-1.4-0.2-2.1c-0.1-0.4-0.4-0.7-0.6-1.1   c-1.2,0.5-1.7,1.2-2.1,2.1c-0.9-0.2-1.4,0.3-1.5,1.1c-0.1,1.5,0.1,1.8,1.9,3c-0.2-1.4-0.4-2.8-0.6-4.2c1.8,1.7,1.5,4.1,2.2,6.1   c-0.4,0.6-0.7,0.9-1,1.3c-1.3-0.8-1.8-2.5-3.4-2.9c0-0.2,0.1-0.5,0-0.7c0-0.1-0.2-0.2-0.4-0.3c0,0.1,0,0.3,0,0.3   c0.1,0.2,0.3,0.4,0.4,0.5c0.2,0.7,0.4,1.3,0.7,1.9c0.3,0.7,1.2,1.1,0.9,2.3c-1.8-0.8-2.5-2.7-4.2-3.7c-0.1,1,0,1.9-0.2,2.6   c-0.3,0.7-0.9,1.3-1.5,2c0.5,1,1,1.8,1.5,2.7c-0.6,0.2-1,0.3-1.5,0.4c0,0.9,0,1.7,0,2.5c0,0,0.1-0.1,0.1-0.1   c-0.4,0.2-0.8,0.4-1.3,0.6c0.4,1.1,0.8,2.1,1.1,3.1c0.3,1.1,0.5,2.2,0.7,3.4c0.5-0.3,0.8-0.6,1.3-0.9c0.2,1.1,0.4,2.1,0.5,3.1   c0.1,0.9-0.2,1.2-1.8,1.7c0.2-1.5-0.3-2.6-1.7-3.2c-0.4,1-0.5,1.7,0.5,2.1c0.5,0.2,0.9,0.7,1.4,1c-0.1,1.4-1.5,2.5-0.9,4   c-0.9,3.9,0.1,7.9,0.2,11.8c0,0.8,0.3,1.7,0.6,2.4c1.6,3.5,2.4,7.2,3.5,10.9c0.9,3,2.4,5.7,3.8,8.5c0.5,1,1.4,2,2.3,2.7   c2.4,1.6,4.8,3.1,7.4,4.4c4.5,2.1,8.9,0.6,13.1-1.2c4.3-1.9,6.9-5.6,8.5-9.8c1.3-3.6,2.1-7.3,3.2-11c0.7-2.4,1.1-5,2.1-7.2   c1.2-2.8,1.2-5.7,0.5-8.4c-0.8-3.1-0.8-6.1-0.9-9.2c-0.1-0.2-0.3-0.4-0.4-0.5c-1.6-1.5-1.6-1.7-0.9-3.3c0.4-0.9,0.7-1.7,1.1-2.6   c0.3-0.2,0.7-0.3,0.8-0.5c0-0.5-0.1-1.1-0.2-1.6c-0.1,0-0.2,0-0.3,0c-0.1,0.7-0.2,1.4-0.2,2.2c-0.4,0-0.9,0-1.3,0   c-0.4-1.1-0.2-2.1,0.2-3.2c0.4-1,0.8-2,1.1-3c0.5-1.4,0.3-2.7-0.7-4.4c-0.4,2.3-0.7,4.1-1,6c-0.5-1-1.2-1.9-1.5-2.8   c-0.3-0.9-0.4-2-0.5-2.9c-1.2-0.1-1,1.8-2.4,1.3c0.1-0.6,0.2-1.2,0.4-1.7c0.5-0.6,1-1.2,1.6-1.8c0.1-0.1,0.4-0.1,0.7-0.1   c0.4,0.5,0.8,1,1.1,1.5c0.9-0.5,1-1.2,0.7-1.9c-1-1.8-2.3-3.3-4.5-4.1c-0.1,0.6-0.1,1-0.2,1.4c-0.1,0.1-0.1,0.2-0.2,0.2   c0-0.1,0.1-0.2,0.1-0.3c0.2,0.3,0.6,0.6,0.6,0.8c-0.6,1.5,0.2,2.9,0.3,4.4c-2,0.5-2.5,0.2-3-1.5C468.8,17.7,468.7,17.1,468.7,16.5   c0-0.1,0.1-0.1,0.2-0.1c0.1,0,0.1-0.1,0.1-0.2C468.9,16.3,468.8,16.4,468.7,16.5z M481.7,52.5c-1,0.5-0.6,1.4-0.7,2.2   c-1.3,0.3-2.4,0.8-2.9,2.2c-0.3,0.9-0.1,1.6,1.2,1.8c0.5-1.3,2-2.2,1.6-4C481.7,54.1,481.7,53.3,481.7,52.5   c0.2-0.3,0.5-0.5,0.8-0.8c1.3-1.7,0.8-3.5,0.6-5.4c-1.4,0.9-1.4,0.9-2.2,2.5c0.6,1,1.1,2,1.7,3C482.2,52.1,482,52.3,481.7,52.5z    M432.7,59.7l-0.2-0.2L432.7,59.7c-0.1,1.3,0.1,2.7,1.2,4C434.3,62,433.7,60.8,432.7,59.7z M356.3,553.7c1.1,0.1,2.1,0,2.8-1   c-0.3-0.5-0.7-1-1-1.5C357.2,551.9,356.5,552.7,356.3,553.7l-0.1,0.2L356.3,553.7z M370,208.1c-0.1-0.1-0.1-0.2-0.2-0.2   C369.9,208,369.9,208,370,208.1c0,0.2,0,0.4,0,0.6c0,2.3-0.2,2.5-2.4,3.1c-0.4,0.1-0.8,0.3-1.2,0.5c0.9,1.5,1.9,1.9,3.4,1.4   c0.4-1.8,0.9-3.5,1.2-5.2C371.1,208.2,370.5,207.9,370,208.1z M466.5,5.7c0.2-1.5-0.9-2.2-2-2.6c-1.3-0.5-2.8-0.7-4.2-0.9   c-1.3-0.1-2.6,0-3.8,0.7c-1.2,0.7-2.5,1.3-3.2,2.7c0.6,0.2,0.9,0.3,1.2,0.4c0.7,0.1,1.4,0.2,2.2,0.3c0.4-0.5,0.8-1,1.2-1.4   c0.5-0.5,1-1,1.7-1.3c0.4-0.2,0.9-0.8,1.4-0.1c-0.4,1.1-2.2,1.1-2,2.6c0.9-0.3,1.8-0.6,2.6-1c0,0,0-0.1,0-0.1   c-0.3,0.4-0.6,0.9-1,1.5c1.5,0.6,2.7,0.6,3.8-0.2c0.3,0.3,0.6,0.6,1,0.8c0.4,0.2,0.9,0.3,1.3,0.5c0.4,0.1,0.7,0.7,1.2,0.1   C468,6.7,467.4,6.1,466.5,5.7z M380,186.5c-0.8-0.3-1.5-0.2-1.9,0.5c-0.4,0.6-0.7,1.2-1,1.9c-0.8,2.2-1.3,4.3,0.2,6.5   c1,1.3,0.8,2.9,0.5,4.5c-0.2,1.1-1.2,1.8-1.3,2.7c-0.3,2.2-1.4,3.8-3,5.1c-0.2,0.2-0.3,0.6-0.5,1c1.1,0.4,2.1,0.3,3.2,0   c0.8-0.2,1.6-0.5,2.4-0.5c3-0.1,6-0.2,9-0.2c1,0,2-0.1,3.3,0.7c-3.4,0.7-6.3,1.1-9.3,0.9c-3.1-0.2-6.1,1.2-9.3,0.3   c-1.5,6.4-3,12.5-2.3,19c2.1,1.5,4.4,2.4,7,2.5c1.8,0.1,3.6,0,5.4,0c1.3,0,2.7-0.1,3.9,0.2c1.5,0.4,2.5-0.1,3.4-0.8   c0.6-3.4,1.3-6.6,1.8-9.7c0.6-3.3,1.1-6.6,1.6-9.9c-1.9-2.2-1.8-4.7-1.6-7.2c0.1-1.1,0.4-2,1.2-2.9c1.4-1.5,1.7-3.1,1.7-5.5   c-1.5-0.5-3.2,0.7-5-0.8c1.2-0.1,2-0.1,2.8-0.2c0.9-0.1,1.9,0.5,2.9-0.4c0.2-2.7-0.1-5.3-2.2-7.5c-1.2-1.2-2.1-2.6-3-3.7   c0.1-2.4,0.3-4.5,0.4-6.6c-2.2-0.8-4.1-0.7-6.1-0.5c-1.5,1.8-0.9,4.4-2.8,5.9C382.1,183.5,381.7,185.2,380,186.5L380,186.5z    M345.5,571.1c-1.6,1.9-2.8,4.2-5.2,5.3c-0.8,0.3-1.2,1.1-1.3,2c-0.1,1-0.3,1.9-0.4,2.9c-0.2,2.5-0.5,5-0.6,7.5   c-0.1,0.9,0.1,1.9,0.3,2.8c0.2,1,0.4,2.1,0.6,3.2c2.6,1,5.3,1.5,8.1,1.5c4.9,0,9.8,0.1,14.7-0.6c3.2-0.5,6.4-0.6,9.6-0.9   c1.4-1,1.9-2.5,2.3-4c0.4-1.6,0.7-3.3,0.9-5c0.1-1.7,0.8-3.1,1.5-4.6c1.6,0.1,0.8,1.9,1.9,2.3c4.2-0.8,10.8-3.3,13.2-5.1   c-0.1-0.3-0.2-0.7-0.3-1c-1.1-2.2-2.5-4.4-2.3-7.1c0-0.4-0.2-0.9-0.4-1.4c-0.9-2.1-1.4-4.3-1.6-6.6c-0.2-2.4-0.7-4.7-1.1-7.1   c0-0.2,0-0.5,0-0.7c-0.3-2.8-0.6-5.7-0.8-8.4c-1.2-0.6-2.1-1.3-3.3-0.4c0.5,1.1,0.4,2.3,1.6,3.1c0.6,0.4,0.8,1.4,1.1,2.1   c0.1,0.2-0.2,0.8-0.4,0.9c-0.4,0.1-1,0.2-1.3-0.1c-0.5-0.5-1-1.1-1.2-1.7c-0.5-1.2-0.8-2.5-1.1-3.8c-0.2-0.7-0.3-1.5-0.7-1.9   c-0.8-0.8-0.9-1.6-0.9-2.6c0-0.7-0.2-1.4-0.3-2c-3-1.1-5.4-1.3-8.2-0.6c-1.6,0.4-3.2,0.7-4.9,0.4c-0.2,0-0.4,0.2-0.8,0.3   c-1.6,2.6-2.5,5.5-3.1,8.8c1,0,1.8,0,2.6,0.1c2.1,0.2,4.3,0.3,6.4,0.8c2.6,0.6,5.1,1.5,7.1,3.3c0.5,0.5,0.6,1-0.2,1.5   c-1.7-0.5-3.4-1.1-5.1-1.5c-2.7-0.7-5.4-1.3-8.1-1.2c-1,0-2,0.1-2.4,1.3c0.7,0.1,1.4,0.1,2.1,0.2c2.5,0.4,5,0.8,7.4,1.4   c1.2,0.3,2.3,1.2,3.4,1.8c0.2,0.1,0.3,0.7,0.2,0.9c-0.1,0.3-0.5,0.6-0.8,0.5c-2.3-0.3-4.5-0.7-6.8-0.9c-2.5-0.2-5-0.4-7.5-0.2   c-1.6,0.1-3,0.2-4.5-0.8c-0.7,1.2-1.3,2.3-1.8,3.3c-1.4,2.9-2.7,5.9-4,8.8c-0.6,1.3-1.1,2.6-2.4,3.5   C345.9,571.5,345.6,571.3,345.5,571.1l0.2-0.1L345.5,571.1z M538.5,251.3c0.6-0.6,1.2-1.1,1.7-1.8c2.6-3.4,5.3-6.8,7.9-10.3   c1-1.3,2-2.7,2.7-4.2c1.9-3.8,3.6-7.6,5.3-11.4c1.9-4.4,4-8.7,6.5-12.9c0.5-0.8,0.8-1.7,1.1-2.2c-1.1-3.6-1.9-6.8-3.1-9.9   c-2-5.3-4-10.6-6.4-15.6c-2.8-5.7-6.1-11.2-9.8-16.3c-4.6-6.5-9.2-12.9-13.8-19.3c-2.2-3-4-6.2-5.2-9.8c-2.2-6.4-5.4-12.3-8.8-18.1   c-2.5-4.2-6.2-7-10.7-8.7c-1.6-0.6-3.2-1-4.8-1.5c-1-0.3-2-0.6-3.2-0.2c-1.5,0.4-2.8,0-4.1-0.7c-1.6-1-3.3-2-5-2.9   c-0.5-0.2-1-0.2-1.6-0.4c-0.2,0.6-0.3,0.9-0.4,1.2c-1.3,8.3-1,16.5,0.2,24.7c0.6,4.2,1.2,8.3,1.9,12.4c0.6,3.5,2.1,6.6,3.6,9.6   c1.8-1.8,3.5-3.6,5.2-5.2c0.7-0.6,1.6-1.1,2.4-1.5c0.4-0.2,0.9-0.3,1.1,0.3c-3.8,3.1-6.5,6.6-8.2,10.8c0.6,0.9,1.2,1.8,2,3   c1.9-2.2,3.5-4.2,5.3-6.2c0.4-0.5,1.1-0.9,1.6-1.3c0.8,0.5,1.5,1.2,2.3,1.4c1,0.3,1.6,0.9,2.2,1.7c1.2,1.8,2.6,3.5,3.8,5.2   c1.3,1.7,2.5,3.5,3.7,5.2c0.9,1.3,2,2.5,2.7,3.8c1.8,3.4,4.4,6.3,6.8,9.2c3.3,4,6.7,7.9,9.8,11.9c2,2.6,4.1,5,6.7,7   c1.1,0.9,2.3,1.7,2.8,3.1c-2.5,7-5.1,13.8-7.4,20.8c-2,5.9-4.3,11.7-6.9,17.3c-1.5,3.4-2.9,6.8-4.5,10.2c-0.9,2-2.1,4-3.3,6.3   c-1.7,0.1-3.6,0.2-5.5,0.2c-2.9,0-5.8-0.2-8.6,0.1c-2,0.2-3.8,0.1-5.5-1c-1.2-0.7-2.5-1-3.8-0.6c-1.6,0.6-3.3,0.4-5,0.4   c-2.2,0-4.3,0.1-6.5,0.2c-1,0-1.9,0.3-2.6,1.1c-2.2,2.8-4.4,5.7-6.6,8.5c-0.6,0.8-1,1.6-1.4,2.5c-0.4,0.9-1.2,1.7-1.2,2.9   c1.9,0.5,3.4,0.2,4.6-1.3c2.3-2.9,4.7-5.7,7.1-8.7c1.8,0.2,3.6,0.3,5.4,0.7c2.3,0.4,4.3,0.2,6-1.4c0.1-0.1,0.5,0,1.1,0.1   c-0.7,1.3-1.8,1.9-2.7,2.6c-1.7,1.1-3.4,2.2-5.1,3.3c-3.7,2.5-3.7,2.5-4.7,6.7c-0.2,0.9-0.4,1.9-0.5,2.8c-0.5,2.8-0.8,5.7-1.9,8.4   c-0.1,0.3,0,0.7,0.1,1c0.3,0,0.6,0.2,0.8,0.1c2-1.2,3.8-2.5,4.4-4.9c0.5-1.8,1.3-3.6,1.9-5.4c0.5-1.5,0.8-3,1.2-4.5l-0.1,0.1   c0.1-0.2,0.4-0.4,0.4-0.6c0.3-2.4,2-3.7,4-4.7c1.3-0.6,2.6-1.3,3.9-1.9c0.3-0.1,0.6-0.1,1.5-0.1c-0.9,0.7-1.3,1.3-1.8,1.6   c-1.2,0.8-2.5,1.4-3.8,2.1c-1.3,0.7-2.1,1.8-2.5,3.3c-0.9,3.5-2.1,6.9-3.2,10.3c-0.5,1.6-1.1,3.2-1.6,4.8c-0.1,0.2,0.1,0.4,0.3,0.8   c0.9-0.3,1.7-0.6,2.4-0.8c1.7-3.8,3.3-7.4,4.9-11.1c0.9-2.1,2.5-3.4,4.4-4.6c1.7,0.3,2.5-1.2,3.6-1.9c0.1-0.1,0.4,0.1,0.7,0.3   c-0.5,0.8-1,1.6-1.4,2.4c-1.2,2.3-2.9,4.6-3.4,7.1c-0.6,2.7-0.3,5.7-0.3,8.6c0,0.4,0.2,0.8,0.5,1.8c0.5-1,1.1-1.6,1.1-2.2   c0.2-4.6,2.8-8,5.5-11.4c1.8-2.3,4.2-2.9,6.9-2.8c4.2,0.2,8.4-0.2,12.4-1.7c0.7-0.2,1.5-0.4,1.9-0.9c2.2-2.4,4.2-4.9,6.3-7.4   c0.2-0.3,0.3-0.7,0.3-1c0-0.2-0.1-0.4-0.1-0.6c-0.5-0.2-1-0.4-1.5-0.7c0.9-1.1,1.8-1.9,2.4-2.9c0.8-1.4,1.4-3.1,3.2-3.7   c0.2-0.1,0.3-0.6,0.4-1C538.6,251.2,538.5,251.3,538.5,251.3z M406,136.8c0.1-0.6,0.1-1.2,0.3-1.8c2.6-6.9,5.4-13.6,9.3-19.8   c1.5-2.3,2.9-4.7,4.3-7c0.3-0.5,0.8-1,0.1-1.7c-1.6-0.2-3.4-0.4-5.2-0.8c-0.8-0.1-1.6-0.2-2-1.2c3-0.6,5.9,0.9,8.9,0.4   c1.2-1.9,2.4-3.6,3.1-6c-0.8,0-1.4,0-2,0.1c-4.9,0.5-9.8,1.3-14.7,1c-2.5-0.2-4.7,0.3-7,1.1c-5,1.7-8.8,4.5-10.8,9.7   c-1.5,3.9-2.8,7.9-3.2,12.1c-0.4,4.7-0.5,9.3-0.2,14c0.1,1.2-0.1,2.4-0.4,3.5c-1.2,4.8-2.6,9.5-3.9,14.2c-0.2,0.9-0.6,1.9-0.5,2.8   c0.2,1.6-0.1,3.1-0.5,4.6c-0.6,3.1-0.5,8.4,0.3,11.6c3,1.1,6.6-0.2,9.7,1.7c-0.1,1.2-0.1,2.3,0.1,3.4c0.2,1.2-0.8,2.4-0.6,4.1   c0.6,0.6,1.3,1.5,2.1,2.1c2.3,1.8,3.2,4.1,3.2,6.9c0,1.6-0.1,3.1-0.2,4.7c-0.1,0.8-0.3,1.7-0.3,2.5c0,0.8,0.5,1.3,1.4,1.4   c1.9-2.6,2.1-6,3.8-8.6c-0.4-4.5-0.8-8.9-1.1-13.3c-0.1-1.1-0.1-2.2,0.8-3c0.6,4.5,1.1,9,1.7,13.4c3.2,1.6,6.6,2.1,9.9,2.4   c7.9,0.8,15.7,2,23.6,2.5c8.8,0.6,17.7,1.7,26.5,2.6c1.9,0.2,3.8,0.1,5.8,0.1c1.3,0,2.6-0.2,4-0.1c2.7,0.2,5.2-0.1,7.7-0.8   c0.1-0.2,0.2-0.2,0.3-0.3c1.2-2.2,2.4-4.4,3.6-6.6c0.2-0.4,0.6-0.8,0-1.2c-6.5,2.1-8.7,2.3-11.1,1c0.1-0.1,0.1-0.2,0.2-0.3   c0.9-0.2,1.9-0.4,2.8-0.4c2.4-0.1,4.8-0.7,7-1.6c1.1-0.4,2.2-1.1,3-1.9c3.6-3.8,6.4-8.1,7.6-13.3c0.9-3.7,0.5-7.4-0.6-11   c-0.4-1.4-1.9-2-1.9-3.7c0-1.5-0.8-3-1.2-4.5c-0.7-2.4-1.4-4.8-2-7.3c-0.5-1.8-1-3.7-1.5-5.5c-1.5-5.7-2.4-11.5-2.3-17.4   c0.1-2.5,0.2-5,0.5-7.5c0.3-2.7,0.8-5.5,1.2-8.2c0.1-0.7,0.2-1.4,0.3-2c-2.4-1.9-2.4-1.9-4.5-2.5c-0.1,0.5-0.2,0.9-0.3,1.4   c-0.2,4.7-0.9,9.3-1.7,13.9c-1,5.6-2.3,11-4.4,16.3c-1.6,3.9-3.5,7.7-6.4,10.7c-2.8,2.9-6.7,4.6-10.5,6.1c-5.5,2.2-11.2,2.5-16.9,1   c-6.7-1.7-11.6-5.7-14.3-12.1c-0.6-1.5-1.2-3.1-1.6-4.8c-1.4-5.2-0.9-10.5-0.3-15.7c0.8-6,2.6-11.7,5.3-17.1c0.5-1,0.9-2.1,1.5-3.4   c-2.1-0.3-3.8,0.3-5,0.8c-2.2,4.3-4,8.4-6.2,12.2c-4.1,6.9-7.9,14-11.6,21.1c-0.7,1.4-1.5,2.8-2.2,4.1   C406.6,136.4,406.2,136.6,406,136.8z M486.9,185.8c-1.1,2.6-1.9,4.9-2.9,7c-1.2,2.7-2.6,5.4-3.8,8.2c-0.5,1.1-0.9,2.3-1,3.4   c-0.1,2.4,0,4.8,0.8,7.1c0.6,1.8,1.3,3.6,1.9,5.4c0.6,1.8,1.5,3.2,2.7,4.6c1.5,1.9,3.1,3.7,4.3,5.8c1.8,3.2,4,6,6,9   c3.4,5.1,6.1,10.6,7.3,16.7c0.1,0.6,0.4,1.1,0.6,1.6c0.6,0.2,1.1,0.4,1.5,0.4c5.1,0,10.3,0,15.5,0c0.8-1.6,1.7-3,2.3-4.6   c1.7-4.1,3.4-8.2,5.1-12.3c1-2.3,1.9-4.7,3.2-6.8c1.1-1.9,1.8-3.9,2.2-6c0.8-4.3,2.1-8.4,3.5-12.4c1.3-3.6,2.6-7.2,4.7-10.6   c-2-2.3-4-4.3-6.2-6.1c-2.5-2.1-4.7-4.5-6.7-7c-2.4-2.8-4.8-5.7-7.2-8.6c-3.4-4.1-6.6-8.3-9-13c-2-4-5-7.3-7.4-11.1   c-0.5-0.8-1.1-1.5-2.1-1.4c-2.2,2.5-4.3,5-6.4,7.4C498.2,172.4,494.3,179.8,486.9,185.8z M433,97.8c-4.4,9.5-7.5,19.1-6.9,29.7   c0.3,5.8,2.1,11,5.2,15.8c1.5,2.4,3.7,4.1,6.4,4.9c1.7,0.5,3.5,0.9,5.2,1.3c0.6,0.1,1.3,0,2.1-0.1c0.2-0.8,0.3-1.3,0.5-1.9   c0.6-1.7,0.3-3.2-0.5-4.8c-0.3-0.6-1-1.1-0.3-2.1c0.7,0.8,1.4,1.6,2.1,2.5c0.7-0.6,1.5-1.3,2.8-2.6c-0.4,1.5-0.8,2-1.1,2.7   c-0.3,0.6-0.6,1.3-0.9,2c-0.3,0.7-0.5,1.4-0.7,2c-0.2,0.7-0.2,1.4-0.3,2.2c1.4,0.4,2.8,0.4,4,0.1c4.9-1,9.8-2.4,14.4-4.4   c1.1-0.5,1.9-1.2,2.7-2.3c3.6-4.9,5.7-10.5,7.2-16.3c2-7.7,3.5-15.4,4.8-23.2c0.2-1.1,0.2-2.1,0.3-3.2c-1.6-1.7-2.9-3.5-4.6-4.7   c-1.2-0.8-1.8-1.8-2.3-3c-0.7-2-1.1-4.1-2.6-5.9c-0.3-0.4-0.4-1.1-0.4-1.7c-0.1-1.1-0.1-2.1-0.2-3.2c0-0.6,0-1.2-0.9-1.5   c-1.2,1.6-2.9,2.7-4.8,3.6c-1.9,0.8-3.7,1.7-5.5,2.6c-0.1,0-0.2,0.1-0.4,0.1c-2.8,0.4-5.4,0.3-8-1.2c-2.3-1.4-4.9-2.4-7.3-3.5   c-0.4,2.5-0.7,4.9-1,7.2c-0.3,2.4,0.5,4.8-0.6,7.5c-0.3-1.7-0.6-3-1-4.6C437.9,93.8,436,96.4,433,97.8z M372.6,206.4   c1.3-1.7,1.3-3.3,0.1-4.8c-0.9-1.3-1.8-2.6-2.6-3.9c-1.3-1.9-2.6-3.7-4-5.7c-1,0.7-1.8,1.3-2.9,2c1.5,4,2.2,8.2,6.1,10.8   c0.4,0.3,0.6,0.7,0.9,1.1C370.8,206.7,371.6,206.6,372.6,206.4z M449.4,8.9c-0.9-0.3-1.5,0-1.6,0.6c-0.2,1.5-0.4,3.1-0.2,4.6   c0.3,2.2,1.4,4.1,3.4,5.6C451.4,15.8,450.2,12.3,449.4,8.9z M393.3,205c0.3,0,0.7-0.1,1.2-0.2c0.7-0.1,1.4-0.1,2.1-0.3   c0.8-0.2,1.2-1.3,0.7-2c-0.4-0.5-1-1-1.6-1.4c-0.3-0.2-0.7-0.2-1.1-0.3c-0.7,0.7-1.5,1.4-2.5,2.3c1,1.4-0.2,3.2,1.3,4.6   C394.7,206.7,392.7,206.1,393.3,205z M430.4,54.6c0.2-1.3,0.5-2.2,0.4-3.1c0-0.8-0.5-1.6-1.6-1.6C429,51.5,428.8,53,430.4,54.6z    M450.8,11.3c1.3-0.3,1.3-0.3,1.8-2.6c-0.5-0.6-1-0.3-1.5,0.2C451,9.7,450.9,10.5,450.8,11.3z M478.1,34.6c0-0.2-0.1-0.4-0.1-0.6   c-0.2,0.1-0.4,0.2-0.5,0.3c-0.1,0.2,0,0.4,0.1,0.6C477.8,34.9,477.9,34.7,478.1,34.6z M453.4,12.6c-0.1,0-0.2,0-0.3,0   c0,0.4,0,0.8,0,1.2c0.1,0,0.2,0,0.3,0C453.4,13.4,453.4,13,453.4,12.6z"/>
	<path d="M457.2,548.8c1.8,0,3.6-0.1,5.4,0c1.4,0.1,2.8,0.4,4,1.5c-0.4,0.4-0.7,0.7-0.9,0.8c-3.1,0.7-6.3,1.3-9.4,1.9   c-0.8,0.1-1.7,0-2.5-0.2c-0.5-0.1-0.9-0.6-1.4-1c0.5-1.5,1.6-1.9,2.7-2.3c0.8-0.3,1.6-0.5,2.3-0.8L457.2,548.8z"/>
	<path d="M457.2,555.3c0.4-0.5,0.8-1.1,1.3-1.4c2.2-1.2,4.6-1,7-0.7c0.9,0.1,1.9,0.4,2.3,1.4c-0.6,1.1-1.7,1-2.5,1.2   c-1.9,0.3-3.8,0.5-5.7,0.7C458.7,556.5,457.9,556.3,457.2,555.3z"/>
	<path d="M474.7,227.6c1.9,4.6,1.4,9.7-1.5,15.4c-0.1-0.4-0.3-0.7-0.3-1c0.4-4.3,1.1-8.5,0.9-12.9   C473.8,228.7,474.3,228.2,474.7,227.6z"/>
	<path d="M420.3,245.5c-1.2,0.1-1.3-0.7-1.5-1.3c-1.7-4.8-2.2-12.8-1-16.5c0.4,1.2,0.3,2.1,0.3,3c0.1,1.1,0.1,2.1,0.2,3.2   c0.1,0.9,0.3,1.9,0.4,2.8c0.1,0.9,0.2,1.9,0.4,2.8c0.2,1.1,0.4,2.1,0.6,3.2C419.9,243.7,420.1,244.6,420.3,245.5z"/>
	<path d="M403.9,272.2c7.9,0.8,15.8,1.5,23.8,2.3c0,0.1,0,0.3,0,0.4c-1,0-2,0.1-3.1,0c-6.6-0.6-13.3-1.2-19.9-1.8   c-0.3,0-0.6-0.3-0.9-0.5C403.8,272.5,403.9,272.4,403.9,272.2z"/>
	<path d="M470.4,558.5c-0.4,0.7-0.5,0.9-0.7,1c-2.1,1.1-4.4,1.1-6.6,0.7c-0.3-0.1-0.8-0.6-0.8-1c0-0.4,0.3-0.8,0.6-1.2   c0.2-0.2,0.6-0.4,1-0.4C466,557.4,468.1,557.7,470.4,558.5z"/>
	<path d="M469,389.9c0.8,0.8,0.5,1.4,0.2,1.9c-1.3,2.3-2.7,4.5-4.7,6c-0.8-0.3-0.7-0.7-0.5-1.2C465.3,394.1,467.3,392.2,469,389.9z"/>
	<path d="M450.5,430.1c1.7,1.9,2.4,4.8,1.6,7c-1.2-0.6-1.5-1.8-1.8-2.9c-0.4-1.2-1-2.4-0.4-3.7C450,430.3,450.3,430.2,450.5,430.1z"/>
	<path d="M397.6,415.8c-1.2-2.8-1.5-5.1-1.2-7.9c0.1-0.5,0.4-1,0.6-1.4c0.9,0,1.1,0.5,1.2,0.9C398.5,410,398.5,412.6,397.6,415.8z"/>
	<path d="M444.7,228.7c-0.8-0.5-1.5-1-2.3-1.5c0.3-0.2,0.6-0.6,0.8-0.6c0.9,0.2,1.9,0.5,2.7,0.9c0.5,0.2,0.7,0.9,1,1.3   c-2.5,2.7-3.4,3.1-5.4,2.3C442.4,230.1,444.3,230.6,444.7,228.7z"/>
	<path d="M395.1,398.2c-2.3-3.1-3.3-6.7-3-9.8c0.2,0.1,0.5,0.1,0.6,0.2C393.5,391.8,394.3,395,395.1,398.2z"/>
	<path d="M395.4,424c-0.3-1-0.5-1.4-0.5-1.8c0.3-2.2,1-3.9,2.2-5.4C397.6,419.2,397.4,420.6,395.4,424z"/>
	<path d="M469.6,418c-0.2-2.7,0-5.2,0.8-8.1C471.5,413.3,471.1,416.2,469.6,418z"/>
	<path d="M457.8,404.6c0.5,3.1-1.1,5-1.7,7.2C455.2,409.3,456.3,407.2,457.8,404.6z"/>
	<path d="M458.7,418.8c-0.9,0.6-1.4-0.1-1.9-0.6c-1-1.1-1-1.3-0.6-3.2c0.1,0,0.3-0.1,0.3,0C457.3,416.3,458,417.6,458.7,418.8z"/>
	<path d="M455.7,202.3c0.6,0.3,1.3,0.5,1.9,0.9c1,0.7,2,1.6,3.4,2.8C458.1,205,457.2,204.3,455.7,202.3L455.7,202.3z"/>
	<path d="M472,279.9c-2.2,0-4.4,0-6.7,0c0-0.1,0-0.2,0-0.2c2.3,0,4.5,0,6.8,0C472,279.8,472,279.9,472,279.9z"/>
	<path d="M396.2,399.7c0.9,1,1.9,2.1,2.8,3.1c-0.1,0.9-0.5,1-1.2,0.7c-1.2-0.7-1.9-1.7-2.1-3.1C395.6,400.2,395.9,400,396.2,399.7z"/>
	<path d="M455.5,445.5c-0.9-1.4-0.9-1.4-0.7-3.1c0.6,0,0.9,0.3,0.9,0.8C455.6,443.9,455.5,444.6,455.5,445.5z"/>
	<path d="M412,282.5c1.6,0,3.2,0,4.9,0c0,0.1,0,0.2,0,0.2c-1.6,0-3.2,0-4.8,0C412,282.7,412,282.6,412,282.5z"/>
	<path d="M451.4,306c-0.4,1.7-2,2-3.2,2.7C448.9,307.3,449.9,306.4,451.4,306L451.4,306z"/>
	<path d="M458.3,300.9c-0.6,0.5-1.2,1-1.8,1.5c-0.4-0.9,0.2-1,0.5-1.2c0.3-0.3,0.7-0.5,1-0.8C458,300.6,458.2,300.8,458.3,300.9z"/>
	<path d="M471.4,245.9c0.2,1.3-0.3,2.1-1.1,3.2C470,247.6,470.2,246.7,471.4,245.9z"/>
	<path d="M404.1,405.3c-0.2,0.4-0.3,0.6-0.5,0.7c-0.5,0.2-1,0.1-1.1-0.5c0-0.2,0.2-0.6,0.3-0.6C403.3,405.1,403.6,405.2,404.1,405.3   z"/>
	<path d="M418.4,277.7c-1.4,0-2,0-2.5,0c0-0.1,0-0.1,0-0.2c0.2,0,0.5-0.1,0.7-0.1C416.8,277.4,417.2,277.5,418.4,277.7z"/>
	<path d="M445.9,519.8c-0.6-1.4-0.6-2.3,0.2-3.2C446.9,517.6,446.6,518.6,445.9,519.8z"/>
	<path d="M447.2,512.7c0-0.7,0-1.3,0-2.1C447.9,511.5,447.9,511.5,447.2,512.7z"/>
	<path d="M384.9,420.2c0,0.4,0,0.8,0,1.2c0,0.1-0.3,0.1-0.5,0.2c-0.1,0-0.2-0.2-0.2-0.3c0.1-0.4,0.2-0.8,0.3-1.2   C384.6,420.2,384.7,420.2,384.9,420.2z"/>
	<path d="M465.6,257.2c0,0.1,0,0.3-0.1,0.3c-0.2,0.2-0.4,0.5-0.7,0.6c-0.3,0.1-0.6-0.7-0.3-1.1c0.2-0.2,0.5-0.3,0.8-0.4   C465.3,256.7,465.5,257,465.6,257.2z"/>
	<path d="M469.1,425.4c0.1,0.1,0.2,0.2,0.1,0.3c-0.1,0.4-0.3,0.8-0.4,1.1c-0.1,0-0.3-0.1-0.3-0.1c0.1-0.4,0.1-0.8,0.2-1.2   C468.8,425.5,469,425.4,469.1,425.4z"/>
	<path d="M455.8,202.2c-1.1,0.1-1.6-0.7-2.2-1.3l-0.1,0.1C454.6,200.8,455.2,201.4,455.8,202.2L455.8,202.2z"/>
	<path d="M451.4,306.1c-0.2-0.8,0-1.4,0.7-1.8C452.6,305.4,452.6,305.4,451.4,306.1L451.4,306.1z"/>
	<path d="M445.8,286.6c0-0.5,0-1.1,0-1.6c0.1,0,0.2,0,0.3,0c0.1,0.6,0.1,1.1,0.2,1.7C446.1,286.6,445.9,286.6,445.8,286.6z"/>
	<path d="M464.9,209.6c0.3,0.2,0.6,0.3,0.7,0.6c0.1,0.3,0,0.6,0,0.9c-0.3-0.1-0.6-0.2-0.7-0.3c-0.2-0.2-0.3-0.6-0.4-0.9   C464.7,209.7,464.8,209.7,464.9,209.6z"/>
	<path d="M413.9,276.9c-1.1,0.1-1.3,0.1-1.5,0.1c-0.2,0-0.4-0.1-0.6-0.2c0.2,0,0.4-0.1,0.6-0.1C412.6,276.7,412.8,276.8,413.9,276.9   z"/>
	<path d="M418.2,214.3c0,0.7-0.1,1.4-0.1,2.1c-0.1,0-0.3,0-0.4,0c0-0.7-0.1-1.4-0.1-2.1C417.8,214.3,418,214.3,418.2,214.3z"/>
	<path d="M421.1,249.9c0.3,0.6,0.5,1.2,0.9,2.1C420.9,251.3,421.4,250.5,421.1,249.9L421.1,249.9z"/>
	<path d="M393.3,456.4c-0.6-0.9-0.1-1.3,0.7-1.7C394.4,455.6,393.9,456,393.3,456.4z"/>
	<path d="M392.8,382.1c-0.7,0.3-1,0.4-1.3,0.5c-0.1,0-0.4-0.2-0.4-0.3c0-0.2,0.2-0.4,0.3-0.5C391.6,381.7,391.9,381.9,392.8,382.1z"/>
	<path d="M446.7,275c0.1,0.7,0.2,1,0.2,1.4c0,0.1-0.2,0.2-0.4,0.3c0-0.1-0.1-0.2-0.1-0.3C446.5,276,446.6,275.7,446.7,275z"/>
	<path d="M448.8,506.6c0-0.4,0-0.9,0-1.3c0.1,0,0.2,0,0.2,0c0,0.4,0,0.9,0,1.3C448.9,506.6,448.9,506.6,448.8,506.6z"/>
	<path d="M454.5,450.3c0.1-0.1,0.2-0.3,0.3-0.4c0.1,0.2,0.2,0.3,0.3,0.5c0,0-0.2,0.2-0.2,0.2C454.8,450.5,454.7,450.3,454.5,450.3z"/>
	<path d="M431.6,296.3c0,0.1,0.1,0.2,0.1,0.3c0,0.1-0.1,0.1-0.1,0.2C431.6,296.7,431.6,296.5,431.6,296.3z"/>
	<path d="M462.2,400.1c-0.1,0.2-0.2,0.4-0.3,0.6c-0.1-0.1-0.4-0.2-0.4-0.3c0-0.2,0.1-0.4,0.2-0.5C461.9,399.9,462.1,400,462.2,400.1   z"/>
	<path d="M391.5,378.6c0,0.1-0.1,0.2-0.1,0.3c-0.1-0.1-0.2-0.2-0.3-0.3c0,0,0.1-0.1,0.2-0.2C391.4,378.5,391.5,378.5,391.5,378.6z"/>
	<path d="M371.5,187.1c-0.1-0.2-0.3-0.4-0.4-0.5c0.1,0.2,0.2,0.4,0.3,0.6L371.5,187.1z"/>
	<path d="M371.4,187.2c0.8,0.2,0.7,0.8,0.8,1.4l0.1-0.1c-0.9-0.1-0.7-0.8-0.8-1.4L371.4,187.2z"/>
	<path d="M417.4,221.1c-0.1,0.1-0.2,0.3-0.3,0.4c-0.1-0.2-0.1-0.4-0.2-0.6c0-0.1,0.1-0.2,0.2-0.3C417.2,220.9,417.3,221,417.4,221.1   z"/>
	<path d="M372.9,190c-0.7-0.3-0.7-0.9-0.6-1.5l-0.1,0.1C372.8,188.9,372.9,189.5,372.9,190L372.9,190z"/>
	<path d="M406.4,405.1c-0.1,0.1-0.3,0.3-0.4,0.3c-0.1,0-0.2-0.2-0.3-0.3c0.1-0.1,0.2-0.2,0.2-0.2C406.1,405,406.2,405,406.4,405.1z"/>
	<path d="M390.5,462c0.1,0,0.2,0,0.2,0c0,0.1,0.1,0.2,0,0.3c-0.1,0.3-0.3,0.3-0.3,0C390.4,462.1,390.4,462,390.5,462z"/>
	<path d="M421.2,249.9c-0.1-0.2-0.3-0.4-0.4-0.6c0.1,0.1,0.1,0.2,0.2,0.3C421,249.7,421.1,249.8,421.2,249.9L421.2,249.9z"/>
	<path d="M449.6,502.7c0-0.1-0.1-0.2-0.1-0.3c0,0,0.2-0.1,0.2-0.1c0,0.1,0.1,0.2,0.1,0.3C449.8,502.6,449.6,502.6,449.6,502.7z"/>
	<path d="M467.6,253.1c0-0.1-0.1-0.2-0.1-0.2c0.1-0.1,0.2-0.1,0.3-0.2c0,0.1,0,0.2,0,0.3C467.8,253,467.7,253,467.6,253.1z"/>
	<path d="M425.5,260.7c0.2,0.1,0.4,0.1,0.6,0.2c-0.1,0.1-0.2,0.2-0.3,0.3C425.7,261,425.6,260.8,425.5,260.7L425.5,260.7z"/>
	<path d="M425.5,260.6c-0.1,0-0.2-0.1-0.3-0.1C425.3,260.6,425.4,260.6,425.5,260.6L425.5,260.6z"/>
	<path d="M453.5,200.9c-0.1-0.1-0.2-0.3-0.2-0.4c0.1,0.1,0.2,0.1,0.2,0.2c0,0.1,0,0.2,0,0.3L453.5,200.9z"/>
	<path d="M445.6,199.4c0.2,0.1,0.4,0.2,0.6,0.3C445.7,200.1,445.7,199.7,445.6,199.4L445.6,199.4z"/>
	<path d="M445.7,199.4c-0.1-0.1-0.3-0.2-0.4-0.2c0.1,0,0.2,0,0.2,0C445.6,199.2,445.6,199.3,445.7,199.4   C445.6,199.4,445.7,199.4,445.7,199.4z"/>
	<path d="M372.8,190.1c0.3,0.2,0.5,0.4,0.8,0.7l0.1-0.1C373.2,190.8,373,190.5,372.8,190.1L372.8,190.1z"/>
	<path d="M401,175.7c-0.7-0.8-1.4-1.6-2.2-2.4c-1.7-1.8-3-3.7-3.8-6c-0.3-1-0.7-2.1-0.7-3.1c-0.1-3.9,0.2-7.7,1.6-11.3   c1.7-4.4,3.8-8.6,7-12.1c0-1.8,0-3.7,0-5.6c0.9,0.3,0.9,0.3,1.9,2.1c0.4-0.2,0.8-0.3,1.2-0.5c-0.8,1.7-1.4,3.5-2.3,5.2   c-1.3,2.4-2.7,4.8-3.9,7.2c-2.2,4.3-3.3,8.9-3.9,13.7c-0.2,1.7,0,3.3,0.9,4.8c0.5,0.9,1,2,1.7,2.7c4.3,4.4,8.8,8.4,15.2,9.6   c0.8,0.2,1.5,0.5,2.3,0.7c0,0.9-0.7,0.7-1,0.7c-2.2,0.1-4.3-0.5-6.2-1.4c-1.8-0.9-3.5-2-5.3-2.9C402.6,176.6,401.8,176.1,401,175.7   z"/>
	<path d="M460.8,186.1c1.7-0.2,2.8,0.8,4.2,1c1.4,0.2,2.8,0.4,4.2,0.6c0,0.3,0,0.6-0.1,0.7c-1.4,0.6-2.8,0.5-4.2,0.1   C463.5,188,461.9,187.7,460.8,186.1z"/>
	<path d="M419.4,180.4c1.8-0.5,1.8-0.5,4-0.1C421.3,181,421.3,181,419.4,180.4z"/>
	<path d="M427.5,179.6c0-0.1,0.1-0.2,0.1-0.2c0.1,0,0.2,0,0.3,0.1c0,0.1-0.1,0.2-0.1,0.2C427.7,179.7,427.6,179.7,427.5,179.6z"/>
	<path d="M555.1,198.2c1.4,0.4,1.4,1.4,1.5,2.3c0.3,3.1-0.2,4.8-1.9,7.1c0.1-1.3,0.1-2.3,0.2-3.4c0-0.9,0-1.9,0-2.8   C554.8,200.4,554.1,199.3,555.1,198.2z"/>
	<path d="M493.9,117.8c1,2.6,0.2,4.7-0.2,7c-1.4-0.8-1.3-2.1-1.3-3.2C492.3,120.3,492.1,118.9,493.9,117.8z"/>
	<path d="M510,259.7c-0.6,0-1.1,0-1.7,0C509.2,258.4,509.3,258.4,510,259.7z"/>
	<path d="M489.9,111.2c-0.2,0.8-0.6,0.9-1.1,0.7c-0.1,0-0.2-0.3-0.3-0.5c0,0,0.1-0.2,0.2-0.2C489,111.2,489.4,111.2,489.9,111.2z"/>
	<path d="M514.9,258.7c0,0.1,0,0.3,0,0.3c-0.4,0.2-0.7,0.3-1.1,0.4c0,0-0.2-0.4-0.2-0.6c0.4-0.1,0.8-0.3,1.1-0.4   C514.7,258.5,514.8,258.7,514.9,258.7z"/>
	<path d="M505.8,259.2c-0.3,0.1-0.6,0.3-0.8,0.3c-0.2-0.1-0.3-0.4-0.4-0.7c0.3,0,0.6-0.1,0.9-0.1   C505.6,258.7,505.7,258.9,505.8,259.2z"/>
	<path d="M491.7,270.1c-0.1-0.2-0.3-0.3-0.4-0.5c0-0.1,0-0.2,0-0.3c0.1,0.1,0.3,0.2,0.3,0.3c0,0.2-0.1,0.4-0.1,0.6   C491.6,270.2,491.7,270.1,491.7,270.1z"/>
	<path d="M504.3,146.5c-0.1,0-0.2,0.1-0.3,0c0,0-0.1-0.1-0.1-0.2c0.1,0,0.2-0.1,0.3-0.1C504.3,146.3,504.3,146.5,504.3,146.5z"/>
	<path d="M538.6,251.2c-0.5-0.1-0.8-0.3-0.4-1.1c0.1,0.5,0.2,0.9,0.3,1.2L538.6,251.2z"/>
	<polygon points="541.8,244.6 541.7,244.4 541.9,244.4  "/>
	<path d="M457.8,109c1.2,0,2.1,0,3.3,0c-0.3,0.4-0.4,0.8-0.6,0.8c-1.2,0.1-1.9,0.6-2.7,1.5c-0.8,1-1.9,1.8-2.9,2.6   c-0.2,0.2-0.8,0-1.5-0.1c0.7-1.2,1.6-1.8,2.3-2.6C456.3,110.5,457,109.8,457.8,109z"/>
	<path d="M437,107c3.3,0,6.4,0.6,9.3,2.3c-0.8-0.1-1.6,0-2.4-0.2C441.6,108.4,439.1,108.4,437,107z"/>
	<path d="M471.1,96.3c0.2,1.9,0.1,3.9-1.4,6.2C469.7,99.8,470.1,98,471.1,96.3z"/>
	<path d="M466.6,110c0-1.3-0.1-1.7,0-2c0.1-0.2,0.5-0.3,0.8-0.4c0.1,0.2,0.2,0.4,0.2,0.6C467.5,108.6,467.2,108.9,466.6,110z"/>
	<path d="M452.9,112.8c-1.1,0-1.7-0.5-2.1-1.4C452,111.7,452,111.7,452.9,112.8z"/>
	<path d="M448.4,46.6c-0.1,0.2-0.2,0.4-0.3,0.7c-0.1,0.2-0.3,0.4-0.5,0.6c-0.3-0.1-0.6-0.1-0.9-0.2c-0.2-0.1-0.4-0.2-0.7-0.3   c-0.2,0.1-0.4,0.2-0.6,0.3c-0.3,0.2-0.5,0.5-0.8,0.7c0.1,0.5,0.1,0.9,0.2,1.5c-0.8,0.1-1.4,0.1-2.4,0.2c0.2-0.7,0.4-1,0.6-1.6   c-0.3-0.2-0.8-0.4-1.2-0.8c-0.4-0.4-0.8-0.8-1.2-1.3c-0.9,0.5-1.6,1-2.3,1.4c-0.4-0.2-0.8-0.4-1.2-0.6c0.1-0.3,0-0.6,0.1-0.7   c0.8-0.6,1.7-1.2,2.3-2.1c-0.9,0.2-1.7,0.4-2.7,0.6c0.1-0.3,0.1-0.6,0.1-0.6c3.4-1.8,6.9-2.3,10.8,1.5c0.2,0.2,0.5,0.4,0.8,0.6   L448.4,46.6z"/>
	<path d="M461.8,46.5c-1.2,0.3-1.7,1.9-3.1,0.6c0.8-0.8,1.7-1.5,2.1-2.4c1.1-2.1,2.8-2.3,4.9-2.1c1.7,0.2,3.4,0.6,5.3,1.5   c-1.7,0.6-2.9-1-4.1,0c0.9,1.3,2.9,0.9,3.7,2.4c-1.4,0.8-2.3-0.5-3.5-0.3C464.7,48,464.4,48.1,461.8,46.5z"/>
	<path d="M463.9,69.8c-0.3,1.1-1,1.3-1.7,1.3c-1.3,0.1-2.6,0-3.9,0c-3.2,0-6.4,0.1-9.7,0.1c-0.8,0-1.7,0.1-2.1-0.9   c2-0.6,3.9-1.3,5.8-1.7c1-0.2,2.2-0.2,3.2,0C458.3,69,461,69.9,463.9,69.8z"/>
	<path d="M456.4,40c2.1-1.6,4.4-1.7,6.6-1.8c2.9-0.1,5.9-0.6,8.9,1c-0.4,0.2-0.7,0.4-0.9,0.3c-4.2-0.9-8.3,0.2-12.4,0.9   c-0.6,0.1-1.1,0.1-1.7,0.1C456.9,40.5,456.8,40.3,456.4,40z"/>
	<path d="M461.1,73.5c-1.8,3.2-4.9,3-7.9,2.7c-1.7-0.2-3.4-1-5.1-1.7c0.3-0.4,0.5-0.7,0.5-0.7C452.8,74.9,456.9,75.2,461.1,73.5z"/>
	<path d="M448.8,41.2c-1.3-0.4-2.6-1-3.9-1.3c-1.3-0.3-2.6-0.4-3.9-0.5c-1.4-0.1-2.8,0-4.9,0c1-0.5,1.4-0.8,1.9-0.9   c3.7-0.9,7.1-0.2,10.4,1.5C448.8,40.2,449.2,40.5,448.8,41.2z"/>
	<path d="M460,61.8c-1.4,1.1-2.7,0.8-3.9-0.3c0.6-0.9,1.3-1.2,2.2-0.6C458.9,61.3,459.5,61.6,460,61.8L460,61.8z"/>
	<path d="M451.4,62.4c0.8-1.5,1-1.5,2,0C452.7,62.4,452.1,62.4,451.4,62.4z"/>
	<path d="M460.1,61.9c0-0.9,0-1.8,0-3.3C460.9,60.2,461.2,61.1,460.1,61.9L460.1,61.9z"/>
	<path d="M448.5,46.7c0.4-0.1,0.8-0.1,1.2-0.2c0,0.2,0.1,0.4,0.1,0.6c-0.2,0-0.4,0.1-0.5,0c-0.3-0.1-0.6-0.3-0.9-0.5L448.5,46.7z"/>
	<path d="M455.9,59.1c0,0.2,0.2,0.4,0.1,0.5c-0.1,0.1-0.4,0.2-0.6,0.3c0-0.2-0.2-0.5-0.1-0.5C455.4,59.2,455.7,59.1,455.9,59.1z"/>
	<path d="M449.4,62c0.1-0.1,0.2-0.3,0.3-0.4c0.1,0.2,0.3,0.4,0.4,0.6c0,0-0.2,0.2-0.2,0.2C449.7,62.3,449.6,62.2,449.4,62z"/>
	<path d="M472.4,35.5c0.7,0.6,0.9,1.1,0.2,1.8C472.5,36.6,472.4,36.2,472.4,35.5z"/>
	<path d="M432.6,28c0.7,0.1,0.9,0.5,0.2,1.3C432.8,28.7,432.8,28.3,432.6,28C432.7,27.9,432.6,28,432.6,28z"/>
	<path d="M457.2,43.8c0-0.2,0-0.5,0.1-0.7c0-0.1,0.3-0.2,0.4-0.3c0,0.2,0.1,0.5,0,0.6C457.5,43.6,457.3,43.6,457.2,43.8   C457.1,43.7,457.2,43.8,457.2,43.8z"/>
	<path d="M465,17.3c-0.1-0.7,0.2-1.3,0.8-1.6C465.9,16.3,465.8,17,465,17.3z"/>
	<path d="M434.6,28.2c-0.1,0-0.1,0-0.2,0.1c0-0.1-0.1-0.2-0.1-0.3c0.1-0.1,0.2-0.1,0.3-0.1C434.6,28,434.6,28.1,434.6,28.2z"/>
	<path d="M457.1,43.7c0,0.2,0,0.4,0,0.6c0,0.1-0.2,0.1-0.3,0.2c0-0.1,0-0.2,0-0.3C456.9,44.1,457,44,457.1,43.7   C457.2,43.8,457.1,43.7,457.1,43.7z"/>
	<path d="M465.5,48.4c0,0.1,0,0.2,0,0.2c-0.1,0-0.2,0-0.3,0.1c0-0.1,0-0.3,0.1-0.4C465.3,48.4,465.4,48.4,465.5,48.4z"/>
	<path d="M465.8,14.3c0.3,0,0.5,0,0.8,0c0,0.7-0.1,1.3-0.8,1.6C465.8,15.3,465.8,14.8,465.8,14.3z"/>
	<path d="M449.9,59c-0.1,0.3-0.2,0.6-0.3,1C449.3,59.4,449.5,59.2,449.9,59C450,59.1,449.9,59,449.9,59z"/>
	<path d="M450,59.1c0-0.1,0-0.2,0-0.3C450,58.9,450,58.9,450,59.1C449.9,59,450,59.1,450,59.1z"/>
	<path d="M436.2,22.3c0.1,0,0.2,0,0.3,0.1C436.4,22.3,436.4,22.3,436.2,22.3L436.2,22.3z"/>
	<polygon points="436.3,22.2 436.1,22 436.2,22.3  "/>
	<path d="M463.6,17.9c0.3,0,0.6,0,0.8,0c-0.1,0.2-0.2,0.4-0.3,0.5C464,18.2,463.8,18,463.6,17.9z"/>
	<path d="M464.3,18c0.1-0.5,0.3-0.9,0.9-0.8C465.1,17.6,464.8,17.9,464.3,18z"/>
	<path d="M370.2,560.9c-1.6,1.1-2.8,0.8-3.9,0.6c-3.4-0.7-6.9-0.8-10.3-0.7c-0.9,0-1.7,0-2.2-1.1c0.4-0.3,0.7-0.9,1.2-1.1   c0.5-0.3,1.1-0.3,1.7-0.4c4-0.1,7.8,0.4,11.6,1.6C368.7,560.1,369.2,560.4,370.2,560.9z"/>
	<path d="M365.2,564.1c-1.9,1.5-4,1.3-6,1.2c-1.8,0-3.9,0.3-5.4-1c-0.1-1.1,0.5-1.5,1.2-1.6c0.6-0.1,1.2-0.2,1.8-0.1   c2.4,0.2,4.8,0.5,7.1,0.8C364.3,563.4,364.6,563.8,365.2,564.1z"/>
	<path d="M361.4,570.1c-2.2,0.7-4.2,0.6-6.3,0c-0.4-0.1-0.8-0.8-1-1.3c-0.2-0.6,0.5-1.3,1.3-1.4c2.1-0.2,4,0.3,5.7,1.5   C361.3,569.2,361.3,569.6,361.4,570.1z"/>
	<path d="M399.9,129.1c-0.1,0.1-0.2,0.2-0.2,0.2c-0.2-0.1-0.3-0.2-0.5-0.4c0.1-0.1,0.1-0.2,0.2-0.2   C399.6,128.8,399.7,128.9,399.9,129.1z"/>
	<path d="M401.6,131.7c-0.1,0.1-0.3,0.2-0.4,0.2c0-0.2-0.1-0.4-0.1-0.6c0-0.1,0.2-0.1,0.2-0.2C401.4,131.4,401.5,131.6,401.6,131.7z   "/>
	<path d="M389.7,178.8c-1.7,1.2-3.2,1.4-4.7,1c-0.4-0.1-0.8-0.5-1-0.9c-0.2-0.6,0.2-1.1,0.8-1.4C386.6,176.9,388,177.5,389.7,178.8z   "/>
	<path d="M385.3,227.5c-0.2-0.2-0.6-0.5-0.7-0.8c-0.2-0.5,0.4-1.1,1-1.1c0.5,0,0.9,0.1,0.9,0.8C386.6,227,386.2,227.5,385.3,227.5z"/>
	<path d="M380,186.6c1.2,0.2,2.5-0.2,3.6,0.7l0.1-0.1C382.4,187,381.1,187.5,380,186.6L380,186.6z"/>
	<path d="M390,187.2c0.6,0,1.2,0,1.9,0c0,0.1,0,0.3,0,0.4c-0.6,0.1-1.2,0.1-1.9,0.2C390.1,187.6,390,187.4,390,187.2z"/>
	<path d="M383.6,187.3c0.7,0,1.4,0,2.1,0C385,187.7,384.3,187.7,383.6,187.3L383.6,187.3z"/>
	<path d="M386.3,182.5c0,0,0.1-0.1,0.1-0.1c0.1,0.1,0.1,0.1,0.2,0.2C386.5,182.6,386.4,182.5,386.3,182.5z"/>
	<path d="M381.4,228.6c-0.1,0.1-0.2,0.2-0.3,0.2c-0.1,0-0.2-0.1-0.2-0.2c0.1-0.1,0.2-0.2,0.3-0.2   C381.3,228.4,381.3,228.5,381.4,228.6z"/>
	<polygon points="388.4,212.5 388.5,212.7 388.2,212.7  "/>
	<path d="M466.6,5.6c-0.6,0.8-1.5,0.6-2.3,0.8C464.9,5.5,465.8,5.7,466.6,5.6z"/>
	<polygon points="461.6,5.1 461.6,4.8 461.5,5  "/>
</g>
</svg>