<?xml version="1.0" encoding="UTF-8"?>
<!-- Generator: Adobe Illustrator 23.0.1, SVG Export Plug-In . SVG Version: 6.00 Build 0)  -->
<svg version="1.2" baseProfile="tiny" id="Layer_1" xmlns="http://www.w3.org/2000/svg" xmlns:xlink="http://www.w3.org/1999/xlink" x="0px" y="0px" viewBox="0 0 900 600" xml:space="preserve">
<g>
	<path d="M164.74,35.66l0.1-0.1C164.67,35.51,164.77,35.48,164.74,35.66z"/>
	<path d="M167.44,11c-0.17,0.17-0.13,0.13,0.1,0.1L167.44,11z"/>
	<path d="M163.33,42.68l0.1-0.1C163.19,42.58,163.24,42.62,163.33,42.68z"/>
	<path d="M236.51,560.66c-2.64,0.29-11.52,0-11.63,0c-7.9-3.6-4.28-0.31-14.64-7.22c-2.49-1.37-9.35-5.94-11.03-9.02   c-2.47-4.54-5.83-5.45-6.82-8.32c-0.77-2.23-3.38-1.12-5.91-0.2c-5.12-15.35,2.51-45.94,2.51-76.69c0-10.59-1.08-15.41,2.91-21.25   c1.2-1.76,5.97-9.49,6.52-11.13c4.48-27.8,1.65-0.12,12.03-44.71c10.24-44.02,6.02-40.06,8.62-42.91   c3.25-3.56,1.54-8.12,3.11-12.63c1.25-3.59-3.71-16.6-4.31-20.35c-6.94-43.64-7.94-14.85-2.01-47.52c0.59-3.24,0.75-8.84,1.2-9.52   c0.78-1.33,0.9-1.85,0.9-22.86c0-4.3,1.14-5.34,3.91-13.73c5-15.14-1.26-28.64,1.9-30.68c10.88-7.01,17-17.16,12.83-30.17   c-1.54-4.82-3.64-4.16-6.22-8.62c-4.63-8.03-9.01-9.79-14.54-15.24c-9.42-9.29-6.14-6.72-17.44-16.84   c-1.94-7.77-2.76-8.49-2.21-11.63c4.5-25.52-0.22-21.15,12.53-21.15c2.51,0,4.81-0.7,6.62-2.71c0.5-2.11,0.4-4.21-0.1-6.32   c1.86-2.79,2.03-1.69,0.9-6.22c0.5-0.6,1.1-1.3,1.6-1.9c0.3-1.7-1.3-3.21,0.2-4.91c6.52-2.17,5.91-2.57,2.31-8.42   c-1.67-2.71-4.55-8.02-3.31-10.93c2.11-5.86-1.68-9.73-2.11-16.14c0-0.63-2.34-6.76-2.81-7.82c-1.34-3.03-3.05-4.02-8.92-8.62   c-0.99-0.99-2.13-0.98-11.83-4.21c-1.89-0.51-22.73,1.62-30.07,8.12c-2.39,2.12-4.61,4.51-7.32,6.32c-0.5,0.4-0.8,1.1-1.3,1.7   c-6.19-1.41-10.56-2.7-13.53-2.11c-1.57,1.57-6.14,4.2-6.72,13.53c-2.93,47.49,5.18,38.09,5.01,70.07   c-0.05,10.4-0.07,8.59,0.2,11.53c1.68-1.85,0.93-3.78,1.5-7.12c1.51-8.74,1.12-13.86,1.4-16.44c2.34,4.16,0.15,21.19-0.1,23.46   c0.6-0.3,1.2-0.5,1.2-1.2c2.12-21.24,1.37-22.1,2.51-26.06c1.47,6.12,2,9.1,2,21.95c0.6-0.6,0.91-0.8,1-1.1   c1.86-5.87,4.67-7.22,4.11-12.83c-0.16-1.63,0.73-6.61-0.6-13.33c-2.97-14.96-3.53-15.78-3.01-19.05c1.4,3.71,2.31,7.02,5.51,9.22   c-5.4-25.91,0.06-8.31,8.12-3.71c1.6,2.31,3.01,4.61,2.61,7.62c-4.28,31.56,4.01,13.28-9.72,36.49c-2.08,3.52-3.64,7.23-4.31,11.33   c-1.13,6.88-5.24,4.81-3.51,29.87c0.31,4.48-1.96,11.37,10.73,27.67c2.94,3.77,2.37,3.09,5.21,15.94c0.63,2.85,0.2,3.9,1.1,16.54   c0.36,5.03,0.93,6.81-0.1,10.73c-7.4,28.17-46.42,63.16-7.32,94.43c0,3.15-0.92,11.7-1,17.74c-0.34,24.04,4.71,33.98,5.71,42.3   c6.08,50.46,0.34,35.08-10.02,80.1c-1.54,6.69-3.05,25.92,0.4,31.28c1.89,2.94,2.4,14.24,6.52,27.97c0.57,1.53,0.8,11.97,0.8,12.53   c0,26.07,6.33,24.74-1.3,22.66c-5.75,7.67-3.15,17.98-6.42,24.26c-0.83,1.59-1.7,3.41-2,5.51c2.11,0.2,3.61,1.2,5.01,2.41   c-0.1,3.21-2.41,6.01-1.3,9.32c5.02-2.51,5.13-24.52,5.41-28.67c0.11-1.6,0.6-1.8,2.91-1.7c0.59,2.97,1.41,4.12,2.61,5.31   c5.36,6.25,7.74,3.08,19.75-3.41c1.09-5.97,1.09-12.67,7.22-12.43c1.9,2,4.71,3.01,5.81,6.01c-4.25,5.05-10.46,7.98-8.02,10.73   c7.41-2.41,10.01-10.9,10.93-7.22c0.57,2.26-4.72,6.87-6.01,8.52c-0.31,0.39-0.3,1-0.5,1.6c4.6,2.07,8.55-5.2,10.23-6.32   c0.5,0.5,0.9,1,1.2,1.3c-0.7,2.81-4.01,4.21-3.11,7.62c3.51-0.4,4.01-3.51,5.61-5.51c1.5-0.2,2.91-0.3,3.51,1.7   c-3.9,5.2-2.87,3.98-2.61,6.32c5.91-4.6,3.85-5.67,6.62-2.91c-2.29,4.26-1.99,3.08-1.6,5.01c3.04-0.25,3.02-4.18,4.91-3.21   c8.49,4.33,13.63,3.35,16.94,4.01c1.3,3.61,2,7.02,1.8,10.73c-6.17,6.95-4.98,5.56-20.55,8.42c-21.42,3.94-28.05-4.46-33.48-3.01   c-3.74,1-2.63,0.93-18.25,1.3c-10.27,0.25-10.06-4.82-11.83-2.71c2.85,8.55,23.38,4.44,31.38,3.01c15.73,4.49,13.36,9.77,46.21,1.1   c3.05-0.8,5.38-2.64,6.72-4.51c0.5-0.8,1.2-0.3,1.9-0.3c1.2-1.9,1.49-3.8,0.7-6.12c-0.92-2.7-1.2-5.61-1.8-8.32   C243.94,571.08,240.36,568.36,236.51,560.66z M212.96,289.99c-3.55-3.55-5.37-16.55-6.42-22.05c2,1,3.31,1.6,4.71,2.31   C210,285.27,210.87,272.23,212.96,289.99z M217.17,219.52c-0.93,1.53-0.49,4.35-0.6,10.73c-0.07,4.16-1.18,1.36-1.5,7.62   c-0.72,14.2-0.47,19.47-3.31,30.27c-2.31-0.2-2.31-0.2-5.81-2.41c-0.3-1.2-0.72-2.61-0.8-4.01c-0.36-6.37-1.99-11.98-4.01-20.05   c-1.13-2.83,1.28-1.78-1.2-8.72c-7.45-20.83-7.5-14.79-5.41-23.96c0.9,0.4,1.6,0.7,2.31,1c0.2-1.8-1.1-2.71-1.8-4.11   c0.1-1.7,0-3.41,0.8-5.11c6.23,2.34-3.65-2.22,1.6-9.22c8.02-0.5,15.84,0.8,23.86,1.4C222.14,198.97,219.82,215.14,217.17,219.52z    M205.84,8.9c-0.33,0-0.52-0.09-0.56-0.42C205.46,8.61,205.63,8.75,205.84,8.9z M150.1,56.71c-1.41-0.35-0.99-1.31-2.21-9.22   c-0.2-1.3,0.12-2.93-1.3-3.91c-0.67-0.46-0.37-12.36,1.7-14.89C148.2,42.39,151.01,53.76,150.1,56.71z M148.5,28.27   c0-0.69,0.04-1.31,0.42-1.82C148.82,27.09,149.02,27.76,148.5,28.27z M155.57,110.55c-0.05,0.13-0.08,0.24-0.16,0.4   C155.07,110.61,155.31,110.56,155.57,110.55z M160.23,176.81c-1.71-4.59-3.38-6.32-10.43-18.04c-0.97-1.62-1.1-3.31-0.5-5.51   c4.79,8.62,5.27,8.1,10.73,10.83C160.53,166.79,160.73,172,160.23,176.81z M161.23,145.53c-1.28,1.49-1.4-1.31-1.4,17.04   c-4.11-1.74-7.43-4.29-9.62-10.93c-2.14-6.47-2.27-3.63-2.31-7.02c-0.08-7.22,1.96-13.11,2.21-18.95   c0.11-2.58,1.21-8.65,3.71-10.63c7.16-5.66,11.74-9.26,20.35-7.92c9.82,1.53,9.7,4.41,12.03,4.41c7.32,0.54,9.81,8.03,13.13,11.83   c-0.4-4.81-2.18-8.15-5.31-10.83c-3.27-2.78-6.78-1.21-10.63-3.91c-5.34-3.75-13.51-3.95-15.84-3.61   c-10.49,1.52-18.62,14.73-4.61-7.32c0.94-1.48,0.61,1.13,1.4-7.92c1.47-16.91,5.95-26.05-7.12-32.58   c-7.21-12.62-5.25-21.78-7.02-24.06c-0.65-0.84-0.17-5,0.3-6.01c2.79-0.62-0.46,9.22,12.23,15.44c1.53,0.75-1.12-1.52-4.41-4.81   c1.18-1.05,4.19,1.91,6.62,1c-6.19-3.37-7.94-5.67-9.62-7.22c2.22-0.13,1.42,0.84,9.42,3.97c0.02-1.18-6.42-3.31-12.83-8.78   c-0.77-0.65-1.69-1.05-2.73-0.66c-0.09-0.28-0.19-0.58-0.38-1.14c-3.23,3.23-3.98,12.11-3.71,17.24c0,2.23,1.63,2.1,1.1,6.92   c-1.36,12.31,1.4,12.48,1.2,22.86c-0.1,5.6,1.94,9.72,0.6,21.75c-0.28-1.6-1.92-11.54-2.71-12.93c-2.65-4.7-0.38-9.7-3.71-19.45   c0.82,10.61,1.69,27.18-0.1,16.14c-1.73-10.63-3.18-8.97-3.51-15.34c-0.78-15.13-0.03-14.92-0.9-15.94c-0.3,0.2-0.4,0.2-0.4,0.3   c-0.44,23.17,3.29,28.61,1.4,40.9c-1.14-11.02-1.34-12.19-2.21-13.63c-0.49-0.98-3.42-18.97-3.01-29.67   c0.62-16.08-0.46-14.67,3.61-24.56c0.91-2.2,2.8-3.23,5.01-3.81c1.34-0.35,8.91,1.34,11.03,2.11c0,0.99-0.26,2.01,0.1,1.7   c7.07-5.98,13.71-7.05,14.73-8.39c-6.08,0.98-9.2,3.99-10.92,3.78c4.07-4.07,8.82-6.99,16.84-9.12c9.88-2.62,15.31-4.51,23.96-2.31   c0.2,1.2,0.8,2,2.11,2c-0.2-0.4-0.3-0.8-0.5-1.2c2.91,0.63,3.93,1.2,5.66,3.32c-1.05-0.39-3.24-2.98-5.06-2.72   c2.96,3.55,2.2,2.07-4.71,0c-2.6-0.47-4.27-1.06-6.62-0.2c6.57,1.46,15.46,4.15,18.95,10.02c0.9,0.1,1.6-0.8,2.41,0.2   c0.4,0.5,1.2,0.7,1.9,1.1c1.6,3.91,2.78,8.02,3.51,12.33c0.94,5.54,1.68,4.25,0.7,6.22c-2.36,6.61,2.4,12.13,6.62,17.74   c-2.51,2.11-5.81,1.6-8.92,2.81c3.37,2.02,2.51,0.77,3.51,5.41c-2.14,1.19-1.42,1.11-4.81,1.6c-2.72,0.4-1.77,2.5,0.3,1.9   c0.6-0.1,1.1-0.49,1.7-0.6c1.01-0.18,2.03,0.71,1.8,1.7c-0.62,2.75-2.28,2.95-1.8,6.01c2.32,10.84-14.26,0.47-15.74,8.12   c-5.44,28.06-3.91,21.6-2.21,28.97c-4.38-1.97-10.99-10.39-31.98-11.63c3.17,4.22,3.66-1.03,27.37,10.83   c4.21,2.11,5.14,3.02,22.15,20.45c12.21,12.51,11.37,12.32,18.85,21.25c2.98,3.56,1.46,15.11,0.7,19.65   c-0.8,4.77-2.02,5.21-11.03,13.13c-2.04,11.41,6.3,8.32-18.45,8.32c-7.78,0-5.4,1.84-6.12-9.52c-0.32-5.12,0.07,3-1.3-19.05   c2.9-1.45,6-1.61,8.82-6.01c7.13-11.12,7.17-15.98,3.91-26.77c-1.18-3.92-3.83-6.79-7.12-9.22c-0.4-0.3-0.5-0.3-1.5,0   c0,1.31,5.55,4.31,7.32,12.93c0.89,4.36,2.11,6.6,0.2,12.33c-2.24,6.73-4.38,12.19-10.33,14.34c-0.48,0-0.42,0.22-1.3,0   c-1.26-2.72,0.05-4.19,0.3-7.82c0.26-3.89,2.61-3.41,3.21-4.61c-0.55-2.77-4.07,1.16-5.11,3.81c-2.6,6.59-0.36,26.5,0.5,33.58   c0,5.18-5.48,26.83-2.71,33.68c1.09,2.7,4.53,12.13,4.81,15.04c0.86,9.02,6.15,28.56,5.31,32.18c-0.19,0.81,0.79,1.91,1,2.91   c0.86,4.01,1.23,6.88,3.61,15.04c0.89,3.05,3.82,6.5,4.21,11.33c0.12,1.54,1.51,8.66,3.11,9.72c2.54,1.69,6.14,18.04,6.92,21.15   c-1.75,5.99-0.83,13.44-4.12,13.44c-0.32-2.71,2.39-3.45,2.12-7.23c-0.29-4.01,0.47-5.29-1.1-5.81c0,4.1,0.78,5.06-1,8.62   c-1.97,3.94-3.21,4.94-3.21,10.43c0,6.05-2.25,16.16-4.41,15.44c-0.4-0.1-0.9-0.6-0.9-1c-0.73-5.46,0.96-4.61,1-8.12   c0.05-3.91,0.15-7.92,0.2-11.83c0-0.2-0.2-0.4-0.3-0.6c-0.91-0.3-0.99,0.22-1.1,5.01c-0.07,2.9-0.13,7.95-0.4,8.32   c-2.32,3.14-0.56,7.45-1.4,11.23c-0.22,1.75-2.64,2.35-3.21,1.2c-0.4-0.6-0.8-1.4-0.7-2c0.59-3.51,0-7.12,0.7-10.63   c0.25-1.27,0.63-5.31,0.1-7.42c-1.74,0-0.46,1.05-2.91,15.74c-1.24,0.62-1.84-0.29-3.29-2.9c0.22,0.14,0.39-1.4,0.39-7.12   c-0.1-1.4-0.3-2.81-0.5-4.51c-0.5,1.9-0.9,3.51-1.3,5.21c-1.8-0.8-2.41-1.3-2.61-2.91c-0.4-2.21-1.2-4.41-0.4-6.72   c-0.1-5.21,0.75-10.31-0.5-15.44c-3.4-13.87,10.76-16.09,1-33.68c-9.65-17.39,0.01-0.88-18.25-42.2c-2.69-6.1-6.41-21-6.72-22.86   c0.7,0,1.3,0,1.8,0c0.6-1-0.21-1.7-0.7-2.21c-2.03-2.08-2.69-4.61-2.81-7.52c-0.17-4.21-0.81-8.32-0.9-12.53   c-0.11-4.91-0.83-9.62-2.11-14.24C159.62,175.21,162.35,163.47,161.23,145.53z M165.94,222.52c1.1,0.1,1.42,0.9,1.3,1.5   c-0.52,2.75,6.38,27.14,6.92,28.47c-2.53,0-18.29-4.75-18.55-5.01C158.92,239.06,163.43,231.25,165.94,222.52z M144.29,292.7   c-4.66-11.86-1.43-25.39,5.51-35.19c1.46-2.06,2.93-5.39,4.41-8.02c1.91,0-0.27-0.51,21.65,7.02c3.77,7.55,16.54,36.92,18.95,45.41   c1.01,3.56-0.16,5.37-4.01,15.44c-3.01,0.4-6.01,0.4-9.02,0.2c-0.9-2.51-0.2-5.01-0.8-7.42c-1.46-0.42-0.76,1.02-0.5,7.32   c-4.1,0.82-10.94,0.1-21.55,0.1c-0.1-0.6-0.4-1.41-0.2-1.7c0.89-1.31,0.42-2.23-0.6-3.11C154.02,309.23,149.84,306.84,144.29,292.7   z M154.61,576.8c-3.31-0.66-2.32-1.47,0.5-7.12C155.51,572.49,155.11,574.59,154.61,576.8z M157.82,558.35   c-1.6,1.8-1.1,4.41-2.51,6.32c-0.8-3.51,0.7-9.42,3.31-13.53c0.8,0.2,1.5,0.4,2.41,0.6C161.03,559.36,161.86,557.55,157.82,558.35z    M183.08,552.34c-2.15,6.14-0.43,8.04-4.11,9.82c-8.37,4.06-10.27,5.44-12.73,2.81c-6.34-6.79-1.81-3.25-2.91-13.83   c-0.45-4.35-1.16-4.47-0.8-7.42c3-25.05-18.66-76.07-7.52-95.24c7.39-12.71,14.81-47.38,9.52-62.45   c-1.62-4.61-6.32-31.99-6.32-65.66c0-2.8,6.38-0.5,31.68-0.5c0.1,0.7,0.29,1.2,0.3,1.8c0.17,7.98,1.38,7.31,0.8,9.92   c-1,6.12-0.2,12.13,0.8,18.04c1.7,1.4,3.21,2.71,4.71,3.91c0.21,0.37,0.53,2.7,0.8,3.41c0.1,1,0.1,2,0.3,2.9   c0.6,3.9,3.61,0.85,4.21,4.01c0.29,1.54,0.82,2.75,2.41,2.61c2.53-0.23,3.11-1.6,3.91-3.61c3.92,0,2.1-0.93,4.11-1.6   c-0.57,3.43-1.6,15.52-6.52,29.27c-7.64,21.37-6.49,21.59-7.02,22.26c-3.32,4.83,3.62,5.4-9.82,25.26   c-2.86,4.22-3.51,8.28-2.81,27.57c0.97,26.78-9.46,44.59,0.2,80c0.22,1.1,0.4,0.7,0.4,2C183.53,550,184.15,549.29,183.08,552.34z    M191.9,548.93c-3.55-2.26-2.26,0-4.41-9.32c2.98-1.49,1.46-2.55,7.62,3.61C194.01,545.12,193.01,547.03,191.9,548.93z    M197.52,552.84c-1.1-1-2.11-2.01-3.21-3.11c0.9-1.5,1.7-2.81,2.61-4.31c1.4,0.6,2.11,1.7,2.91,2.81   C199.02,549.73,198.32,551.14,197.52,552.84z M203.23,557.55c-1.8-0.7-2.81-2.31-4.31-3.41c0.7-1.4,1.9-2.41,2.81-3.71   c1.6,0.9,2.61,2.21,3.91,3.51C204.74,555.25,204.03,556.35,203.23,557.55z M237.52,572.99c-1.12,0.99-2.2,1.7-3.81,1.6   c-9.69-0.55-21.05-4.32-24.96-12.13c-1.3-0.2-2.01-1.1-2.81-2.21c0.7-1.4,1.4-2.81,2.21-4.41c0.8,0.5,1.4,0.8,2.11,1.2   c-1.4,1.7-1.7,3.51-1.5,5.41c2.82,0.56,3.22,0.37,4.71-4.11c3.79,1.89,2.25,0.23,1.1,4.61c-0.26,1,0.7,2.14,2,1.1   c1.82-1.82,1.86-2.22,2.41-2.91c10.45,3.36,5.53,2.43,16.44,2.81C238.02,570.64,239.05,571.64,237.52,572.99z"/>
	<path d="M152.31,19.52l0.1,0.1C152.41,19.54,152.42,19.52,152.31,19.52z"/>
	<path d="M765.12,209.59c-0.5,0.2-1,0.2-1.4,0.5c-1.5,1.11-3.23,2.18-4.51,3.51c-2.39,2.49-4.82,2.68-8.42,4.81   c-0.11,0.06-8.98,5.41-9.72,6.01c-2.8,2.26-3.77,0.69-8.02,3.81c-9.04,6.63-8.69,4.16-11.03,5.91c-6.13,3.94-9.05,3.11-11.43,5.11   c-12.5,10.54-10.45,9.02-13.33,10.13c-22.71,8.72-21.69,8.06-22.46,9.12c-1.35,1.88-21.28,2.44-36.59,17.24   c-0.56,0.45-1.91,1.79-2.91,2.11c-12.66,3.95-15.26,4.05-17.64,6.01c-1.77,1.46-6.97,1.8-17.74,7.82   c-3.63,2.03-6.68,3.22-10.73,2.31c-6.21-1.39-17.45-1.44-25.16,1.6c-0.4,0.2-0.8,0.6-1.3-0.1c4.97-12.92,3.04-13.4,5.31-19.45   c9.16,0,12.07,0.96,15.34-2.51c0.6-2.21,0-4.41,0.1-6.22c1.82-4.25,1.72-2.15,0.6-6.62c1.8-1,1.8-2.51,1.3-4.31   c-0.1-0.6,0.1-1.4,0.2-2.11c4.64-1.86,7.14-2.36,4.21-5.11c0,0.5,0,0.9,0,1.3c-1.62,1.62-4.18,1.65-7.82,2.41   c-1.07,0.53-1.13,0.37,1.8,2c0.2,1.2,0.4,2.51,0.6,3.61c-1.2,1.6-2.91,1.39-4.41,1.7c-3.34,0.69-1.99,2.6,0.4,1.8   c0.4-0.1,0.7-0.31,1-0.4c1.39-0.43,2.44,0.61,2,2c-0.78,2.52-2.26,2.93-1.7,5.61c2.21,10.67-13.77,0.56-15.84,8.22   c-1.52,5.63-1.04,7.66-3.71,13.93c-3.79,8.92-0.53,6.37-6.92,10.63c-6,0-8.25-6.74-19.75-8.02c-11.54-1.29-2.51-0.33-9.62-0.8   c2.49-2.9,1.95-0.92,5.51-6.01c2.17-3.1,1.25-3.66,2.51-9.92c0.7-3.51,0.68-6.92,0.4-10.43c-0.57-7.21-5.41-9.51-8.92-11.43   c-7.18-14.35-5.33-21.72-6.12-22.96c-1.45-2.28-0.4-4.71-0.6-7.12c0.53-0.18,0.98-0.35,1.35-0.45c-1.15-1.34-1.38-1.33-2.96-0.15   c-0.21,2.52-0.3,10.62,0.5,13.53c0.33,1.2,0.09,2.41,0.2,3.61c0.83,9.3,1.1,10.65,0.7,13.23c-1.81-2.3-1.29-3.34-2.31-10.63   c-0.2-1.4-0.2-1.4-1.7-3.21c0.4-8.09-0.19-9.32,2.51-16.34c0-0.5,0-0.9,0.1-1.9c-2.39,2.39-3.55,7.45-3.71,10.83   c-0.69,14.23,1.24,2.48,0.7,16.34c-0.39,10.03,1.27,13.66,1.3,15.34c1.09,50.21,0.28,15.95-2.31,12.53   c-2.14-2.83,0.16-3.26-2.91-17.24c0-0.08-0.21-0.23-0.39-0.34c0.34,6.57,1.17,12.34,0.29,18.49c-2.48-14.89-3.54-12.43-3.91-16.34   c-1.08-11.49-0.62-15.76-1.3-20.85c-1.64,23.01,2.84,29.75,1.6,46.31c-0.01-0.1-1.85-14.44-2-14.84   c-2.97-6.09-3.81-25.52-3.51-37.39c0.2-7.8-0.79-8.15,2.91-17.54c1.42-3.62,5.07-4.81,6.62-4.51c10.17,1.94,8.13,1.67,9.72,2.31   c-1.19,5.97-2.16-0.22,14.44-6.22c11.86-4.29,10-5.5-9.99,3c0.48-1.93,7.39-6.64,13.8-8.21c13.58-3.32,17.11-5.66,26.87-2.71   c0.2,0.2,0.09,0.2-0.9,0.4c1.44,0.72,1.2,0.53,1.2-0.08c3.35,0.33,5.63,2.32,7.32,5.09c-2.3-1.84-5.34-4.4-7.32-4.51   c0.23,0.28,2.58,2.77,2.68,2.87c-5.65-1.9-9.57-3.37-13.7-2.37c6.63,1.42,16.3,4.21,19.65,10.13c1.1,0,2.02-0.91,2.71,0.4   c0.21,0.4,1,0.5,1.6,0.8c2.47,5.88,2.83,8.82,4.81,17.54c-3.52,5.61,0.89,11.72,4.81,17.04c0.2,0.2,0.8,0.3,1.2,0.4   c0.14-1.79-6.76-10.32-5.11-14.44c2.01-5.01-0.81-8.9-1.5-13.23c-0.42-2.59-3.13-12.14-5.61-14.24c-2.44-2.05-6.67-5.72-8.62-6.32   c-9.12-2.77-10.8-3.99-13.43-3.11c-4.2,1.4-4.95-0.35-18.25,3.61c-5.23,1.56-6.93,3.1-17.04,12.43c-4.21-1-8.62-2.41-13.03-2.21   c-3.91,3.27-6.49,5.93-7.12,13.73c-3.5,43.59,4.81,39.69,4.81,64.26c0,7.22,0.56,22.43,1.4,15.14c0.71-6.1,1.85-12.33,1.9-18.55   c0.06-7.26,2.27,8.21-0.4,20.55c2.85-1.27,2.72,1.93,4.31-27.97c2.51,7.72,2.71,15.14,2.41,22.56c0.5,0.2,0.8,0.3,1.1,0.4   c-0.17-3.12,1.86-5.6,3.11-8.22c4.01-8.42-3.34-32.39-2.91-38.5c1.19,3.66,2.48,7.23,5.31,9.92c0-1.08,0.01-2.34-0.2-3.41   c-0.72-3.63-1.1-7.22-1.7-11.43c2.7,2.02,7.7,9.89,9.02,10.23c1.8,0.3,2.21,2.11,3.01,3.31c1.55,2.32,1.02,3.23-0.4,19.45   c-0.16,1.84-1.29,2.98-2.91,4.31c-7.53,6.2-10.78,13.43-12.33,14.34c-0.92,3.21-10.06,9.72-14.54,31.38   c-3.79,18.35-3.65,23.36-7.42,33.28c-6.18,16.26-5.88,24.48-22.66,35.99c-5.13,3.52-8.82,4.1-15.24,9.42   c-12.52,10.39-19.86,27.09-19.75,35.99c0.07,5.66,2.13,13.35,3.91,15.54c15.75,19.29,28.88,18.9,47.52,21.15   c10.12,1.22,20.15,0.51,29.87-2.61c0.14-0.04,23.29-7.69,27.17-9.32c4.13-1.74-1.1,1.04-6.22,15.74   c-4.06,11.68-4.47,26.97-16.74,49.22c-1.12,2.02-2.11,4.42-4.31,9.92c-4.25-1.42-7.76,4.54-7.92,8.72   c-0.08,2.21-1.32,10.25-3.61,13.33c-2.3,3.1-2.4,5.65-2.81,10.13c0.5,0.9,1,1.7,1.6,2.61c-0.5,1.8-0.69,3.61-1.4,5.21   c-2.24,5.07,3.1,8.66,5.91,9.22c5.48,1.09,8.05,0.33,12.93,0.9c13.4,1.58,18.14-3.47,22.26-2.01c5.47,1.95,12.07,2.2,19.15,1.9   c14.15-0.59,12.69-1.32,20.65-4.01c4.57-1.54,7.6-3.21,9.42-7.62c-0.46-2.74-1.84-4.21-5.91-10.73c-0.62-0.99-1.5-1.4-2.61-1.8   c8.31-5.54,6.97-7.62,1.7-16.24c-7.82-1.36-14.52,0.11-16.44-1.1c-1.73-1.09-4.23-2.3-4.61-3.41c-1.01-2.94-6.37-2.87-10.33-9.32   c1.38-2.01,6.62-9.69,8.62-11.03c9.84-7.48,11.42-12.89,15.34-15.64c6.68-4.68,16.6-20.69,19.75-28.17   c0.96-2.28,2.6-3.83,8.72-11.33c3.52-4.31,3.03-2.15,4.61-4.91c1.63-3.26,2.39-8.09,3.61-10.93c2.67-6.21,3.93-15.8-0.7-21.25   c-5.67-6.68-3.87-6.96-11.03-9.82c-2.2-7.72-7.77-10.77-10.83-10.23c-2.05,0.36-5.31-5.6-42.61-4.91c-5.89,0.11-5.9,0.7-12.83,0.7   c8.59-11.65,7.6-12,15.04-22.26c3.13-4.32,1.53-5.36,4.11-7.62c3.88,0,8.51,0.14,11.93-1.6c11.19-5.7,11.12-12.11,12.03-13.53   c5.79-9.03-5.95-39.32-9.32-37.29c6.05,18.16,11.69,21.85,6.62,39.3c-0.91,3.12-2.76,4.55-7.62,7.72   c-5.09,3.32-8.45,3.71-13.53,3.71c-4.6,6.28-2.34,4.07-5.61,4.11c-13.37,0.16-13.02,0.6-16.44-0.3   c-10.1-2.66-32.52-9.78-39.7-15.94c5.02-8.29,2.18-24.73,11.23-49.62c0.68-1.86,4.23-11.11,6.32-13.23   c3.12-3.17,4.23-5.27,11.43-15.04c10.33,0.2,19.85,1.8,27.97,8.72c-0.9,1-2.61,1-3.41,2.61c14.96-3.74,9.19-8.02,34.49-8.02   c2.12,0,1.45-0.24,10.83,3.01c0.9-0.3,1.7-0.8,2.51-0.8c1.5,0,2.48-0.63,3.51-1.5c6.74-5.77,11-6.81,32.78-14.34   c3.07-1.32,1.84,0.9,5.01-1.3c15.4-10.66,14.32-10.16,15.94-11.63c4.52-4.09,23.62-9.48,37.79-16.64c5.34-2.7,5.2,0.12,22.26-9.62   c25.19-14.39,3.16-6.58,32.38-22.05c0.5-0.2,1-0.2,1,0.6c-1.4,0.84-5.14,2.6-5.51,4.11c1.31,1.57,6.15-4.02,7.62-4.51   c4.91-1.3,8.92-4.61,13.53-6.62c1.01-0.57,0.7-0.66,3.61-2.61c0.96,3.08-0.1,3.29-3.01,6.92c-0.83-0.42-1.78-0.53-2.01-0.6   c-16.61,9.23,0.1,1.71-21.35,12.63c-0.6,0.31-0.9,0.8,0,1.5c8.1-3.06,8.96-5,20.65-11.93c0.4,0.6,0.7,1,1.1,1.6   c3.37-3.11,6.59-5.65,6.52-10.02C767.98,211.16,769.63,213.19,765.12,209.59z M524.23,213c0.07-0.07,0.13-0.04,0.2-0.02   c-0.1,0.07-0.22,0.15-0.3,0.22C524.13,213.2,524.13,213,524.23,213z M479.42,481.56c-6.88-1.39-17.44-3.21-26.87-8.72   c-5.11-2.99-13.67-11.49-13.73-17.14c-0.16-13.85,3.62-23.22,11.03-33.88c4.59-6.6,14.46-14.37,16.14-13.53   c13.65,8.68,12.52,5.33,25.86,15.34c0.2,0.1,0.2,0.4,0.3,0.8c-1.6,0.3-3.21,0.6-4.81,0.9c-4.45-2.4-2.95-2.58-4.61-3.41   c-2.81-1-5.71-1.7-9.12-0.6c2.8,1.16,10.83,0.18,2.21,1.5c4.01,0.8,8.02,0.5,10.83,3.91c2.91-0.3,6.01-0.7,9.02-1   c0.96,0.48,0.46,1.87,0.52,1.92c-1.83,0.42,0.53-1.37-7.04,6.2c0.2,0.4,0.5,0.7,0.7,1.1c0-1,1.03,0,0,0   c-3.66,10.97-4.8,12.33-5.31,31.38C484.1,482.29,491.28,483.96,479.42,481.56z M535.05,507.43c-0.88-1.32-1.07-0.68,7.42-22.96   c1.71-4.5,6.63-13.17,11.13-14.94c4.91-1.93,4.91-1.74,18.65-3.51c2.49,0,2.79-0.55-1.2,2.11c-23.1,15.4-32.15,50.47-33.38,52.93   c-19.7,39.4-15.68,34.71-18.65,29.77C520.89,544.88,536.24,509.8,535.05,507.43z M513.2,550.84c1.11-1.63,2.77-0.13,4.11,1.2   c2.47,5.24,2.44,4.51,1.8,6.42c-3.47,0-2.72-2.94-7.72-0.8C510.99,555.05,511.85,552.81,513.2,550.84z M506.38,571.89   c-0.2,0.1-0.3,0.2-0.4,0.3C505.98,571.95,506.21,571.89,506.38,571.89z M504.98,574.9c-0.1,0.6-0.2,1.2-0.4,2.51   C504.18,576.1,504.28,575.4,504.98,574.9z M504.68,579.31c-0.1,0-0.2,0.1-0.3,0.1c0.1-0.1,0.1-0.2,0.1-0.3   C504.48,578.95,504.86,578.94,504.68,579.31z M556.11,551.74c1.27-2.54,1.62-0.21,0,0.6C556.21,552.14,556.11,551.94,556.11,551.74   z M560.12,552.94c0.5,0.3,1,0.5,1.6,0.6c0,2.54-3.16,2.72-1.5,7.22c1.91,0.72,1.68-1.31,4.21-5.11c2.82,2.01,1.88,0.94,0.9,4.11   c-1.1,3.56,1.06,5,3.81-0.5c1.8,0.5,1.8,0.5,2,2.11c0.5,0.5,0.8,0.1,1.2-0.2c3.06-2.26,6.22-0.13,12.33-1.6   c1.7,2.61,2.51,5.51,3.91,8.02c-0.16,2.51-3.52,4.27-6.82,5.91c-3.02,1.29-18.18-3.72-20.65-7.82c-1.32-2.19-2.93-3-5.01-5.91   C558.21,557.95,558.81,555.35,560.12,552.94z M555.91,552.44c0.13,0,0.18-0.08-0.1,0.2C555.8,552.54,555.8,552.44,555.91,552.44z    M554.9,554.24c0,0.26-0.06,0.16-0.16,0.21C554.84,554.38,554.9,554.31,554.9,554.24z M556.01,562.87c0,1,0.2,1.5,0,1.8   c-3.28,5-5.54,6.16-3.71,9.82c4.11-0.8,4.51-4.51,6.42-6.62c3.21,1.07-5.08,6.9-1.4,9.72c3.41-1.1,3.41-4.91,5.51-7.22   c0.5,0.3,0.8,0.5,1.3,0.9c-1.63,2.99-2.75,4.55-2.61,6.32c0,1.4,1.48,2.53,2.71,1.3c2-1.71,2.73-4.47,4.11-5.61   c0.9,0.4,1.8,0.8,2.81,1.3c-0.2,2.31-2,3.71-2.61,5.61c1.27,2.28,3.84-2.47,5.01-4.81c3.61,0.5,7.02,1,10.73,1.6   c2.21,3.21,4.11,6.92,5.71,10.83c-1.6,3.2-12.24,6.48-15.74,7.32c-5.51,1.32-7.82,0.8-17.94,0.8c-13.19,0-13.75-2.99-16.14-0.5   c-0.63,0.65-11.19,1.46-16.04,0.7c-3.61,0.6-7.12-0.5-10.73-0.5c-2.51,0-5.03-0.76-7.42-1.5c-0.91-0.28-1.7-1.2-2.71-1.9   c5.1-17,3.76-16.99,5.61-19.25c4.27-5.21-1.08-8.78,4.51-14.64c1.4-0.5,2.31,0.3,3.41,1.1c0.5,3.41,1.8,6.62,4.51,9.32   c5.56,2.09,12.97-3.84,16.74-10.23c1.75-2.96-1.49-1.87,6.42-3.21c3.28-0.56,6.25-1.37,8.22,2.21c1.48,2.37,1.98,3.42-0.1,5.71   c-4,4.41-6.04,5.05-6.52,7.42c1.43,2,6.59-3.33,8.32-5.51C554.89,564.56,555.2,563.97,556.01,562.87z M553.3,546.73   c2.7,0.9,0.83,2.89-1.4,6.12c-0.2,0.2-0.6,0.3-1,0.4C549.42,551.98,550.41,551.21,553.3,546.73z M613.75,443.47   c1.77,2.36,2.57,11.24,0.4,16.34c-6.07,14.26,2.89,2.9-13.63,24.46c-1,1.31-2.49,2.21-3.21,3.81c-1.72,3.8-3.05,5.72-11.03,16.84   c-1.92,2.67-3.36,2.08-14.24,16.14c-3.41,4.41-1.67,0.98-8.12,8.02c-25.3,27.6-7.52,18.92-26.06,25.46   c-2.88,7.93-6.65,10.44-15.04,12.33c-0.3,0.1-0.5-0.1-1-0.2c-0.4-0.9-1-1.9-1.5-3.01c-0.5-1.1-0.8-2.21-1.2-3.21   c24.1-32.13,23.74-72.91,57.74-93.73c1.61-0.99,2.71-2.41,3.91-3.81c-27.54,2.69-20.71,2.67-38.4,9.52   c-22.53,8.73-31.31,11.52-54.33,10.43c-3.48-3.48-1.1-27.4-0.5-32.28c1.33-10.8,5.87-17.25,8.72-22.96   c-0.02,0.01-0.04,0.01-0.07,0.02c0.07-0.03,0.35-0.55,1.27-2.02c24.35-3.48,49.43-4.42,73.58,0.3   C606.76,432.9,606.06,431.59,613.75,443.47z M592.4,422.62c3.79,0.91,3.73,2.04,9.22,7.82c-16.29-0.58-24.06-9.92-69.67-9.92   c0.9-0.7,1.3-1.2,1.8-1.3C551.69,417.35,574.39,418.27,592.4,422.62z M523.22,388.53c0.5,0.9-0.3,2.51,1,3.61   c0.8-1.14-0.29-3.21,1.2-3.21c26.36,5.65,30.44-1.66,23.26,6.82c-5.63,6.65-8.03,12.59-9.02,14.24   c-1.67,2.77-1.96,2.89-13.73,10.63c-10.43,0.3-21.05,2.01-31.58,3.81c-8.09-7.19-11.15-11.55-23.16-16.24   c-3.27-1.63-3.95-0.58-0.9-2.51c4.71-2.98,13.5-6.88,17.54-18.14c0.86-2.4,5.17-11.56,6.72-12.33   C505.98,382.37,505.05,381.76,523.22,388.53z M664.17,264.13c-0.52,1.55-12.11,4.56-13.93,7.72c-0.29,0.51-1.01,0.79-1.5,1   c-7.01,2.93-9.51,6.62-11.53,6.42c-0.61,1.22,0.73,0.08-3.11,3.91c-7.79,1.67-29.24,7-34.39,13.13c-1.6,1.91-3.93,2.16-5.91,3.11   c-1.52,0.72-5.38-2.98-15.24-3.41c-1.81-0.08-3.61,0.1-5.31-0.5c4.91-0.3,9.73-0.92,14.64,0.1c3.91,0.81,8.9-0.88,12.43-2.71   c16.08-8.33,27-10.82,33.18-12.83c5.57-1.82,1.05,1.86,11.13-8.22c0.72-0.72,12.83-5.99,16.74-7.22   C662.27,264.34,663.27,264.33,664.17,264.13c0.2-0.5,0.5-0.7,1.2-0.2C664.77,263.93,664.47,264.03,664.17,264.13z M696.05,251.8   c1.43-1.05,2.33-1.53,3.44-1.49C698.87,251.4,697.7,251.51,696.05,251.8z M699.69,250.23c0.27-0.55,0.75-0.56,1.26-0.62   C700.67,250.32,700.15,250.38,699.69,250.23z M724.02,237.16c-5.13,2.33-8.32,3.56-11.03,5.91c-1,1-0.61-0.24-6.12,3.61   c-1.33,0.93-2.82,1.44-4.24,2.09c0.26-0.41,0.47-1.01,0.93-1.28c2.71-1.9,4.81-4.61,8.02-5.91c0.2-0.1,0.5-0.2,0.6-0.4   c1.06-2.03,3.32-2.19,5.11-3.01c5.42-2.48,3.18-1.83,7.02-3.11C724.22,236.06,724.12,236.56,724.02,237.16z M750.39,221.22   c-0.1,0-1.04-0.3,0.22-0.3C750.57,221.04,750.52,221.15,750.39,221.22z M750.87,220.71c0.45-1.26,1.54-1.38,2.66-1.3   C752.86,220.38,751.95,220.69,750.87,220.71z M755,218.71C754.31,220.3,752.25,218.71,755,218.71c0.1-0.1,0.3-0.3,0.4-0.5   c0.1,0,0.2,0.1,0.3,0.1C755.4,218.41,755.2,218.51,755,218.71z M764.12,213.2c-1.3,1.5-2.71,2.91-4.81,3.31   c0.1-0.1-0.1-0.4-0.1-0.6c1.1-1.8,2.71-3.11,4.81-4.31C764.12,212.4,764.32,213,764.12,213.2z"/>
	<path d="M504.98,307.23l0.1,0.1C505.04,307.13,505.1,307.16,504.98,307.23z"/>
	<path d="M519.62,218.71c0.07-0.3,0.11-0.31-0.1-0.1L519.62,218.71z"/>
	<path d="M509.69,260.32l-0.1,0.1C509.75,260.52,509.69,260.47,509.69,260.32z"/>
	<path d="M520.12,224.83c-0.2,0.05-0.14,0.06-0.1,0.1L520.12,224.83z"/>
	<path d="M520.62,265.53c0,0.03,0,0.07,0,0.1C520.72,265.63,520.78,265.65,520.62,265.53z"/>
	<path d="M649.24,304.33c-5.82,4.27-7.07,0.81-11.63,3.91c-4.1,2.79-38.29,21.74-63.66,23.06c-4.93,0.26-5.25,0.92-7.82,2.21   c-0.3,1.6-1.7,1.91-2.71,2.71c-1.59,1.27-12.02,9.65-11.03,11.43c0.9-0.7,1.7-1.3,3.01-2.21c-0.21,2.09,0.87,0.32-5.41,10.43   c-0.58,0.93-4.06,2.68-5.11,3.21c-3.53,1.77-3.18,0.3-5.81,0.3c-5.41,0.54-15.41-1.09-21.75-8.32c-2.57-2.93-3.98-3.37-4.51-6.72   c-0.19-1.17-2.3-6.79-1.2-12.43c1.13-5.81,2.31-11.63,6.52-16.14c2.51-4.21,6.32-7.21,10.43-9.72c11.58-7.08,18.33,1.66,17.94-1.8   c-1.2-0.3-2.4-0.71-3.71-1.1c-10.27-3.05-19.86,2.9-26.67,11.03c-10.22,12.22-13.28,54.29,29.07,46.92c2.81-0.49,5.12-2,6.52-4.61   c1.54-2.89,5.5-7.5,5.31-12.23c19.56-18.59,15.1-6.18,45.81-16.64c7.89-2.69,30.67-13.21,36.49-18.65c12.61,0,6.84-1.65,15.94-5.71   c28.76-12.83,54.99-40.41,62.55-45.11c0.5-0.2,0.8-0.8,1.5-1.6c-8.69,0.87-24.81,21.96-42.81,32.58   C664.52,296.16,656.38,299.08,649.24,304.33z"/>
	<path d="M747.38,236.86c-4.49,3.54-1.94,2.97-5.81,5.61c-8.01,5.48-9.19,6.03-10.02,8.02c-0.09,0.26-5.31,4.68-10.13,3.61   c-0.66-0.33-1.14,0.36-2,0.9c3.7,0.96,5.64,2,14.13-2.11c1.49-0.72,3.18-1.53,4.11-2.81c2.23-3.06,5.15-5.58,7.52-8.52   c2.96-3.67,5.55-4.35,6.82-6.22c2.43-3.58,4.78-4.97,8.02-9.02C757.8,224.61,753.48,232.05,747.38,236.86z M733.38,250.89   c0.32-1.02,1.1-1.39,2.17-1.2C735.15,250.68,734.37,250.88,733.38,250.89z M735.75,249.49c-0.11,0.11,0,0,0.1-0.2   C735.85,249.39,735.75,249.49,735.75,249.49z"/>
	<path d="M575.65,321.27c-0.32-0.32,0.67-0.54-9.62,3.11c-0.2,0.1-0.2,0.6-0.3,0.9C569.44,325.78,572.85,324.38,575.65,321.27z"/>
	<path d="M643.92,293.7c1.13-1.48,2.21-2.81,2.71-4.81c-1.5-0.5-2.31,0.2-3.21,0.9C639.87,292.55,642.37,295.73,643.92,293.7z"/>
	<path d="M542.67,357.76c2.21-0.6,3.47-1.46,5.51-4.41C551.7,348.29,545.12,354.3,542.67,357.76z"/>
	<path d="M538.06,311.64c-0.78,1.56,2.69,3.72,5.91,1C540.11,311.14,538.71,310.35,538.06,311.64z"/>
	<path d="M715.8,251.19c-1.6,1.2-2.71,2.81-3.71,4.71c2.01-0.1,2.71-0.7,4.61-4.51C716.4,251.3,715.9,251.09,715.8,251.19z"/>
	<path d="M508.89,331.59c-0.1-0.3-0.5-0.6-1-1.2c-0.2,2.41-0.2,4.31,1.2,6.32C509.69,334.8,509.09,333.2,508.89,331.59z"/>
	<path d="M640.31,305.53c1.6-0.4,3.01-1.1,4.61-2.51C642.52,302.92,641.12,303.62,640.31,305.53z"/>
	<path d="M611.84,311.74c-1.6,0.4-2.91,1.2-4.11,2.41c0.3,0.2,0.5,0.4,0.7,0.4C611.8,313.06,612.14,312.65,611.84,311.74z"/>
	<path d="M532.05,366.18c-1.9,0-2.31,0.3-4.41,2.51C529.64,368.28,530.84,367.38,532.05,366.18z"/>
	<path d="M508.99,339.51c-0.9,1.5-0.7,3.11-0.1,5.01C509.79,342.72,509.69,341.12,508.99,339.51z"/>
	<path d="M648.33,286.48c0.4-0.6,0.8-1.2,1.1-1.7C647.83,285.28,647.83,285.28,648.33,286.48z"/>
	<path d="M553.4,382.22c0.4,1.1,0.4,1.1,2,1.4C555,382.42,554.4,382.02,553.4,382.22z"/>
	<path d="M548.39,379.11c0.2,0.2,0.6,0,0.9-0.1C547.83,376.1,546.25,378.04,548.39,379.11z"/>
	<path d="M507.39,350.24c0.67-1.11,0.91-0.69,0.5-1.5C507.13,349.12,507.39,348.83,507.39,350.24z"/>
	<path d="M548.29,309.64c-0.51,0.77-0.82,0.48-0.4,0.9C548.73,309.7,548.76,310.11,548.29,309.64z"/>
	<path d="M614.55,308.84c-0.94,0-0.5,0.45-0.5,0.7c0.3-0.1,0.6-0.2,0.9-0.3C614.75,309.04,614.65,308.84,614.55,308.84z"/>
	<path d="M577.96,318.16c0,0.1,0.2,0.3,0.3,0.5c0.2-0.3,0.4-0.5,0.6-0.8C578.37,317.61,578.28,317.51,577.96,318.16z"/>
	<path d="M705.68,262.62c0.3-0.4,0.6-0.7,1-1.1C705.48,261.22,705.17,261.52,705.68,262.62z"/>
	<path d="M710.09,258.71c-0.32-0.32-0.27-0.23-0.9,0.4C709.51,259.28,709.4,259.74,710.09,258.71z"/>
	<path d="M546.18,311.34c-0.16-0.16-0.07-0.37-0.8,0C545.7,311.67,545.33,311.77,546.18,311.34z"/>
	<path d="M504.88,307.23l-0.1,0.2C505.03,307.31,505.01,307.36,504.88,307.23z"/>
	<path d="M140.28,109.14l-0.1,0.1C140.43,109.12,140.42,109.14,140.28,109.14z"/>
	<path d="M524.33,372.19c-0.03,0.03-0.06,0.08-0.09,0.12C524.29,372.28,524.33,372.25,524.33,372.19z"/>
	<path d="M524.03,372.6c0.1-0.1,0.33-0.43,0.1-0.2C524.03,372.39,524.03,372.49,524.03,372.6z"/>
	<path d="M524.63,372.09c0.1,0,0.1-0.1,0.1-0.2C524.45,372.17,524.49,372.09,524.63,372.09z"/>
	<path d="M524.52,372.1c-0.05,0.01-0.09,0.03-0.09,0.09C524.46,372.16,524.49,372.13,524.52,372.1z"/>
	<path d="M181.48,224.43c-0.2-2.91-1.6-4.81-4.01-5.61c-0.58-0.19-1.91,0.8-1.2,1.5C177.07,221.52,179.77,223.63,181.48,224.43z"/>
	<path d="M198.52,341.82c0.1-3.91,0-5.81-1-7.42c-0.7,2.21-0.6,6.52,0.1,9.12C198.62,343.32,198.5,342.52,198.52,341.82z"/>
	<path d="M209.15,325.08c-1.1,4.67-0.67,3.3-0.1,4.71C210.35,328.39,210.35,327.18,209.15,325.08z"/>
	<path d="M201.13,123.68c-1,1.8-1.1,3.31-0.7,4.91C201.23,127.19,201.83,125.68,201.13,123.68z"/>
	<path d="M199.52,297.11c-0.7-1.41-0.7-3.11-2.21-3.11C197.42,295.5,197.62,296.81,199.52,297.11z"/>
	<path d="M216.97,322.27c0.5-1,0.4-1.7-0.7-2.61C215.86,320.97,215.96,321.77,216.97,322.27z"/>
	<path d="M203.43,338.51c-0.29,0-0.2-0.74-0.2,2.61C203.5,341.12,203.43,341.51,203.43,338.51z"/>
	<path d="M196.01,286.68c0-1.14-0.42-1-0.7-1C195.31,287.5,195.11,286.91,196.01,286.68z"/>
	<path d="M185.59,236.06c-0.33-2.34,0.09-2.11-0.6-2.11c0,0.7,0.1,1.4,0.2,2.11C185.29,236.06,185.49,236.06,185.59,236.06z"/>
	<path d="M216.47,318.06c-0.2-0.4-0.4-0.7-0.7-1.1C215.26,317.66,215.66,318.06,216.47,318.06z"/>
	<path d="M182.48,110.55c-1,0.1-1.6,0.1-2.61,0.1C180.88,111.55,181.58,111.45,182.48,110.55z"/>
	<path d="M184.29,229.14c-0.1-0.2-0.2-0.4-0.4-0.6c-0.2,0.2-0.4,0.4-0.4,0.5C184.02,230.11,184.05,229.6,184.29,229.14z"/>
	<path d="M176.07,112.85c-0.4-0.4,0.1-0.4-0.7,0C175.82,113.31,175.46,113.46,176.07,112.85z"/>
	<path d="M196.32,289.69l0.2,0.1C196.64,289.54,196.71,289.56,196.32,289.69z"/>
	<path d="M194.71,281.67l-0.1,0.3C194.99,281.84,194.97,281.93,194.71,281.67z"/>
	<path d="M168.25,454.2c0,4.31-0.2,8.72,0.5,13.53c1.2-1.9,1.04-3.61,1.1-5.21c0.23-5.91,0.1-6.32-1.1-9.12   C168.55,453.7,168.25,453.9,168.25,454.2z"/>
	<path d="M199.02,407.88c0.49-1.21,1.1-2.61,0-4.61c-3.14,9.41-4.8,9.18-4.51,11.63C197.02,413,198,410.38,199.02,407.88z"/>
	<path d="M169.65,397.46c-0.62,3.71-0.62,8.74-0.3,10.63c2.2,0,1.19-8.16,1.1-11.93C169.95,396.86,169.65,397.16,169.65,397.46z"/>
	<path d="M186.69,431.34c0-0.2-0.4-0.4-0.7-0.6c-1.1,4.61-1.2,6.62,0.2,9.12C186.79,437.05,186.89,434.25,186.69,431.34z"/>
	<path d="M192,417.21c0-0.1-0.5-0.3-0.6-0.2c-0.84,0.56-0.8,0.63-0.5,1.8C191.92,418.05,192,418.12,192,417.21z"/>
	<path d="M186.09,427.73c0-0.1-0.1-0.1-0.2-0.1c0,0.3,0,0.6,0,0.9C186.16,428.53,186.09,428.69,186.09,427.73z"/>
	<path d="M168.55,475.15c0,0.1,0.1,0.3,0.2,0.4c0-0.1,0.1-0.2,0.1-0.3C168.63,475.03,168.93,474.77,168.55,475.15z"/>
	<path d="M167.74,483.07c0.1,0.1,0.1,0.2,0.1,0.3c0.1-0.1,0.43-0.17,0.2-0.4C167.95,483.07,167.84,483.07,167.74,483.07z"/>
	<path d="M183.98,423.02c-0.26,0-0.23-0.05-0.1,0.2L183.98,423.02z"/>
	<path d="M165.63,47.95c0-0.06,0.01-0.11,0.01-0.16C165.52,47.91,165.51,47.88,165.63,47.95z"/>
	<path d="M174.06,42.38c-0.28-0.19-0.82-0.12-1.22-0.19c-0.6-3.43,5.38,3.82,7.94,2.8c0.6-0.3,1.2-0.9,0.8-1.8   c-1.4-0.2-2.81-0.3-4.11-0.5c-1.5-1.2-2.41-2.81-4.41-3.31c-2.51,2.04-6.28,5.83-5.31,8.92c0.09,0.3-0.2,0.6-0.3,0.9   c-0.76-0.48-1.25-0.86-1.81-1.24c-0.03,0.18-0.07,0.39,0.01,0.54c2.99,3.99,0.18,6.53,3.01,2.01c5.25,4.66,2.34,6.75,5.21,8.52   c2.86-0.34,4.22-3.77,2.11-4.01c-0.5,0.7-1,1.4-1.6,2.11c-0.3-0.4-0.61-0.5-0.6-0.7c0.05-2.01-0.7-3.71-2.01-5.21   c-0.3-0.3-0.21-0.88-0.3-1.28c0.63,0.46,1.67,1.35,3.31,2.99c2.71-1.7,2.71-1.7,1.3-3.81c0.5-0.8,1.1-1.7,1.6-2.51   C176.67,44.78,175.36,43.58,174.06,42.38z M172.62,42.28c-0.17,0.11-0.34,0.23-0.51,0.34C172.23,42.42,172.39,42.3,172.62,42.28z    M170.05,45.29c0.48,0.41,0.38,0.36,0.49,3.81C169.34,48.01,169.08,46.84,170.05,45.29z M171.43,49.9   C170.7,50,170.07,48.91,171.43,49.9L171.43,49.9z M174.16,50c0.05,0.1,0.46,0.66,0.1,0.3c-0.8-0.8-2.08-0.12-3.11-3.41   c0.4-1.3,1.5-2,2.41-2.91c0.9,0.6-0.1,1,0,1.5c0.8,0.4,2.21-0.6,2.61,1.2C174.27,48.59,173.77,48.45,174.16,50z"/>
	<path d="M146.89,19.92c-8.53-1.91-8.4,10.71-7.62,19.35c0.97-5.32,0.18-11.7,2.61-16.24c1.76-3.31,6.04-2.79,7.16-0.32   c0.91-0.46,0.97-0.45,1.31,0.57c0.88-0.81,1.76-2.38,2.06-3.66C148.75,22.87,149.25,20.45,146.89,19.92z"/>
	<path d="M149,22.73l0.1,0.1C149.03,22.69,149.05,22.7,149,22.73z"/>
	<path d="M150.3,23.33l0.1,0.1C150.34,23.25,150.37,23.27,150.3,23.33z"/>
	<path d="M179.27,34.76c1.91,0,5.14-1.17,6.32-2.71c-2.81-2.81-1.88,0.88-4.37,0.7c0.17-0.37,0.27-0.76,0.46-1.4   c-7.71,2.57-8.85,1.14-17.24-1c-4.83-1.23,1.22,1.83,4.61,2.51C172.46,33.53,175.86,34.16,179.27,34.76z M181.02,32.86   c-0.54,1.07-0.58,1.06-1.54,0.49C179.84,32.71,180.46,32.9,181.02,32.86z"/>
	<path d="M205.24,42.78c1.2,1.1,2.61,1.9,4.71,2.21c-1.2-2.21,1.1-3.51,0.7-5.31c0.7-0.6,1.3-0.9,1.8-1.4c0.3-0.3,0.3-0.8,0.5-1.2   c-4.2,1.57-3.62-0.6-9.62,5.01C205.84,42.08,204.87,42.36,205.24,42.78z M206.74,40.77c0.5,0.6,0.4,1.22-0.3,1.4   c-0.37,0.1-0.83-0.07-1.29-0.09C205.19,41.06,205.87,40.77,206.74,40.77z"/>
	<path d="M158.12,46.99c4.68,4.54,3.23,4.24,7.62,8.62c3.88,2.59-6.11-9.37-6.42-9.42c-1.51-0.28-2-1.6-2.91-2.51   s-1.7-1.8-2.61-2.81c-0.1,0.2-0.3,0.4-0.5,0.3C154.68,43.01,153.43,42.44,158.12,46.99z"/>
	<path d="M180.08,59.82c-1.8,9.22,9.05,13.62,11.83,12.23C188.7,68.85,183.39,71.96,180.08,59.82z"/>
	<path d="M182.97,29.79c1.91-0.53,3.57-1.68,5.12-2.95c0.3-0.2,0.4-0.8,0.5-1.2c-0.98,0-0.68-0.48-0.9-1.1c-0.3,0-0.6,0-0.7,0.1   c-2.24,2.16-4.04,1.17-9.82,0.3c2.51,1.7,4.91,1.8,6.92,3.01C183.71,28.58,183.34,29.16,182.97,29.79z"/>
	<path d="M182.97,29.79c-0.06,0.02-0.12,0.04-0.19,0.06C182.9,29.96,182.87,29.99,182.97,29.79z"/>
	<path d="M199.72,14.11c3.31,1.8,3.31,1.8,6.01,1.3c-1.03-2.47-6.85-3.33-9.42-2.61C199.91,16.16,202.13,18.44,199.72,14.11z"/>
	<path d="M159.72,17.32c4.21-1.9,8.62-3.11,13.33-4.41C170.15,12.23,162.8,14.07,159.72,17.32z"/>
	<path d="M214.36,32.55c-1.57-2.56-7.58-0.78-10.53,0.8C207.27,33.7,203.23,33.7,214.36,32.55z"/>
	<path d="M185.79,15.31c11.58,4.34,9.52,3.51,10.13,3.21c-2.61-1.9-7.12-3.51-10.93-3.81C185.29,14.91,185.49,15.31,185.79,15.31z"/>
	<path d="M189.3,19.52c-6.04-1.42-4.39-1.42-7.22,0c1.74,0.97,3.76,1.28,5.7,1.57C187.77,20.21,188.75,20.07,189.3,19.52z"/>
	<path d="M184.39,39.47c0.1-0.1,0-0.5-0.1-1.2c-2.11,1.8-4.41,2.41-7.42,2.61c1,0.6,1.2,0.9,1.5,0.9   C180.88,42.28,182.88,41.38,184.39,39.47z"/>
	<path d="M178.97,37.57c-0.7,0.5-1.7,0.5-2.31,1.6c3.11-0.2,5.21-1.7,7.32-3.81C182.82,34.56,182.81,35.17,178.97,37.57z"/>
	<path d="M175.46,8.19c-0.29,0.2-0.31,0.14,0.1,0.1L175.46,8.19z"/>
	<path d="M168.35,10.5c-0.3,0.1-0.5,0.5-0.7,0.7c2.34-0.19,5.06-1.15,7.61-2.87C172.78,8.6,170.65,9.73,168.35,10.5z"/>
	<path d="M142.99,37.06c0.09,0.12-0.56,0.86,0.09,2.01C143.08,36.48,143.12,36.81,142.99,37.06z"/>
	<path d="M144.29,29.15c-1.66,3.94-1.47,10.56-0.6,6.32C144.87,29.68,146.2,25.32,144.29,29.15z"/>
	<path d="M162.73,55.11c-2.37,0.4-3.37-2.78-5.09-3.46c0.18,1.69,1.64,2.56,2.79,3.66c0.82,0.78,2,0.2,3.01,0.4   C163.13,55.51,162.93,55.01,162.73,55.11z"/>
	<path d="M157.62,51.5l-0.1,0.1C157.71,51.65,157.62,51.72,157.62,51.5z"/>
	<path d="M168.15,61.83c-0.9-1.5-1.8-2.91-3.41-3.81c0.5,1.6,1.7,3.21,3.41,4.91C168.15,62.43,168.25,62.03,168.15,61.83z"/>
	<path d="M180.28,28.74c-4.64-1.16-2.63-0.81-4.51-0.6C177.67,28.34,178.67,29.45,180.28,28.74z"/>
	<path d="M186.29,23.13c1.6-0.6,1.6-0.6,2.51-1.7c-0.89-0.29-1.07,0-0.8-0.4c-0.1,0.1-0.08,0.1-0.21,0.07   C187.78,22.01,185.95,22.33,186.29,23.13z"/>
	<path d="M166.54,44.48c-0.13-1.28-1.63-1.39-2.51-1.6C164.54,43.98,165.44,44.18,166.54,44.48z"/>
	<path d="M155.31,48.79c0.13,0.02,0.24,0.14,0.1-0.1L155.31,48.79z"/>
	<path d="M155.48,48.84c0.46,1.07,0.8,2.28,2.14,2.66C157.24,50.35,156.75,49.21,155.48,48.84z"/>
	<path d="M156.92,20.52c0.8-0.1,1.7-0.2,2.61-0.2C158.62,19.92,157.72,19.72,156.92,20.52z"/>
	<path d="M163.42,55.87c-0.04,0.93,0.36,1.67,1.41,2.05C164.74,56.95,164.27,56.27,163.42,55.87z"/>
	<path d="M163.43,55.71l-0.1,0.1C163.48,55.88,163.4,55.93,163.43,55.71z"/>
	<path d="M141.18,17.72c0.6-0.2,1.3-0.3,2-0.4C142.48,17.32,141.58,16.51,141.18,17.72z"/>
	<path d="M197.72,16.01c-0.5-1.1-1.1-1.4-2.01-1.2C196.01,15.71,196.72,15.81,197.72,16.01z"/>
	<path d="M163.94,45.89c0.05,0.02,0.08,0.04,0.13,0.06C164.02,45.74,164.06,45.76,163.94,45.89z"/>
	<path d="M165.54,47.89c-0.1-0.95-0.57-1.62-1.47-1.94C164.25,46.88,164.4,47.7,165.54,47.89z"/>
	<path d="M146.11,26.17c0.9-0.42,1.28-1.18,1.28-2.14C146.54,24.5,146.15,25.17,146.11,26.17z"/>
	<path d="M141.28,59.62c0.21-0.41,0.51-0.19,0.1-1C141.28,58.92,141.28,59.22,141.28,59.62z"/>
	<path d="M183.08,14.71c0.8,0,1.4,0,1.9,0C184.59,14.11,184.09,13.91,183.08,14.71z"/>
	<path d="M195.69,14.71c-0.14-0.77-0.8-0.61-1.28-0.7C194.5,14.76,195.12,14.72,195.69,14.71z"/>
	<path d="M195.81,14.71c-0.18,0-0.1-0.02-0.1,0.1L195.81,14.71z"/>
	<path d="M194.31,13.9c0.06,0,0.11,0.01,0.2,0.01C194.44,13.91,194.37,13.91,194.31,13.9z"/>
	<path d="M194.05,13.87c0.02,0,0.12,0.02,0.26,0.03C194.17,13.88,194.05,13.86,194.05,13.87z"/>
	<path d="M194.11,13.91c-0.05-0.02-0.06-0.04-0.06-0.04S194.04,13.88,194.11,13.91z"/>
	<path d="M167.74,39.77c0.13-0.13,0.18-0.3-0.2-0.3C167.28,39.74,167.58,39.61,167.74,39.77z"/>
	<path d="M146.05,26.2c-0.1-0.1-0.06-0.07-0.06,0.04l0.01,0.01c0,0.01,0,0.01,0,0.02l0,0c-0.7,0.22-0.71,0.8-0.61,1.47   c0.66-0.28,0.7-0.83,0.62-1.46l0.07,0.06C146.08,26.13,146.13,26.16,146.05,26.2z"/>
	<path d="M188.4,28.94c-0.48,0-0.5,0.41-0.5,0.9c0.1-0.2,0.3-0.4,0.6-0.6C188.5,29.25,188.4,29.05,188.4,28.94z"/>
	<path d="M176.37,7.89c-0.1,0-0.2-0.1-0.3,0c-0.2,0.1-0.3,0.3-0.5,0.4c0.1-0.1,0.3-0.1,0.6-0.1C176.27,8.19,176.27,7.99,176.37,7.89   z"/>
	<path d="M155.82,20.72c0.33,0.16,0.65,0.41,1-0.3c-0.1,0.1-0.4,0.2-0.7,0.2C156.02,20.62,155.92,20.72,155.82,20.72z"/>
	<path d="M184.39,18.22c-0.4-0.1-0.7-0.2-0.2,0C184.25,18.22,184.32,18.22,184.39,18.22z"/>
	<path d="M165.64,35.76c-0.08,0-0.19,0-0.3,0C165.64,35.76,165.94,35.86,165.64,35.76z"/>
	<path d="M145.29,18.12c0.2,0.1,0.5,0.2,0.7,0.2C145.79,18.22,145.49,18.22,145.29,18.12z"/>
	<path d="M140.78,17.72c-0.07,0.03-0.07,0.04-0.04,0.04C140.75,17.74,140.75,17.74,140.78,17.72z"/>
	<path d="M141.08,17.62c-0.13,0.07-0.3,0.13-0.34,0.14C140.69,17.81,140.91,17.79,141.08,17.62z"/>
	<path d="M154.71,47.19c-0.09,0.57,0.09,1.04,0.62,1.35C155.4,47.99,155.35,47.46,154.71,47.19z"/>
	<path d="M155.31,48.69l0.1-0.1C155.29,48.51,155.35,48.52,155.31,48.69z"/>
	<path d="M163.84,45.56c-0.05-0.07-0.06-0.08,0,0.03C163.84,45.57,163.84,45.57,163.84,45.56z"/>
	<path d="M163.84,45.56c0.04,0.05,0.11,0.14,0.2,0.23C163.95,45.6,163.85,45.34,163.84,45.56z"/>
	<path d="M148.9,22.63c-0.02,0.03-0.05,0.06-0.07,0.09C149.03,22.72,149.04,22.77,148.9,22.63z"/>
	<path d="M148.3,23.43c0.18-0.27,0.35-0.46,0.53-0.71C148.44,22.7,148.21,22.91,148.3,23.43z"/>
	<path d="M147.39,24.13l0.1,0.1C147.56,23.9,147.62,23.91,147.39,24.13z"/>
	<path d="M147.55,23.97c0.21-0.21,0.4-0.38,0.64-0.54C147.87,23.35,147.68,23.56,147.55,23.97z"/>
	<path d="M150.3,23.33c0,0.1-0.1,0.2-0.1,0.3C150.3,23.53,150.4,23.43,150.3,23.33z"/>
	<path d="M186.29,31.35c-0.24,0.24-0.43,0.44-0.6,0.7C186.04,31.96,186.3,31.85,186.29,31.35z"/>
	<path d="M186.39,31.25l-0.02-0.02c0.03,0.02,0.03-0.01,0.12-0.07c-0.07,0-0.12,0-0.2-0.01C186.32,31.36,186.22,31.42,186.39,31.25z   "/>
	<path d="M213.26,37.06c0.1,0,0.1-0.1,0.1-0.2C213.08,37.14,213.12,37.06,213.26,37.06z"/>
	<path d="M213.06,37.17c0.03-0.03,0.06-0.06,0.09-0.09C213.1,37.09,213.06,37.11,213.06,37.17z"/>
	<path d="M154.51,46.89c0,0-0.1,0-0.2,0C154.51,46.89,154.64,47.02,154.51,46.89z"/>
	<path d="M154.56,46.95c0.06,0.07,0.09,0.14,0.25,0.14C154.71,47.04,154.64,46.99,154.56,46.95z"/>
	<path d="M189.7,24.43c-0.08,0.16-0.22,0.32-0.1,0.2C189.7,24.63,189.7,24.53,189.7,24.43z"/>
	<path d="M189.4,24.83c0.05-0.05,0.1-0.1,0.15-0.16C189.47,24.72,189.4,24.75,189.4,24.83z"/>
	<path d="M189.3,24.83c-0.3,0.2-0.5,0.5-0.6,0.9C189.33,24.78,189.53,25.07,189.3,24.83z"/>
	<path d="M182.78,29.85C182.58,30.15,182.78,29.95,182.78,29.85L182.78,29.85z"/>
	<path d="M187.09,30.55c0.06-0.04,0.12-0.08,0.17-0.13C186.93,30.46,186.96,30.41,187.09,30.55z"/>
	<path d="M187.79,29.75c-0.16,0.32-0.32,0.51-0.53,0.67C187.64,30.36,187.79,30.16,187.79,29.75z"/>
	<path d="M186.99,30.45c-0.09,0.34-0.31,0.53-0.5,0.71C186.92,31.18,187.08,30.97,186.99,30.45z"/>
	<path d="M181.38,272.05c-0.3,0.8-0.6,1.3-0.6,1.8c0,2.81-0.6,5.61,0.1,8.72C182.08,277.16,182.28,274.35,181.38,272.05z"/>
	<path d="M167.04,312.05c-5.21,0.43-6,0.41-6.92,1.5C162.63,313.65,164.94,313.25,167.04,312.05z"/>
	<path d="M209.15,257.31c-0.1,2.71,0.4,5.31,0.6,8.02c0,0.5,0.4,1,0.7,1.7c0.76-1.01,1.31,0.32,0.2-7.82   C210.55,258.51,210.45,257.51,209.15,257.31z"/>
	<path d="M205.24,241.27c0.58,0,0.63,0.07,0.3-1.6C205.14,239.67,205.24,239.38,205.24,241.27z"/>
	<path d="M206.84,247.08c0.24-0.47,0.46-0.08,0-1C206.84,246.38,206.84,246.68,206.84,247.08z"/>
	<path d="M199.42,211.8c-0.1-0.1-0.2-0.1-0.3-0.1C199.12,212.54,199.79,211.8,199.42,211.8z"/>
	<path d="M207.74,252.2c0-0.32,0.39-0.41,0-0.8C207.36,251.78,207.6,252.05,207.74,252.2z"/>
	<path d="M201.43,204.68c0,0.1,0.1-0.1,0.2-0.1C201.1,204.39,201,204.48,201.43,204.68z"/>
	<path d="M200.93,204.28l-0.2,0.1C201.31,204.56,201.12,204.47,200.93,204.28z"/>
	<path d="M200.83,204.28c-0.03-0.03-0.07-0.09-0.1-0.13C200.73,204.44,200.69,204.41,200.83,204.28z"/>
	<path d="M200.73,204.08c0-0.1-0.1-0.1-0.2-0.2C200.74,204.09,200.73,204.24,200.73,204.08z"/>
	<path d="M198.22,201.67c-0.1-0.1-0.2-0.2-0.3-0.3C197.92,201.57,198.02,201.67,198.22,201.67z"/>
	<path d="M589.39,479.96c4.06-11.23-4.52,4.55-5.91,10.53C585.88,488.18,587.04,486.44,589.39,479.96z"/>
	<path d="M522.02,561.06c-0.37,1.1,0.82,1.73,1.6,1.2c1.8-1.6,2.71-3.41,2.11-6.22C523.93,557.65,522.92,559.26,522.02,561.06z"/>
	<path d="M542.77,464.12c3.41,0.3,5.71-0.7,7.82-2.31C547.99,461.52,545.48,461.41,542.77,464.12z"/>
	<path d="M601.82,472.24c0.1-0.5-0.1-0.9-1-0.7c0.1,2.11-1.1,4.11-0.7,6.82C601.03,477.08,601.05,478.36,601.82,472.24z"/>
	<path d="M610.44,441.47c-1.4-1.3-1.4-1.3-3.21-1.2C608.87,441.35,610.03,442.7,610.44,441.47z"/>
	<path d="M526.53,554.04c0,0.26,0.5,0.94,0.5,0.4c0.3-0.3,0.5-0.6,0.7-1l-0.4-0.3C527.03,553.44,526.73,553.74,526.53,554.04z"/>
	<path d="M572.45,508.33c2.03-1.27,1.2-0.88,1.5-1.8C573.22,506.16,573.41,506.21,572.45,508.33z"/>
	<path d="M555.8,460.21c0.5,0.2,1,0,1.2-0.8c-0.5,0.1-0.9,0.2-1.4,0.2C555.7,459.81,555.7,460.21,555.8,460.21z"/>
	<path d="M603.22,438.86c-0.42-0.84-0.59-0.4-0.9-0.4C602.59,438.99,602.64,439.15,603.22,438.86z"/>
	<path d="M580.17,494.8c0.38,0.77,0.55,0.15,1-0.3C580.87,493.91,580.89,494.07,580.17,494.8z"/>
	<path d="M531.44,546.83c-0.1,0.1-0.49,0.81-0.1,1c0.76-0.76,0.7-0.33,0.7-0.9C531.85,546.83,531.44,546.73,531.44,546.83z"/>
	<path d="M588.69,460.91c0.1,0,0.3-0.1,0.4-0.1C589.09,460.46,588.69,460.33,588.69,460.91z"/>
	<path d="M560.92,459.11c0.2,0,0.06,0.22,0.7-0.1C561.33,458.72,561.22,458.81,560.92,459.11z"/>
	<path d="M585.48,462.02c0.5,0,0.2,0.08,0.2-0.3c-0.1,0-0.2,0.1-0.3,0.1C585.48,461.82,585.48,461.92,585.48,462.02z"/>
	<path d="M536.36,465.42c0.22,0.22-0.1,0.2,0.4,0.2C536.53,465.4,536.86,465.42,536.36,465.42z"/>
	<path d="M600.92,465.73c0,0.1,0.1,0.2,0.1,0.3C601.32,466.03,601.24,465.4,600.92,465.73z"/>
	<path d="M577.26,501.51c0,0,0.1-0.1,0.2-0.1c0-0.1,0-0.2,0.1-0.3C576.9,501.11,577.26,501.33,577.26,501.51z"/>
	<path d="M529.04,551.24c0.1-0.1,0.3-0.11,0.3-0.4C528.69,550.84,529.04,551.06,529.04,551.24z"/>
	<path d="M566.43,457.61c0.26,0,0.23,0.05,0.1-0.2L566.43,457.61z"/>
	<path d="M519.41,225.23l-0.1,0.1C519.47,225.41,519.48,225.38,519.41,225.23z"/>
	<path d="M533.05,233.95l0.02-0.02c0.06,0.03,0.12,0.06,0.18,0.12c0-0.12-0.04-0.17-0.12-0.18l0.02-0.02   C533,233.85,532.88,233.84,533.05,233.95z"/>
	<path d="M532.34,241.77c0-0.7-0.7-0.9-1.1-1.1c-1.9-1.4-3.61-2.91-5.61-5.31c2.81,0.8,4.71,2.31,7.52,2   c-1.57-0.91-10.2-6.14-8.92-7.42c1.07,0.62,7.33,4.19,8.74,3.94c-1.81-1.45-11.25-7.55-13.51-8.5   C520.24,228.52,520.42,237.42,532.34,241.77z"/>
	<path d="M548.99,241.47c-5.7-0.63-2.98,0.01-8.72-4.01c-5.03,4.67-3.01,3.52-5.71,5.82c0.1,1.3,0.2,2.7,0.3,4.2   c-1.4-0.35-1.78-0.51-1.85-0.59c0.15,0.35,0.65,0.91,0.65,1.79c0.3,0.7-0.2,1.7,0.9,2.21c0.2-0.7,0.5-1.3,0.9-2.21   c1.6,1.6,3.07,2.81,3.41,5.11c1.03,6.91,6.16,1.71,4.61-0.6c-1.6-0.4-1,2.11-2.71,1.8c0.4-2.41-1.1-4.21-2.21-6.12   c-0.63-0.63-1.18-1.67-1.36-2.06c-2.39-2.09,1.33-4.93,0.65-4.26c1.69-1.69-0.02-0.35,2.51-3.51c0.46,0.46,0.75,0.83,1.11,1.2   c0.5,0,0.79,0.3,0.79,0.8c0.17,0.17-0.43-0.03-0.48-0.6c-2.94,0-1.84-0.3-2.92,1.5c-1.34,1.34-2.23,4.79,0,7.02   c1.5-0.1,2.01,1.4,3.11,2c2.71-1.5,2.71-1.5,1.4-3.81c1.62-3.23,1.98-1.06-0.2-5.32C548.21,243.87,547.66,243.8,548.99,241.47z    M540.67,242.37c0.96,0.96,1.79,0.8-0.36,0.8C540.42,242.9,540.58,242.64,540.67,242.37z M543.78,244.68c-3,2-2.01,1.13-2.61,3.81   c-0.91-0.65-2.61-1.35-2.61-3.71c0.1-0.8,0.79-1.39,1.69-1.5c0.71,0.87,0.93,0.85,1.48-0.06   C542.32,243.62,542.9,244.1,543.78,244.68z"/>
	<path d="M537.21,246.83c0.02,0.02,0.03,0.04,0.05,0.05C537.12,246.61,537.12,246.64,537.21,246.83z"/>
	<path d="M533,246.9c0-0.01-0.01-0.02-0.01-0.03C532.99,246.87,532.99,246.88,533,246.9z"/>
	<path d="M532.96,246.73c0,0.04,0.01,0.08,0.03,0.13C532.99,246.81,533.13,246.79,532.96,246.73z"/>
	<path d="M541.47,240.27l0.1,0.1C541.56,240.35,541.49,240.27,541.47,240.27z"/>
	<path d="M534.55,243.28c-0.04,0.04-0.06,0.06-0.08,0.08C534.49,243.34,534.51,243.32,534.55,243.28z"/>
	<path d="M554.8,229.14l-0.1-0.3C554.44,229.19,554.43,229.01,554.8,229.14z"/>
	<path d="M529.44,228.14v0.1C529.87,228.34,529.6,228.28,529.44,228.14z"/>
	<path d="M539.77,230.84c-3.53-0.69-5.96-1.77-10.09-2.56c3.57,2.45,6.36,2.68,16.91,4.66c1.46,0.27,6.43-1.92,7.93-3.88   c-0.98-0.18-1.4,0.97-2.32,0.97c-0.3-0.3-0.6-0.6-0.8-0.8c-0.69,0.39-1.28,0.69-1.87,1.08   C548.48,228.4,546.32,232.13,539.77,230.84z M549.38,230.47c-0.16,0.19-0.33,0.37-0.49,0.56   C548.89,230.68,549.08,230.51,549.38,230.47z M546.88,231.55c0.64-0.09,1.2-0.18,1.82-0.27   C548.05,232.52,546.49,232.33,546.88,231.55z"/>
	<path d="M539.66,240.37l-0.1,0.1C539.61,240.47,539.6,240.49,539.66,240.37z"/>
	<path d="M541.87,240.47l-0.1-0.1C541.77,240.48,541.79,240.47,541.87,240.47z"/>
	<path d="M513.7,218.91c0.7,0.1,1.4,0.3,2.11,0.4c-0.5-0.3-0.8-1.1-1.1-1.1c-3.62-0.75-6.81-0.73-8.22,6.92   c-0.87,4.7-0.7,7.92,0.5,13.23C507.3,229.89,506.49,217.91,513.7,218.91z"/>
	<path d="M580.37,235.16c-2.69,0.62-6.98,1.15-7.62,3.71c0.5,0.2,1.5-0.3,1.5,0.9c0,0.3-0.2,0.5-0.3,0.8   c-0.64-0.09-1.2-0.11-1.82-0.18c1.01,1.69,2.78,2.11,4.63,2.79c-0.5-2.31,1.6-3.61,1.2-5.31   C578.76,236.76,580.37,236.66,580.37,235.16z"/>
	<path d="M572.04,240.27l-0.1,0.1C572.23,240.42,572.09,240.38,572.04,240.27z"/>
	<path d="M558.11,269.34c-1.8-0.9-7.8-1.38-10.13-8.72c-0.2-0.8-0.6-1.6-1-2.61C545,269.91,563.61,272.09,558.11,269.34z"/>
	<path d="M534.05,254.1c-0.5-0.68-6.6-8.69-7.32-9.12c-2.9-1.52-4.82-5.96-5.91-5.41c0.2,0.4,0.2,0.9,0.5,1.2   c1,1.3,2,2.71,3.21,3.81C531.05,250.53,530.78,253.56,534.05,254.1z"/>
	<path d="M555.2,223.02C555.34,222.92,555.34,222.88,555.2,223.02L555.2,223.02z"/>
	<path d="M555.3,223.73l-0.1-0.1C555.23,223.71,555.22,223.73,555.3,223.73z"/>
	<path d="M545.98,223.63l-0.1,0.1C546.2,223.77,546.09,223.74,545.98,223.63z"/>
	<path d="M549.29,225.23c0.71,0.28,1.4,0.6,2.21,0.9c-4.54,3.97,0.16,1.06,4.01-1.2c-0.26-1.57-0.14-1.08-1.03-1.35   c0.24-0.17,0.48-0.39,0.73-0.56c-0.3-0.58-0.79-0.48-1.19-0.19c-1.82,1.82-3.09,1.25-7.91,0.91   C547.08,224.72,547.29,224.43,549.29,225.23z"/>
	<path d="M567.73,212.9c0.3,0.2,0.8,0.3,1.2,0.5c1.2,0.8,2.41,0.8,3.61,0.3c0.7-2.32-6.46-3.05-9.02-2.71   c4.34,4.34,3.57,3.57,4.51,3.81c-0.29-2.04-0.22-2-0.8-2C567.63,212.2,567.53,212.8,567.73,212.9z"/>
	<path d="M526.93,215.61c4.31-2.01,8.72-3.31,13.43-4.51C536.45,210.85,528.63,212.6,526.93,215.61z"/>
	<path d="M550.09,212.6c4.61,1.7,8.62,3.11,12.63,4.61C560.42,214.8,554.4,212.7,550.09,212.6z"/>
	<path d="M571.24,231.45c2.46,0.31-1.59,0.62,10.23-0.6C579.46,228.94,576.36,229.04,571.24,231.45z"/>
	<path d="M556.41,217.51c-6.78-1.02-4.71-1.34-7.32,0.4C554.83,219.42,553.93,219.67,556.41,217.51z"/>
	<path d="M551.79,236.66c-4.2,1.96-2.91,1.62-7.52,2.61C546.83,241.31,551.26,239.59,551.79,236.66z"/>
	<path d="M550.49,233.05c-2.21,1.3-4.31,2.61-7.22,4.31c3.51-0.1,5.71-1.5,7.52-3.61C550.89,233.65,550.69,233.35,550.49,233.05z"/>
	<path d="M536.86,272.55c1.8,6.12,1.4,4.84,2.71,5.71c-0.2-2.51-1-4.61-1.7-6.62C537.16,271.65,536.76,271.95,536.86,272.55z"/>
	<path d="M530.34,253.43c0,2.22,3.82,6.4,5.31,8.09C534.63,258.19,535.87,260.77,530.34,253.43z"/>
	<path d="M530.34,253.2c-0.13,0.13-0.12,0.07,0,0.23C530.34,253.35,530.34,253.28,530.34,253.2z"/>
	<path d="M511.39,228.74c-1.42,2.13-1.46,7.12-1.1,9.72C511.08,231.6,511.39,231.25,511.39,228.74z"/>
	<path d="M555.6,278.06c-0.2-2.21-0.4-4.31-2.31-6.12C553.1,274.65,554,276.56,555.6,278.06z"/>
	<path d="M519.52,218.71l-0.1-0.1C519.35,218.74,519.31,218.75,519.52,218.71z"/>
	<path d="M517.91,221.92c1.5-3.6,1.94-3.4,0.2-3.01c-2.82,0.64-2.41-0.03-2.41,1.69C518.09,220.57,516.81,219.72,517.91,221.92z"/>
	<path d="M515.71,220.61c-0.15,0-0.11,0,0,0.11C515.71,220.69,515.71,220.65,515.71,220.61z"/>
	<path d="M515.51,221.72c0.16-0.16,0.13-0.52,0.11-0.81c-1.23,1.22-2.52,2.3-2.69,4.13C514.22,224.22,514.63,222.78,515.51,221.72z"/>
	<path d="M515.71,220.82l-0.1-0.1C515.61,220.96,515.6,220.92,515.71,220.82z"/>
	<path d="M512.8,225.13l0.1,0.1C512.9,224.99,513.02,225,512.8,225.13z"/>
	<path d="M561.12,212.3c0.9,0.9,2.21,1.2,3.61,2.21C563.52,212.6,563.52,212.6,561.12,212.3z"/>
	<path d="M511.39,228.74l0.1,0.1C511.46,228.63,511.48,228.61,511.39,228.74z"/>
	<path d="M511.47,228.65c0.86-0.98,1.42-2.16,1.33-3.52C511.75,226.09,511.24,227.24,511.47,228.65z"/>
	<path d="M525.73,251.19c0.13-0.13-0.23-2.19-2.11-2.91C523.83,249.59,524.53,250.59,525.73,251.19z"/>
	<path d="M509.29,260.52c-0.2-0.8,0.1-1.8-0.6-2.91C508.79,258.81,508.49,259.72,509.29,260.52z"/>
	<path d="M570.24,240.07c0.5,0.5,1.1,0.2,1.7,0.2c-0.14,0,0.58-1.28,0.64-1.38C571.66,238.93,570.9,239.41,570.24,240.07z"/>
	<path d="M572.75,238.86l-0.1-0.1C572.55,238.96,572.57,238.86,572.75,238.86z"/>
	<path d="M527.94,253.3c-0.3-1.1-1-1.9-2.11-2.21C526.03,252.4,526.63,253.2,527.94,253.3z"/>
	<path d="M507.89,215.81c0.8-0.1,1.7-0.2,2.61-0.2C509.59,215.41,508.59,214.9,507.89,215.81z"/>
	<path d="M524.53,218.81c0.8-0.2,1.7-0.3,2.71-0.3C526.23,218.21,525.33,217.81,524.53,218.81z"/>
	<path d="M558.21,285.58c0,1.91,0.17,1.6,0.5,1.6C558.71,284.86,559.15,286.05,558.21,285.58z"/>
	<path d="M523.73,248.19c-0.19-0.85-0.58-1.6-1.47-1.94C522.38,247.16,522.78,247.91,523.73,248.19z"/>
	<path d="M522.25,246.24c-0.01-0.05-0.02-0.1-0.03-0.16c-0.14-0.05-0.21-0.16-0.1,0.1l0.04-0.03   C522.11,246.2,522.12,246.22,522.25,246.24z"/>
	<path d="M531.44,244.78c0.19,0.87,0.67,1.54,1.51,1.95C533.01,245.71,532.69,244.97,531.44,244.78z"/>
	<path d="M554.85,228.68c0.43-0.42,1.06-0.77,0.35-1.84C555.11,227.61,554.96,228.16,554.85,228.68z"/>
	<path d="M554.7,228.84l0.1,0.1C554.83,228.7,554.93,228.56,554.7,228.84z"/>
	<path d="M547.58,226.73c-0.9,0-1.6-0.1-2.31-0.1C546.38,227.14,546.38,227.14,547.58,226.73z"/>
	<path d="M522.72,218.91c0.8,0.5,1.3,0.2,1.7-0.2C523.93,218.81,523.42,218.81,522.72,218.91z"/>
	<path d="M543.57,226.43c0.8,0,1.3,0.1,1.8,0.1C544.88,226.03,544.48,225.93,543.57,226.43z"/>
	<path d="M544.68,223.53c0.73,0,1.15,0.05,1.32,0.08c-0.17-0.04-0.59-0.17-1.22-0.48C544.78,223.23,544.68,223.43,544.68,223.53z"/>
	<path d="M545.99,223.61C546.1,223.64,546.11,223.63,545.99,223.61L545.99,223.61z"/>
	<path d="M557.61,281.67c-0.38,0.13-0.37,0.07-0.1,0.2L557.61,281.67z"/>
	<path d="M532.25,241.77l-0.1,0.1C532.33,241.83,532.3,241.87,532.25,241.77z"/>
	<path d="M532.29,241.84c0.31,0.62,0.88,0.62,1.46,0.53C533.47,241.81,532.93,241.7,532.29,241.84z"/>
	<path d="M522.07,246.01c-0.11-0.46-0.28-0.98-0.45-1.43C521.62,245.14,521.46,245.69,522.07,246.01z"/>
	<path d="M543.67,205.98c0,0.16-0.34,0.2,0.2,0.2C543.78,206.18,543.78,206.08,543.67,205.98z"/>
	<path d="M555.91,219.62c-0.34,0.34-0.42,0.51-0.46,0.57C555.91,219.78,556.5,220.21,555.91,219.62z"/>
	<path d="M555.3,220.12c0,0.07-0.08,0.06,0.1,0.1c0,0,0.01,0,0.01-0.01C555.39,220.21,555.37,220.18,555.3,220.12z"/>
	<path d="M555.44,220.19c-0.01,0.01-0.02,0.01-0.03,0.02C555.42,220.21,555.43,220.2,555.44,220.19z"/>
	<path d="M554,220.92c0.49,0,1.15,0.09,1.28-0.73C554.72,220.04,554.19,220.17,554,220.92z"/>
	<path d="M560.92,212.1c-0.01-0.01-0.01-0.01-0.02-0.02C560.83,212.05,560.81,212.05,560.92,212.1z"/>
	<path d="M560.9,212.08c0.07,0.03,0.18,0.07,0.32,0.12C560.94,212.11,560.75,211.93,560.9,212.08z"/>
	<path d="M553.9,220.82c-0.2,0.1-0.6,0.2-1,0.3C553.5,221.62,553.8,221.32,553.9,220.82z"/>
	<path d="M529.3,253.3c0.05,0,0.09,0,0.14,0C529.33,253.19,529.34,253.17,529.3,253.3z"/>
	<path d="M528.94,253.9c0.17-0.09,0.27-0.39,0.36-0.6c-0.43,0-0.81,0-1.26,0C528.04,253.8,528.44,254,528.94,253.9z"/>
	<path d="M508.19,255.61v-0.2C508.06,255.41,508.06,255.35,508.19,255.61z"/>
	<path d="M549.94,215.93c-0.09-0.04-0.16-0.08-0.25-0.12l-0.2-0.1c0.08,0.17,0.09,0.21,0.12,0.18   C549.59,215.92,549.64,215.93,549.94,215.93z"/>
	<path d="M549.94,215.93c0.39,0.19,0.74,0.41,1.15,0.58C550.93,215.88,550.4,215.93,549.94,215.93z"/>
	<path d="M531.44,244.78l0.1-0.1C531.42,244.44,531.48,244.38,531.44,244.78z"/>
	<path d="M530.84,243.28c0.26,0.35,0.45,0.78,0.62,1.21C531.48,244,531.34,243.53,530.84,243.28z"/>
	<path d="M534.35,237.76c0.1,0,0.3,0.1,0.4,0.1C534.75,237.7,534.54,237.57,534.35,237.76z"/>
	<path d="M556.41,222.87c0.21-0.05,0.33-0.05,0.1-0.05C556.65,222.75,556.55,222.78,556.41,222.87z"/>
	<path d="M540.57,281.67c0.13-0.13,0.38-0.05,0-0.8C540.57,281.05,540.17,280.88,540.57,281.67z"/>
	<path d="M529.44,228.14v-0.1C529.3,227.89,529.31,227.89,529.44,228.14z"/>
	<path d="M507.79,215.71c-0.54,0.81-1.07,1.27,0.1,0.1L507.79,215.71z"/>
	<path d="M507.08,216.51l-0.1,0.1C507.24,216.48,507.23,216.51,507.08,216.51z"/>
	<path d="M555.4,223.83c0-0.07,0-0.13-0.01-0.19C555.28,223.75,555.28,223.71,555.4,223.83z"/>
	<path d="M555.3,223.03c0.28,0.56-0.3,1,0.7,0C555.77,223.03,555.53,223.03,555.3,223.03z"/>
	<path d="M556.21,223.03c0.03-0.03,0.06-0.06,0.08-0.08c-0.06,0.03-0.13,0.04-0.18-0.02C555.98,223.05,555.95,223.03,556.21,223.03z   "/>
	<path d="M556.29,222.95C556.39,222.9,556.44,222.81,556.29,222.95L556.29,222.95z"/>
	<path d="M521.42,244.48c0,0.1,0.1,0.1,0.3,0C521.62,244.48,521.52,244.48,521.42,244.48z"/>
	<path d="M530.24,253.1c-0.63,0-1.56,0.1-0.1,0.1L530.24,253.1z"/>
	<path d="M542.17,285.98c-0.38,0.13-0.37,0.07-0.1,0.2L542.17,285.98z"/>
	<path d="M530.94,243.17c-0.1,0-0.2-0.1-0.3-0.1C530.74,243.07,530.84,243.17,530.94,243.17z"/>
	<path d="M534.55,243.17c-0.1-0.07-1.76-1.55-0.1,0.1L534.55,243.17z"/>
	<path d="M474.5,427.73c-3.82,0.55-5.01,1.2-6.22,2.41c4.31-0.9,8.92-1.9,13.63-2.91C479.32,426.53,476.81,427.4,474.5,427.73z"/>
	<path d="M481.82,432.74c-7.18,4.78-6.42,4.44-6.42,5.01c1.88-0.94-1.56,1.39,6.32-4.01c0.3-0.2,0.5-0.7,0.8-1   C482.32,432.74,482.02,432.64,481.82,432.74z"/>
	<path d="M487.03,429.34c-0.9,0.6-1.9,0.9-2.21,2.01C485.93,431.24,486.63,430.64,487.03,429.34z"/>
	<path d="M473.4,440.26c0.9-1.3,1.4-1.9,1.9-2.51C474.1,438.36,474.1,438.36,473.4,440.26z"/>
	<path d="M482.52,432.64c1.2,0.1,1.9-0.3,2.21-1.4C483.73,431.24,482.92,431.74,482.52,432.64z"/>
	<path d="M506.78,413.3c-1.46,2.93-1.58,5.69-1.1,7.12C507.49,418.41,507.49,416.2,506.78,413.3z"/>
	<path d="M515.2,396.25c-0.5-1.1-1-2.31-1.7-3.51C512.8,394.55,512.8,394.65,515.2,396.25z"/>
	<path d="M525.63,394.45c-0.43,0.85-0.67,0.54,0.9,2.31C526.16,394.53,526.45,394.86,525.63,394.45z"/>
	<path d="M516.81,399.26c0.1,0,0.4-0.2,0.6-0.3c-0.2-0.2-0.4-0.4-0.7-0.7C516.71,398.5,516.2,398.96,516.81,399.26z"/>
	<path d="M507.28,407.08c0.34-0.34,0.47-0.33,0-0.8C507.06,406.96,506.96,406.76,507.28,407.08z"/>
</g>
</svg>